%TF.GenerationSoftware,KiCad,Pcbnew,7.0.11-7.0.11~ubuntu22.04.1*%
%TF.CreationDate,2024-07-24T22:07:51-07:00*%
%TF.ProjectId,little_red_rover,6c697474-6c65-45f7-9265-645f726f7665,rev?*%
%TF.SameCoordinates,Original*%
%TF.FileFunction,Drillmap*%
%TF.FilePolarity,Positive*%
%FSLAX45Y45*%
G04 Gerber Fmt 4.5, Leading zero omitted, Abs format (unit mm)*
G04 Created by KiCad (PCBNEW 7.0.11-7.0.11~ubuntu22.04.1) date 2024-07-24 22:07:51*
%MOMM*%
%LPD*%
G01*
G04 APERTURE LIST*
%ADD10C,0.200000*%
%ADD11C,0.100000*%
%ADD12C,0.185000*%
G04 APERTURE END LIST*
D10*
X15930362Y-10491000D02*
G75*
G03*
X15930362Y-9491000I1221638J500000D01*
G01*
X15930362Y-9491000D02*
X14616153Y-8248957D01*
X14616152Y-8248957D02*
G75*
G03*
X13985992Y-8356141I-274748J-290712D01*
G01*
X13985992Y-8356141D02*
G75*
G03*
X13985992Y-11625859I3166008J-1634859D01*
G01*
X13985992Y-11625859D02*
G75*
G03*
X14616153Y-11733043I355412J183528D01*
G01*
X15930362Y-10491000D02*
X14616153Y-11733043D01*
X17122000Y-8171000D02*
X17122000Y-8401000D01*
X18372000Y-8401000D02*
X17122000Y-8401000D01*
X18372000Y-8171000D02*
X18372000Y-8401000D01*
X18372000Y-8171000D02*
X17122000Y-8171000D01*
X18372000Y-6081000D02*
X17122000Y-6081000D01*
X17122000Y-6311000D02*
X17122000Y-6081000D01*
X18372000Y-6311000D02*
X17122000Y-6311000D01*
X18372000Y-6311000D02*
X18372000Y-6081000D01*
X17122000Y-11811000D02*
X17122000Y-11581000D01*
X18372000Y-11811000D02*
X17122000Y-11811000D01*
X18372000Y-11811000D02*
X18372000Y-11581000D01*
X18372000Y-11581000D02*
X17122000Y-11581000D01*
X18372000Y-13901000D02*
X17122000Y-13901000D01*
X18372000Y-13671000D02*
X18372000Y-13901000D01*
X18372000Y-13671000D02*
X17122000Y-13671000D01*
X17122000Y-13671000D02*
X17122000Y-13901000D01*
X20772000Y-11811000D02*
X20772000Y-11581000D01*
X21372000Y-11811000D02*
X20772000Y-11811000D01*
X21372000Y-13671000D02*
X21372000Y-11811000D01*
X21372000Y-13671000D02*
X20772000Y-13671000D01*
X20772000Y-13671000D02*
X20772000Y-13901000D01*
X21372000Y-13901000D02*
X20772000Y-13901000D01*
X21372000Y-14101000D02*
X21372000Y-13901000D01*
X12752000Y-14101000D02*
X21372000Y-14101000D01*
X9161443Y-11991000D02*
G75*
G03*
X12752000Y-14101000I3590557J2000000D01*
G01*
X9457125Y-11991000D02*
X9161443Y-11991000D01*
X9457125Y-11791000D02*
X9457125Y-11991000D01*
X9057125Y-11791000D02*
X9457125Y-11791000D01*
X8765510Y-10991000D02*
G75*
G03*
X9057125Y-11791000I3986490J1000000D01*
G01*
X9120611Y-10991000D02*
X8765510Y-10991000D01*
X9120611Y-10791000D02*
X9120611Y-10991000D01*
X8720611Y-10791000D02*
X9120611Y-10791000D01*
X8720611Y-9191000D02*
G75*
G03*
X8720611Y-10791000I4031387J-800000D01*
G01*
X8720611Y-9191000D02*
X9120611Y-9191000D01*
X9120611Y-9191000D02*
X9120611Y-8991000D01*
X9120611Y-8991000D02*
X8765510Y-8991000D01*
X9057125Y-8191000D02*
G75*
G03*
X8765510Y-8991000I3694875J-1800000D01*
G01*
X9057125Y-8191000D02*
X9457125Y-8191000D01*
X9457125Y-8191000D02*
X9457125Y-7991000D01*
X9457125Y-7991000D02*
X9161443Y-7991000D01*
X12752000Y-5881000D02*
G75*
G03*
X9161443Y-7991000I0J-4110000D01*
G01*
X12752000Y-5881000D02*
X21372000Y-5881000D01*
X21372000Y-6081000D02*
X21372000Y-5881000D01*
X21372000Y-6081000D02*
X20772000Y-6081000D01*
X20772000Y-6311000D02*
X20772000Y-6081000D01*
X21372000Y-6311000D02*
X20772000Y-6311000D01*
X21372000Y-8171000D02*
X21372000Y-6311000D01*
X21372000Y-8171000D02*
X20772000Y-8171000D01*
X20772000Y-8171000D02*
X20772000Y-8401000D01*
X21372000Y-8401000D02*
X20772000Y-8401000D01*
X21372000Y-11581000D02*
X21372000Y-8401000D01*
X21372000Y-11581000D02*
X20772000Y-11581000D01*
D11*
X10786000Y-12296750D02*
X10806000Y-12316750D01*
X10806000Y-12296750D02*
X10786000Y-12316750D01*
X10786000Y-12414750D02*
X10806000Y-12434750D01*
X10806000Y-12414750D02*
X10786000Y-12434750D01*
X10904000Y-12296750D02*
X10924000Y-12316750D01*
X10924000Y-12296750D02*
X10904000Y-12316750D01*
X10904000Y-12414750D02*
X10924000Y-12434750D01*
X10924000Y-12414750D02*
X10904000Y-12434750D01*
X12685500Y-8836000D02*
G75*
G03*
X12660500Y-8836000I-12500J0D01*
G01*
X12660500Y-8836000D02*
G75*
G03*
X12685500Y-8836000I12500J0D01*
G01*
X12685500Y-8936000D02*
G75*
G03*
X12660500Y-8936000I-12500J0D01*
G01*
X12660500Y-8936000D02*
G75*
G03*
X12685500Y-8936000I12500J0D01*
G01*
X12700500Y-11076000D02*
G75*
G03*
X12675500Y-11076000I-12500J0D01*
G01*
X12675500Y-11076000D02*
G75*
G03*
X12700500Y-11076000I12500J0D01*
G01*
X12700500Y-11176000D02*
G75*
G03*
X12675500Y-11176000I-12500J0D01*
G01*
X12675500Y-11176000D02*
G75*
G03*
X12700500Y-11176000I12500J0D01*
G01*
X9842000Y-11550750D02*
X9842000Y-11590750D01*
X9822000Y-11570750D02*
X9862000Y-11570750D01*
X10066000Y-10935750D02*
X10066000Y-10975750D01*
X10046000Y-10955750D02*
X10086000Y-10955750D01*
X10235000Y-9622000D02*
X10235000Y-9662000D01*
X10215000Y-9642000D02*
X10255000Y-9642000D01*
X10394625Y-12501375D02*
X10394625Y-12541375D01*
X10374625Y-12521375D02*
X10414625Y-12521375D01*
X11021118Y-12531535D02*
X11021118Y-12571535D01*
X11001118Y-12551535D02*
X11041118Y-12551535D01*
X11116600Y-12130550D02*
X11116600Y-12170550D01*
X11096600Y-12150550D02*
X11136600Y-12150550D01*
X11215475Y-12344196D02*
X11215475Y-12384196D01*
X11195475Y-12364196D02*
X11235475Y-12364196D01*
X11233000Y-11238750D02*
X11233000Y-11278750D01*
X11213000Y-11258750D02*
X11253000Y-11258750D01*
X11264000Y-11444750D02*
X11264000Y-11484750D01*
X11244000Y-11464750D02*
X11284000Y-11464750D01*
X11306998Y-13202750D02*
X11306998Y-13242750D01*
X11286998Y-13222750D02*
X11326998Y-13222750D01*
X11382000Y-12866750D02*
X11382000Y-12906750D01*
X11362000Y-12886750D02*
X11402000Y-12886750D01*
X11785600Y-12908600D02*
X11785600Y-12948600D01*
X11765600Y-12928600D02*
X11805600Y-12928600D01*
X12391000Y-10895000D02*
X12391000Y-10935000D01*
X12371000Y-10915000D02*
X12411000Y-10915000D01*
X12397000Y-8663000D02*
X12397000Y-8703000D01*
X12377000Y-8683000D02*
X12417000Y-8683000D01*
X12573000Y-6634800D02*
X12573000Y-6674800D01*
X12553000Y-6654800D02*
X12593000Y-6654800D01*
X12678000Y-13121000D02*
X12678000Y-13161000D01*
X12658000Y-13141000D02*
X12698000Y-13141000D01*
X12690000Y-11465000D02*
X12690000Y-11505000D01*
X12670000Y-11485000D02*
X12710000Y-11485000D01*
X12728138Y-12964796D02*
X12728138Y-13004796D01*
X12708138Y-12984796D02*
X12748138Y-12984796D01*
X12776200Y-8285800D02*
X12776200Y-8325800D01*
X12756200Y-8305800D02*
X12796200Y-8305800D01*
X12802622Y-13139000D02*
X12802622Y-13179000D01*
X12782622Y-13159000D02*
X12822622Y-13159000D01*
X12857006Y-8551477D02*
X12857006Y-8591477D01*
X12837006Y-8571477D02*
X12877006Y-8571477D01*
X12876600Y-7952000D02*
X12876600Y-7992000D01*
X12856600Y-7972000D02*
X12896600Y-7972000D01*
X12884000Y-8786000D02*
X12884000Y-8826000D01*
X12864000Y-8806000D02*
X12904000Y-8806000D01*
X12890378Y-9052200D02*
X12890378Y-9092200D01*
X12870378Y-9072200D02*
X12910378Y-9072200D01*
X12894000Y-11047000D02*
X12894000Y-11087000D01*
X12874000Y-11067000D02*
X12914000Y-11067000D01*
X12894000Y-11263000D02*
X12894000Y-11303000D01*
X12874000Y-11283000D02*
X12914000Y-11283000D01*
X12916999Y-8950825D02*
X12916999Y-8990825D01*
X12896999Y-8970825D02*
X12936999Y-8970825D01*
X12928000Y-10724200D02*
X12928000Y-10764200D01*
X12908000Y-10744200D02*
X12948000Y-10744200D01*
X12969605Y-7903265D02*
X12969605Y-7943265D01*
X12949605Y-7923265D02*
X12989605Y-7923265D01*
X12974231Y-7780748D02*
X12974231Y-7820748D01*
X12954231Y-7800748D02*
X12994231Y-7800748D01*
X13006602Y-11152327D02*
X13006602Y-11192327D01*
X12986602Y-11172327D02*
X13026602Y-11172327D01*
X13037132Y-8916711D02*
X13037132Y-8956711D01*
X13017132Y-8936711D02*
X13057132Y-8936711D01*
X13182600Y-12527600D02*
X13182600Y-12567600D01*
X13162600Y-12547600D02*
X13202600Y-12547600D01*
X13360400Y-10317800D02*
X13360400Y-10357800D01*
X13340400Y-10337800D02*
X13380400Y-10337800D01*
X13385800Y-9911400D02*
X13385800Y-9951400D01*
X13365800Y-9931400D02*
X13405800Y-9931400D01*
X13556000Y-7772000D02*
X13556000Y-7812000D01*
X13536000Y-7792000D02*
X13576000Y-7792000D01*
X13563600Y-11968800D02*
X13563600Y-12008800D01*
X13543600Y-11988800D02*
X13583600Y-11988800D01*
X13630920Y-11277290D02*
X13630920Y-11317290D01*
X13610920Y-11297290D02*
X13650920Y-11297290D01*
X13706000Y-11388000D02*
X13706000Y-11428000D01*
X13686000Y-11408000D02*
X13726000Y-11408000D01*
X13763486Y-7851402D02*
X13763486Y-7891402D01*
X13743486Y-7871402D02*
X13783486Y-7871402D01*
X14380000Y-13474500D02*
X14380000Y-13514500D01*
X14360000Y-13494500D02*
X14400000Y-13494500D01*
X14819000Y-13937000D02*
X14819000Y-13977000D01*
X14799000Y-13957000D02*
X14839000Y-13957000D01*
X14970000Y-13614000D02*
X14970000Y-13654000D01*
X14950000Y-13634000D02*
X14990000Y-13634000D01*
X15791000Y-13466000D02*
X15791000Y-13506000D01*
X15771000Y-13486000D02*
X15811000Y-13486000D01*
X15824200Y-11029000D02*
X15824200Y-11069000D01*
X15804200Y-11049000D02*
X15844200Y-11049000D01*
X15850000Y-14010000D02*
X15850000Y-14050000D01*
X15830000Y-14030000D02*
X15870000Y-14030000D01*
X16096000Y-13588000D02*
X16096000Y-13628000D01*
X16076000Y-13608000D02*
X16116000Y-13608000D01*
X16157638Y-7007911D02*
X16157638Y-7047911D01*
X16137638Y-7027911D02*
X16177638Y-7027911D01*
X16272500Y-13624000D02*
X16272500Y-13664000D01*
X16252500Y-13644000D02*
X16292500Y-13644000D01*
X16485000Y-13571000D02*
X16485000Y-13611000D01*
X16465000Y-13591000D02*
X16505000Y-13591000D01*
X16611600Y-6812600D02*
X16611600Y-6852600D01*
X16591600Y-6832600D02*
X16631600Y-6832600D01*
X16722500Y-13834000D02*
X16722500Y-13874000D01*
X16702500Y-13854000D02*
X16742500Y-13854000D01*
X16738707Y-7482000D02*
X16738707Y-7522000D01*
X16718707Y-7502000D02*
X16758707Y-7502000D01*
X16805000Y-13626000D02*
X16805000Y-13666000D01*
X16785000Y-13646000D02*
X16825000Y-13646000D01*
X16824000Y-8201000D02*
X16824000Y-8241000D01*
X16804000Y-8221000D02*
X16844000Y-8221000D01*
X16952631Y-6565265D02*
X16952631Y-6605265D01*
X16932631Y-6585265D02*
X16972631Y-6585265D01*
X16971826Y-7418595D02*
X16971826Y-7458595D01*
X16951826Y-7438595D02*
X16991826Y-7438595D01*
X17043400Y-11714800D02*
X17043400Y-11754800D01*
X17023400Y-11734800D02*
X17063400Y-11734800D01*
X17093391Y-6691000D02*
X17093391Y-6731000D01*
X17073391Y-6711000D02*
X17113391Y-6711000D01*
X17107000Y-7225000D02*
X17107000Y-7265000D01*
X17087000Y-7245000D02*
X17127000Y-7245000D01*
X17186882Y-7150000D02*
X17186882Y-7190000D01*
X17166882Y-7170000D02*
X17206882Y-7170000D01*
X17187671Y-7303280D02*
X17187671Y-7343280D01*
X17167671Y-7323280D02*
X17207671Y-7323280D01*
X17280000Y-7404000D02*
X17280000Y-7444000D01*
X17260000Y-7424000D02*
X17300000Y-7424000D01*
X17438251Y-6560647D02*
X17438251Y-6600647D01*
X17418251Y-6580647D02*
X17458251Y-6580647D01*
X17440000Y-7482000D02*
X17440000Y-7522000D01*
X17420000Y-7502000D02*
X17460000Y-7502000D01*
X17485233Y-7793167D02*
X17485233Y-7833167D01*
X17465233Y-7813167D02*
X17505233Y-7813167D01*
X17500600Y-7066600D02*
X17500600Y-7106600D01*
X17480600Y-7086600D02*
X17520600Y-7086600D01*
X17526000Y-7320600D02*
X17526000Y-7360600D01*
X17506000Y-7340600D02*
X17546000Y-7340600D01*
X17581260Y-6485647D02*
X17581260Y-6525647D01*
X17561260Y-6505647D02*
X17601260Y-6505647D01*
X17784000Y-7474000D02*
X17784000Y-7514000D01*
X17764000Y-7494000D02*
X17804000Y-7494000D01*
X17932400Y-7917000D02*
X17932400Y-7957000D01*
X17912400Y-7937000D02*
X17952400Y-7937000D01*
X18487742Y-8736000D02*
X18487742Y-8776000D01*
X18467742Y-8756000D02*
X18507742Y-8756000D01*
X18542000Y-11105200D02*
X18542000Y-11145200D01*
X18522000Y-11125200D02*
X18562000Y-11125200D01*
X18569443Y-8670047D02*
X18569443Y-8710047D01*
X18549443Y-8690047D02*
X18589443Y-8690047D01*
X18614000Y-8136000D02*
X18614000Y-8176000D01*
X18594000Y-8156000D02*
X18634000Y-8156000D01*
X18723998Y-9054681D02*
X18723998Y-9094681D01*
X18703998Y-9074681D02*
X18743998Y-9074681D01*
X18750000Y-7552000D02*
X18750000Y-7592000D01*
X18730000Y-7572000D02*
X18770000Y-7572000D01*
X18774000Y-10518000D02*
X18774000Y-10558000D01*
X18754000Y-10538000D02*
X18794000Y-10538000D01*
X18796000Y-8971600D02*
X18796000Y-9011600D01*
X18776000Y-8991600D02*
X18816000Y-8991600D01*
X18882537Y-9310603D02*
X18882537Y-9350603D01*
X18862537Y-9330603D02*
X18902537Y-9330603D01*
X18885164Y-9096362D02*
X18885164Y-9136362D01*
X18865164Y-9116362D02*
X18905164Y-9116362D01*
X18905551Y-10396418D02*
X18905551Y-10436418D01*
X18885551Y-10416418D02*
X18925551Y-10416418D01*
X18908028Y-9454962D02*
X18908028Y-9494962D01*
X18888028Y-9474962D02*
X18928028Y-9474962D01*
X18965887Y-10310485D02*
X18965887Y-10350485D01*
X18945887Y-10330485D02*
X18985887Y-10330485D01*
X19027131Y-11181777D02*
X19027131Y-11221777D01*
X19007131Y-11201777D02*
X19047131Y-11201777D01*
X19043679Y-10239963D02*
X19043679Y-10279963D01*
X19023679Y-10259963D02*
X19063679Y-10259963D01*
X19100800Y-9149400D02*
X19100800Y-9189400D01*
X19080800Y-9169400D02*
X19120800Y-9169400D01*
X19107896Y-10156888D02*
X19107896Y-10196888D01*
X19087896Y-10176888D02*
X19127896Y-10176888D01*
X19170599Y-8857339D02*
X19170599Y-8897339D01*
X19150599Y-8877339D02*
X19190599Y-8877339D01*
X19181660Y-10920262D02*
X19181660Y-10960262D01*
X19161660Y-10940262D02*
X19201660Y-10940262D01*
X19272597Y-10875000D02*
X19272597Y-10915000D01*
X19252597Y-10895000D02*
X19292597Y-10895000D01*
X19289004Y-8845000D02*
X19289004Y-8885000D01*
X19269004Y-8865000D02*
X19309004Y-8865000D01*
X19311000Y-8995000D02*
X19311000Y-9035000D01*
X19291000Y-9015000D02*
X19331000Y-9015000D01*
X19423989Y-10510676D02*
X19423989Y-10550676D01*
X19403989Y-10530676D02*
X19443989Y-10530676D01*
X19431000Y-11740200D02*
X19431000Y-11780200D01*
X19411000Y-11760200D02*
X19451000Y-11760200D01*
X19462000Y-9486000D02*
X19462000Y-9526000D01*
X19442000Y-9506000D02*
X19482000Y-9506000D01*
X19478938Y-9343686D02*
X19478938Y-9383686D01*
X19458938Y-9363686D02*
X19498938Y-9363686D01*
X19485633Y-10313137D02*
X19485633Y-10353137D01*
X19465633Y-10333137D02*
X19505633Y-10333137D01*
X19498989Y-10425642D02*
X19498989Y-10465642D01*
X19478989Y-10445642D02*
X19518989Y-10445642D01*
X19573375Y-9027511D02*
X19573375Y-9067511D01*
X19553375Y-9047511D02*
X19593375Y-9047511D01*
X19595000Y-9578000D02*
X19595000Y-9618000D01*
X19575000Y-9598000D02*
X19615000Y-9598000D01*
X19630000Y-8882000D02*
X19630000Y-8922000D01*
X19610000Y-8902000D02*
X19650000Y-8902000D01*
X19666000Y-9469846D02*
X19666000Y-9509846D01*
X19646000Y-9489846D02*
X19686000Y-9489846D01*
X19692576Y-8465250D02*
X19692576Y-8505250D01*
X19672576Y-8485250D02*
X19712576Y-8485250D01*
X19745000Y-10478271D02*
X19745000Y-10518271D01*
X19725000Y-10498271D02*
X19765000Y-10498271D01*
X19761200Y-11308400D02*
X19761200Y-11348400D01*
X19741200Y-11328400D02*
X19781200Y-11328400D01*
X19847325Y-10501820D02*
X19847325Y-10541820D01*
X19827325Y-10521820D02*
X19867325Y-10521820D01*
X19851048Y-10372186D02*
X19851048Y-10412186D01*
X19831048Y-10392186D02*
X19871048Y-10392186D01*
X19879754Y-8636779D02*
X19879754Y-8676779D01*
X19859754Y-8656779D02*
X19899754Y-8656779D01*
X20013000Y-9433000D02*
X20013000Y-9473000D01*
X19993000Y-9453000D02*
X20033000Y-9453000D01*
X20099000Y-9374000D02*
X20099000Y-9414000D01*
X20079000Y-9394000D02*
X20119000Y-9394000D01*
X20105000Y-10499000D02*
X20105000Y-10539000D01*
X20085000Y-10519000D02*
X20125000Y-10519000D01*
X20159821Y-10342802D02*
X20159821Y-10382802D01*
X20139821Y-10362802D02*
X20179821Y-10362802D01*
X20199000Y-8999000D02*
X20199000Y-9039000D01*
X20179000Y-9019000D02*
X20219000Y-9019000D01*
X20433000Y-8983000D02*
X20433000Y-9023000D01*
X20413000Y-9003000D02*
X20453000Y-9003000D01*
X20567000Y-10506000D02*
X20567000Y-10546000D01*
X20547000Y-10526000D02*
X20587000Y-10526000D01*
X20704000Y-11345000D02*
X20704000Y-11385000D01*
X20684000Y-11365000D02*
X20724000Y-11365000D01*
X14109213Y-13430713D02*
X14109213Y-13388287D01*
X14066787Y-13388287D01*
X14066787Y-13430713D01*
X14109213Y-13430713D01*
X14058000Y-13354500D02*
X14058000Y-13464500D01*
X14058000Y-13464500D02*
G75*
G03*
X14118000Y-13464500I30000J0D01*
G01*
X14118000Y-13464500D02*
X14118000Y-13354500D01*
X14118000Y-13354500D02*
G75*
G03*
X14058000Y-13354500I-30000J0D01*
G01*
X14109213Y-13848713D02*
X14109213Y-13806287D01*
X14066787Y-13806287D01*
X14066787Y-13848713D01*
X14109213Y-13848713D01*
X14058000Y-13787500D02*
X14058000Y-13867500D01*
X14058000Y-13867500D02*
G75*
G03*
X14118000Y-13867500I30000J0D01*
G01*
X14118000Y-13867500D02*
X14118000Y-13787500D01*
X14118000Y-13787500D02*
G75*
G03*
X14058000Y-13787500I-30000J0D01*
G01*
X14973213Y-13430713D02*
X14973213Y-13388287D01*
X14930787Y-13388287D01*
X14930787Y-13430713D01*
X14973213Y-13430713D01*
X14922000Y-13354500D02*
X14922000Y-13464500D01*
X14922000Y-13464500D02*
G75*
G03*
X14982000Y-13464500I30000J0D01*
G01*
X14982000Y-13464500D02*
X14982000Y-13354500D01*
X14982000Y-13354500D02*
G75*
G03*
X14922000Y-13354500I-30000J0D01*
G01*
X14973213Y-13848713D02*
X14973213Y-13806287D01*
X14930787Y-13806287D01*
X14930787Y-13848713D01*
X14973213Y-13848713D01*
X14922000Y-13787500D02*
X14922000Y-13867500D01*
X14922000Y-13867500D02*
G75*
G03*
X14982000Y-13867500I30000J0D01*
G01*
X14982000Y-13867500D02*
X14982000Y-13787500D01*
X14982000Y-13787500D02*
G75*
G03*
X14922000Y-13787500I-30000J0D01*
G01*
X13373000Y-8364500D02*
X13410500Y-8327000D01*
X13373000Y-8289500D01*
X13335500Y-8327000D01*
X13373000Y-8364500D01*
X13373000Y-8564500D02*
X13410500Y-8527000D01*
X13373000Y-8489500D01*
X13335500Y-8527000D01*
X13373000Y-8564500D01*
X13373000Y-8764500D02*
X13410500Y-8727000D01*
X13373000Y-8689500D01*
X13335500Y-8727000D01*
X13373000Y-8764500D01*
X13373000Y-8964500D02*
X13410500Y-8927000D01*
X13373000Y-8889500D01*
X13335500Y-8927000D01*
X13373000Y-8964500D01*
X13373000Y-9164500D02*
X13410500Y-9127000D01*
X13373000Y-9089500D01*
X13335500Y-9127000D01*
X13373000Y-9164500D01*
X13373000Y-9364500D02*
X13410500Y-9327000D01*
X13373000Y-9289500D01*
X13335500Y-9327000D01*
X13373000Y-9364500D01*
X13373000Y-10689500D02*
X13410500Y-10652000D01*
X13373000Y-10614500D01*
X13335500Y-10652000D01*
X13373000Y-10689500D01*
X13373000Y-10889500D02*
X13410500Y-10852000D01*
X13373000Y-10814500D01*
X13335500Y-10852000D01*
X13373000Y-10889500D01*
X13373000Y-11089500D02*
X13410500Y-11052000D01*
X13373000Y-11014500D01*
X13335500Y-11052000D01*
X13373000Y-11089500D01*
X13373000Y-11289500D02*
X13410500Y-11252000D01*
X13373000Y-11214500D01*
X13335500Y-11252000D01*
X13373000Y-11289500D01*
X13373000Y-11489500D02*
X13410500Y-11452000D01*
X13373000Y-11414500D01*
X13335500Y-11452000D01*
X13373000Y-11489500D01*
X13373000Y-11689500D02*
X13410500Y-11652000D01*
X13373000Y-11614500D01*
X13335500Y-11652000D01*
X13373000Y-11689500D01*
X13301929Y-6198929D02*
X13401929Y-6298929D01*
X13401929Y-6198929D02*
X13301929Y-6298929D01*
X13401929Y-6248929D02*
G75*
G03*
X13301929Y-6248929I-50000J0D01*
G01*
X13301929Y-6248929D02*
G75*
G03*
X13401929Y-6248929I50000J0D01*
G01*
X13301929Y-6452929D02*
X13401929Y-6552929D01*
X13401929Y-6452929D02*
X13301929Y-6552929D01*
X13401929Y-6502929D02*
G75*
G03*
X13301929Y-6502929I-50000J0D01*
G01*
X13301929Y-6502929D02*
G75*
G03*
X13401929Y-6502929I50000J0D01*
G01*
X13555929Y-6198929D02*
X13655929Y-6298929D01*
X13655929Y-6198929D02*
X13555929Y-6298929D01*
X13655929Y-6248929D02*
G75*
G03*
X13555929Y-6248929I-50000J0D01*
G01*
X13555929Y-6248929D02*
G75*
G03*
X13655929Y-6248929I50000J0D01*
G01*
X13555929Y-6452929D02*
X13655929Y-6552929D01*
X13655929Y-6452929D02*
X13555929Y-6552929D01*
X13655929Y-6502929D02*
G75*
G03*
X13555929Y-6502929I-50000J0D01*
G01*
X13555929Y-6502929D02*
G75*
G03*
X13655929Y-6502929I50000J0D01*
G01*
X13809929Y-6198929D02*
X13909929Y-6298929D01*
X13909929Y-6198929D02*
X13809929Y-6298929D01*
X13909929Y-6248929D02*
G75*
G03*
X13809929Y-6248929I-50000J0D01*
G01*
X13809929Y-6248929D02*
G75*
G03*
X13909929Y-6248929I50000J0D01*
G01*
X13809929Y-6452929D02*
X13909929Y-6552929D01*
X13909929Y-6452929D02*
X13809929Y-6552929D01*
X13909929Y-6502929D02*
G75*
G03*
X13809929Y-6502929I-50000J0D01*
G01*
X13809929Y-6502929D02*
G75*
G03*
X13909929Y-6502929I50000J0D01*
G01*
X14063929Y-6198929D02*
X14163929Y-6298929D01*
X14163929Y-6198929D02*
X14063929Y-6298929D01*
X14163929Y-6248929D02*
G75*
G03*
X14063929Y-6248929I-50000J0D01*
G01*
X14063929Y-6248929D02*
G75*
G03*
X14163929Y-6248929I50000J0D01*
G01*
X14063929Y-6452929D02*
X14163929Y-6552929D01*
X14163929Y-6452929D02*
X14063929Y-6552929D01*
X14163929Y-6502929D02*
G75*
G03*
X14063929Y-6502929I-50000J0D01*
G01*
X14063929Y-6502929D02*
G75*
G03*
X14163929Y-6502929I50000J0D01*
G01*
X14317929Y-6198929D02*
X14417929Y-6298929D01*
X14417929Y-6198929D02*
X14317929Y-6298929D01*
X14417929Y-6248929D02*
G75*
G03*
X14317929Y-6248929I-50000J0D01*
G01*
X14317929Y-6248929D02*
G75*
G03*
X14417929Y-6248929I50000J0D01*
G01*
X14317929Y-6452929D02*
X14417929Y-6552929D01*
X14417929Y-6452929D02*
X14317929Y-6552929D01*
X14417929Y-6502929D02*
G75*
G03*
X14317929Y-6502929I-50000J0D01*
G01*
X14317929Y-6502929D02*
G75*
G03*
X14417929Y-6502929I50000J0D01*
G01*
X14571929Y-6198929D02*
X14671929Y-6298929D01*
X14671929Y-6198929D02*
X14571929Y-6298929D01*
X14671929Y-6248929D02*
G75*
G03*
X14571929Y-6248929I-50000J0D01*
G01*
X14571929Y-6248929D02*
G75*
G03*
X14671929Y-6248929I50000J0D01*
G01*
X14571929Y-6452929D02*
X14671929Y-6552929D01*
X14671929Y-6452929D02*
X14571929Y-6552929D01*
X14671929Y-6502929D02*
G75*
G03*
X14571929Y-6502929I-50000J0D01*
G01*
X14571929Y-6502929D02*
G75*
G03*
X14671929Y-6502929I50000J0D01*
G01*
X14825929Y-6198929D02*
X14925929Y-6298929D01*
X14925929Y-6198929D02*
X14825929Y-6298929D01*
X14925929Y-6248929D02*
G75*
G03*
X14825929Y-6248929I-50000J0D01*
G01*
X14825929Y-6248929D02*
G75*
G03*
X14925929Y-6248929I50000J0D01*
G01*
X14825929Y-6452929D02*
X14925929Y-6552929D01*
X14925929Y-6452929D02*
X14825929Y-6552929D01*
X14925929Y-6502929D02*
G75*
G03*
X14825929Y-6502929I-50000J0D01*
G01*
X14825929Y-6502929D02*
G75*
G03*
X14925929Y-6502929I50000J0D01*
G01*
X15079929Y-6198929D02*
X15179929Y-6298929D01*
X15179929Y-6198929D02*
X15079929Y-6298929D01*
X15179929Y-6248929D02*
G75*
G03*
X15079929Y-6248929I-50000J0D01*
G01*
X15079929Y-6248929D02*
G75*
G03*
X15179929Y-6248929I50000J0D01*
G01*
X15079929Y-6452929D02*
X15179929Y-6552929D01*
X15179929Y-6452929D02*
X15079929Y-6552929D01*
X15179929Y-6502929D02*
G75*
G03*
X15079929Y-6502929I-50000J0D01*
G01*
X15079929Y-6502929D02*
G75*
G03*
X15179929Y-6502929I50000J0D01*
G01*
X15333929Y-6198929D02*
X15433929Y-6298929D01*
X15433929Y-6198929D02*
X15333929Y-6298929D01*
X15433929Y-6248929D02*
G75*
G03*
X15333929Y-6248929I-50000J0D01*
G01*
X15333929Y-6248929D02*
G75*
G03*
X15433929Y-6248929I50000J0D01*
G01*
X15333929Y-6452929D02*
X15433929Y-6552929D01*
X15433929Y-6452929D02*
X15333929Y-6552929D01*
X15433929Y-6502929D02*
G75*
G03*
X15333929Y-6502929I-50000J0D01*
G01*
X15333929Y-6502929D02*
G75*
G03*
X15433929Y-6502929I50000J0D01*
G01*
X15587929Y-6198929D02*
X15687929Y-6298929D01*
X15687929Y-6198929D02*
X15587929Y-6298929D01*
X15687929Y-6248929D02*
G75*
G03*
X15587929Y-6248929I-50000J0D01*
G01*
X15587929Y-6248929D02*
G75*
G03*
X15687929Y-6248929I50000J0D01*
G01*
X15587929Y-6452929D02*
X15687929Y-6552929D01*
X15687929Y-6452929D02*
X15587929Y-6552929D01*
X15687929Y-6502929D02*
G75*
G03*
X15587929Y-6502929I-50000J0D01*
G01*
X15587929Y-6502929D02*
G75*
G03*
X15687929Y-6502929I50000J0D01*
G01*
X15841929Y-6198929D02*
X15941929Y-6298929D01*
X15941929Y-6198929D02*
X15841929Y-6298929D01*
X15941929Y-6248929D02*
G75*
G03*
X15841929Y-6248929I-50000J0D01*
G01*
X15841929Y-6248929D02*
G75*
G03*
X15941929Y-6248929I50000J0D01*
G01*
X15841929Y-6452929D02*
X15941929Y-6552929D01*
X15941929Y-6452929D02*
X15841929Y-6552929D01*
X15941929Y-6502929D02*
G75*
G03*
X15841929Y-6502929I-50000J0D01*
G01*
X15841929Y-6502929D02*
G75*
G03*
X15941929Y-6502929I50000J0D01*
G01*
X16095929Y-6198929D02*
X16195929Y-6298929D01*
X16195929Y-6198929D02*
X16095929Y-6298929D01*
X16195929Y-6248929D02*
G75*
G03*
X16095929Y-6248929I-50000J0D01*
G01*
X16095929Y-6248929D02*
G75*
G03*
X16195929Y-6248929I50000J0D01*
G01*
X16095929Y-6452929D02*
X16195929Y-6552929D01*
X16195929Y-6452929D02*
X16095929Y-6552929D01*
X16195929Y-6502929D02*
G75*
G03*
X16095929Y-6502929I-50000J0D01*
G01*
X16095929Y-6502929D02*
G75*
G03*
X16195929Y-6502929I50000J0D01*
G01*
D12*
X11944500Y-6261500D02*
X12129500Y-6446500D01*
X12129500Y-6261500D02*
X11944500Y-6446500D01*
X12037000Y-6261500D02*
X12037000Y-6446500D01*
X11944500Y-6354000D02*
X12129500Y-6354000D01*
X11944500Y-7862500D02*
X12129500Y-8047500D01*
X12129500Y-7862500D02*
X11944500Y-8047500D01*
X12037000Y-7862500D02*
X12037000Y-8047500D01*
X11944500Y-7955000D02*
X12129500Y-7955000D01*
X11944500Y-11941500D02*
X12129500Y-12126500D01*
X12129500Y-11941500D02*
X11944500Y-12126500D01*
X12037000Y-11941500D02*
X12037000Y-12126500D01*
X11944500Y-12034000D02*
X12129500Y-12034000D01*
X11944500Y-13542500D02*
X12129500Y-13727500D01*
X12129500Y-13542500D02*
X11944500Y-13727500D01*
X12037000Y-13542500D02*
X12037000Y-13727500D01*
X11944500Y-13635000D02*
X12129500Y-13635000D01*
D10*
X8892777Y-14422484D02*
X8892777Y-14222484D01*
X8892777Y-14222484D02*
X8940396Y-14222484D01*
X8940396Y-14222484D02*
X8968967Y-14232008D01*
X8968967Y-14232008D02*
X8988015Y-14251055D01*
X8988015Y-14251055D02*
X8997539Y-14270103D01*
X8997539Y-14270103D02*
X9007063Y-14308198D01*
X9007063Y-14308198D02*
X9007063Y-14336769D01*
X9007063Y-14336769D02*
X8997539Y-14374865D01*
X8997539Y-14374865D02*
X8988015Y-14393912D01*
X8988015Y-14393912D02*
X8968967Y-14412960D01*
X8968967Y-14412960D02*
X8940396Y-14422484D01*
X8940396Y-14422484D02*
X8892777Y-14422484D01*
X9092777Y-14422484D02*
X9092777Y-14289150D01*
X9092777Y-14327246D02*
X9102301Y-14308198D01*
X9102301Y-14308198D02*
X9111824Y-14298674D01*
X9111824Y-14298674D02*
X9130872Y-14289150D01*
X9130872Y-14289150D02*
X9149920Y-14289150D01*
X9216586Y-14422484D02*
X9216586Y-14289150D01*
X9216586Y-14222484D02*
X9207063Y-14232008D01*
X9207063Y-14232008D02*
X9216586Y-14241531D01*
X9216586Y-14241531D02*
X9226110Y-14232008D01*
X9226110Y-14232008D02*
X9216586Y-14222484D01*
X9216586Y-14222484D02*
X9216586Y-14241531D01*
X9340396Y-14422484D02*
X9321348Y-14412960D01*
X9321348Y-14412960D02*
X9311824Y-14393912D01*
X9311824Y-14393912D02*
X9311824Y-14222484D01*
X9445158Y-14422484D02*
X9426110Y-14412960D01*
X9426110Y-14412960D02*
X9416586Y-14393912D01*
X9416586Y-14393912D02*
X9416586Y-14222484D01*
X9673729Y-14422484D02*
X9673729Y-14222484D01*
X9673729Y-14222484D02*
X9740396Y-14365341D01*
X9740396Y-14365341D02*
X9807063Y-14222484D01*
X9807063Y-14222484D02*
X9807063Y-14422484D01*
X9988015Y-14422484D02*
X9988015Y-14317722D01*
X9988015Y-14317722D02*
X9978491Y-14298674D01*
X9978491Y-14298674D02*
X9959444Y-14289150D01*
X9959444Y-14289150D02*
X9921348Y-14289150D01*
X9921348Y-14289150D02*
X9902301Y-14298674D01*
X9988015Y-14412960D02*
X9968967Y-14422484D01*
X9968967Y-14422484D02*
X9921348Y-14422484D01*
X9921348Y-14422484D02*
X9902301Y-14412960D01*
X9902301Y-14412960D02*
X9892777Y-14393912D01*
X9892777Y-14393912D02*
X9892777Y-14374865D01*
X9892777Y-14374865D02*
X9902301Y-14355817D01*
X9902301Y-14355817D02*
X9921348Y-14346293D01*
X9921348Y-14346293D02*
X9968967Y-14346293D01*
X9968967Y-14346293D02*
X9988015Y-14336769D01*
X10083253Y-14289150D02*
X10083253Y-14489150D01*
X10083253Y-14298674D02*
X10102301Y-14289150D01*
X10102301Y-14289150D02*
X10140396Y-14289150D01*
X10140396Y-14289150D02*
X10159444Y-14298674D01*
X10159444Y-14298674D02*
X10168967Y-14308198D01*
X10168967Y-14308198D02*
X10178491Y-14327246D01*
X10178491Y-14327246D02*
X10178491Y-14384388D01*
X10178491Y-14384388D02*
X10168967Y-14403436D01*
X10168967Y-14403436D02*
X10159444Y-14412960D01*
X10159444Y-14412960D02*
X10140396Y-14422484D01*
X10140396Y-14422484D02*
X10102301Y-14422484D01*
X10102301Y-14422484D02*
X10083253Y-14412960D01*
X10264205Y-14403436D02*
X10273729Y-14412960D01*
X10273729Y-14412960D02*
X10264205Y-14422484D01*
X10264205Y-14422484D02*
X10254682Y-14412960D01*
X10254682Y-14412960D02*
X10264205Y-14403436D01*
X10264205Y-14403436D02*
X10264205Y-14422484D01*
X10264205Y-14298674D02*
X10273729Y-14308198D01*
X10273729Y-14308198D02*
X10264205Y-14317722D01*
X10264205Y-14317722D02*
X10254682Y-14308198D01*
X10254682Y-14308198D02*
X10264205Y-14298674D01*
X10264205Y-14298674D02*
X10264205Y-14317722D01*
D11*
X8612000Y-14741000D02*
X8632000Y-14761000D01*
X8632000Y-14741000D02*
X8612000Y-14761000D01*
D10*
X8930872Y-14642484D02*
X8949920Y-14642484D01*
X8949920Y-14642484D02*
X8968967Y-14652008D01*
X8968967Y-14652008D02*
X8978491Y-14661531D01*
X8978491Y-14661531D02*
X8988015Y-14680579D01*
X8988015Y-14680579D02*
X8997539Y-14718674D01*
X8997539Y-14718674D02*
X8997539Y-14766293D01*
X8997539Y-14766293D02*
X8988015Y-14804388D01*
X8988015Y-14804388D02*
X8978491Y-14823436D01*
X8978491Y-14823436D02*
X8968967Y-14832960D01*
X8968967Y-14832960D02*
X8949920Y-14842484D01*
X8949920Y-14842484D02*
X8930872Y-14842484D01*
X8930872Y-14842484D02*
X8911824Y-14832960D01*
X8911824Y-14832960D02*
X8902301Y-14823436D01*
X8902301Y-14823436D02*
X8892777Y-14804388D01*
X8892777Y-14804388D02*
X8883253Y-14766293D01*
X8883253Y-14766293D02*
X8883253Y-14718674D01*
X8883253Y-14718674D02*
X8892777Y-14680579D01*
X8892777Y-14680579D02*
X8902301Y-14661531D01*
X8902301Y-14661531D02*
X8911824Y-14652008D01*
X8911824Y-14652008D02*
X8930872Y-14642484D01*
X9083253Y-14823436D02*
X9092777Y-14832960D01*
X9092777Y-14832960D02*
X9083253Y-14842484D01*
X9083253Y-14842484D02*
X9073729Y-14832960D01*
X9073729Y-14832960D02*
X9083253Y-14823436D01*
X9083253Y-14823436D02*
X9083253Y-14842484D01*
X9168967Y-14661531D02*
X9178491Y-14652008D01*
X9178491Y-14652008D02*
X9197539Y-14642484D01*
X9197539Y-14642484D02*
X9245158Y-14642484D01*
X9245158Y-14642484D02*
X9264205Y-14652008D01*
X9264205Y-14652008D02*
X9273729Y-14661531D01*
X9273729Y-14661531D02*
X9283253Y-14680579D01*
X9283253Y-14680579D02*
X9283253Y-14699627D01*
X9283253Y-14699627D02*
X9273729Y-14728198D01*
X9273729Y-14728198D02*
X9159444Y-14842484D01*
X9159444Y-14842484D02*
X9283253Y-14842484D01*
X9407063Y-14642484D02*
X9426110Y-14642484D01*
X9426110Y-14642484D02*
X9445158Y-14652008D01*
X9445158Y-14652008D02*
X9454682Y-14661531D01*
X9454682Y-14661531D02*
X9464205Y-14680579D01*
X9464205Y-14680579D02*
X9473729Y-14718674D01*
X9473729Y-14718674D02*
X9473729Y-14766293D01*
X9473729Y-14766293D02*
X9464205Y-14804388D01*
X9464205Y-14804388D02*
X9454682Y-14823436D01*
X9454682Y-14823436D02*
X9445158Y-14832960D01*
X9445158Y-14832960D02*
X9426110Y-14842484D01*
X9426110Y-14842484D02*
X9407063Y-14842484D01*
X9407063Y-14842484D02*
X9388015Y-14832960D01*
X9388015Y-14832960D02*
X9378491Y-14823436D01*
X9378491Y-14823436D02*
X9368967Y-14804388D01*
X9368967Y-14804388D02*
X9359444Y-14766293D01*
X9359444Y-14766293D02*
X9359444Y-14718674D01*
X9359444Y-14718674D02*
X9368967Y-14680579D01*
X9368967Y-14680579D02*
X9378491Y-14661531D01*
X9378491Y-14661531D02*
X9388015Y-14652008D01*
X9388015Y-14652008D02*
X9407063Y-14642484D01*
X9597539Y-14642484D02*
X9616586Y-14642484D01*
X9616586Y-14642484D02*
X9635634Y-14652008D01*
X9635634Y-14652008D02*
X9645158Y-14661531D01*
X9645158Y-14661531D02*
X9654682Y-14680579D01*
X9654682Y-14680579D02*
X9664205Y-14718674D01*
X9664205Y-14718674D02*
X9664205Y-14766293D01*
X9664205Y-14766293D02*
X9654682Y-14804388D01*
X9654682Y-14804388D02*
X9645158Y-14823436D01*
X9645158Y-14823436D02*
X9635634Y-14832960D01*
X9635634Y-14832960D02*
X9616586Y-14842484D01*
X9616586Y-14842484D02*
X9597539Y-14842484D01*
X9597539Y-14842484D02*
X9578491Y-14832960D01*
X9578491Y-14832960D02*
X9568967Y-14823436D01*
X9568967Y-14823436D02*
X9559444Y-14804388D01*
X9559444Y-14804388D02*
X9549920Y-14766293D01*
X9549920Y-14766293D02*
X9549920Y-14718674D01*
X9549920Y-14718674D02*
X9559444Y-14680579D01*
X9559444Y-14680579D02*
X9568967Y-14661531D01*
X9568967Y-14661531D02*
X9578491Y-14652008D01*
X9578491Y-14652008D02*
X9597539Y-14642484D01*
X9749920Y-14842484D02*
X9749920Y-14709150D01*
X9749920Y-14728198D02*
X9759444Y-14718674D01*
X9759444Y-14718674D02*
X9778491Y-14709150D01*
X9778491Y-14709150D02*
X9807063Y-14709150D01*
X9807063Y-14709150D02*
X9826110Y-14718674D01*
X9826110Y-14718674D02*
X9835634Y-14737722D01*
X9835634Y-14737722D02*
X9835634Y-14842484D01*
X9835634Y-14737722D02*
X9845158Y-14718674D01*
X9845158Y-14718674D02*
X9864205Y-14709150D01*
X9864205Y-14709150D02*
X9892777Y-14709150D01*
X9892777Y-14709150D02*
X9911825Y-14718674D01*
X9911825Y-14718674D02*
X9921348Y-14737722D01*
X9921348Y-14737722D02*
X9921348Y-14842484D01*
X10016586Y-14842484D02*
X10016586Y-14709150D01*
X10016586Y-14728198D02*
X10026110Y-14718674D01*
X10026110Y-14718674D02*
X10045158Y-14709150D01*
X10045158Y-14709150D02*
X10073729Y-14709150D01*
X10073729Y-14709150D02*
X10092777Y-14718674D01*
X10092777Y-14718674D02*
X10102301Y-14737722D01*
X10102301Y-14737722D02*
X10102301Y-14842484D01*
X10102301Y-14737722D02*
X10111825Y-14718674D01*
X10111825Y-14718674D02*
X10130872Y-14709150D01*
X10130872Y-14709150D02*
X10159444Y-14709150D01*
X10159444Y-14709150D02*
X10178491Y-14718674D01*
X10178491Y-14718674D02*
X10188015Y-14737722D01*
X10188015Y-14737722D02*
X10188015Y-14842484D01*
X10578491Y-14632960D02*
X10407063Y-14890103D01*
X10835634Y-14642484D02*
X10854682Y-14642484D01*
X10854682Y-14642484D02*
X10873729Y-14652008D01*
X10873729Y-14652008D02*
X10883253Y-14661531D01*
X10883253Y-14661531D02*
X10892777Y-14680579D01*
X10892777Y-14680579D02*
X10902301Y-14718674D01*
X10902301Y-14718674D02*
X10902301Y-14766293D01*
X10902301Y-14766293D02*
X10892777Y-14804388D01*
X10892777Y-14804388D02*
X10883253Y-14823436D01*
X10883253Y-14823436D02*
X10873729Y-14832960D01*
X10873729Y-14832960D02*
X10854682Y-14842484D01*
X10854682Y-14842484D02*
X10835634Y-14842484D01*
X10835634Y-14842484D02*
X10816587Y-14832960D01*
X10816587Y-14832960D02*
X10807063Y-14823436D01*
X10807063Y-14823436D02*
X10797539Y-14804388D01*
X10797539Y-14804388D02*
X10788015Y-14766293D01*
X10788015Y-14766293D02*
X10788015Y-14718674D01*
X10788015Y-14718674D02*
X10797539Y-14680579D01*
X10797539Y-14680579D02*
X10807063Y-14661531D01*
X10807063Y-14661531D02*
X10816587Y-14652008D01*
X10816587Y-14652008D02*
X10835634Y-14642484D01*
X10988015Y-14823436D02*
X10997539Y-14832960D01*
X10997539Y-14832960D02*
X10988015Y-14842484D01*
X10988015Y-14842484D02*
X10978491Y-14832960D01*
X10978491Y-14832960D02*
X10988015Y-14823436D01*
X10988015Y-14823436D02*
X10988015Y-14842484D01*
X11121348Y-14642484D02*
X11140396Y-14642484D01*
X11140396Y-14642484D02*
X11159444Y-14652008D01*
X11159444Y-14652008D02*
X11168968Y-14661531D01*
X11168968Y-14661531D02*
X11178491Y-14680579D01*
X11178491Y-14680579D02*
X11188015Y-14718674D01*
X11188015Y-14718674D02*
X11188015Y-14766293D01*
X11188015Y-14766293D02*
X11178491Y-14804388D01*
X11178491Y-14804388D02*
X11168968Y-14823436D01*
X11168968Y-14823436D02*
X11159444Y-14832960D01*
X11159444Y-14832960D02*
X11140396Y-14842484D01*
X11140396Y-14842484D02*
X11121348Y-14842484D01*
X11121348Y-14842484D02*
X11102301Y-14832960D01*
X11102301Y-14832960D02*
X11092777Y-14823436D01*
X11092777Y-14823436D02*
X11083253Y-14804388D01*
X11083253Y-14804388D02*
X11073729Y-14766293D01*
X11073729Y-14766293D02*
X11073729Y-14718674D01*
X11073729Y-14718674D02*
X11083253Y-14680579D01*
X11083253Y-14680579D02*
X11092777Y-14661531D01*
X11092777Y-14661531D02*
X11102301Y-14652008D01*
X11102301Y-14652008D02*
X11121348Y-14642484D01*
X11311825Y-14642484D02*
X11330872Y-14642484D01*
X11330872Y-14642484D02*
X11349920Y-14652008D01*
X11349920Y-14652008D02*
X11359444Y-14661531D01*
X11359444Y-14661531D02*
X11368967Y-14680579D01*
X11368967Y-14680579D02*
X11378491Y-14718674D01*
X11378491Y-14718674D02*
X11378491Y-14766293D01*
X11378491Y-14766293D02*
X11368967Y-14804388D01*
X11368967Y-14804388D02*
X11359444Y-14823436D01*
X11359444Y-14823436D02*
X11349920Y-14832960D01*
X11349920Y-14832960D02*
X11330872Y-14842484D01*
X11330872Y-14842484D02*
X11311825Y-14842484D01*
X11311825Y-14842484D02*
X11292777Y-14832960D01*
X11292777Y-14832960D02*
X11283253Y-14823436D01*
X11283253Y-14823436D02*
X11273729Y-14804388D01*
X11273729Y-14804388D02*
X11264206Y-14766293D01*
X11264206Y-14766293D02*
X11264206Y-14718674D01*
X11264206Y-14718674D02*
X11273729Y-14680579D01*
X11273729Y-14680579D02*
X11283253Y-14661531D01*
X11283253Y-14661531D02*
X11292777Y-14652008D01*
X11292777Y-14652008D02*
X11311825Y-14642484D01*
X11445158Y-14642484D02*
X11578491Y-14642484D01*
X11578491Y-14642484D02*
X11492777Y-14842484D01*
X11664206Y-14842484D02*
X11702301Y-14842484D01*
X11702301Y-14842484D02*
X11721348Y-14832960D01*
X11721348Y-14832960D02*
X11730872Y-14823436D01*
X11730872Y-14823436D02*
X11749920Y-14794865D01*
X11749920Y-14794865D02*
X11759444Y-14756769D01*
X11759444Y-14756769D02*
X11759444Y-14680579D01*
X11759444Y-14680579D02*
X11749920Y-14661531D01*
X11749920Y-14661531D02*
X11740396Y-14652008D01*
X11740396Y-14652008D02*
X11721348Y-14642484D01*
X11721348Y-14642484D02*
X11683253Y-14642484D01*
X11683253Y-14642484D02*
X11664206Y-14652008D01*
X11664206Y-14652008D02*
X11654682Y-14661531D01*
X11654682Y-14661531D02*
X11645158Y-14680579D01*
X11645158Y-14680579D02*
X11645158Y-14728198D01*
X11645158Y-14728198D02*
X11654682Y-14747246D01*
X11654682Y-14747246D02*
X11664206Y-14756769D01*
X11664206Y-14756769D02*
X11683253Y-14766293D01*
X11683253Y-14766293D02*
X11721348Y-14766293D01*
X11721348Y-14766293D02*
X11740396Y-14756769D01*
X11740396Y-14756769D02*
X11749920Y-14747246D01*
X11749920Y-14747246D02*
X11759444Y-14728198D01*
X11835634Y-14642484D02*
X11835634Y-14680579D01*
X11911825Y-14642484D02*
X11911825Y-14680579D01*
X12207063Y-14918674D02*
X12197539Y-14909150D01*
X12197539Y-14909150D02*
X12178491Y-14880579D01*
X12178491Y-14880579D02*
X12168968Y-14861531D01*
X12168968Y-14861531D02*
X12159444Y-14832960D01*
X12159444Y-14832960D02*
X12149920Y-14785341D01*
X12149920Y-14785341D02*
X12149920Y-14747246D01*
X12149920Y-14747246D02*
X12159444Y-14699627D01*
X12159444Y-14699627D02*
X12168968Y-14671055D01*
X12168968Y-14671055D02*
X12178491Y-14652008D01*
X12178491Y-14652008D02*
X12197539Y-14623436D01*
X12197539Y-14623436D02*
X12207063Y-14613912D01*
X12368968Y-14709150D02*
X12368968Y-14842484D01*
X12321348Y-14632960D02*
X12273729Y-14775817D01*
X12273729Y-14775817D02*
X12397539Y-14775817D01*
X12626110Y-14842484D02*
X12626110Y-14642484D01*
X12711825Y-14842484D02*
X12711825Y-14737722D01*
X12711825Y-14737722D02*
X12702301Y-14718674D01*
X12702301Y-14718674D02*
X12683253Y-14709150D01*
X12683253Y-14709150D02*
X12654682Y-14709150D01*
X12654682Y-14709150D02*
X12635634Y-14718674D01*
X12635634Y-14718674D02*
X12626110Y-14728198D01*
X12835634Y-14842484D02*
X12816587Y-14832960D01*
X12816587Y-14832960D02*
X12807063Y-14823436D01*
X12807063Y-14823436D02*
X12797539Y-14804388D01*
X12797539Y-14804388D02*
X12797539Y-14747246D01*
X12797539Y-14747246D02*
X12807063Y-14728198D01*
X12807063Y-14728198D02*
X12816587Y-14718674D01*
X12816587Y-14718674D02*
X12835634Y-14709150D01*
X12835634Y-14709150D02*
X12864206Y-14709150D01*
X12864206Y-14709150D02*
X12883253Y-14718674D01*
X12883253Y-14718674D02*
X12892777Y-14728198D01*
X12892777Y-14728198D02*
X12902301Y-14747246D01*
X12902301Y-14747246D02*
X12902301Y-14804388D01*
X12902301Y-14804388D02*
X12892777Y-14823436D01*
X12892777Y-14823436D02*
X12883253Y-14832960D01*
X12883253Y-14832960D02*
X12864206Y-14842484D01*
X12864206Y-14842484D02*
X12835634Y-14842484D01*
X13016587Y-14842484D02*
X12997539Y-14832960D01*
X12997539Y-14832960D02*
X12988015Y-14813912D01*
X12988015Y-14813912D02*
X12988015Y-14642484D01*
X13168968Y-14832960D02*
X13149920Y-14842484D01*
X13149920Y-14842484D02*
X13111825Y-14842484D01*
X13111825Y-14842484D02*
X13092777Y-14832960D01*
X13092777Y-14832960D02*
X13083253Y-14813912D01*
X13083253Y-14813912D02*
X13083253Y-14737722D01*
X13083253Y-14737722D02*
X13092777Y-14718674D01*
X13092777Y-14718674D02*
X13111825Y-14709150D01*
X13111825Y-14709150D02*
X13149920Y-14709150D01*
X13149920Y-14709150D02*
X13168968Y-14718674D01*
X13168968Y-14718674D02*
X13178491Y-14737722D01*
X13178491Y-14737722D02*
X13178491Y-14756769D01*
X13178491Y-14756769D02*
X13083253Y-14775817D01*
X13254682Y-14832960D02*
X13273730Y-14842484D01*
X13273730Y-14842484D02*
X13311825Y-14842484D01*
X13311825Y-14842484D02*
X13330872Y-14832960D01*
X13330872Y-14832960D02*
X13340396Y-14813912D01*
X13340396Y-14813912D02*
X13340396Y-14804388D01*
X13340396Y-14804388D02*
X13330872Y-14785341D01*
X13330872Y-14785341D02*
X13311825Y-14775817D01*
X13311825Y-14775817D02*
X13283253Y-14775817D01*
X13283253Y-14775817D02*
X13264206Y-14766293D01*
X13264206Y-14766293D02*
X13254682Y-14747246D01*
X13254682Y-14747246D02*
X13254682Y-14737722D01*
X13254682Y-14737722D02*
X13264206Y-14718674D01*
X13264206Y-14718674D02*
X13283253Y-14709150D01*
X13283253Y-14709150D02*
X13311825Y-14709150D01*
X13311825Y-14709150D02*
X13330872Y-14718674D01*
X13407063Y-14918674D02*
X13416587Y-14909150D01*
X13416587Y-14909150D02*
X13435634Y-14880579D01*
X13435634Y-14880579D02*
X13445158Y-14861531D01*
X13445158Y-14861531D02*
X13454682Y-14832960D01*
X13454682Y-14832960D02*
X13464206Y-14785341D01*
X13464206Y-14785341D02*
X13464206Y-14747246D01*
X13464206Y-14747246D02*
X13454682Y-14699627D01*
X13454682Y-14699627D02*
X13445158Y-14671055D01*
X13445158Y-14671055D02*
X13435634Y-14652008D01*
X13435634Y-14652008D02*
X13416587Y-14623436D01*
X13416587Y-14623436D02*
X13407063Y-14613912D01*
D11*
X8632000Y-15015000D02*
G75*
G03*
X8607000Y-15015000I-12500J0D01*
G01*
X8607000Y-15015000D02*
G75*
G03*
X8632000Y-15015000I12500J0D01*
G01*
D10*
X8930872Y-14906484D02*
X8949920Y-14906484D01*
X8949920Y-14906484D02*
X8968967Y-14916008D01*
X8968967Y-14916008D02*
X8978491Y-14925531D01*
X8978491Y-14925531D02*
X8988015Y-14944579D01*
X8988015Y-14944579D02*
X8997539Y-14982674D01*
X8997539Y-14982674D02*
X8997539Y-15030293D01*
X8997539Y-15030293D02*
X8988015Y-15068388D01*
X8988015Y-15068388D02*
X8978491Y-15087436D01*
X8978491Y-15087436D02*
X8968967Y-15096960D01*
X8968967Y-15096960D02*
X8949920Y-15106484D01*
X8949920Y-15106484D02*
X8930872Y-15106484D01*
X8930872Y-15106484D02*
X8911824Y-15096960D01*
X8911824Y-15096960D02*
X8902301Y-15087436D01*
X8902301Y-15087436D02*
X8892777Y-15068388D01*
X8892777Y-15068388D02*
X8883253Y-15030293D01*
X8883253Y-15030293D02*
X8883253Y-14982674D01*
X8883253Y-14982674D02*
X8892777Y-14944579D01*
X8892777Y-14944579D02*
X8902301Y-14925531D01*
X8902301Y-14925531D02*
X8911824Y-14916008D01*
X8911824Y-14916008D02*
X8930872Y-14906484D01*
X9083253Y-15087436D02*
X9092777Y-15096960D01*
X9092777Y-15096960D02*
X9083253Y-15106484D01*
X9083253Y-15106484D02*
X9073729Y-15096960D01*
X9073729Y-15096960D02*
X9083253Y-15087436D01*
X9083253Y-15087436D02*
X9083253Y-15106484D01*
X9168967Y-14925531D02*
X9178491Y-14916008D01*
X9178491Y-14916008D02*
X9197539Y-14906484D01*
X9197539Y-14906484D02*
X9245158Y-14906484D01*
X9245158Y-14906484D02*
X9264205Y-14916008D01*
X9264205Y-14916008D02*
X9273729Y-14925531D01*
X9273729Y-14925531D02*
X9283253Y-14944579D01*
X9283253Y-14944579D02*
X9283253Y-14963627D01*
X9283253Y-14963627D02*
X9273729Y-14992198D01*
X9273729Y-14992198D02*
X9159444Y-15106484D01*
X9159444Y-15106484D02*
X9283253Y-15106484D01*
X9464205Y-14906484D02*
X9368967Y-14906484D01*
X9368967Y-14906484D02*
X9359444Y-15001722D01*
X9359444Y-15001722D02*
X9368967Y-14992198D01*
X9368967Y-14992198D02*
X9388015Y-14982674D01*
X9388015Y-14982674D02*
X9435634Y-14982674D01*
X9435634Y-14982674D02*
X9454682Y-14992198D01*
X9454682Y-14992198D02*
X9464205Y-15001722D01*
X9464205Y-15001722D02*
X9473729Y-15020769D01*
X9473729Y-15020769D02*
X9473729Y-15068388D01*
X9473729Y-15068388D02*
X9464205Y-15087436D01*
X9464205Y-15087436D02*
X9454682Y-15096960D01*
X9454682Y-15096960D02*
X9435634Y-15106484D01*
X9435634Y-15106484D02*
X9388015Y-15106484D01*
X9388015Y-15106484D02*
X9368967Y-15096960D01*
X9368967Y-15096960D02*
X9359444Y-15087436D01*
X9597539Y-14906484D02*
X9616586Y-14906484D01*
X9616586Y-14906484D02*
X9635634Y-14916008D01*
X9635634Y-14916008D02*
X9645158Y-14925531D01*
X9645158Y-14925531D02*
X9654682Y-14944579D01*
X9654682Y-14944579D02*
X9664205Y-14982674D01*
X9664205Y-14982674D02*
X9664205Y-15030293D01*
X9664205Y-15030293D02*
X9654682Y-15068388D01*
X9654682Y-15068388D02*
X9645158Y-15087436D01*
X9645158Y-15087436D02*
X9635634Y-15096960D01*
X9635634Y-15096960D02*
X9616586Y-15106484D01*
X9616586Y-15106484D02*
X9597539Y-15106484D01*
X9597539Y-15106484D02*
X9578491Y-15096960D01*
X9578491Y-15096960D02*
X9568967Y-15087436D01*
X9568967Y-15087436D02*
X9559444Y-15068388D01*
X9559444Y-15068388D02*
X9549920Y-15030293D01*
X9549920Y-15030293D02*
X9549920Y-14982674D01*
X9549920Y-14982674D02*
X9559444Y-14944579D01*
X9559444Y-14944579D02*
X9568967Y-14925531D01*
X9568967Y-14925531D02*
X9578491Y-14916008D01*
X9578491Y-14916008D02*
X9597539Y-14906484D01*
X9749920Y-15106484D02*
X9749920Y-14973150D01*
X9749920Y-14992198D02*
X9759444Y-14982674D01*
X9759444Y-14982674D02*
X9778491Y-14973150D01*
X9778491Y-14973150D02*
X9807063Y-14973150D01*
X9807063Y-14973150D02*
X9826110Y-14982674D01*
X9826110Y-14982674D02*
X9835634Y-15001722D01*
X9835634Y-15001722D02*
X9835634Y-15106484D01*
X9835634Y-15001722D02*
X9845158Y-14982674D01*
X9845158Y-14982674D02*
X9864205Y-14973150D01*
X9864205Y-14973150D02*
X9892777Y-14973150D01*
X9892777Y-14973150D02*
X9911825Y-14982674D01*
X9911825Y-14982674D02*
X9921348Y-15001722D01*
X9921348Y-15001722D02*
X9921348Y-15106484D01*
X10016586Y-15106484D02*
X10016586Y-14973150D01*
X10016586Y-14992198D02*
X10026110Y-14982674D01*
X10026110Y-14982674D02*
X10045158Y-14973150D01*
X10045158Y-14973150D02*
X10073729Y-14973150D01*
X10073729Y-14973150D02*
X10092777Y-14982674D01*
X10092777Y-14982674D02*
X10102301Y-15001722D01*
X10102301Y-15001722D02*
X10102301Y-15106484D01*
X10102301Y-15001722D02*
X10111825Y-14982674D01*
X10111825Y-14982674D02*
X10130872Y-14973150D01*
X10130872Y-14973150D02*
X10159444Y-14973150D01*
X10159444Y-14973150D02*
X10178491Y-14982674D01*
X10178491Y-14982674D02*
X10188015Y-15001722D01*
X10188015Y-15001722D02*
X10188015Y-15106484D01*
X10578491Y-14896960D02*
X10407063Y-15154103D01*
X10835634Y-14906484D02*
X10854682Y-14906484D01*
X10854682Y-14906484D02*
X10873729Y-14916008D01*
X10873729Y-14916008D02*
X10883253Y-14925531D01*
X10883253Y-14925531D02*
X10892777Y-14944579D01*
X10892777Y-14944579D02*
X10902301Y-14982674D01*
X10902301Y-14982674D02*
X10902301Y-15030293D01*
X10902301Y-15030293D02*
X10892777Y-15068388D01*
X10892777Y-15068388D02*
X10883253Y-15087436D01*
X10883253Y-15087436D02*
X10873729Y-15096960D01*
X10873729Y-15096960D02*
X10854682Y-15106484D01*
X10854682Y-15106484D02*
X10835634Y-15106484D01*
X10835634Y-15106484D02*
X10816587Y-15096960D01*
X10816587Y-15096960D02*
X10807063Y-15087436D01*
X10807063Y-15087436D02*
X10797539Y-15068388D01*
X10797539Y-15068388D02*
X10788015Y-15030293D01*
X10788015Y-15030293D02*
X10788015Y-14982674D01*
X10788015Y-14982674D02*
X10797539Y-14944579D01*
X10797539Y-14944579D02*
X10807063Y-14925531D01*
X10807063Y-14925531D02*
X10816587Y-14916008D01*
X10816587Y-14916008D02*
X10835634Y-14906484D01*
X10988015Y-15087436D02*
X10997539Y-15096960D01*
X10997539Y-15096960D02*
X10988015Y-15106484D01*
X10988015Y-15106484D02*
X10978491Y-15096960D01*
X10978491Y-15096960D02*
X10988015Y-15087436D01*
X10988015Y-15087436D02*
X10988015Y-15106484D01*
X11121348Y-14906484D02*
X11140396Y-14906484D01*
X11140396Y-14906484D02*
X11159444Y-14916008D01*
X11159444Y-14916008D02*
X11168968Y-14925531D01*
X11168968Y-14925531D02*
X11178491Y-14944579D01*
X11178491Y-14944579D02*
X11188015Y-14982674D01*
X11188015Y-14982674D02*
X11188015Y-15030293D01*
X11188015Y-15030293D02*
X11178491Y-15068388D01*
X11178491Y-15068388D02*
X11168968Y-15087436D01*
X11168968Y-15087436D02*
X11159444Y-15096960D01*
X11159444Y-15096960D02*
X11140396Y-15106484D01*
X11140396Y-15106484D02*
X11121348Y-15106484D01*
X11121348Y-15106484D02*
X11102301Y-15096960D01*
X11102301Y-15096960D02*
X11092777Y-15087436D01*
X11092777Y-15087436D02*
X11083253Y-15068388D01*
X11083253Y-15068388D02*
X11073729Y-15030293D01*
X11073729Y-15030293D02*
X11073729Y-14982674D01*
X11073729Y-14982674D02*
X11083253Y-14944579D01*
X11083253Y-14944579D02*
X11092777Y-14925531D01*
X11092777Y-14925531D02*
X11102301Y-14916008D01*
X11102301Y-14916008D02*
X11121348Y-14906484D01*
X11311825Y-14906484D02*
X11330872Y-14906484D01*
X11330872Y-14906484D02*
X11349920Y-14916008D01*
X11349920Y-14916008D02*
X11359444Y-14925531D01*
X11359444Y-14925531D02*
X11368967Y-14944579D01*
X11368967Y-14944579D02*
X11378491Y-14982674D01*
X11378491Y-14982674D02*
X11378491Y-15030293D01*
X11378491Y-15030293D02*
X11368967Y-15068388D01*
X11368967Y-15068388D02*
X11359444Y-15087436D01*
X11359444Y-15087436D02*
X11349920Y-15096960D01*
X11349920Y-15096960D02*
X11330872Y-15106484D01*
X11330872Y-15106484D02*
X11311825Y-15106484D01*
X11311825Y-15106484D02*
X11292777Y-15096960D01*
X11292777Y-15096960D02*
X11283253Y-15087436D01*
X11283253Y-15087436D02*
X11273729Y-15068388D01*
X11273729Y-15068388D02*
X11264206Y-15030293D01*
X11264206Y-15030293D02*
X11264206Y-14982674D01*
X11264206Y-14982674D02*
X11273729Y-14944579D01*
X11273729Y-14944579D02*
X11283253Y-14925531D01*
X11283253Y-14925531D02*
X11292777Y-14916008D01*
X11292777Y-14916008D02*
X11311825Y-14906484D01*
X11473729Y-15106484D02*
X11511825Y-15106484D01*
X11511825Y-15106484D02*
X11530872Y-15096960D01*
X11530872Y-15096960D02*
X11540396Y-15087436D01*
X11540396Y-15087436D02*
X11559444Y-15058865D01*
X11559444Y-15058865D02*
X11568967Y-15020769D01*
X11568967Y-15020769D02*
X11568967Y-14944579D01*
X11568967Y-14944579D02*
X11559444Y-14925531D01*
X11559444Y-14925531D02*
X11549920Y-14916008D01*
X11549920Y-14916008D02*
X11530872Y-14906484D01*
X11530872Y-14906484D02*
X11492777Y-14906484D01*
X11492777Y-14906484D02*
X11473729Y-14916008D01*
X11473729Y-14916008D02*
X11464206Y-14925531D01*
X11464206Y-14925531D02*
X11454682Y-14944579D01*
X11454682Y-14944579D02*
X11454682Y-14992198D01*
X11454682Y-14992198D02*
X11464206Y-15011246D01*
X11464206Y-15011246D02*
X11473729Y-15020769D01*
X11473729Y-15020769D02*
X11492777Y-15030293D01*
X11492777Y-15030293D02*
X11530872Y-15030293D01*
X11530872Y-15030293D02*
X11549920Y-15020769D01*
X11549920Y-15020769D02*
X11559444Y-15011246D01*
X11559444Y-15011246D02*
X11568967Y-14992198D01*
X11683253Y-14992198D02*
X11664206Y-14982674D01*
X11664206Y-14982674D02*
X11654682Y-14973150D01*
X11654682Y-14973150D02*
X11645158Y-14954103D01*
X11645158Y-14954103D02*
X11645158Y-14944579D01*
X11645158Y-14944579D02*
X11654682Y-14925531D01*
X11654682Y-14925531D02*
X11664206Y-14916008D01*
X11664206Y-14916008D02*
X11683253Y-14906484D01*
X11683253Y-14906484D02*
X11721348Y-14906484D01*
X11721348Y-14906484D02*
X11740396Y-14916008D01*
X11740396Y-14916008D02*
X11749920Y-14925531D01*
X11749920Y-14925531D02*
X11759444Y-14944579D01*
X11759444Y-14944579D02*
X11759444Y-14954103D01*
X11759444Y-14954103D02*
X11749920Y-14973150D01*
X11749920Y-14973150D02*
X11740396Y-14982674D01*
X11740396Y-14982674D02*
X11721348Y-14992198D01*
X11721348Y-14992198D02*
X11683253Y-14992198D01*
X11683253Y-14992198D02*
X11664206Y-15001722D01*
X11664206Y-15001722D02*
X11654682Y-15011246D01*
X11654682Y-15011246D02*
X11645158Y-15030293D01*
X11645158Y-15030293D02*
X11645158Y-15068388D01*
X11645158Y-15068388D02*
X11654682Y-15087436D01*
X11654682Y-15087436D02*
X11664206Y-15096960D01*
X11664206Y-15096960D02*
X11683253Y-15106484D01*
X11683253Y-15106484D02*
X11721348Y-15106484D01*
X11721348Y-15106484D02*
X11740396Y-15096960D01*
X11740396Y-15096960D02*
X11749920Y-15087436D01*
X11749920Y-15087436D02*
X11759444Y-15068388D01*
X11759444Y-15068388D02*
X11759444Y-15030293D01*
X11759444Y-15030293D02*
X11749920Y-15011246D01*
X11749920Y-15011246D02*
X11740396Y-15001722D01*
X11740396Y-15001722D02*
X11721348Y-14992198D01*
X11835634Y-14906484D02*
X11835634Y-14944579D01*
X11911825Y-14906484D02*
X11911825Y-14944579D01*
X12207063Y-15182674D02*
X12197539Y-15173150D01*
X12197539Y-15173150D02*
X12178491Y-15144579D01*
X12178491Y-15144579D02*
X12168968Y-15125531D01*
X12168968Y-15125531D02*
X12159444Y-15096960D01*
X12159444Y-15096960D02*
X12149920Y-15049341D01*
X12149920Y-15049341D02*
X12149920Y-15011246D01*
X12149920Y-15011246D02*
X12159444Y-14963627D01*
X12159444Y-14963627D02*
X12168968Y-14935055D01*
X12168968Y-14935055D02*
X12178491Y-14916008D01*
X12178491Y-14916008D02*
X12197539Y-14887436D01*
X12197539Y-14887436D02*
X12207063Y-14877912D01*
X12368968Y-14973150D02*
X12368968Y-15106484D01*
X12321348Y-14896960D02*
X12273729Y-15039817D01*
X12273729Y-15039817D02*
X12397539Y-15039817D01*
X12626110Y-15106484D02*
X12626110Y-14906484D01*
X12711825Y-15106484D02*
X12711825Y-15001722D01*
X12711825Y-15001722D02*
X12702301Y-14982674D01*
X12702301Y-14982674D02*
X12683253Y-14973150D01*
X12683253Y-14973150D02*
X12654682Y-14973150D01*
X12654682Y-14973150D02*
X12635634Y-14982674D01*
X12635634Y-14982674D02*
X12626110Y-14992198D01*
X12835634Y-15106484D02*
X12816587Y-15096960D01*
X12816587Y-15096960D02*
X12807063Y-15087436D01*
X12807063Y-15087436D02*
X12797539Y-15068388D01*
X12797539Y-15068388D02*
X12797539Y-15011246D01*
X12797539Y-15011246D02*
X12807063Y-14992198D01*
X12807063Y-14992198D02*
X12816587Y-14982674D01*
X12816587Y-14982674D02*
X12835634Y-14973150D01*
X12835634Y-14973150D02*
X12864206Y-14973150D01*
X12864206Y-14973150D02*
X12883253Y-14982674D01*
X12883253Y-14982674D02*
X12892777Y-14992198D01*
X12892777Y-14992198D02*
X12902301Y-15011246D01*
X12902301Y-15011246D02*
X12902301Y-15068388D01*
X12902301Y-15068388D02*
X12892777Y-15087436D01*
X12892777Y-15087436D02*
X12883253Y-15096960D01*
X12883253Y-15096960D02*
X12864206Y-15106484D01*
X12864206Y-15106484D02*
X12835634Y-15106484D01*
X13016587Y-15106484D02*
X12997539Y-15096960D01*
X12997539Y-15096960D02*
X12988015Y-15077912D01*
X12988015Y-15077912D02*
X12988015Y-14906484D01*
X13168968Y-15096960D02*
X13149920Y-15106484D01*
X13149920Y-15106484D02*
X13111825Y-15106484D01*
X13111825Y-15106484D02*
X13092777Y-15096960D01*
X13092777Y-15096960D02*
X13083253Y-15077912D01*
X13083253Y-15077912D02*
X13083253Y-15001722D01*
X13083253Y-15001722D02*
X13092777Y-14982674D01*
X13092777Y-14982674D02*
X13111825Y-14973150D01*
X13111825Y-14973150D02*
X13149920Y-14973150D01*
X13149920Y-14973150D02*
X13168968Y-14982674D01*
X13168968Y-14982674D02*
X13178491Y-15001722D01*
X13178491Y-15001722D02*
X13178491Y-15020769D01*
X13178491Y-15020769D02*
X13083253Y-15039817D01*
X13254682Y-15096960D02*
X13273730Y-15106484D01*
X13273730Y-15106484D02*
X13311825Y-15106484D01*
X13311825Y-15106484D02*
X13330872Y-15096960D01*
X13330872Y-15096960D02*
X13340396Y-15077912D01*
X13340396Y-15077912D02*
X13340396Y-15068388D01*
X13340396Y-15068388D02*
X13330872Y-15049341D01*
X13330872Y-15049341D02*
X13311825Y-15039817D01*
X13311825Y-15039817D02*
X13283253Y-15039817D01*
X13283253Y-15039817D02*
X13264206Y-15030293D01*
X13264206Y-15030293D02*
X13254682Y-15011246D01*
X13254682Y-15011246D02*
X13254682Y-15001722D01*
X13254682Y-15001722D02*
X13264206Y-14982674D01*
X13264206Y-14982674D02*
X13283253Y-14973150D01*
X13283253Y-14973150D02*
X13311825Y-14973150D01*
X13311825Y-14973150D02*
X13330872Y-14982674D01*
X13407063Y-15182674D02*
X13416587Y-15173150D01*
X13416587Y-15173150D02*
X13435634Y-15144579D01*
X13435634Y-15144579D02*
X13445158Y-15125531D01*
X13445158Y-15125531D02*
X13454682Y-15096960D01*
X13454682Y-15096960D02*
X13464206Y-15049341D01*
X13464206Y-15049341D02*
X13464206Y-15011246D01*
X13464206Y-15011246D02*
X13454682Y-14963627D01*
X13454682Y-14963627D02*
X13445158Y-14935055D01*
X13445158Y-14935055D02*
X13435634Y-14916008D01*
X13435634Y-14916008D02*
X13416587Y-14887436D01*
X13416587Y-14887436D02*
X13407063Y-14877912D01*
D11*
X8612000Y-15259000D02*
X8612000Y-15299000D01*
X8592000Y-15279000D02*
X8632000Y-15279000D01*
D10*
X8930872Y-15170484D02*
X8949920Y-15170484D01*
X8949920Y-15170484D02*
X8968967Y-15180008D01*
X8968967Y-15180008D02*
X8978491Y-15189531D01*
X8978491Y-15189531D02*
X8988015Y-15208579D01*
X8988015Y-15208579D02*
X8997539Y-15246674D01*
X8997539Y-15246674D02*
X8997539Y-15294293D01*
X8997539Y-15294293D02*
X8988015Y-15332388D01*
X8988015Y-15332388D02*
X8978491Y-15351436D01*
X8978491Y-15351436D02*
X8968967Y-15360960D01*
X8968967Y-15360960D02*
X8949920Y-15370484D01*
X8949920Y-15370484D02*
X8930872Y-15370484D01*
X8930872Y-15370484D02*
X8911824Y-15360960D01*
X8911824Y-15360960D02*
X8902301Y-15351436D01*
X8902301Y-15351436D02*
X8892777Y-15332388D01*
X8892777Y-15332388D02*
X8883253Y-15294293D01*
X8883253Y-15294293D02*
X8883253Y-15246674D01*
X8883253Y-15246674D02*
X8892777Y-15208579D01*
X8892777Y-15208579D02*
X8902301Y-15189531D01*
X8902301Y-15189531D02*
X8911824Y-15180008D01*
X8911824Y-15180008D02*
X8930872Y-15170484D01*
X9083253Y-15351436D02*
X9092777Y-15360960D01*
X9092777Y-15360960D02*
X9083253Y-15370484D01*
X9083253Y-15370484D02*
X9073729Y-15360960D01*
X9073729Y-15360960D02*
X9083253Y-15351436D01*
X9083253Y-15351436D02*
X9083253Y-15370484D01*
X9264205Y-15237150D02*
X9264205Y-15370484D01*
X9216586Y-15160960D02*
X9168967Y-15303817D01*
X9168967Y-15303817D02*
X9292777Y-15303817D01*
X9407063Y-15170484D02*
X9426110Y-15170484D01*
X9426110Y-15170484D02*
X9445158Y-15180008D01*
X9445158Y-15180008D02*
X9454682Y-15189531D01*
X9454682Y-15189531D02*
X9464205Y-15208579D01*
X9464205Y-15208579D02*
X9473729Y-15246674D01*
X9473729Y-15246674D02*
X9473729Y-15294293D01*
X9473729Y-15294293D02*
X9464205Y-15332388D01*
X9464205Y-15332388D02*
X9454682Y-15351436D01*
X9454682Y-15351436D02*
X9445158Y-15360960D01*
X9445158Y-15360960D02*
X9426110Y-15370484D01*
X9426110Y-15370484D02*
X9407063Y-15370484D01*
X9407063Y-15370484D02*
X9388015Y-15360960D01*
X9388015Y-15360960D02*
X9378491Y-15351436D01*
X9378491Y-15351436D02*
X9368967Y-15332388D01*
X9368967Y-15332388D02*
X9359444Y-15294293D01*
X9359444Y-15294293D02*
X9359444Y-15246674D01*
X9359444Y-15246674D02*
X9368967Y-15208579D01*
X9368967Y-15208579D02*
X9378491Y-15189531D01*
X9378491Y-15189531D02*
X9388015Y-15180008D01*
X9388015Y-15180008D02*
X9407063Y-15170484D01*
X9597539Y-15170484D02*
X9616586Y-15170484D01*
X9616586Y-15170484D02*
X9635634Y-15180008D01*
X9635634Y-15180008D02*
X9645158Y-15189531D01*
X9645158Y-15189531D02*
X9654682Y-15208579D01*
X9654682Y-15208579D02*
X9664205Y-15246674D01*
X9664205Y-15246674D02*
X9664205Y-15294293D01*
X9664205Y-15294293D02*
X9654682Y-15332388D01*
X9654682Y-15332388D02*
X9645158Y-15351436D01*
X9645158Y-15351436D02*
X9635634Y-15360960D01*
X9635634Y-15360960D02*
X9616586Y-15370484D01*
X9616586Y-15370484D02*
X9597539Y-15370484D01*
X9597539Y-15370484D02*
X9578491Y-15360960D01*
X9578491Y-15360960D02*
X9568967Y-15351436D01*
X9568967Y-15351436D02*
X9559444Y-15332388D01*
X9559444Y-15332388D02*
X9549920Y-15294293D01*
X9549920Y-15294293D02*
X9549920Y-15246674D01*
X9549920Y-15246674D02*
X9559444Y-15208579D01*
X9559444Y-15208579D02*
X9568967Y-15189531D01*
X9568967Y-15189531D02*
X9578491Y-15180008D01*
X9578491Y-15180008D02*
X9597539Y-15170484D01*
X9749920Y-15370484D02*
X9749920Y-15237150D01*
X9749920Y-15256198D02*
X9759444Y-15246674D01*
X9759444Y-15246674D02*
X9778491Y-15237150D01*
X9778491Y-15237150D02*
X9807063Y-15237150D01*
X9807063Y-15237150D02*
X9826110Y-15246674D01*
X9826110Y-15246674D02*
X9835634Y-15265722D01*
X9835634Y-15265722D02*
X9835634Y-15370484D01*
X9835634Y-15265722D02*
X9845158Y-15246674D01*
X9845158Y-15246674D02*
X9864205Y-15237150D01*
X9864205Y-15237150D02*
X9892777Y-15237150D01*
X9892777Y-15237150D02*
X9911825Y-15246674D01*
X9911825Y-15246674D02*
X9921348Y-15265722D01*
X9921348Y-15265722D02*
X9921348Y-15370484D01*
X10016586Y-15370484D02*
X10016586Y-15237150D01*
X10016586Y-15256198D02*
X10026110Y-15246674D01*
X10026110Y-15246674D02*
X10045158Y-15237150D01*
X10045158Y-15237150D02*
X10073729Y-15237150D01*
X10073729Y-15237150D02*
X10092777Y-15246674D01*
X10092777Y-15246674D02*
X10102301Y-15265722D01*
X10102301Y-15265722D02*
X10102301Y-15370484D01*
X10102301Y-15265722D02*
X10111825Y-15246674D01*
X10111825Y-15246674D02*
X10130872Y-15237150D01*
X10130872Y-15237150D02*
X10159444Y-15237150D01*
X10159444Y-15237150D02*
X10178491Y-15246674D01*
X10178491Y-15246674D02*
X10188015Y-15265722D01*
X10188015Y-15265722D02*
X10188015Y-15370484D01*
X10578491Y-15160960D02*
X10407063Y-15418103D01*
X10835634Y-15170484D02*
X10854682Y-15170484D01*
X10854682Y-15170484D02*
X10873729Y-15180008D01*
X10873729Y-15180008D02*
X10883253Y-15189531D01*
X10883253Y-15189531D02*
X10892777Y-15208579D01*
X10892777Y-15208579D02*
X10902301Y-15246674D01*
X10902301Y-15246674D02*
X10902301Y-15294293D01*
X10902301Y-15294293D02*
X10892777Y-15332388D01*
X10892777Y-15332388D02*
X10883253Y-15351436D01*
X10883253Y-15351436D02*
X10873729Y-15360960D01*
X10873729Y-15360960D02*
X10854682Y-15370484D01*
X10854682Y-15370484D02*
X10835634Y-15370484D01*
X10835634Y-15370484D02*
X10816587Y-15360960D01*
X10816587Y-15360960D02*
X10807063Y-15351436D01*
X10807063Y-15351436D02*
X10797539Y-15332388D01*
X10797539Y-15332388D02*
X10788015Y-15294293D01*
X10788015Y-15294293D02*
X10788015Y-15246674D01*
X10788015Y-15246674D02*
X10797539Y-15208579D01*
X10797539Y-15208579D02*
X10807063Y-15189531D01*
X10807063Y-15189531D02*
X10816587Y-15180008D01*
X10816587Y-15180008D02*
X10835634Y-15170484D01*
X10988015Y-15351436D02*
X10997539Y-15360960D01*
X10997539Y-15360960D02*
X10988015Y-15370484D01*
X10988015Y-15370484D02*
X10978491Y-15360960D01*
X10978491Y-15360960D02*
X10988015Y-15351436D01*
X10988015Y-15351436D02*
X10988015Y-15370484D01*
X11121348Y-15170484D02*
X11140396Y-15170484D01*
X11140396Y-15170484D02*
X11159444Y-15180008D01*
X11159444Y-15180008D02*
X11168968Y-15189531D01*
X11168968Y-15189531D02*
X11178491Y-15208579D01*
X11178491Y-15208579D02*
X11188015Y-15246674D01*
X11188015Y-15246674D02*
X11188015Y-15294293D01*
X11188015Y-15294293D02*
X11178491Y-15332388D01*
X11178491Y-15332388D02*
X11168968Y-15351436D01*
X11168968Y-15351436D02*
X11159444Y-15360960D01*
X11159444Y-15360960D02*
X11140396Y-15370484D01*
X11140396Y-15370484D02*
X11121348Y-15370484D01*
X11121348Y-15370484D02*
X11102301Y-15360960D01*
X11102301Y-15360960D02*
X11092777Y-15351436D01*
X11092777Y-15351436D02*
X11083253Y-15332388D01*
X11083253Y-15332388D02*
X11073729Y-15294293D01*
X11073729Y-15294293D02*
X11073729Y-15246674D01*
X11073729Y-15246674D02*
X11083253Y-15208579D01*
X11083253Y-15208579D02*
X11092777Y-15189531D01*
X11092777Y-15189531D02*
X11102301Y-15180008D01*
X11102301Y-15180008D02*
X11121348Y-15170484D01*
X11378491Y-15370484D02*
X11264206Y-15370484D01*
X11321348Y-15370484D02*
X11321348Y-15170484D01*
X11321348Y-15170484D02*
X11302301Y-15199055D01*
X11302301Y-15199055D02*
X11283253Y-15218103D01*
X11283253Y-15218103D02*
X11264206Y-15227627D01*
X11559444Y-15170484D02*
X11464206Y-15170484D01*
X11464206Y-15170484D02*
X11454682Y-15265722D01*
X11454682Y-15265722D02*
X11464206Y-15256198D01*
X11464206Y-15256198D02*
X11483253Y-15246674D01*
X11483253Y-15246674D02*
X11530872Y-15246674D01*
X11530872Y-15246674D02*
X11549920Y-15256198D01*
X11549920Y-15256198D02*
X11559444Y-15265722D01*
X11559444Y-15265722D02*
X11568967Y-15284769D01*
X11568967Y-15284769D02*
X11568967Y-15332388D01*
X11568967Y-15332388D02*
X11559444Y-15351436D01*
X11559444Y-15351436D02*
X11549920Y-15360960D01*
X11549920Y-15360960D02*
X11530872Y-15370484D01*
X11530872Y-15370484D02*
X11483253Y-15370484D01*
X11483253Y-15370484D02*
X11464206Y-15360960D01*
X11464206Y-15360960D02*
X11454682Y-15351436D01*
X11635634Y-15170484D02*
X11768967Y-15170484D01*
X11768967Y-15170484D02*
X11683253Y-15370484D01*
X11835634Y-15170484D02*
X11835634Y-15208579D01*
X11911825Y-15170484D02*
X11911825Y-15208579D01*
X12207063Y-15446674D02*
X12197539Y-15437150D01*
X12197539Y-15437150D02*
X12178491Y-15408579D01*
X12178491Y-15408579D02*
X12168968Y-15389531D01*
X12168968Y-15389531D02*
X12159444Y-15360960D01*
X12159444Y-15360960D02*
X12149920Y-15313341D01*
X12149920Y-15313341D02*
X12149920Y-15275246D01*
X12149920Y-15275246D02*
X12159444Y-15227627D01*
X12159444Y-15227627D02*
X12168968Y-15199055D01*
X12168968Y-15199055D02*
X12178491Y-15180008D01*
X12178491Y-15180008D02*
X12197539Y-15151436D01*
X12197539Y-15151436D02*
X12207063Y-15141912D01*
X12388015Y-15370484D02*
X12273729Y-15370484D01*
X12330872Y-15370484D02*
X12330872Y-15170484D01*
X12330872Y-15170484D02*
X12311825Y-15199055D01*
X12311825Y-15199055D02*
X12292777Y-15218103D01*
X12292777Y-15218103D02*
X12273729Y-15227627D01*
X12578491Y-15370484D02*
X12464206Y-15370484D01*
X12521348Y-15370484D02*
X12521348Y-15170484D01*
X12521348Y-15170484D02*
X12502301Y-15199055D01*
X12502301Y-15199055D02*
X12483253Y-15218103D01*
X12483253Y-15218103D02*
X12464206Y-15227627D01*
X12645158Y-15170484D02*
X12778491Y-15170484D01*
X12778491Y-15170484D02*
X12692777Y-15370484D01*
X13007063Y-15370484D02*
X13007063Y-15170484D01*
X13092777Y-15370484D02*
X13092777Y-15265722D01*
X13092777Y-15265722D02*
X13083253Y-15246674D01*
X13083253Y-15246674D02*
X13064206Y-15237150D01*
X13064206Y-15237150D02*
X13035634Y-15237150D01*
X13035634Y-15237150D02*
X13016587Y-15246674D01*
X13016587Y-15246674D02*
X13007063Y-15256198D01*
X13216587Y-15370484D02*
X13197539Y-15360960D01*
X13197539Y-15360960D02*
X13188015Y-15351436D01*
X13188015Y-15351436D02*
X13178491Y-15332388D01*
X13178491Y-15332388D02*
X13178491Y-15275246D01*
X13178491Y-15275246D02*
X13188015Y-15256198D01*
X13188015Y-15256198D02*
X13197539Y-15246674D01*
X13197539Y-15246674D02*
X13216587Y-15237150D01*
X13216587Y-15237150D02*
X13245158Y-15237150D01*
X13245158Y-15237150D02*
X13264206Y-15246674D01*
X13264206Y-15246674D02*
X13273730Y-15256198D01*
X13273730Y-15256198D02*
X13283253Y-15275246D01*
X13283253Y-15275246D02*
X13283253Y-15332388D01*
X13283253Y-15332388D02*
X13273730Y-15351436D01*
X13273730Y-15351436D02*
X13264206Y-15360960D01*
X13264206Y-15360960D02*
X13245158Y-15370484D01*
X13245158Y-15370484D02*
X13216587Y-15370484D01*
X13397539Y-15370484D02*
X13378491Y-15360960D01*
X13378491Y-15360960D02*
X13368968Y-15341912D01*
X13368968Y-15341912D02*
X13368968Y-15170484D01*
X13549920Y-15360960D02*
X13530872Y-15370484D01*
X13530872Y-15370484D02*
X13492777Y-15370484D01*
X13492777Y-15370484D02*
X13473730Y-15360960D01*
X13473730Y-15360960D02*
X13464206Y-15341912D01*
X13464206Y-15341912D02*
X13464206Y-15265722D01*
X13464206Y-15265722D02*
X13473730Y-15246674D01*
X13473730Y-15246674D02*
X13492777Y-15237150D01*
X13492777Y-15237150D02*
X13530872Y-15237150D01*
X13530872Y-15237150D02*
X13549920Y-15246674D01*
X13549920Y-15246674D02*
X13559444Y-15265722D01*
X13559444Y-15265722D02*
X13559444Y-15284769D01*
X13559444Y-15284769D02*
X13464206Y-15303817D01*
X13635634Y-15360960D02*
X13654682Y-15370484D01*
X13654682Y-15370484D02*
X13692777Y-15370484D01*
X13692777Y-15370484D02*
X13711825Y-15360960D01*
X13711825Y-15360960D02*
X13721349Y-15341912D01*
X13721349Y-15341912D02*
X13721349Y-15332388D01*
X13721349Y-15332388D02*
X13711825Y-15313341D01*
X13711825Y-15313341D02*
X13692777Y-15303817D01*
X13692777Y-15303817D02*
X13664206Y-15303817D01*
X13664206Y-15303817D02*
X13645158Y-15294293D01*
X13645158Y-15294293D02*
X13635634Y-15275246D01*
X13635634Y-15275246D02*
X13635634Y-15265722D01*
X13635634Y-15265722D02*
X13645158Y-15246674D01*
X13645158Y-15246674D02*
X13664206Y-15237150D01*
X13664206Y-15237150D02*
X13692777Y-15237150D01*
X13692777Y-15237150D02*
X13711825Y-15246674D01*
X13788015Y-15446674D02*
X13797539Y-15437150D01*
X13797539Y-15437150D02*
X13816587Y-15408579D01*
X13816587Y-15408579D02*
X13826111Y-15389531D01*
X13826111Y-15389531D02*
X13835634Y-15360960D01*
X13835634Y-15360960D02*
X13845158Y-15313341D01*
X13845158Y-15313341D02*
X13845158Y-15275246D01*
X13845158Y-15275246D02*
X13835634Y-15227627D01*
X13835634Y-15227627D02*
X13826111Y-15199055D01*
X13826111Y-15199055D02*
X13816587Y-15180008D01*
X13816587Y-15180008D02*
X13797539Y-15151436D01*
X13797539Y-15151436D02*
X13788015Y-15141912D01*
D11*
X8623213Y-15564213D02*
X8623213Y-15521787D01*
X8580787Y-15521787D01*
X8580787Y-15564213D01*
X8623213Y-15564213D01*
D10*
X8930872Y-15434484D02*
X8949920Y-15434484D01*
X8949920Y-15434484D02*
X8968967Y-15444008D01*
X8968967Y-15444008D02*
X8978491Y-15453531D01*
X8978491Y-15453531D02*
X8988015Y-15472579D01*
X8988015Y-15472579D02*
X8997539Y-15510674D01*
X8997539Y-15510674D02*
X8997539Y-15558293D01*
X8997539Y-15558293D02*
X8988015Y-15596388D01*
X8988015Y-15596388D02*
X8978491Y-15615436D01*
X8978491Y-15615436D02*
X8968967Y-15624960D01*
X8968967Y-15624960D02*
X8949920Y-15634484D01*
X8949920Y-15634484D02*
X8930872Y-15634484D01*
X8930872Y-15634484D02*
X8911824Y-15624960D01*
X8911824Y-15624960D02*
X8902301Y-15615436D01*
X8902301Y-15615436D02*
X8892777Y-15596388D01*
X8892777Y-15596388D02*
X8883253Y-15558293D01*
X8883253Y-15558293D02*
X8883253Y-15510674D01*
X8883253Y-15510674D02*
X8892777Y-15472579D01*
X8892777Y-15472579D02*
X8902301Y-15453531D01*
X8902301Y-15453531D02*
X8911824Y-15444008D01*
X8911824Y-15444008D02*
X8930872Y-15434484D01*
X9083253Y-15615436D02*
X9092777Y-15624960D01*
X9092777Y-15624960D02*
X9083253Y-15634484D01*
X9083253Y-15634484D02*
X9073729Y-15624960D01*
X9073729Y-15624960D02*
X9083253Y-15615436D01*
X9083253Y-15615436D02*
X9083253Y-15634484D01*
X9264205Y-15434484D02*
X9226110Y-15434484D01*
X9226110Y-15434484D02*
X9207063Y-15444008D01*
X9207063Y-15444008D02*
X9197539Y-15453531D01*
X9197539Y-15453531D02*
X9178491Y-15482103D01*
X9178491Y-15482103D02*
X9168967Y-15520198D01*
X9168967Y-15520198D02*
X9168967Y-15596388D01*
X9168967Y-15596388D02*
X9178491Y-15615436D01*
X9178491Y-15615436D02*
X9188015Y-15624960D01*
X9188015Y-15624960D02*
X9207063Y-15634484D01*
X9207063Y-15634484D02*
X9245158Y-15634484D01*
X9245158Y-15634484D02*
X9264205Y-15624960D01*
X9264205Y-15624960D02*
X9273729Y-15615436D01*
X9273729Y-15615436D02*
X9283253Y-15596388D01*
X9283253Y-15596388D02*
X9283253Y-15548769D01*
X9283253Y-15548769D02*
X9273729Y-15529722D01*
X9273729Y-15529722D02*
X9264205Y-15520198D01*
X9264205Y-15520198D02*
X9245158Y-15510674D01*
X9245158Y-15510674D02*
X9207063Y-15510674D01*
X9207063Y-15510674D02*
X9188015Y-15520198D01*
X9188015Y-15520198D02*
X9178491Y-15529722D01*
X9178491Y-15529722D02*
X9168967Y-15548769D01*
X9407063Y-15434484D02*
X9426110Y-15434484D01*
X9426110Y-15434484D02*
X9445158Y-15444008D01*
X9445158Y-15444008D02*
X9454682Y-15453531D01*
X9454682Y-15453531D02*
X9464205Y-15472579D01*
X9464205Y-15472579D02*
X9473729Y-15510674D01*
X9473729Y-15510674D02*
X9473729Y-15558293D01*
X9473729Y-15558293D02*
X9464205Y-15596388D01*
X9464205Y-15596388D02*
X9454682Y-15615436D01*
X9454682Y-15615436D02*
X9445158Y-15624960D01*
X9445158Y-15624960D02*
X9426110Y-15634484D01*
X9426110Y-15634484D02*
X9407063Y-15634484D01*
X9407063Y-15634484D02*
X9388015Y-15624960D01*
X9388015Y-15624960D02*
X9378491Y-15615436D01*
X9378491Y-15615436D02*
X9368967Y-15596388D01*
X9368967Y-15596388D02*
X9359444Y-15558293D01*
X9359444Y-15558293D02*
X9359444Y-15510674D01*
X9359444Y-15510674D02*
X9368967Y-15472579D01*
X9368967Y-15472579D02*
X9378491Y-15453531D01*
X9378491Y-15453531D02*
X9388015Y-15444008D01*
X9388015Y-15444008D02*
X9407063Y-15434484D01*
X9597539Y-15434484D02*
X9616586Y-15434484D01*
X9616586Y-15434484D02*
X9635634Y-15444008D01*
X9635634Y-15444008D02*
X9645158Y-15453531D01*
X9645158Y-15453531D02*
X9654682Y-15472579D01*
X9654682Y-15472579D02*
X9664205Y-15510674D01*
X9664205Y-15510674D02*
X9664205Y-15558293D01*
X9664205Y-15558293D02*
X9654682Y-15596388D01*
X9654682Y-15596388D02*
X9645158Y-15615436D01*
X9645158Y-15615436D02*
X9635634Y-15624960D01*
X9635634Y-15624960D02*
X9616586Y-15634484D01*
X9616586Y-15634484D02*
X9597539Y-15634484D01*
X9597539Y-15634484D02*
X9578491Y-15624960D01*
X9578491Y-15624960D02*
X9568967Y-15615436D01*
X9568967Y-15615436D02*
X9559444Y-15596388D01*
X9559444Y-15596388D02*
X9549920Y-15558293D01*
X9549920Y-15558293D02*
X9549920Y-15510674D01*
X9549920Y-15510674D02*
X9559444Y-15472579D01*
X9559444Y-15472579D02*
X9568967Y-15453531D01*
X9568967Y-15453531D02*
X9578491Y-15444008D01*
X9578491Y-15444008D02*
X9597539Y-15434484D01*
X9749920Y-15634484D02*
X9749920Y-15501150D01*
X9749920Y-15520198D02*
X9759444Y-15510674D01*
X9759444Y-15510674D02*
X9778491Y-15501150D01*
X9778491Y-15501150D02*
X9807063Y-15501150D01*
X9807063Y-15501150D02*
X9826110Y-15510674D01*
X9826110Y-15510674D02*
X9835634Y-15529722D01*
X9835634Y-15529722D02*
X9835634Y-15634484D01*
X9835634Y-15529722D02*
X9845158Y-15510674D01*
X9845158Y-15510674D02*
X9864205Y-15501150D01*
X9864205Y-15501150D02*
X9892777Y-15501150D01*
X9892777Y-15501150D02*
X9911825Y-15510674D01*
X9911825Y-15510674D02*
X9921348Y-15529722D01*
X9921348Y-15529722D02*
X9921348Y-15634484D01*
X10016586Y-15634484D02*
X10016586Y-15501150D01*
X10016586Y-15520198D02*
X10026110Y-15510674D01*
X10026110Y-15510674D02*
X10045158Y-15501150D01*
X10045158Y-15501150D02*
X10073729Y-15501150D01*
X10073729Y-15501150D02*
X10092777Y-15510674D01*
X10092777Y-15510674D02*
X10102301Y-15529722D01*
X10102301Y-15529722D02*
X10102301Y-15634484D01*
X10102301Y-15529722D02*
X10111825Y-15510674D01*
X10111825Y-15510674D02*
X10130872Y-15501150D01*
X10130872Y-15501150D02*
X10159444Y-15501150D01*
X10159444Y-15501150D02*
X10178491Y-15510674D01*
X10178491Y-15510674D02*
X10188015Y-15529722D01*
X10188015Y-15529722D02*
X10188015Y-15634484D01*
X10578491Y-15424960D02*
X10407063Y-15682103D01*
X10835634Y-15434484D02*
X10854682Y-15434484D01*
X10854682Y-15434484D02*
X10873729Y-15444008D01*
X10873729Y-15444008D02*
X10883253Y-15453531D01*
X10883253Y-15453531D02*
X10892777Y-15472579D01*
X10892777Y-15472579D02*
X10902301Y-15510674D01*
X10902301Y-15510674D02*
X10902301Y-15558293D01*
X10902301Y-15558293D02*
X10892777Y-15596388D01*
X10892777Y-15596388D02*
X10883253Y-15615436D01*
X10883253Y-15615436D02*
X10873729Y-15624960D01*
X10873729Y-15624960D02*
X10854682Y-15634484D01*
X10854682Y-15634484D02*
X10835634Y-15634484D01*
X10835634Y-15634484D02*
X10816587Y-15624960D01*
X10816587Y-15624960D02*
X10807063Y-15615436D01*
X10807063Y-15615436D02*
X10797539Y-15596388D01*
X10797539Y-15596388D02*
X10788015Y-15558293D01*
X10788015Y-15558293D02*
X10788015Y-15510674D01*
X10788015Y-15510674D02*
X10797539Y-15472579D01*
X10797539Y-15472579D02*
X10807063Y-15453531D01*
X10807063Y-15453531D02*
X10816587Y-15444008D01*
X10816587Y-15444008D02*
X10835634Y-15434484D01*
X10988015Y-15615436D02*
X10997539Y-15624960D01*
X10997539Y-15624960D02*
X10988015Y-15634484D01*
X10988015Y-15634484D02*
X10978491Y-15624960D01*
X10978491Y-15624960D02*
X10988015Y-15615436D01*
X10988015Y-15615436D02*
X10988015Y-15634484D01*
X11121348Y-15434484D02*
X11140396Y-15434484D01*
X11140396Y-15434484D02*
X11159444Y-15444008D01*
X11159444Y-15444008D02*
X11168968Y-15453531D01*
X11168968Y-15453531D02*
X11178491Y-15472579D01*
X11178491Y-15472579D02*
X11188015Y-15510674D01*
X11188015Y-15510674D02*
X11188015Y-15558293D01*
X11188015Y-15558293D02*
X11178491Y-15596388D01*
X11178491Y-15596388D02*
X11168968Y-15615436D01*
X11168968Y-15615436D02*
X11159444Y-15624960D01*
X11159444Y-15624960D02*
X11140396Y-15634484D01*
X11140396Y-15634484D02*
X11121348Y-15634484D01*
X11121348Y-15634484D02*
X11102301Y-15624960D01*
X11102301Y-15624960D02*
X11092777Y-15615436D01*
X11092777Y-15615436D02*
X11083253Y-15596388D01*
X11083253Y-15596388D02*
X11073729Y-15558293D01*
X11073729Y-15558293D02*
X11073729Y-15510674D01*
X11073729Y-15510674D02*
X11083253Y-15472579D01*
X11083253Y-15472579D02*
X11092777Y-15453531D01*
X11092777Y-15453531D02*
X11102301Y-15444008D01*
X11102301Y-15444008D02*
X11121348Y-15434484D01*
X11264206Y-15453531D02*
X11273729Y-15444008D01*
X11273729Y-15444008D02*
X11292777Y-15434484D01*
X11292777Y-15434484D02*
X11340396Y-15434484D01*
X11340396Y-15434484D02*
X11359444Y-15444008D01*
X11359444Y-15444008D02*
X11368967Y-15453531D01*
X11368967Y-15453531D02*
X11378491Y-15472579D01*
X11378491Y-15472579D02*
X11378491Y-15491627D01*
X11378491Y-15491627D02*
X11368967Y-15520198D01*
X11368967Y-15520198D02*
X11254682Y-15634484D01*
X11254682Y-15634484D02*
X11378491Y-15634484D01*
X11445158Y-15434484D02*
X11568967Y-15434484D01*
X11568967Y-15434484D02*
X11502301Y-15510674D01*
X11502301Y-15510674D02*
X11530872Y-15510674D01*
X11530872Y-15510674D02*
X11549920Y-15520198D01*
X11549920Y-15520198D02*
X11559444Y-15529722D01*
X11559444Y-15529722D02*
X11568967Y-15548769D01*
X11568967Y-15548769D02*
X11568967Y-15596388D01*
X11568967Y-15596388D02*
X11559444Y-15615436D01*
X11559444Y-15615436D02*
X11549920Y-15624960D01*
X11549920Y-15624960D02*
X11530872Y-15634484D01*
X11530872Y-15634484D02*
X11473729Y-15634484D01*
X11473729Y-15634484D02*
X11454682Y-15624960D01*
X11454682Y-15624960D02*
X11445158Y-15615436D01*
X11740396Y-15434484D02*
X11702301Y-15434484D01*
X11702301Y-15434484D02*
X11683253Y-15444008D01*
X11683253Y-15444008D02*
X11673729Y-15453531D01*
X11673729Y-15453531D02*
X11654682Y-15482103D01*
X11654682Y-15482103D02*
X11645158Y-15520198D01*
X11645158Y-15520198D02*
X11645158Y-15596388D01*
X11645158Y-15596388D02*
X11654682Y-15615436D01*
X11654682Y-15615436D02*
X11664206Y-15624960D01*
X11664206Y-15624960D02*
X11683253Y-15634484D01*
X11683253Y-15634484D02*
X11721348Y-15634484D01*
X11721348Y-15634484D02*
X11740396Y-15624960D01*
X11740396Y-15624960D02*
X11749920Y-15615436D01*
X11749920Y-15615436D02*
X11759444Y-15596388D01*
X11759444Y-15596388D02*
X11759444Y-15548769D01*
X11759444Y-15548769D02*
X11749920Y-15529722D01*
X11749920Y-15529722D02*
X11740396Y-15520198D01*
X11740396Y-15520198D02*
X11721348Y-15510674D01*
X11721348Y-15510674D02*
X11683253Y-15510674D01*
X11683253Y-15510674D02*
X11664206Y-15520198D01*
X11664206Y-15520198D02*
X11654682Y-15529722D01*
X11654682Y-15529722D02*
X11645158Y-15548769D01*
X11835634Y-15434484D02*
X11835634Y-15472579D01*
X11911825Y-15434484D02*
X11911825Y-15472579D01*
X12207063Y-15710674D02*
X12197539Y-15701150D01*
X12197539Y-15701150D02*
X12178491Y-15672579D01*
X12178491Y-15672579D02*
X12168968Y-15653531D01*
X12168968Y-15653531D02*
X12159444Y-15624960D01*
X12159444Y-15624960D02*
X12149920Y-15577341D01*
X12149920Y-15577341D02*
X12149920Y-15539246D01*
X12149920Y-15539246D02*
X12159444Y-15491627D01*
X12159444Y-15491627D02*
X12168968Y-15463055D01*
X12168968Y-15463055D02*
X12178491Y-15444008D01*
X12178491Y-15444008D02*
X12197539Y-15415436D01*
X12197539Y-15415436D02*
X12207063Y-15405912D01*
X12321348Y-15434484D02*
X12340396Y-15434484D01*
X12340396Y-15434484D02*
X12359444Y-15444008D01*
X12359444Y-15444008D02*
X12368968Y-15453531D01*
X12368968Y-15453531D02*
X12378491Y-15472579D01*
X12378491Y-15472579D02*
X12388015Y-15510674D01*
X12388015Y-15510674D02*
X12388015Y-15558293D01*
X12388015Y-15558293D02*
X12378491Y-15596388D01*
X12378491Y-15596388D02*
X12368968Y-15615436D01*
X12368968Y-15615436D02*
X12359444Y-15624960D01*
X12359444Y-15624960D02*
X12340396Y-15634484D01*
X12340396Y-15634484D02*
X12321348Y-15634484D01*
X12321348Y-15634484D02*
X12302301Y-15624960D01*
X12302301Y-15624960D02*
X12292777Y-15615436D01*
X12292777Y-15615436D02*
X12283253Y-15596388D01*
X12283253Y-15596388D02*
X12273729Y-15558293D01*
X12273729Y-15558293D02*
X12273729Y-15510674D01*
X12273729Y-15510674D02*
X12283253Y-15472579D01*
X12283253Y-15472579D02*
X12292777Y-15453531D01*
X12292777Y-15453531D02*
X12302301Y-15444008D01*
X12302301Y-15444008D02*
X12321348Y-15434484D01*
X12626110Y-15634484D02*
X12626110Y-15434484D01*
X12711825Y-15634484D02*
X12711825Y-15529722D01*
X12711825Y-15529722D02*
X12702301Y-15510674D01*
X12702301Y-15510674D02*
X12683253Y-15501150D01*
X12683253Y-15501150D02*
X12654682Y-15501150D01*
X12654682Y-15501150D02*
X12635634Y-15510674D01*
X12635634Y-15510674D02*
X12626110Y-15520198D01*
X12835634Y-15634484D02*
X12816587Y-15624960D01*
X12816587Y-15624960D02*
X12807063Y-15615436D01*
X12807063Y-15615436D02*
X12797539Y-15596388D01*
X12797539Y-15596388D02*
X12797539Y-15539246D01*
X12797539Y-15539246D02*
X12807063Y-15520198D01*
X12807063Y-15520198D02*
X12816587Y-15510674D01*
X12816587Y-15510674D02*
X12835634Y-15501150D01*
X12835634Y-15501150D02*
X12864206Y-15501150D01*
X12864206Y-15501150D02*
X12883253Y-15510674D01*
X12883253Y-15510674D02*
X12892777Y-15520198D01*
X12892777Y-15520198D02*
X12902301Y-15539246D01*
X12902301Y-15539246D02*
X12902301Y-15596388D01*
X12902301Y-15596388D02*
X12892777Y-15615436D01*
X12892777Y-15615436D02*
X12883253Y-15624960D01*
X12883253Y-15624960D02*
X12864206Y-15634484D01*
X12864206Y-15634484D02*
X12835634Y-15634484D01*
X13016587Y-15634484D02*
X12997539Y-15624960D01*
X12997539Y-15624960D02*
X12988015Y-15605912D01*
X12988015Y-15605912D02*
X12988015Y-15434484D01*
X13168968Y-15624960D02*
X13149920Y-15634484D01*
X13149920Y-15634484D02*
X13111825Y-15634484D01*
X13111825Y-15634484D02*
X13092777Y-15624960D01*
X13092777Y-15624960D02*
X13083253Y-15605912D01*
X13083253Y-15605912D02*
X13083253Y-15529722D01*
X13083253Y-15529722D02*
X13092777Y-15510674D01*
X13092777Y-15510674D02*
X13111825Y-15501150D01*
X13111825Y-15501150D02*
X13149920Y-15501150D01*
X13149920Y-15501150D02*
X13168968Y-15510674D01*
X13168968Y-15510674D02*
X13178491Y-15529722D01*
X13178491Y-15529722D02*
X13178491Y-15548769D01*
X13178491Y-15548769D02*
X13083253Y-15567817D01*
X13254682Y-15624960D02*
X13273730Y-15634484D01*
X13273730Y-15634484D02*
X13311825Y-15634484D01*
X13311825Y-15634484D02*
X13330872Y-15624960D01*
X13330872Y-15624960D02*
X13340396Y-15605912D01*
X13340396Y-15605912D02*
X13340396Y-15596388D01*
X13340396Y-15596388D02*
X13330872Y-15577341D01*
X13330872Y-15577341D02*
X13311825Y-15567817D01*
X13311825Y-15567817D02*
X13283253Y-15567817D01*
X13283253Y-15567817D02*
X13264206Y-15558293D01*
X13264206Y-15558293D02*
X13254682Y-15539246D01*
X13254682Y-15539246D02*
X13254682Y-15529722D01*
X13254682Y-15529722D02*
X13264206Y-15510674D01*
X13264206Y-15510674D02*
X13283253Y-15501150D01*
X13283253Y-15501150D02*
X13311825Y-15501150D01*
X13311825Y-15501150D02*
X13330872Y-15510674D01*
X13578492Y-15558293D02*
X13730873Y-15558293D01*
X13654682Y-15634484D02*
X13654682Y-15482103D01*
X14064206Y-15501150D02*
X14064206Y-15634484D01*
X14016587Y-15424960D02*
X13968968Y-15567817D01*
X13968968Y-15567817D02*
X14092777Y-15567817D01*
X14311825Y-15624960D02*
X14330873Y-15634484D01*
X14330873Y-15634484D02*
X14368968Y-15634484D01*
X14368968Y-15634484D02*
X14388015Y-15624960D01*
X14388015Y-15624960D02*
X14397539Y-15605912D01*
X14397539Y-15605912D02*
X14397539Y-15596388D01*
X14397539Y-15596388D02*
X14388015Y-15577341D01*
X14388015Y-15577341D02*
X14368968Y-15567817D01*
X14368968Y-15567817D02*
X14340396Y-15567817D01*
X14340396Y-15567817D02*
X14321349Y-15558293D01*
X14321349Y-15558293D02*
X14311825Y-15539246D01*
X14311825Y-15539246D02*
X14311825Y-15529722D01*
X14311825Y-15529722D02*
X14321349Y-15510674D01*
X14321349Y-15510674D02*
X14340396Y-15501150D01*
X14340396Y-15501150D02*
X14368968Y-15501150D01*
X14368968Y-15501150D02*
X14388015Y-15510674D01*
X14511825Y-15634484D02*
X14492777Y-15624960D01*
X14492777Y-15624960D02*
X14483254Y-15605912D01*
X14483254Y-15605912D02*
X14483254Y-15434484D01*
X14616587Y-15634484D02*
X14597539Y-15624960D01*
X14597539Y-15624960D02*
X14588015Y-15615436D01*
X14588015Y-15615436D02*
X14578492Y-15596388D01*
X14578492Y-15596388D02*
X14578492Y-15539246D01*
X14578492Y-15539246D02*
X14588015Y-15520198D01*
X14588015Y-15520198D02*
X14597539Y-15510674D01*
X14597539Y-15510674D02*
X14616587Y-15501150D01*
X14616587Y-15501150D02*
X14645158Y-15501150D01*
X14645158Y-15501150D02*
X14664206Y-15510674D01*
X14664206Y-15510674D02*
X14673730Y-15520198D01*
X14673730Y-15520198D02*
X14683254Y-15539246D01*
X14683254Y-15539246D02*
X14683254Y-15596388D01*
X14683254Y-15596388D02*
X14673730Y-15615436D01*
X14673730Y-15615436D02*
X14664206Y-15624960D01*
X14664206Y-15624960D02*
X14645158Y-15634484D01*
X14645158Y-15634484D02*
X14616587Y-15634484D01*
X14740396Y-15501150D02*
X14816587Y-15501150D01*
X14768968Y-15434484D02*
X14768968Y-15605912D01*
X14768968Y-15605912D02*
X14778492Y-15624960D01*
X14778492Y-15624960D02*
X14797539Y-15634484D01*
X14797539Y-15634484D02*
X14816587Y-15634484D01*
X14873730Y-15624960D02*
X14892777Y-15634484D01*
X14892777Y-15634484D02*
X14930873Y-15634484D01*
X14930873Y-15634484D02*
X14949920Y-15624960D01*
X14949920Y-15624960D02*
X14959444Y-15605912D01*
X14959444Y-15605912D02*
X14959444Y-15596388D01*
X14959444Y-15596388D02*
X14949920Y-15577341D01*
X14949920Y-15577341D02*
X14930873Y-15567817D01*
X14930873Y-15567817D02*
X14902301Y-15567817D01*
X14902301Y-15567817D02*
X14883254Y-15558293D01*
X14883254Y-15558293D02*
X14873730Y-15539246D01*
X14873730Y-15539246D02*
X14873730Y-15529722D01*
X14873730Y-15529722D02*
X14883254Y-15510674D01*
X14883254Y-15510674D02*
X14902301Y-15501150D01*
X14902301Y-15501150D02*
X14930873Y-15501150D01*
X14930873Y-15501150D02*
X14949920Y-15510674D01*
X15026111Y-15710674D02*
X15035635Y-15701150D01*
X15035635Y-15701150D02*
X15054682Y-15672579D01*
X15054682Y-15672579D02*
X15064206Y-15653531D01*
X15064206Y-15653531D02*
X15073730Y-15624960D01*
X15073730Y-15624960D02*
X15083254Y-15577341D01*
X15083254Y-15577341D02*
X15083254Y-15539246D01*
X15083254Y-15539246D02*
X15073730Y-15491627D01*
X15073730Y-15491627D02*
X15064206Y-15463055D01*
X15064206Y-15463055D02*
X15054682Y-15444008D01*
X15054682Y-15444008D02*
X15035635Y-15415436D01*
X15035635Y-15415436D02*
X15026111Y-15405912D01*
D11*
X8594500Y-15844500D02*
X8632000Y-15807000D01*
X8594500Y-15769500D01*
X8557000Y-15807000D01*
X8594500Y-15844500D01*
D10*
X8930872Y-15698484D02*
X8949920Y-15698484D01*
X8949920Y-15698484D02*
X8968967Y-15708008D01*
X8968967Y-15708008D02*
X8978491Y-15717531D01*
X8978491Y-15717531D02*
X8988015Y-15736579D01*
X8988015Y-15736579D02*
X8997539Y-15774674D01*
X8997539Y-15774674D02*
X8997539Y-15822293D01*
X8997539Y-15822293D02*
X8988015Y-15860388D01*
X8988015Y-15860388D02*
X8978491Y-15879436D01*
X8978491Y-15879436D02*
X8968967Y-15888960D01*
X8968967Y-15888960D02*
X8949920Y-15898484D01*
X8949920Y-15898484D02*
X8930872Y-15898484D01*
X8930872Y-15898484D02*
X8911824Y-15888960D01*
X8911824Y-15888960D02*
X8902301Y-15879436D01*
X8902301Y-15879436D02*
X8892777Y-15860388D01*
X8892777Y-15860388D02*
X8883253Y-15822293D01*
X8883253Y-15822293D02*
X8883253Y-15774674D01*
X8883253Y-15774674D02*
X8892777Y-15736579D01*
X8892777Y-15736579D02*
X8902301Y-15717531D01*
X8902301Y-15717531D02*
X8911824Y-15708008D01*
X8911824Y-15708008D02*
X8930872Y-15698484D01*
X9083253Y-15879436D02*
X9092777Y-15888960D01*
X9092777Y-15888960D02*
X9083253Y-15898484D01*
X9083253Y-15898484D02*
X9073729Y-15888960D01*
X9073729Y-15888960D02*
X9083253Y-15879436D01*
X9083253Y-15879436D02*
X9083253Y-15898484D01*
X9159444Y-15698484D02*
X9292777Y-15698484D01*
X9292777Y-15698484D02*
X9207063Y-15898484D01*
X9464205Y-15698484D02*
X9368967Y-15698484D01*
X9368967Y-15698484D02*
X9359444Y-15793722D01*
X9359444Y-15793722D02*
X9368967Y-15784198D01*
X9368967Y-15784198D02*
X9388015Y-15774674D01*
X9388015Y-15774674D02*
X9435634Y-15774674D01*
X9435634Y-15774674D02*
X9454682Y-15784198D01*
X9454682Y-15784198D02*
X9464205Y-15793722D01*
X9464205Y-15793722D02*
X9473729Y-15812769D01*
X9473729Y-15812769D02*
X9473729Y-15860388D01*
X9473729Y-15860388D02*
X9464205Y-15879436D01*
X9464205Y-15879436D02*
X9454682Y-15888960D01*
X9454682Y-15888960D02*
X9435634Y-15898484D01*
X9435634Y-15898484D02*
X9388015Y-15898484D01*
X9388015Y-15898484D02*
X9368967Y-15888960D01*
X9368967Y-15888960D02*
X9359444Y-15879436D01*
X9597539Y-15698484D02*
X9616586Y-15698484D01*
X9616586Y-15698484D02*
X9635634Y-15708008D01*
X9635634Y-15708008D02*
X9645158Y-15717531D01*
X9645158Y-15717531D02*
X9654682Y-15736579D01*
X9654682Y-15736579D02*
X9664205Y-15774674D01*
X9664205Y-15774674D02*
X9664205Y-15822293D01*
X9664205Y-15822293D02*
X9654682Y-15860388D01*
X9654682Y-15860388D02*
X9645158Y-15879436D01*
X9645158Y-15879436D02*
X9635634Y-15888960D01*
X9635634Y-15888960D02*
X9616586Y-15898484D01*
X9616586Y-15898484D02*
X9597539Y-15898484D01*
X9597539Y-15898484D02*
X9578491Y-15888960D01*
X9578491Y-15888960D02*
X9568967Y-15879436D01*
X9568967Y-15879436D02*
X9559444Y-15860388D01*
X9559444Y-15860388D02*
X9549920Y-15822293D01*
X9549920Y-15822293D02*
X9549920Y-15774674D01*
X9549920Y-15774674D02*
X9559444Y-15736579D01*
X9559444Y-15736579D02*
X9568967Y-15717531D01*
X9568967Y-15717531D02*
X9578491Y-15708008D01*
X9578491Y-15708008D02*
X9597539Y-15698484D01*
X9749920Y-15898484D02*
X9749920Y-15765150D01*
X9749920Y-15784198D02*
X9759444Y-15774674D01*
X9759444Y-15774674D02*
X9778491Y-15765150D01*
X9778491Y-15765150D02*
X9807063Y-15765150D01*
X9807063Y-15765150D02*
X9826110Y-15774674D01*
X9826110Y-15774674D02*
X9835634Y-15793722D01*
X9835634Y-15793722D02*
X9835634Y-15898484D01*
X9835634Y-15793722D02*
X9845158Y-15774674D01*
X9845158Y-15774674D02*
X9864205Y-15765150D01*
X9864205Y-15765150D02*
X9892777Y-15765150D01*
X9892777Y-15765150D02*
X9911825Y-15774674D01*
X9911825Y-15774674D02*
X9921348Y-15793722D01*
X9921348Y-15793722D02*
X9921348Y-15898484D01*
X10016586Y-15898484D02*
X10016586Y-15765150D01*
X10016586Y-15784198D02*
X10026110Y-15774674D01*
X10026110Y-15774674D02*
X10045158Y-15765150D01*
X10045158Y-15765150D02*
X10073729Y-15765150D01*
X10073729Y-15765150D02*
X10092777Y-15774674D01*
X10092777Y-15774674D02*
X10102301Y-15793722D01*
X10102301Y-15793722D02*
X10102301Y-15898484D01*
X10102301Y-15793722D02*
X10111825Y-15774674D01*
X10111825Y-15774674D02*
X10130872Y-15765150D01*
X10130872Y-15765150D02*
X10159444Y-15765150D01*
X10159444Y-15765150D02*
X10178491Y-15774674D01*
X10178491Y-15774674D02*
X10188015Y-15793722D01*
X10188015Y-15793722D02*
X10188015Y-15898484D01*
X10578491Y-15688960D02*
X10407063Y-15946103D01*
X10835634Y-15698484D02*
X10854682Y-15698484D01*
X10854682Y-15698484D02*
X10873729Y-15708008D01*
X10873729Y-15708008D02*
X10883253Y-15717531D01*
X10883253Y-15717531D02*
X10892777Y-15736579D01*
X10892777Y-15736579D02*
X10902301Y-15774674D01*
X10902301Y-15774674D02*
X10902301Y-15822293D01*
X10902301Y-15822293D02*
X10892777Y-15860388D01*
X10892777Y-15860388D02*
X10883253Y-15879436D01*
X10883253Y-15879436D02*
X10873729Y-15888960D01*
X10873729Y-15888960D02*
X10854682Y-15898484D01*
X10854682Y-15898484D02*
X10835634Y-15898484D01*
X10835634Y-15898484D02*
X10816587Y-15888960D01*
X10816587Y-15888960D02*
X10807063Y-15879436D01*
X10807063Y-15879436D02*
X10797539Y-15860388D01*
X10797539Y-15860388D02*
X10788015Y-15822293D01*
X10788015Y-15822293D02*
X10788015Y-15774674D01*
X10788015Y-15774674D02*
X10797539Y-15736579D01*
X10797539Y-15736579D02*
X10807063Y-15717531D01*
X10807063Y-15717531D02*
X10816587Y-15708008D01*
X10816587Y-15708008D02*
X10835634Y-15698484D01*
X10988015Y-15879436D02*
X10997539Y-15888960D01*
X10997539Y-15888960D02*
X10988015Y-15898484D01*
X10988015Y-15898484D02*
X10978491Y-15888960D01*
X10978491Y-15888960D02*
X10988015Y-15879436D01*
X10988015Y-15879436D02*
X10988015Y-15898484D01*
X11121348Y-15698484D02*
X11140396Y-15698484D01*
X11140396Y-15698484D02*
X11159444Y-15708008D01*
X11159444Y-15708008D02*
X11168968Y-15717531D01*
X11168968Y-15717531D02*
X11178491Y-15736579D01*
X11178491Y-15736579D02*
X11188015Y-15774674D01*
X11188015Y-15774674D02*
X11188015Y-15822293D01*
X11188015Y-15822293D02*
X11178491Y-15860388D01*
X11178491Y-15860388D02*
X11168968Y-15879436D01*
X11168968Y-15879436D02*
X11159444Y-15888960D01*
X11159444Y-15888960D02*
X11140396Y-15898484D01*
X11140396Y-15898484D02*
X11121348Y-15898484D01*
X11121348Y-15898484D02*
X11102301Y-15888960D01*
X11102301Y-15888960D02*
X11092777Y-15879436D01*
X11092777Y-15879436D02*
X11083253Y-15860388D01*
X11083253Y-15860388D02*
X11073729Y-15822293D01*
X11073729Y-15822293D02*
X11073729Y-15774674D01*
X11073729Y-15774674D02*
X11083253Y-15736579D01*
X11083253Y-15736579D02*
X11092777Y-15717531D01*
X11092777Y-15717531D02*
X11102301Y-15708008D01*
X11102301Y-15708008D02*
X11121348Y-15698484D01*
X11264206Y-15717531D02*
X11273729Y-15708008D01*
X11273729Y-15708008D02*
X11292777Y-15698484D01*
X11292777Y-15698484D02*
X11340396Y-15698484D01*
X11340396Y-15698484D02*
X11359444Y-15708008D01*
X11359444Y-15708008D02*
X11368967Y-15717531D01*
X11368967Y-15717531D02*
X11378491Y-15736579D01*
X11378491Y-15736579D02*
X11378491Y-15755627D01*
X11378491Y-15755627D02*
X11368967Y-15784198D01*
X11368967Y-15784198D02*
X11254682Y-15898484D01*
X11254682Y-15898484D02*
X11378491Y-15898484D01*
X11473729Y-15898484D02*
X11511825Y-15898484D01*
X11511825Y-15898484D02*
X11530872Y-15888960D01*
X11530872Y-15888960D02*
X11540396Y-15879436D01*
X11540396Y-15879436D02*
X11559444Y-15850865D01*
X11559444Y-15850865D02*
X11568967Y-15812769D01*
X11568967Y-15812769D02*
X11568967Y-15736579D01*
X11568967Y-15736579D02*
X11559444Y-15717531D01*
X11559444Y-15717531D02*
X11549920Y-15708008D01*
X11549920Y-15708008D02*
X11530872Y-15698484D01*
X11530872Y-15698484D02*
X11492777Y-15698484D01*
X11492777Y-15698484D02*
X11473729Y-15708008D01*
X11473729Y-15708008D02*
X11464206Y-15717531D01*
X11464206Y-15717531D02*
X11454682Y-15736579D01*
X11454682Y-15736579D02*
X11454682Y-15784198D01*
X11454682Y-15784198D02*
X11464206Y-15803246D01*
X11464206Y-15803246D02*
X11473729Y-15812769D01*
X11473729Y-15812769D02*
X11492777Y-15822293D01*
X11492777Y-15822293D02*
X11530872Y-15822293D01*
X11530872Y-15822293D02*
X11549920Y-15812769D01*
X11549920Y-15812769D02*
X11559444Y-15803246D01*
X11559444Y-15803246D02*
X11568967Y-15784198D01*
X11749920Y-15698484D02*
X11654682Y-15698484D01*
X11654682Y-15698484D02*
X11645158Y-15793722D01*
X11645158Y-15793722D02*
X11654682Y-15784198D01*
X11654682Y-15784198D02*
X11673729Y-15774674D01*
X11673729Y-15774674D02*
X11721348Y-15774674D01*
X11721348Y-15774674D02*
X11740396Y-15784198D01*
X11740396Y-15784198D02*
X11749920Y-15793722D01*
X11749920Y-15793722D02*
X11759444Y-15812769D01*
X11759444Y-15812769D02*
X11759444Y-15860388D01*
X11759444Y-15860388D02*
X11749920Y-15879436D01*
X11749920Y-15879436D02*
X11740396Y-15888960D01*
X11740396Y-15888960D02*
X11721348Y-15898484D01*
X11721348Y-15898484D02*
X11673729Y-15898484D01*
X11673729Y-15898484D02*
X11654682Y-15888960D01*
X11654682Y-15888960D02*
X11645158Y-15879436D01*
X11835634Y-15698484D02*
X11835634Y-15736579D01*
X11911825Y-15698484D02*
X11911825Y-15736579D01*
X12207063Y-15974674D02*
X12197539Y-15965150D01*
X12197539Y-15965150D02*
X12178491Y-15936579D01*
X12178491Y-15936579D02*
X12168968Y-15917531D01*
X12168968Y-15917531D02*
X12159444Y-15888960D01*
X12159444Y-15888960D02*
X12149920Y-15841341D01*
X12149920Y-15841341D02*
X12149920Y-15803246D01*
X12149920Y-15803246D02*
X12159444Y-15755627D01*
X12159444Y-15755627D02*
X12168968Y-15727055D01*
X12168968Y-15727055D02*
X12178491Y-15708008D01*
X12178491Y-15708008D02*
X12197539Y-15679436D01*
X12197539Y-15679436D02*
X12207063Y-15669912D01*
X12388015Y-15898484D02*
X12273729Y-15898484D01*
X12330872Y-15898484D02*
X12330872Y-15698484D01*
X12330872Y-15698484D02*
X12311825Y-15727055D01*
X12311825Y-15727055D02*
X12292777Y-15746103D01*
X12292777Y-15746103D02*
X12273729Y-15755627D01*
X12464206Y-15717531D02*
X12473729Y-15708008D01*
X12473729Y-15708008D02*
X12492777Y-15698484D01*
X12492777Y-15698484D02*
X12540396Y-15698484D01*
X12540396Y-15698484D02*
X12559444Y-15708008D01*
X12559444Y-15708008D02*
X12568968Y-15717531D01*
X12568968Y-15717531D02*
X12578491Y-15736579D01*
X12578491Y-15736579D02*
X12578491Y-15755627D01*
X12578491Y-15755627D02*
X12568968Y-15784198D01*
X12568968Y-15784198D02*
X12454682Y-15898484D01*
X12454682Y-15898484D02*
X12578491Y-15898484D01*
X12816587Y-15898484D02*
X12816587Y-15698484D01*
X12902301Y-15898484D02*
X12902301Y-15793722D01*
X12902301Y-15793722D02*
X12892777Y-15774674D01*
X12892777Y-15774674D02*
X12873730Y-15765150D01*
X12873730Y-15765150D02*
X12845158Y-15765150D01*
X12845158Y-15765150D02*
X12826110Y-15774674D01*
X12826110Y-15774674D02*
X12816587Y-15784198D01*
X13026110Y-15898484D02*
X13007063Y-15888960D01*
X13007063Y-15888960D02*
X12997539Y-15879436D01*
X12997539Y-15879436D02*
X12988015Y-15860388D01*
X12988015Y-15860388D02*
X12988015Y-15803246D01*
X12988015Y-15803246D02*
X12997539Y-15784198D01*
X12997539Y-15784198D02*
X13007063Y-15774674D01*
X13007063Y-15774674D02*
X13026110Y-15765150D01*
X13026110Y-15765150D02*
X13054682Y-15765150D01*
X13054682Y-15765150D02*
X13073730Y-15774674D01*
X13073730Y-15774674D02*
X13083253Y-15784198D01*
X13083253Y-15784198D02*
X13092777Y-15803246D01*
X13092777Y-15803246D02*
X13092777Y-15860388D01*
X13092777Y-15860388D02*
X13083253Y-15879436D01*
X13083253Y-15879436D02*
X13073730Y-15888960D01*
X13073730Y-15888960D02*
X13054682Y-15898484D01*
X13054682Y-15898484D02*
X13026110Y-15898484D01*
X13207063Y-15898484D02*
X13188015Y-15888960D01*
X13188015Y-15888960D02*
X13178491Y-15869912D01*
X13178491Y-15869912D02*
X13178491Y-15698484D01*
X13359444Y-15888960D02*
X13340396Y-15898484D01*
X13340396Y-15898484D02*
X13302301Y-15898484D01*
X13302301Y-15898484D02*
X13283253Y-15888960D01*
X13283253Y-15888960D02*
X13273730Y-15869912D01*
X13273730Y-15869912D02*
X13273730Y-15793722D01*
X13273730Y-15793722D02*
X13283253Y-15774674D01*
X13283253Y-15774674D02*
X13302301Y-15765150D01*
X13302301Y-15765150D02*
X13340396Y-15765150D01*
X13340396Y-15765150D02*
X13359444Y-15774674D01*
X13359444Y-15774674D02*
X13368968Y-15793722D01*
X13368968Y-15793722D02*
X13368968Y-15812769D01*
X13368968Y-15812769D02*
X13273730Y-15831817D01*
X13445158Y-15888960D02*
X13464206Y-15898484D01*
X13464206Y-15898484D02*
X13502301Y-15898484D01*
X13502301Y-15898484D02*
X13521349Y-15888960D01*
X13521349Y-15888960D02*
X13530872Y-15869912D01*
X13530872Y-15869912D02*
X13530872Y-15860388D01*
X13530872Y-15860388D02*
X13521349Y-15841341D01*
X13521349Y-15841341D02*
X13502301Y-15831817D01*
X13502301Y-15831817D02*
X13473730Y-15831817D01*
X13473730Y-15831817D02*
X13454682Y-15822293D01*
X13454682Y-15822293D02*
X13445158Y-15803246D01*
X13445158Y-15803246D02*
X13445158Y-15793722D01*
X13445158Y-15793722D02*
X13454682Y-15774674D01*
X13454682Y-15774674D02*
X13473730Y-15765150D01*
X13473730Y-15765150D02*
X13502301Y-15765150D01*
X13502301Y-15765150D02*
X13521349Y-15774674D01*
X13597539Y-15974674D02*
X13607063Y-15965150D01*
X13607063Y-15965150D02*
X13626111Y-15936579D01*
X13626111Y-15936579D02*
X13635634Y-15917531D01*
X13635634Y-15917531D02*
X13645158Y-15888960D01*
X13645158Y-15888960D02*
X13654682Y-15841341D01*
X13654682Y-15841341D02*
X13654682Y-15803246D01*
X13654682Y-15803246D02*
X13645158Y-15755627D01*
X13645158Y-15755627D02*
X13635634Y-15727055D01*
X13635634Y-15727055D02*
X13626111Y-15708008D01*
X13626111Y-15708008D02*
X13607063Y-15679436D01*
X13607063Y-15679436D02*
X13597539Y-15669912D01*
D11*
X8532000Y-16021000D02*
X8632000Y-16121000D01*
X8632000Y-16021000D02*
X8532000Y-16121000D01*
X8632000Y-16071000D02*
G75*
G03*
X8532000Y-16071000I-50000J0D01*
G01*
X8532000Y-16071000D02*
G75*
G03*
X8632000Y-16071000I50000J0D01*
G01*
D10*
X8997539Y-16162484D02*
X8883253Y-16162484D01*
X8940396Y-16162484D02*
X8940396Y-15962484D01*
X8940396Y-15962484D02*
X8921348Y-15991055D01*
X8921348Y-15991055D02*
X8902301Y-16010103D01*
X8902301Y-16010103D02*
X8883253Y-16019627D01*
X9083253Y-16143436D02*
X9092777Y-16152960D01*
X9092777Y-16152960D02*
X9083253Y-16162484D01*
X9083253Y-16162484D02*
X9073729Y-16152960D01*
X9073729Y-16152960D02*
X9083253Y-16143436D01*
X9083253Y-16143436D02*
X9083253Y-16162484D01*
X9216586Y-15962484D02*
X9235634Y-15962484D01*
X9235634Y-15962484D02*
X9254682Y-15972008D01*
X9254682Y-15972008D02*
X9264205Y-15981531D01*
X9264205Y-15981531D02*
X9273729Y-16000579D01*
X9273729Y-16000579D02*
X9283253Y-16038674D01*
X9283253Y-16038674D02*
X9283253Y-16086293D01*
X9283253Y-16086293D02*
X9273729Y-16124388D01*
X9273729Y-16124388D02*
X9264205Y-16143436D01*
X9264205Y-16143436D02*
X9254682Y-16152960D01*
X9254682Y-16152960D02*
X9235634Y-16162484D01*
X9235634Y-16162484D02*
X9216586Y-16162484D01*
X9216586Y-16162484D02*
X9197539Y-16152960D01*
X9197539Y-16152960D02*
X9188015Y-16143436D01*
X9188015Y-16143436D02*
X9178491Y-16124388D01*
X9178491Y-16124388D02*
X9168967Y-16086293D01*
X9168967Y-16086293D02*
X9168967Y-16038674D01*
X9168967Y-16038674D02*
X9178491Y-16000579D01*
X9178491Y-16000579D02*
X9188015Y-15981531D01*
X9188015Y-15981531D02*
X9197539Y-15972008D01*
X9197539Y-15972008D02*
X9216586Y-15962484D01*
X9407063Y-15962484D02*
X9426110Y-15962484D01*
X9426110Y-15962484D02*
X9445158Y-15972008D01*
X9445158Y-15972008D02*
X9454682Y-15981531D01*
X9454682Y-15981531D02*
X9464205Y-16000579D01*
X9464205Y-16000579D02*
X9473729Y-16038674D01*
X9473729Y-16038674D02*
X9473729Y-16086293D01*
X9473729Y-16086293D02*
X9464205Y-16124388D01*
X9464205Y-16124388D02*
X9454682Y-16143436D01*
X9454682Y-16143436D02*
X9445158Y-16152960D01*
X9445158Y-16152960D02*
X9426110Y-16162484D01*
X9426110Y-16162484D02*
X9407063Y-16162484D01*
X9407063Y-16162484D02*
X9388015Y-16152960D01*
X9388015Y-16152960D02*
X9378491Y-16143436D01*
X9378491Y-16143436D02*
X9368967Y-16124388D01*
X9368967Y-16124388D02*
X9359444Y-16086293D01*
X9359444Y-16086293D02*
X9359444Y-16038674D01*
X9359444Y-16038674D02*
X9368967Y-16000579D01*
X9368967Y-16000579D02*
X9378491Y-15981531D01*
X9378491Y-15981531D02*
X9388015Y-15972008D01*
X9388015Y-15972008D02*
X9407063Y-15962484D01*
X9597539Y-15962484D02*
X9616586Y-15962484D01*
X9616586Y-15962484D02*
X9635634Y-15972008D01*
X9635634Y-15972008D02*
X9645158Y-15981531D01*
X9645158Y-15981531D02*
X9654682Y-16000579D01*
X9654682Y-16000579D02*
X9664205Y-16038674D01*
X9664205Y-16038674D02*
X9664205Y-16086293D01*
X9664205Y-16086293D02*
X9654682Y-16124388D01*
X9654682Y-16124388D02*
X9645158Y-16143436D01*
X9645158Y-16143436D02*
X9635634Y-16152960D01*
X9635634Y-16152960D02*
X9616586Y-16162484D01*
X9616586Y-16162484D02*
X9597539Y-16162484D01*
X9597539Y-16162484D02*
X9578491Y-16152960D01*
X9578491Y-16152960D02*
X9568967Y-16143436D01*
X9568967Y-16143436D02*
X9559444Y-16124388D01*
X9559444Y-16124388D02*
X9549920Y-16086293D01*
X9549920Y-16086293D02*
X9549920Y-16038674D01*
X9549920Y-16038674D02*
X9559444Y-16000579D01*
X9559444Y-16000579D02*
X9568967Y-15981531D01*
X9568967Y-15981531D02*
X9578491Y-15972008D01*
X9578491Y-15972008D02*
X9597539Y-15962484D01*
X9749920Y-16162484D02*
X9749920Y-16029150D01*
X9749920Y-16048198D02*
X9759444Y-16038674D01*
X9759444Y-16038674D02*
X9778491Y-16029150D01*
X9778491Y-16029150D02*
X9807063Y-16029150D01*
X9807063Y-16029150D02*
X9826110Y-16038674D01*
X9826110Y-16038674D02*
X9835634Y-16057722D01*
X9835634Y-16057722D02*
X9835634Y-16162484D01*
X9835634Y-16057722D02*
X9845158Y-16038674D01*
X9845158Y-16038674D02*
X9864205Y-16029150D01*
X9864205Y-16029150D02*
X9892777Y-16029150D01*
X9892777Y-16029150D02*
X9911825Y-16038674D01*
X9911825Y-16038674D02*
X9921348Y-16057722D01*
X9921348Y-16057722D02*
X9921348Y-16162484D01*
X10016586Y-16162484D02*
X10016586Y-16029150D01*
X10016586Y-16048198D02*
X10026110Y-16038674D01*
X10026110Y-16038674D02*
X10045158Y-16029150D01*
X10045158Y-16029150D02*
X10073729Y-16029150D01*
X10073729Y-16029150D02*
X10092777Y-16038674D01*
X10092777Y-16038674D02*
X10102301Y-16057722D01*
X10102301Y-16057722D02*
X10102301Y-16162484D01*
X10102301Y-16057722D02*
X10111825Y-16038674D01*
X10111825Y-16038674D02*
X10130872Y-16029150D01*
X10130872Y-16029150D02*
X10159444Y-16029150D01*
X10159444Y-16029150D02*
X10178491Y-16038674D01*
X10178491Y-16038674D02*
X10188015Y-16057722D01*
X10188015Y-16057722D02*
X10188015Y-16162484D01*
X10578491Y-15952960D02*
X10407063Y-16210103D01*
X10835634Y-15962484D02*
X10854682Y-15962484D01*
X10854682Y-15962484D02*
X10873729Y-15972008D01*
X10873729Y-15972008D02*
X10883253Y-15981531D01*
X10883253Y-15981531D02*
X10892777Y-16000579D01*
X10892777Y-16000579D02*
X10902301Y-16038674D01*
X10902301Y-16038674D02*
X10902301Y-16086293D01*
X10902301Y-16086293D02*
X10892777Y-16124388D01*
X10892777Y-16124388D02*
X10883253Y-16143436D01*
X10883253Y-16143436D02*
X10873729Y-16152960D01*
X10873729Y-16152960D02*
X10854682Y-16162484D01*
X10854682Y-16162484D02*
X10835634Y-16162484D01*
X10835634Y-16162484D02*
X10816587Y-16152960D01*
X10816587Y-16152960D02*
X10807063Y-16143436D01*
X10807063Y-16143436D02*
X10797539Y-16124388D01*
X10797539Y-16124388D02*
X10788015Y-16086293D01*
X10788015Y-16086293D02*
X10788015Y-16038674D01*
X10788015Y-16038674D02*
X10797539Y-16000579D01*
X10797539Y-16000579D02*
X10807063Y-15981531D01*
X10807063Y-15981531D02*
X10816587Y-15972008D01*
X10816587Y-15972008D02*
X10835634Y-15962484D01*
X10988015Y-16143436D02*
X10997539Y-16152960D01*
X10997539Y-16152960D02*
X10988015Y-16162484D01*
X10988015Y-16162484D02*
X10978491Y-16152960D01*
X10978491Y-16152960D02*
X10988015Y-16143436D01*
X10988015Y-16143436D02*
X10988015Y-16162484D01*
X11121348Y-15962484D02*
X11140396Y-15962484D01*
X11140396Y-15962484D02*
X11159444Y-15972008D01*
X11159444Y-15972008D02*
X11168968Y-15981531D01*
X11168968Y-15981531D02*
X11178491Y-16000579D01*
X11178491Y-16000579D02*
X11188015Y-16038674D01*
X11188015Y-16038674D02*
X11188015Y-16086293D01*
X11188015Y-16086293D02*
X11178491Y-16124388D01*
X11178491Y-16124388D02*
X11168968Y-16143436D01*
X11168968Y-16143436D02*
X11159444Y-16152960D01*
X11159444Y-16152960D02*
X11140396Y-16162484D01*
X11140396Y-16162484D02*
X11121348Y-16162484D01*
X11121348Y-16162484D02*
X11102301Y-16152960D01*
X11102301Y-16152960D02*
X11092777Y-16143436D01*
X11092777Y-16143436D02*
X11083253Y-16124388D01*
X11083253Y-16124388D02*
X11073729Y-16086293D01*
X11073729Y-16086293D02*
X11073729Y-16038674D01*
X11073729Y-16038674D02*
X11083253Y-16000579D01*
X11083253Y-16000579D02*
X11092777Y-15981531D01*
X11092777Y-15981531D02*
X11102301Y-15972008D01*
X11102301Y-15972008D02*
X11121348Y-15962484D01*
X11254682Y-15962484D02*
X11378491Y-15962484D01*
X11378491Y-15962484D02*
X11311825Y-16038674D01*
X11311825Y-16038674D02*
X11340396Y-16038674D01*
X11340396Y-16038674D02*
X11359444Y-16048198D01*
X11359444Y-16048198D02*
X11368967Y-16057722D01*
X11368967Y-16057722D02*
X11378491Y-16076769D01*
X11378491Y-16076769D02*
X11378491Y-16124388D01*
X11378491Y-16124388D02*
X11368967Y-16143436D01*
X11368967Y-16143436D02*
X11359444Y-16152960D01*
X11359444Y-16152960D02*
X11340396Y-16162484D01*
X11340396Y-16162484D02*
X11283253Y-16162484D01*
X11283253Y-16162484D02*
X11264206Y-16152960D01*
X11264206Y-16152960D02*
X11254682Y-16143436D01*
X11473729Y-16162484D02*
X11511825Y-16162484D01*
X11511825Y-16162484D02*
X11530872Y-16152960D01*
X11530872Y-16152960D02*
X11540396Y-16143436D01*
X11540396Y-16143436D02*
X11559444Y-16114865D01*
X11559444Y-16114865D02*
X11568967Y-16076769D01*
X11568967Y-16076769D02*
X11568967Y-16000579D01*
X11568967Y-16000579D02*
X11559444Y-15981531D01*
X11559444Y-15981531D02*
X11549920Y-15972008D01*
X11549920Y-15972008D02*
X11530872Y-15962484D01*
X11530872Y-15962484D02*
X11492777Y-15962484D01*
X11492777Y-15962484D02*
X11473729Y-15972008D01*
X11473729Y-15972008D02*
X11464206Y-15981531D01*
X11464206Y-15981531D02*
X11454682Y-16000579D01*
X11454682Y-16000579D02*
X11454682Y-16048198D01*
X11454682Y-16048198D02*
X11464206Y-16067246D01*
X11464206Y-16067246D02*
X11473729Y-16076769D01*
X11473729Y-16076769D02*
X11492777Y-16086293D01*
X11492777Y-16086293D02*
X11530872Y-16086293D01*
X11530872Y-16086293D02*
X11549920Y-16076769D01*
X11549920Y-16076769D02*
X11559444Y-16067246D01*
X11559444Y-16067246D02*
X11568967Y-16048198D01*
X11740396Y-16029150D02*
X11740396Y-16162484D01*
X11692777Y-15952960D02*
X11645158Y-16095817D01*
X11645158Y-16095817D02*
X11768967Y-16095817D01*
X11835634Y-15962484D02*
X11835634Y-16000579D01*
X11911825Y-15962484D02*
X11911825Y-16000579D01*
X12207063Y-16238674D02*
X12197539Y-16229150D01*
X12197539Y-16229150D02*
X12178491Y-16200579D01*
X12178491Y-16200579D02*
X12168968Y-16181531D01*
X12168968Y-16181531D02*
X12159444Y-16152960D01*
X12159444Y-16152960D02*
X12149920Y-16105341D01*
X12149920Y-16105341D02*
X12149920Y-16067246D01*
X12149920Y-16067246D02*
X12159444Y-16019627D01*
X12159444Y-16019627D02*
X12168968Y-15991055D01*
X12168968Y-15991055D02*
X12178491Y-15972008D01*
X12178491Y-15972008D02*
X12197539Y-15943436D01*
X12197539Y-15943436D02*
X12207063Y-15933912D01*
X12273729Y-15981531D02*
X12283253Y-15972008D01*
X12283253Y-15972008D02*
X12302301Y-15962484D01*
X12302301Y-15962484D02*
X12349920Y-15962484D01*
X12349920Y-15962484D02*
X12368968Y-15972008D01*
X12368968Y-15972008D02*
X12378491Y-15981531D01*
X12378491Y-15981531D02*
X12388015Y-16000579D01*
X12388015Y-16000579D02*
X12388015Y-16019627D01*
X12388015Y-16019627D02*
X12378491Y-16048198D01*
X12378491Y-16048198D02*
X12264206Y-16162484D01*
X12264206Y-16162484D02*
X12388015Y-16162484D01*
X12559444Y-16029150D02*
X12559444Y-16162484D01*
X12511825Y-15952960D02*
X12464206Y-16095817D01*
X12464206Y-16095817D02*
X12588015Y-16095817D01*
X12816587Y-16162484D02*
X12816587Y-15962484D01*
X12902301Y-16162484D02*
X12902301Y-16057722D01*
X12902301Y-16057722D02*
X12892777Y-16038674D01*
X12892777Y-16038674D02*
X12873730Y-16029150D01*
X12873730Y-16029150D02*
X12845158Y-16029150D01*
X12845158Y-16029150D02*
X12826110Y-16038674D01*
X12826110Y-16038674D02*
X12816587Y-16048198D01*
X13026110Y-16162484D02*
X13007063Y-16152960D01*
X13007063Y-16152960D02*
X12997539Y-16143436D01*
X12997539Y-16143436D02*
X12988015Y-16124388D01*
X12988015Y-16124388D02*
X12988015Y-16067246D01*
X12988015Y-16067246D02*
X12997539Y-16048198D01*
X12997539Y-16048198D02*
X13007063Y-16038674D01*
X13007063Y-16038674D02*
X13026110Y-16029150D01*
X13026110Y-16029150D02*
X13054682Y-16029150D01*
X13054682Y-16029150D02*
X13073730Y-16038674D01*
X13073730Y-16038674D02*
X13083253Y-16048198D01*
X13083253Y-16048198D02*
X13092777Y-16067246D01*
X13092777Y-16067246D02*
X13092777Y-16124388D01*
X13092777Y-16124388D02*
X13083253Y-16143436D01*
X13083253Y-16143436D02*
X13073730Y-16152960D01*
X13073730Y-16152960D02*
X13054682Y-16162484D01*
X13054682Y-16162484D02*
X13026110Y-16162484D01*
X13207063Y-16162484D02*
X13188015Y-16152960D01*
X13188015Y-16152960D02*
X13178491Y-16133912D01*
X13178491Y-16133912D02*
X13178491Y-15962484D01*
X13359444Y-16152960D02*
X13340396Y-16162484D01*
X13340396Y-16162484D02*
X13302301Y-16162484D01*
X13302301Y-16162484D02*
X13283253Y-16152960D01*
X13283253Y-16152960D02*
X13273730Y-16133912D01*
X13273730Y-16133912D02*
X13273730Y-16057722D01*
X13273730Y-16057722D02*
X13283253Y-16038674D01*
X13283253Y-16038674D02*
X13302301Y-16029150D01*
X13302301Y-16029150D02*
X13340396Y-16029150D01*
X13340396Y-16029150D02*
X13359444Y-16038674D01*
X13359444Y-16038674D02*
X13368968Y-16057722D01*
X13368968Y-16057722D02*
X13368968Y-16076769D01*
X13368968Y-16076769D02*
X13273730Y-16095817D01*
X13445158Y-16152960D02*
X13464206Y-16162484D01*
X13464206Y-16162484D02*
X13502301Y-16162484D01*
X13502301Y-16162484D02*
X13521349Y-16152960D01*
X13521349Y-16152960D02*
X13530872Y-16133912D01*
X13530872Y-16133912D02*
X13530872Y-16124388D01*
X13530872Y-16124388D02*
X13521349Y-16105341D01*
X13521349Y-16105341D02*
X13502301Y-16095817D01*
X13502301Y-16095817D02*
X13473730Y-16095817D01*
X13473730Y-16095817D02*
X13454682Y-16086293D01*
X13454682Y-16086293D02*
X13445158Y-16067246D01*
X13445158Y-16067246D02*
X13445158Y-16057722D01*
X13445158Y-16057722D02*
X13454682Y-16038674D01*
X13454682Y-16038674D02*
X13473730Y-16029150D01*
X13473730Y-16029150D02*
X13502301Y-16029150D01*
X13502301Y-16029150D02*
X13521349Y-16038674D01*
X13597539Y-16238674D02*
X13607063Y-16229150D01*
X13607063Y-16229150D02*
X13626111Y-16200579D01*
X13626111Y-16200579D02*
X13635634Y-16181531D01*
X13635634Y-16181531D02*
X13645158Y-16152960D01*
X13645158Y-16152960D02*
X13654682Y-16105341D01*
X13654682Y-16105341D02*
X13654682Y-16067246D01*
X13654682Y-16067246D02*
X13645158Y-16019627D01*
X13645158Y-16019627D02*
X13635634Y-15991055D01*
X13635634Y-15991055D02*
X13626111Y-15972008D01*
X13626111Y-15972008D02*
X13607063Y-15943436D01*
X13607063Y-15943436D02*
X13597539Y-15933912D01*
D12*
X8447000Y-16242500D02*
X8632000Y-16427500D01*
X8632000Y-16242500D02*
X8447000Y-16427500D01*
X8539500Y-16242500D02*
X8539500Y-16427500D01*
X8447000Y-16335000D02*
X8632000Y-16335000D01*
D10*
X8997539Y-16426484D02*
X8883253Y-16426484D01*
X8940396Y-16426484D02*
X8940396Y-16226484D01*
X8940396Y-16226484D02*
X8921348Y-16255055D01*
X8921348Y-16255055D02*
X8902301Y-16274103D01*
X8902301Y-16274103D02*
X8883253Y-16283627D01*
X9083253Y-16407436D02*
X9092777Y-16416960D01*
X9092777Y-16416960D02*
X9083253Y-16426484D01*
X9083253Y-16426484D02*
X9073729Y-16416960D01*
X9073729Y-16416960D02*
X9083253Y-16407436D01*
X9083253Y-16407436D02*
X9083253Y-16426484D01*
X9207063Y-16312198D02*
X9188015Y-16302674D01*
X9188015Y-16302674D02*
X9178491Y-16293150D01*
X9178491Y-16293150D02*
X9168967Y-16274103D01*
X9168967Y-16274103D02*
X9168967Y-16264579D01*
X9168967Y-16264579D02*
X9178491Y-16245531D01*
X9178491Y-16245531D02*
X9188015Y-16236008D01*
X9188015Y-16236008D02*
X9207063Y-16226484D01*
X9207063Y-16226484D02*
X9245158Y-16226484D01*
X9245158Y-16226484D02*
X9264205Y-16236008D01*
X9264205Y-16236008D02*
X9273729Y-16245531D01*
X9273729Y-16245531D02*
X9283253Y-16264579D01*
X9283253Y-16264579D02*
X9283253Y-16274103D01*
X9283253Y-16274103D02*
X9273729Y-16293150D01*
X9273729Y-16293150D02*
X9264205Y-16302674D01*
X9264205Y-16302674D02*
X9245158Y-16312198D01*
X9245158Y-16312198D02*
X9207063Y-16312198D01*
X9207063Y-16312198D02*
X9188015Y-16321722D01*
X9188015Y-16321722D02*
X9178491Y-16331246D01*
X9178491Y-16331246D02*
X9168967Y-16350293D01*
X9168967Y-16350293D02*
X9168967Y-16388388D01*
X9168967Y-16388388D02*
X9178491Y-16407436D01*
X9178491Y-16407436D02*
X9188015Y-16416960D01*
X9188015Y-16416960D02*
X9207063Y-16426484D01*
X9207063Y-16426484D02*
X9245158Y-16426484D01*
X9245158Y-16426484D02*
X9264205Y-16416960D01*
X9264205Y-16416960D02*
X9273729Y-16407436D01*
X9273729Y-16407436D02*
X9283253Y-16388388D01*
X9283253Y-16388388D02*
X9283253Y-16350293D01*
X9283253Y-16350293D02*
X9273729Y-16331246D01*
X9273729Y-16331246D02*
X9264205Y-16321722D01*
X9264205Y-16321722D02*
X9245158Y-16312198D01*
X9464205Y-16226484D02*
X9368967Y-16226484D01*
X9368967Y-16226484D02*
X9359444Y-16321722D01*
X9359444Y-16321722D02*
X9368967Y-16312198D01*
X9368967Y-16312198D02*
X9388015Y-16302674D01*
X9388015Y-16302674D02*
X9435634Y-16302674D01*
X9435634Y-16302674D02*
X9454682Y-16312198D01*
X9454682Y-16312198D02*
X9464205Y-16321722D01*
X9464205Y-16321722D02*
X9473729Y-16340769D01*
X9473729Y-16340769D02*
X9473729Y-16388388D01*
X9473729Y-16388388D02*
X9464205Y-16407436D01*
X9464205Y-16407436D02*
X9454682Y-16416960D01*
X9454682Y-16416960D02*
X9435634Y-16426484D01*
X9435634Y-16426484D02*
X9388015Y-16426484D01*
X9388015Y-16426484D02*
X9368967Y-16416960D01*
X9368967Y-16416960D02*
X9359444Y-16407436D01*
X9597539Y-16226484D02*
X9616586Y-16226484D01*
X9616586Y-16226484D02*
X9635634Y-16236008D01*
X9635634Y-16236008D02*
X9645158Y-16245531D01*
X9645158Y-16245531D02*
X9654682Y-16264579D01*
X9654682Y-16264579D02*
X9664205Y-16302674D01*
X9664205Y-16302674D02*
X9664205Y-16350293D01*
X9664205Y-16350293D02*
X9654682Y-16388388D01*
X9654682Y-16388388D02*
X9645158Y-16407436D01*
X9645158Y-16407436D02*
X9635634Y-16416960D01*
X9635634Y-16416960D02*
X9616586Y-16426484D01*
X9616586Y-16426484D02*
X9597539Y-16426484D01*
X9597539Y-16426484D02*
X9578491Y-16416960D01*
X9578491Y-16416960D02*
X9568967Y-16407436D01*
X9568967Y-16407436D02*
X9559444Y-16388388D01*
X9559444Y-16388388D02*
X9549920Y-16350293D01*
X9549920Y-16350293D02*
X9549920Y-16302674D01*
X9549920Y-16302674D02*
X9559444Y-16264579D01*
X9559444Y-16264579D02*
X9568967Y-16245531D01*
X9568967Y-16245531D02*
X9578491Y-16236008D01*
X9578491Y-16236008D02*
X9597539Y-16226484D01*
X9749920Y-16426484D02*
X9749920Y-16293150D01*
X9749920Y-16312198D02*
X9759444Y-16302674D01*
X9759444Y-16302674D02*
X9778491Y-16293150D01*
X9778491Y-16293150D02*
X9807063Y-16293150D01*
X9807063Y-16293150D02*
X9826110Y-16302674D01*
X9826110Y-16302674D02*
X9835634Y-16321722D01*
X9835634Y-16321722D02*
X9835634Y-16426484D01*
X9835634Y-16321722D02*
X9845158Y-16302674D01*
X9845158Y-16302674D02*
X9864205Y-16293150D01*
X9864205Y-16293150D02*
X9892777Y-16293150D01*
X9892777Y-16293150D02*
X9911825Y-16302674D01*
X9911825Y-16302674D02*
X9921348Y-16321722D01*
X9921348Y-16321722D02*
X9921348Y-16426484D01*
X10016586Y-16426484D02*
X10016586Y-16293150D01*
X10016586Y-16312198D02*
X10026110Y-16302674D01*
X10026110Y-16302674D02*
X10045158Y-16293150D01*
X10045158Y-16293150D02*
X10073729Y-16293150D01*
X10073729Y-16293150D02*
X10092777Y-16302674D01*
X10092777Y-16302674D02*
X10102301Y-16321722D01*
X10102301Y-16321722D02*
X10102301Y-16426484D01*
X10102301Y-16321722D02*
X10111825Y-16302674D01*
X10111825Y-16302674D02*
X10130872Y-16293150D01*
X10130872Y-16293150D02*
X10159444Y-16293150D01*
X10159444Y-16293150D02*
X10178491Y-16302674D01*
X10178491Y-16302674D02*
X10188015Y-16321722D01*
X10188015Y-16321722D02*
X10188015Y-16426484D01*
X10578491Y-16216960D02*
X10407063Y-16474103D01*
X10835634Y-16226484D02*
X10854682Y-16226484D01*
X10854682Y-16226484D02*
X10873729Y-16236008D01*
X10873729Y-16236008D02*
X10883253Y-16245531D01*
X10883253Y-16245531D02*
X10892777Y-16264579D01*
X10892777Y-16264579D02*
X10902301Y-16302674D01*
X10902301Y-16302674D02*
X10902301Y-16350293D01*
X10902301Y-16350293D02*
X10892777Y-16388388D01*
X10892777Y-16388388D02*
X10883253Y-16407436D01*
X10883253Y-16407436D02*
X10873729Y-16416960D01*
X10873729Y-16416960D02*
X10854682Y-16426484D01*
X10854682Y-16426484D02*
X10835634Y-16426484D01*
X10835634Y-16426484D02*
X10816587Y-16416960D01*
X10816587Y-16416960D02*
X10807063Y-16407436D01*
X10807063Y-16407436D02*
X10797539Y-16388388D01*
X10797539Y-16388388D02*
X10788015Y-16350293D01*
X10788015Y-16350293D02*
X10788015Y-16302674D01*
X10788015Y-16302674D02*
X10797539Y-16264579D01*
X10797539Y-16264579D02*
X10807063Y-16245531D01*
X10807063Y-16245531D02*
X10816587Y-16236008D01*
X10816587Y-16236008D02*
X10835634Y-16226484D01*
X10988015Y-16407436D02*
X10997539Y-16416960D01*
X10997539Y-16416960D02*
X10988015Y-16426484D01*
X10988015Y-16426484D02*
X10978491Y-16416960D01*
X10978491Y-16416960D02*
X10988015Y-16407436D01*
X10988015Y-16407436D02*
X10988015Y-16426484D01*
X11121348Y-16226484D02*
X11140396Y-16226484D01*
X11140396Y-16226484D02*
X11159444Y-16236008D01*
X11159444Y-16236008D02*
X11168968Y-16245531D01*
X11168968Y-16245531D02*
X11178491Y-16264579D01*
X11178491Y-16264579D02*
X11188015Y-16302674D01*
X11188015Y-16302674D02*
X11188015Y-16350293D01*
X11188015Y-16350293D02*
X11178491Y-16388388D01*
X11178491Y-16388388D02*
X11168968Y-16407436D01*
X11168968Y-16407436D02*
X11159444Y-16416960D01*
X11159444Y-16416960D02*
X11140396Y-16426484D01*
X11140396Y-16426484D02*
X11121348Y-16426484D01*
X11121348Y-16426484D02*
X11102301Y-16416960D01*
X11102301Y-16416960D02*
X11092777Y-16407436D01*
X11092777Y-16407436D02*
X11083253Y-16388388D01*
X11083253Y-16388388D02*
X11073729Y-16350293D01*
X11073729Y-16350293D02*
X11073729Y-16302674D01*
X11073729Y-16302674D02*
X11083253Y-16264579D01*
X11083253Y-16264579D02*
X11092777Y-16245531D01*
X11092777Y-16245531D02*
X11102301Y-16236008D01*
X11102301Y-16236008D02*
X11121348Y-16226484D01*
X11254682Y-16226484D02*
X11388015Y-16226484D01*
X11388015Y-16226484D02*
X11302301Y-16426484D01*
X11454682Y-16245531D02*
X11464206Y-16236008D01*
X11464206Y-16236008D02*
X11483253Y-16226484D01*
X11483253Y-16226484D02*
X11530872Y-16226484D01*
X11530872Y-16226484D02*
X11549920Y-16236008D01*
X11549920Y-16236008D02*
X11559444Y-16245531D01*
X11559444Y-16245531D02*
X11568967Y-16264579D01*
X11568967Y-16264579D02*
X11568967Y-16283627D01*
X11568967Y-16283627D02*
X11559444Y-16312198D01*
X11559444Y-16312198D02*
X11445158Y-16426484D01*
X11445158Y-16426484D02*
X11568967Y-16426484D01*
X11683253Y-16312198D02*
X11664206Y-16302674D01*
X11664206Y-16302674D02*
X11654682Y-16293150D01*
X11654682Y-16293150D02*
X11645158Y-16274103D01*
X11645158Y-16274103D02*
X11645158Y-16264579D01*
X11645158Y-16264579D02*
X11654682Y-16245531D01*
X11654682Y-16245531D02*
X11664206Y-16236008D01*
X11664206Y-16236008D02*
X11683253Y-16226484D01*
X11683253Y-16226484D02*
X11721348Y-16226484D01*
X11721348Y-16226484D02*
X11740396Y-16236008D01*
X11740396Y-16236008D02*
X11749920Y-16245531D01*
X11749920Y-16245531D02*
X11759444Y-16264579D01*
X11759444Y-16264579D02*
X11759444Y-16274103D01*
X11759444Y-16274103D02*
X11749920Y-16293150D01*
X11749920Y-16293150D02*
X11740396Y-16302674D01*
X11740396Y-16302674D02*
X11721348Y-16312198D01*
X11721348Y-16312198D02*
X11683253Y-16312198D01*
X11683253Y-16312198D02*
X11664206Y-16321722D01*
X11664206Y-16321722D02*
X11654682Y-16331246D01*
X11654682Y-16331246D02*
X11645158Y-16350293D01*
X11645158Y-16350293D02*
X11645158Y-16388388D01*
X11645158Y-16388388D02*
X11654682Y-16407436D01*
X11654682Y-16407436D02*
X11664206Y-16416960D01*
X11664206Y-16416960D02*
X11683253Y-16426484D01*
X11683253Y-16426484D02*
X11721348Y-16426484D01*
X11721348Y-16426484D02*
X11740396Y-16416960D01*
X11740396Y-16416960D02*
X11749920Y-16407436D01*
X11749920Y-16407436D02*
X11759444Y-16388388D01*
X11759444Y-16388388D02*
X11759444Y-16350293D01*
X11759444Y-16350293D02*
X11749920Y-16331246D01*
X11749920Y-16331246D02*
X11740396Y-16321722D01*
X11740396Y-16321722D02*
X11721348Y-16312198D01*
X11835634Y-16226484D02*
X11835634Y-16264579D01*
X11911825Y-16226484D02*
X11911825Y-16264579D01*
X12207063Y-16502674D02*
X12197539Y-16493150D01*
X12197539Y-16493150D02*
X12178491Y-16464579D01*
X12178491Y-16464579D02*
X12168968Y-16445531D01*
X12168968Y-16445531D02*
X12159444Y-16416960D01*
X12159444Y-16416960D02*
X12149920Y-16369341D01*
X12149920Y-16369341D02*
X12149920Y-16331246D01*
X12149920Y-16331246D02*
X12159444Y-16283627D01*
X12159444Y-16283627D02*
X12168968Y-16255055D01*
X12168968Y-16255055D02*
X12178491Y-16236008D01*
X12178491Y-16236008D02*
X12197539Y-16207436D01*
X12197539Y-16207436D02*
X12207063Y-16197912D01*
X12368968Y-16293150D02*
X12368968Y-16426484D01*
X12321348Y-16216960D02*
X12273729Y-16359817D01*
X12273729Y-16359817D02*
X12397539Y-16359817D01*
X12626110Y-16426484D02*
X12626110Y-16226484D01*
X12711825Y-16426484D02*
X12711825Y-16321722D01*
X12711825Y-16321722D02*
X12702301Y-16302674D01*
X12702301Y-16302674D02*
X12683253Y-16293150D01*
X12683253Y-16293150D02*
X12654682Y-16293150D01*
X12654682Y-16293150D02*
X12635634Y-16302674D01*
X12635634Y-16302674D02*
X12626110Y-16312198D01*
X12835634Y-16426484D02*
X12816587Y-16416960D01*
X12816587Y-16416960D02*
X12807063Y-16407436D01*
X12807063Y-16407436D02*
X12797539Y-16388388D01*
X12797539Y-16388388D02*
X12797539Y-16331246D01*
X12797539Y-16331246D02*
X12807063Y-16312198D01*
X12807063Y-16312198D02*
X12816587Y-16302674D01*
X12816587Y-16302674D02*
X12835634Y-16293150D01*
X12835634Y-16293150D02*
X12864206Y-16293150D01*
X12864206Y-16293150D02*
X12883253Y-16302674D01*
X12883253Y-16302674D02*
X12892777Y-16312198D01*
X12892777Y-16312198D02*
X12902301Y-16331246D01*
X12902301Y-16331246D02*
X12902301Y-16388388D01*
X12902301Y-16388388D02*
X12892777Y-16407436D01*
X12892777Y-16407436D02*
X12883253Y-16416960D01*
X12883253Y-16416960D02*
X12864206Y-16426484D01*
X12864206Y-16426484D02*
X12835634Y-16426484D01*
X13016587Y-16426484D02*
X12997539Y-16416960D01*
X12997539Y-16416960D02*
X12988015Y-16397912D01*
X12988015Y-16397912D02*
X12988015Y-16226484D01*
X13168968Y-16416960D02*
X13149920Y-16426484D01*
X13149920Y-16426484D02*
X13111825Y-16426484D01*
X13111825Y-16426484D02*
X13092777Y-16416960D01*
X13092777Y-16416960D02*
X13083253Y-16397912D01*
X13083253Y-16397912D02*
X13083253Y-16321722D01*
X13083253Y-16321722D02*
X13092777Y-16302674D01*
X13092777Y-16302674D02*
X13111825Y-16293150D01*
X13111825Y-16293150D02*
X13149920Y-16293150D01*
X13149920Y-16293150D02*
X13168968Y-16302674D01*
X13168968Y-16302674D02*
X13178491Y-16321722D01*
X13178491Y-16321722D02*
X13178491Y-16340769D01*
X13178491Y-16340769D02*
X13083253Y-16359817D01*
X13254682Y-16416960D02*
X13273730Y-16426484D01*
X13273730Y-16426484D02*
X13311825Y-16426484D01*
X13311825Y-16426484D02*
X13330872Y-16416960D01*
X13330872Y-16416960D02*
X13340396Y-16397912D01*
X13340396Y-16397912D02*
X13340396Y-16388388D01*
X13340396Y-16388388D02*
X13330872Y-16369341D01*
X13330872Y-16369341D02*
X13311825Y-16359817D01*
X13311825Y-16359817D02*
X13283253Y-16359817D01*
X13283253Y-16359817D02*
X13264206Y-16350293D01*
X13264206Y-16350293D02*
X13254682Y-16331246D01*
X13254682Y-16331246D02*
X13254682Y-16321722D01*
X13254682Y-16321722D02*
X13264206Y-16302674D01*
X13264206Y-16302674D02*
X13283253Y-16293150D01*
X13283253Y-16293150D02*
X13311825Y-16293150D01*
X13311825Y-16293150D02*
X13330872Y-16302674D01*
X13407063Y-16502674D02*
X13416587Y-16493150D01*
X13416587Y-16493150D02*
X13435634Y-16464579D01*
X13435634Y-16464579D02*
X13445158Y-16445531D01*
X13445158Y-16445531D02*
X13454682Y-16416960D01*
X13454682Y-16416960D02*
X13464206Y-16369341D01*
X13464206Y-16369341D02*
X13464206Y-16331246D01*
X13464206Y-16331246D02*
X13454682Y-16283627D01*
X13454682Y-16283627D02*
X13445158Y-16255055D01*
X13445158Y-16255055D02*
X13435634Y-16236008D01*
X13435634Y-16236008D02*
X13416587Y-16207436D01*
X13416587Y-16207436D02*
X13407063Y-16197912D01*
M02*
