M48
; DRILL file {KiCad 7.0.10-7.0.10~ubuntu22.04.1} date Fri 26 Apr 2024 01:08:25 PM EDT
; FORMAT={-:-/ absolute / inch / decimal}
; #@! TF.CreationDate,2024-04-26T13:08:25-04:00
; #@! TF.GenerationSoftware,Kicad,Pcbnew,7.0.10-7.0.10~ubuntu22.04.1
; #@! TF.FileFunction,Plated,1,2,PTH
FMAT,2
INCH
; #@! TA.AperFunction,Plated,PTH,ComponentDrill
T1C0.0079
; #@! TA.AperFunction,Plated,PTH,ComponentDrill
T2C0.0098
; #@! TA.AperFunction,Plated,PTH,ViaDrill
T3C0.0157
; #@! TA.AperFunction,Plated,PTH,ComponentDrill
T4C0.0236
; #@! TA.AperFunction,Plated,PTH,ComponentDrill
T5C0.0300
; #@! TA.AperFunction,Plated,PTH,ComponentDrill
T6C0.0394
; #@! TA.AperFunction,Plated,PTH,ComponentDrill
T7C0.0728
; #@! TA.AperFunction,Plated,PTH,ComponentDrill
T8C0.0945
%
G90
G05
T1
X4.3493Y-4.6456
X4.3493Y-4.692
X4.3958Y-4.6456
X4.3958Y-4.692
T2
X6.2288Y-4.3497
X6.2332Y-3.4951
X6.2566Y-4.3775
X6.261Y-3.4673
T3
X4.117Y-4.7755
X4.1969Y-4.622
X4.2745Y-4.8897
X4.2756Y-4.4646
X4.3532Y-4.8897
X4.3543Y-4.4646
X4.3543Y-4.5354
X4.3543Y-4.8228
X4.4308Y-4.7072
X4.5458Y-5.2968
X4.5984Y-5.0787
X4.5984Y-5.1417
X4.6535Y-4.9685
X4.6643Y-4.8936
X4.7337Y-5.0852
X4.9134Y-5.189
X4.9213Y-4.1969
X5.1969Y-3.8583
X5.3937Y-4.5276
X5.5039Y-5.189
X5.6053Y-2.4065
X5.6299Y-5.3543
X5.6317Y-5.3108
X5.7037Y-2.4065
X6.0884Y-4.6031
X6.126Y-4.3622
X6.1732Y-4.3071
X6.186Y-4.3627
X6.2441Y-4.3071
X6.248Y-3.4245
X6.252Y-3.3543
X6.252Y-4.4724
X6.2718Y-3.5591
X6.2996Y-4.4248
X6.3071Y-3.4016
X6.3304Y-3.5177
X6.3941Y-3.4012
X6.4046Y-3.4852
X6.4961Y-2.9134
X6.811Y-4.7323
X7.2441Y-3.5827
X7.3228Y-3.3543
X7.3228Y-4.4724
X7.4132Y-4.2323
X7.4464Y-4.1732
X7.4488Y-4.1102
X7.4567Y-3.8256
X7.4567Y-3.8976
X7.4912Y-4.3712
X7.5Y-3.6878
X7.5Y-3.9213
X7.5039Y-3.6181
X7.5157Y-3.9961
X7.5512Y-3.7874
X7.5945Y-3.9442
X7.6417Y-4.0669
X7.6609Y-4.4291
X7.6614Y-3.7953
X7.669Y-3.9769
X7.6772Y-4.2874
X7.7165Y-3.3465
X7.7165Y-3.7008
X7.732Y-4.5093
X7.748Y-3.9646
X7.748Y-4.0276
X7.7705Y-4.5244
X7.7815Y-3.8071
X7.7992Y-3.6575
X7.8268Y-4.126
X7.9606Y-3.7126
X7.9606Y-4.2165
X7.977Y-4.1187
X7.9928Y-3.7598
X8.1102Y-3.622
T5
X7.9048Y-4.4601
X7.9048Y-4.5389
X7.9141Y-3.3273
X7.9141Y-3.406
X8.0819Y-4.4601
X8.0819Y-4.5389
X8.0913Y-3.3273
X8.0913Y-3.406
T6
X6.0762Y-3.3932
X6.0784Y-4.4555
X6.1469Y-3.3225
X6.1491Y-4.5262
T7
X5.0945Y-2.4961
X5.0945Y-3.1264
X5.0945Y-4.7323
X5.0945Y-5.3626
T8
X7.9606Y-3.9646
T4
X5.452Y-5.2656G85X5.452Y-5.3089
G05
X5.452Y-5.436G85X5.452Y-5.4675
G05
X5.7921Y-5.2656G85X5.7921Y-5.3089
G05
X5.7921Y-5.436G85X5.7921Y-5.4675
G05
M30
