%TF.GenerationSoftware,KiCad,Pcbnew,7.0.11-7.0.11~ubuntu22.04.1*%
%TF.CreationDate,2024-08-24T14:15:54-04:00*%
%TF.ProjectId,little_red_rover,6c697474-6c65-45f7-9265-645f726f7665,rev?*%
%TF.SameCoordinates,Original*%
%TF.FileFunction,Drillmap*%
%TF.FilePolarity,Positive*%
%FSLAX45Y45*%
G04 Gerber Fmt 4.5, Leading zero omitted, Abs format (unit mm)*
G04 Created by KiCad (PCBNEW 7.0.11-7.0.11~ubuntu22.04.1) date 2024-08-24 14:15:54*
%MOMM*%
%LPD*%
G01*
G04 APERTURE LIST*
%ADD10C,0.200000*%
%ADD11C,0.100000*%
%ADD12C,0.422000*%
G04 APERTURE END LIST*
D10*
X13985992Y-8356141D02*
G75*
G03*
X13985992Y-11625859I3166008J-1634859D01*
G01*
X21372000Y-11581000D02*
X20772000Y-11581000D01*
X15930362Y-10491000D02*
X14616153Y-11733043D01*
X20772000Y-8171000D02*
X20772000Y-8401000D01*
X21372000Y-13901000D02*
X20772000Y-13901000D01*
X12752000Y-5881000D02*
X21372000Y-5881000D01*
X9120611Y-10991000D02*
X8765510Y-10991000D01*
X17122000Y-8171000D02*
X17122000Y-8401000D01*
X18372000Y-13671000D02*
X18372000Y-13901000D01*
X14616148Y-8248962D02*
G75*
G03*
X13985992Y-8356141I-274748J-290708D01*
G01*
X12752000Y-5881000D02*
G75*
G03*
X9161443Y-7991000I0J-4110000D01*
G01*
X18372000Y-13671000D02*
X17122000Y-13671000D01*
X17122000Y-11811000D02*
X17122000Y-11581000D01*
X9457125Y-11991000D02*
X9161443Y-11991000D01*
X20772000Y-13671000D02*
X20772000Y-13901000D01*
X21372000Y-13671000D02*
X20772000Y-13671000D01*
X21372000Y-6311000D02*
X20772000Y-6311000D01*
X8720611Y-9191000D02*
X9120611Y-9191000D01*
X21372000Y-13671000D02*
X21372000Y-11811000D01*
X9057125Y-8191000D02*
G75*
G03*
X8765510Y-8991000I3694875J-1800000D01*
G01*
X21372000Y-8171000D02*
X20772000Y-8171000D01*
X17122000Y-13671000D02*
X17122000Y-13901000D01*
X18372000Y-6311000D02*
X18372000Y-6081000D01*
X18372000Y-11581000D02*
X17122000Y-11581000D01*
X12752000Y-14101000D02*
X21372000Y-14101000D01*
X21372000Y-8401000D02*
X20772000Y-8401000D01*
X21372000Y-14101000D02*
X21372000Y-13901000D01*
X9457125Y-7991000D02*
X9161443Y-7991000D01*
X21372000Y-11811000D02*
X20772000Y-11811000D01*
X21372000Y-6081000D02*
X21372000Y-5881000D01*
X18372000Y-6311000D02*
X17122000Y-6311000D01*
X15930362Y-9491000D02*
X14616153Y-8248957D01*
X9161443Y-11991000D02*
G75*
G03*
X12752000Y-14101000I3590557J2000000D01*
G01*
X9457125Y-8191000D02*
X9457125Y-7991000D01*
X8720611Y-9191000D02*
G75*
G03*
X8720611Y-10791000I4031389J-800000D01*
G01*
X18372000Y-11811000D02*
X18372000Y-11581000D01*
X8765510Y-10991000D02*
G75*
G03*
X9057125Y-11791000I3986490J1000000D01*
G01*
X9120611Y-9191000D02*
X9120611Y-8991000D01*
X18372000Y-8171000D02*
X18372000Y-8401000D01*
X9457125Y-11791000D02*
X9457125Y-11991000D01*
X15930362Y-10491000D02*
G75*
G03*
X15930362Y-9491000I1221638J500000D01*
G01*
X9057125Y-8191000D02*
X9457125Y-8191000D01*
X13985986Y-11625862D02*
G75*
G03*
X14616153Y-11733043I355414J183532D01*
G01*
X21372000Y-6081000D02*
X20772000Y-6081000D01*
X20772000Y-6311000D02*
X20772000Y-6081000D01*
X18372000Y-8171000D02*
X17122000Y-8171000D01*
X9057125Y-11791000D02*
X9457125Y-11791000D01*
X9120611Y-8991000D02*
X8765510Y-8991000D01*
X9120611Y-10791000D02*
X9120611Y-10991000D01*
X18372000Y-11811000D02*
X17122000Y-11811000D01*
X21372000Y-11581000D02*
X21372000Y-8401000D01*
X17122000Y-6311000D02*
X17122000Y-6081000D01*
X20772000Y-11811000D02*
X20772000Y-11581000D01*
X8720611Y-10791000D02*
X9120611Y-10791000D01*
X21372000Y-8171000D02*
X21372000Y-6311000D01*
X18372000Y-13901000D02*
X17122000Y-13901000D01*
X18372000Y-8401000D02*
X17122000Y-8401000D01*
X18372000Y-6081000D02*
X17122000Y-6081000D01*
D11*
X14198500Y-13427000D02*
X14263500Y-13492000D01*
X14263500Y-13427000D02*
X14198500Y-13492000D01*
X14776500Y-13427000D02*
X14841500Y-13492000D01*
X14841500Y-13427000D02*
X14776500Y-13492000D01*
X13248000Y-13920500D02*
G75*
G03*
X13158000Y-13920500I-45000J0D01*
G01*
X13158000Y-13920500D02*
G75*
G03*
X13248000Y-13920500I45000J0D01*
G01*
X13548000Y-13920500D02*
G75*
G03*
X13458000Y-13920500I-45000J0D01*
G01*
X13458000Y-13920500D02*
G75*
G03*
X13548000Y-13920500I45000J0D01*
G01*
D12*
X9222000Y-9779000D02*
X9222000Y-10201000D01*
X9011000Y-9990000D02*
X9433000Y-9990000D01*
X16352000Y-7979000D02*
X16352000Y-8401000D01*
X16141000Y-8190000D02*
X16563000Y-8190000D01*
X16352000Y-11579000D02*
X16352000Y-12001000D01*
X16141000Y-11790000D02*
X16563000Y-11790000D01*
D10*
X8892777Y-14422484D02*
X8892777Y-14222484D01*
X8892777Y-14222484D02*
X8940396Y-14222484D01*
X8940396Y-14222484D02*
X8968967Y-14232008D01*
X8968967Y-14232008D02*
X8988015Y-14251055D01*
X8988015Y-14251055D02*
X8997539Y-14270103D01*
X8997539Y-14270103D02*
X9007063Y-14308198D01*
X9007063Y-14308198D02*
X9007063Y-14336769D01*
X9007063Y-14336769D02*
X8997539Y-14374865D01*
X8997539Y-14374865D02*
X8988015Y-14393912D01*
X8988015Y-14393912D02*
X8968967Y-14412960D01*
X8968967Y-14412960D02*
X8940396Y-14422484D01*
X8940396Y-14422484D02*
X8892777Y-14422484D01*
X9092777Y-14422484D02*
X9092777Y-14289150D01*
X9092777Y-14327246D02*
X9102301Y-14308198D01*
X9102301Y-14308198D02*
X9111824Y-14298674D01*
X9111824Y-14298674D02*
X9130872Y-14289150D01*
X9130872Y-14289150D02*
X9149920Y-14289150D01*
X9216586Y-14422484D02*
X9216586Y-14289150D01*
X9216586Y-14222484D02*
X9207063Y-14232008D01*
X9207063Y-14232008D02*
X9216586Y-14241531D01*
X9216586Y-14241531D02*
X9226110Y-14232008D01*
X9226110Y-14232008D02*
X9216586Y-14222484D01*
X9216586Y-14222484D02*
X9216586Y-14241531D01*
X9340396Y-14422484D02*
X9321348Y-14412960D01*
X9321348Y-14412960D02*
X9311824Y-14393912D01*
X9311824Y-14393912D02*
X9311824Y-14222484D01*
X9445158Y-14422484D02*
X9426110Y-14412960D01*
X9426110Y-14412960D02*
X9416586Y-14393912D01*
X9416586Y-14393912D02*
X9416586Y-14222484D01*
X9673729Y-14422484D02*
X9673729Y-14222484D01*
X9673729Y-14222484D02*
X9740396Y-14365341D01*
X9740396Y-14365341D02*
X9807063Y-14222484D01*
X9807063Y-14222484D02*
X9807063Y-14422484D01*
X9988015Y-14422484D02*
X9988015Y-14317722D01*
X9988015Y-14317722D02*
X9978491Y-14298674D01*
X9978491Y-14298674D02*
X9959444Y-14289150D01*
X9959444Y-14289150D02*
X9921348Y-14289150D01*
X9921348Y-14289150D02*
X9902301Y-14298674D01*
X9988015Y-14412960D02*
X9968967Y-14422484D01*
X9968967Y-14422484D02*
X9921348Y-14422484D01*
X9921348Y-14422484D02*
X9902301Y-14412960D01*
X9902301Y-14412960D02*
X9892777Y-14393912D01*
X9892777Y-14393912D02*
X9892777Y-14374865D01*
X9892777Y-14374865D02*
X9902301Y-14355817D01*
X9902301Y-14355817D02*
X9921348Y-14346293D01*
X9921348Y-14346293D02*
X9968967Y-14346293D01*
X9968967Y-14346293D02*
X9988015Y-14336769D01*
X10083253Y-14289150D02*
X10083253Y-14489150D01*
X10083253Y-14298674D02*
X10102301Y-14289150D01*
X10102301Y-14289150D02*
X10140396Y-14289150D01*
X10140396Y-14289150D02*
X10159444Y-14298674D01*
X10159444Y-14298674D02*
X10168967Y-14308198D01*
X10168967Y-14308198D02*
X10178491Y-14327246D01*
X10178491Y-14327246D02*
X10178491Y-14384388D01*
X10178491Y-14384388D02*
X10168967Y-14403436D01*
X10168967Y-14403436D02*
X10159444Y-14412960D01*
X10159444Y-14412960D02*
X10140396Y-14422484D01*
X10140396Y-14422484D02*
X10102301Y-14422484D01*
X10102301Y-14422484D02*
X10083253Y-14412960D01*
X10264205Y-14403436D02*
X10273729Y-14412960D01*
X10273729Y-14412960D02*
X10264205Y-14422484D01*
X10264205Y-14422484D02*
X10254682Y-14412960D01*
X10254682Y-14412960D02*
X10264205Y-14403436D01*
X10264205Y-14403436D02*
X10264205Y-14422484D01*
X10264205Y-14298674D02*
X10273729Y-14308198D01*
X10273729Y-14308198D02*
X10264205Y-14317722D01*
X10264205Y-14317722D02*
X10254682Y-14308198D01*
X10254682Y-14308198D02*
X10264205Y-14298674D01*
X10264205Y-14298674D02*
X10264205Y-14317722D01*
D11*
X8567000Y-14718500D02*
X8632000Y-14783500D01*
X8632000Y-14718500D02*
X8567000Y-14783500D01*
D10*
X8930872Y-14642484D02*
X8949920Y-14642484D01*
X8949920Y-14642484D02*
X8968967Y-14652008D01*
X8968967Y-14652008D02*
X8978491Y-14661531D01*
X8978491Y-14661531D02*
X8988015Y-14680579D01*
X8988015Y-14680579D02*
X8997539Y-14718674D01*
X8997539Y-14718674D02*
X8997539Y-14766293D01*
X8997539Y-14766293D02*
X8988015Y-14804388D01*
X8988015Y-14804388D02*
X8978491Y-14823436D01*
X8978491Y-14823436D02*
X8968967Y-14832960D01*
X8968967Y-14832960D02*
X8949920Y-14842484D01*
X8949920Y-14842484D02*
X8930872Y-14842484D01*
X8930872Y-14842484D02*
X8911824Y-14832960D01*
X8911824Y-14832960D02*
X8902301Y-14823436D01*
X8902301Y-14823436D02*
X8892777Y-14804388D01*
X8892777Y-14804388D02*
X8883253Y-14766293D01*
X8883253Y-14766293D02*
X8883253Y-14718674D01*
X8883253Y-14718674D02*
X8892777Y-14680579D01*
X8892777Y-14680579D02*
X8902301Y-14661531D01*
X8902301Y-14661531D02*
X8911824Y-14652008D01*
X8911824Y-14652008D02*
X8930872Y-14642484D01*
X9083253Y-14823436D02*
X9092777Y-14832960D01*
X9092777Y-14832960D02*
X9083253Y-14842484D01*
X9083253Y-14842484D02*
X9073729Y-14832960D01*
X9073729Y-14832960D02*
X9083253Y-14823436D01*
X9083253Y-14823436D02*
X9083253Y-14842484D01*
X9264205Y-14642484D02*
X9226110Y-14642484D01*
X9226110Y-14642484D02*
X9207063Y-14652008D01*
X9207063Y-14652008D02*
X9197539Y-14661531D01*
X9197539Y-14661531D02*
X9178491Y-14690103D01*
X9178491Y-14690103D02*
X9168967Y-14728198D01*
X9168967Y-14728198D02*
X9168967Y-14804388D01*
X9168967Y-14804388D02*
X9178491Y-14823436D01*
X9178491Y-14823436D02*
X9188015Y-14832960D01*
X9188015Y-14832960D02*
X9207063Y-14842484D01*
X9207063Y-14842484D02*
X9245158Y-14842484D01*
X9245158Y-14842484D02*
X9264205Y-14832960D01*
X9264205Y-14832960D02*
X9273729Y-14823436D01*
X9273729Y-14823436D02*
X9283253Y-14804388D01*
X9283253Y-14804388D02*
X9283253Y-14756769D01*
X9283253Y-14756769D02*
X9273729Y-14737722D01*
X9273729Y-14737722D02*
X9264205Y-14728198D01*
X9264205Y-14728198D02*
X9245158Y-14718674D01*
X9245158Y-14718674D02*
X9207063Y-14718674D01*
X9207063Y-14718674D02*
X9188015Y-14728198D01*
X9188015Y-14728198D02*
X9178491Y-14737722D01*
X9178491Y-14737722D02*
X9168967Y-14756769D01*
X9464205Y-14642484D02*
X9368967Y-14642484D01*
X9368967Y-14642484D02*
X9359444Y-14737722D01*
X9359444Y-14737722D02*
X9368967Y-14728198D01*
X9368967Y-14728198D02*
X9388015Y-14718674D01*
X9388015Y-14718674D02*
X9435634Y-14718674D01*
X9435634Y-14718674D02*
X9454682Y-14728198D01*
X9454682Y-14728198D02*
X9464205Y-14737722D01*
X9464205Y-14737722D02*
X9473729Y-14756769D01*
X9473729Y-14756769D02*
X9473729Y-14804388D01*
X9473729Y-14804388D02*
X9464205Y-14823436D01*
X9464205Y-14823436D02*
X9454682Y-14832960D01*
X9454682Y-14832960D02*
X9435634Y-14842484D01*
X9435634Y-14842484D02*
X9388015Y-14842484D01*
X9388015Y-14842484D02*
X9368967Y-14832960D01*
X9368967Y-14832960D02*
X9359444Y-14823436D01*
X9597539Y-14642484D02*
X9616586Y-14642484D01*
X9616586Y-14642484D02*
X9635634Y-14652008D01*
X9635634Y-14652008D02*
X9645158Y-14661531D01*
X9645158Y-14661531D02*
X9654682Y-14680579D01*
X9654682Y-14680579D02*
X9664205Y-14718674D01*
X9664205Y-14718674D02*
X9664205Y-14766293D01*
X9664205Y-14766293D02*
X9654682Y-14804388D01*
X9654682Y-14804388D02*
X9645158Y-14823436D01*
X9645158Y-14823436D02*
X9635634Y-14832960D01*
X9635634Y-14832960D02*
X9616586Y-14842484D01*
X9616586Y-14842484D02*
X9597539Y-14842484D01*
X9597539Y-14842484D02*
X9578491Y-14832960D01*
X9578491Y-14832960D02*
X9568967Y-14823436D01*
X9568967Y-14823436D02*
X9559444Y-14804388D01*
X9559444Y-14804388D02*
X9549920Y-14766293D01*
X9549920Y-14766293D02*
X9549920Y-14718674D01*
X9549920Y-14718674D02*
X9559444Y-14680579D01*
X9559444Y-14680579D02*
X9568967Y-14661531D01*
X9568967Y-14661531D02*
X9578491Y-14652008D01*
X9578491Y-14652008D02*
X9597539Y-14642484D01*
X9749920Y-14842484D02*
X9749920Y-14709150D01*
X9749920Y-14728198D02*
X9759444Y-14718674D01*
X9759444Y-14718674D02*
X9778491Y-14709150D01*
X9778491Y-14709150D02*
X9807063Y-14709150D01*
X9807063Y-14709150D02*
X9826110Y-14718674D01*
X9826110Y-14718674D02*
X9835634Y-14737722D01*
X9835634Y-14737722D02*
X9835634Y-14842484D01*
X9835634Y-14737722D02*
X9845158Y-14718674D01*
X9845158Y-14718674D02*
X9864205Y-14709150D01*
X9864205Y-14709150D02*
X9892777Y-14709150D01*
X9892777Y-14709150D02*
X9911825Y-14718674D01*
X9911825Y-14718674D02*
X9921348Y-14737722D01*
X9921348Y-14737722D02*
X9921348Y-14842484D01*
X10016586Y-14842484D02*
X10016586Y-14709150D01*
X10016586Y-14728198D02*
X10026110Y-14718674D01*
X10026110Y-14718674D02*
X10045158Y-14709150D01*
X10045158Y-14709150D02*
X10073729Y-14709150D01*
X10073729Y-14709150D02*
X10092777Y-14718674D01*
X10092777Y-14718674D02*
X10102301Y-14737722D01*
X10102301Y-14737722D02*
X10102301Y-14842484D01*
X10102301Y-14737722D02*
X10111825Y-14718674D01*
X10111825Y-14718674D02*
X10130872Y-14709150D01*
X10130872Y-14709150D02*
X10159444Y-14709150D01*
X10159444Y-14709150D02*
X10178491Y-14718674D01*
X10178491Y-14718674D02*
X10188015Y-14737722D01*
X10188015Y-14737722D02*
X10188015Y-14842484D01*
X10578491Y-14632960D02*
X10407063Y-14890103D01*
X10835634Y-14642484D02*
X10854682Y-14642484D01*
X10854682Y-14642484D02*
X10873729Y-14652008D01*
X10873729Y-14652008D02*
X10883253Y-14661531D01*
X10883253Y-14661531D02*
X10892777Y-14680579D01*
X10892777Y-14680579D02*
X10902301Y-14718674D01*
X10902301Y-14718674D02*
X10902301Y-14766293D01*
X10902301Y-14766293D02*
X10892777Y-14804388D01*
X10892777Y-14804388D02*
X10883253Y-14823436D01*
X10883253Y-14823436D02*
X10873729Y-14832960D01*
X10873729Y-14832960D02*
X10854682Y-14842484D01*
X10854682Y-14842484D02*
X10835634Y-14842484D01*
X10835634Y-14842484D02*
X10816587Y-14832960D01*
X10816587Y-14832960D02*
X10807063Y-14823436D01*
X10807063Y-14823436D02*
X10797539Y-14804388D01*
X10797539Y-14804388D02*
X10788015Y-14766293D01*
X10788015Y-14766293D02*
X10788015Y-14718674D01*
X10788015Y-14718674D02*
X10797539Y-14680579D01*
X10797539Y-14680579D02*
X10807063Y-14661531D01*
X10807063Y-14661531D02*
X10816587Y-14652008D01*
X10816587Y-14652008D02*
X10835634Y-14642484D01*
X10988015Y-14823436D02*
X10997539Y-14832960D01*
X10997539Y-14832960D02*
X10988015Y-14842484D01*
X10988015Y-14842484D02*
X10978491Y-14832960D01*
X10978491Y-14832960D02*
X10988015Y-14823436D01*
X10988015Y-14823436D02*
X10988015Y-14842484D01*
X11121348Y-14642484D02*
X11140396Y-14642484D01*
X11140396Y-14642484D02*
X11159444Y-14652008D01*
X11159444Y-14652008D02*
X11168968Y-14661531D01*
X11168968Y-14661531D02*
X11178491Y-14680579D01*
X11178491Y-14680579D02*
X11188015Y-14718674D01*
X11188015Y-14718674D02*
X11188015Y-14766293D01*
X11188015Y-14766293D02*
X11178491Y-14804388D01*
X11178491Y-14804388D02*
X11168968Y-14823436D01*
X11168968Y-14823436D02*
X11159444Y-14832960D01*
X11159444Y-14832960D02*
X11140396Y-14842484D01*
X11140396Y-14842484D02*
X11121348Y-14842484D01*
X11121348Y-14842484D02*
X11102301Y-14832960D01*
X11102301Y-14832960D02*
X11092777Y-14823436D01*
X11092777Y-14823436D02*
X11083253Y-14804388D01*
X11083253Y-14804388D02*
X11073729Y-14766293D01*
X11073729Y-14766293D02*
X11073729Y-14718674D01*
X11073729Y-14718674D02*
X11083253Y-14680579D01*
X11083253Y-14680579D02*
X11092777Y-14661531D01*
X11092777Y-14661531D02*
X11102301Y-14652008D01*
X11102301Y-14652008D02*
X11121348Y-14642484D01*
X11264206Y-14661531D02*
X11273729Y-14652008D01*
X11273729Y-14652008D02*
X11292777Y-14642484D01*
X11292777Y-14642484D02*
X11340396Y-14642484D01*
X11340396Y-14642484D02*
X11359444Y-14652008D01*
X11359444Y-14652008D02*
X11368967Y-14661531D01*
X11368967Y-14661531D02*
X11378491Y-14680579D01*
X11378491Y-14680579D02*
X11378491Y-14699627D01*
X11378491Y-14699627D02*
X11368967Y-14728198D01*
X11368967Y-14728198D02*
X11254682Y-14842484D01*
X11254682Y-14842484D02*
X11378491Y-14842484D01*
X11559444Y-14642484D02*
X11464206Y-14642484D01*
X11464206Y-14642484D02*
X11454682Y-14737722D01*
X11454682Y-14737722D02*
X11464206Y-14728198D01*
X11464206Y-14728198D02*
X11483253Y-14718674D01*
X11483253Y-14718674D02*
X11530872Y-14718674D01*
X11530872Y-14718674D02*
X11549920Y-14728198D01*
X11549920Y-14728198D02*
X11559444Y-14737722D01*
X11559444Y-14737722D02*
X11568967Y-14756769D01*
X11568967Y-14756769D02*
X11568967Y-14804388D01*
X11568967Y-14804388D02*
X11559444Y-14823436D01*
X11559444Y-14823436D02*
X11549920Y-14832960D01*
X11549920Y-14832960D02*
X11530872Y-14842484D01*
X11530872Y-14842484D02*
X11483253Y-14842484D01*
X11483253Y-14842484D02*
X11464206Y-14832960D01*
X11464206Y-14832960D02*
X11454682Y-14823436D01*
X11740396Y-14642484D02*
X11702301Y-14642484D01*
X11702301Y-14642484D02*
X11683253Y-14652008D01*
X11683253Y-14652008D02*
X11673729Y-14661531D01*
X11673729Y-14661531D02*
X11654682Y-14690103D01*
X11654682Y-14690103D02*
X11645158Y-14728198D01*
X11645158Y-14728198D02*
X11645158Y-14804388D01*
X11645158Y-14804388D02*
X11654682Y-14823436D01*
X11654682Y-14823436D02*
X11664206Y-14832960D01*
X11664206Y-14832960D02*
X11683253Y-14842484D01*
X11683253Y-14842484D02*
X11721348Y-14842484D01*
X11721348Y-14842484D02*
X11740396Y-14832960D01*
X11740396Y-14832960D02*
X11749920Y-14823436D01*
X11749920Y-14823436D02*
X11759444Y-14804388D01*
X11759444Y-14804388D02*
X11759444Y-14756769D01*
X11759444Y-14756769D02*
X11749920Y-14737722D01*
X11749920Y-14737722D02*
X11740396Y-14728198D01*
X11740396Y-14728198D02*
X11721348Y-14718674D01*
X11721348Y-14718674D02*
X11683253Y-14718674D01*
X11683253Y-14718674D02*
X11664206Y-14728198D01*
X11664206Y-14728198D02*
X11654682Y-14737722D01*
X11654682Y-14737722D02*
X11645158Y-14756769D01*
X11835634Y-14642484D02*
X11835634Y-14680579D01*
X11911825Y-14642484D02*
X11911825Y-14680579D01*
X12207063Y-14918674D02*
X12197539Y-14909150D01*
X12197539Y-14909150D02*
X12178491Y-14880579D01*
X12178491Y-14880579D02*
X12168968Y-14861531D01*
X12168968Y-14861531D02*
X12159444Y-14832960D01*
X12159444Y-14832960D02*
X12149920Y-14785341D01*
X12149920Y-14785341D02*
X12149920Y-14747246D01*
X12149920Y-14747246D02*
X12159444Y-14699627D01*
X12159444Y-14699627D02*
X12168968Y-14671055D01*
X12168968Y-14671055D02*
X12178491Y-14652008D01*
X12178491Y-14652008D02*
X12197539Y-14623436D01*
X12197539Y-14623436D02*
X12207063Y-14613912D01*
X12273729Y-14661531D02*
X12283253Y-14652008D01*
X12283253Y-14652008D02*
X12302301Y-14642484D01*
X12302301Y-14642484D02*
X12349920Y-14642484D01*
X12349920Y-14642484D02*
X12368968Y-14652008D01*
X12368968Y-14652008D02*
X12378491Y-14661531D01*
X12378491Y-14661531D02*
X12388015Y-14680579D01*
X12388015Y-14680579D02*
X12388015Y-14699627D01*
X12388015Y-14699627D02*
X12378491Y-14728198D01*
X12378491Y-14728198D02*
X12264206Y-14842484D01*
X12264206Y-14842484D02*
X12388015Y-14842484D01*
X12626110Y-14842484D02*
X12626110Y-14642484D01*
X12711825Y-14842484D02*
X12711825Y-14737722D01*
X12711825Y-14737722D02*
X12702301Y-14718674D01*
X12702301Y-14718674D02*
X12683253Y-14709150D01*
X12683253Y-14709150D02*
X12654682Y-14709150D01*
X12654682Y-14709150D02*
X12635634Y-14718674D01*
X12635634Y-14718674D02*
X12626110Y-14728198D01*
X12835634Y-14842484D02*
X12816587Y-14832960D01*
X12816587Y-14832960D02*
X12807063Y-14823436D01*
X12807063Y-14823436D02*
X12797539Y-14804388D01*
X12797539Y-14804388D02*
X12797539Y-14747246D01*
X12797539Y-14747246D02*
X12807063Y-14728198D01*
X12807063Y-14728198D02*
X12816587Y-14718674D01*
X12816587Y-14718674D02*
X12835634Y-14709150D01*
X12835634Y-14709150D02*
X12864206Y-14709150D01*
X12864206Y-14709150D02*
X12883253Y-14718674D01*
X12883253Y-14718674D02*
X12892777Y-14728198D01*
X12892777Y-14728198D02*
X12902301Y-14747246D01*
X12902301Y-14747246D02*
X12902301Y-14804388D01*
X12902301Y-14804388D02*
X12892777Y-14823436D01*
X12892777Y-14823436D02*
X12883253Y-14832960D01*
X12883253Y-14832960D02*
X12864206Y-14842484D01*
X12864206Y-14842484D02*
X12835634Y-14842484D01*
X13016587Y-14842484D02*
X12997539Y-14832960D01*
X12997539Y-14832960D02*
X12988015Y-14813912D01*
X12988015Y-14813912D02*
X12988015Y-14642484D01*
X13168968Y-14832960D02*
X13149920Y-14842484D01*
X13149920Y-14842484D02*
X13111825Y-14842484D01*
X13111825Y-14842484D02*
X13092777Y-14832960D01*
X13092777Y-14832960D02*
X13083253Y-14813912D01*
X13083253Y-14813912D02*
X13083253Y-14737722D01*
X13083253Y-14737722D02*
X13092777Y-14718674D01*
X13092777Y-14718674D02*
X13111825Y-14709150D01*
X13111825Y-14709150D02*
X13149920Y-14709150D01*
X13149920Y-14709150D02*
X13168968Y-14718674D01*
X13168968Y-14718674D02*
X13178491Y-14737722D01*
X13178491Y-14737722D02*
X13178491Y-14756769D01*
X13178491Y-14756769D02*
X13083253Y-14775817D01*
X13254682Y-14832960D02*
X13273730Y-14842484D01*
X13273730Y-14842484D02*
X13311825Y-14842484D01*
X13311825Y-14842484D02*
X13330872Y-14832960D01*
X13330872Y-14832960D02*
X13340396Y-14813912D01*
X13340396Y-14813912D02*
X13340396Y-14804388D01*
X13340396Y-14804388D02*
X13330872Y-14785341D01*
X13330872Y-14785341D02*
X13311825Y-14775817D01*
X13311825Y-14775817D02*
X13283253Y-14775817D01*
X13283253Y-14775817D02*
X13264206Y-14766293D01*
X13264206Y-14766293D02*
X13254682Y-14747246D01*
X13254682Y-14747246D02*
X13254682Y-14737722D01*
X13254682Y-14737722D02*
X13264206Y-14718674D01*
X13264206Y-14718674D02*
X13283253Y-14709150D01*
X13283253Y-14709150D02*
X13311825Y-14709150D01*
X13311825Y-14709150D02*
X13330872Y-14718674D01*
X13407063Y-14918674D02*
X13416587Y-14909150D01*
X13416587Y-14909150D02*
X13435634Y-14880579D01*
X13435634Y-14880579D02*
X13445158Y-14861531D01*
X13445158Y-14861531D02*
X13454682Y-14832960D01*
X13454682Y-14832960D02*
X13464206Y-14785341D01*
X13464206Y-14785341D02*
X13464206Y-14747246D01*
X13464206Y-14747246D02*
X13454682Y-14699627D01*
X13454682Y-14699627D02*
X13445158Y-14671055D01*
X13445158Y-14671055D02*
X13435634Y-14652008D01*
X13435634Y-14652008D02*
X13416587Y-14623436D01*
X13416587Y-14623436D02*
X13407063Y-14613912D01*
X13768968Y-14918674D02*
X13759444Y-14909150D01*
X13759444Y-14909150D02*
X13740396Y-14880579D01*
X13740396Y-14880579D02*
X13730872Y-14861531D01*
X13730872Y-14861531D02*
X13721349Y-14832960D01*
X13721349Y-14832960D02*
X13711825Y-14785341D01*
X13711825Y-14785341D02*
X13711825Y-14747246D01*
X13711825Y-14747246D02*
X13721349Y-14699627D01*
X13721349Y-14699627D02*
X13730872Y-14671055D01*
X13730872Y-14671055D02*
X13740396Y-14652008D01*
X13740396Y-14652008D02*
X13759444Y-14623436D01*
X13759444Y-14623436D02*
X13768968Y-14613912D01*
X13845158Y-14709150D02*
X13845158Y-14842484D01*
X13845158Y-14728198D02*
X13854682Y-14718674D01*
X13854682Y-14718674D02*
X13873730Y-14709150D01*
X13873730Y-14709150D02*
X13902301Y-14709150D01*
X13902301Y-14709150D02*
X13921349Y-14718674D01*
X13921349Y-14718674D02*
X13930872Y-14737722D01*
X13930872Y-14737722D02*
X13930872Y-14842484D01*
X14054682Y-14842484D02*
X14035634Y-14832960D01*
X14035634Y-14832960D02*
X14026111Y-14823436D01*
X14026111Y-14823436D02*
X14016587Y-14804388D01*
X14016587Y-14804388D02*
X14016587Y-14747246D01*
X14016587Y-14747246D02*
X14026111Y-14728198D01*
X14026111Y-14728198D02*
X14035634Y-14718674D01*
X14035634Y-14718674D02*
X14054682Y-14709150D01*
X14054682Y-14709150D02*
X14083253Y-14709150D01*
X14083253Y-14709150D02*
X14102301Y-14718674D01*
X14102301Y-14718674D02*
X14111825Y-14728198D01*
X14111825Y-14728198D02*
X14121349Y-14747246D01*
X14121349Y-14747246D02*
X14121349Y-14804388D01*
X14121349Y-14804388D02*
X14111825Y-14823436D01*
X14111825Y-14823436D02*
X14102301Y-14832960D01*
X14102301Y-14832960D02*
X14083253Y-14842484D01*
X14083253Y-14842484D02*
X14054682Y-14842484D01*
X14178492Y-14709150D02*
X14254682Y-14709150D01*
X14207063Y-14642484D02*
X14207063Y-14813912D01*
X14207063Y-14813912D02*
X14216587Y-14832960D01*
X14216587Y-14832960D02*
X14235634Y-14842484D01*
X14235634Y-14842484D02*
X14254682Y-14842484D01*
X14473730Y-14709150D02*
X14473730Y-14909150D01*
X14473730Y-14718674D02*
X14492777Y-14709150D01*
X14492777Y-14709150D02*
X14530873Y-14709150D01*
X14530873Y-14709150D02*
X14549920Y-14718674D01*
X14549920Y-14718674D02*
X14559444Y-14728198D01*
X14559444Y-14728198D02*
X14568968Y-14747246D01*
X14568968Y-14747246D02*
X14568968Y-14804388D01*
X14568968Y-14804388D02*
X14559444Y-14823436D01*
X14559444Y-14823436D02*
X14549920Y-14832960D01*
X14549920Y-14832960D02*
X14530873Y-14842484D01*
X14530873Y-14842484D02*
X14492777Y-14842484D01*
X14492777Y-14842484D02*
X14473730Y-14832960D01*
X14683253Y-14842484D02*
X14664206Y-14832960D01*
X14664206Y-14832960D02*
X14654682Y-14813912D01*
X14654682Y-14813912D02*
X14654682Y-14642484D01*
X14845158Y-14842484D02*
X14845158Y-14737722D01*
X14845158Y-14737722D02*
X14835634Y-14718674D01*
X14835634Y-14718674D02*
X14816587Y-14709150D01*
X14816587Y-14709150D02*
X14778492Y-14709150D01*
X14778492Y-14709150D02*
X14759444Y-14718674D01*
X14845158Y-14832960D02*
X14826111Y-14842484D01*
X14826111Y-14842484D02*
X14778492Y-14842484D01*
X14778492Y-14842484D02*
X14759444Y-14832960D01*
X14759444Y-14832960D02*
X14749920Y-14813912D01*
X14749920Y-14813912D02*
X14749920Y-14794865D01*
X14749920Y-14794865D02*
X14759444Y-14775817D01*
X14759444Y-14775817D02*
X14778492Y-14766293D01*
X14778492Y-14766293D02*
X14826111Y-14766293D01*
X14826111Y-14766293D02*
X14845158Y-14756769D01*
X14911825Y-14709150D02*
X14988015Y-14709150D01*
X14940396Y-14642484D02*
X14940396Y-14813912D01*
X14940396Y-14813912D02*
X14949920Y-14832960D01*
X14949920Y-14832960D02*
X14968968Y-14842484D01*
X14968968Y-14842484D02*
X14988015Y-14842484D01*
X15130873Y-14832960D02*
X15111825Y-14842484D01*
X15111825Y-14842484D02*
X15073730Y-14842484D01*
X15073730Y-14842484D02*
X15054682Y-14832960D01*
X15054682Y-14832960D02*
X15045158Y-14813912D01*
X15045158Y-14813912D02*
X15045158Y-14737722D01*
X15045158Y-14737722D02*
X15054682Y-14718674D01*
X15054682Y-14718674D02*
X15073730Y-14709150D01*
X15073730Y-14709150D02*
X15111825Y-14709150D01*
X15111825Y-14709150D02*
X15130873Y-14718674D01*
X15130873Y-14718674D02*
X15140396Y-14737722D01*
X15140396Y-14737722D02*
X15140396Y-14756769D01*
X15140396Y-14756769D02*
X15045158Y-14775817D01*
X15311825Y-14842484D02*
X15311825Y-14642484D01*
X15311825Y-14832960D02*
X15292777Y-14842484D01*
X15292777Y-14842484D02*
X15254682Y-14842484D01*
X15254682Y-14842484D02*
X15235634Y-14832960D01*
X15235634Y-14832960D02*
X15226111Y-14823436D01*
X15226111Y-14823436D02*
X15216587Y-14804388D01*
X15216587Y-14804388D02*
X15216587Y-14747246D01*
X15216587Y-14747246D02*
X15226111Y-14728198D01*
X15226111Y-14728198D02*
X15235634Y-14718674D01*
X15235634Y-14718674D02*
X15254682Y-14709150D01*
X15254682Y-14709150D02*
X15292777Y-14709150D01*
X15292777Y-14709150D02*
X15311825Y-14718674D01*
X15388015Y-14918674D02*
X15397539Y-14909150D01*
X15397539Y-14909150D02*
X15416587Y-14880579D01*
X15416587Y-14880579D02*
X15426111Y-14861531D01*
X15426111Y-14861531D02*
X15435634Y-14832960D01*
X15435634Y-14832960D02*
X15445158Y-14785341D01*
X15445158Y-14785341D02*
X15445158Y-14747246D01*
X15445158Y-14747246D02*
X15435634Y-14699627D01*
X15435634Y-14699627D02*
X15426111Y-14671055D01*
X15426111Y-14671055D02*
X15416587Y-14652008D01*
X15416587Y-14652008D02*
X15397539Y-14623436D01*
X15397539Y-14623436D02*
X15388015Y-14613912D01*
D11*
X8632000Y-15015000D02*
G75*
G03*
X8542000Y-15015000I-45000J0D01*
G01*
X8542000Y-15015000D02*
G75*
G03*
X8632000Y-15015000I45000J0D01*
G01*
D10*
X8930872Y-14906484D02*
X8949920Y-14906484D01*
X8949920Y-14906484D02*
X8968967Y-14916008D01*
X8968967Y-14916008D02*
X8978491Y-14925531D01*
X8978491Y-14925531D02*
X8988015Y-14944579D01*
X8988015Y-14944579D02*
X8997539Y-14982674D01*
X8997539Y-14982674D02*
X8997539Y-15030293D01*
X8997539Y-15030293D02*
X8988015Y-15068388D01*
X8988015Y-15068388D02*
X8978491Y-15087436D01*
X8978491Y-15087436D02*
X8968967Y-15096960D01*
X8968967Y-15096960D02*
X8949920Y-15106484D01*
X8949920Y-15106484D02*
X8930872Y-15106484D01*
X8930872Y-15106484D02*
X8911824Y-15096960D01*
X8911824Y-15096960D02*
X8902301Y-15087436D01*
X8902301Y-15087436D02*
X8892777Y-15068388D01*
X8892777Y-15068388D02*
X8883253Y-15030293D01*
X8883253Y-15030293D02*
X8883253Y-14982674D01*
X8883253Y-14982674D02*
X8892777Y-14944579D01*
X8892777Y-14944579D02*
X8902301Y-14925531D01*
X8902301Y-14925531D02*
X8911824Y-14916008D01*
X8911824Y-14916008D02*
X8930872Y-14906484D01*
X9083253Y-15087436D02*
X9092777Y-15096960D01*
X9092777Y-15096960D02*
X9083253Y-15106484D01*
X9083253Y-15106484D02*
X9073729Y-15096960D01*
X9073729Y-15096960D02*
X9083253Y-15087436D01*
X9083253Y-15087436D02*
X9083253Y-15106484D01*
X9188015Y-15106484D02*
X9226110Y-15106484D01*
X9226110Y-15106484D02*
X9245158Y-15096960D01*
X9245158Y-15096960D02*
X9254682Y-15087436D01*
X9254682Y-15087436D02*
X9273729Y-15058865D01*
X9273729Y-15058865D02*
X9283253Y-15020769D01*
X9283253Y-15020769D02*
X9283253Y-14944579D01*
X9283253Y-14944579D02*
X9273729Y-14925531D01*
X9273729Y-14925531D02*
X9264205Y-14916008D01*
X9264205Y-14916008D02*
X9245158Y-14906484D01*
X9245158Y-14906484D02*
X9207063Y-14906484D01*
X9207063Y-14906484D02*
X9188015Y-14916008D01*
X9188015Y-14916008D02*
X9178491Y-14925531D01*
X9178491Y-14925531D02*
X9168967Y-14944579D01*
X9168967Y-14944579D02*
X9168967Y-14992198D01*
X9168967Y-14992198D02*
X9178491Y-15011246D01*
X9178491Y-15011246D02*
X9188015Y-15020769D01*
X9188015Y-15020769D02*
X9207063Y-15030293D01*
X9207063Y-15030293D02*
X9245158Y-15030293D01*
X9245158Y-15030293D02*
X9264205Y-15020769D01*
X9264205Y-15020769D02*
X9273729Y-15011246D01*
X9273729Y-15011246D02*
X9283253Y-14992198D01*
X9407063Y-14906484D02*
X9426110Y-14906484D01*
X9426110Y-14906484D02*
X9445158Y-14916008D01*
X9445158Y-14916008D02*
X9454682Y-14925531D01*
X9454682Y-14925531D02*
X9464205Y-14944579D01*
X9464205Y-14944579D02*
X9473729Y-14982674D01*
X9473729Y-14982674D02*
X9473729Y-15030293D01*
X9473729Y-15030293D02*
X9464205Y-15068388D01*
X9464205Y-15068388D02*
X9454682Y-15087436D01*
X9454682Y-15087436D02*
X9445158Y-15096960D01*
X9445158Y-15096960D02*
X9426110Y-15106484D01*
X9426110Y-15106484D02*
X9407063Y-15106484D01*
X9407063Y-15106484D02*
X9388015Y-15096960D01*
X9388015Y-15096960D02*
X9378491Y-15087436D01*
X9378491Y-15087436D02*
X9368967Y-15068388D01*
X9368967Y-15068388D02*
X9359444Y-15030293D01*
X9359444Y-15030293D02*
X9359444Y-14982674D01*
X9359444Y-14982674D02*
X9368967Y-14944579D01*
X9368967Y-14944579D02*
X9378491Y-14925531D01*
X9378491Y-14925531D02*
X9388015Y-14916008D01*
X9388015Y-14916008D02*
X9407063Y-14906484D01*
X9597539Y-14906484D02*
X9616586Y-14906484D01*
X9616586Y-14906484D02*
X9635634Y-14916008D01*
X9635634Y-14916008D02*
X9645158Y-14925531D01*
X9645158Y-14925531D02*
X9654682Y-14944579D01*
X9654682Y-14944579D02*
X9664205Y-14982674D01*
X9664205Y-14982674D02*
X9664205Y-15030293D01*
X9664205Y-15030293D02*
X9654682Y-15068388D01*
X9654682Y-15068388D02*
X9645158Y-15087436D01*
X9645158Y-15087436D02*
X9635634Y-15096960D01*
X9635634Y-15096960D02*
X9616586Y-15106484D01*
X9616586Y-15106484D02*
X9597539Y-15106484D01*
X9597539Y-15106484D02*
X9578491Y-15096960D01*
X9578491Y-15096960D02*
X9568967Y-15087436D01*
X9568967Y-15087436D02*
X9559444Y-15068388D01*
X9559444Y-15068388D02*
X9549920Y-15030293D01*
X9549920Y-15030293D02*
X9549920Y-14982674D01*
X9549920Y-14982674D02*
X9559444Y-14944579D01*
X9559444Y-14944579D02*
X9568967Y-14925531D01*
X9568967Y-14925531D02*
X9578491Y-14916008D01*
X9578491Y-14916008D02*
X9597539Y-14906484D01*
X9749920Y-15106484D02*
X9749920Y-14973150D01*
X9749920Y-14992198D02*
X9759444Y-14982674D01*
X9759444Y-14982674D02*
X9778491Y-14973150D01*
X9778491Y-14973150D02*
X9807063Y-14973150D01*
X9807063Y-14973150D02*
X9826110Y-14982674D01*
X9826110Y-14982674D02*
X9835634Y-15001722D01*
X9835634Y-15001722D02*
X9835634Y-15106484D01*
X9835634Y-15001722D02*
X9845158Y-14982674D01*
X9845158Y-14982674D02*
X9864205Y-14973150D01*
X9864205Y-14973150D02*
X9892777Y-14973150D01*
X9892777Y-14973150D02*
X9911825Y-14982674D01*
X9911825Y-14982674D02*
X9921348Y-15001722D01*
X9921348Y-15001722D02*
X9921348Y-15106484D01*
X10016586Y-15106484D02*
X10016586Y-14973150D01*
X10016586Y-14992198D02*
X10026110Y-14982674D01*
X10026110Y-14982674D02*
X10045158Y-14973150D01*
X10045158Y-14973150D02*
X10073729Y-14973150D01*
X10073729Y-14973150D02*
X10092777Y-14982674D01*
X10092777Y-14982674D02*
X10102301Y-15001722D01*
X10102301Y-15001722D02*
X10102301Y-15106484D01*
X10102301Y-15001722D02*
X10111825Y-14982674D01*
X10111825Y-14982674D02*
X10130872Y-14973150D01*
X10130872Y-14973150D02*
X10159444Y-14973150D01*
X10159444Y-14973150D02*
X10178491Y-14982674D01*
X10178491Y-14982674D02*
X10188015Y-15001722D01*
X10188015Y-15001722D02*
X10188015Y-15106484D01*
X10578491Y-14896960D02*
X10407063Y-15154103D01*
X10835634Y-14906484D02*
X10854682Y-14906484D01*
X10854682Y-14906484D02*
X10873729Y-14916008D01*
X10873729Y-14916008D02*
X10883253Y-14925531D01*
X10883253Y-14925531D02*
X10892777Y-14944579D01*
X10892777Y-14944579D02*
X10902301Y-14982674D01*
X10902301Y-14982674D02*
X10902301Y-15030293D01*
X10902301Y-15030293D02*
X10892777Y-15068388D01*
X10892777Y-15068388D02*
X10883253Y-15087436D01*
X10883253Y-15087436D02*
X10873729Y-15096960D01*
X10873729Y-15096960D02*
X10854682Y-15106484D01*
X10854682Y-15106484D02*
X10835634Y-15106484D01*
X10835634Y-15106484D02*
X10816587Y-15096960D01*
X10816587Y-15096960D02*
X10807063Y-15087436D01*
X10807063Y-15087436D02*
X10797539Y-15068388D01*
X10797539Y-15068388D02*
X10788015Y-15030293D01*
X10788015Y-15030293D02*
X10788015Y-14982674D01*
X10788015Y-14982674D02*
X10797539Y-14944579D01*
X10797539Y-14944579D02*
X10807063Y-14925531D01*
X10807063Y-14925531D02*
X10816587Y-14916008D01*
X10816587Y-14916008D02*
X10835634Y-14906484D01*
X10988015Y-15087436D02*
X10997539Y-15096960D01*
X10997539Y-15096960D02*
X10988015Y-15106484D01*
X10988015Y-15106484D02*
X10978491Y-15096960D01*
X10978491Y-15096960D02*
X10988015Y-15087436D01*
X10988015Y-15087436D02*
X10988015Y-15106484D01*
X11121348Y-14906484D02*
X11140396Y-14906484D01*
X11140396Y-14906484D02*
X11159444Y-14916008D01*
X11159444Y-14916008D02*
X11168968Y-14925531D01*
X11168968Y-14925531D02*
X11178491Y-14944579D01*
X11178491Y-14944579D02*
X11188015Y-14982674D01*
X11188015Y-14982674D02*
X11188015Y-15030293D01*
X11188015Y-15030293D02*
X11178491Y-15068388D01*
X11178491Y-15068388D02*
X11168968Y-15087436D01*
X11168968Y-15087436D02*
X11159444Y-15096960D01*
X11159444Y-15096960D02*
X11140396Y-15106484D01*
X11140396Y-15106484D02*
X11121348Y-15106484D01*
X11121348Y-15106484D02*
X11102301Y-15096960D01*
X11102301Y-15096960D02*
X11092777Y-15087436D01*
X11092777Y-15087436D02*
X11083253Y-15068388D01*
X11083253Y-15068388D02*
X11073729Y-15030293D01*
X11073729Y-15030293D02*
X11073729Y-14982674D01*
X11073729Y-14982674D02*
X11083253Y-14944579D01*
X11083253Y-14944579D02*
X11092777Y-14925531D01*
X11092777Y-14925531D02*
X11102301Y-14916008D01*
X11102301Y-14916008D02*
X11121348Y-14906484D01*
X11254682Y-14906484D02*
X11378491Y-14906484D01*
X11378491Y-14906484D02*
X11311825Y-14982674D01*
X11311825Y-14982674D02*
X11340396Y-14982674D01*
X11340396Y-14982674D02*
X11359444Y-14992198D01*
X11359444Y-14992198D02*
X11368967Y-15001722D01*
X11368967Y-15001722D02*
X11378491Y-15020769D01*
X11378491Y-15020769D02*
X11378491Y-15068388D01*
X11378491Y-15068388D02*
X11368967Y-15087436D01*
X11368967Y-15087436D02*
X11359444Y-15096960D01*
X11359444Y-15096960D02*
X11340396Y-15106484D01*
X11340396Y-15106484D02*
X11283253Y-15106484D01*
X11283253Y-15106484D02*
X11264206Y-15096960D01*
X11264206Y-15096960D02*
X11254682Y-15087436D01*
X11559444Y-14906484D02*
X11464206Y-14906484D01*
X11464206Y-14906484D02*
X11454682Y-15001722D01*
X11454682Y-15001722D02*
X11464206Y-14992198D01*
X11464206Y-14992198D02*
X11483253Y-14982674D01*
X11483253Y-14982674D02*
X11530872Y-14982674D01*
X11530872Y-14982674D02*
X11549920Y-14992198D01*
X11549920Y-14992198D02*
X11559444Y-15001722D01*
X11559444Y-15001722D02*
X11568967Y-15020769D01*
X11568967Y-15020769D02*
X11568967Y-15068388D01*
X11568967Y-15068388D02*
X11559444Y-15087436D01*
X11559444Y-15087436D02*
X11549920Y-15096960D01*
X11549920Y-15096960D02*
X11530872Y-15106484D01*
X11530872Y-15106484D02*
X11483253Y-15106484D01*
X11483253Y-15106484D02*
X11464206Y-15096960D01*
X11464206Y-15096960D02*
X11454682Y-15087436D01*
X11740396Y-14973150D02*
X11740396Y-15106484D01*
X11692777Y-14896960D02*
X11645158Y-15039817D01*
X11645158Y-15039817D02*
X11768967Y-15039817D01*
X11835634Y-14906484D02*
X11835634Y-14944579D01*
X11911825Y-14906484D02*
X11911825Y-14944579D01*
X12207063Y-15182674D02*
X12197539Y-15173150D01*
X12197539Y-15173150D02*
X12178491Y-15144579D01*
X12178491Y-15144579D02*
X12168968Y-15125531D01*
X12168968Y-15125531D02*
X12159444Y-15096960D01*
X12159444Y-15096960D02*
X12149920Y-15049341D01*
X12149920Y-15049341D02*
X12149920Y-15011246D01*
X12149920Y-15011246D02*
X12159444Y-14963627D01*
X12159444Y-14963627D02*
X12168968Y-14935055D01*
X12168968Y-14935055D02*
X12178491Y-14916008D01*
X12178491Y-14916008D02*
X12197539Y-14887436D01*
X12197539Y-14887436D02*
X12207063Y-14877912D01*
X12273729Y-14925531D02*
X12283253Y-14916008D01*
X12283253Y-14916008D02*
X12302301Y-14906484D01*
X12302301Y-14906484D02*
X12349920Y-14906484D01*
X12349920Y-14906484D02*
X12368968Y-14916008D01*
X12368968Y-14916008D02*
X12378491Y-14925531D01*
X12378491Y-14925531D02*
X12388015Y-14944579D01*
X12388015Y-14944579D02*
X12388015Y-14963627D01*
X12388015Y-14963627D02*
X12378491Y-14992198D01*
X12378491Y-14992198D02*
X12264206Y-15106484D01*
X12264206Y-15106484D02*
X12388015Y-15106484D01*
X12626110Y-15106484D02*
X12626110Y-14906484D01*
X12711825Y-15106484D02*
X12711825Y-15001722D01*
X12711825Y-15001722D02*
X12702301Y-14982674D01*
X12702301Y-14982674D02*
X12683253Y-14973150D01*
X12683253Y-14973150D02*
X12654682Y-14973150D01*
X12654682Y-14973150D02*
X12635634Y-14982674D01*
X12635634Y-14982674D02*
X12626110Y-14992198D01*
X12835634Y-15106484D02*
X12816587Y-15096960D01*
X12816587Y-15096960D02*
X12807063Y-15087436D01*
X12807063Y-15087436D02*
X12797539Y-15068388D01*
X12797539Y-15068388D02*
X12797539Y-15011246D01*
X12797539Y-15011246D02*
X12807063Y-14992198D01*
X12807063Y-14992198D02*
X12816587Y-14982674D01*
X12816587Y-14982674D02*
X12835634Y-14973150D01*
X12835634Y-14973150D02*
X12864206Y-14973150D01*
X12864206Y-14973150D02*
X12883253Y-14982674D01*
X12883253Y-14982674D02*
X12892777Y-14992198D01*
X12892777Y-14992198D02*
X12902301Y-15011246D01*
X12902301Y-15011246D02*
X12902301Y-15068388D01*
X12902301Y-15068388D02*
X12892777Y-15087436D01*
X12892777Y-15087436D02*
X12883253Y-15096960D01*
X12883253Y-15096960D02*
X12864206Y-15106484D01*
X12864206Y-15106484D02*
X12835634Y-15106484D01*
X13016587Y-15106484D02*
X12997539Y-15096960D01*
X12997539Y-15096960D02*
X12988015Y-15077912D01*
X12988015Y-15077912D02*
X12988015Y-14906484D01*
X13168968Y-15096960D02*
X13149920Y-15106484D01*
X13149920Y-15106484D02*
X13111825Y-15106484D01*
X13111825Y-15106484D02*
X13092777Y-15096960D01*
X13092777Y-15096960D02*
X13083253Y-15077912D01*
X13083253Y-15077912D02*
X13083253Y-15001722D01*
X13083253Y-15001722D02*
X13092777Y-14982674D01*
X13092777Y-14982674D02*
X13111825Y-14973150D01*
X13111825Y-14973150D02*
X13149920Y-14973150D01*
X13149920Y-14973150D02*
X13168968Y-14982674D01*
X13168968Y-14982674D02*
X13178491Y-15001722D01*
X13178491Y-15001722D02*
X13178491Y-15020769D01*
X13178491Y-15020769D02*
X13083253Y-15039817D01*
X13254682Y-15096960D02*
X13273730Y-15106484D01*
X13273730Y-15106484D02*
X13311825Y-15106484D01*
X13311825Y-15106484D02*
X13330872Y-15096960D01*
X13330872Y-15096960D02*
X13340396Y-15077912D01*
X13340396Y-15077912D02*
X13340396Y-15068388D01*
X13340396Y-15068388D02*
X13330872Y-15049341D01*
X13330872Y-15049341D02*
X13311825Y-15039817D01*
X13311825Y-15039817D02*
X13283253Y-15039817D01*
X13283253Y-15039817D02*
X13264206Y-15030293D01*
X13264206Y-15030293D02*
X13254682Y-15011246D01*
X13254682Y-15011246D02*
X13254682Y-15001722D01*
X13254682Y-15001722D02*
X13264206Y-14982674D01*
X13264206Y-14982674D02*
X13283253Y-14973150D01*
X13283253Y-14973150D02*
X13311825Y-14973150D01*
X13311825Y-14973150D02*
X13330872Y-14982674D01*
X13407063Y-15182674D02*
X13416587Y-15173150D01*
X13416587Y-15173150D02*
X13435634Y-15144579D01*
X13435634Y-15144579D02*
X13445158Y-15125531D01*
X13445158Y-15125531D02*
X13454682Y-15096960D01*
X13454682Y-15096960D02*
X13464206Y-15049341D01*
X13464206Y-15049341D02*
X13464206Y-15011246D01*
X13464206Y-15011246D02*
X13454682Y-14963627D01*
X13454682Y-14963627D02*
X13445158Y-14935055D01*
X13445158Y-14935055D02*
X13435634Y-14916008D01*
X13435634Y-14916008D02*
X13416587Y-14887436D01*
X13416587Y-14887436D02*
X13407063Y-14877912D01*
X13768968Y-15182674D02*
X13759444Y-15173150D01*
X13759444Y-15173150D02*
X13740396Y-15144579D01*
X13740396Y-15144579D02*
X13730872Y-15125531D01*
X13730872Y-15125531D02*
X13721349Y-15096960D01*
X13721349Y-15096960D02*
X13711825Y-15049341D01*
X13711825Y-15049341D02*
X13711825Y-15011246D01*
X13711825Y-15011246D02*
X13721349Y-14963627D01*
X13721349Y-14963627D02*
X13730872Y-14935055D01*
X13730872Y-14935055D02*
X13740396Y-14916008D01*
X13740396Y-14916008D02*
X13759444Y-14887436D01*
X13759444Y-14887436D02*
X13768968Y-14877912D01*
X13845158Y-14973150D02*
X13845158Y-15106484D01*
X13845158Y-14992198D02*
X13854682Y-14982674D01*
X13854682Y-14982674D02*
X13873730Y-14973150D01*
X13873730Y-14973150D02*
X13902301Y-14973150D01*
X13902301Y-14973150D02*
X13921349Y-14982674D01*
X13921349Y-14982674D02*
X13930872Y-15001722D01*
X13930872Y-15001722D02*
X13930872Y-15106484D01*
X14054682Y-15106484D02*
X14035634Y-15096960D01*
X14035634Y-15096960D02*
X14026111Y-15087436D01*
X14026111Y-15087436D02*
X14016587Y-15068388D01*
X14016587Y-15068388D02*
X14016587Y-15011246D01*
X14016587Y-15011246D02*
X14026111Y-14992198D01*
X14026111Y-14992198D02*
X14035634Y-14982674D01*
X14035634Y-14982674D02*
X14054682Y-14973150D01*
X14054682Y-14973150D02*
X14083253Y-14973150D01*
X14083253Y-14973150D02*
X14102301Y-14982674D01*
X14102301Y-14982674D02*
X14111825Y-14992198D01*
X14111825Y-14992198D02*
X14121349Y-15011246D01*
X14121349Y-15011246D02*
X14121349Y-15068388D01*
X14121349Y-15068388D02*
X14111825Y-15087436D01*
X14111825Y-15087436D02*
X14102301Y-15096960D01*
X14102301Y-15096960D02*
X14083253Y-15106484D01*
X14083253Y-15106484D02*
X14054682Y-15106484D01*
X14178492Y-14973150D02*
X14254682Y-14973150D01*
X14207063Y-14906484D02*
X14207063Y-15077912D01*
X14207063Y-15077912D02*
X14216587Y-15096960D01*
X14216587Y-15096960D02*
X14235634Y-15106484D01*
X14235634Y-15106484D02*
X14254682Y-15106484D01*
X14473730Y-14973150D02*
X14473730Y-15173150D01*
X14473730Y-14982674D02*
X14492777Y-14973150D01*
X14492777Y-14973150D02*
X14530873Y-14973150D01*
X14530873Y-14973150D02*
X14549920Y-14982674D01*
X14549920Y-14982674D02*
X14559444Y-14992198D01*
X14559444Y-14992198D02*
X14568968Y-15011246D01*
X14568968Y-15011246D02*
X14568968Y-15068388D01*
X14568968Y-15068388D02*
X14559444Y-15087436D01*
X14559444Y-15087436D02*
X14549920Y-15096960D01*
X14549920Y-15096960D02*
X14530873Y-15106484D01*
X14530873Y-15106484D02*
X14492777Y-15106484D01*
X14492777Y-15106484D02*
X14473730Y-15096960D01*
X14683253Y-15106484D02*
X14664206Y-15096960D01*
X14664206Y-15096960D02*
X14654682Y-15077912D01*
X14654682Y-15077912D02*
X14654682Y-14906484D01*
X14845158Y-15106484D02*
X14845158Y-15001722D01*
X14845158Y-15001722D02*
X14835634Y-14982674D01*
X14835634Y-14982674D02*
X14816587Y-14973150D01*
X14816587Y-14973150D02*
X14778492Y-14973150D01*
X14778492Y-14973150D02*
X14759444Y-14982674D01*
X14845158Y-15096960D02*
X14826111Y-15106484D01*
X14826111Y-15106484D02*
X14778492Y-15106484D01*
X14778492Y-15106484D02*
X14759444Y-15096960D01*
X14759444Y-15096960D02*
X14749920Y-15077912D01*
X14749920Y-15077912D02*
X14749920Y-15058865D01*
X14749920Y-15058865D02*
X14759444Y-15039817D01*
X14759444Y-15039817D02*
X14778492Y-15030293D01*
X14778492Y-15030293D02*
X14826111Y-15030293D01*
X14826111Y-15030293D02*
X14845158Y-15020769D01*
X14911825Y-14973150D02*
X14988015Y-14973150D01*
X14940396Y-14906484D02*
X14940396Y-15077912D01*
X14940396Y-15077912D02*
X14949920Y-15096960D01*
X14949920Y-15096960D02*
X14968968Y-15106484D01*
X14968968Y-15106484D02*
X14988015Y-15106484D01*
X15130873Y-15096960D02*
X15111825Y-15106484D01*
X15111825Y-15106484D02*
X15073730Y-15106484D01*
X15073730Y-15106484D02*
X15054682Y-15096960D01*
X15054682Y-15096960D02*
X15045158Y-15077912D01*
X15045158Y-15077912D02*
X15045158Y-15001722D01*
X15045158Y-15001722D02*
X15054682Y-14982674D01*
X15054682Y-14982674D02*
X15073730Y-14973150D01*
X15073730Y-14973150D02*
X15111825Y-14973150D01*
X15111825Y-14973150D02*
X15130873Y-14982674D01*
X15130873Y-14982674D02*
X15140396Y-15001722D01*
X15140396Y-15001722D02*
X15140396Y-15020769D01*
X15140396Y-15020769D02*
X15045158Y-15039817D01*
X15311825Y-15106484D02*
X15311825Y-14906484D01*
X15311825Y-15096960D02*
X15292777Y-15106484D01*
X15292777Y-15106484D02*
X15254682Y-15106484D01*
X15254682Y-15106484D02*
X15235634Y-15096960D01*
X15235634Y-15096960D02*
X15226111Y-15087436D01*
X15226111Y-15087436D02*
X15216587Y-15068388D01*
X15216587Y-15068388D02*
X15216587Y-15011246D01*
X15216587Y-15011246D02*
X15226111Y-14992198D01*
X15226111Y-14992198D02*
X15235634Y-14982674D01*
X15235634Y-14982674D02*
X15254682Y-14973150D01*
X15254682Y-14973150D02*
X15292777Y-14973150D01*
X15292777Y-14973150D02*
X15311825Y-14982674D01*
X15388015Y-15182674D02*
X15397539Y-15173150D01*
X15397539Y-15173150D02*
X15416587Y-15144579D01*
X15416587Y-15144579D02*
X15426111Y-15125531D01*
X15426111Y-15125531D02*
X15435634Y-15096960D01*
X15435634Y-15096960D02*
X15445158Y-15049341D01*
X15445158Y-15049341D02*
X15445158Y-15011246D01*
X15445158Y-15011246D02*
X15435634Y-14963627D01*
X15435634Y-14963627D02*
X15426111Y-14935055D01*
X15426111Y-14935055D02*
X15416587Y-14916008D01*
X15416587Y-14916008D02*
X15397539Y-14887436D01*
X15397539Y-14887436D02*
X15388015Y-14877912D01*
X8532000Y-15179000D02*
X8532000Y-15379000D01*
X8432000Y-15279000D02*
X8632000Y-15279000D01*
X8978491Y-15237150D02*
X8978491Y-15370484D01*
X8930872Y-15160960D02*
X8883253Y-15303817D01*
X8883253Y-15303817D02*
X9007063Y-15303817D01*
X9083253Y-15351436D02*
X9092777Y-15360960D01*
X9092777Y-15360960D02*
X9083253Y-15370484D01*
X9083253Y-15370484D02*
X9073729Y-15360960D01*
X9073729Y-15360960D02*
X9083253Y-15351436D01*
X9083253Y-15351436D02*
X9083253Y-15370484D01*
X9168967Y-15189531D02*
X9178491Y-15180008D01*
X9178491Y-15180008D02*
X9197539Y-15170484D01*
X9197539Y-15170484D02*
X9245158Y-15170484D01*
X9245158Y-15170484D02*
X9264205Y-15180008D01*
X9264205Y-15180008D02*
X9273729Y-15189531D01*
X9273729Y-15189531D02*
X9283253Y-15208579D01*
X9283253Y-15208579D02*
X9283253Y-15227627D01*
X9283253Y-15227627D02*
X9273729Y-15256198D01*
X9273729Y-15256198D02*
X9159444Y-15370484D01*
X9159444Y-15370484D02*
X9283253Y-15370484D01*
X9359444Y-15189531D02*
X9368967Y-15180008D01*
X9368967Y-15180008D02*
X9388015Y-15170484D01*
X9388015Y-15170484D02*
X9435634Y-15170484D01*
X9435634Y-15170484D02*
X9454682Y-15180008D01*
X9454682Y-15180008D02*
X9464205Y-15189531D01*
X9464205Y-15189531D02*
X9473729Y-15208579D01*
X9473729Y-15208579D02*
X9473729Y-15227627D01*
X9473729Y-15227627D02*
X9464205Y-15256198D01*
X9464205Y-15256198D02*
X9349920Y-15370484D01*
X9349920Y-15370484D02*
X9473729Y-15370484D01*
X9597539Y-15170484D02*
X9616586Y-15170484D01*
X9616586Y-15170484D02*
X9635634Y-15180008D01*
X9635634Y-15180008D02*
X9645158Y-15189531D01*
X9645158Y-15189531D02*
X9654682Y-15208579D01*
X9654682Y-15208579D02*
X9664205Y-15246674D01*
X9664205Y-15246674D02*
X9664205Y-15294293D01*
X9664205Y-15294293D02*
X9654682Y-15332388D01*
X9654682Y-15332388D02*
X9645158Y-15351436D01*
X9645158Y-15351436D02*
X9635634Y-15360960D01*
X9635634Y-15360960D02*
X9616586Y-15370484D01*
X9616586Y-15370484D02*
X9597539Y-15370484D01*
X9597539Y-15370484D02*
X9578491Y-15360960D01*
X9578491Y-15360960D02*
X9568967Y-15351436D01*
X9568967Y-15351436D02*
X9559444Y-15332388D01*
X9559444Y-15332388D02*
X9549920Y-15294293D01*
X9549920Y-15294293D02*
X9549920Y-15246674D01*
X9549920Y-15246674D02*
X9559444Y-15208579D01*
X9559444Y-15208579D02*
X9568967Y-15189531D01*
X9568967Y-15189531D02*
X9578491Y-15180008D01*
X9578491Y-15180008D02*
X9597539Y-15170484D01*
X9749920Y-15370484D02*
X9749920Y-15237150D01*
X9749920Y-15256198D02*
X9759444Y-15246674D01*
X9759444Y-15246674D02*
X9778491Y-15237150D01*
X9778491Y-15237150D02*
X9807063Y-15237150D01*
X9807063Y-15237150D02*
X9826110Y-15246674D01*
X9826110Y-15246674D02*
X9835634Y-15265722D01*
X9835634Y-15265722D02*
X9835634Y-15370484D01*
X9835634Y-15265722D02*
X9845158Y-15246674D01*
X9845158Y-15246674D02*
X9864205Y-15237150D01*
X9864205Y-15237150D02*
X9892777Y-15237150D01*
X9892777Y-15237150D02*
X9911825Y-15246674D01*
X9911825Y-15246674D02*
X9921348Y-15265722D01*
X9921348Y-15265722D02*
X9921348Y-15370484D01*
X10016586Y-15370484D02*
X10016586Y-15237150D01*
X10016586Y-15256198D02*
X10026110Y-15246674D01*
X10026110Y-15246674D02*
X10045158Y-15237150D01*
X10045158Y-15237150D02*
X10073729Y-15237150D01*
X10073729Y-15237150D02*
X10092777Y-15246674D01*
X10092777Y-15246674D02*
X10102301Y-15265722D01*
X10102301Y-15265722D02*
X10102301Y-15370484D01*
X10102301Y-15265722D02*
X10111825Y-15246674D01*
X10111825Y-15246674D02*
X10130872Y-15237150D01*
X10130872Y-15237150D02*
X10159444Y-15237150D01*
X10159444Y-15237150D02*
X10178491Y-15246674D01*
X10178491Y-15246674D02*
X10188015Y-15265722D01*
X10188015Y-15265722D02*
X10188015Y-15370484D01*
X10578491Y-15160960D02*
X10407063Y-15418103D01*
X10835634Y-15170484D02*
X10854682Y-15170484D01*
X10854682Y-15170484D02*
X10873729Y-15180008D01*
X10873729Y-15180008D02*
X10883253Y-15189531D01*
X10883253Y-15189531D02*
X10892777Y-15208579D01*
X10892777Y-15208579D02*
X10902301Y-15246674D01*
X10902301Y-15246674D02*
X10902301Y-15294293D01*
X10902301Y-15294293D02*
X10892777Y-15332388D01*
X10892777Y-15332388D02*
X10883253Y-15351436D01*
X10883253Y-15351436D02*
X10873729Y-15360960D01*
X10873729Y-15360960D02*
X10854682Y-15370484D01*
X10854682Y-15370484D02*
X10835634Y-15370484D01*
X10835634Y-15370484D02*
X10816587Y-15360960D01*
X10816587Y-15360960D02*
X10807063Y-15351436D01*
X10807063Y-15351436D02*
X10797539Y-15332388D01*
X10797539Y-15332388D02*
X10788015Y-15294293D01*
X10788015Y-15294293D02*
X10788015Y-15246674D01*
X10788015Y-15246674D02*
X10797539Y-15208579D01*
X10797539Y-15208579D02*
X10807063Y-15189531D01*
X10807063Y-15189531D02*
X10816587Y-15180008D01*
X10816587Y-15180008D02*
X10835634Y-15170484D01*
X10988015Y-15351436D02*
X10997539Y-15360960D01*
X10997539Y-15360960D02*
X10988015Y-15370484D01*
X10988015Y-15370484D02*
X10978491Y-15360960D01*
X10978491Y-15360960D02*
X10988015Y-15351436D01*
X10988015Y-15351436D02*
X10988015Y-15370484D01*
X11188015Y-15370484D02*
X11073729Y-15370484D01*
X11130872Y-15370484D02*
X11130872Y-15170484D01*
X11130872Y-15170484D02*
X11111825Y-15199055D01*
X11111825Y-15199055D02*
X11092777Y-15218103D01*
X11092777Y-15218103D02*
X11073729Y-15227627D01*
X11359444Y-15170484D02*
X11321348Y-15170484D01*
X11321348Y-15170484D02*
X11302301Y-15180008D01*
X11302301Y-15180008D02*
X11292777Y-15189531D01*
X11292777Y-15189531D02*
X11273729Y-15218103D01*
X11273729Y-15218103D02*
X11264206Y-15256198D01*
X11264206Y-15256198D02*
X11264206Y-15332388D01*
X11264206Y-15332388D02*
X11273729Y-15351436D01*
X11273729Y-15351436D02*
X11283253Y-15360960D01*
X11283253Y-15360960D02*
X11302301Y-15370484D01*
X11302301Y-15370484D02*
X11340396Y-15370484D01*
X11340396Y-15370484D02*
X11359444Y-15360960D01*
X11359444Y-15360960D02*
X11368967Y-15351436D01*
X11368967Y-15351436D02*
X11378491Y-15332388D01*
X11378491Y-15332388D02*
X11378491Y-15284769D01*
X11378491Y-15284769D02*
X11368967Y-15265722D01*
X11368967Y-15265722D02*
X11359444Y-15256198D01*
X11359444Y-15256198D02*
X11340396Y-15246674D01*
X11340396Y-15246674D02*
X11302301Y-15246674D01*
X11302301Y-15246674D02*
X11283253Y-15256198D01*
X11283253Y-15256198D02*
X11273729Y-15265722D01*
X11273729Y-15265722D02*
X11264206Y-15284769D01*
X11549920Y-15170484D02*
X11511825Y-15170484D01*
X11511825Y-15170484D02*
X11492777Y-15180008D01*
X11492777Y-15180008D02*
X11483253Y-15189531D01*
X11483253Y-15189531D02*
X11464206Y-15218103D01*
X11464206Y-15218103D02*
X11454682Y-15256198D01*
X11454682Y-15256198D02*
X11454682Y-15332388D01*
X11454682Y-15332388D02*
X11464206Y-15351436D01*
X11464206Y-15351436D02*
X11473729Y-15360960D01*
X11473729Y-15360960D02*
X11492777Y-15370484D01*
X11492777Y-15370484D02*
X11530872Y-15370484D01*
X11530872Y-15370484D02*
X11549920Y-15360960D01*
X11549920Y-15360960D02*
X11559444Y-15351436D01*
X11559444Y-15351436D02*
X11568967Y-15332388D01*
X11568967Y-15332388D02*
X11568967Y-15284769D01*
X11568967Y-15284769D02*
X11559444Y-15265722D01*
X11559444Y-15265722D02*
X11549920Y-15256198D01*
X11549920Y-15256198D02*
X11530872Y-15246674D01*
X11530872Y-15246674D02*
X11492777Y-15246674D01*
X11492777Y-15246674D02*
X11473729Y-15256198D01*
X11473729Y-15256198D02*
X11464206Y-15265722D01*
X11464206Y-15265722D02*
X11454682Y-15284769D01*
X11759444Y-15370484D02*
X11645158Y-15370484D01*
X11702301Y-15370484D02*
X11702301Y-15170484D01*
X11702301Y-15170484D02*
X11683253Y-15199055D01*
X11683253Y-15199055D02*
X11664206Y-15218103D01*
X11664206Y-15218103D02*
X11645158Y-15227627D01*
X11835634Y-15170484D02*
X11835634Y-15208579D01*
X11911825Y-15170484D02*
X11911825Y-15208579D01*
X12207063Y-15446674D02*
X12197539Y-15437150D01*
X12197539Y-15437150D02*
X12178491Y-15408579D01*
X12178491Y-15408579D02*
X12168968Y-15389531D01*
X12168968Y-15389531D02*
X12159444Y-15360960D01*
X12159444Y-15360960D02*
X12149920Y-15313341D01*
X12149920Y-15313341D02*
X12149920Y-15275246D01*
X12149920Y-15275246D02*
X12159444Y-15227627D01*
X12159444Y-15227627D02*
X12168968Y-15199055D01*
X12168968Y-15199055D02*
X12178491Y-15180008D01*
X12178491Y-15180008D02*
X12197539Y-15151436D01*
X12197539Y-15151436D02*
X12207063Y-15141912D01*
X12264206Y-15170484D02*
X12388015Y-15170484D01*
X12388015Y-15170484D02*
X12321348Y-15246674D01*
X12321348Y-15246674D02*
X12349920Y-15246674D01*
X12349920Y-15246674D02*
X12368968Y-15256198D01*
X12368968Y-15256198D02*
X12378491Y-15265722D01*
X12378491Y-15265722D02*
X12388015Y-15284769D01*
X12388015Y-15284769D02*
X12388015Y-15332388D01*
X12388015Y-15332388D02*
X12378491Y-15351436D01*
X12378491Y-15351436D02*
X12368968Y-15360960D01*
X12368968Y-15360960D02*
X12349920Y-15370484D01*
X12349920Y-15370484D02*
X12292777Y-15370484D01*
X12292777Y-15370484D02*
X12273729Y-15360960D01*
X12273729Y-15360960D02*
X12264206Y-15351436D01*
X12626110Y-15370484D02*
X12626110Y-15170484D01*
X12711825Y-15370484D02*
X12711825Y-15265722D01*
X12711825Y-15265722D02*
X12702301Y-15246674D01*
X12702301Y-15246674D02*
X12683253Y-15237150D01*
X12683253Y-15237150D02*
X12654682Y-15237150D01*
X12654682Y-15237150D02*
X12635634Y-15246674D01*
X12635634Y-15246674D02*
X12626110Y-15256198D01*
X12835634Y-15370484D02*
X12816587Y-15360960D01*
X12816587Y-15360960D02*
X12807063Y-15351436D01*
X12807063Y-15351436D02*
X12797539Y-15332388D01*
X12797539Y-15332388D02*
X12797539Y-15275246D01*
X12797539Y-15275246D02*
X12807063Y-15256198D01*
X12807063Y-15256198D02*
X12816587Y-15246674D01*
X12816587Y-15246674D02*
X12835634Y-15237150D01*
X12835634Y-15237150D02*
X12864206Y-15237150D01*
X12864206Y-15237150D02*
X12883253Y-15246674D01*
X12883253Y-15246674D02*
X12892777Y-15256198D01*
X12892777Y-15256198D02*
X12902301Y-15275246D01*
X12902301Y-15275246D02*
X12902301Y-15332388D01*
X12902301Y-15332388D02*
X12892777Y-15351436D01*
X12892777Y-15351436D02*
X12883253Y-15360960D01*
X12883253Y-15360960D02*
X12864206Y-15370484D01*
X12864206Y-15370484D02*
X12835634Y-15370484D01*
X13016587Y-15370484D02*
X12997539Y-15360960D01*
X12997539Y-15360960D02*
X12988015Y-15341912D01*
X12988015Y-15341912D02*
X12988015Y-15170484D01*
X13168968Y-15360960D02*
X13149920Y-15370484D01*
X13149920Y-15370484D02*
X13111825Y-15370484D01*
X13111825Y-15370484D02*
X13092777Y-15360960D01*
X13092777Y-15360960D02*
X13083253Y-15341912D01*
X13083253Y-15341912D02*
X13083253Y-15265722D01*
X13083253Y-15265722D02*
X13092777Y-15246674D01*
X13092777Y-15246674D02*
X13111825Y-15237150D01*
X13111825Y-15237150D02*
X13149920Y-15237150D01*
X13149920Y-15237150D02*
X13168968Y-15246674D01*
X13168968Y-15246674D02*
X13178491Y-15265722D01*
X13178491Y-15265722D02*
X13178491Y-15284769D01*
X13178491Y-15284769D02*
X13083253Y-15303817D01*
X13254682Y-15360960D02*
X13273730Y-15370484D01*
X13273730Y-15370484D02*
X13311825Y-15370484D01*
X13311825Y-15370484D02*
X13330872Y-15360960D01*
X13330872Y-15360960D02*
X13340396Y-15341912D01*
X13340396Y-15341912D02*
X13340396Y-15332388D01*
X13340396Y-15332388D02*
X13330872Y-15313341D01*
X13330872Y-15313341D02*
X13311825Y-15303817D01*
X13311825Y-15303817D02*
X13283253Y-15303817D01*
X13283253Y-15303817D02*
X13264206Y-15294293D01*
X13264206Y-15294293D02*
X13254682Y-15275246D01*
X13254682Y-15275246D02*
X13254682Y-15265722D01*
X13254682Y-15265722D02*
X13264206Y-15246674D01*
X13264206Y-15246674D02*
X13283253Y-15237150D01*
X13283253Y-15237150D02*
X13311825Y-15237150D01*
X13311825Y-15237150D02*
X13330872Y-15246674D01*
X13407063Y-15446674D02*
X13416587Y-15437150D01*
X13416587Y-15437150D02*
X13435634Y-15408579D01*
X13435634Y-15408579D02*
X13445158Y-15389531D01*
X13445158Y-15389531D02*
X13454682Y-15360960D01*
X13454682Y-15360960D02*
X13464206Y-15313341D01*
X13464206Y-15313341D02*
X13464206Y-15275246D01*
X13464206Y-15275246D02*
X13454682Y-15227627D01*
X13454682Y-15227627D02*
X13445158Y-15199055D01*
X13445158Y-15199055D02*
X13435634Y-15180008D01*
X13435634Y-15180008D02*
X13416587Y-15151436D01*
X13416587Y-15151436D02*
X13407063Y-15141912D01*
X13768968Y-15446674D02*
X13759444Y-15437150D01*
X13759444Y-15437150D02*
X13740396Y-15408579D01*
X13740396Y-15408579D02*
X13730872Y-15389531D01*
X13730872Y-15389531D02*
X13721349Y-15360960D01*
X13721349Y-15360960D02*
X13711825Y-15313341D01*
X13711825Y-15313341D02*
X13711825Y-15275246D01*
X13711825Y-15275246D02*
X13721349Y-15227627D01*
X13721349Y-15227627D02*
X13730872Y-15199055D01*
X13730872Y-15199055D02*
X13740396Y-15180008D01*
X13740396Y-15180008D02*
X13759444Y-15151436D01*
X13759444Y-15151436D02*
X13768968Y-15141912D01*
X13845158Y-15237150D02*
X13845158Y-15370484D01*
X13845158Y-15256198D02*
X13854682Y-15246674D01*
X13854682Y-15246674D02*
X13873730Y-15237150D01*
X13873730Y-15237150D02*
X13902301Y-15237150D01*
X13902301Y-15237150D02*
X13921349Y-15246674D01*
X13921349Y-15246674D02*
X13930872Y-15265722D01*
X13930872Y-15265722D02*
X13930872Y-15370484D01*
X14054682Y-15370484D02*
X14035634Y-15360960D01*
X14035634Y-15360960D02*
X14026111Y-15351436D01*
X14026111Y-15351436D02*
X14016587Y-15332388D01*
X14016587Y-15332388D02*
X14016587Y-15275246D01*
X14016587Y-15275246D02*
X14026111Y-15256198D01*
X14026111Y-15256198D02*
X14035634Y-15246674D01*
X14035634Y-15246674D02*
X14054682Y-15237150D01*
X14054682Y-15237150D02*
X14083253Y-15237150D01*
X14083253Y-15237150D02*
X14102301Y-15246674D01*
X14102301Y-15246674D02*
X14111825Y-15256198D01*
X14111825Y-15256198D02*
X14121349Y-15275246D01*
X14121349Y-15275246D02*
X14121349Y-15332388D01*
X14121349Y-15332388D02*
X14111825Y-15351436D01*
X14111825Y-15351436D02*
X14102301Y-15360960D01*
X14102301Y-15360960D02*
X14083253Y-15370484D01*
X14083253Y-15370484D02*
X14054682Y-15370484D01*
X14178492Y-15237150D02*
X14254682Y-15237150D01*
X14207063Y-15170484D02*
X14207063Y-15341912D01*
X14207063Y-15341912D02*
X14216587Y-15360960D01*
X14216587Y-15360960D02*
X14235634Y-15370484D01*
X14235634Y-15370484D02*
X14254682Y-15370484D01*
X14473730Y-15237150D02*
X14473730Y-15437150D01*
X14473730Y-15246674D02*
X14492777Y-15237150D01*
X14492777Y-15237150D02*
X14530873Y-15237150D01*
X14530873Y-15237150D02*
X14549920Y-15246674D01*
X14549920Y-15246674D02*
X14559444Y-15256198D01*
X14559444Y-15256198D02*
X14568968Y-15275246D01*
X14568968Y-15275246D02*
X14568968Y-15332388D01*
X14568968Y-15332388D02*
X14559444Y-15351436D01*
X14559444Y-15351436D02*
X14549920Y-15360960D01*
X14549920Y-15360960D02*
X14530873Y-15370484D01*
X14530873Y-15370484D02*
X14492777Y-15370484D01*
X14492777Y-15370484D02*
X14473730Y-15360960D01*
X14683253Y-15370484D02*
X14664206Y-15360960D01*
X14664206Y-15360960D02*
X14654682Y-15341912D01*
X14654682Y-15341912D02*
X14654682Y-15170484D01*
X14845158Y-15370484D02*
X14845158Y-15265722D01*
X14845158Y-15265722D02*
X14835634Y-15246674D01*
X14835634Y-15246674D02*
X14816587Y-15237150D01*
X14816587Y-15237150D02*
X14778492Y-15237150D01*
X14778492Y-15237150D02*
X14759444Y-15246674D01*
X14845158Y-15360960D02*
X14826111Y-15370484D01*
X14826111Y-15370484D02*
X14778492Y-15370484D01*
X14778492Y-15370484D02*
X14759444Y-15360960D01*
X14759444Y-15360960D02*
X14749920Y-15341912D01*
X14749920Y-15341912D02*
X14749920Y-15322865D01*
X14749920Y-15322865D02*
X14759444Y-15303817D01*
X14759444Y-15303817D02*
X14778492Y-15294293D01*
X14778492Y-15294293D02*
X14826111Y-15294293D01*
X14826111Y-15294293D02*
X14845158Y-15284769D01*
X14911825Y-15237150D02*
X14988015Y-15237150D01*
X14940396Y-15170484D02*
X14940396Y-15341912D01*
X14940396Y-15341912D02*
X14949920Y-15360960D01*
X14949920Y-15360960D02*
X14968968Y-15370484D01*
X14968968Y-15370484D02*
X14988015Y-15370484D01*
X15130873Y-15360960D02*
X15111825Y-15370484D01*
X15111825Y-15370484D02*
X15073730Y-15370484D01*
X15073730Y-15370484D02*
X15054682Y-15360960D01*
X15054682Y-15360960D02*
X15045158Y-15341912D01*
X15045158Y-15341912D02*
X15045158Y-15265722D01*
X15045158Y-15265722D02*
X15054682Y-15246674D01*
X15054682Y-15246674D02*
X15073730Y-15237150D01*
X15073730Y-15237150D02*
X15111825Y-15237150D01*
X15111825Y-15237150D02*
X15130873Y-15246674D01*
X15130873Y-15246674D02*
X15140396Y-15265722D01*
X15140396Y-15265722D02*
X15140396Y-15284769D01*
X15140396Y-15284769D02*
X15045158Y-15303817D01*
X15311825Y-15370484D02*
X15311825Y-15170484D01*
X15311825Y-15360960D02*
X15292777Y-15370484D01*
X15292777Y-15370484D02*
X15254682Y-15370484D01*
X15254682Y-15370484D02*
X15235634Y-15360960D01*
X15235634Y-15360960D02*
X15226111Y-15351436D01*
X15226111Y-15351436D02*
X15216587Y-15332388D01*
X15216587Y-15332388D02*
X15216587Y-15275246D01*
X15216587Y-15275246D02*
X15226111Y-15256198D01*
X15226111Y-15256198D02*
X15235634Y-15246674D01*
X15235634Y-15246674D02*
X15254682Y-15237150D01*
X15254682Y-15237150D02*
X15292777Y-15237150D01*
X15292777Y-15237150D02*
X15311825Y-15246674D01*
X15388015Y-15446674D02*
X15397539Y-15437150D01*
X15397539Y-15437150D02*
X15416587Y-15408579D01*
X15416587Y-15408579D02*
X15426111Y-15389531D01*
X15426111Y-15389531D02*
X15435634Y-15360960D01*
X15435634Y-15360960D02*
X15445158Y-15313341D01*
X15445158Y-15313341D02*
X15445158Y-15275246D01*
X15445158Y-15275246D02*
X15435634Y-15227627D01*
X15435634Y-15227627D02*
X15426111Y-15199055D01*
X15426111Y-15199055D02*
X15416587Y-15180008D01*
X15416587Y-15180008D02*
X15397539Y-15151436D01*
X15397539Y-15151436D02*
X15388015Y-15141912D01*
M02*
