%TF.GenerationSoftware,KiCad,Pcbnew,7.0.11-7.0.11~ubuntu22.04.1*%
%TF.CreationDate,2024-06-28T21:44:56-07:00*%
%TF.ProjectId,little_red_rover,6c697474-6c65-45f7-9265-645f726f7665,rev?*%
%TF.SameCoordinates,Original*%
%TF.FileFunction,Drillmap*%
%TF.FilePolarity,Positive*%
%FSLAX45Y45*%
G04 Gerber Fmt 4.5, Leading zero omitted, Abs format (unit mm)*
G04 Created by KiCad (PCBNEW 7.0.11-7.0.11~ubuntu22.04.1) date 2024-06-28 21:44:56*
%MOMM*%
%LPD*%
G01*
G04 APERTURE LIST*
%ADD10C,0.200000*%
%ADD11C,0.100000*%
%ADD12C,0.185000*%
%ADD13C,0.240000*%
G04 APERTURE END LIST*
D10*
X9352165Y-8505000D02*
X8919654Y-8505000D01*
X21372000Y-13685000D02*
X21372000Y-11855000D01*
X20872000Y-6065000D02*
X21372000Y-6065000D01*
X13985992Y-8355141D02*
G75*
G03*
X13985992Y-11624859I3166008J-1634859D01*
G01*
X9154074Y-9085000D02*
X8742876Y-9085000D01*
X21372000Y-11625000D02*
X21372000Y-8355000D01*
X21372000Y-13915000D02*
X20872000Y-13915000D01*
X18402000Y-11610000D02*
X18402000Y-11840000D01*
X8697808Y-9315000D02*
G75*
G03*
X8697808Y-10665000I4054192J-675000D01*
G01*
X18402000Y-13700000D02*
X18402000Y-13930000D01*
X21372000Y-8125000D02*
X21372000Y-6295000D01*
X17342000Y-8370000D02*
X18402000Y-8370000D01*
X20872000Y-13685000D02*
X20872000Y-13915000D01*
X9462186Y-8275000D02*
G75*
G03*
X9352165Y-8505000I3289874J-1715030D01*
G01*
X21372000Y-8125000D02*
X20872000Y-8125000D01*
X21372000Y-6295000D02*
X20872000Y-6295000D01*
X20872000Y-6065000D02*
X20872000Y-6295000D01*
X17342000Y-8140000D02*
X18402000Y-8140000D01*
X17342000Y-11610000D02*
X17342000Y-11840000D01*
X15930362Y-9490000D02*
X14616153Y-8247957D01*
X9016913Y-11705000D02*
X9462186Y-11705000D01*
X21372000Y-13685000D02*
X20872000Y-13685000D01*
X8742876Y-10895000D02*
X9154074Y-10895000D01*
X17342000Y-6280000D02*
X17342000Y-6050000D01*
X9103922Y-9315000D02*
X8697808Y-9315000D01*
X8742876Y-10895000D02*
G75*
G03*
X8919654Y-11475000I4009144J905010D01*
G01*
X18402000Y-8370000D02*
X18402000Y-8140000D01*
X15930362Y-10490000D02*
G75*
G03*
X15930362Y-9490000I1221638J500000D01*
G01*
X8919654Y-11475000D02*
X9352165Y-11475000D01*
X12752000Y-14100000D02*
X21372000Y-14100000D01*
X13985986Y-11624862D02*
G75*
G03*
X14616153Y-11732043I355414J183532D01*
G01*
X9103922Y-10665000D02*
X8697808Y-10665000D01*
X20872000Y-8355000D02*
X21372000Y-8355000D01*
X21372000Y-14100000D02*
X21372000Y-13915000D01*
X18402000Y-13930000D02*
X17342000Y-13930000D01*
X17342000Y-11610000D02*
X18402000Y-11610000D01*
X21372000Y-11625000D02*
X20872000Y-11625000D01*
X17342000Y-13700000D02*
X17342000Y-13930000D01*
X21372000Y-6065000D02*
X21372000Y-5880000D01*
X17342000Y-11840000D02*
X18402000Y-11840000D01*
X20872000Y-8125000D02*
X20872000Y-8355000D01*
X18402000Y-6050000D02*
X17342000Y-6050000D01*
X15930362Y-10490000D02*
X14616153Y-11732043D01*
X20872000Y-11625000D02*
X20872000Y-11855000D01*
X9016913Y-11705000D02*
G75*
G03*
X12752000Y-14100000I3735087J1715000D01*
G01*
X21372000Y-11855000D02*
X20872000Y-11855000D01*
X9352165Y-11475000D02*
G75*
G03*
X9462186Y-11705000I3399895J1485030D01*
G01*
X9103922Y-10665000D02*
G75*
G03*
X9154074Y-10895000I3648038J674990D01*
G01*
X18402000Y-6280000D02*
X17342000Y-6280000D01*
X12752000Y-5880000D02*
X21372000Y-5880000D01*
X17342000Y-8370000D02*
X17342000Y-8140000D01*
X9016913Y-8275000D02*
X9462186Y-8275000D01*
X12752000Y-5880000D02*
G75*
G03*
X9016913Y-8275000I0J-4110000D01*
G01*
X18402000Y-13700000D02*
X17342000Y-13700000D01*
X8919655Y-8505000D02*
G75*
G03*
X8742876Y-9085000I3832365J-1485010D01*
G01*
X18402000Y-6280000D02*
X18402000Y-6050000D01*
X14616148Y-8247962D02*
G75*
G03*
X13985992Y-8355141I-274748J-290708D01*
G01*
X9154074Y-9085000D02*
G75*
G03*
X9103922Y-9315000I3597696J-904950D01*
G01*
D11*
X10653500Y-12144561D02*
X10673500Y-12164561D01*
X10673500Y-12144561D02*
X10653500Y-12164561D01*
X10653500Y-12262561D02*
X10673500Y-12282561D01*
X10673500Y-12262561D02*
X10653500Y-12282561D01*
X10771500Y-12144561D02*
X10791500Y-12164561D01*
X10791500Y-12144561D02*
X10771500Y-12164561D01*
X10771500Y-12262561D02*
X10791500Y-12282561D01*
X10791500Y-12262561D02*
X10771500Y-12282561D01*
X13334500Y-13562000D02*
G75*
G03*
X13309500Y-13562000I-12500J0D01*
G01*
X13309500Y-13562000D02*
G75*
G03*
X13334500Y-13562000I12500J0D01*
G01*
X13434500Y-13562000D02*
G75*
G03*
X13409500Y-13562000I-12500J0D01*
G01*
X13409500Y-13562000D02*
G75*
G03*
X13434500Y-13562000I12500J0D01*
G01*
X13972500Y-7334000D02*
G75*
G03*
X13947500Y-7334000I-12500J0D01*
G01*
X13947500Y-7334000D02*
G75*
G03*
X13972500Y-7334000I12500J0D01*
G01*
X13972500Y-7434000D02*
G75*
G03*
X13947500Y-7434000I-12500J0D01*
G01*
X13947500Y-7434000D02*
G75*
G03*
X13972500Y-7434000I12500J0D01*
G01*
X9647000Y-8900000D02*
X9647000Y-8940000D01*
X9627000Y-8920000D02*
X9667000Y-8920000D01*
X10122000Y-12283000D02*
X10122000Y-12323000D01*
X10102000Y-12303000D02*
X10142000Y-12303000D01*
X10435000Y-9784000D02*
X10435000Y-9824000D01*
X10415000Y-9804000D02*
X10455000Y-9804000D01*
X10590000Y-13040000D02*
X10590000Y-13080000D01*
X10570000Y-13060000D02*
X10610000Y-13060000D01*
X10701000Y-11535000D02*
X10701000Y-11575000D01*
X10681000Y-11555000D02*
X10721000Y-11555000D01*
X10740000Y-12466000D02*
X10740000Y-12506000D01*
X10720000Y-12486000D02*
X10760000Y-12486000D01*
X10784000Y-11845000D02*
X10784000Y-11885000D01*
X10764000Y-11865000D02*
X10804000Y-11865000D01*
X10867000Y-12459000D02*
X10867000Y-12499000D01*
X10847000Y-12479000D02*
X10887000Y-12479000D01*
X10960000Y-12280001D02*
X10960000Y-12320001D01*
X10940000Y-12300001D02*
X10980000Y-12300001D01*
X11048000Y-12150000D02*
X11048000Y-12190000D01*
X11028000Y-12170000D02*
X11068000Y-12170000D01*
X11109000Y-9221000D02*
X11109000Y-9261000D01*
X11089000Y-9241000D02*
X11129000Y-9241000D01*
X11152000Y-7490000D02*
X11152000Y-7530000D01*
X11132000Y-7510000D02*
X11172000Y-7510000D01*
X11407000Y-13648000D02*
X11407000Y-13688000D01*
X11387000Y-13668000D02*
X11427000Y-13668000D01*
X11524353Y-11669000D02*
X11524353Y-11709000D01*
X11504353Y-11689000D02*
X11544353Y-11689000D01*
X11565257Y-12801034D02*
X11565257Y-12841034D01*
X11545257Y-12821034D02*
X11585257Y-12821034D01*
X11764000Y-13282000D02*
X11764000Y-13322000D01*
X11744000Y-13302000D02*
X11784000Y-13302000D01*
X11807000Y-10863000D02*
X11807000Y-10903000D01*
X11787000Y-10883000D02*
X11827000Y-10883000D01*
X11848000Y-12662000D02*
X11848000Y-12702000D01*
X11828000Y-12682000D02*
X11868000Y-12682000D01*
X11880000Y-12083000D02*
X11880000Y-12123000D01*
X11860000Y-12103000D02*
X11900000Y-12103000D01*
X12009000Y-12636608D02*
X12009000Y-12676608D01*
X11989000Y-12656608D02*
X12029000Y-12656608D01*
X12025000Y-12851000D02*
X12025000Y-12891000D01*
X12005000Y-12871000D02*
X12045000Y-12871000D01*
X12779000Y-13793000D02*
X12779000Y-13833000D01*
X12759000Y-13813000D02*
X12799000Y-13813000D01*
X12981000Y-12505000D02*
X12981000Y-12545000D01*
X12961000Y-12525000D02*
X13001000Y-12525000D01*
X13014000Y-9648000D02*
X13014000Y-9688000D01*
X12994000Y-9668000D02*
X13034000Y-9668000D01*
X13176194Y-13796445D02*
X13176194Y-13836445D01*
X13156194Y-13816445D02*
X13196194Y-13816445D01*
X13567000Y-6797000D02*
X13567000Y-6837000D01*
X13547000Y-6817000D02*
X13587000Y-6817000D01*
X13614581Y-13039788D02*
X13614581Y-13079788D01*
X13594581Y-13059788D02*
X13634581Y-13059788D01*
X13673000Y-13782000D02*
X13673000Y-13822000D01*
X13653000Y-13802000D02*
X13693000Y-13802000D01*
X13678946Y-13636755D02*
X13678946Y-13676755D01*
X13658946Y-13656755D02*
X13698946Y-13656755D01*
X13708076Y-12992000D02*
X13708076Y-13032000D01*
X13688076Y-13012000D02*
X13728076Y-13012000D01*
X13710000Y-7115000D02*
X13710000Y-7155000D01*
X13690000Y-7135000D02*
X13730000Y-7135000D01*
X13849000Y-13077000D02*
X13849000Y-13117000D01*
X13829000Y-13097000D02*
X13869000Y-13097000D01*
X13857000Y-13307000D02*
X13857000Y-13347000D01*
X13837000Y-13327000D02*
X13877000Y-13327000D01*
X13863000Y-7553000D02*
X13863000Y-7593000D01*
X13843000Y-7573000D02*
X13883000Y-7573000D01*
X14139000Y-7264000D02*
X14139000Y-7304000D01*
X14119000Y-7284000D02*
X14159000Y-7284000D01*
X14528000Y-13784000D02*
X14528000Y-13824000D01*
X14508000Y-13804000D02*
X14548000Y-13804000D01*
X14613000Y-6951000D02*
X14613000Y-6991000D01*
X14593000Y-6971000D02*
X14633000Y-6971000D01*
X14683662Y-13514500D02*
X14683662Y-13554500D01*
X14663662Y-13534500D02*
X14703662Y-13534500D01*
X15044000Y-12011000D02*
X15044000Y-12051000D01*
X15024000Y-12031000D02*
X15064000Y-12031000D01*
X15063423Y-13969423D02*
X15063423Y-14009423D01*
X15043423Y-13989423D02*
X15083423Y-13989423D01*
X15813000Y-13964000D02*
X15813000Y-14004000D01*
X15793000Y-13984000D02*
X15833000Y-13984000D01*
X16096000Y-13588000D02*
X16096000Y-13628000D01*
X16076000Y-13608000D02*
X16116000Y-13608000D01*
X16272500Y-13624000D02*
X16272500Y-13664000D01*
X16252500Y-13644000D02*
X16292500Y-13644000D01*
X16485000Y-13571000D02*
X16485000Y-13611000D01*
X16465000Y-13591000D02*
X16505000Y-13591000D01*
X16622500Y-13930000D02*
X16622500Y-13970000D01*
X16602500Y-13950000D02*
X16642500Y-13950000D01*
X16722500Y-13834000D02*
X16722500Y-13874000D01*
X16702500Y-13854000D02*
X16742500Y-13854000D01*
X16805000Y-13626000D02*
X16805000Y-13666000D01*
X16785000Y-13646000D02*
X16825000Y-13646000D01*
X16820000Y-7563000D02*
X16820000Y-7603000D01*
X16800000Y-7583000D02*
X16840000Y-7583000D01*
X16952631Y-6565265D02*
X16952631Y-6605265D01*
X16932631Y-6585265D02*
X16972631Y-6585265D01*
X17007208Y-7464548D02*
X17007208Y-7504548D01*
X16987208Y-7484548D02*
X17027208Y-7484548D01*
X17060887Y-6881000D02*
X17060887Y-6921000D01*
X17040887Y-6901000D02*
X17080887Y-6901000D01*
X17093391Y-6691000D02*
X17093391Y-6731000D01*
X17073391Y-6711000D02*
X17113391Y-6711000D01*
X17105983Y-7425000D02*
X17105983Y-7465000D01*
X17085983Y-7445000D02*
X17125983Y-7445000D01*
X17107000Y-7225000D02*
X17107000Y-7265000D01*
X17087000Y-7245000D02*
X17127000Y-7245000D01*
X17154777Y-7010142D02*
X17154777Y-7050142D01*
X17134777Y-7030142D02*
X17174777Y-7030142D01*
X17186882Y-7150000D02*
X17186882Y-7190000D01*
X17166882Y-7170000D02*
X17206882Y-7170000D01*
X17187671Y-7303280D02*
X17187671Y-7343280D01*
X17167671Y-7323280D02*
X17207671Y-7323280D01*
X17207000Y-6453000D02*
X17207000Y-6493000D01*
X17187000Y-6473000D02*
X17227000Y-6473000D01*
X17268623Y-7098095D02*
X17268623Y-7138095D01*
X17248623Y-7118095D02*
X17288623Y-7118095D01*
X17280000Y-7404000D02*
X17280000Y-7444000D01*
X17260000Y-7424000D02*
X17300000Y-7424000D01*
X17355000Y-12315000D02*
X17355000Y-12355000D01*
X17335000Y-12335000D02*
X17375000Y-12335000D01*
X17629000Y-7749000D02*
X17629000Y-7789000D01*
X17609000Y-7769000D02*
X17649000Y-7769000D01*
X17659000Y-6503000D02*
X17659000Y-6543000D01*
X17639000Y-6523000D02*
X17679000Y-6523000D01*
X18230000Y-8457000D02*
X18230000Y-8497000D01*
X18210000Y-8477000D02*
X18250000Y-8477000D01*
X18274393Y-8656816D02*
X18274393Y-8696816D01*
X18254393Y-8676816D02*
X18294393Y-8676816D01*
X18707000Y-11030000D02*
X18707000Y-11070000D01*
X18687000Y-11050000D02*
X18727000Y-11050000D01*
X18736000Y-7289000D02*
X18736000Y-7329000D01*
X18716000Y-7309000D02*
X18756000Y-7309000D01*
X18754003Y-10474998D02*
X18754003Y-10514998D01*
X18734003Y-10494998D02*
X18774003Y-10494998D01*
X18894649Y-10403511D02*
X18894649Y-10443511D01*
X18874649Y-10423511D02*
X18914649Y-10423511D01*
X18908028Y-9454962D02*
X18908028Y-9494962D01*
X18888028Y-9474962D02*
X18928028Y-9474962D01*
X18952182Y-9302547D02*
X18952182Y-9342547D01*
X18932182Y-9322547D02*
X18972182Y-9322547D01*
X18958887Y-10320454D02*
X18958887Y-10360454D01*
X18938887Y-10340454D02*
X18978887Y-10340454D01*
X19027113Y-8793169D02*
X19027113Y-8833169D01*
X19007113Y-8813169D02*
X19047113Y-8813169D01*
X19034851Y-10247966D02*
X19034851Y-10287966D01*
X19014851Y-10267966D02*
X19054851Y-10267966D01*
X19056257Y-9288637D02*
X19056257Y-9328637D01*
X19036257Y-9308637D02*
X19076257Y-9308637D01*
X19069233Y-8297750D02*
X19069233Y-8337750D01*
X19049233Y-8317750D02*
X19089233Y-8317750D01*
X19098028Y-9437324D02*
X19098028Y-9477324D01*
X19078028Y-9457324D02*
X19118028Y-9457324D01*
X19100708Y-10166187D02*
X19100708Y-10206187D01*
X19080708Y-10186187D02*
X19120708Y-10186187D01*
X19115464Y-11261464D02*
X19115464Y-11301464D01*
X19095464Y-11281464D02*
X19135464Y-11281464D01*
X19135000Y-11004000D02*
X19135000Y-11044000D01*
X19115000Y-11024000D02*
X19155000Y-11024000D01*
X19196281Y-8782750D02*
X19196281Y-8822750D01*
X19176281Y-8802750D02*
X19216281Y-8802750D01*
X19204185Y-9337209D02*
X19204185Y-9377209D01*
X19184185Y-9357209D02*
X19224185Y-9357209D01*
X19262000Y-9026000D02*
X19262000Y-9066000D01*
X19242000Y-9046000D02*
X19282000Y-9046000D01*
X19278967Y-10888000D02*
X19278967Y-10928000D01*
X19258967Y-10908000D02*
X19298967Y-10908000D01*
X19440353Y-10529766D02*
X19440353Y-10569766D01*
X19420353Y-10549766D02*
X19460353Y-10549766D01*
X19479000Y-9443000D02*
X19479000Y-9483000D01*
X19459000Y-9463000D02*
X19499000Y-9463000D01*
X19520000Y-10290000D02*
X19520000Y-10330000D01*
X19500000Y-10310000D02*
X19540000Y-10310000D01*
X19522000Y-10414000D02*
X19522000Y-10454000D01*
X19502000Y-10434000D02*
X19542000Y-10434000D01*
X19527492Y-9318930D02*
X19527492Y-9358930D01*
X19507492Y-9338930D02*
X19547492Y-9338930D01*
X19528000Y-10889000D02*
X19528000Y-10929000D01*
X19508000Y-10909000D02*
X19548000Y-10909000D01*
X19632330Y-9324763D02*
X19632330Y-9364763D01*
X19612330Y-9344763D02*
X19652330Y-9344763D01*
X19638000Y-13117000D02*
X19638000Y-13157000D01*
X19618000Y-13137000D02*
X19658000Y-13137000D01*
X19642331Y-9520952D02*
X19642331Y-9560952D01*
X19622331Y-9540952D02*
X19662331Y-9540952D01*
X19653000Y-8171000D02*
X19653000Y-8211000D01*
X19633000Y-8191000D02*
X19673000Y-8191000D01*
X19662555Y-9029200D02*
X19662555Y-9069200D01*
X19642555Y-9049200D02*
X19682555Y-9049200D01*
X19692576Y-8474625D02*
X19692576Y-8514625D01*
X19672576Y-8494625D02*
X19712576Y-8494625D01*
X19744639Y-9417401D02*
X19744639Y-9457401D01*
X19724639Y-9437401D02*
X19764639Y-9437401D01*
X19802000Y-10402000D02*
X19802000Y-10442000D01*
X19782000Y-10422000D02*
X19822000Y-10422000D01*
X19822330Y-9329476D02*
X19822330Y-9369476D01*
X19802330Y-9349476D02*
X19842330Y-9349476D01*
X19839517Y-10500135D02*
X19839517Y-10540135D01*
X19819517Y-10520135D02*
X19859517Y-10520135D01*
X19884000Y-6674000D02*
X19884000Y-6714000D01*
X19864000Y-6694000D02*
X19904000Y-6694000D01*
X19892533Y-8630467D02*
X19892533Y-8670467D01*
X19872533Y-8650467D02*
X19912533Y-8650467D01*
X19892533Y-8630467D02*
X19892533Y-8670467D01*
X19872533Y-8650467D02*
X19912533Y-8650467D01*
X19943000Y-10517922D02*
X19943000Y-10557922D01*
X19923000Y-10537922D02*
X19963000Y-10537922D01*
X20074000Y-10342000D02*
X20074000Y-10382000D01*
X20054000Y-10362000D02*
X20094000Y-10362000D01*
X20088000Y-9408767D02*
X20088000Y-9448767D01*
X20068000Y-9428767D02*
X20108000Y-9428767D01*
X20105000Y-10499000D02*
X20105000Y-10539000D01*
X20085000Y-10519000D02*
X20125000Y-10519000D01*
X20148000Y-8988000D02*
X20148000Y-9028000D01*
X20128000Y-9008000D02*
X20168000Y-9008000D01*
X20258560Y-9507195D02*
X20258560Y-9547195D01*
X20238560Y-9527195D02*
X20278560Y-9527195D01*
X20261328Y-8999262D02*
X20261328Y-9039262D01*
X20241328Y-9019262D02*
X20281328Y-9019262D01*
X20377000Y-8470000D02*
X20377000Y-8510000D01*
X20357000Y-8490000D02*
X20397000Y-8490000D01*
X20438000Y-9021000D02*
X20438000Y-9061000D01*
X20418000Y-9041000D02*
X20458000Y-9041000D01*
X20495000Y-10390000D02*
X20495000Y-10430000D01*
X20475000Y-10410000D02*
X20515000Y-10410000D01*
X20499000Y-11029000D02*
X20499000Y-11069000D01*
X20479000Y-11049000D02*
X20519000Y-11049000D01*
X20502000Y-9428000D02*
X20502000Y-9468000D01*
X20482000Y-9448000D02*
X20522000Y-9448000D01*
X20600000Y-8999000D02*
X20600000Y-9039000D01*
X20580000Y-9019000D02*
X20620000Y-9019000D01*
X20704000Y-11345000D02*
X20704000Y-11385000D01*
X20684000Y-11365000D02*
X20724000Y-11365000D01*
X20742000Y-8749000D02*
X20742000Y-8789000D01*
X20722000Y-8769000D02*
X20762000Y-8769000D01*
X14109213Y-13430713D02*
X14109213Y-13388287D01*
X14066787Y-13388287D01*
X14066787Y-13430713D01*
X14109213Y-13430713D01*
X14058000Y-13354500D02*
X14058000Y-13464500D01*
X14058000Y-13464500D02*
G75*
G03*
X14118000Y-13464500I30000J0D01*
G01*
X14118000Y-13464500D02*
X14118000Y-13354500D01*
X14118000Y-13354500D02*
G75*
G03*
X14058000Y-13354500I-30000J0D01*
G01*
X14109213Y-13848713D02*
X14109213Y-13806287D01*
X14066787Y-13806287D01*
X14066787Y-13848713D01*
X14109213Y-13848713D01*
X14058000Y-13787500D02*
X14058000Y-13867500D01*
X14058000Y-13867500D02*
G75*
G03*
X14118000Y-13867500I30000J0D01*
G01*
X14118000Y-13867500D02*
X14118000Y-13787500D01*
X14118000Y-13787500D02*
G75*
G03*
X14058000Y-13787500I-30000J0D01*
G01*
X14973213Y-13430713D02*
X14973213Y-13388287D01*
X14930787Y-13388287D01*
X14930787Y-13430713D01*
X14973213Y-13430713D01*
X14922000Y-13354500D02*
X14922000Y-13464500D01*
X14922000Y-13464500D02*
G75*
G03*
X14982000Y-13464500I30000J0D01*
G01*
X14982000Y-13464500D02*
X14982000Y-13354500D01*
X14982000Y-13354500D02*
G75*
G03*
X14922000Y-13354500I-30000J0D01*
G01*
X14973213Y-13848713D02*
X14973213Y-13806287D01*
X14930787Y-13806287D01*
X14930787Y-13848713D01*
X14973213Y-13848713D01*
X14922000Y-13787500D02*
X14922000Y-13867500D01*
X14922000Y-13867500D02*
G75*
G03*
X14982000Y-13867500I30000J0D01*
G01*
X14982000Y-13867500D02*
X14982000Y-13787500D01*
X14982000Y-13787500D02*
G75*
G03*
X14922000Y-13787500I-30000J0D01*
G01*
X20046000Y-11132100D02*
X20084100Y-11094000D01*
X20046000Y-11055900D01*
X20007900Y-11094000D01*
X20046000Y-11132100D01*
X20046000Y-11582100D02*
X20084100Y-11544000D01*
X20046000Y-11505900D01*
X20007900Y-11544000D01*
X20046000Y-11582100D01*
X20055994Y-8425100D02*
X20094094Y-8387000D01*
X20055994Y-8348900D01*
X20017894Y-8387000D01*
X20055994Y-8425100D01*
X20055994Y-8875100D02*
X20094094Y-8837000D01*
X20055994Y-8798900D01*
X20017894Y-8837000D01*
X20055994Y-8875100D01*
X20246000Y-11132100D02*
X20284100Y-11094000D01*
X20246000Y-11055900D01*
X20207900Y-11094000D01*
X20246000Y-11132100D01*
X20246000Y-11582100D02*
X20284100Y-11544000D01*
X20246000Y-11505900D01*
X20207900Y-11544000D01*
X20246000Y-11582100D01*
X20255994Y-8425100D02*
X20294094Y-8387000D01*
X20255994Y-8348900D01*
X20217894Y-8387000D01*
X20255994Y-8425100D01*
X20255994Y-8875100D02*
X20294094Y-8837000D01*
X20255994Y-8798900D01*
X20217894Y-8837000D01*
X20255994Y-8875100D01*
X13289000Y-6933000D02*
X13389000Y-7033000D01*
X13389000Y-6933000D02*
X13289000Y-7033000D01*
X13389000Y-6983000D02*
G75*
G03*
X13289000Y-6983000I-50000J0D01*
G01*
X13289000Y-6983000D02*
G75*
G03*
X13389000Y-6983000I50000J0D01*
G01*
X13301929Y-6198929D02*
X13401929Y-6298929D01*
X13401929Y-6198929D02*
X13301929Y-6298929D01*
X13401929Y-6248929D02*
G75*
G03*
X13301929Y-6248929I-50000J0D01*
G01*
X13301929Y-6248929D02*
G75*
G03*
X13401929Y-6248929I50000J0D01*
G01*
X13301929Y-6452929D02*
X13401929Y-6552929D01*
X13401929Y-6452929D02*
X13301929Y-6552929D01*
X13401929Y-6502929D02*
G75*
G03*
X13301929Y-6502929I-50000J0D01*
G01*
X13301929Y-6502929D02*
G75*
G03*
X13401929Y-6502929I50000J0D01*
G01*
X13346000Y-13170000D02*
X13446000Y-13270000D01*
X13446000Y-13170000D02*
X13346000Y-13270000D01*
X13446000Y-13220000D02*
G75*
G03*
X13346000Y-13220000I-50000J0D01*
G01*
X13346000Y-13220000D02*
G75*
G03*
X13446000Y-13220000I50000J0D01*
G01*
X13543000Y-6933000D02*
X13643000Y-7033000D01*
X13643000Y-6933000D02*
X13543000Y-7033000D01*
X13643000Y-6983000D02*
G75*
G03*
X13543000Y-6983000I-50000J0D01*
G01*
X13543000Y-6983000D02*
G75*
G03*
X13643000Y-6983000I50000J0D01*
G01*
X13555929Y-6198929D02*
X13655929Y-6298929D01*
X13655929Y-6198929D02*
X13555929Y-6298929D01*
X13655929Y-6248929D02*
G75*
G03*
X13555929Y-6248929I-50000J0D01*
G01*
X13555929Y-6248929D02*
G75*
G03*
X13655929Y-6248929I50000J0D01*
G01*
X13555929Y-6452929D02*
X13655929Y-6552929D01*
X13655929Y-6452929D02*
X13555929Y-6552929D01*
X13655929Y-6502929D02*
G75*
G03*
X13555929Y-6502929I-50000J0D01*
G01*
X13555929Y-6502929D02*
G75*
G03*
X13655929Y-6502929I50000J0D01*
G01*
X13600000Y-13170000D02*
X13700000Y-13270000D01*
X13700000Y-13170000D02*
X13600000Y-13270000D01*
X13700000Y-13220000D02*
G75*
G03*
X13600000Y-13220000I-50000J0D01*
G01*
X13600000Y-13220000D02*
G75*
G03*
X13700000Y-13220000I50000J0D01*
G01*
X13809929Y-6198929D02*
X13909929Y-6298929D01*
X13909929Y-6198929D02*
X13809929Y-6298929D01*
X13909929Y-6248929D02*
G75*
G03*
X13809929Y-6248929I-50000J0D01*
G01*
X13809929Y-6248929D02*
G75*
G03*
X13909929Y-6248929I50000J0D01*
G01*
X13809929Y-6452929D02*
X13909929Y-6552929D01*
X13909929Y-6452929D02*
X13809929Y-6552929D01*
X13909929Y-6502929D02*
G75*
G03*
X13809929Y-6502929I-50000J0D01*
G01*
X13809929Y-6502929D02*
G75*
G03*
X13909929Y-6502929I50000J0D01*
G01*
X14063929Y-6198929D02*
X14163929Y-6298929D01*
X14163929Y-6198929D02*
X14063929Y-6298929D01*
X14163929Y-6248929D02*
G75*
G03*
X14063929Y-6248929I-50000J0D01*
G01*
X14063929Y-6248929D02*
G75*
G03*
X14163929Y-6248929I50000J0D01*
G01*
X14063929Y-6452929D02*
X14163929Y-6552929D01*
X14163929Y-6452929D02*
X14063929Y-6552929D01*
X14163929Y-6502929D02*
G75*
G03*
X14063929Y-6502929I-50000J0D01*
G01*
X14063929Y-6502929D02*
G75*
G03*
X14163929Y-6502929I50000J0D01*
G01*
X14317929Y-6198929D02*
X14417929Y-6298929D01*
X14417929Y-6198929D02*
X14317929Y-6298929D01*
X14417929Y-6248929D02*
G75*
G03*
X14317929Y-6248929I-50000J0D01*
G01*
X14317929Y-6248929D02*
G75*
G03*
X14417929Y-6248929I50000J0D01*
G01*
X14317929Y-6452929D02*
X14417929Y-6552929D01*
X14417929Y-6452929D02*
X14317929Y-6552929D01*
X14417929Y-6502929D02*
G75*
G03*
X14317929Y-6502929I-50000J0D01*
G01*
X14317929Y-6502929D02*
G75*
G03*
X14417929Y-6502929I50000J0D01*
G01*
X14571929Y-6198929D02*
X14671929Y-6298929D01*
X14671929Y-6198929D02*
X14571929Y-6298929D01*
X14671929Y-6248929D02*
G75*
G03*
X14571929Y-6248929I-50000J0D01*
G01*
X14571929Y-6248929D02*
G75*
G03*
X14671929Y-6248929I50000J0D01*
G01*
X14571929Y-6452929D02*
X14671929Y-6552929D01*
X14671929Y-6452929D02*
X14571929Y-6552929D01*
X14671929Y-6502929D02*
G75*
G03*
X14571929Y-6502929I-50000J0D01*
G01*
X14571929Y-6502929D02*
G75*
G03*
X14671929Y-6502929I50000J0D01*
G01*
X14825929Y-6198929D02*
X14925929Y-6298929D01*
X14925929Y-6198929D02*
X14825929Y-6298929D01*
X14925929Y-6248929D02*
G75*
G03*
X14825929Y-6248929I-50000J0D01*
G01*
X14825929Y-6248929D02*
G75*
G03*
X14925929Y-6248929I50000J0D01*
G01*
X14825929Y-6452929D02*
X14925929Y-6552929D01*
X14925929Y-6452929D02*
X14825929Y-6552929D01*
X14925929Y-6502929D02*
G75*
G03*
X14825929Y-6502929I-50000J0D01*
G01*
X14825929Y-6502929D02*
G75*
G03*
X14925929Y-6502929I50000J0D01*
G01*
X15079929Y-6198929D02*
X15179929Y-6298929D01*
X15179929Y-6198929D02*
X15079929Y-6298929D01*
X15179929Y-6248929D02*
G75*
G03*
X15079929Y-6248929I-50000J0D01*
G01*
X15079929Y-6248929D02*
G75*
G03*
X15179929Y-6248929I50000J0D01*
G01*
X15079929Y-6452929D02*
X15179929Y-6552929D01*
X15179929Y-6452929D02*
X15079929Y-6552929D01*
X15179929Y-6502929D02*
G75*
G03*
X15079929Y-6502929I-50000J0D01*
G01*
X15079929Y-6502929D02*
G75*
G03*
X15179929Y-6502929I50000J0D01*
G01*
X15333929Y-6198929D02*
X15433929Y-6298929D01*
X15433929Y-6198929D02*
X15333929Y-6298929D01*
X15433929Y-6248929D02*
G75*
G03*
X15333929Y-6248929I-50000J0D01*
G01*
X15333929Y-6248929D02*
G75*
G03*
X15433929Y-6248929I50000J0D01*
G01*
X15333929Y-6452929D02*
X15433929Y-6552929D01*
X15433929Y-6452929D02*
X15333929Y-6552929D01*
X15433929Y-6502929D02*
G75*
G03*
X15333929Y-6502929I-50000J0D01*
G01*
X15333929Y-6502929D02*
G75*
G03*
X15433929Y-6502929I50000J0D01*
G01*
X15587929Y-6198929D02*
X15687929Y-6298929D01*
X15687929Y-6198929D02*
X15587929Y-6298929D01*
X15687929Y-6248929D02*
G75*
G03*
X15587929Y-6248929I-50000J0D01*
G01*
X15587929Y-6248929D02*
G75*
G03*
X15687929Y-6248929I50000J0D01*
G01*
X15587929Y-6452929D02*
X15687929Y-6552929D01*
X15687929Y-6452929D02*
X15587929Y-6552929D01*
X15687929Y-6502929D02*
G75*
G03*
X15587929Y-6502929I-50000J0D01*
G01*
X15587929Y-6502929D02*
G75*
G03*
X15687929Y-6502929I50000J0D01*
G01*
X15841929Y-6198929D02*
X15941929Y-6298929D01*
X15941929Y-6198929D02*
X15841929Y-6298929D01*
X15941929Y-6248929D02*
G75*
G03*
X15841929Y-6248929I-50000J0D01*
G01*
X15841929Y-6248929D02*
G75*
G03*
X15941929Y-6248929I50000J0D01*
G01*
X15841929Y-6452929D02*
X15941929Y-6552929D01*
X15941929Y-6452929D02*
X15841929Y-6552929D01*
X15941929Y-6502929D02*
G75*
G03*
X15841929Y-6502929I-50000J0D01*
G01*
X15841929Y-6502929D02*
G75*
G03*
X15941929Y-6502929I50000J0D01*
G01*
X16095929Y-6198929D02*
X16195929Y-6298929D01*
X16195929Y-6198929D02*
X16095929Y-6298929D01*
X16195929Y-6248929D02*
G75*
G03*
X16095929Y-6248929I-50000J0D01*
G01*
X16095929Y-6248929D02*
G75*
G03*
X16195929Y-6248929I50000J0D01*
G01*
X16095929Y-6452929D02*
X16195929Y-6552929D01*
X16195929Y-6452929D02*
X16095929Y-6552929D01*
X16195929Y-6502929D02*
G75*
G03*
X16095929Y-6502929I-50000J0D01*
G01*
X16095929Y-6502929D02*
G75*
G03*
X16195929Y-6502929I50000J0D01*
G01*
D12*
X12267500Y-6267500D02*
X12452500Y-6452500D01*
X12452500Y-6267500D02*
X12267500Y-6452500D01*
X12360000Y-6267500D02*
X12360000Y-6452500D01*
X12267500Y-6360000D02*
X12452500Y-6360000D01*
X12267500Y-7868500D02*
X12452500Y-8053500D01*
X12452500Y-7868500D02*
X12267500Y-8053500D01*
X12360000Y-7868500D02*
X12360000Y-8053500D01*
X12267500Y-7961000D02*
X12452500Y-7961000D01*
X12267500Y-11947500D02*
X12452500Y-12132500D01*
X12452500Y-11947500D02*
X12267500Y-12132500D01*
X12360000Y-11947500D02*
X12360000Y-12132500D01*
X12267500Y-12040000D02*
X12452500Y-12040000D01*
X12267500Y-13548500D02*
X12452500Y-13733500D01*
X12452500Y-13548500D02*
X12267500Y-13733500D01*
X12360000Y-13548500D02*
X12360000Y-13733500D01*
X12267500Y-13641000D02*
X12452500Y-13641000D01*
D13*
X19898000Y-9830000D02*
X20138000Y-10070000D01*
X20138000Y-9830000D02*
X19898000Y-10070000D01*
X20102854Y-10034854D02*
X20102854Y-9865146D01*
X19933146Y-9865146D01*
X19933146Y-10034854D01*
X20102854Y-10034854D01*
D10*
X8892777Y-14421484D02*
X8892777Y-14221484D01*
X8892777Y-14221484D02*
X8940396Y-14221484D01*
X8940396Y-14221484D02*
X8968967Y-14231008D01*
X8968967Y-14231008D02*
X8988015Y-14250055D01*
X8988015Y-14250055D02*
X8997539Y-14269103D01*
X8997539Y-14269103D02*
X9007063Y-14307198D01*
X9007063Y-14307198D02*
X9007063Y-14335769D01*
X9007063Y-14335769D02*
X8997539Y-14373865D01*
X8997539Y-14373865D02*
X8988015Y-14392912D01*
X8988015Y-14392912D02*
X8968967Y-14411960D01*
X8968967Y-14411960D02*
X8940396Y-14421484D01*
X8940396Y-14421484D02*
X8892777Y-14421484D01*
X9092777Y-14421484D02*
X9092777Y-14288150D01*
X9092777Y-14326246D02*
X9102301Y-14307198D01*
X9102301Y-14307198D02*
X9111824Y-14297674D01*
X9111824Y-14297674D02*
X9130872Y-14288150D01*
X9130872Y-14288150D02*
X9149920Y-14288150D01*
X9216586Y-14421484D02*
X9216586Y-14288150D01*
X9216586Y-14221484D02*
X9207063Y-14231008D01*
X9207063Y-14231008D02*
X9216586Y-14240531D01*
X9216586Y-14240531D02*
X9226110Y-14231008D01*
X9226110Y-14231008D02*
X9216586Y-14221484D01*
X9216586Y-14221484D02*
X9216586Y-14240531D01*
X9340396Y-14421484D02*
X9321348Y-14411960D01*
X9321348Y-14411960D02*
X9311824Y-14392912D01*
X9311824Y-14392912D02*
X9311824Y-14221484D01*
X9445158Y-14421484D02*
X9426110Y-14411960D01*
X9426110Y-14411960D02*
X9416586Y-14392912D01*
X9416586Y-14392912D02*
X9416586Y-14221484D01*
X9673729Y-14421484D02*
X9673729Y-14221484D01*
X9673729Y-14221484D02*
X9740396Y-14364341D01*
X9740396Y-14364341D02*
X9807063Y-14221484D01*
X9807063Y-14221484D02*
X9807063Y-14421484D01*
X9988015Y-14421484D02*
X9988015Y-14316722D01*
X9988015Y-14316722D02*
X9978491Y-14297674D01*
X9978491Y-14297674D02*
X9959444Y-14288150D01*
X9959444Y-14288150D02*
X9921348Y-14288150D01*
X9921348Y-14288150D02*
X9902301Y-14297674D01*
X9988015Y-14411960D02*
X9968967Y-14421484D01*
X9968967Y-14421484D02*
X9921348Y-14421484D01*
X9921348Y-14421484D02*
X9902301Y-14411960D01*
X9902301Y-14411960D02*
X9892777Y-14392912D01*
X9892777Y-14392912D02*
X9892777Y-14373865D01*
X9892777Y-14373865D02*
X9902301Y-14354817D01*
X9902301Y-14354817D02*
X9921348Y-14345293D01*
X9921348Y-14345293D02*
X9968967Y-14345293D01*
X9968967Y-14345293D02*
X9988015Y-14335769D01*
X10083253Y-14288150D02*
X10083253Y-14488150D01*
X10083253Y-14297674D02*
X10102301Y-14288150D01*
X10102301Y-14288150D02*
X10140396Y-14288150D01*
X10140396Y-14288150D02*
X10159444Y-14297674D01*
X10159444Y-14297674D02*
X10168967Y-14307198D01*
X10168967Y-14307198D02*
X10178491Y-14326246D01*
X10178491Y-14326246D02*
X10178491Y-14383388D01*
X10178491Y-14383388D02*
X10168967Y-14402436D01*
X10168967Y-14402436D02*
X10159444Y-14411960D01*
X10159444Y-14411960D02*
X10140396Y-14421484D01*
X10140396Y-14421484D02*
X10102301Y-14421484D01*
X10102301Y-14421484D02*
X10083253Y-14411960D01*
X10264205Y-14402436D02*
X10273729Y-14411960D01*
X10273729Y-14411960D02*
X10264205Y-14421484D01*
X10264205Y-14421484D02*
X10254682Y-14411960D01*
X10254682Y-14411960D02*
X10264205Y-14402436D01*
X10264205Y-14402436D02*
X10264205Y-14421484D01*
X10264205Y-14297674D02*
X10273729Y-14307198D01*
X10273729Y-14307198D02*
X10264205Y-14316722D01*
X10264205Y-14316722D02*
X10254682Y-14307198D01*
X10254682Y-14307198D02*
X10264205Y-14297674D01*
X10264205Y-14297674D02*
X10264205Y-14316722D01*
D11*
X8612000Y-14740000D02*
X8632000Y-14760000D01*
X8632000Y-14740000D02*
X8612000Y-14760000D01*
D10*
X8930872Y-14641484D02*
X8949920Y-14641484D01*
X8949920Y-14641484D02*
X8968967Y-14651008D01*
X8968967Y-14651008D02*
X8978491Y-14660531D01*
X8978491Y-14660531D02*
X8988015Y-14679579D01*
X8988015Y-14679579D02*
X8997539Y-14717674D01*
X8997539Y-14717674D02*
X8997539Y-14765293D01*
X8997539Y-14765293D02*
X8988015Y-14803388D01*
X8988015Y-14803388D02*
X8978491Y-14822436D01*
X8978491Y-14822436D02*
X8968967Y-14831960D01*
X8968967Y-14831960D02*
X8949920Y-14841484D01*
X8949920Y-14841484D02*
X8930872Y-14841484D01*
X8930872Y-14841484D02*
X8911824Y-14831960D01*
X8911824Y-14831960D02*
X8902301Y-14822436D01*
X8902301Y-14822436D02*
X8892777Y-14803388D01*
X8892777Y-14803388D02*
X8883253Y-14765293D01*
X8883253Y-14765293D02*
X8883253Y-14717674D01*
X8883253Y-14717674D02*
X8892777Y-14679579D01*
X8892777Y-14679579D02*
X8902301Y-14660531D01*
X8902301Y-14660531D02*
X8911824Y-14651008D01*
X8911824Y-14651008D02*
X8930872Y-14641484D01*
X9083253Y-14822436D02*
X9092777Y-14831960D01*
X9092777Y-14831960D02*
X9083253Y-14841484D01*
X9083253Y-14841484D02*
X9073729Y-14831960D01*
X9073729Y-14831960D02*
X9083253Y-14822436D01*
X9083253Y-14822436D02*
X9083253Y-14841484D01*
X9168967Y-14660531D02*
X9178491Y-14651008D01*
X9178491Y-14651008D02*
X9197539Y-14641484D01*
X9197539Y-14641484D02*
X9245158Y-14641484D01*
X9245158Y-14641484D02*
X9264205Y-14651008D01*
X9264205Y-14651008D02*
X9273729Y-14660531D01*
X9273729Y-14660531D02*
X9283253Y-14679579D01*
X9283253Y-14679579D02*
X9283253Y-14698627D01*
X9283253Y-14698627D02*
X9273729Y-14727198D01*
X9273729Y-14727198D02*
X9159444Y-14841484D01*
X9159444Y-14841484D02*
X9283253Y-14841484D01*
X9407063Y-14641484D02*
X9426110Y-14641484D01*
X9426110Y-14641484D02*
X9445158Y-14651008D01*
X9445158Y-14651008D02*
X9454682Y-14660531D01*
X9454682Y-14660531D02*
X9464205Y-14679579D01*
X9464205Y-14679579D02*
X9473729Y-14717674D01*
X9473729Y-14717674D02*
X9473729Y-14765293D01*
X9473729Y-14765293D02*
X9464205Y-14803388D01*
X9464205Y-14803388D02*
X9454682Y-14822436D01*
X9454682Y-14822436D02*
X9445158Y-14831960D01*
X9445158Y-14831960D02*
X9426110Y-14841484D01*
X9426110Y-14841484D02*
X9407063Y-14841484D01*
X9407063Y-14841484D02*
X9388015Y-14831960D01*
X9388015Y-14831960D02*
X9378491Y-14822436D01*
X9378491Y-14822436D02*
X9368967Y-14803388D01*
X9368967Y-14803388D02*
X9359444Y-14765293D01*
X9359444Y-14765293D02*
X9359444Y-14717674D01*
X9359444Y-14717674D02*
X9368967Y-14679579D01*
X9368967Y-14679579D02*
X9378491Y-14660531D01*
X9378491Y-14660531D02*
X9388015Y-14651008D01*
X9388015Y-14651008D02*
X9407063Y-14641484D01*
X9597539Y-14641484D02*
X9616586Y-14641484D01*
X9616586Y-14641484D02*
X9635634Y-14651008D01*
X9635634Y-14651008D02*
X9645158Y-14660531D01*
X9645158Y-14660531D02*
X9654682Y-14679579D01*
X9654682Y-14679579D02*
X9664205Y-14717674D01*
X9664205Y-14717674D02*
X9664205Y-14765293D01*
X9664205Y-14765293D02*
X9654682Y-14803388D01*
X9654682Y-14803388D02*
X9645158Y-14822436D01*
X9645158Y-14822436D02*
X9635634Y-14831960D01*
X9635634Y-14831960D02*
X9616586Y-14841484D01*
X9616586Y-14841484D02*
X9597539Y-14841484D01*
X9597539Y-14841484D02*
X9578491Y-14831960D01*
X9578491Y-14831960D02*
X9568967Y-14822436D01*
X9568967Y-14822436D02*
X9559444Y-14803388D01*
X9559444Y-14803388D02*
X9549920Y-14765293D01*
X9549920Y-14765293D02*
X9549920Y-14717674D01*
X9549920Y-14717674D02*
X9559444Y-14679579D01*
X9559444Y-14679579D02*
X9568967Y-14660531D01*
X9568967Y-14660531D02*
X9578491Y-14651008D01*
X9578491Y-14651008D02*
X9597539Y-14641484D01*
X9749920Y-14841484D02*
X9749920Y-14708150D01*
X9749920Y-14727198D02*
X9759444Y-14717674D01*
X9759444Y-14717674D02*
X9778491Y-14708150D01*
X9778491Y-14708150D02*
X9807063Y-14708150D01*
X9807063Y-14708150D02*
X9826110Y-14717674D01*
X9826110Y-14717674D02*
X9835634Y-14736722D01*
X9835634Y-14736722D02*
X9835634Y-14841484D01*
X9835634Y-14736722D02*
X9845158Y-14717674D01*
X9845158Y-14717674D02*
X9864205Y-14708150D01*
X9864205Y-14708150D02*
X9892777Y-14708150D01*
X9892777Y-14708150D02*
X9911825Y-14717674D01*
X9911825Y-14717674D02*
X9921348Y-14736722D01*
X9921348Y-14736722D02*
X9921348Y-14841484D01*
X10016586Y-14841484D02*
X10016586Y-14708150D01*
X10016586Y-14727198D02*
X10026110Y-14717674D01*
X10026110Y-14717674D02*
X10045158Y-14708150D01*
X10045158Y-14708150D02*
X10073729Y-14708150D01*
X10073729Y-14708150D02*
X10092777Y-14717674D01*
X10092777Y-14717674D02*
X10102301Y-14736722D01*
X10102301Y-14736722D02*
X10102301Y-14841484D01*
X10102301Y-14736722D02*
X10111825Y-14717674D01*
X10111825Y-14717674D02*
X10130872Y-14708150D01*
X10130872Y-14708150D02*
X10159444Y-14708150D01*
X10159444Y-14708150D02*
X10178491Y-14717674D01*
X10178491Y-14717674D02*
X10188015Y-14736722D01*
X10188015Y-14736722D02*
X10188015Y-14841484D01*
X10578491Y-14631960D02*
X10407063Y-14889103D01*
X10835634Y-14641484D02*
X10854682Y-14641484D01*
X10854682Y-14641484D02*
X10873729Y-14651008D01*
X10873729Y-14651008D02*
X10883253Y-14660531D01*
X10883253Y-14660531D02*
X10892777Y-14679579D01*
X10892777Y-14679579D02*
X10902301Y-14717674D01*
X10902301Y-14717674D02*
X10902301Y-14765293D01*
X10902301Y-14765293D02*
X10892777Y-14803388D01*
X10892777Y-14803388D02*
X10883253Y-14822436D01*
X10883253Y-14822436D02*
X10873729Y-14831960D01*
X10873729Y-14831960D02*
X10854682Y-14841484D01*
X10854682Y-14841484D02*
X10835634Y-14841484D01*
X10835634Y-14841484D02*
X10816587Y-14831960D01*
X10816587Y-14831960D02*
X10807063Y-14822436D01*
X10807063Y-14822436D02*
X10797539Y-14803388D01*
X10797539Y-14803388D02*
X10788015Y-14765293D01*
X10788015Y-14765293D02*
X10788015Y-14717674D01*
X10788015Y-14717674D02*
X10797539Y-14679579D01*
X10797539Y-14679579D02*
X10807063Y-14660531D01*
X10807063Y-14660531D02*
X10816587Y-14651008D01*
X10816587Y-14651008D02*
X10835634Y-14641484D01*
X10988015Y-14822436D02*
X10997539Y-14831960D01*
X10997539Y-14831960D02*
X10988015Y-14841484D01*
X10988015Y-14841484D02*
X10978491Y-14831960D01*
X10978491Y-14831960D02*
X10988015Y-14822436D01*
X10988015Y-14822436D02*
X10988015Y-14841484D01*
X11121348Y-14641484D02*
X11140396Y-14641484D01*
X11140396Y-14641484D02*
X11159444Y-14651008D01*
X11159444Y-14651008D02*
X11168968Y-14660531D01*
X11168968Y-14660531D02*
X11178491Y-14679579D01*
X11178491Y-14679579D02*
X11188015Y-14717674D01*
X11188015Y-14717674D02*
X11188015Y-14765293D01*
X11188015Y-14765293D02*
X11178491Y-14803388D01*
X11178491Y-14803388D02*
X11168968Y-14822436D01*
X11168968Y-14822436D02*
X11159444Y-14831960D01*
X11159444Y-14831960D02*
X11140396Y-14841484D01*
X11140396Y-14841484D02*
X11121348Y-14841484D01*
X11121348Y-14841484D02*
X11102301Y-14831960D01*
X11102301Y-14831960D02*
X11092777Y-14822436D01*
X11092777Y-14822436D02*
X11083253Y-14803388D01*
X11083253Y-14803388D02*
X11073729Y-14765293D01*
X11073729Y-14765293D02*
X11073729Y-14717674D01*
X11073729Y-14717674D02*
X11083253Y-14679579D01*
X11083253Y-14679579D02*
X11092777Y-14660531D01*
X11092777Y-14660531D02*
X11102301Y-14651008D01*
X11102301Y-14651008D02*
X11121348Y-14641484D01*
X11311825Y-14641484D02*
X11330872Y-14641484D01*
X11330872Y-14641484D02*
X11349920Y-14651008D01*
X11349920Y-14651008D02*
X11359444Y-14660531D01*
X11359444Y-14660531D02*
X11368967Y-14679579D01*
X11368967Y-14679579D02*
X11378491Y-14717674D01*
X11378491Y-14717674D02*
X11378491Y-14765293D01*
X11378491Y-14765293D02*
X11368967Y-14803388D01*
X11368967Y-14803388D02*
X11359444Y-14822436D01*
X11359444Y-14822436D02*
X11349920Y-14831960D01*
X11349920Y-14831960D02*
X11330872Y-14841484D01*
X11330872Y-14841484D02*
X11311825Y-14841484D01*
X11311825Y-14841484D02*
X11292777Y-14831960D01*
X11292777Y-14831960D02*
X11283253Y-14822436D01*
X11283253Y-14822436D02*
X11273729Y-14803388D01*
X11273729Y-14803388D02*
X11264206Y-14765293D01*
X11264206Y-14765293D02*
X11264206Y-14717674D01*
X11264206Y-14717674D02*
X11273729Y-14679579D01*
X11273729Y-14679579D02*
X11283253Y-14660531D01*
X11283253Y-14660531D02*
X11292777Y-14651008D01*
X11292777Y-14651008D02*
X11311825Y-14641484D01*
X11445158Y-14641484D02*
X11578491Y-14641484D01*
X11578491Y-14641484D02*
X11492777Y-14841484D01*
X11664206Y-14841484D02*
X11702301Y-14841484D01*
X11702301Y-14841484D02*
X11721348Y-14831960D01*
X11721348Y-14831960D02*
X11730872Y-14822436D01*
X11730872Y-14822436D02*
X11749920Y-14793865D01*
X11749920Y-14793865D02*
X11759444Y-14755769D01*
X11759444Y-14755769D02*
X11759444Y-14679579D01*
X11759444Y-14679579D02*
X11749920Y-14660531D01*
X11749920Y-14660531D02*
X11740396Y-14651008D01*
X11740396Y-14651008D02*
X11721348Y-14641484D01*
X11721348Y-14641484D02*
X11683253Y-14641484D01*
X11683253Y-14641484D02*
X11664206Y-14651008D01*
X11664206Y-14651008D02*
X11654682Y-14660531D01*
X11654682Y-14660531D02*
X11645158Y-14679579D01*
X11645158Y-14679579D02*
X11645158Y-14727198D01*
X11645158Y-14727198D02*
X11654682Y-14746246D01*
X11654682Y-14746246D02*
X11664206Y-14755769D01*
X11664206Y-14755769D02*
X11683253Y-14765293D01*
X11683253Y-14765293D02*
X11721348Y-14765293D01*
X11721348Y-14765293D02*
X11740396Y-14755769D01*
X11740396Y-14755769D02*
X11749920Y-14746246D01*
X11749920Y-14746246D02*
X11759444Y-14727198D01*
X11835634Y-14641484D02*
X11835634Y-14679579D01*
X11911825Y-14641484D02*
X11911825Y-14679579D01*
X12207063Y-14917674D02*
X12197539Y-14908150D01*
X12197539Y-14908150D02*
X12178491Y-14879579D01*
X12178491Y-14879579D02*
X12168968Y-14860531D01*
X12168968Y-14860531D02*
X12159444Y-14831960D01*
X12159444Y-14831960D02*
X12149920Y-14784341D01*
X12149920Y-14784341D02*
X12149920Y-14746246D01*
X12149920Y-14746246D02*
X12159444Y-14698627D01*
X12159444Y-14698627D02*
X12168968Y-14670055D01*
X12168968Y-14670055D02*
X12178491Y-14651008D01*
X12178491Y-14651008D02*
X12197539Y-14622436D01*
X12197539Y-14622436D02*
X12207063Y-14612912D01*
X12368968Y-14708150D02*
X12368968Y-14841484D01*
X12321348Y-14631960D02*
X12273729Y-14774817D01*
X12273729Y-14774817D02*
X12397539Y-14774817D01*
X12626110Y-14841484D02*
X12626110Y-14641484D01*
X12711825Y-14841484D02*
X12711825Y-14736722D01*
X12711825Y-14736722D02*
X12702301Y-14717674D01*
X12702301Y-14717674D02*
X12683253Y-14708150D01*
X12683253Y-14708150D02*
X12654682Y-14708150D01*
X12654682Y-14708150D02*
X12635634Y-14717674D01*
X12635634Y-14717674D02*
X12626110Y-14727198D01*
X12835634Y-14841484D02*
X12816587Y-14831960D01*
X12816587Y-14831960D02*
X12807063Y-14822436D01*
X12807063Y-14822436D02*
X12797539Y-14803388D01*
X12797539Y-14803388D02*
X12797539Y-14746246D01*
X12797539Y-14746246D02*
X12807063Y-14727198D01*
X12807063Y-14727198D02*
X12816587Y-14717674D01*
X12816587Y-14717674D02*
X12835634Y-14708150D01*
X12835634Y-14708150D02*
X12864206Y-14708150D01*
X12864206Y-14708150D02*
X12883253Y-14717674D01*
X12883253Y-14717674D02*
X12892777Y-14727198D01*
X12892777Y-14727198D02*
X12902301Y-14746246D01*
X12902301Y-14746246D02*
X12902301Y-14803388D01*
X12902301Y-14803388D02*
X12892777Y-14822436D01*
X12892777Y-14822436D02*
X12883253Y-14831960D01*
X12883253Y-14831960D02*
X12864206Y-14841484D01*
X12864206Y-14841484D02*
X12835634Y-14841484D01*
X13016587Y-14841484D02*
X12997539Y-14831960D01*
X12997539Y-14831960D02*
X12988015Y-14812912D01*
X12988015Y-14812912D02*
X12988015Y-14641484D01*
X13168968Y-14831960D02*
X13149920Y-14841484D01*
X13149920Y-14841484D02*
X13111825Y-14841484D01*
X13111825Y-14841484D02*
X13092777Y-14831960D01*
X13092777Y-14831960D02*
X13083253Y-14812912D01*
X13083253Y-14812912D02*
X13083253Y-14736722D01*
X13083253Y-14736722D02*
X13092777Y-14717674D01*
X13092777Y-14717674D02*
X13111825Y-14708150D01*
X13111825Y-14708150D02*
X13149920Y-14708150D01*
X13149920Y-14708150D02*
X13168968Y-14717674D01*
X13168968Y-14717674D02*
X13178491Y-14736722D01*
X13178491Y-14736722D02*
X13178491Y-14755769D01*
X13178491Y-14755769D02*
X13083253Y-14774817D01*
X13254682Y-14831960D02*
X13273730Y-14841484D01*
X13273730Y-14841484D02*
X13311825Y-14841484D01*
X13311825Y-14841484D02*
X13330872Y-14831960D01*
X13330872Y-14831960D02*
X13340396Y-14812912D01*
X13340396Y-14812912D02*
X13340396Y-14803388D01*
X13340396Y-14803388D02*
X13330872Y-14784341D01*
X13330872Y-14784341D02*
X13311825Y-14774817D01*
X13311825Y-14774817D02*
X13283253Y-14774817D01*
X13283253Y-14774817D02*
X13264206Y-14765293D01*
X13264206Y-14765293D02*
X13254682Y-14746246D01*
X13254682Y-14746246D02*
X13254682Y-14736722D01*
X13254682Y-14736722D02*
X13264206Y-14717674D01*
X13264206Y-14717674D02*
X13283253Y-14708150D01*
X13283253Y-14708150D02*
X13311825Y-14708150D01*
X13311825Y-14708150D02*
X13330872Y-14717674D01*
X13407063Y-14917674D02*
X13416587Y-14908150D01*
X13416587Y-14908150D02*
X13435634Y-14879579D01*
X13435634Y-14879579D02*
X13445158Y-14860531D01*
X13445158Y-14860531D02*
X13454682Y-14831960D01*
X13454682Y-14831960D02*
X13464206Y-14784341D01*
X13464206Y-14784341D02*
X13464206Y-14746246D01*
X13464206Y-14746246D02*
X13454682Y-14698627D01*
X13454682Y-14698627D02*
X13445158Y-14670055D01*
X13445158Y-14670055D02*
X13435634Y-14651008D01*
X13435634Y-14651008D02*
X13416587Y-14622436D01*
X13416587Y-14622436D02*
X13407063Y-14612912D01*
D11*
X8632000Y-15014000D02*
G75*
G03*
X8607000Y-15014000I-12500J0D01*
G01*
X8607000Y-15014000D02*
G75*
G03*
X8632000Y-15014000I12500J0D01*
G01*
D10*
X8930872Y-14905484D02*
X8949920Y-14905484D01*
X8949920Y-14905484D02*
X8968967Y-14915008D01*
X8968967Y-14915008D02*
X8978491Y-14924531D01*
X8978491Y-14924531D02*
X8988015Y-14943579D01*
X8988015Y-14943579D02*
X8997539Y-14981674D01*
X8997539Y-14981674D02*
X8997539Y-15029293D01*
X8997539Y-15029293D02*
X8988015Y-15067388D01*
X8988015Y-15067388D02*
X8978491Y-15086436D01*
X8978491Y-15086436D02*
X8968967Y-15095960D01*
X8968967Y-15095960D02*
X8949920Y-15105484D01*
X8949920Y-15105484D02*
X8930872Y-15105484D01*
X8930872Y-15105484D02*
X8911824Y-15095960D01*
X8911824Y-15095960D02*
X8902301Y-15086436D01*
X8902301Y-15086436D02*
X8892777Y-15067388D01*
X8892777Y-15067388D02*
X8883253Y-15029293D01*
X8883253Y-15029293D02*
X8883253Y-14981674D01*
X8883253Y-14981674D02*
X8892777Y-14943579D01*
X8892777Y-14943579D02*
X8902301Y-14924531D01*
X8902301Y-14924531D02*
X8911824Y-14915008D01*
X8911824Y-14915008D02*
X8930872Y-14905484D01*
X9083253Y-15086436D02*
X9092777Y-15095960D01*
X9092777Y-15095960D02*
X9083253Y-15105484D01*
X9083253Y-15105484D02*
X9073729Y-15095960D01*
X9073729Y-15095960D02*
X9083253Y-15086436D01*
X9083253Y-15086436D02*
X9083253Y-15105484D01*
X9168967Y-14924531D02*
X9178491Y-14915008D01*
X9178491Y-14915008D02*
X9197539Y-14905484D01*
X9197539Y-14905484D02*
X9245158Y-14905484D01*
X9245158Y-14905484D02*
X9264205Y-14915008D01*
X9264205Y-14915008D02*
X9273729Y-14924531D01*
X9273729Y-14924531D02*
X9283253Y-14943579D01*
X9283253Y-14943579D02*
X9283253Y-14962627D01*
X9283253Y-14962627D02*
X9273729Y-14991198D01*
X9273729Y-14991198D02*
X9159444Y-15105484D01*
X9159444Y-15105484D02*
X9283253Y-15105484D01*
X9464205Y-14905484D02*
X9368967Y-14905484D01*
X9368967Y-14905484D02*
X9359444Y-15000722D01*
X9359444Y-15000722D02*
X9368967Y-14991198D01*
X9368967Y-14991198D02*
X9388015Y-14981674D01*
X9388015Y-14981674D02*
X9435634Y-14981674D01*
X9435634Y-14981674D02*
X9454682Y-14991198D01*
X9454682Y-14991198D02*
X9464205Y-15000722D01*
X9464205Y-15000722D02*
X9473729Y-15019769D01*
X9473729Y-15019769D02*
X9473729Y-15067388D01*
X9473729Y-15067388D02*
X9464205Y-15086436D01*
X9464205Y-15086436D02*
X9454682Y-15095960D01*
X9454682Y-15095960D02*
X9435634Y-15105484D01*
X9435634Y-15105484D02*
X9388015Y-15105484D01*
X9388015Y-15105484D02*
X9368967Y-15095960D01*
X9368967Y-15095960D02*
X9359444Y-15086436D01*
X9597539Y-14905484D02*
X9616586Y-14905484D01*
X9616586Y-14905484D02*
X9635634Y-14915008D01*
X9635634Y-14915008D02*
X9645158Y-14924531D01*
X9645158Y-14924531D02*
X9654682Y-14943579D01*
X9654682Y-14943579D02*
X9664205Y-14981674D01*
X9664205Y-14981674D02*
X9664205Y-15029293D01*
X9664205Y-15029293D02*
X9654682Y-15067388D01*
X9654682Y-15067388D02*
X9645158Y-15086436D01*
X9645158Y-15086436D02*
X9635634Y-15095960D01*
X9635634Y-15095960D02*
X9616586Y-15105484D01*
X9616586Y-15105484D02*
X9597539Y-15105484D01*
X9597539Y-15105484D02*
X9578491Y-15095960D01*
X9578491Y-15095960D02*
X9568967Y-15086436D01*
X9568967Y-15086436D02*
X9559444Y-15067388D01*
X9559444Y-15067388D02*
X9549920Y-15029293D01*
X9549920Y-15029293D02*
X9549920Y-14981674D01*
X9549920Y-14981674D02*
X9559444Y-14943579D01*
X9559444Y-14943579D02*
X9568967Y-14924531D01*
X9568967Y-14924531D02*
X9578491Y-14915008D01*
X9578491Y-14915008D02*
X9597539Y-14905484D01*
X9749920Y-15105484D02*
X9749920Y-14972150D01*
X9749920Y-14991198D02*
X9759444Y-14981674D01*
X9759444Y-14981674D02*
X9778491Y-14972150D01*
X9778491Y-14972150D02*
X9807063Y-14972150D01*
X9807063Y-14972150D02*
X9826110Y-14981674D01*
X9826110Y-14981674D02*
X9835634Y-15000722D01*
X9835634Y-15000722D02*
X9835634Y-15105484D01*
X9835634Y-15000722D02*
X9845158Y-14981674D01*
X9845158Y-14981674D02*
X9864205Y-14972150D01*
X9864205Y-14972150D02*
X9892777Y-14972150D01*
X9892777Y-14972150D02*
X9911825Y-14981674D01*
X9911825Y-14981674D02*
X9921348Y-15000722D01*
X9921348Y-15000722D02*
X9921348Y-15105484D01*
X10016586Y-15105484D02*
X10016586Y-14972150D01*
X10016586Y-14991198D02*
X10026110Y-14981674D01*
X10026110Y-14981674D02*
X10045158Y-14972150D01*
X10045158Y-14972150D02*
X10073729Y-14972150D01*
X10073729Y-14972150D02*
X10092777Y-14981674D01*
X10092777Y-14981674D02*
X10102301Y-15000722D01*
X10102301Y-15000722D02*
X10102301Y-15105484D01*
X10102301Y-15000722D02*
X10111825Y-14981674D01*
X10111825Y-14981674D02*
X10130872Y-14972150D01*
X10130872Y-14972150D02*
X10159444Y-14972150D01*
X10159444Y-14972150D02*
X10178491Y-14981674D01*
X10178491Y-14981674D02*
X10188015Y-15000722D01*
X10188015Y-15000722D02*
X10188015Y-15105484D01*
X10578491Y-14895960D02*
X10407063Y-15153103D01*
X10835634Y-14905484D02*
X10854682Y-14905484D01*
X10854682Y-14905484D02*
X10873729Y-14915008D01*
X10873729Y-14915008D02*
X10883253Y-14924531D01*
X10883253Y-14924531D02*
X10892777Y-14943579D01*
X10892777Y-14943579D02*
X10902301Y-14981674D01*
X10902301Y-14981674D02*
X10902301Y-15029293D01*
X10902301Y-15029293D02*
X10892777Y-15067388D01*
X10892777Y-15067388D02*
X10883253Y-15086436D01*
X10883253Y-15086436D02*
X10873729Y-15095960D01*
X10873729Y-15095960D02*
X10854682Y-15105484D01*
X10854682Y-15105484D02*
X10835634Y-15105484D01*
X10835634Y-15105484D02*
X10816587Y-15095960D01*
X10816587Y-15095960D02*
X10807063Y-15086436D01*
X10807063Y-15086436D02*
X10797539Y-15067388D01*
X10797539Y-15067388D02*
X10788015Y-15029293D01*
X10788015Y-15029293D02*
X10788015Y-14981674D01*
X10788015Y-14981674D02*
X10797539Y-14943579D01*
X10797539Y-14943579D02*
X10807063Y-14924531D01*
X10807063Y-14924531D02*
X10816587Y-14915008D01*
X10816587Y-14915008D02*
X10835634Y-14905484D01*
X10988015Y-15086436D02*
X10997539Y-15095960D01*
X10997539Y-15095960D02*
X10988015Y-15105484D01*
X10988015Y-15105484D02*
X10978491Y-15095960D01*
X10978491Y-15095960D02*
X10988015Y-15086436D01*
X10988015Y-15086436D02*
X10988015Y-15105484D01*
X11121348Y-14905484D02*
X11140396Y-14905484D01*
X11140396Y-14905484D02*
X11159444Y-14915008D01*
X11159444Y-14915008D02*
X11168968Y-14924531D01*
X11168968Y-14924531D02*
X11178491Y-14943579D01*
X11178491Y-14943579D02*
X11188015Y-14981674D01*
X11188015Y-14981674D02*
X11188015Y-15029293D01*
X11188015Y-15029293D02*
X11178491Y-15067388D01*
X11178491Y-15067388D02*
X11168968Y-15086436D01*
X11168968Y-15086436D02*
X11159444Y-15095960D01*
X11159444Y-15095960D02*
X11140396Y-15105484D01*
X11140396Y-15105484D02*
X11121348Y-15105484D01*
X11121348Y-15105484D02*
X11102301Y-15095960D01*
X11102301Y-15095960D02*
X11092777Y-15086436D01*
X11092777Y-15086436D02*
X11083253Y-15067388D01*
X11083253Y-15067388D02*
X11073729Y-15029293D01*
X11073729Y-15029293D02*
X11073729Y-14981674D01*
X11073729Y-14981674D02*
X11083253Y-14943579D01*
X11083253Y-14943579D02*
X11092777Y-14924531D01*
X11092777Y-14924531D02*
X11102301Y-14915008D01*
X11102301Y-14915008D02*
X11121348Y-14905484D01*
X11311825Y-14905484D02*
X11330872Y-14905484D01*
X11330872Y-14905484D02*
X11349920Y-14915008D01*
X11349920Y-14915008D02*
X11359444Y-14924531D01*
X11359444Y-14924531D02*
X11368967Y-14943579D01*
X11368967Y-14943579D02*
X11378491Y-14981674D01*
X11378491Y-14981674D02*
X11378491Y-15029293D01*
X11378491Y-15029293D02*
X11368967Y-15067388D01*
X11368967Y-15067388D02*
X11359444Y-15086436D01*
X11359444Y-15086436D02*
X11349920Y-15095960D01*
X11349920Y-15095960D02*
X11330872Y-15105484D01*
X11330872Y-15105484D02*
X11311825Y-15105484D01*
X11311825Y-15105484D02*
X11292777Y-15095960D01*
X11292777Y-15095960D02*
X11283253Y-15086436D01*
X11283253Y-15086436D02*
X11273729Y-15067388D01*
X11273729Y-15067388D02*
X11264206Y-15029293D01*
X11264206Y-15029293D02*
X11264206Y-14981674D01*
X11264206Y-14981674D02*
X11273729Y-14943579D01*
X11273729Y-14943579D02*
X11283253Y-14924531D01*
X11283253Y-14924531D02*
X11292777Y-14915008D01*
X11292777Y-14915008D02*
X11311825Y-14905484D01*
X11473729Y-15105484D02*
X11511825Y-15105484D01*
X11511825Y-15105484D02*
X11530872Y-15095960D01*
X11530872Y-15095960D02*
X11540396Y-15086436D01*
X11540396Y-15086436D02*
X11559444Y-15057865D01*
X11559444Y-15057865D02*
X11568967Y-15019769D01*
X11568967Y-15019769D02*
X11568967Y-14943579D01*
X11568967Y-14943579D02*
X11559444Y-14924531D01*
X11559444Y-14924531D02*
X11549920Y-14915008D01*
X11549920Y-14915008D02*
X11530872Y-14905484D01*
X11530872Y-14905484D02*
X11492777Y-14905484D01*
X11492777Y-14905484D02*
X11473729Y-14915008D01*
X11473729Y-14915008D02*
X11464206Y-14924531D01*
X11464206Y-14924531D02*
X11454682Y-14943579D01*
X11454682Y-14943579D02*
X11454682Y-14991198D01*
X11454682Y-14991198D02*
X11464206Y-15010246D01*
X11464206Y-15010246D02*
X11473729Y-15019769D01*
X11473729Y-15019769D02*
X11492777Y-15029293D01*
X11492777Y-15029293D02*
X11530872Y-15029293D01*
X11530872Y-15029293D02*
X11549920Y-15019769D01*
X11549920Y-15019769D02*
X11559444Y-15010246D01*
X11559444Y-15010246D02*
X11568967Y-14991198D01*
X11683253Y-14991198D02*
X11664206Y-14981674D01*
X11664206Y-14981674D02*
X11654682Y-14972150D01*
X11654682Y-14972150D02*
X11645158Y-14953103D01*
X11645158Y-14953103D02*
X11645158Y-14943579D01*
X11645158Y-14943579D02*
X11654682Y-14924531D01*
X11654682Y-14924531D02*
X11664206Y-14915008D01*
X11664206Y-14915008D02*
X11683253Y-14905484D01*
X11683253Y-14905484D02*
X11721348Y-14905484D01*
X11721348Y-14905484D02*
X11740396Y-14915008D01*
X11740396Y-14915008D02*
X11749920Y-14924531D01*
X11749920Y-14924531D02*
X11759444Y-14943579D01*
X11759444Y-14943579D02*
X11759444Y-14953103D01*
X11759444Y-14953103D02*
X11749920Y-14972150D01*
X11749920Y-14972150D02*
X11740396Y-14981674D01*
X11740396Y-14981674D02*
X11721348Y-14991198D01*
X11721348Y-14991198D02*
X11683253Y-14991198D01*
X11683253Y-14991198D02*
X11664206Y-15000722D01*
X11664206Y-15000722D02*
X11654682Y-15010246D01*
X11654682Y-15010246D02*
X11645158Y-15029293D01*
X11645158Y-15029293D02*
X11645158Y-15067388D01*
X11645158Y-15067388D02*
X11654682Y-15086436D01*
X11654682Y-15086436D02*
X11664206Y-15095960D01*
X11664206Y-15095960D02*
X11683253Y-15105484D01*
X11683253Y-15105484D02*
X11721348Y-15105484D01*
X11721348Y-15105484D02*
X11740396Y-15095960D01*
X11740396Y-15095960D02*
X11749920Y-15086436D01*
X11749920Y-15086436D02*
X11759444Y-15067388D01*
X11759444Y-15067388D02*
X11759444Y-15029293D01*
X11759444Y-15029293D02*
X11749920Y-15010246D01*
X11749920Y-15010246D02*
X11740396Y-15000722D01*
X11740396Y-15000722D02*
X11721348Y-14991198D01*
X11835634Y-14905484D02*
X11835634Y-14943579D01*
X11911825Y-14905484D02*
X11911825Y-14943579D01*
X12207063Y-15181674D02*
X12197539Y-15172150D01*
X12197539Y-15172150D02*
X12178491Y-15143579D01*
X12178491Y-15143579D02*
X12168968Y-15124531D01*
X12168968Y-15124531D02*
X12159444Y-15095960D01*
X12159444Y-15095960D02*
X12149920Y-15048341D01*
X12149920Y-15048341D02*
X12149920Y-15010246D01*
X12149920Y-15010246D02*
X12159444Y-14962627D01*
X12159444Y-14962627D02*
X12168968Y-14934055D01*
X12168968Y-14934055D02*
X12178491Y-14915008D01*
X12178491Y-14915008D02*
X12197539Y-14886436D01*
X12197539Y-14886436D02*
X12207063Y-14876912D01*
X12368968Y-14972150D02*
X12368968Y-15105484D01*
X12321348Y-14895960D02*
X12273729Y-15038817D01*
X12273729Y-15038817D02*
X12397539Y-15038817D01*
X12626110Y-15105484D02*
X12626110Y-14905484D01*
X12711825Y-15105484D02*
X12711825Y-15000722D01*
X12711825Y-15000722D02*
X12702301Y-14981674D01*
X12702301Y-14981674D02*
X12683253Y-14972150D01*
X12683253Y-14972150D02*
X12654682Y-14972150D01*
X12654682Y-14972150D02*
X12635634Y-14981674D01*
X12635634Y-14981674D02*
X12626110Y-14991198D01*
X12835634Y-15105484D02*
X12816587Y-15095960D01*
X12816587Y-15095960D02*
X12807063Y-15086436D01*
X12807063Y-15086436D02*
X12797539Y-15067388D01*
X12797539Y-15067388D02*
X12797539Y-15010246D01*
X12797539Y-15010246D02*
X12807063Y-14991198D01*
X12807063Y-14991198D02*
X12816587Y-14981674D01*
X12816587Y-14981674D02*
X12835634Y-14972150D01*
X12835634Y-14972150D02*
X12864206Y-14972150D01*
X12864206Y-14972150D02*
X12883253Y-14981674D01*
X12883253Y-14981674D02*
X12892777Y-14991198D01*
X12892777Y-14991198D02*
X12902301Y-15010246D01*
X12902301Y-15010246D02*
X12902301Y-15067388D01*
X12902301Y-15067388D02*
X12892777Y-15086436D01*
X12892777Y-15086436D02*
X12883253Y-15095960D01*
X12883253Y-15095960D02*
X12864206Y-15105484D01*
X12864206Y-15105484D02*
X12835634Y-15105484D01*
X13016587Y-15105484D02*
X12997539Y-15095960D01*
X12997539Y-15095960D02*
X12988015Y-15076912D01*
X12988015Y-15076912D02*
X12988015Y-14905484D01*
X13168968Y-15095960D02*
X13149920Y-15105484D01*
X13149920Y-15105484D02*
X13111825Y-15105484D01*
X13111825Y-15105484D02*
X13092777Y-15095960D01*
X13092777Y-15095960D02*
X13083253Y-15076912D01*
X13083253Y-15076912D02*
X13083253Y-15000722D01*
X13083253Y-15000722D02*
X13092777Y-14981674D01*
X13092777Y-14981674D02*
X13111825Y-14972150D01*
X13111825Y-14972150D02*
X13149920Y-14972150D01*
X13149920Y-14972150D02*
X13168968Y-14981674D01*
X13168968Y-14981674D02*
X13178491Y-15000722D01*
X13178491Y-15000722D02*
X13178491Y-15019769D01*
X13178491Y-15019769D02*
X13083253Y-15038817D01*
X13254682Y-15095960D02*
X13273730Y-15105484D01*
X13273730Y-15105484D02*
X13311825Y-15105484D01*
X13311825Y-15105484D02*
X13330872Y-15095960D01*
X13330872Y-15095960D02*
X13340396Y-15076912D01*
X13340396Y-15076912D02*
X13340396Y-15067388D01*
X13340396Y-15067388D02*
X13330872Y-15048341D01*
X13330872Y-15048341D02*
X13311825Y-15038817D01*
X13311825Y-15038817D02*
X13283253Y-15038817D01*
X13283253Y-15038817D02*
X13264206Y-15029293D01*
X13264206Y-15029293D02*
X13254682Y-15010246D01*
X13254682Y-15010246D02*
X13254682Y-15000722D01*
X13254682Y-15000722D02*
X13264206Y-14981674D01*
X13264206Y-14981674D02*
X13283253Y-14972150D01*
X13283253Y-14972150D02*
X13311825Y-14972150D01*
X13311825Y-14972150D02*
X13330872Y-14981674D01*
X13407063Y-15181674D02*
X13416587Y-15172150D01*
X13416587Y-15172150D02*
X13435634Y-15143579D01*
X13435634Y-15143579D02*
X13445158Y-15124531D01*
X13445158Y-15124531D02*
X13454682Y-15095960D01*
X13454682Y-15095960D02*
X13464206Y-15048341D01*
X13464206Y-15048341D02*
X13464206Y-15010246D01*
X13464206Y-15010246D02*
X13454682Y-14962627D01*
X13454682Y-14962627D02*
X13445158Y-14934055D01*
X13445158Y-14934055D02*
X13435634Y-14915008D01*
X13435634Y-14915008D02*
X13416587Y-14886436D01*
X13416587Y-14886436D02*
X13407063Y-14876912D01*
D11*
X8612000Y-15258000D02*
X8612000Y-15298000D01*
X8592000Y-15278000D02*
X8632000Y-15278000D01*
D10*
X8930872Y-15169484D02*
X8949920Y-15169484D01*
X8949920Y-15169484D02*
X8968967Y-15179008D01*
X8968967Y-15179008D02*
X8978491Y-15188531D01*
X8978491Y-15188531D02*
X8988015Y-15207579D01*
X8988015Y-15207579D02*
X8997539Y-15245674D01*
X8997539Y-15245674D02*
X8997539Y-15293293D01*
X8997539Y-15293293D02*
X8988015Y-15331388D01*
X8988015Y-15331388D02*
X8978491Y-15350436D01*
X8978491Y-15350436D02*
X8968967Y-15359960D01*
X8968967Y-15359960D02*
X8949920Y-15369484D01*
X8949920Y-15369484D02*
X8930872Y-15369484D01*
X8930872Y-15369484D02*
X8911824Y-15359960D01*
X8911824Y-15359960D02*
X8902301Y-15350436D01*
X8902301Y-15350436D02*
X8892777Y-15331388D01*
X8892777Y-15331388D02*
X8883253Y-15293293D01*
X8883253Y-15293293D02*
X8883253Y-15245674D01*
X8883253Y-15245674D02*
X8892777Y-15207579D01*
X8892777Y-15207579D02*
X8902301Y-15188531D01*
X8902301Y-15188531D02*
X8911824Y-15179008D01*
X8911824Y-15179008D02*
X8930872Y-15169484D01*
X9083253Y-15350436D02*
X9092777Y-15359960D01*
X9092777Y-15359960D02*
X9083253Y-15369484D01*
X9083253Y-15369484D02*
X9073729Y-15359960D01*
X9073729Y-15359960D02*
X9083253Y-15350436D01*
X9083253Y-15350436D02*
X9083253Y-15369484D01*
X9264205Y-15236150D02*
X9264205Y-15369484D01*
X9216586Y-15159960D02*
X9168967Y-15302817D01*
X9168967Y-15302817D02*
X9292777Y-15302817D01*
X9407063Y-15169484D02*
X9426110Y-15169484D01*
X9426110Y-15169484D02*
X9445158Y-15179008D01*
X9445158Y-15179008D02*
X9454682Y-15188531D01*
X9454682Y-15188531D02*
X9464205Y-15207579D01*
X9464205Y-15207579D02*
X9473729Y-15245674D01*
X9473729Y-15245674D02*
X9473729Y-15293293D01*
X9473729Y-15293293D02*
X9464205Y-15331388D01*
X9464205Y-15331388D02*
X9454682Y-15350436D01*
X9454682Y-15350436D02*
X9445158Y-15359960D01*
X9445158Y-15359960D02*
X9426110Y-15369484D01*
X9426110Y-15369484D02*
X9407063Y-15369484D01*
X9407063Y-15369484D02*
X9388015Y-15359960D01*
X9388015Y-15359960D02*
X9378491Y-15350436D01*
X9378491Y-15350436D02*
X9368967Y-15331388D01*
X9368967Y-15331388D02*
X9359444Y-15293293D01*
X9359444Y-15293293D02*
X9359444Y-15245674D01*
X9359444Y-15245674D02*
X9368967Y-15207579D01*
X9368967Y-15207579D02*
X9378491Y-15188531D01*
X9378491Y-15188531D02*
X9388015Y-15179008D01*
X9388015Y-15179008D02*
X9407063Y-15169484D01*
X9597539Y-15169484D02*
X9616586Y-15169484D01*
X9616586Y-15169484D02*
X9635634Y-15179008D01*
X9635634Y-15179008D02*
X9645158Y-15188531D01*
X9645158Y-15188531D02*
X9654682Y-15207579D01*
X9654682Y-15207579D02*
X9664205Y-15245674D01*
X9664205Y-15245674D02*
X9664205Y-15293293D01*
X9664205Y-15293293D02*
X9654682Y-15331388D01*
X9654682Y-15331388D02*
X9645158Y-15350436D01*
X9645158Y-15350436D02*
X9635634Y-15359960D01*
X9635634Y-15359960D02*
X9616586Y-15369484D01*
X9616586Y-15369484D02*
X9597539Y-15369484D01*
X9597539Y-15369484D02*
X9578491Y-15359960D01*
X9578491Y-15359960D02*
X9568967Y-15350436D01*
X9568967Y-15350436D02*
X9559444Y-15331388D01*
X9559444Y-15331388D02*
X9549920Y-15293293D01*
X9549920Y-15293293D02*
X9549920Y-15245674D01*
X9549920Y-15245674D02*
X9559444Y-15207579D01*
X9559444Y-15207579D02*
X9568967Y-15188531D01*
X9568967Y-15188531D02*
X9578491Y-15179008D01*
X9578491Y-15179008D02*
X9597539Y-15169484D01*
X9749920Y-15369484D02*
X9749920Y-15236150D01*
X9749920Y-15255198D02*
X9759444Y-15245674D01*
X9759444Y-15245674D02*
X9778491Y-15236150D01*
X9778491Y-15236150D02*
X9807063Y-15236150D01*
X9807063Y-15236150D02*
X9826110Y-15245674D01*
X9826110Y-15245674D02*
X9835634Y-15264722D01*
X9835634Y-15264722D02*
X9835634Y-15369484D01*
X9835634Y-15264722D02*
X9845158Y-15245674D01*
X9845158Y-15245674D02*
X9864205Y-15236150D01*
X9864205Y-15236150D02*
X9892777Y-15236150D01*
X9892777Y-15236150D02*
X9911825Y-15245674D01*
X9911825Y-15245674D02*
X9921348Y-15264722D01*
X9921348Y-15264722D02*
X9921348Y-15369484D01*
X10016586Y-15369484D02*
X10016586Y-15236150D01*
X10016586Y-15255198D02*
X10026110Y-15245674D01*
X10026110Y-15245674D02*
X10045158Y-15236150D01*
X10045158Y-15236150D02*
X10073729Y-15236150D01*
X10073729Y-15236150D02*
X10092777Y-15245674D01*
X10092777Y-15245674D02*
X10102301Y-15264722D01*
X10102301Y-15264722D02*
X10102301Y-15369484D01*
X10102301Y-15264722D02*
X10111825Y-15245674D01*
X10111825Y-15245674D02*
X10130872Y-15236150D01*
X10130872Y-15236150D02*
X10159444Y-15236150D01*
X10159444Y-15236150D02*
X10178491Y-15245674D01*
X10178491Y-15245674D02*
X10188015Y-15264722D01*
X10188015Y-15264722D02*
X10188015Y-15369484D01*
X10578491Y-15159960D02*
X10407063Y-15417103D01*
X10835634Y-15169484D02*
X10854682Y-15169484D01*
X10854682Y-15169484D02*
X10873729Y-15179008D01*
X10873729Y-15179008D02*
X10883253Y-15188531D01*
X10883253Y-15188531D02*
X10892777Y-15207579D01*
X10892777Y-15207579D02*
X10902301Y-15245674D01*
X10902301Y-15245674D02*
X10902301Y-15293293D01*
X10902301Y-15293293D02*
X10892777Y-15331388D01*
X10892777Y-15331388D02*
X10883253Y-15350436D01*
X10883253Y-15350436D02*
X10873729Y-15359960D01*
X10873729Y-15359960D02*
X10854682Y-15369484D01*
X10854682Y-15369484D02*
X10835634Y-15369484D01*
X10835634Y-15369484D02*
X10816587Y-15359960D01*
X10816587Y-15359960D02*
X10807063Y-15350436D01*
X10807063Y-15350436D02*
X10797539Y-15331388D01*
X10797539Y-15331388D02*
X10788015Y-15293293D01*
X10788015Y-15293293D02*
X10788015Y-15245674D01*
X10788015Y-15245674D02*
X10797539Y-15207579D01*
X10797539Y-15207579D02*
X10807063Y-15188531D01*
X10807063Y-15188531D02*
X10816587Y-15179008D01*
X10816587Y-15179008D02*
X10835634Y-15169484D01*
X10988015Y-15350436D02*
X10997539Y-15359960D01*
X10997539Y-15359960D02*
X10988015Y-15369484D01*
X10988015Y-15369484D02*
X10978491Y-15359960D01*
X10978491Y-15359960D02*
X10988015Y-15350436D01*
X10988015Y-15350436D02*
X10988015Y-15369484D01*
X11121348Y-15169484D02*
X11140396Y-15169484D01*
X11140396Y-15169484D02*
X11159444Y-15179008D01*
X11159444Y-15179008D02*
X11168968Y-15188531D01*
X11168968Y-15188531D02*
X11178491Y-15207579D01*
X11178491Y-15207579D02*
X11188015Y-15245674D01*
X11188015Y-15245674D02*
X11188015Y-15293293D01*
X11188015Y-15293293D02*
X11178491Y-15331388D01*
X11178491Y-15331388D02*
X11168968Y-15350436D01*
X11168968Y-15350436D02*
X11159444Y-15359960D01*
X11159444Y-15359960D02*
X11140396Y-15369484D01*
X11140396Y-15369484D02*
X11121348Y-15369484D01*
X11121348Y-15369484D02*
X11102301Y-15359960D01*
X11102301Y-15359960D02*
X11092777Y-15350436D01*
X11092777Y-15350436D02*
X11083253Y-15331388D01*
X11083253Y-15331388D02*
X11073729Y-15293293D01*
X11073729Y-15293293D02*
X11073729Y-15245674D01*
X11073729Y-15245674D02*
X11083253Y-15207579D01*
X11083253Y-15207579D02*
X11092777Y-15188531D01*
X11092777Y-15188531D02*
X11102301Y-15179008D01*
X11102301Y-15179008D02*
X11121348Y-15169484D01*
X11378491Y-15369484D02*
X11264206Y-15369484D01*
X11321348Y-15369484D02*
X11321348Y-15169484D01*
X11321348Y-15169484D02*
X11302301Y-15198055D01*
X11302301Y-15198055D02*
X11283253Y-15217103D01*
X11283253Y-15217103D02*
X11264206Y-15226627D01*
X11559444Y-15169484D02*
X11464206Y-15169484D01*
X11464206Y-15169484D02*
X11454682Y-15264722D01*
X11454682Y-15264722D02*
X11464206Y-15255198D01*
X11464206Y-15255198D02*
X11483253Y-15245674D01*
X11483253Y-15245674D02*
X11530872Y-15245674D01*
X11530872Y-15245674D02*
X11549920Y-15255198D01*
X11549920Y-15255198D02*
X11559444Y-15264722D01*
X11559444Y-15264722D02*
X11568967Y-15283769D01*
X11568967Y-15283769D02*
X11568967Y-15331388D01*
X11568967Y-15331388D02*
X11559444Y-15350436D01*
X11559444Y-15350436D02*
X11549920Y-15359960D01*
X11549920Y-15359960D02*
X11530872Y-15369484D01*
X11530872Y-15369484D02*
X11483253Y-15369484D01*
X11483253Y-15369484D02*
X11464206Y-15359960D01*
X11464206Y-15359960D02*
X11454682Y-15350436D01*
X11635634Y-15169484D02*
X11768967Y-15169484D01*
X11768967Y-15169484D02*
X11683253Y-15369484D01*
X11835634Y-15169484D02*
X11835634Y-15207579D01*
X11911825Y-15169484D02*
X11911825Y-15207579D01*
X12207063Y-15445674D02*
X12197539Y-15436150D01*
X12197539Y-15436150D02*
X12178491Y-15407579D01*
X12178491Y-15407579D02*
X12168968Y-15388531D01*
X12168968Y-15388531D02*
X12159444Y-15359960D01*
X12159444Y-15359960D02*
X12149920Y-15312341D01*
X12149920Y-15312341D02*
X12149920Y-15274246D01*
X12149920Y-15274246D02*
X12159444Y-15226627D01*
X12159444Y-15226627D02*
X12168968Y-15198055D01*
X12168968Y-15198055D02*
X12178491Y-15179008D01*
X12178491Y-15179008D02*
X12197539Y-15150436D01*
X12197539Y-15150436D02*
X12207063Y-15140912D01*
X12388015Y-15369484D02*
X12273729Y-15369484D01*
X12330872Y-15369484D02*
X12330872Y-15169484D01*
X12330872Y-15169484D02*
X12311825Y-15198055D01*
X12311825Y-15198055D02*
X12292777Y-15217103D01*
X12292777Y-15217103D02*
X12273729Y-15226627D01*
X12578491Y-15369484D02*
X12464206Y-15369484D01*
X12521348Y-15369484D02*
X12521348Y-15169484D01*
X12521348Y-15169484D02*
X12502301Y-15198055D01*
X12502301Y-15198055D02*
X12483253Y-15217103D01*
X12483253Y-15217103D02*
X12464206Y-15226627D01*
X12692777Y-15255198D02*
X12673729Y-15245674D01*
X12673729Y-15245674D02*
X12664206Y-15236150D01*
X12664206Y-15236150D02*
X12654682Y-15217103D01*
X12654682Y-15217103D02*
X12654682Y-15207579D01*
X12654682Y-15207579D02*
X12664206Y-15188531D01*
X12664206Y-15188531D02*
X12673729Y-15179008D01*
X12673729Y-15179008D02*
X12692777Y-15169484D01*
X12692777Y-15169484D02*
X12730872Y-15169484D01*
X12730872Y-15169484D02*
X12749920Y-15179008D01*
X12749920Y-15179008D02*
X12759444Y-15188531D01*
X12759444Y-15188531D02*
X12768968Y-15207579D01*
X12768968Y-15207579D02*
X12768968Y-15217103D01*
X12768968Y-15217103D02*
X12759444Y-15236150D01*
X12759444Y-15236150D02*
X12749920Y-15245674D01*
X12749920Y-15245674D02*
X12730872Y-15255198D01*
X12730872Y-15255198D02*
X12692777Y-15255198D01*
X12692777Y-15255198D02*
X12673729Y-15264722D01*
X12673729Y-15264722D02*
X12664206Y-15274246D01*
X12664206Y-15274246D02*
X12654682Y-15293293D01*
X12654682Y-15293293D02*
X12654682Y-15331388D01*
X12654682Y-15331388D02*
X12664206Y-15350436D01*
X12664206Y-15350436D02*
X12673729Y-15359960D01*
X12673729Y-15359960D02*
X12692777Y-15369484D01*
X12692777Y-15369484D02*
X12730872Y-15369484D01*
X12730872Y-15369484D02*
X12749920Y-15359960D01*
X12749920Y-15359960D02*
X12759444Y-15350436D01*
X12759444Y-15350436D02*
X12768968Y-15331388D01*
X12768968Y-15331388D02*
X12768968Y-15293293D01*
X12768968Y-15293293D02*
X12759444Y-15274246D01*
X12759444Y-15274246D02*
X12749920Y-15264722D01*
X12749920Y-15264722D02*
X12730872Y-15255198D01*
X13007063Y-15369484D02*
X13007063Y-15169484D01*
X13092777Y-15369484D02*
X13092777Y-15264722D01*
X13092777Y-15264722D02*
X13083253Y-15245674D01*
X13083253Y-15245674D02*
X13064206Y-15236150D01*
X13064206Y-15236150D02*
X13035634Y-15236150D01*
X13035634Y-15236150D02*
X13016587Y-15245674D01*
X13016587Y-15245674D02*
X13007063Y-15255198D01*
X13216587Y-15369484D02*
X13197539Y-15359960D01*
X13197539Y-15359960D02*
X13188015Y-15350436D01*
X13188015Y-15350436D02*
X13178491Y-15331388D01*
X13178491Y-15331388D02*
X13178491Y-15274246D01*
X13178491Y-15274246D02*
X13188015Y-15255198D01*
X13188015Y-15255198D02*
X13197539Y-15245674D01*
X13197539Y-15245674D02*
X13216587Y-15236150D01*
X13216587Y-15236150D02*
X13245158Y-15236150D01*
X13245158Y-15236150D02*
X13264206Y-15245674D01*
X13264206Y-15245674D02*
X13273730Y-15255198D01*
X13273730Y-15255198D02*
X13283253Y-15274246D01*
X13283253Y-15274246D02*
X13283253Y-15331388D01*
X13283253Y-15331388D02*
X13273730Y-15350436D01*
X13273730Y-15350436D02*
X13264206Y-15359960D01*
X13264206Y-15359960D02*
X13245158Y-15369484D01*
X13245158Y-15369484D02*
X13216587Y-15369484D01*
X13397539Y-15369484D02*
X13378491Y-15359960D01*
X13378491Y-15359960D02*
X13368968Y-15340912D01*
X13368968Y-15340912D02*
X13368968Y-15169484D01*
X13549920Y-15359960D02*
X13530872Y-15369484D01*
X13530872Y-15369484D02*
X13492777Y-15369484D01*
X13492777Y-15369484D02*
X13473730Y-15359960D01*
X13473730Y-15359960D02*
X13464206Y-15340912D01*
X13464206Y-15340912D02*
X13464206Y-15264722D01*
X13464206Y-15264722D02*
X13473730Y-15245674D01*
X13473730Y-15245674D02*
X13492777Y-15236150D01*
X13492777Y-15236150D02*
X13530872Y-15236150D01*
X13530872Y-15236150D02*
X13549920Y-15245674D01*
X13549920Y-15245674D02*
X13559444Y-15264722D01*
X13559444Y-15264722D02*
X13559444Y-15283769D01*
X13559444Y-15283769D02*
X13464206Y-15302817D01*
X13635634Y-15359960D02*
X13654682Y-15369484D01*
X13654682Y-15369484D02*
X13692777Y-15369484D01*
X13692777Y-15369484D02*
X13711825Y-15359960D01*
X13711825Y-15359960D02*
X13721349Y-15340912D01*
X13721349Y-15340912D02*
X13721349Y-15331388D01*
X13721349Y-15331388D02*
X13711825Y-15312341D01*
X13711825Y-15312341D02*
X13692777Y-15302817D01*
X13692777Y-15302817D02*
X13664206Y-15302817D01*
X13664206Y-15302817D02*
X13645158Y-15293293D01*
X13645158Y-15293293D02*
X13635634Y-15274246D01*
X13635634Y-15274246D02*
X13635634Y-15264722D01*
X13635634Y-15264722D02*
X13645158Y-15245674D01*
X13645158Y-15245674D02*
X13664206Y-15236150D01*
X13664206Y-15236150D02*
X13692777Y-15236150D01*
X13692777Y-15236150D02*
X13711825Y-15245674D01*
X13788015Y-15445674D02*
X13797539Y-15436150D01*
X13797539Y-15436150D02*
X13816587Y-15407579D01*
X13816587Y-15407579D02*
X13826111Y-15388531D01*
X13826111Y-15388531D02*
X13835634Y-15359960D01*
X13835634Y-15359960D02*
X13845158Y-15312341D01*
X13845158Y-15312341D02*
X13845158Y-15274246D01*
X13845158Y-15274246D02*
X13835634Y-15226627D01*
X13835634Y-15226627D02*
X13826111Y-15198055D01*
X13826111Y-15198055D02*
X13816587Y-15179008D01*
X13816587Y-15179008D02*
X13797539Y-15150436D01*
X13797539Y-15150436D02*
X13788015Y-15140912D01*
D11*
X8623213Y-15563213D02*
X8623213Y-15520787D01*
X8580787Y-15520787D01*
X8580787Y-15563213D01*
X8623213Y-15563213D01*
D10*
X8930872Y-15433484D02*
X8949920Y-15433484D01*
X8949920Y-15433484D02*
X8968967Y-15443008D01*
X8968967Y-15443008D02*
X8978491Y-15452531D01*
X8978491Y-15452531D02*
X8988015Y-15471579D01*
X8988015Y-15471579D02*
X8997539Y-15509674D01*
X8997539Y-15509674D02*
X8997539Y-15557293D01*
X8997539Y-15557293D02*
X8988015Y-15595388D01*
X8988015Y-15595388D02*
X8978491Y-15614436D01*
X8978491Y-15614436D02*
X8968967Y-15623960D01*
X8968967Y-15623960D02*
X8949920Y-15633484D01*
X8949920Y-15633484D02*
X8930872Y-15633484D01*
X8930872Y-15633484D02*
X8911824Y-15623960D01*
X8911824Y-15623960D02*
X8902301Y-15614436D01*
X8902301Y-15614436D02*
X8892777Y-15595388D01*
X8892777Y-15595388D02*
X8883253Y-15557293D01*
X8883253Y-15557293D02*
X8883253Y-15509674D01*
X8883253Y-15509674D02*
X8892777Y-15471579D01*
X8892777Y-15471579D02*
X8902301Y-15452531D01*
X8902301Y-15452531D02*
X8911824Y-15443008D01*
X8911824Y-15443008D02*
X8930872Y-15433484D01*
X9083253Y-15614436D02*
X9092777Y-15623960D01*
X9092777Y-15623960D02*
X9083253Y-15633484D01*
X9083253Y-15633484D02*
X9073729Y-15623960D01*
X9073729Y-15623960D02*
X9083253Y-15614436D01*
X9083253Y-15614436D02*
X9083253Y-15633484D01*
X9264205Y-15433484D02*
X9226110Y-15433484D01*
X9226110Y-15433484D02*
X9207063Y-15443008D01*
X9207063Y-15443008D02*
X9197539Y-15452531D01*
X9197539Y-15452531D02*
X9178491Y-15481103D01*
X9178491Y-15481103D02*
X9168967Y-15519198D01*
X9168967Y-15519198D02*
X9168967Y-15595388D01*
X9168967Y-15595388D02*
X9178491Y-15614436D01*
X9178491Y-15614436D02*
X9188015Y-15623960D01*
X9188015Y-15623960D02*
X9207063Y-15633484D01*
X9207063Y-15633484D02*
X9245158Y-15633484D01*
X9245158Y-15633484D02*
X9264205Y-15623960D01*
X9264205Y-15623960D02*
X9273729Y-15614436D01*
X9273729Y-15614436D02*
X9283253Y-15595388D01*
X9283253Y-15595388D02*
X9283253Y-15547769D01*
X9283253Y-15547769D02*
X9273729Y-15528722D01*
X9273729Y-15528722D02*
X9264205Y-15519198D01*
X9264205Y-15519198D02*
X9245158Y-15509674D01*
X9245158Y-15509674D02*
X9207063Y-15509674D01*
X9207063Y-15509674D02*
X9188015Y-15519198D01*
X9188015Y-15519198D02*
X9178491Y-15528722D01*
X9178491Y-15528722D02*
X9168967Y-15547769D01*
X9407063Y-15433484D02*
X9426110Y-15433484D01*
X9426110Y-15433484D02*
X9445158Y-15443008D01*
X9445158Y-15443008D02*
X9454682Y-15452531D01*
X9454682Y-15452531D02*
X9464205Y-15471579D01*
X9464205Y-15471579D02*
X9473729Y-15509674D01*
X9473729Y-15509674D02*
X9473729Y-15557293D01*
X9473729Y-15557293D02*
X9464205Y-15595388D01*
X9464205Y-15595388D02*
X9454682Y-15614436D01*
X9454682Y-15614436D02*
X9445158Y-15623960D01*
X9445158Y-15623960D02*
X9426110Y-15633484D01*
X9426110Y-15633484D02*
X9407063Y-15633484D01*
X9407063Y-15633484D02*
X9388015Y-15623960D01*
X9388015Y-15623960D02*
X9378491Y-15614436D01*
X9378491Y-15614436D02*
X9368967Y-15595388D01*
X9368967Y-15595388D02*
X9359444Y-15557293D01*
X9359444Y-15557293D02*
X9359444Y-15509674D01*
X9359444Y-15509674D02*
X9368967Y-15471579D01*
X9368967Y-15471579D02*
X9378491Y-15452531D01*
X9378491Y-15452531D02*
X9388015Y-15443008D01*
X9388015Y-15443008D02*
X9407063Y-15433484D01*
X9597539Y-15433484D02*
X9616586Y-15433484D01*
X9616586Y-15433484D02*
X9635634Y-15443008D01*
X9635634Y-15443008D02*
X9645158Y-15452531D01*
X9645158Y-15452531D02*
X9654682Y-15471579D01*
X9654682Y-15471579D02*
X9664205Y-15509674D01*
X9664205Y-15509674D02*
X9664205Y-15557293D01*
X9664205Y-15557293D02*
X9654682Y-15595388D01*
X9654682Y-15595388D02*
X9645158Y-15614436D01*
X9645158Y-15614436D02*
X9635634Y-15623960D01*
X9635634Y-15623960D02*
X9616586Y-15633484D01*
X9616586Y-15633484D02*
X9597539Y-15633484D01*
X9597539Y-15633484D02*
X9578491Y-15623960D01*
X9578491Y-15623960D02*
X9568967Y-15614436D01*
X9568967Y-15614436D02*
X9559444Y-15595388D01*
X9559444Y-15595388D02*
X9549920Y-15557293D01*
X9549920Y-15557293D02*
X9549920Y-15509674D01*
X9549920Y-15509674D02*
X9559444Y-15471579D01*
X9559444Y-15471579D02*
X9568967Y-15452531D01*
X9568967Y-15452531D02*
X9578491Y-15443008D01*
X9578491Y-15443008D02*
X9597539Y-15433484D01*
X9749920Y-15633484D02*
X9749920Y-15500150D01*
X9749920Y-15519198D02*
X9759444Y-15509674D01*
X9759444Y-15509674D02*
X9778491Y-15500150D01*
X9778491Y-15500150D02*
X9807063Y-15500150D01*
X9807063Y-15500150D02*
X9826110Y-15509674D01*
X9826110Y-15509674D02*
X9835634Y-15528722D01*
X9835634Y-15528722D02*
X9835634Y-15633484D01*
X9835634Y-15528722D02*
X9845158Y-15509674D01*
X9845158Y-15509674D02*
X9864205Y-15500150D01*
X9864205Y-15500150D02*
X9892777Y-15500150D01*
X9892777Y-15500150D02*
X9911825Y-15509674D01*
X9911825Y-15509674D02*
X9921348Y-15528722D01*
X9921348Y-15528722D02*
X9921348Y-15633484D01*
X10016586Y-15633484D02*
X10016586Y-15500150D01*
X10016586Y-15519198D02*
X10026110Y-15509674D01*
X10026110Y-15509674D02*
X10045158Y-15500150D01*
X10045158Y-15500150D02*
X10073729Y-15500150D01*
X10073729Y-15500150D02*
X10092777Y-15509674D01*
X10092777Y-15509674D02*
X10102301Y-15528722D01*
X10102301Y-15528722D02*
X10102301Y-15633484D01*
X10102301Y-15528722D02*
X10111825Y-15509674D01*
X10111825Y-15509674D02*
X10130872Y-15500150D01*
X10130872Y-15500150D02*
X10159444Y-15500150D01*
X10159444Y-15500150D02*
X10178491Y-15509674D01*
X10178491Y-15509674D02*
X10188015Y-15528722D01*
X10188015Y-15528722D02*
X10188015Y-15633484D01*
X10578491Y-15423960D02*
X10407063Y-15681103D01*
X10835634Y-15433484D02*
X10854682Y-15433484D01*
X10854682Y-15433484D02*
X10873729Y-15443008D01*
X10873729Y-15443008D02*
X10883253Y-15452531D01*
X10883253Y-15452531D02*
X10892777Y-15471579D01*
X10892777Y-15471579D02*
X10902301Y-15509674D01*
X10902301Y-15509674D02*
X10902301Y-15557293D01*
X10902301Y-15557293D02*
X10892777Y-15595388D01*
X10892777Y-15595388D02*
X10883253Y-15614436D01*
X10883253Y-15614436D02*
X10873729Y-15623960D01*
X10873729Y-15623960D02*
X10854682Y-15633484D01*
X10854682Y-15633484D02*
X10835634Y-15633484D01*
X10835634Y-15633484D02*
X10816587Y-15623960D01*
X10816587Y-15623960D02*
X10807063Y-15614436D01*
X10807063Y-15614436D02*
X10797539Y-15595388D01*
X10797539Y-15595388D02*
X10788015Y-15557293D01*
X10788015Y-15557293D02*
X10788015Y-15509674D01*
X10788015Y-15509674D02*
X10797539Y-15471579D01*
X10797539Y-15471579D02*
X10807063Y-15452531D01*
X10807063Y-15452531D02*
X10816587Y-15443008D01*
X10816587Y-15443008D02*
X10835634Y-15433484D01*
X10988015Y-15614436D02*
X10997539Y-15623960D01*
X10997539Y-15623960D02*
X10988015Y-15633484D01*
X10988015Y-15633484D02*
X10978491Y-15623960D01*
X10978491Y-15623960D02*
X10988015Y-15614436D01*
X10988015Y-15614436D02*
X10988015Y-15633484D01*
X11121348Y-15433484D02*
X11140396Y-15433484D01*
X11140396Y-15433484D02*
X11159444Y-15443008D01*
X11159444Y-15443008D02*
X11168968Y-15452531D01*
X11168968Y-15452531D02*
X11178491Y-15471579D01*
X11178491Y-15471579D02*
X11188015Y-15509674D01*
X11188015Y-15509674D02*
X11188015Y-15557293D01*
X11188015Y-15557293D02*
X11178491Y-15595388D01*
X11178491Y-15595388D02*
X11168968Y-15614436D01*
X11168968Y-15614436D02*
X11159444Y-15623960D01*
X11159444Y-15623960D02*
X11140396Y-15633484D01*
X11140396Y-15633484D02*
X11121348Y-15633484D01*
X11121348Y-15633484D02*
X11102301Y-15623960D01*
X11102301Y-15623960D02*
X11092777Y-15614436D01*
X11092777Y-15614436D02*
X11083253Y-15595388D01*
X11083253Y-15595388D02*
X11073729Y-15557293D01*
X11073729Y-15557293D02*
X11073729Y-15509674D01*
X11073729Y-15509674D02*
X11083253Y-15471579D01*
X11083253Y-15471579D02*
X11092777Y-15452531D01*
X11092777Y-15452531D02*
X11102301Y-15443008D01*
X11102301Y-15443008D02*
X11121348Y-15433484D01*
X11264206Y-15452531D02*
X11273729Y-15443008D01*
X11273729Y-15443008D02*
X11292777Y-15433484D01*
X11292777Y-15433484D02*
X11340396Y-15433484D01*
X11340396Y-15433484D02*
X11359444Y-15443008D01*
X11359444Y-15443008D02*
X11368967Y-15452531D01*
X11368967Y-15452531D02*
X11378491Y-15471579D01*
X11378491Y-15471579D02*
X11378491Y-15490627D01*
X11378491Y-15490627D02*
X11368967Y-15519198D01*
X11368967Y-15519198D02*
X11254682Y-15633484D01*
X11254682Y-15633484D02*
X11378491Y-15633484D01*
X11445158Y-15433484D02*
X11568967Y-15433484D01*
X11568967Y-15433484D02*
X11502301Y-15509674D01*
X11502301Y-15509674D02*
X11530872Y-15509674D01*
X11530872Y-15509674D02*
X11549920Y-15519198D01*
X11549920Y-15519198D02*
X11559444Y-15528722D01*
X11559444Y-15528722D02*
X11568967Y-15547769D01*
X11568967Y-15547769D02*
X11568967Y-15595388D01*
X11568967Y-15595388D02*
X11559444Y-15614436D01*
X11559444Y-15614436D02*
X11549920Y-15623960D01*
X11549920Y-15623960D02*
X11530872Y-15633484D01*
X11530872Y-15633484D02*
X11473729Y-15633484D01*
X11473729Y-15633484D02*
X11454682Y-15623960D01*
X11454682Y-15623960D02*
X11445158Y-15614436D01*
X11740396Y-15433484D02*
X11702301Y-15433484D01*
X11702301Y-15433484D02*
X11683253Y-15443008D01*
X11683253Y-15443008D02*
X11673729Y-15452531D01*
X11673729Y-15452531D02*
X11654682Y-15481103D01*
X11654682Y-15481103D02*
X11645158Y-15519198D01*
X11645158Y-15519198D02*
X11645158Y-15595388D01*
X11645158Y-15595388D02*
X11654682Y-15614436D01*
X11654682Y-15614436D02*
X11664206Y-15623960D01*
X11664206Y-15623960D02*
X11683253Y-15633484D01*
X11683253Y-15633484D02*
X11721348Y-15633484D01*
X11721348Y-15633484D02*
X11740396Y-15623960D01*
X11740396Y-15623960D02*
X11749920Y-15614436D01*
X11749920Y-15614436D02*
X11759444Y-15595388D01*
X11759444Y-15595388D02*
X11759444Y-15547769D01*
X11759444Y-15547769D02*
X11749920Y-15528722D01*
X11749920Y-15528722D02*
X11740396Y-15519198D01*
X11740396Y-15519198D02*
X11721348Y-15509674D01*
X11721348Y-15509674D02*
X11683253Y-15509674D01*
X11683253Y-15509674D02*
X11664206Y-15519198D01*
X11664206Y-15519198D02*
X11654682Y-15528722D01*
X11654682Y-15528722D02*
X11645158Y-15547769D01*
X11835634Y-15433484D02*
X11835634Y-15471579D01*
X11911825Y-15433484D02*
X11911825Y-15471579D01*
X12207063Y-15709674D02*
X12197539Y-15700150D01*
X12197539Y-15700150D02*
X12178491Y-15671579D01*
X12178491Y-15671579D02*
X12168968Y-15652531D01*
X12168968Y-15652531D02*
X12159444Y-15623960D01*
X12159444Y-15623960D02*
X12149920Y-15576341D01*
X12149920Y-15576341D02*
X12149920Y-15538246D01*
X12149920Y-15538246D02*
X12159444Y-15490627D01*
X12159444Y-15490627D02*
X12168968Y-15462055D01*
X12168968Y-15462055D02*
X12178491Y-15443008D01*
X12178491Y-15443008D02*
X12197539Y-15414436D01*
X12197539Y-15414436D02*
X12207063Y-15404912D01*
X12321348Y-15433484D02*
X12340396Y-15433484D01*
X12340396Y-15433484D02*
X12359444Y-15443008D01*
X12359444Y-15443008D02*
X12368968Y-15452531D01*
X12368968Y-15452531D02*
X12378491Y-15471579D01*
X12378491Y-15471579D02*
X12388015Y-15509674D01*
X12388015Y-15509674D02*
X12388015Y-15557293D01*
X12388015Y-15557293D02*
X12378491Y-15595388D01*
X12378491Y-15595388D02*
X12368968Y-15614436D01*
X12368968Y-15614436D02*
X12359444Y-15623960D01*
X12359444Y-15623960D02*
X12340396Y-15633484D01*
X12340396Y-15633484D02*
X12321348Y-15633484D01*
X12321348Y-15633484D02*
X12302301Y-15623960D01*
X12302301Y-15623960D02*
X12292777Y-15614436D01*
X12292777Y-15614436D02*
X12283253Y-15595388D01*
X12283253Y-15595388D02*
X12273729Y-15557293D01*
X12273729Y-15557293D02*
X12273729Y-15509674D01*
X12273729Y-15509674D02*
X12283253Y-15471579D01*
X12283253Y-15471579D02*
X12292777Y-15452531D01*
X12292777Y-15452531D02*
X12302301Y-15443008D01*
X12302301Y-15443008D02*
X12321348Y-15433484D01*
X12626110Y-15633484D02*
X12626110Y-15433484D01*
X12711825Y-15633484D02*
X12711825Y-15528722D01*
X12711825Y-15528722D02*
X12702301Y-15509674D01*
X12702301Y-15509674D02*
X12683253Y-15500150D01*
X12683253Y-15500150D02*
X12654682Y-15500150D01*
X12654682Y-15500150D02*
X12635634Y-15509674D01*
X12635634Y-15509674D02*
X12626110Y-15519198D01*
X12835634Y-15633484D02*
X12816587Y-15623960D01*
X12816587Y-15623960D02*
X12807063Y-15614436D01*
X12807063Y-15614436D02*
X12797539Y-15595388D01*
X12797539Y-15595388D02*
X12797539Y-15538246D01*
X12797539Y-15538246D02*
X12807063Y-15519198D01*
X12807063Y-15519198D02*
X12816587Y-15509674D01*
X12816587Y-15509674D02*
X12835634Y-15500150D01*
X12835634Y-15500150D02*
X12864206Y-15500150D01*
X12864206Y-15500150D02*
X12883253Y-15509674D01*
X12883253Y-15509674D02*
X12892777Y-15519198D01*
X12892777Y-15519198D02*
X12902301Y-15538246D01*
X12902301Y-15538246D02*
X12902301Y-15595388D01*
X12902301Y-15595388D02*
X12892777Y-15614436D01*
X12892777Y-15614436D02*
X12883253Y-15623960D01*
X12883253Y-15623960D02*
X12864206Y-15633484D01*
X12864206Y-15633484D02*
X12835634Y-15633484D01*
X13016587Y-15633484D02*
X12997539Y-15623960D01*
X12997539Y-15623960D02*
X12988015Y-15604912D01*
X12988015Y-15604912D02*
X12988015Y-15433484D01*
X13168968Y-15623960D02*
X13149920Y-15633484D01*
X13149920Y-15633484D02*
X13111825Y-15633484D01*
X13111825Y-15633484D02*
X13092777Y-15623960D01*
X13092777Y-15623960D02*
X13083253Y-15604912D01*
X13083253Y-15604912D02*
X13083253Y-15528722D01*
X13083253Y-15528722D02*
X13092777Y-15509674D01*
X13092777Y-15509674D02*
X13111825Y-15500150D01*
X13111825Y-15500150D02*
X13149920Y-15500150D01*
X13149920Y-15500150D02*
X13168968Y-15509674D01*
X13168968Y-15509674D02*
X13178491Y-15528722D01*
X13178491Y-15528722D02*
X13178491Y-15547769D01*
X13178491Y-15547769D02*
X13083253Y-15566817D01*
X13254682Y-15623960D02*
X13273730Y-15633484D01*
X13273730Y-15633484D02*
X13311825Y-15633484D01*
X13311825Y-15633484D02*
X13330872Y-15623960D01*
X13330872Y-15623960D02*
X13340396Y-15604912D01*
X13340396Y-15604912D02*
X13340396Y-15595388D01*
X13340396Y-15595388D02*
X13330872Y-15576341D01*
X13330872Y-15576341D02*
X13311825Y-15566817D01*
X13311825Y-15566817D02*
X13283253Y-15566817D01*
X13283253Y-15566817D02*
X13264206Y-15557293D01*
X13264206Y-15557293D02*
X13254682Y-15538246D01*
X13254682Y-15538246D02*
X13254682Y-15528722D01*
X13254682Y-15528722D02*
X13264206Y-15509674D01*
X13264206Y-15509674D02*
X13283253Y-15500150D01*
X13283253Y-15500150D02*
X13311825Y-15500150D01*
X13311825Y-15500150D02*
X13330872Y-15509674D01*
X13578492Y-15557293D02*
X13730873Y-15557293D01*
X13654682Y-15633484D02*
X13654682Y-15481103D01*
X14064206Y-15500150D02*
X14064206Y-15633484D01*
X14016587Y-15423960D02*
X13968968Y-15566817D01*
X13968968Y-15566817D02*
X14092777Y-15566817D01*
X14311825Y-15623960D02*
X14330873Y-15633484D01*
X14330873Y-15633484D02*
X14368968Y-15633484D01*
X14368968Y-15633484D02*
X14388015Y-15623960D01*
X14388015Y-15623960D02*
X14397539Y-15604912D01*
X14397539Y-15604912D02*
X14397539Y-15595388D01*
X14397539Y-15595388D02*
X14388015Y-15576341D01*
X14388015Y-15576341D02*
X14368968Y-15566817D01*
X14368968Y-15566817D02*
X14340396Y-15566817D01*
X14340396Y-15566817D02*
X14321349Y-15557293D01*
X14321349Y-15557293D02*
X14311825Y-15538246D01*
X14311825Y-15538246D02*
X14311825Y-15528722D01*
X14311825Y-15528722D02*
X14321349Y-15509674D01*
X14321349Y-15509674D02*
X14340396Y-15500150D01*
X14340396Y-15500150D02*
X14368968Y-15500150D01*
X14368968Y-15500150D02*
X14388015Y-15509674D01*
X14511825Y-15633484D02*
X14492777Y-15623960D01*
X14492777Y-15623960D02*
X14483254Y-15604912D01*
X14483254Y-15604912D02*
X14483254Y-15433484D01*
X14616587Y-15633484D02*
X14597539Y-15623960D01*
X14597539Y-15623960D02*
X14588015Y-15614436D01*
X14588015Y-15614436D02*
X14578492Y-15595388D01*
X14578492Y-15595388D02*
X14578492Y-15538246D01*
X14578492Y-15538246D02*
X14588015Y-15519198D01*
X14588015Y-15519198D02*
X14597539Y-15509674D01*
X14597539Y-15509674D02*
X14616587Y-15500150D01*
X14616587Y-15500150D02*
X14645158Y-15500150D01*
X14645158Y-15500150D02*
X14664206Y-15509674D01*
X14664206Y-15509674D02*
X14673730Y-15519198D01*
X14673730Y-15519198D02*
X14683254Y-15538246D01*
X14683254Y-15538246D02*
X14683254Y-15595388D01*
X14683254Y-15595388D02*
X14673730Y-15614436D01*
X14673730Y-15614436D02*
X14664206Y-15623960D01*
X14664206Y-15623960D02*
X14645158Y-15633484D01*
X14645158Y-15633484D02*
X14616587Y-15633484D01*
X14740396Y-15500150D02*
X14816587Y-15500150D01*
X14768968Y-15433484D02*
X14768968Y-15604912D01*
X14768968Y-15604912D02*
X14778492Y-15623960D01*
X14778492Y-15623960D02*
X14797539Y-15633484D01*
X14797539Y-15633484D02*
X14816587Y-15633484D01*
X14873730Y-15623960D02*
X14892777Y-15633484D01*
X14892777Y-15633484D02*
X14930873Y-15633484D01*
X14930873Y-15633484D02*
X14949920Y-15623960D01*
X14949920Y-15623960D02*
X14959444Y-15604912D01*
X14959444Y-15604912D02*
X14959444Y-15595388D01*
X14959444Y-15595388D02*
X14949920Y-15576341D01*
X14949920Y-15576341D02*
X14930873Y-15566817D01*
X14930873Y-15566817D02*
X14902301Y-15566817D01*
X14902301Y-15566817D02*
X14883254Y-15557293D01*
X14883254Y-15557293D02*
X14873730Y-15538246D01*
X14873730Y-15538246D02*
X14873730Y-15528722D01*
X14873730Y-15528722D02*
X14883254Y-15509674D01*
X14883254Y-15509674D02*
X14902301Y-15500150D01*
X14902301Y-15500150D02*
X14930873Y-15500150D01*
X14930873Y-15500150D02*
X14949920Y-15509674D01*
X15026111Y-15709674D02*
X15035635Y-15700150D01*
X15035635Y-15700150D02*
X15054682Y-15671579D01*
X15054682Y-15671579D02*
X15064206Y-15652531D01*
X15064206Y-15652531D02*
X15073730Y-15623960D01*
X15073730Y-15623960D02*
X15083254Y-15576341D01*
X15083254Y-15576341D02*
X15083254Y-15538246D01*
X15083254Y-15538246D02*
X15073730Y-15490627D01*
X15073730Y-15490627D02*
X15064206Y-15462055D01*
X15064206Y-15462055D02*
X15054682Y-15443008D01*
X15054682Y-15443008D02*
X15035635Y-15414436D01*
X15035635Y-15414436D02*
X15026111Y-15404912D01*
D11*
X8593900Y-15844100D02*
X8632000Y-15806000D01*
X8593900Y-15767900D01*
X8555800Y-15806000D01*
X8593900Y-15844100D01*
D10*
X8930872Y-15697484D02*
X8949920Y-15697484D01*
X8949920Y-15697484D02*
X8968967Y-15707008D01*
X8968967Y-15707008D02*
X8978491Y-15716531D01*
X8978491Y-15716531D02*
X8988015Y-15735579D01*
X8988015Y-15735579D02*
X8997539Y-15773674D01*
X8997539Y-15773674D02*
X8997539Y-15821293D01*
X8997539Y-15821293D02*
X8988015Y-15859388D01*
X8988015Y-15859388D02*
X8978491Y-15878436D01*
X8978491Y-15878436D02*
X8968967Y-15887960D01*
X8968967Y-15887960D02*
X8949920Y-15897484D01*
X8949920Y-15897484D02*
X8930872Y-15897484D01*
X8930872Y-15897484D02*
X8911824Y-15887960D01*
X8911824Y-15887960D02*
X8902301Y-15878436D01*
X8902301Y-15878436D02*
X8892777Y-15859388D01*
X8892777Y-15859388D02*
X8883253Y-15821293D01*
X8883253Y-15821293D02*
X8883253Y-15773674D01*
X8883253Y-15773674D02*
X8892777Y-15735579D01*
X8892777Y-15735579D02*
X8902301Y-15716531D01*
X8902301Y-15716531D02*
X8911824Y-15707008D01*
X8911824Y-15707008D02*
X8930872Y-15697484D01*
X9083253Y-15878436D02*
X9092777Y-15887960D01*
X9092777Y-15887960D02*
X9083253Y-15897484D01*
X9083253Y-15897484D02*
X9073729Y-15887960D01*
X9073729Y-15887960D02*
X9083253Y-15878436D01*
X9083253Y-15878436D02*
X9083253Y-15897484D01*
X9159444Y-15697484D02*
X9292777Y-15697484D01*
X9292777Y-15697484D02*
X9207063Y-15897484D01*
X9454682Y-15697484D02*
X9416586Y-15697484D01*
X9416586Y-15697484D02*
X9397539Y-15707008D01*
X9397539Y-15707008D02*
X9388015Y-15716531D01*
X9388015Y-15716531D02*
X9368967Y-15745103D01*
X9368967Y-15745103D02*
X9359444Y-15783198D01*
X9359444Y-15783198D02*
X9359444Y-15859388D01*
X9359444Y-15859388D02*
X9368967Y-15878436D01*
X9368967Y-15878436D02*
X9378491Y-15887960D01*
X9378491Y-15887960D02*
X9397539Y-15897484D01*
X9397539Y-15897484D02*
X9435634Y-15897484D01*
X9435634Y-15897484D02*
X9454682Y-15887960D01*
X9454682Y-15887960D02*
X9464205Y-15878436D01*
X9464205Y-15878436D02*
X9473729Y-15859388D01*
X9473729Y-15859388D02*
X9473729Y-15811769D01*
X9473729Y-15811769D02*
X9464205Y-15792722D01*
X9464205Y-15792722D02*
X9454682Y-15783198D01*
X9454682Y-15783198D02*
X9435634Y-15773674D01*
X9435634Y-15773674D02*
X9397539Y-15773674D01*
X9397539Y-15773674D02*
X9378491Y-15783198D01*
X9378491Y-15783198D02*
X9368967Y-15792722D01*
X9368967Y-15792722D02*
X9359444Y-15811769D01*
X9549920Y-15716531D02*
X9559444Y-15707008D01*
X9559444Y-15707008D02*
X9578491Y-15697484D01*
X9578491Y-15697484D02*
X9626110Y-15697484D01*
X9626110Y-15697484D02*
X9645158Y-15707008D01*
X9645158Y-15707008D02*
X9654682Y-15716531D01*
X9654682Y-15716531D02*
X9664205Y-15735579D01*
X9664205Y-15735579D02*
X9664205Y-15754627D01*
X9664205Y-15754627D02*
X9654682Y-15783198D01*
X9654682Y-15783198D02*
X9540396Y-15897484D01*
X9540396Y-15897484D02*
X9664205Y-15897484D01*
X9749920Y-15897484D02*
X9749920Y-15764150D01*
X9749920Y-15783198D02*
X9759444Y-15773674D01*
X9759444Y-15773674D02*
X9778491Y-15764150D01*
X9778491Y-15764150D02*
X9807063Y-15764150D01*
X9807063Y-15764150D02*
X9826110Y-15773674D01*
X9826110Y-15773674D02*
X9835634Y-15792722D01*
X9835634Y-15792722D02*
X9835634Y-15897484D01*
X9835634Y-15792722D02*
X9845158Y-15773674D01*
X9845158Y-15773674D02*
X9864205Y-15764150D01*
X9864205Y-15764150D02*
X9892777Y-15764150D01*
X9892777Y-15764150D02*
X9911825Y-15773674D01*
X9911825Y-15773674D02*
X9921348Y-15792722D01*
X9921348Y-15792722D02*
X9921348Y-15897484D01*
X10016586Y-15897484D02*
X10016586Y-15764150D01*
X10016586Y-15783198D02*
X10026110Y-15773674D01*
X10026110Y-15773674D02*
X10045158Y-15764150D01*
X10045158Y-15764150D02*
X10073729Y-15764150D01*
X10073729Y-15764150D02*
X10092777Y-15773674D01*
X10092777Y-15773674D02*
X10102301Y-15792722D01*
X10102301Y-15792722D02*
X10102301Y-15897484D01*
X10102301Y-15792722D02*
X10111825Y-15773674D01*
X10111825Y-15773674D02*
X10130872Y-15764150D01*
X10130872Y-15764150D02*
X10159444Y-15764150D01*
X10159444Y-15764150D02*
X10178491Y-15773674D01*
X10178491Y-15773674D02*
X10188015Y-15792722D01*
X10188015Y-15792722D02*
X10188015Y-15897484D01*
X10578491Y-15687960D02*
X10407063Y-15945103D01*
X10835634Y-15697484D02*
X10854682Y-15697484D01*
X10854682Y-15697484D02*
X10873729Y-15707008D01*
X10873729Y-15707008D02*
X10883253Y-15716531D01*
X10883253Y-15716531D02*
X10892777Y-15735579D01*
X10892777Y-15735579D02*
X10902301Y-15773674D01*
X10902301Y-15773674D02*
X10902301Y-15821293D01*
X10902301Y-15821293D02*
X10892777Y-15859388D01*
X10892777Y-15859388D02*
X10883253Y-15878436D01*
X10883253Y-15878436D02*
X10873729Y-15887960D01*
X10873729Y-15887960D02*
X10854682Y-15897484D01*
X10854682Y-15897484D02*
X10835634Y-15897484D01*
X10835634Y-15897484D02*
X10816587Y-15887960D01*
X10816587Y-15887960D02*
X10807063Y-15878436D01*
X10807063Y-15878436D02*
X10797539Y-15859388D01*
X10797539Y-15859388D02*
X10788015Y-15821293D01*
X10788015Y-15821293D02*
X10788015Y-15773674D01*
X10788015Y-15773674D02*
X10797539Y-15735579D01*
X10797539Y-15735579D02*
X10807063Y-15716531D01*
X10807063Y-15716531D02*
X10816587Y-15707008D01*
X10816587Y-15707008D02*
X10835634Y-15697484D01*
X10988015Y-15878436D02*
X10997539Y-15887960D01*
X10997539Y-15887960D02*
X10988015Y-15897484D01*
X10988015Y-15897484D02*
X10978491Y-15887960D01*
X10978491Y-15887960D02*
X10988015Y-15878436D01*
X10988015Y-15878436D02*
X10988015Y-15897484D01*
X11121348Y-15697484D02*
X11140396Y-15697484D01*
X11140396Y-15697484D02*
X11159444Y-15707008D01*
X11159444Y-15707008D02*
X11168968Y-15716531D01*
X11168968Y-15716531D02*
X11178491Y-15735579D01*
X11178491Y-15735579D02*
X11188015Y-15773674D01*
X11188015Y-15773674D02*
X11188015Y-15821293D01*
X11188015Y-15821293D02*
X11178491Y-15859388D01*
X11178491Y-15859388D02*
X11168968Y-15878436D01*
X11168968Y-15878436D02*
X11159444Y-15887960D01*
X11159444Y-15887960D02*
X11140396Y-15897484D01*
X11140396Y-15897484D02*
X11121348Y-15897484D01*
X11121348Y-15897484D02*
X11102301Y-15887960D01*
X11102301Y-15887960D02*
X11092777Y-15878436D01*
X11092777Y-15878436D02*
X11083253Y-15859388D01*
X11083253Y-15859388D02*
X11073729Y-15821293D01*
X11073729Y-15821293D02*
X11073729Y-15773674D01*
X11073729Y-15773674D02*
X11083253Y-15735579D01*
X11083253Y-15735579D02*
X11092777Y-15716531D01*
X11092777Y-15716531D02*
X11102301Y-15707008D01*
X11102301Y-15707008D02*
X11121348Y-15697484D01*
X11254682Y-15697484D02*
X11378491Y-15697484D01*
X11378491Y-15697484D02*
X11311825Y-15773674D01*
X11311825Y-15773674D02*
X11340396Y-15773674D01*
X11340396Y-15773674D02*
X11359444Y-15783198D01*
X11359444Y-15783198D02*
X11368967Y-15792722D01*
X11368967Y-15792722D02*
X11378491Y-15811769D01*
X11378491Y-15811769D02*
X11378491Y-15859388D01*
X11378491Y-15859388D02*
X11368967Y-15878436D01*
X11368967Y-15878436D02*
X11359444Y-15887960D01*
X11359444Y-15887960D02*
X11340396Y-15897484D01*
X11340396Y-15897484D02*
X11283253Y-15897484D01*
X11283253Y-15897484D02*
X11264206Y-15887960D01*
X11264206Y-15887960D02*
X11254682Y-15878436D01*
X11502301Y-15697484D02*
X11521348Y-15697484D01*
X11521348Y-15697484D02*
X11540396Y-15707008D01*
X11540396Y-15707008D02*
X11549920Y-15716531D01*
X11549920Y-15716531D02*
X11559444Y-15735579D01*
X11559444Y-15735579D02*
X11568967Y-15773674D01*
X11568967Y-15773674D02*
X11568967Y-15821293D01*
X11568967Y-15821293D02*
X11559444Y-15859388D01*
X11559444Y-15859388D02*
X11549920Y-15878436D01*
X11549920Y-15878436D02*
X11540396Y-15887960D01*
X11540396Y-15887960D02*
X11521348Y-15897484D01*
X11521348Y-15897484D02*
X11502301Y-15897484D01*
X11502301Y-15897484D02*
X11483253Y-15887960D01*
X11483253Y-15887960D02*
X11473729Y-15878436D01*
X11473729Y-15878436D02*
X11464206Y-15859388D01*
X11464206Y-15859388D02*
X11454682Y-15821293D01*
X11454682Y-15821293D02*
X11454682Y-15773674D01*
X11454682Y-15773674D02*
X11464206Y-15735579D01*
X11464206Y-15735579D02*
X11473729Y-15716531D01*
X11473729Y-15716531D02*
X11483253Y-15707008D01*
X11483253Y-15707008D02*
X11502301Y-15697484D01*
X11692777Y-15697484D02*
X11711825Y-15697484D01*
X11711825Y-15697484D02*
X11730872Y-15707008D01*
X11730872Y-15707008D02*
X11740396Y-15716531D01*
X11740396Y-15716531D02*
X11749920Y-15735579D01*
X11749920Y-15735579D02*
X11759444Y-15773674D01*
X11759444Y-15773674D02*
X11759444Y-15821293D01*
X11759444Y-15821293D02*
X11749920Y-15859388D01*
X11749920Y-15859388D02*
X11740396Y-15878436D01*
X11740396Y-15878436D02*
X11730872Y-15887960D01*
X11730872Y-15887960D02*
X11711825Y-15897484D01*
X11711825Y-15897484D02*
X11692777Y-15897484D01*
X11692777Y-15897484D02*
X11673729Y-15887960D01*
X11673729Y-15887960D02*
X11664206Y-15878436D01*
X11664206Y-15878436D02*
X11654682Y-15859388D01*
X11654682Y-15859388D02*
X11645158Y-15821293D01*
X11645158Y-15821293D02*
X11645158Y-15773674D01*
X11645158Y-15773674D02*
X11654682Y-15735579D01*
X11654682Y-15735579D02*
X11664206Y-15716531D01*
X11664206Y-15716531D02*
X11673729Y-15707008D01*
X11673729Y-15707008D02*
X11692777Y-15697484D01*
X11835634Y-15697484D02*
X11835634Y-15735579D01*
X11911825Y-15697484D02*
X11911825Y-15735579D01*
X12207063Y-15973674D02*
X12197539Y-15964150D01*
X12197539Y-15964150D02*
X12178491Y-15935579D01*
X12178491Y-15935579D02*
X12168968Y-15916531D01*
X12168968Y-15916531D02*
X12159444Y-15887960D01*
X12159444Y-15887960D02*
X12149920Y-15840341D01*
X12149920Y-15840341D02*
X12149920Y-15802246D01*
X12149920Y-15802246D02*
X12159444Y-15754627D01*
X12159444Y-15754627D02*
X12168968Y-15726055D01*
X12168968Y-15726055D02*
X12178491Y-15707008D01*
X12178491Y-15707008D02*
X12197539Y-15678436D01*
X12197539Y-15678436D02*
X12207063Y-15668912D01*
X12311825Y-15783198D02*
X12292777Y-15773674D01*
X12292777Y-15773674D02*
X12283253Y-15764150D01*
X12283253Y-15764150D02*
X12273729Y-15745103D01*
X12273729Y-15745103D02*
X12273729Y-15735579D01*
X12273729Y-15735579D02*
X12283253Y-15716531D01*
X12283253Y-15716531D02*
X12292777Y-15707008D01*
X12292777Y-15707008D02*
X12311825Y-15697484D01*
X12311825Y-15697484D02*
X12349920Y-15697484D01*
X12349920Y-15697484D02*
X12368968Y-15707008D01*
X12368968Y-15707008D02*
X12378491Y-15716531D01*
X12378491Y-15716531D02*
X12388015Y-15735579D01*
X12388015Y-15735579D02*
X12388015Y-15745103D01*
X12388015Y-15745103D02*
X12378491Y-15764150D01*
X12378491Y-15764150D02*
X12368968Y-15773674D01*
X12368968Y-15773674D02*
X12349920Y-15783198D01*
X12349920Y-15783198D02*
X12311825Y-15783198D01*
X12311825Y-15783198D02*
X12292777Y-15792722D01*
X12292777Y-15792722D02*
X12283253Y-15802246D01*
X12283253Y-15802246D02*
X12273729Y-15821293D01*
X12273729Y-15821293D02*
X12273729Y-15859388D01*
X12273729Y-15859388D02*
X12283253Y-15878436D01*
X12283253Y-15878436D02*
X12292777Y-15887960D01*
X12292777Y-15887960D02*
X12311825Y-15897484D01*
X12311825Y-15897484D02*
X12349920Y-15897484D01*
X12349920Y-15897484D02*
X12368968Y-15887960D01*
X12368968Y-15887960D02*
X12378491Y-15878436D01*
X12378491Y-15878436D02*
X12388015Y-15859388D01*
X12388015Y-15859388D02*
X12388015Y-15821293D01*
X12388015Y-15821293D02*
X12378491Y-15802246D01*
X12378491Y-15802246D02*
X12368968Y-15792722D01*
X12368968Y-15792722D02*
X12349920Y-15783198D01*
X12626110Y-15897484D02*
X12626110Y-15697484D01*
X12711825Y-15897484D02*
X12711825Y-15792722D01*
X12711825Y-15792722D02*
X12702301Y-15773674D01*
X12702301Y-15773674D02*
X12683253Y-15764150D01*
X12683253Y-15764150D02*
X12654682Y-15764150D01*
X12654682Y-15764150D02*
X12635634Y-15773674D01*
X12635634Y-15773674D02*
X12626110Y-15783198D01*
X12835634Y-15897484D02*
X12816587Y-15887960D01*
X12816587Y-15887960D02*
X12807063Y-15878436D01*
X12807063Y-15878436D02*
X12797539Y-15859388D01*
X12797539Y-15859388D02*
X12797539Y-15802246D01*
X12797539Y-15802246D02*
X12807063Y-15783198D01*
X12807063Y-15783198D02*
X12816587Y-15773674D01*
X12816587Y-15773674D02*
X12835634Y-15764150D01*
X12835634Y-15764150D02*
X12864206Y-15764150D01*
X12864206Y-15764150D02*
X12883253Y-15773674D01*
X12883253Y-15773674D02*
X12892777Y-15783198D01*
X12892777Y-15783198D02*
X12902301Y-15802246D01*
X12902301Y-15802246D02*
X12902301Y-15859388D01*
X12902301Y-15859388D02*
X12892777Y-15878436D01*
X12892777Y-15878436D02*
X12883253Y-15887960D01*
X12883253Y-15887960D02*
X12864206Y-15897484D01*
X12864206Y-15897484D02*
X12835634Y-15897484D01*
X13016587Y-15897484D02*
X12997539Y-15887960D01*
X12997539Y-15887960D02*
X12988015Y-15868912D01*
X12988015Y-15868912D02*
X12988015Y-15697484D01*
X13168968Y-15887960D02*
X13149920Y-15897484D01*
X13149920Y-15897484D02*
X13111825Y-15897484D01*
X13111825Y-15897484D02*
X13092777Y-15887960D01*
X13092777Y-15887960D02*
X13083253Y-15868912D01*
X13083253Y-15868912D02*
X13083253Y-15792722D01*
X13083253Y-15792722D02*
X13092777Y-15773674D01*
X13092777Y-15773674D02*
X13111825Y-15764150D01*
X13111825Y-15764150D02*
X13149920Y-15764150D01*
X13149920Y-15764150D02*
X13168968Y-15773674D01*
X13168968Y-15773674D02*
X13178491Y-15792722D01*
X13178491Y-15792722D02*
X13178491Y-15811769D01*
X13178491Y-15811769D02*
X13083253Y-15830817D01*
X13254682Y-15887960D02*
X13273730Y-15897484D01*
X13273730Y-15897484D02*
X13311825Y-15897484D01*
X13311825Y-15897484D02*
X13330872Y-15887960D01*
X13330872Y-15887960D02*
X13340396Y-15868912D01*
X13340396Y-15868912D02*
X13340396Y-15859388D01*
X13340396Y-15859388D02*
X13330872Y-15840341D01*
X13330872Y-15840341D02*
X13311825Y-15830817D01*
X13311825Y-15830817D02*
X13283253Y-15830817D01*
X13283253Y-15830817D02*
X13264206Y-15821293D01*
X13264206Y-15821293D02*
X13254682Y-15802246D01*
X13254682Y-15802246D02*
X13254682Y-15792722D01*
X13254682Y-15792722D02*
X13264206Y-15773674D01*
X13264206Y-15773674D02*
X13283253Y-15764150D01*
X13283253Y-15764150D02*
X13311825Y-15764150D01*
X13311825Y-15764150D02*
X13330872Y-15773674D01*
X13407063Y-15973674D02*
X13416587Y-15964150D01*
X13416587Y-15964150D02*
X13435634Y-15935579D01*
X13435634Y-15935579D02*
X13445158Y-15916531D01*
X13445158Y-15916531D02*
X13454682Y-15887960D01*
X13454682Y-15887960D02*
X13464206Y-15840341D01*
X13464206Y-15840341D02*
X13464206Y-15802246D01*
X13464206Y-15802246D02*
X13454682Y-15754627D01*
X13454682Y-15754627D02*
X13445158Y-15726055D01*
X13445158Y-15726055D02*
X13435634Y-15707008D01*
X13435634Y-15707008D02*
X13416587Y-15678436D01*
X13416587Y-15678436D02*
X13407063Y-15668912D01*
D11*
X8532000Y-16020000D02*
X8632000Y-16120000D01*
X8632000Y-16020000D02*
X8532000Y-16120000D01*
X8632000Y-16070000D02*
G75*
G03*
X8532000Y-16070000I-50000J0D01*
G01*
X8532000Y-16070000D02*
G75*
G03*
X8632000Y-16070000I50000J0D01*
G01*
D10*
X8997539Y-16161484D02*
X8883253Y-16161484D01*
X8940396Y-16161484D02*
X8940396Y-15961484D01*
X8940396Y-15961484D02*
X8921348Y-15990055D01*
X8921348Y-15990055D02*
X8902301Y-16009103D01*
X8902301Y-16009103D02*
X8883253Y-16018627D01*
X9083253Y-16142436D02*
X9092777Y-16151960D01*
X9092777Y-16151960D02*
X9083253Y-16161484D01*
X9083253Y-16161484D02*
X9073729Y-16151960D01*
X9073729Y-16151960D02*
X9083253Y-16142436D01*
X9083253Y-16142436D02*
X9083253Y-16161484D01*
X9216586Y-15961484D02*
X9235634Y-15961484D01*
X9235634Y-15961484D02*
X9254682Y-15971008D01*
X9254682Y-15971008D02*
X9264205Y-15980531D01*
X9264205Y-15980531D02*
X9273729Y-15999579D01*
X9273729Y-15999579D02*
X9283253Y-16037674D01*
X9283253Y-16037674D02*
X9283253Y-16085293D01*
X9283253Y-16085293D02*
X9273729Y-16123388D01*
X9273729Y-16123388D02*
X9264205Y-16142436D01*
X9264205Y-16142436D02*
X9254682Y-16151960D01*
X9254682Y-16151960D02*
X9235634Y-16161484D01*
X9235634Y-16161484D02*
X9216586Y-16161484D01*
X9216586Y-16161484D02*
X9197539Y-16151960D01*
X9197539Y-16151960D02*
X9188015Y-16142436D01*
X9188015Y-16142436D02*
X9178491Y-16123388D01*
X9178491Y-16123388D02*
X9168967Y-16085293D01*
X9168967Y-16085293D02*
X9168967Y-16037674D01*
X9168967Y-16037674D02*
X9178491Y-15999579D01*
X9178491Y-15999579D02*
X9188015Y-15980531D01*
X9188015Y-15980531D02*
X9197539Y-15971008D01*
X9197539Y-15971008D02*
X9216586Y-15961484D01*
X9407063Y-15961484D02*
X9426110Y-15961484D01*
X9426110Y-15961484D02*
X9445158Y-15971008D01*
X9445158Y-15971008D02*
X9454682Y-15980531D01*
X9454682Y-15980531D02*
X9464205Y-15999579D01*
X9464205Y-15999579D02*
X9473729Y-16037674D01*
X9473729Y-16037674D02*
X9473729Y-16085293D01*
X9473729Y-16085293D02*
X9464205Y-16123388D01*
X9464205Y-16123388D02*
X9454682Y-16142436D01*
X9454682Y-16142436D02*
X9445158Y-16151960D01*
X9445158Y-16151960D02*
X9426110Y-16161484D01*
X9426110Y-16161484D02*
X9407063Y-16161484D01*
X9407063Y-16161484D02*
X9388015Y-16151960D01*
X9388015Y-16151960D02*
X9378491Y-16142436D01*
X9378491Y-16142436D02*
X9368967Y-16123388D01*
X9368967Y-16123388D02*
X9359444Y-16085293D01*
X9359444Y-16085293D02*
X9359444Y-16037674D01*
X9359444Y-16037674D02*
X9368967Y-15999579D01*
X9368967Y-15999579D02*
X9378491Y-15980531D01*
X9378491Y-15980531D02*
X9388015Y-15971008D01*
X9388015Y-15971008D02*
X9407063Y-15961484D01*
X9597539Y-15961484D02*
X9616586Y-15961484D01*
X9616586Y-15961484D02*
X9635634Y-15971008D01*
X9635634Y-15971008D02*
X9645158Y-15980531D01*
X9645158Y-15980531D02*
X9654682Y-15999579D01*
X9654682Y-15999579D02*
X9664205Y-16037674D01*
X9664205Y-16037674D02*
X9664205Y-16085293D01*
X9664205Y-16085293D02*
X9654682Y-16123388D01*
X9654682Y-16123388D02*
X9645158Y-16142436D01*
X9645158Y-16142436D02*
X9635634Y-16151960D01*
X9635634Y-16151960D02*
X9616586Y-16161484D01*
X9616586Y-16161484D02*
X9597539Y-16161484D01*
X9597539Y-16161484D02*
X9578491Y-16151960D01*
X9578491Y-16151960D02*
X9568967Y-16142436D01*
X9568967Y-16142436D02*
X9559444Y-16123388D01*
X9559444Y-16123388D02*
X9549920Y-16085293D01*
X9549920Y-16085293D02*
X9549920Y-16037674D01*
X9549920Y-16037674D02*
X9559444Y-15999579D01*
X9559444Y-15999579D02*
X9568967Y-15980531D01*
X9568967Y-15980531D02*
X9578491Y-15971008D01*
X9578491Y-15971008D02*
X9597539Y-15961484D01*
X9749920Y-16161484D02*
X9749920Y-16028150D01*
X9749920Y-16047198D02*
X9759444Y-16037674D01*
X9759444Y-16037674D02*
X9778491Y-16028150D01*
X9778491Y-16028150D02*
X9807063Y-16028150D01*
X9807063Y-16028150D02*
X9826110Y-16037674D01*
X9826110Y-16037674D02*
X9835634Y-16056722D01*
X9835634Y-16056722D02*
X9835634Y-16161484D01*
X9835634Y-16056722D02*
X9845158Y-16037674D01*
X9845158Y-16037674D02*
X9864205Y-16028150D01*
X9864205Y-16028150D02*
X9892777Y-16028150D01*
X9892777Y-16028150D02*
X9911825Y-16037674D01*
X9911825Y-16037674D02*
X9921348Y-16056722D01*
X9921348Y-16056722D02*
X9921348Y-16161484D01*
X10016586Y-16161484D02*
X10016586Y-16028150D01*
X10016586Y-16047198D02*
X10026110Y-16037674D01*
X10026110Y-16037674D02*
X10045158Y-16028150D01*
X10045158Y-16028150D02*
X10073729Y-16028150D01*
X10073729Y-16028150D02*
X10092777Y-16037674D01*
X10092777Y-16037674D02*
X10102301Y-16056722D01*
X10102301Y-16056722D02*
X10102301Y-16161484D01*
X10102301Y-16056722D02*
X10111825Y-16037674D01*
X10111825Y-16037674D02*
X10130872Y-16028150D01*
X10130872Y-16028150D02*
X10159444Y-16028150D01*
X10159444Y-16028150D02*
X10178491Y-16037674D01*
X10178491Y-16037674D02*
X10188015Y-16056722D01*
X10188015Y-16056722D02*
X10188015Y-16161484D01*
X10578491Y-15951960D02*
X10407063Y-16209103D01*
X10835634Y-15961484D02*
X10854682Y-15961484D01*
X10854682Y-15961484D02*
X10873729Y-15971008D01*
X10873729Y-15971008D02*
X10883253Y-15980531D01*
X10883253Y-15980531D02*
X10892777Y-15999579D01*
X10892777Y-15999579D02*
X10902301Y-16037674D01*
X10902301Y-16037674D02*
X10902301Y-16085293D01*
X10902301Y-16085293D02*
X10892777Y-16123388D01*
X10892777Y-16123388D02*
X10883253Y-16142436D01*
X10883253Y-16142436D02*
X10873729Y-16151960D01*
X10873729Y-16151960D02*
X10854682Y-16161484D01*
X10854682Y-16161484D02*
X10835634Y-16161484D01*
X10835634Y-16161484D02*
X10816587Y-16151960D01*
X10816587Y-16151960D02*
X10807063Y-16142436D01*
X10807063Y-16142436D02*
X10797539Y-16123388D01*
X10797539Y-16123388D02*
X10788015Y-16085293D01*
X10788015Y-16085293D02*
X10788015Y-16037674D01*
X10788015Y-16037674D02*
X10797539Y-15999579D01*
X10797539Y-15999579D02*
X10807063Y-15980531D01*
X10807063Y-15980531D02*
X10816587Y-15971008D01*
X10816587Y-15971008D02*
X10835634Y-15961484D01*
X10988015Y-16142436D02*
X10997539Y-16151960D01*
X10997539Y-16151960D02*
X10988015Y-16161484D01*
X10988015Y-16161484D02*
X10978491Y-16151960D01*
X10978491Y-16151960D02*
X10988015Y-16142436D01*
X10988015Y-16142436D02*
X10988015Y-16161484D01*
X11121348Y-15961484D02*
X11140396Y-15961484D01*
X11140396Y-15961484D02*
X11159444Y-15971008D01*
X11159444Y-15971008D02*
X11168968Y-15980531D01*
X11168968Y-15980531D02*
X11178491Y-15999579D01*
X11178491Y-15999579D02*
X11188015Y-16037674D01*
X11188015Y-16037674D02*
X11188015Y-16085293D01*
X11188015Y-16085293D02*
X11178491Y-16123388D01*
X11178491Y-16123388D02*
X11168968Y-16142436D01*
X11168968Y-16142436D02*
X11159444Y-16151960D01*
X11159444Y-16151960D02*
X11140396Y-16161484D01*
X11140396Y-16161484D02*
X11121348Y-16161484D01*
X11121348Y-16161484D02*
X11102301Y-16151960D01*
X11102301Y-16151960D02*
X11092777Y-16142436D01*
X11092777Y-16142436D02*
X11083253Y-16123388D01*
X11083253Y-16123388D02*
X11073729Y-16085293D01*
X11073729Y-16085293D02*
X11073729Y-16037674D01*
X11073729Y-16037674D02*
X11083253Y-15999579D01*
X11083253Y-15999579D02*
X11092777Y-15980531D01*
X11092777Y-15980531D02*
X11102301Y-15971008D01*
X11102301Y-15971008D02*
X11121348Y-15961484D01*
X11254682Y-15961484D02*
X11378491Y-15961484D01*
X11378491Y-15961484D02*
X11311825Y-16037674D01*
X11311825Y-16037674D02*
X11340396Y-16037674D01*
X11340396Y-16037674D02*
X11359444Y-16047198D01*
X11359444Y-16047198D02*
X11368967Y-16056722D01*
X11368967Y-16056722D02*
X11378491Y-16075769D01*
X11378491Y-16075769D02*
X11378491Y-16123388D01*
X11378491Y-16123388D02*
X11368967Y-16142436D01*
X11368967Y-16142436D02*
X11359444Y-16151960D01*
X11359444Y-16151960D02*
X11340396Y-16161484D01*
X11340396Y-16161484D02*
X11283253Y-16161484D01*
X11283253Y-16161484D02*
X11264206Y-16151960D01*
X11264206Y-16151960D02*
X11254682Y-16142436D01*
X11473729Y-16161484D02*
X11511825Y-16161484D01*
X11511825Y-16161484D02*
X11530872Y-16151960D01*
X11530872Y-16151960D02*
X11540396Y-16142436D01*
X11540396Y-16142436D02*
X11559444Y-16113865D01*
X11559444Y-16113865D02*
X11568967Y-16075769D01*
X11568967Y-16075769D02*
X11568967Y-15999579D01*
X11568967Y-15999579D02*
X11559444Y-15980531D01*
X11559444Y-15980531D02*
X11549920Y-15971008D01*
X11549920Y-15971008D02*
X11530872Y-15961484D01*
X11530872Y-15961484D02*
X11492777Y-15961484D01*
X11492777Y-15961484D02*
X11473729Y-15971008D01*
X11473729Y-15971008D02*
X11464206Y-15980531D01*
X11464206Y-15980531D02*
X11454682Y-15999579D01*
X11454682Y-15999579D02*
X11454682Y-16047198D01*
X11454682Y-16047198D02*
X11464206Y-16066246D01*
X11464206Y-16066246D02*
X11473729Y-16075769D01*
X11473729Y-16075769D02*
X11492777Y-16085293D01*
X11492777Y-16085293D02*
X11530872Y-16085293D01*
X11530872Y-16085293D02*
X11549920Y-16075769D01*
X11549920Y-16075769D02*
X11559444Y-16066246D01*
X11559444Y-16066246D02*
X11568967Y-16047198D01*
X11740396Y-16028150D02*
X11740396Y-16161484D01*
X11692777Y-15951960D02*
X11645158Y-16094817D01*
X11645158Y-16094817D02*
X11768967Y-16094817D01*
X11835634Y-15961484D02*
X11835634Y-15999579D01*
X11911825Y-15961484D02*
X11911825Y-15999579D01*
X12207063Y-16237674D02*
X12197539Y-16228150D01*
X12197539Y-16228150D02*
X12178491Y-16199579D01*
X12178491Y-16199579D02*
X12168968Y-16180531D01*
X12168968Y-16180531D02*
X12159444Y-16151960D01*
X12159444Y-16151960D02*
X12149920Y-16104341D01*
X12149920Y-16104341D02*
X12149920Y-16066246D01*
X12149920Y-16066246D02*
X12159444Y-16018627D01*
X12159444Y-16018627D02*
X12168968Y-15990055D01*
X12168968Y-15990055D02*
X12178491Y-15971008D01*
X12178491Y-15971008D02*
X12197539Y-15942436D01*
X12197539Y-15942436D02*
X12207063Y-15932912D01*
X12273729Y-15980531D02*
X12283253Y-15971008D01*
X12283253Y-15971008D02*
X12302301Y-15961484D01*
X12302301Y-15961484D02*
X12349920Y-15961484D01*
X12349920Y-15961484D02*
X12368968Y-15971008D01*
X12368968Y-15971008D02*
X12378491Y-15980531D01*
X12378491Y-15980531D02*
X12388015Y-15999579D01*
X12388015Y-15999579D02*
X12388015Y-16018627D01*
X12388015Y-16018627D02*
X12378491Y-16047198D01*
X12378491Y-16047198D02*
X12264206Y-16161484D01*
X12264206Y-16161484D02*
X12388015Y-16161484D01*
X12502301Y-16047198D02*
X12483253Y-16037674D01*
X12483253Y-16037674D02*
X12473729Y-16028150D01*
X12473729Y-16028150D02*
X12464206Y-16009103D01*
X12464206Y-16009103D02*
X12464206Y-15999579D01*
X12464206Y-15999579D02*
X12473729Y-15980531D01*
X12473729Y-15980531D02*
X12483253Y-15971008D01*
X12483253Y-15971008D02*
X12502301Y-15961484D01*
X12502301Y-15961484D02*
X12540396Y-15961484D01*
X12540396Y-15961484D02*
X12559444Y-15971008D01*
X12559444Y-15971008D02*
X12568968Y-15980531D01*
X12568968Y-15980531D02*
X12578491Y-15999579D01*
X12578491Y-15999579D02*
X12578491Y-16009103D01*
X12578491Y-16009103D02*
X12568968Y-16028150D01*
X12568968Y-16028150D02*
X12559444Y-16037674D01*
X12559444Y-16037674D02*
X12540396Y-16047198D01*
X12540396Y-16047198D02*
X12502301Y-16047198D01*
X12502301Y-16047198D02*
X12483253Y-16056722D01*
X12483253Y-16056722D02*
X12473729Y-16066246D01*
X12473729Y-16066246D02*
X12464206Y-16085293D01*
X12464206Y-16085293D02*
X12464206Y-16123388D01*
X12464206Y-16123388D02*
X12473729Y-16142436D01*
X12473729Y-16142436D02*
X12483253Y-16151960D01*
X12483253Y-16151960D02*
X12502301Y-16161484D01*
X12502301Y-16161484D02*
X12540396Y-16161484D01*
X12540396Y-16161484D02*
X12559444Y-16151960D01*
X12559444Y-16151960D02*
X12568968Y-16142436D01*
X12568968Y-16142436D02*
X12578491Y-16123388D01*
X12578491Y-16123388D02*
X12578491Y-16085293D01*
X12578491Y-16085293D02*
X12568968Y-16066246D01*
X12568968Y-16066246D02*
X12559444Y-16056722D01*
X12559444Y-16056722D02*
X12540396Y-16047198D01*
X12816587Y-16161484D02*
X12816587Y-15961484D01*
X12902301Y-16161484D02*
X12902301Y-16056722D01*
X12902301Y-16056722D02*
X12892777Y-16037674D01*
X12892777Y-16037674D02*
X12873730Y-16028150D01*
X12873730Y-16028150D02*
X12845158Y-16028150D01*
X12845158Y-16028150D02*
X12826110Y-16037674D01*
X12826110Y-16037674D02*
X12816587Y-16047198D01*
X13026110Y-16161484D02*
X13007063Y-16151960D01*
X13007063Y-16151960D02*
X12997539Y-16142436D01*
X12997539Y-16142436D02*
X12988015Y-16123388D01*
X12988015Y-16123388D02*
X12988015Y-16066246D01*
X12988015Y-16066246D02*
X12997539Y-16047198D01*
X12997539Y-16047198D02*
X13007063Y-16037674D01*
X13007063Y-16037674D02*
X13026110Y-16028150D01*
X13026110Y-16028150D02*
X13054682Y-16028150D01*
X13054682Y-16028150D02*
X13073730Y-16037674D01*
X13073730Y-16037674D02*
X13083253Y-16047198D01*
X13083253Y-16047198D02*
X13092777Y-16066246D01*
X13092777Y-16066246D02*
X13092777Y-16123388D01*
X13092777Y-16123388D02*
X13083253Y-16142436D01*
X13083253Y-16142436D02*
X13073730Y-16151960D01*
X13073730Y-16151960D02*
X13054682Y-16161484D01*
X13054682Y-16161484D02*
X13026110Y-16161484D01*
X13207063Y-16161484D02*
X13188015Y-16151960D01*
X13188015Y-16151960D02*
X13178491Y-16132912D01*
X13178491Y-16132912D02*
X13178491Y-15961484D01*
X13359444Y-16151960D02*
X13340396Y-16161484D01*
X13340396Y-16161484D02*
X13302301Y-16161484D01*
X13302301Y-16161484D02*
X13283253Y-16151960D01*
X13283253Y-16151960D02*
X13273730Y-16132912D01*
X13273730Y-16132912D02*
X13273730Y-16056722D01*
X13273730Y-16056722D02*
X13283253Y-16037674D01*
X13283253Y-16037674D02*
X13302301Y-16028150D01*
X13302301Y-16028150D02*
X13340396Y-16028150D01*
X13340396Y-16028150D02*
X13359444Y-16037674D01*
X13359444Y-16037674D02*
X13368968Y-16056722D01*
X13368968Y-16056722D02*
X13368968Y-16075769D01*
X13368968Y-16075769D02*
X13273730Y-16094817D01*
X13445158Y-16151960D02*
X13464206Y-16161484D01*
X13464206Y-16161484D02*
X13502301Y-16161484D01*
X13502301Y-16161484D02*
X13521349Y-16151960D01*
X13521349Y-16151960D02*
X13530872Y-16132912D01*
X13530872Y-16132912D02*
X13530872Y-16123388D01*
X13530872Y-16123388D02*
X13521349Y-16104341D01*
X13521349Y-16104341D02*
X13502301Y-16094817D01*
X13502301Y-16094817D02*
X13473730Y-16094817D01*
X13473730Y-16094817D02*
X13454682Y-16085293D01*
X13454682Y-16085293D02*
X13445158Y-16066246D01*
X13445158Y-16066246D02*
X13445158Y-16056722D01*
X13445158Y-16056722D02*
X13454682Y-16037674D01*
X13454682Y-16037674D02*
X13473730Y-16028150D01*
X13473730Y-16028150D02*
X13502301Y-16028150D01*
X13502301Y-16028150D02*
X13521349Y-16037674D01*
X13597539Y-16237674D02*
X13607063Y-16228150D01*
X13607063Y-16228150D02*
X13626111Y-16199579D01*
X13626111Y-16199579D02*
X13635634Y-16180531D01*
X13635634Y-16180531D02*
X13645158Y-16151960D01*
X13645158Y-16151960D02*
X13654682Y-16104341D01*
X13654682Y-16104341D02*
X13654682Y-16066246D01*
X13654682Y-16066246D02*
X13645158Y-16018627D01*
X13645158Y-16018627D02*
X13635634Y-15990055D01*
X13635634Y-15990055D02*
X13626111Y-15971008D01*
X13626111Y-15971008D02*
X13607063Y-15942436D01*
X13607063Y-15942436D02*
X13597539Y-15932912D01*
D12*
X8447000Y-16241500D02*
X8632000Y-16426500D01*
X8632000Y-16241500D02*
X8447000Y-16426500D01*
X8539500Y-16241500D02*
X8539500Y-16426500D01*
X8447000Y-16334000D02*
X8632000Y-16334000D01*
D10*
X8997539Y-16425484D02*
X8883253Y-16425484D01*
X8940396Y-16425484D02*
X8940396Y-16225484D01*
X8940396Y-16225484D02*
X8921348Y-16254055D01*
X8921348Y-16254055D02*
X8902301Y-16273103D01*
X8902301Y-16273103D02*
X8883253Y-16282627D01*
X9083253Y-16406436D02*
X9092777Y-16415960D01*
X9092777Y-16415960D02*
X9083253Y-16425484D01*
X9083253Y-16425484D02*
X9073729Y-16415960D01*
X9073729Y-16415960D02*
X9083253Y-16406436D01*
X9083253Y-16406436D02*
X9083253Y-16425484D01*
X9207063Y-16311198D02*
X9188015Y-16301674D01*
X9188015Y-16301674D02*
X9178491Y-16292150D01*
X9178491Y-16292150D02*
X9168967Y-16273103D01*
X9168967Y-16273103D02*
X9168967Y-16263579D01*
X9168967Y-16263579D02*
X9178491Y-16244531D01*
X9178491Y-16244531D02*
X9188015Y-16235008D01*
X9188015Y-16235008D02*
X9207063Y-16225484D01*
X9207063Y-16225484D02*
X9245158Y-16225484D01*
X9245158Y-16225484D02*
X9264205Y-16235008D01*
X9264205Y-16235008D02*
X9273729Y-16244531D01*
X9273729Y-16244531D02*
X9283253Y-16263579D01*
X9283253Y-16263579D02*
X9283253Y-16273103D01*
X9283253Y-16273103D02*
X9273729Y-16292150D01*
X9273729Y-16292150D02*
X9264205Y-16301674D01*
X9264205Y-16301674D02*
X9245158Y-16311198D01*
X9245158Y-16311198D02*
X9207063Y-16311198D01*
X9207063Y-16311198D02*
X9188015Y-16320722D01*
X9188015Y-16320722D02*
X9178491Y-16330246D01*
X9178491Y-16330246D02*
X9168967Y-16349293D01*
X9168967Y-16349293D02*
X9168967Y-16387388D01*
X9168967Y-16387388D02*
X9178491Y-16406436D01*
X9178491Y-16406436D02*
X9188015Y-16415960D01*
X9188015Y-16415960D02*
X9207063Y-16425484D01*
X9207063Y-16425484D02*
X9245158Y-16425484D01*
X9245158Y-16425484D02*
X9264205Y-16415960D01*
X9264205Y-16415960D02*
X9273729Y-16406436D01*
X9273729Y-16406436D02*
X9283253Y-16387388D01*
X9283253Y-16387388D02*
X9283253Y-16349293D01*
X9283253Y-16349293D02*
X9273729Y-16330246D01*
X9273729Y-16330246D02*
X9264205Y-16320722D01*
X9264205Y-16320722D02*
X9245158Y-16311198D01*
X9464205Y-16225484D02*
X9368967Y-16225484D01*
X9368967Y-16225484D02*
X9359444Y-16320722D01*
X9359444Y-16320722D02*
X9368967Y-16311198D01*
X9368967Y-16311198D02*
X9388015Y-16301674D01*
X9388015Y-16301674D02*
X9435634Y-16301674D01*
X9435634Y-16301674D02*
X9454682Y-16311198D01*
X9454682Y-16311198D02*
X9464205Y-16320722D01*
X9464205Y-16320722D02*
X9473729Y-16339769D01*
X9473729Y-16339769D02*
X9473729Y-16387388D01*
X9473729Y-16387388D02*
X9464205Y-16406436D01*
X9464205Y-16406436D02*
X9454682Y-16415960D01*
X9454682Y-16415960D02*
X9435634Y-16425484D01*
X9435634Y-16425484D02*
X9388015Y-16425484D01*
X9388015Y-16425484D02*
X9368967Y-16415960D01*
X9368967Y-16415960D02*
X9359444Y-16406436D01*
X9597539Y-16225484D02*
X9616586Y-16225484D01*
X9616586Y-16225484D02*
X9635634Y-16235008D01*
X9635634Y-16235008D02*
X9645158Y-16244531D01*
X9645158Y-16244531D02*
X9654682Y-16263579D01*
X9654682Y-16263579D02*
X9664205Y-16301674D01*
X9664205Y-16301674D02*
X9664205Y-16349293D01*
X9664205Y-16349293D02*
X9654682Y-16387388D01*
X9654682Y-16387388D02*
X9645158Y-16406436D01*
X9645158Y-16406436D02*
X9635634Y-16415960D01*
X9635634Y-16415960D02*
X9616586Y-16425484D01*
X9616586Y-16425484D02*
X9597539Y-16425484D01*
X9597539Y-16425484D02*
X9578491Y-16415960D01*
X9578491Y-16415960D02*
X9568967Y-16406436D01*
X9568967Y-16406436D02*
X9559444Y-16387388D01*
X9559444Y-16387388D02*
X9549920Y-16349293D01*
X9549920Y-16349293D02*
X9549920Y-16301674D01*
X9549920Y-16301674D02*
X9559444Y-16263579D01*
X9559444Y-16263579D02*
X9568967Y-16244531D01*
X9568967Y-16244531D02*
X9578491Y-16235008D01*
X9578491Y-16235008D02*
X9597539Y-16225484D01*
X9749920Y-16425484D02*
X9749920Y-16292150D01*
X9749920Y-16311198D02*
X9759444Y-16301674D01*
X9759444Y-16301674D02*
X9778491Y-16292150D01*
X9778491Y-16292150D02*
X9807063Y-16292150D01*
X9807063Y-16292150D02*
X9826110Y-16301674D01*
X9826110Y-16301674D02*
X9835634Y-16320722D01*
X9835634Y-16320722D02*
X9835634Y-16425484D01*
X9835634Y-16320722D02*
X9845158Y-16301674D01*
X9845158Y-16301674D02*
X9864205Y-16292150D01*
X9864205Y-16292150D02*
X9892777Y-16292150D01*
X9892777Y-16292150D02*
X9911825Y-16301674D01*
X9911825Y-16301674D02*
X9921348Y-16320722D01*
X9921348Y-16320722D02*
X9921348Y-16425484D01*
X10016586Y-16425484D02*
X10016586Y-16292150D01*
X10016586Y-16311198D02*
X10026110Y-16301674D01*
X10026110Y-16301674D02*
X10045158Y-16292150D01*
X10045158Y-16292150D02*
X10073729Y-16292150D01*
X10073729Y-16292150D02*
X10092777Y-16301674D01*
X10092777Y-16301674D02*
X10102301Y-16320722D01*
X10102301Y-16320722D02*
X10102301Y-16425484D01*
X10102301Y-16320722D02*
X10111825Y-16301674D01*
X10111825Y-16301674D02*
X10130872Y-16292150D01*
X10130872Y-16292150D02*
X10159444Y-16292150D01*
X10159444Y-16292150D02*
X10178491Y-16301674D01*
X10178491Y-16301674D02*
X10188015Y-16320722D01*
X10188015Y-16320722D02*
X10188015Y-16425484D01*
X10578491Y-16215960D02*
X10407063Y-16473103D01*
X10835634Y-16225484D02*
X10854682Y-16225484D01*
X10854682Y-16225484D02*
X10873729Y-16235008D01*
X10873729Y-16235008D02*
X10883253Y-16244531D01*
X10883253Y-16244531D02*
X10892777Y-16263579D01*
X10892777Y-16263579D02*
X10902301Y-16301674D01*
X10902301Y-16301674D02*
X10902301Y-16349293D01*
X10902301Y-16349293D02*
X10892777Y-16387388D01*
X10892777Y-16387388D02*
X10883253Y-16406436D01*
X10883253Y-16406436D02*
X10873729Y-16415960D01*
X10873729Y-16415960D02*
X10854682Y-16425484D01*
X10854682Y-16425484D02*
X10835634Y-16425484D01*
X10835634Y-16425484D02*
X10816587Y-16415960D01*
X10816587Y-16415960D02*
X10807063Y-16406436D01*
X10807063Y-16406436D02*
X10797539Y-16387388D01*
X10797539Y-16387388D02*
X10788015Y-16349293D01*
X10788015Y-16349293D02*
X10788015Y-16301674D01*
X10788015Y-16301674D02*
X10797539Y-16263579D01*
X10797539Y-16263579D02*
X10807063Y-16244531D01*
X10807063Y-16244531D02*
X10816587Y-16235008D01*
X10816587Y-16235008D02*
X10835634Y-16225484D01*
X10988015Y-16406436D02*
X10997539Y-16415960D01*
X10997539Y-16415960D02*
X10988015Y-16425484D01*
X10988015Y-16425484D02*
X10978491Y-16415960D01*
X10978491Y-16415960D02*
X10988015Y-16406436D01*
X10988015Y-16406436D02*
X10988015Y-16425484D01*
X11121348Y-16225484D02*
X11140396Y-16225484D01*
X11140396Y-16225484D02*
X11159444Y-16235008D01*
X11159444Y-16235008D02*
X11168968Y-16244531D01*
X11168968Y-16244531D02*
X11178491Y-16263579D01*
X11178491Y-16263579D02*
X11188015Y-16301674D01*
X11188015Y-16301674D02*
X11188015Y-16349293D01*
X11188015Y-16349293D02*
X11178491Y-16387388D01*
X11178491Y-16387388D02*
X11168968Y-16406436D01*
X11168968Y-16406436D02*
X11159444Y-16415960D01*
X11159444Y-16415960D02*
X11140396Y-16425484D01*
X11140396Y-16425484D02*
X11121348Y-16425484D01*
X11121348Y-16425484D02*
X11102301Y-16415960D01*
X11102301Y-16415960D02*
X11092777Y-16406436D01*
X11092777Y-16406436D02*
X11083253Y-16387388D01*
X11083253Y-16387388D02*
X11073729Y-16349293D01*
X11073729Y-16349293D02*
X11073729Y-16301674D01*
X11073729Y-16301674D02*
X11083253Y-16263579D01*
X11083253Y-16263579D02*
X11092777Y-16244531D01*
X11092777Y-16244531D02*
X11102301Y-16235008D01*
X11102301Y-16235008D02*
X11121348Y-16225484D01*
X11254682Y-16225484D02*
X11388015Y-16225484D01*
X11388015Y-16225484D02*
X11302301Y-16425484D01*
X11454682Y-16244531D02*
X11464206Y-16235008D01*
X11464206Y-16235008D02*
X11483253Y-16225484D01*
X11483253Y-16225484D02*
X11530872Y-16225484D01*
X11530872Y-16225484D02*
X11549920Y-16235008D01*
X11549920Y-16235008D02*
X11559444Y-16244531D01*
X11559444Y-16244531D02*
X11568967Y-16263579D01*
X11568967Y-16263579D02*
X11568967Y-16282627D01*
X11568967Y-16282627D02*
X11559444Y-16311198D01*
X11559444Y-16311198D02*
X11445158Y-16425484D01*
X11445158Y-16425484D02*
X11568967Y-16425484D01*
X11683253Y-16311198D02*
X11664206Y-16301674D01*
X11664206Y-16301674D02*
X11654682Y-16292150D01*
X11654682Y-16292150D02*
X11645158Y-16273103D01*
X11645158Y-16273103D02*
X11645158Y-16263579D01*
X11645158Y-16263579D02*
X11654682Y-16244531D01*
X11654682Y-16244531D02*
X11664206Y-16235008D01*
X11664206Y-16235008D02*
X11683253Y-16225484D01*
X11683253Y-16225484D02*
X11721348Y-16225484D01*
X11721348Y-16225484D02*
X11740396Y-16235008D01*
X11740396Y-16235008D02*
X11749920Y-16244531D01*
X11749920Y-16244531D02*
X11759444Y-16263579D01*
X11759444Y-16263579D02*
X11759444Y-16273103D01*
X11759444Y-16273103D02*
X11749920Y-16292150D01*
X11749920Y-16292150D02*
X11740396Y-16301674D01*
X11740396Y-16301674D02*
X11721348Y-16311198D01*
X11721348Y-16311198D02*
X11683253Y-16311198D01*
X11683253Y-16311198D02*
X11664206Y-16320722D01*
X11664206Y-16320722D02*
X11654682Y-16330246D01*
X11654682Y-16330246D02*
X11645158Y-16349293D01*
X11645158Y-16349293D02*
X11645158Y-16387388D01*
X11645158Y-16387388D02*
X11654682Y-16406436D01*
X11654682Y-16406436D02*
X11664206Y-16415960D01*
X11664206Y-16415960D02*
X11683253Y-16425484D01*
X11683253Y-16425484D02*
X11721348Y-16425484D01*
X11721348Y-16425484D02*
X11740396Y-16415960D01*
X11740396Y-16415960D02*
X11749920Y-16406436D01*
X11749920Y-16406436D02*
X11759444Y-16387388D01*
X11759444Y-16387388D02*
X11759444Y-16349293D01*
X11759444Y-16349293D02*
X11749920Y-16330246D01*
X11749920Y-16330246D02*
X11740396Y-16320722D01*
X11740396Y-16320722D02*
X11721348Y-16311198D01*
X11835634Y-16225484D02*
X11835634Y-16263579D01*
X11911825Y-16225484D02*
X11911825Y-16263579D01*
X12207063Y-16501674D02*
X12197539Y-16492150D01*
X12197539Y-16492150D02*
X12178491Y-16463579D01*
X12178491Y-16463579D02*
X12168968Y-16444531D01*
X12168968Y-16444531D02*
X12159444Y-16415960D01*
X12159444Y-16415960D02*
X12149920Y-16368341D01*
X12149920Y-16368341D02*
X12149920Y-16330246D01*
X12149920Y-16330246D02*
X12159444Y-16282627D01*
X12159444Y-16282627D02*
X12168968Y-16254055D01*
X12168968Y-16254055D02*
X12178491Y-16235008D01*
X12178491Y-16235008D02*
X12197539Y-16206436D01*
X12197539Y-16206436D02*
X12207063Y-16196912D01*
X12368968Y-16292150D02*
X12368968Y-16425484D01*
X12321348Y-16215960D02*
X12273729Y-16358817D01*
X12273729Y-16358817D02*
X12397539Y-16358817D01*
X12626110Y-16425484D02*
X12626110Y-16225484D01*
X12711825Y-16425484D02*
X12711825Y-16320722D01*
X12711825Y-16320722D02*
X12702301Y-16301674D01*
X12702301Y-16301674D02*
X12683253Y-16292150D01*
X12683253Y-16292150D02*
X12654682Y-16292150D01*
X12654682Y-16292150D02*
X12635634Y-16301674D01*
X12635634Y-16301674D02*
X12626110Y-16311198D01*
X12835634Y-16425484D02*
X12816587Y-16415960D01*
X12816587Y-16415960D02*
X12807063Y-16406436D01*
X12807063Y-16406436D02*
X12797539Y-16387388D01*
X12797539Y-16387388D02*
X12797539Y-16330246D01*
X12797539Y-16330246D02*
X12807063Y-16311198D01*
X12807063Y-16311198D02*
X12816587Y-16301674D01*
X12816587Y-16301674D02*
X12835634Y-16292150D01*
X12835634Y-16292150D02*
X12864206Y-16292150D01*
X12864206Y-16292150D02*
X12883253Y-16301674D01*
X12883253Y-16301674D02*
X12892777Y-16311198D01*
X12892777Y-16311198D02*
X12902301Y-16330246D01*
X12902301Y-16330246D02*
X12902301Y-16387388D01*
X12902301Y-16387388D02*
X12892777Y-16406436D01*
X12892777Y-16406436D02*
X12883253Y-16415960D01*
X12883253Y-16415960D02*
X12864206Y-16425484D01*
X12864206Y-16425484D02*
X12835634Y-16425484D01*
X13016587Y-16425484D02*
X12997539Y-16415960D01*
X12997539Y-16415960D02*
X12988015Y-16396912D01*
X12988015Y-16396912D02*
X12988015Y-16225484D01*
X13168968Y-16415960D02*
X13149920Y-16425484D01*
X13149920Y-16425484D02*
X13111825Y-16425484D01*
X13111825Y-16425484D02*
X13092777Y-16415960D01*
X13092777Y-16415960D02*
X13083253Y-16396912D01*
X13083253Y-16396912D02*
X13083253Y-16320722D01*
X13083253Y-16320722D02*
X13092777Y-16301674D01*
X13092777Y-16301674D02*
X13111825Y-16292150D01*
X13111825Y-16292150D02*
X13149920Y-16292150D01*
X13149920Y-16292150D02*
X13168968Y-16301674D01*
X13168968Y-16301674D02*
X13178491Y-16320722D01*
X13178491Y-16320722D02*
X13178491Y-16339769D01*
X13178491Y-16339769D02*
X13083253Y-16358817D01*
X13254682Y-16415960D02*
X13273730Y-16425484D01*
X13273730Y-16425484D02*
X13311825Y-16425484D01*
X13311825Y-16425484D02*
X13330872Y-16415960D01*
X13330872Y-16415960D02*
X13340396Y-16396912D01*
X13340396Y-16396912D02*
X13340396Y-16387388D01*
X13340396Y-16387388D02*
X13330872Y-16368341D01*
X13330872Y-16368341D02*
X13311825Y-16358817D01*
X13311825Y-16358817D02*
X13283253Y-16358817D01*
X13283253Y-16358817D02*
X13264206Y-16349293D01*
X13264206Y-16349293D02*
X13254682Y-16330246D01*
X13254682Y-16330246D02*
X13254682Y-16320722D01*
X13254682Y-16320722D02*
X13264206Y-16301674D01*
X13264206Y-16301674D02*
X13283253Y-16292150D01*
X13283253Y-16292150D02*
X13311825Y-16292150D01*
X13311825Y-16292150D02*
X13330872Y-16301674D01*
X13407063Y-16501674D02*
X13416587Y-16492150D01*
X13416587Y-16492150D02*
X13435634Y-16463579D01*
X13435634Y-16463579D02*
X13445158Y-16444531D01*
X13445158Y-16444531D02*
X13454682Y-16415960D01*
X13454682Y-16415960D02*
X13464206Y-16368341D01*
X13464206Y-16368341D02*
X13464206Y-16330246D01*
X13464206Y-16330246D02*
X13454682Y-16282627D01*
X13454682Y-16282627D02*
X13445158Y-16254055D01*
X13445158Y-16254055D02*
X13435634Y-16235008D01*
X13435634Y-16235008D02*
X13416587Y-16206436D01*
X13416587Y-16206436D02*
X13407063Y-16196912D01*
X8432000Y-16539000D02*
X8632000Y-16739000D01*
X8632000Y-16539000D02*
X8432000Y-16739000D01*
X8602711Y-16709711D02*
X8602711Y-16568289D01*
X8461289Y-16568289D01*
X8461289Y-16709711D01*
X8602711Y-16709711D01*
X8883253Y-16549531D02*
X8892777Y-16540008D01*
X8892777Y-16540008D02*
X8911824Y-16530484D01*
X8911824Y-16530484D02*
X8959444Y-16530484D01*
X8959444Y-16530484D02*
X8978491Y-16540008D01*
X8978491Y-16540008D02*
X8988015Y-16549531D01*
X8988015Y-16549531D02*
X8997539Y-16568579D01*
X8997539Y-16568579D02*
X8997539Y-16587627D01*
X8997539Y-16587627D02*
X8988015Y-16616198D01*
X8988015Y-16616198D02*
X8873729Y-16730484D01*
X8873729Y-16730484D02*
X8997539Y-16730484D01*
X9083253Y-16711436D02*
X9092777Y-16720960D01*
X9092777Y-16720960D02*
X9083253Y-16730484D01*
X9083253Y-16730484D02*
X9073729Y-16720960D01*
X9073729Y-16720960D02*
X9083253Y-16711436D01*
X9083253Y-16711436D02*
X9083253Y-16730484D01*
X9264205Y-16597150D02*
X9264205Y-16730484D01*
X9216586Y-16520960D02*
X9168967Y-16663817D01*
X9168967Y-16663817D02*
X9292777Y-16663817D01*
X9407063Y-16530484D02*
X9426110Y-16530484D01*
X9426110Y-16530484D02*
X9445158Y-16540008D01*
X9445158Y-16540008D02*
X9454682Y-16549531D01*
X9454682Y-16549531D02*
X9464205Y-16568579D01*
X9464205Y-16568579D02*
X9473729Y-16606674D01*
X9473729Y-16606674D02*
X9473729Y-16654293D01*
X9473729Y-16654293D02*
X9464205Y-16692388D01*
X9464205Y-16692388D02*
X9454682Y-16711436D01*
X9454682Y-16711436D02*
X9445158Y-16720960D01*
X9445158Y-16720960D02*
X9426110Y-16730484D01*
X9426110Y-16730484D02*
X9407063Y-16730484D01*
X9407063Y-16730484D02*
X9388015Y-16720960D01*
X9388015Y-16720960D02*
X9378491Y-16711436D01*
X9378491Y-16711436D02*
X9368967Y-16692388D01*
X9368967Y-16692388D02*
X9359444Y-16654293D01*
X9359444Y-16654293D02*
X9359444Y-16606674D01*
X9359444Y-16606674D02*
X9368967Y-16568579D01*
X9368967Y-16568579D02*
X9378491Y-16549531D01*
X9378491Y-16549531D02*
X9388015Y-16540008D01*
X9388015Y-16540008D02*
X9407063Y-16530484D01*
X9597539Y-16530484D02*
X9616586Y-16530484D01*
X9616586Y-16530484D02*
X9635634Y-16540008D01*
X9635634Y-16540008D02*
X9645158Y-16549531D01*
X9645158Y-16549531D02*
X9654682Y-16568579D01*
X9654682Y-16568579D02*
X9664205Y-16606674D01*
X9664205Y-16606674D02*
X9664205Y-16654293D01*
X9664205Y-16654293D02*
X9654682Y-16692388D01*
X9654682Y-16692388D02*
X9645158Y-16711436D01*
X9645158Y-16711436D02*
X9635634Y-16720960D01*
X9635634Y-16720960D02*
X9616586Y-16730484D01*
X9616586Y-16730484D02*
X9597539Y-16730484D01*
X9597539Y-16730484D02*
X9578491Y-16720960D01*
X9578491Y-16720960D02*
X9568967Y-16711436D01*
X9568967Y-16711436D02*
X9559444Y-16692388D01*
X9559444Y-16692388D02*
X9549920Y-16654293D01*
X9549920Y-16654293D02*
X9549920Y-16606674D01*
X9549920Y-16606674D02*
X9559444Y-16568579D01*
X9559444Y-16568579D02*
X9568967Y-16549531D01*
X9568967Y-16549531D02*
X9578491Y-16540008D01*
X9578491Y-16540008D02*
X9597539Y-16530484D01*
X9749920Y-16730484D02*
X9749920Y-16597150D01*
X9749920Y-16616198D02*
X9759444Y-16606674D01*
X9759444Y-16606674D02*
X9778491Y-16597150D01*
X9778491Y-16597150D02*
X9807063Y-16597150D01*
X9807063Y-16597150D02*
X9826110Y-16606674D01*
X9826110Y-16606674D02*
X9835634Y-16625722D01*
X9835634Y-16625722D02*
X9835634Y-16730484D01*
X9835634Y-16625722D02*
X9845158Y-16606674D01*
X9845158Y-16606674D02*
X9864205Y-16597150D01*
X9864205Y-16597150D02*
X9892777Y-16597150D01*
X9892777Y-16597150D02*
X9911825Y-16606674D01*
X9911825Y-16606674D02*
X9921348Y-16625722D01*
X9921348Y-16625722D02*
X9921348Y-16730484D01*
X10016586Y-16730484D02*
X10016586Y-16597150D01*
X10016586Y-16616198D02*
X10026110Y-16606674D01*
X10026110Y-16606674D02*
X10045158Y-16597150D01*
X10045158Y-16597150D02*
X10073729Y-16597150D01*
X10073729Y-16597150D02*
X10092777Y-16606674D01*
X10092777Y-16606674D02*
X10102301Y-16625722D01*
X10102301Y-16625722D02*
X10102301Y-16730484D01*
X10102301Y-16625722D02*
X10111825Y-16606674D01*
X10111825Y-16606674D02*
X10130872Y-16597150D01*
X10130872Y-16597150D02*
X10159444Y-16597150D01*
X10159444Y-16597150D02*
X10178491Y-16606674D01*
X10178491Y-16606674D02*
X10188015Y-16625722D01*
X10188015Y-16625722D02*
X10188015Y-16730484D01*
X10578491Y-16520960D02*
X10407063Y-16778103D01*
X10835634Y-16530484D02*
X10854682Y-16530484D01*
X10854682Y-16530484D02*
X10873729Y-16540008D01*
X10873729Y-16540008D02*
X10883253Y-16549531D01*
X10883253Y-16549531D02*
X10892777Y-16568579D01*
X10892777Y-16568579D02*
X10902301Y-16606674D01*
X10902301Y-16606674D02*
X10902301Y-16654293D01*
X10902301Y-16654293D02*
X10892777Y-16692388D01*
X10892777Y-16692388D02*
X10883253Y-16711436D01*
X10883253Y-16711436D02*
X10873729Y-16720960D01*
X10873729Y-16720960D02*
X10854682Y-16730484D01*
X10854682Y-16730484D02*
X10835634Y-16730484D01*
X10835634Y-16730484D02*
X10816587Y-16720960D01*
X10816587Y-16720960D02*
X10807063Y-16711436D01*
X10807063Y-16711436D02*
X10797539Y-16692388D01*
X10797539Y-16692388D02*
X10788015Y-16654293D01*
X10788015Y-16654293D02*
X10788015Y-16606674D01*
X10788015Y-16606674D02*
X10797539Y-16568579D01*
X10797539Y-16568579D02*
X10807063Y-16549531D01*
X10807063Y-16549531D02*
X10816587Y-16540008D01*
X10816587Y-16540008D02*
X10835634Y-16530484D01*
X10988015Y-16711436D02*
X10997539Y-16720960D01*
X10997539Y-16720960D02*
X10988015Y-16730484D01*
X10988015Y-16730484D02*
X10978491Y-16720960D01*
X10978491Y-16720960D02*
X10988015Y-16711436D01*
X10988015Y-16711436D02*
X10988015Y-16730484D01*
X11121348Y-16530484D02*
X11140396Y-16530484D01*
X11140396Y-16530484D02*
X11159444Y-16540008D01*
X11159444Y-16540008D02*
X11168968Y-16549531D01*
X11168968Y-16549531D02*
X11178491Y-16568579D01*
X11178491Y-16568579D02*
X11188015Y-16606674D01*
X11188015Y-16606674D02*
X11188015Y-16654293D01*
X11188015Y-16654293D02*
X11178491Y-16692388D01*
X11178491Y-16692388D02*
X11168968Y-16711436D01*
X11168968Y-16711436D02*
X11159444Y-16720960D01*
X11159444Y-16720960D02*
X11140396Y-16730484D01*
X11140396Y-16730484D02*
X11121348Y-16730484D01*
X11121348Y-16730484D02*
X11102301Y-16720960D01*
X11102301Y-16720960D02*
X11092777Y-16711436D01*
X11092777Y-16711436D02*
X11083253Y-16692388D01*
X11083253Y-16692388D02*
X11073729Y-16654293D01*
X11073729Y-16654293D02*
X11073729Y-16606674D01*
X11073729Y-16606674D02*
X11083253Y-16568579D01*
X11083253Y-16568579D02*
X11092777Y-16549531D01*
X11092777Y-16549531D02*
X11102301Y-16540008D01*
X11102301Y-16540008D02*
X11121348Y-16530484D01*
X11283253Y-16730484D02*
X11321348Y-16730484D01*
X11321348Y-16730484D02*
X11340396Y-16720960D01*
X11340396Y-16720960D02*
X11349920Y-16711436D01*
X11349920Y-16711436D02*
X11368967Y-16682865D01*
X11368967Y-16682865D02*
X11378491Y-16644769D01*
X11378491Y-16644769D02*
X11378491Y-16568579D01*
X11378491Y-16568579D02*
X11368967Y-16549531D01*
X11368967Y-16549531D02*
X11359444Y-16540008D01*
X11359444Y-16540008D02*
X11340396Y-16530484D01*
X11340396Y-16530484D02*
X11302301Y-16530484D01*
X11302301Y-16530484D02*
X11283253Y-16540008D01*
X11283253Y-16540008D02*
X11273729Y-16549531D01*
X11273729Y-16549531D02*
X11264206Y-16568579D01*
X11264206Y-16568579D02*
X11264206Y-16616198D01*
X11264206Y-16616198D02*
X11273729Y-16635246D01*
X11273729Y-16635246D02*
X11283253Y-16644769D01*
X11283253Y-16644769D02*
X11302301Y-16654293D01*
X11302301Y-16654293D02*
X11340396Y-16654293D01*
X11340396Y-16654293D02*
X11359444Y-16644769D01*
X11359444Y-16644769D02*
X11368967Y-16635246D01*
X11368967Y-16635246D02*
X11378491Y-16616198D01*
X11549920Y-16597150D02*
X11549920Y-16730484D01*
X11502301Y-16520960D02*
X11454682Y-16663817D01*
X11454682Y-16663817D02*
X11578491Y-16663817D01*
X11749920Y-16530484D02*
X11654682Y-16530484D01*
X11654682Y-16530484D02*
X11645158Y-16625722D01*
X11645158Y-16625722D02*
X11654682Y-16616198D01*
X11654682Y-16616198D02*
X11673729Y-16606674D01*
X11673729Y-16606674D02*
X11721348Y-16606674D01*
X11721348Y-16606674D02*
X11740396Y-16616198D01*
X11740396Y-16616198D02*
X11749920Y-16625722D01*
X11749920Y-16625722D02*
X11759444Y-16644769D01*
X11759444Y-16644769D02*
X11759444Y-16692388D01*
X11759444Y-16692388D02*
X11749920Y-16711436D01*
X11749920Y-16711436D02*
X11740396Y-16720960D01*
X11740396Y-16720960D02*
X11721348Y-16730484D01*
X11721348Y-16730484D02*
X11673729Y-16730484D01*
X11673729Y-16730484D02*
X11654682Y-16720960D01*
X11654682Y-16720960D02*
X11645158Y-16711436D01*
X11835634Y-16530484D02*
X11835634Y-16568579D01*
X11911825Y-16530484D02*
X11911825Y-16568579D01*
X12207063Y-16806674D02*
X12197539Y-16797150D01*
X12197539Y-16797150D02*
X12178491Y-16768579D01*
X12178491Y-16768579D02*
X12168968Y-16749531D01*
X12168968Y-16749531D02*
X12159444Y-16720960D01*
X12159444Y-16720960D02*
X12149920Y-16673341D01*
X12149920Y-16673341D02*
X12149920Y-16635246D01*
X12149920Y-16635246D02*
X12159444Y-16587627D01*
X12159444Y-16587627D02*
X12168968Y-16559055D01*
X12168968Y-16559055D02*
X12178491Y-16540008D01*
X12178491Y-16540008D02*
X12197539Y-16511436D01*
X12197539Y-16511436D02*
X12207063Y-16501912D01*
X12388015Y-16730484D02*
X12273729Y-16730484D01*
X12330872Y-16730484D02*
X12330872Y-16530484D01*
X12330872Y-16530484D02*
X12311825Y-16559055D01*
X12311825Y-16559055D02*
X12292777Y-16578103D01*
X12292777Y-16578103D02*
X12273729Y-16587627D01*
X12626110Y-16730484D02*
X12626110Y-16530484D01*
X12711825Y-16730484D02*
X12711825Y-16625722D01*
X12711825Y-16625722D02*
X12702301Y-16606674D01*
X12702301Y-16606674D02*
X12683253Y-16597150D01*
X12683253Y-16597150D02*
X12654682Y-16597150D01*
X12654682Y-16597150D02*
X12635634Y-16606674D01*
X12635634Y-16606674D02*
X12626110Y-16616198D01*
X12835634Y-16730484D02*
X12816587Y-16720960D01*
X12816587Y-16720960D02*
X12807063Y-16711436D01*
X12807063Y-16711436D02*
X12797539Y-16692388D01*
X12797539Y-16692388D02*
X12797539Y-16635246D01*
X12797539Y-16635246D02*
X12807063Y-16616198D01*
X12807063Y-16616198D02*
X12816587Y-16606674D01*
X12816587Y-16606674D02*
X12835634Y-16597150D01*
X12835634Y-16597150D02*
X12864206Y-16597150D01*
X12864206Y-16597150D02*
X12883253Y-16606674D01*
X12883253Y-16606674D02*
X12892777Y-16616198D01*
X12892777Y-16616198D02*
X12902301Y-16635246D01*
X12902301Y-16635246D02*
X12902301Y-16692388D01*
X12902301Y-16692388D02*
X12892777Y-16711436D01*
X12892777Y-16711436D02*
X12883253Y-16720960D01*
X12883253Y-16720960D02*
X12864206Y-16730484D01*
X12864206Y-16730484D02*
X12835634Y-16730484D01*
X13016587Y-16730484D02*
X12997539Y-16720960D01*
X12997539Y-16720960D02*
X12988015Y-16701912D01*
X12988015Y-16701912D02*
X12988015Y-16530484D01*
X13168968Y-16720960D02*
X13149920Y-16730484D01*
X13149920Y-16730484D02*
X13111825Y-16730484D01*
X13111825Y-16730484D02*
X13092777Y-16720960D01*
X13092777Y-16720960D02*
X13083253Y-16701912D01*
X13083253Y-16701912D02*
X13083253Y-16625722D01*
X13083253Y-16625722D02*
X13092777Y-16606674D01*
X13092777Y-16606674D02*
X13111825Y-16597150D01*
X13111825Y-16597150D02*
X13149920Y-16597150D01*
X13149920Y-16597150D02*
X13168968Y-16606674D01*
X13168968Y-16606674D02*
X13178491Y-16625722D01*
X13178491Y-16625722D02*
X13178491Y-16644769D01*
X13178491Y-16644769D02*
X13083253Y-16663817D01*
X13245158Y-16806674D02*
X13254682Y-16797150D01*
X13254682Y-16797150D02*
X13273730Y-16768579D01*
X13273730Y-16768579D02*
X13283253Y-16749531D01*
X13283253Y-16749531D02*
X13292777Y-16720960D01*
X13292777Y-16720960D02*
X13302301Y-16673341D01*
X13302301Y-16673341D02*
X13302301Y-16635246D01*
X13302301Y-16635246D02*
X13292777Y-16587627D01*
X13292777Y-16587627D02*
X13283253Y-16559055D01*
X13283253Y-16559055D02*
X13273730Y-16540008D01*
X13273730Y-16540008D02*
X13254682Y-16511436D01*
X13254682Y-16511436D02*
X13245158Y-16501912D01*
M02*
