M48
; DRILL file {KiCad 7.0.11-7.0.11~ubuntu22.04.1} date Sat 24 Aug 2024 02:15:52 PM EDT
; FORMAT={-:-/ absolute / inch / decimal}
; #@! TF.CreationDate,2024-08-24T14:15:52-04:00
; #@! TF.GenerationSoftware,Kicad,Pcbnew,7.0.11-7.0.11~ubuntu22.04.1
; #@! TF.FileFunction,Plated,1,2,PTH
FMAT,2
INCH
; #@! TA.AperFunction,Plated,PTH,ComponentDrill
T1C0.0098
; #@! TA.AperFunction,Plated,PTH,ViaDrill
T2C0.0157
; #@! TA.AperFunction,Plated,PTH,ComponentDrill
T3C0.0236
; #@! TA.AperFunction,Plated,PTH,ComponentDrill
T4C0.0295
; #@! TA.AperFunction,Plated,PTH,ComponentDrill
T5C0.0394
; #@! TA.AperFunction,Plated,PTH,ComponentDrill
T6C0.0728
%
G90
G05
T1
X4.9894Y-3.4787
X4.9894Y-3.5181
X4.9953Y-4.3606
X4.9953Y-4.4
T2
X3.6909Y-4.2717
X3.7697Y-3.4449
X3.8748Y-3.878
X3.8748Y-4.5554
X3.9314Y-4.3449
X4.0295Y-3.7961
X4.0924Y-4.9297
X4.0945Y-3.2874
X4.1929Y-4.6555
X4.2098Y-4.3685
X4.2126Y-3.5925
X4.2228Y-5.2551
X4.3307Y-4.1535
X4.339Y-4.9415
X4.3437Y-5.0075
X4.3602Y-2.9528
X4.3766Y-4.7837
X4.4091Y-3.5764
X4.4193Y-4.7244
X4.4224Y-4.4713
X4.4276Y-4.8871
X4.4346Y-4.5137
X4.4685Y-2.8937
X4.4811Y-5.0735
X4.501Y-4.7755
X4.5079Y-4.8327
X4.539Y-4.0622
X4.5472Y-4.5571
X4.5823Y-5.2874
X4.5866Y-4.7146
X4.6193Y-2.7354
X4.64Y-5.09
X4.6555Y-3.3858
X4.685Y-3.7795
X4.8524Y-4.1952
X4.9295Y-4.8295
X4.95Y-2.62
X4.9571Y-5.3795
X4.9606Y-2.4213
X4.9913Y-5.1736
X4.9961Y-4.5217
X5.0111Y-5.1121
X5.0197Y-2.7953
X5.03Y-3.27
X5.0404Y-5.1807
X5.0618Y-3.3746
X5.0695Y-3.1386
X5.0724Y-3.4669
X5.075Y-3.5717
X5.0764Y-4.3571
X5.0764Y-4.4421
X5.0787Y-3.9961
X5.0854Y-3.5318
X5.0886Y-3.8583
X5.0898Y-4.23
X5.1061Y-3.1194
X5.108Y-3.0712
X5.1207Y-4.3986
X5.1327Y-3.5184
X5.26Y-4.07
X5.27Y-3.91
X5.3346Y-2.7559
X5.337Y-3.0677
X5.34Y-4.72
X5.3665Y-4.4478
X5.4002Y-4.4872
X5.4187Y-3.099
X5.4626Y-3.2677
X5.4921Y-2.8839
X5.5807Y-2.7362
X5.6614Y-5.3128
X5.7579Y-2.8839
X5.8343Y-5.4949
X5.876Y-2.815
X5.8937Y-5.3677
X6.063Y-4.6654
X6.1319Y-2.8445
X6.1614Y-4.5768
X6.1618Y-4.948
X6.2169Y-5.3094
X6.23Y-4.35
X6.2303Y-3.5433
X6.2402Y-5.5236
X6.25Y-4.7244
X6.337Y-5.3575
X6.367Y-2.6752
X6.3689Y-5.1972
X6.4065Y-5.3717
X6.4902Y-5.3508
X6.5059Y-2.8248
X6.5365Y-2.6378
X6.5837Y-5.4543
X6.6161Y-5.3724
X6.6236Y-3.2366
X6.6339Y-4.9705
X6.6437Y-2.6673
X6.6743Y-2.5926
X6.6818Y-2.9286
X6.71Y-4.62
X6.7297Y-2.6421
X6.735Y-2.8524
X6.752Y-2.6969
X6.7668Y-2.8832
X6.8031Y-2.9228
X6.8655Y-2.5908
X6.8661Y-2.9535
X6.884Y-3.076
X6.89Y-2.79
X6.9Y-2.89
X6.9218Y-2.5613
X7.0016Y-2.9504
X7.06Y-3.1248
X7.185Y-5.0492
X7.1949Y-2.6673
X7.2786Y-3.4472
X7.3Y-4.38
X7.3108Y-3.4213
X7.3283Y-3.211
X7.3717Y-3.5727
X7.3819Y-2.9811
X7.4Y-3.54
X7.4016Y-4.1339
X7.4341Y-3.6735
X7.4351Y-3.5891
X7.4441Y-3.7303
X7.45Y-4.0897
X7.4705Y-5.4528
X7.4748Y-4.0566
X7.491Y-4.4101
X7.5075Y-4.0313
X7.52Y-3.61
X7.5297Y-3.9964
X7.5394Y-2.5492
X7.5475Y-3.495
X7.5518Y-4.3072
X7.5876Y-4.2894
X7.5941Y-3.4902
X7.6028Y-3.5492
X7.6472Y-4.1459
X7.65Y-4.63
X7.6622Y-3.7425
X7.6689Y-3.6865
X7.6715Y-4.0682
X7.6768Y-4.1125
X7.7061Y-3.562
X7.7146Y-3.7787
X7.7283Y-3.5047
X7.7425Y-3.7362
X7.753Y-3.3406
X7.7664Y-4.1325
X7.78Y-4.46
X7.8076Y-4.1363
X7.8154Y-4.0914
X7.8267Y-3.4082
X7.8346Y-3.7894
X7.8445Y-4.0453
X7.8791Y-3.7217
X7.9232Y-3.6909
X7.9262Y-4.1481
X7.9524Y-3.5508
X7.9528Y-4.0798
X7.9724Y-3.7598
X8.002Y-5.4232
X8.0445Y-3.4547
X8.0445Y-3.5445
X8.0512Y-4.8425
X8.0972Y-4.1441
X8.1362Y-2.9976
X8.1445Y-2.5571
X8.1512Y-4.4744
T4
X5.265Y-3.2783
X5.265Y-3.3571
X5.265Y-3.4358
X5.265Y-3.5146
X5.265Y-3.5933
X5.265Y-3.672
X5.265Y-4.1937
X5.265Y-4.2724
X5.265Y-4.3512
X5.265Y-4.4299
X5.265Y-4.5087
X5.265Y-4.5874
T5
X5.2567Y-2.4602
X5.2567Y-2.5602
X5.3567Y-2.4602
X5.3567Y-2.5602
X5.4567Y-2.4602
X5.4567Y-2.5602
X5.5567Y-2.4602
X5.5567Y-2.5602
X5.6567Y-2.4602
X5.6567Y-2.5602
X5.7567Y-2.4602
X5.7567Y-2.5602
X5.8567Y-2.4602
X5.8567Y-2.5602
X5.9567Y-2.4602
X5.9567Y-2.5602
X6.0567Y-2.4602
X6.0567Y-2.5602
X6.1567Y-2.4602
X6.1567Y-2.5602
X6.2567Y-2.4602
X6.2567Y-2.5602
X6.3567Y-2.4602
X6.3567Y-2.5602
T6
X4.739Y-2.5016
X4.739Y-3.1319
X4.739Y-4.7378
X4.739Y-5.3681
T3
X5.5465Y-5.2577G85X5.5465Y-5.301
G05
X5.5465Y-5.4281G85X5.5465Y-5.4596
G05
X5.8866Y-5.2577G85X5.8866Y-5.301
G05
X5.8866Y-5.4281G85X5.8866Y-5.4596
G05
M30
