%TF.GenerationSoftware,KiCad,Pcbnew,7.0.11-7.0.11~ubuntu22.04.1*%
%TF.CreationDate,2024-08-24T14:15:54-04:00*%
%TF.ProjectId,little_red_rover,6c697474-6c65-45f7-9265-645f726f7665,rev?*%
%TF.SameCoordinates,Original*%
%TF.FileFunction,Drillmap*%
%TF.FilePolarity,Positive*%
%FSLAX45Y45*%
G04 Gerber Fmt 4.5, Leading zero omitted, Abs format (unit mm)*
G04 Created by KiCad (PCBNEW 7.0.11-7.0.11~ubuntu22.04.1) date 2024-08-24 14:15:54*
%MOMM*%
%LPD*%
G01*
G04 APERTURE LIST*
%ADD10C,0.200000*%
%ADD11C,0.100000*%
%ADD12C,0.185000*%
G04 APERTURE END LIST*
D10*
X13985992Y-8356141D02*
G75*
G03*
X13985992Y-11625859I3166008J-1634859D01*
G01*
X21372000Y-11581000D02*
X20772000Y-11581000D01*
X15930362Y-10491000D02*
X14616153Y-11733043D01*
X20772000Y-8171000D02*
X20772000Y-8401000D01*
X21372000Y-13901000D02*
X20772000Y-13901000D01*
X12752000Y-5881000D02*
X21372000Y-5881000D01*
X9120611Y-10991000D02*
X8765510Y-10991000D01*
X17122000Y-8171000D02*
X17122000Y-8401000D01*
X18372000Y-13671000D02*
X18372000Y-13901000D01*
X14616148Y-8248962D02*
G75*
G03*
X13985992Y-8356141I-274748J-290708D01*
G01*
X12752000Y-5881000D02*
G75*
G03*
X9161443Y-7991000I0J-4110000D01*
G01*
X18372000Y-13671000D02*
X17122000Y-13671000D01*
X17122000Y-11811000D02*
X17122000Y-11581000D01*
X9457125Y-11991000D02*
X9161443Y-11991000D01*
X20772000Y-13671000D02*
X20772000Y-13901000D01*
X21372000Y-13671000D02*
X20772000Y-13671000D01*
X21372000Y-6311000D02*
X20772000Y-6311000D01*
X8720611Y-9191000D02*
X9120611Y-9191000D01*
X21372000Y-13671000D02*
X21372000Y-11811000D01*
X9057125Y-8191000D02*
G75*
G03*
X8765510Y-8991000I3694875J-1800000D01*
G01*
X21372000Y-8171000D02*
X20772000Y-8171000D01*
X17122000Y-13671000D02*
X17122000Y-13901000D01*
X18372000Y-6311000D02*
X18372000Y-6081000D01*
X18372000Y-11581000D02*
X17122000Y-11581000D01*
X12752000Y-14101000D02*
X21372000Y-14101000D01*
X21372000Y-8401000D02*
X20772000Y-8401000D01*
X21372000Y-14101000D02*
X21372000Y-13901000D01*
X9457125Y-7991000D02*
X9161443Y-7991000D01*
X21372000Y-11811000D02*
X20772000Y-11811000D01*
X21372000Y-6081000D02*
X21372000Y-5881000D01*
X18372000Y-6311000D02*
X17122000Y-6311000D01*
X15930362Y-9491000D02*
X14616153Y-8248957D01*
X9161443Y-11991000D02*
G75*
G03*
X12752000Y-14101000I3590557J2000000D01*
G01*
X9457125Y-8191000D02*
X9457125Y-7991000D01*
X8720611Y-9191000D02*
G75*
G03*
X8720611Y-10791000I4031389J-800000D01*
G01*
X18372000Y-11811000D02*
X18372000Y-11581000D01*
X8765510Y-10991000D02*
G75*
G03*
X9057125Y-11791000I3986490J1000000D01*
G01*
X9120611Y-9191000D02*
X9120611Y-8991000D01*
X18372000Y-8171000D02*
X18372000Y-8401000D01*
X9457125Y-11791000D02*
X9457125Y-11991000D01*
X15930362Y-10491000D02*
G75*
G03*
X15930362Y-9491000I1221638J500000D01*
G01*
X9057125Y-8191000D02*
X9457125Y-8191000D01*
X13985986Y-11625862D02*
G75*
G03*
X14616153Y-11733043I355414J183532D01*
G01*
X21372000Y-6081000D02*
X20772000Y-6081000D01*
X20772000Y-6311000D02*
X20772000Y-6081000D01*
X18372000Y-8171000D02*
X17122000Y-8171000D01*
X9057125Y-11791000D02*
X9457125Y-11791000D01*
X9120611Y-8991000D02*
X8765510Y-8991000D01*
X9120611Y-10791000D02*
X9120611Y-10991000D01*
X18372000Y-11811000D02*
X17122000Y-11811000D01*
X21372000Y-11581000D02*
X21372000Y-8401000D01*
X17122000Y-6311000D02*
X17122000Y-6081000D01*
X20772000Y-11811000D02*
X20772000Y-11581000D01*
X8720611Y-10791000D02*
X9120611Y-10791000D01*
X21372000Y-8171000D02*
X21372000Y-6311000D01*
X18372000Y-13901000D02*
X17122000Y-13901000D01*
X18372000Y-8401000D02*
X17122000Y-8401000D01*
X18372000Y-6081000D02*
X17122000Y-6081000D01*
D11*
X12660500Y-8823500D02*
X12685500Y-8848500D01*
X12685500Y-8823500D02*
X12660500Y-8848500D01*
X12660500Y-8923500D02*
X12685500Y-8948500D01*
X12685500Y-8923500D02*
X12660500Y-8948500D01*
X12675500Y-11063500D02*
X12700500Y-11088500D01*
X12700500Y-11063500D02*
X12675500Y-11088500D01*
X12675500Y-11163500D02*
X12700500Y-11188500D01*
X12700500Y-11163500D02*
X12675500Y-11188500D01*
X9395000Y-10850000D02*
G75*
G03*
X9355000Y-10850000I-20000J0D01*
G01*
X9355000Y-10850000D02*
G75*
G03*
X9395000Y-10850000I20000J0D01*
G01*
X9595000Y-8750000D02*
G75*
G03*
X9555000Y-8750000I-20000J0D01*
G01*
X9555000Y-8750000D02*
G75*
G03*
X9595000Y-8750000I20000J0D01*
G01*
X9862000Y-9850000D02*
G75*
G03*
X9822000Y-9850000I-20000J0D01*
G01*
X9822000Y-9850000D02*
G75*
G03*
X9862000Y-9850000I20000J0D01*
G01*
X9862000Y-11570750D02*
G75*
G03*
X9822000Y-11570750I-20000J0D01*
G01*
X9822000Y-11570750D02*
G75*
G03*
X9862000Y-11570750I20000J0D01*
G01*
X10005771Y-11035979D02*
G75*
G03*
X9965771Y-11035979I-20000J0D01*
G01*
X9965771Y-11035979D02*
G75*
G03*
X10005771Y-11035979I20000J0D01*
G01*
X10255000Y-9642000D02*
G75*
G03*
X10215000Y-9642000I-20000J0D01*
G01*
X10215000Y-9642000D02*
G75*
G03*
X10255000Y-9642000I20000J0D01*
G01*
X10414625Y-12521375D02*
G75*
G03*
X10374625Y-12521375I-20000J0D01*
G01*
X10374625Y-12521375D02*
G75*
G03*
X10414625Y-12521375I20000J0D01*
G01*
X10420000Y-8350000D02*
G75*
G03*
X10380000Y-8350000I-20000J0D01*
G01*
X10380000Y-8350000D02*
G75*
G03*
X10420000Y-8350000I20000J0D01*
G01*
X10670000Y-11825000D02*
G75*
G03*
X10630000Y-11825000I-20000J0D01*
G01*
X10630000Y-11825000D02*
G75*
G03*
X10670000Y-11825000I20000J0D01*
G01*
X10713000Y-11096000D02*
G75*
G03*
X10673000Y-11096000I-20000J0D01*
G01*
X10673000Y-11096000D02*
G75*
G03*
X10713000Y-11096000I20000J0D01*
G01*
X10720000Y-9125000D02*
G75*
G03*
X10680000Y-9125000I-20000J0D01*
G01*
X10680000Y-9125000D02*
G75*
G03*
X10720000Y-9125000I20000J0D01*
G01*
X10746000Y-13348000D02*
G75*
G03*
X10706000Y-13348000I-20000J0D01*
G01*
X10706000Y-13348000D02*
G75*
G03*
X10746000Y-13348000I20000J0D01*
G01*
X11020000Y-10550000D02*
G75*
G03*
X10980000Y-10550000I-20000J0D01*
G01*
X10980000Y-10550000D02*
G75*
G03*
X11020000Y-10550000I20000J0D01*
G01*
X11041118Y-12551535D02*
G75*
G03*
X11001118Y-12551535I-20000J0D01*
G01*
X11001118Y-12551535D02*
G75*
G03*
X11041118Y-12551535I20000J0D01*
G01*
X11053000Y-12719000D02*
G75*
G03*
X11013000Y-12719000I-20000J0D01*
G01*
X11013000Y-12719000D02*
G75*
G03*
X11053000Y-12719000I20000J0D01*
G01*
X11095000Y-7500000D02*
G75*
G03*
X11055000Y-7500000I-20000J0D01*
G01*
X11055000Y-7500000D02*
G75*
G03*
X11095000Y-7500000I20000J0D01*
G01*
X11136600Y-12150550D02*
G75*
G03*
X11096600Y-12150550I-20000J0D01*
G01*
X11096600Y-12150550D02*
G75*
G03*
X11136600Y-12150550I20000J0D01*
G01*
X11219000Y-9084000D02*
G75*
G03*
X11179000Y-9084000I-20000J0D01*
G01*
X11179000Y-9084000D02*
G75*
G03*
X11219000Y-9084000I20000J0D01*
G01*
X11245000Y-12000000D02*
G75*
G03*
X11205000Y-12000000I-20000J0D01*
G01*
X11205000Y-12000000D02*
G75*
G03*
X11245000Y-12000000I20000J0D01*
G01*
X11253000Y-11357000D02*
G75*
G03*
X11213000Y-11357000I-20000J0D01*
G01*
X11213000Y-11357000D02*
G75*
G03*
X11253000Y-11357000I20000J0D01*
G01*
X11266060Y-12413305D02*
G75*
G03*
X11226060Y-12413305I-20000J0D01*
G01*
X11226060Y-12413305D02*
G75*
G03*
X11266060Y-12413305I20000J0D01*
G01*
X11284000Y-11464750D02*
G75*
G03*
X11244000Y-11464750I-20000J0D01*
G01*
X11244000Y-11464750D02*
G75*
G03*
X11284000Y-11464750I20000J0D01*
G01*
X11370000Y-7350000D02*
G75*
G03*
X11330000Y-7350000I-20000J0D01*
G01*
X11330000Y-7350000D02*
G75*
G03*
X11370000Y-7350000I20000J0D01*
G01*
X11402000Y-12886750D02*
G75*
G03*
X11362000Y-12886750I-20000J0D01*
G01*
X11362000Y-12886750D02*
G75*
G03*
X11402000Y-12886750I20000J0D01*
G01*
X11452626Y-12129860D02*
G75*
G03*
X11412626Y-12129860I-20000J0D01*
G01*
X11412626Y-12129860D02*
G75*
G03*
X11452626Y-12129860I20000J0D01*
G01*
X11470000Y-12275000D02*
G75*
G03*
X11430000Y-12275000I-20000J0D01*
G01*
X11430000Y-12275000D02*
G75*
G03*
X11470000Y-12275000I20000J0D01*
G01*
X11549000Y-10318000D02*
G75*
G03*
X11509000Y-10318000I-20000J0D01*
G01*
X11509000Y-10318000D02*
G75*
G03*
X11549000Y-10318000I20000J0D01*
G01*
X11570000Y-11575000D02*
G75*
G03*
X11530000Y-11575000I-20000J0D01*
G01*
X11530000Y-11575000D02*
G75*
G03*
X11570000Y-11575000I20000J0D01*
G01*
X11659000Y-13430000D02*
G75*
G03*
X11619000Y-13430000I-20000J0D01*
G01*
X11619000Y-13430000D02*
G75*
G03*
X11659000Y-13430000I20000J0D01*
G01*
X11670000Y-11975000D02*
G75*
G03*
X11630000Y-11975000I-20000J0D01*
G01*
X11630000Y-11975000D02*
G75*
G03*
X11670000Y-11975000I20000J0D01*
G01*
X11753000Y-6948000D02*
G75*
G03*
X11713000Y-6948000I-20000J0D01*
G01*
X11713000Y-6948000D02*
G75*
G03*
X11753000Y-6948000I20000J0D01*
G01*
X11805600Y-12928600D02*
G75*
G03*
X11765600Y-12928600I-20000J0D01*
G01*
X11765600Y-12928600D02*
G75*
G03*
X11805600Y-12928600I20000J0D01*
G01*
X11845000Y-8600000D02*
G75*
G03*
X11805000Y-8600000I-20000J0D01*
G01*
X11805000Y-8600000D02*
G75*
G03*
X11845000Y-8600000I20000J0D01*
G01*
X11920000Y-9600000D02*
G75*
G03*
X11880000Y-9600000I-20000J0D01*
G01*
X11880000Y-9600000D02*
G75*
G03*
X11920000Y-9600000I20000J0D01*
G01*
X12345000Y-10655741D02*
G75*
G03*
X12305000Y-10655741I-20000J0D01*
G01*
X12305000Y-10655741D02*
G75*
G03*
X12345000Y-10655741I20000J0D01*
G01*
X12541000Y-12267000D02*
G75*
G03*
X12501000Y-12267000I-20000J0D01*
G01*
X12501000Y-12267000D02*
G75*
G03*
X12541000Y-12267000I20000J0D01*
G01*
X12593000Y-6654800D02*
G75*
G03*
X12553000Y-6654800I-20000J0D01*
G01*
X12553000Y-6654800D02*
G75*
G03*
X12593000Y-6654800I20000J0D01*
G01*
X12611000Y-13664000D02*
G75*
G03*
X12571000Y-13664000I-20000J0D01*
G01*
X12571000Y-13664000D02*
G75*
G03*
X12611000Y-13664000I20000J0D01*
G01*
X12620000Y-6150000D02*
G75*
G03*
X12580000Y-6150000I-20000J0D01*
G01*
X12580000Y-6150000D02*
G75*
G03*
X12620000Y-6150000I20000J0D01*
G01*
X12698000Y-13141000D02*
G75*
G03*
X12658000Y-13141000I-20000J0D01*
G01*
X12658000Y-13141000D02*
G75*
G03*
X12698000Y-13141000I20000J0D01*
G01*
X12710000Y-11485000D02*
G75*
G03*
X12670000Y-11485000I-20000J0D01*
G01*
X12670000Y-11485000D02*
G75*
G03*
X12710000Y-11485000I20000J0D01*
G01*
X12748138Y-12984796D02*
G75*
G03*
X12708138Y-12984796I-20000J0D01*
G01*
X12708138Y-12984796D02*
G75*
G03*
X12748138Y-12984796I20000J0D01*
G01*
X12770000Y-7100000D02*
G75*
G03*
X12730000Y-7100000I-20000J0D01*
G01*
X12730000Y-7100000D02*
G75*
G03*
X12770000Y-7100000I20000J0D01*
G01*
X12796200Y-8305800D02*
G75*
G03*
X12756200Y-8305800I-20000J0D01*
G01*
X12756200Y-8305800D02*
G75*
G03*
X12796200Y-8305800I20000J0D01*
G01*
X12822622Y-13159000D02*
G75*
G03*
X12782622Y-13159000I-20000J0D01*
G01*
X12782622Y-13159000D02*
G75*
G03*
X12822622Y-13159000I20000J0D01*
G01*
X12877006Y-8571477D02*
G75*
G03*
X12837006Y-8571477I-20000J0D01*
G01*
X12837006Y-8571477D02*
G75*
G03*
X12877006Y-8571477I20000J0D01*
G01*
X12896600Y-7972000D02*
G75*
G03*
X12856600Y-7972000I-20000J0D01*
G01*
X12856600Y-7972000D02*
G75*
G03*
X12896600Y-7972000I20000J0D01*
G01*
X12904000Y-8806000D02*
G75*
G03*
X12864000Y-8806000I-20000J0D01*
G01*
X12864000Y-8806000D02*
G75*
G03*
X12904000Y-8806000I20000J0D01*
G01*
X12910378Y-9072200D02*
G75*
G03*
X12870378Y-9072200I-20000J0D01*
G01*
X12870378Y-9072200D02*
G75*
G03*
X12910378Y-9072200I20000J0D01*
G01*
X12914000Y-11067000D02*
G75*
G03*
X12874000Y-11067000I-20000J0D01*
G01*
X12874000Y-11067000D02*
G75*
G03*
X12914000Y-11067000I20000J0D01*
G01*
X12914000Y-11283000D02*
G75*
G03*
X12874000Y-11283000I-20000J0D01*
G01*
X12874000Y-11283000D02*
G75*
G03*
X12914000Y-11283000I20000J0D01*
G01*
X12920000Y-10150000D02*
G75*
G03*
X12880000Y-10150000I-20000J0D01*
G01*
X12880000Y-10150000D02*
G75*
G03*
X12920000Y-10150000I20000J0D01*
G01*
X12936999Y-8970825D02*
G75*
G03*
X12896999Y-8970825I-20000J0D01*
G01*
X12896999Y-8970825D02*
G75*
G03*
X12936999Y-8970825I20000J0D01*
G01*
X12945000Y-9800000D02*
G75*
G03*
X12905000Y-9800000I-20000J0D01*
G01*
X12905000Y-9800000D02*
G75*
G03*
X12945000Y-9800000I20000J0D01*
G01*
X12948000Y-10744200D02*
G75*
G03*
X12908000Y-10744200I-20000J0D01*
G01*
X12908000Y-10744200D02*
G75*
G03*
X12948000Y-10744200I20000J0D01*
G01*
X12989605Y-7923265D02*
G75*
G03*
X12949605Y-7923265I-20000J0D01*
G01*
X12949605Y-7923265D02*
G75*
G03*
X12989605Y-7923265I20000J0D01*
G01*
X12994231Y-7800748D02*
G75*
G03*
X12954231Y-7800748I-20000J0D01*
G01*
X12954231Y-7800748D02*
G75*
G03*
X12994231Y-7800748I20000J0D01*
G01*
X13026602Y-11172327D02*
G75*
G03*
X12986602Y-11172327I-20000J0D01*
G01*
X12986602Y-11172327D02*
G75*
G03*
X13026602Y-11172327I20000J0D01*
G01*
X13057132Y-8936711D02*
G75*
G03*
X13017132Y-8936711I-20000J0D01*
G01*
X13017132Y-8936711D02*
G75*
G03*
X13057132Y-8936711I20000J0D01*
G01*
X13380400Y-10337800D02*
G75*
G03*
X13340400Y-10337800I-20000J0D01*
G01*
X13340400Y-10337800D02*
G75*
G03*
X13380400Y-10337800I20000J0D01*
G01*
X13405800Y-9931400D02*
G75*
G03*
X13365800Y-9931400I-20000J0D01*
G01*
X13365800Y-9931400D02*
G75*
G03*
X13405800Y-9931400I20000J0D01*
G01*
X13570000Y-7000000D02*
G75*
G03*
X13530000Y-7000000I-20000J0D01*
G01*
X13530000Y-7000000D02*
G75*
G03*
X13570000Y-7000000I20000J0D01*
G01*
X13576000Y-7792000D02*
G75*
G03*
X13536000Y-7792000I-20000J0D01*
G01*
X13536000Y-7792000D02*
G75*
G03*
X13576000Y-7792000I20000J0D01*
G01*
X13583600Y-11988800D02*
G75*
G03*
X13543600Y-11988800I-20000J0D01*
G01*
X13543600Y-11988800D02*
G75*
G03*
X13583600Y-11988800I20000J0D01*
G01*
X13650920Y-11297290D02*
G75*
G03*
X13610920Y-11297290I-20000J0D01*
G01*
X13610920Y-11297290D02*
G75*
G03*
X13650920Y-11297290I20000J0D01*
G01*
X13736602Y-11397398D02*
G75*
G03*
X13696602Y-11397398I-20000J0D01*
G01*
X13696602Y-11397398D02*
G75*
G03*
X13736602Y-11397398I20000J0D01*
G01*
X13783486Y-7871402D02*
G75*
G03*
X13743486Y-7871402I-20000J0D01*
G01*
X13743486Y-7871402D02*
G75*
G03*
X13783486Y-7871402I20000J0D01*
G01*
X13895000Y-8300000D02*
G75*
G03*
X13855000Y-8300000I-20000J0D01*
G01*
X13855000Y-8300000D02*
G75*
G03*
X13895000Y-8300000I20000J0D01*
G01*
X13970000Y-7325000D02*
G75*
G03*
X13930000Y-7325000I-20000J0D01*
G01*
X13930000Y-7325000D02*
G75*
G03*
X13970000Y-7325000I20000J0D01*
G01*
X14195000Y-6950000D02*
G75*
G03*
X14155000Y-6950000I-20000J0D01*
G01*
X14155000Y-6950000D02*
G75*
G03*
X14195000Y-6950000I20000J0D01*
G01*
X14400000Y-13494500D02*
G75*
G03*
X14360000Y-13494500I-20000J0D01*
G01*
X14360000Y-13494500D02*
G75*
G03*
X14400000Y-13494500I20000J0D01*
G01*
X14645000Y-7325000D02*
G75*
G03*
X14605000Y-7325000I-20000J0D01*
G01*
X14605000Y-7325000D02*
G75*
G03*
X14645000Y-7325000I20000J0D01*
G01*
X14839000Y-13957000D02*
G75*
G03*
X14799000Y-13957000I-20000J0D01*
G01*
X14799000Y-13957000D02*
G75*
G03*
X14839000Y-13957000I20000J0D01*
G01*
X14945000Y-7150000D02*
G75*
G03*
X14905000Y-7150000I-20000J0D01*
G01*
X14905000Y-7150000D02*
G75*
G03*
X14945000Y-7150000I20000J0D01*
G01*
X14990000Y-13634000D02*
G75*
G03*
X14950000Y-13634000I-20000J0D01*
G01*
X14950000Y-13634000D02*
G75*
G03*
X14990000Y-13634000I20000J0D01*
G01*
X15420000Y-11850000D02*
G75*
G03*
X15380000Y-11850000I-20000J0D01*
G01*
X15380000Y-11850000D02*
G75*
G03*
X15420000Y-11850000I20000J0D01*
G01*
X15595000Y-7225000D02*
G75*
G03*
X15555000Y-7225000I-20000J0D01*
G01*
X15555000Y-7225000D02*
G75*
G03*
X15595000Y-7225000I20000J0D01*
G01*
X15670000Y-11625000D02*
G75*
G03*
X15630000Y-11625000I-20000J0D01*
G01*
X15630000Y-11625000D02*
G75*
G03*
X15670000Y-11625000I20000J0D01*
G01*
X15671000Y-12568000D02*
G75*
G03*
X15631000Y-12568000I-20000J0D01*
G01*
X15631000Y-12568000D02*
G75*
G03*
X15671000Y-12568000I20000J0D01*
G01*
X15811000Y-13486000D02*
G75*
G03*
X15771000Y-13486000I-20000J0D01*
G01*
X15771000Y-13486000D02*
G75*
G03*
X15811000Y-13486000I20000J0D01*
G01*
X15844200Y-11049000D02*
G75*
G03*
X15804200Y-11049000I-20000J0D01*
G01*
X15804200Y-11049000D02*
G75*
G03*
X15844200Y-11049000I20000J0D01*
G01*
X15845000Y-9000000D02*
G75*
G03*
X15805000Y-9000000I-20000J0D01*
G01*
X15805000Y-9000000D02*
G75*
G03*
X15845000Y-9000000I20000J0D01*
G01*
X15870000Y-14030000D02*
G75*
G03*
X15830000Y-14030000I-20000J0D01*
G01*
X15830000Y-14030000D02*
G75*
G03*
X15870000Y-14030000I20000J0D01*
G01*
X15895000Y-12000000D02*
G75*
G03*
X15855000Y-12000000I-20000J0D01*
G01*
X15855000Y-12000000D02*
G75*
G03*
X15895000Y-12000000I20000J0D01*
G01*
X16116000Y-13608000D02*
G75*
G03*
X16076000Y-13608000I-20000J0D01*
G01*
X16076000Y-13608000D02*
G75*
G03*
X16116000Y-13608000I20000J0D01*
G01*
X16192081Y-6795000D02*
G75*
G03*
X16152081Y-6795000I-20000J0D01*
G01*
X16152081Y-6795000D02*
G75*
G03*
X16192081Y-6795000I20000J0D01*
G01*
X16197000Y-13201000D02*
G75*
G03*
X16157000Y-13201000I-20000J0D01*
G01*
X16157000Y-13201000D02*
G75*
G03*
X16197000Y-13201000I20000J0D01*
G01*
X16292500Y-13644000D02*
G75*
G03*
X16252500Y-13644000I-20000J0D01*
G01*
X16252500Y-13644000D02*
G75*
G03*
X16292500Y-13644000I20000J0D01*
G01*
X16505000Y-13591000D02*
G75*
G03*
X16465000Y-13591000I-20000J0D01*
G01*
X16465000Y-13591000D02*
G75*
G03*
X16505000Y-13591000I20000J0D01*
G01*
X16545000Y-7175000D02*
G75*
G03*
X16505000Y-7175000I-20000J0D01*
G01*
X16505000Y-7175000D02*
G75*
G03*
X16545000Y-7175000I20000J0D01*
G01*
X16622767Y-6700000D02*
G75*
G03*
X16582767Y-6700000I-20000J0D01*
G01*
X16582767Y-6700000D02*
G75*
G03*
X16622767Y-6700000I20000J0D01*
G01*
X16742500Y-13854000D02*
G75*
G03*
X16702500Y-13854000I-20000J0D01*
G01*
X16702500Y-13854000D02*
G75*
G03*
X16742500Y-13854000I20000J0D01*
G01*
X16825000Y-13646000D02*
G75*
G03*
X16785000Y-13646000I-20000J0D01*
G01*
X16785000Y-13646000D02*
G75*
G03*
X16825000Y-13646000I20000J0D01*
G01*
X16844000Y-8221000D02*
G75*
G03*
X16804000Y-8221000I-20000J0D01*
G01*
X16804000Y-8221000D02*
G75*
G03*
X16844000Y-8221000I20000J0D01*
G01*
X16870000Y-12625000D02*
G75*
G03*
X16830000Y-12625000I-20000J0D01*
G01*
X16830000Y-12625000D02*
G75*
G03*
X16870000Y-12625000I20000J0D01*
G01*
X16895000Y-6775000D02*
G75*
G03*
X16855000Y-6775000I-20000J0D01*
G01*
X16855000Y-6775000D02*
G75*
G03*
X16895000Y-6775000I20000J0D01*
G01*
X16972631Y-6585265D02*
G75*
G03*
X16932631Y-6585265I-20000J0D01*
G01*
X16932631Y-6585265D02*
G75*
G03*
X16972631Y-6585265I20000J0D01*
G01*
X16991826Y-7438595D02*
G75*
G03*
X16951826Y-7438595I-20000J0D01*
G01*
X16951826Y-7438595D02*
G75*
G03*
X16991826Y-7438595I20000J0D01*
G01*
X17063400Y-11734800D02*
G75*
G03*
X17023400Y-11734800I-20000J0D01*
G01*
X17023400Y-11734800D02*
G75*
G03*
X17063400Y-11734800I20000J0D01*
G01*
X17113391Y-6711000D02*
G75*
G03*
X17073391Y-6711000I-20000J0D01*
G01*
X17073391Y-6711000D02*
G75*
G03*
X17113391Y-6711000I20000J0D01*
G01*
X17127000Y-7245000D02*
G75*
G03*
X17087000Y-7245000I-20000J0D01*
G01*
X17087000Y-7245000D02*
G75*
G03*
X17127000Y-7245000I20000J0D01*
G01*
X17170000Y-6850000D02*
G75*
G03*
X17130000Y-6850000I-20000J0D01*
G01*
X17130000Y-6850000D02*
G75*
G03*
X17170000Y-6850000I20000J0D01*
G01*
X17207671Y-7323280D02*
G75*
G03*
X17167671Y-7323280I-20000J0D01*
G01*
X17167671Y-7323280D02*
G75*
G03*
X17207671Y-7323280I20000J0D01*
G01*
X17300000Y-7424000D02*
G75*
G03*
X17260000Y-7424000I-20000J0D01*
G01*
X17260000Y-7424000D02*
G75*
G03*
X17300000Y-7424000I20000J0D01*
G01*
X17458251Y-6580647D02*
G75*
G03*
X17418251Y-6580647I-20000J0D01*
G01*
X17418251Y-6580647D02*
G75*
G03*
X17458251Y-6580647I20000J0D01*
G01*
X17460000Y-7502000D02*
G75*
G03*
X17420000Y-7502000I-20000J0D01*
G01*
X17420000Y-7502000D02*
G75*
G03*
X17460000Y-7502000I20000J0D01*
G01*
X17505233Y-7813167D02*
G75*
G03*
X17465233Y-7813167I-20000J0D01*
G01*
X17465233Y-7813167D02*
G75*
G03*
X17505233Y-7813167I20000J0D01*
G01*
X17520600Y-7086600D02*
G75*
G03*
X17480600Y-7086600I-20000J0D01*
G01*
X17480600Y-7086600D02*
G75*
G03*
X17520600Y-7086600I20000J0D01*
G01*
X17546000Y-7340600D02*
G75*
G03*
X17506000Y-7340600I-20000J0D01*
G01*
X17506000Y-7340600D02*
G75*
G03*
X17546000Y-7340600I20000J0D01*
G01*
X17601260Y-6505647D02*
G75*
G03*
X17561260Y-6505647I-20000J0D01*
G01*
X17561260Y-6505647D02*
G75*
G03*
X17601260Y-6505647I20000J0D01*
G01*
X17804000Y-7494000D02*
G75*
G03*
X17764000Y-7494000I-20000J0D01*
G01*
X17764000Y-7494000D02*
G75*
G03*
X17804000Y-7494000I20000J0D01*
G01*
X17952400Y-7937000D02*
G75*
G03*
X17912400Y-7937000I-20000J0D01*
G01*
X17912400Y-7937000D02*
G75*
G03*
X17952400Y-7937000I20000J0D01*
G01*
X18270000Y-12825000D02*
G75*
G03*
X18230000Y-12825000I-20000J0D01*
G01*
X18230000Y-12825000D02*
G75*
G03*
X18270000Y-12825000I20000J0D01*
G01*
X18295000Y-6775000D02*
G75*
G03*
X18255000Y-6775000I-20000J0D01*
G01*
X18255000Y-6775000D02*
G75*
G03*
X18295000Y-6775000I20000J0D01*
G01*
X18507742Y-8756000D02*
G75*
G03*
X18467742Y-8756000I-20000J0D01*
G01*
X18467742Y-8756000D02*
G75*
G03*
X18507742Y-8756000I20000J0D01*
G01*
X18562000Y-11125200D02*
G75*
G03*
X18522000Y-11125200I-20000J0D01*
G01*
X18522000Y-11125200D02*
G75*
G03*
X18562000Y-11125200I20000J0D01*
G01*
X18589443Y-8690047D02*
G75*
G03*
X18549443Y-8690047I-20000J0D01*
G01*
X18549443Y-8690047D02*
G75*
G03*
X18589443Y-8690047I20000J0D01*
G01*
X18634000Y-8156000D02*
G75*
G03*
X18594000Y-8156000I-20000J0D01*
G01*
X18594000Y-8156000D02*
G75*
G03*
X18634000Y-8156000I20000J0D01*
G01*
X18743998Y-9074681D02*
G75*
G03*
X18703998Y-9074681I-20000J0D01*
G01*
X18703998Y-9074681D02*
G75*
G03*
X18743998Y-9074681I20000J0D01*
G01*
X18770000Y-7572000D02*
G75*
G03*
X18730000Y-7572000I-20000J0D01*
G01*
X18730000Y-7572000D02*
G75*
G03*
X18770000Y-7572000I20000J0D01*
G01*
X18816000Y-8991600D02*
G75*
G03*
X18776000Y-8991600I-20000J0D01*
G01*
X18776000Y-8991600D02*
G75*
G03*
X18816000Y-8991600I20000J0D01*
G01*
X18820000Y-10500000D02*
G75*
G03*
X18780000Y-10500000I-20000J0D01*
G01*
X18780000Y-10500000D02*
G75*
G03*
X18820000Y-10500000I20000J0D01*
G01*
X18902537Y-9330603D02*
G75*
G03*
X18862537Y-9330603I-20000J0D01*
G01*
X18862537Y-9330603D02*
G75*
G03*
X18902537Y-9330603I20000J0D01*
G01*
X18905164Y-9116362D02*
G75*
G03*
X18865164Y-9116362I-20000J0D01*
G01*
X18865164Y-9116362D02*
G75*
G03*
X18905164Y-9116362I20000J0D01*
G01*
X18928028Y-9474962D02*
G75*
G03*
X18888028Y-9474962I-20000J0D01*
G01*
X18888028Y-9474962D02*
G75*
G03*
X18928028Y-9474962I20000J0D01*
G01*
X18942918Y-10387763D02*
G75*
G03*
X18902918Y-10387763I-20000J0D01*
G01*
X18902918Y-10387763D02*
G75*
G03*
X18942918Y-10387763I20000J0D01*
G01*
X18995000Y-13850000D02*
G75*
G03*
X18955000Y-13850000I-20000J0D01*
G01*
X18955000Y-13850000D02*
G75*
G03*
X18995000Y-13850000I20000J0D01*
G01*
X19005949Y-10303786D02*
G75*
G03*
X18965949Y-10303786I-20000J0D01*
G01*
X18965949Y-10303786D02*
G75*
G03*
X19005949Y-10303786I20000J0D01*
G01*
X19047131Y-11201777D02*
G75*
G03*
X19007131Y-11201777I-20000J0D01*
G01*
X19007131Y-11201777D02*
G75*
G03*
X19047131Y-11201777I20000J0D01*
G01*
X19088977Y-10239510D02*
G75*
G03*
X19048977Y-10239510I-20000J0D01*
G01*
X19048977Y-10239510D02*
G75*
G03*
X19088977Y-10239510I20000J0D01*
G01*
X19120800Y-9169400D02*
G75*
G03*
X19080800Y-9169400I-20000J0D01*
G01*
X19080800Y-9169400D02*
G75*
G03*
X19120800Y-9169400I20000J0D01*
G01*
X19145400Y-10150957D02*
G75*
G03*
X19105400Y-10150957I-20000J0D01*
G01*
X19105400Y-10150957D02*
G75*
G03*
X19145400Y-10150957I20000J0D01*
G01*
X19170000Y-6475000D02*
G75*
G03*
X19130000Y-6475000I-20000J0D01*
G01*
X19130000Y-6475000D02*
G75*
G03*
X19170000Y-6475000I20000J0D01*
G01*
X19190599Y-8877339D02*
G75*
G03*
X19150599Y-8877339I-20000J0D01*
G01*
X19150599Y-8877339D02*
G75*
G03*
X19190599Y-8877339I20000J0D01*
G01*
X19201660Y-10940262D02*
G75*
G03*
X19161660Y-10940262I-20000J0D01*
G01*
X19161660Y-10940262D02*
G75*
G03*
X19201660Y-10940262I20000J0D01*
G01*
X19292597Y-10895000D02*
G75*
G03*
X19252597Y-10895000I-20000J0D01*
G01*
X19252597Y-10895000D02*
G75*
G03*
X19292597Y-10895000I20000J0D01*
G01*
X19309004Y-8865000D02*
G75*
G03*
X19269004Y-8865000I-20000J0D01*
G01*
X19269004Y-8865000D02*
G75*
G03*
X19309004Y-8865000I20000J0D01*
G01*
X19331000Y-9015000D02*
G75*
G03*
X19291000Y-9015000I-20000J0D01*
G01*
X19291000Y-9015000D02*
G75*
G03*
X19331000Y-9015000I20000J0D01*
G01*
X19443989Y-10530676D02*
G75*
G03*
X19403989Y-10530676I-20000J0D01*
G01*
X19403989Y-10530676D02*
G75*
G03*
X19443989Y-10530676I20000J0D01*
G01*
X19451000Y-11760200D02*
G75*
G03*
X19411000Y-11760200I-20000J0D01*
G01*
X19411000Y-11760200D02*
G75*
G03*
X19451000Y-11760200I20000J0D01*
G01*
X19482000Y-9506000D02*
G75*
G03*
X19442000Y-9506000I-20000J0D01*
G01*
X19442000Y-9506000D02*
G75*
G03*
X19482000Y-9506000I20000J0D01*
G01*
X19498938Y-9363686D02*
G75*
G03*
X19458938Y-9363686I-20000J0D01*
G01*
X19458938Y-9363686D02*
G75*
G03*
X19498938Y-9363686I20000J0D01*
G01*
X19505633Y-10333137D02*
G75*
G03*
X19465633Y-10333137I-20000J0D01*
G01*
X19465633Y-10333137D02*
G75*
G03*
X19505633Y-10333137I20000J0D01*
G01*
X19518989Y-10445642D02*
G75*
G03*
X19478989Y-10445642I-20000J0D01*
G01*
X19478989Y-10445642D02*
G75*
G03*
X19518989Y-10445642I20000J0D01*
G01*
X19593375Y-9047511D02*
G75*
G03*
X19553375Y-9047511I-20000J0D01*
G01*
X19553375Y-9047511D02*
G75*
G03*
X19593375Y-9047511I20000J0D01*
G01*
X19615000Y-9598000D02*
G75*
G03*
X19575000Y-9598000I-20000J0D01*
G01*
X19575000Y-9598000D02*
G75*
G03*
X19615000Y-9598000I20000J0D01*
G01*
X19650000Y-8902000D02*
G75*
G03*
X19610000Y-8902000I-20000J0D01*
G01*
X19610000Y-8902000D02*
G75*
G03*
X19650000Y-8902000I20000J0D01*
G01*
X19686000Y-9489846D02*
G75*
G03*
X19646000Y-9489846I-20000J0D01*
G01*
X19646000Y-9489846D02*
G75*
G03*
X19686000Y-9489846I20000J0D01*
G01*
X19712576Y-8485250D02*
G75*
G03*
X19672576Y-8485250I-20000J0D01*
G01*
X19672576Y-8485250D02*
G75*
G03*
X19712576Y-8485250I20000J0D01*
G01*
X19746651Y-10496591D02*
G75*
G03*
X19706651Y-10496591I-20000J0D01*
G01*
X19706651Y-10496591D02*
G75*
G03*
X19746651Y-10496591I20000J0D01*
G01*
X19781200Y-11328400D02*
G75*
G03*
X19741200Y-11328400I-20000J0D01*
G01*
X19741200Y-11328400D02*
G75*
G03*
X19781200Y-11328400I20000J0D01*
G01*
X19851214Y-10506163D02*
G75*
G03*
X19811214Y-10506163I-20000J0D01*
G01*
X19811214Y-10506163D02*
G75*
G03*
X19851214Y-10506163I20000J0D01*
G01*
X19871048Y-10392186D02*
G75*
G03*
X19831048Y-10392186I-20000J0D01*
G01*
X19831048Y-10392186D02*
G75*
G03*
X19871048Y-10392186I20000J0D01*
G01*
X19899754Y-8656779D02*
G75*
G03*
X19859754Y-8656779I-20000J0D01*
G01*
X19859754Y-8656779D02*
G75*
G03*
X19899754Y-8656779I20000J0D01*
G01*
X19920000Y-9625000D02*
G75*
G03*
X19880000Y-9625000I-20000J0D01*
G01*
X19880000Y-9625000D02*
G75*
G03*
X19920000Y-9625000I20000J0D01*
G01*
X19945000Y-10275000D02*
G75*
G03*
X19905000Y-10275000I-20000J0D01*
G01*
X19905000Y-10275000D02*
G75*
G03*
X19945000Y-10275000I20000J0D01*
G01*
X20033000Y-9453000D02*
G75*
G03*
X19993000Y-9453000I-20000J0D01*
G01*
X19993000Y-9453000D02*
G75*
G03*
X20033000Y-9453000I20000J0D01*
G01*
X20145000Y-9375000D02*
G75*
G03*
X20105000Y-9375000I-20000J0D01*
G01*
X20105000Y-9375000D02*
G75*
G03*
X20145000Y-9375000I20000J0D01*
G01*
X20152634Y-10536234D02*
G75*
G03*
X20112634Y-10536234I-20000J0D01*
G01*
X20112634Y-10536234D02*
G75*
G03*
X20152634Y-10536234I20000J0D01*
G01*
X20219000Y-9019000D02*
G75*
G03*
X20179000Y-9019000I-20000J0D01*
G01*
X20179000Y-9019000D02*
G75*
G03*
X20219000Y-9019000I20000J0D01*
G01*
X20220000Y-10362802D02*
G75*
G03*
X20180000Y-10362802I-20000J0D01*
G01*
X20180000Y-10362802D02*
G75*
G03*
X20220000Y-10362802I20000J0D01*
G01*
X20270000Y-9550000D02*
G75*
G03*
X20230000Y-9550000I-20000J0D01*
G01*
X20230000Y-9550000D02*
G75*
G03*
X20270000Y-9550000I20000J0D01*
G01*
X20345000Y-13775000D02*
G75*
G03*
X20305000Y-13775000I-20000J0D01*
G01*
X20305000Y-13775000D02*
G75*
G03*
X20345000Y-13775000I20000J0D01*
G01*
X20453000Y-8775002D02*
G75*
G03*
X20413000Y-8775002I-20000J0D01*
G01*
X20413000Y-8775002D02*
G75*
G03*
X20453000Y-8775002I20000J0D01*
G01*
X20453000Y-9003000D02*
G75*
G03*
X20413000Y-9003000I-20000J0D01*
G01*
X20413000Y-9003000D02*
G75*
G03*
X20453000Y-9003000I20000J0D01*
G01*
X20470000Y-12300000D02*
G75*
G03*
X20430000Y-12300000I-20000J0D01*
G01*
X20430000Y-12300000D02*
G75*
G03*
X20470000Y-12300000I20000J0D01*
G01*
X20587000Y-10526000D02*
G75*
G03*
X20547000Y-10526000I-20000J0D01*
G01*
X20547000Y-10526000D02*
G75*
G03*
X20587000Y-10526000I20000J0D01*
G01*
X20686000Y-7614000D02*
G75*
G03*
X20646000Y-7614000I-20000J0D01*
G01*
X20646000Y-7614000D02*
G75*
G03*
X20686000Y-7614000I20000J0D01*
G01*
X20707000Y-6495000D02*
G75*
G03*
X20667000Y-6495000I-20000J0D01*
G01*
X20667000Y-6495000D02*
G75*
G03*
X20707000Y-6495000I20000J0D01*
G01*
X20724000Y-11365000D02*
G75*
G03*
X20684000Y-11365000I-20000J0D01*
G01*
X20684000Y-11365000D02*
G75*
G03*
X20724000Y-11365000I20000J0D01*
G01*
X14088000Y-13379500D02*
X14088000Y-13439500D01*
X14058000Y-13409500D02*
X14118000Y-13409500D01*
X14058000Y-13354500D02*
X14058000Y-13464500D01*
X14058000Y-13464500D02*
G75*
G03*
X14118000Y-13464500I30000J0D01*
G01*
X14118000Y-13464500D02*
X14118000Y-13354500D01*
X14118000Y-13354500D02*
G75*
G03*
X14058000Y-13354500I-30000J0D01*
G01*
X14088000Y-13797500D02*
X14088000Y-13857500D01*
X14058000Y-13827500D02*
X14118000Y-13827500D01*
X14058000Y-13787500D02*
X14058000Y-13867500D01*
X14058000Y-13867500D02*
G75*
G03*
X14118000Y-13867500I30000J0D01*
G01*
X14118000Y-13867500D02*
X14118000Y-13787500D01*
X14118000Y-13787500D02*
G75*
G03*
X14058000Y-13787500I-30000J0D01*
G01*
X14952000Y-13379500D02*
X14952000Y-13439500D01*
X14922000Y-13409500D02*
X14982000Y-13409500D01*
X14922000Y-13354500D02*
X14922000Y-13464500D01*
X14922000Y-13464500D02*
G75*
G03*
X14982000Y-13464500I30000J0D01*
G01*
X14982000Y-13464500D02*
X14982000Y-13354500D01*
X14982000Y-13354500D02*
G75*
G03*
X14922000Y-13354500I-30000J0D01*
G01*
X14952000Y-13797500D02*
X14952000Y-13857500D01*
X14922000Y-13827500D02*
X14982000Y-13827500D01*
X14922000Y-13787500D02*
X14922000Y-13867500D01*
X14922000Y-13867500D02*
G75*
G03*
X14982000Y-13867500I30000J0D01*
G01*
X14982000Y-13867500D02*
X14982000Y-13787500D01*
X14982000Y-13787500D02*
G75*
G03*
X14922000Y-13787500I-30000J0D01*
G01*
X13399517Y-8353517D02*
X13399517Y-8300483D01*
X13346483Y-8300483D01*
X13346483Y-8353517D01*
X13399517Y-8353517D01*
X13399517Y-8553517D02*
X13399517Y-8500483D01*
X13346483Y-8500483D01*
X13346483Y-8553517D01*
X13399517Y-8553517D01*
X13399517Y-8753517D02*
X13399517Y-8700483D01*
X13346483Y-8700483D01*
X13346483Y-8753517D01*
X13399517Y-8753517D01*
X13399517Y-8953517D02*
X13399517Y-8900483D01*
X13346483Y-8900483D01*
X13346483Y-8953517D01*
X13399517Y-8953517D01*
X13399517Y-9153517D02*
X13399517Y-9100483D01*
X13346483Y-9100483D01*
X13346483Y-9153517D01*
X13399517Y-9153517D01*
X13399517Y-9353517D02*
X13399517Y-9300483D01*
X13346483Y-9300483D01*
X13346483Y-9353517D01*
X13399517Y-9353517D01*
X13399517Y-10678517D02*
X13399517Y-10625483D01*
X13346483Y-10625483D01*
X13346483Y-10678517D01*
X13399517Y-10678517D01*
X13399517Y-10878517D02*
X13399517Y-10825483D01*
X13346483Y-10825483D01*
X13346483Y-10878517D01*
X13399517Y-10878517D01*
X13399517Y-11078517D02*
X13399517Y-11025483D01*
X13346483Y-11025483D01*
X13346483Y-11078517D01*
X13399517Y-11078517D01*
X13399517Y-11278517D02*
X13399517Y-11225483D01*
X13346483Y-11225483D01*
X13346483Y-11278517D01*
X13399517Y-11278517D01*
X13399517Y-11478517D02*
X13399517Y-11425483D01*
X13346483Y-11425483D01*
X13346483Y-11478517D01*
X13399517Y-11478517D01*
X13399517Y-11678517D02*
X13399517Y-11625483D01*
X13346483Y-11625483D01*
X13346483Y-11678517D01*
X13399517Y-11678517D01*
X13351929Y-6298929D02*
X13401929Y-6248929D01*
X13351929Y-6198929D01*
X13301929Y-6248929D01*
X13351929Y-6298929D01*
X13351929Y-6552929D02*
X13401929Y-6502929D01*
X13351929Y-6452929D01*
X13301929Y-6502929D01*
X13351929Y-6552929D01*
X13605929Y-6298929D02*
X13655929Y-6248929D01*
X13605929Y-6198929D01*
X13555929Y-6248929D01*
X13605929Y-6298929D01*
X13605929Y-6552929D02*
X13655929Y-6502929D01*
X13605929Y-6452929D01*
X13555929Y-6502929D01*
X13605929Y-6552929D01*
X13859929Y-6298929D02*
X13909929Y-6248929D01*
X13859929Y-6198929D01*
X13809929Y-6248929D01*
X13859929Y-6298929D01*
X13859929Y-6552929D02*
X13909929Y-6502929D01*
X13859929Y-6452929D01*
X13809929Y-6502929D01*
X13859929Y-6552929D01*
X14113929Y-6298929D02*
X14163929Y-6248929D01*
X14113929Y-6198929D01*
X14063929Y-6248929D01*
X14113929Y-6298929D01*
X14113929Y-6552929D02*
X14163929Y-6502929D01*
X14113929Y-6452929D01*
X14063929Y-6502929D01*
X14113929Y-6552929D01*
X14367929Y-6298929D02*
X14417929Y-6248929D01*
X14367929Y-6198929D01*
X14317929Y-6248929D01*
X14367929Y-6298929D01*
X14367929Y-6552929D02*
X14417929Y-6502929D01*
X14367929Y-6452929D01*
X14317929Y-6502929D01*
X14367929Y-6552929D01*
X14621929Y-6298929D02*
X14671929Y-6248929D01*
X14621929Y-6198929D01*
X14571929Y-6248929D01*
X14621929Y-6298929D01*
X14621929Y-6552929D02*
X14671929Y-6502929D01*
X14621929Y-6452929D01*
X14571929Y-6502929D01*
X14621929Y-6552929D01*
X14875929Y-6298929D02*
X14925929Y-6248929D01*
X14875929Y-6198929D01*
X14825929Y-6248929D01*
X14875929Y-6298929D01*
X14875929Y-6552929D02*
X14925929Y-6502929D01*
X14875929Y-6452929D01*
X14825929Y-6502929D01*
X14875929Y-6552929D01*
X15129929Y-6298929D02*
X15179929Y-6248929D01*
X15129929Y-6198929D01*
X15079929Y-6248929D01*
X15129929Y-6298929D01*
X15129929Y-6552929D02*
X15179929Y-6502929D01*
X15129929Y-6452929D01*
X15079929Y-6502929D01*
X15129929Y-6552929D01*
X15383929Y-6298929D02*
X15433929Y-6248929D01*
X15383929Y-6198929D01*
X15333929Y-6248929D01*
X15383929Y-6298929D01*
X15383929Y-6552929D02*
X15433929Y-6502929D01*
X15383929Y-6452929D01*
X15333929Y-6502929D01*
X15383929Y-6552929D01*
X15637929Y-6298929D02*
X15687929Y-6248929D01*
X15637929Y-6198929D01*
X15587929Y-6248929D01*
X15637929Y-6298929D01*
X15637929Y-6552929D02*
X15687929Y-6502929D01*
X15637929Y-6452929D01*
X15587929Y-6502929D01*
X15637929Y-6552929D01*
X15891929Y-6298929D02*
X15941929Y-6248929D01*
X15891929Y-6198929D01*
X15841929Y-6248929D01*
X15891929Y-6298929D01*
X15891929Y-6552929D02*
X15941929Y-6502929D01*
X15891929Y-6452929D01*
X15841929Y-6502929D01*
X15891929Y-6552929D01*
X16145929Y-6298929D02*
X16195929Y-6248929D01*
X16145929Y-6198929D01*
X16095929Y-6248929D01*
X16145929Y-6298929D01*
X16145929Y-6552929D02*
X16195929Y-6502929D01*
X16145929Y-6452929D01*
X16095929Y-6502929D01*
X16145929Y-6552929D01*
D12*
X11944500Y-6261500D02*
X12129500Y-6446500D01*
X12129500Y-6261500D02*
X11944500Y-6446500D01*
X12129500Y-6354000D02*
G75*
G03*
X11944500Y-6354000I-92500J0D01*
G01*
X11944500Y-6354000D02*
G75*
G03*
X12129500Y-6354000I92500J0D01*
G01*
X11944500Y-7862500D02*
X12129500Y-8047500D01*
X12129500Y-7862500D02*
X11944500Y-8047500D01*
X12129500Y-7955000D02*
G75*
G03*
X11944500Y-7955000I-92500J0D01*
G01*
X11944500Y-7955000D02*
G75*
G03*
X12129500Y-7955000I92500J0D01*
G01*
X11944500Y-11941500D02*
X12129500Y-12126500D01*
X12129500Y-11941500D02*
X11944500Y-12126500D01*
X12129500Y-12034000D02*
G75*
G03*
X11944500Y-12034000I-92500J0D01*
G01*
X11944500Y-12034000D02*
G75*
G03*
X12129500Y-12034000I92500J0D01*
G01*
X11944500Y-13542500D02*
X12129500Y-13727500D01*
X12129500Y-13542500D02*
X11944500Y-13727500D01*
X12129500Y-13635000D02*
G75*
G03*
X11944500Y-13635000I-92500J0D01*
G01*
X11944500Y-13635000D02*
G75*
G03*
X12129500Y-13635000I92500J0D01*
G01*
D10*
X8892777Y-14422484D02*
X8892777Y-14222484D01*
X8892777Y-14222484D02*
X8940396Y-14222484D01*
X8940396Y-14222484D02*
X8968967Y-14232008D01*
X8968967Y-14232008D02*
X8988015Y-14251055D01*
X8988015Y-14251055D02*
X8997539Y-14270103D01*
X8997539Y-14270103D02*
X9007063Y-14308198D01*
X9007063Y-14308198D02*
X9007063Y-14336769D01*
X9007063Y-14336769D02*
X8997539Y-14374865D01*
X8997539Y-14374865D02*
X8988015Y-14393912D01*
X8988015Y-14393912D02*
X8968967Y-14412960D01*
X8968967Y-14412960D02*
X8940396Y-14422484D01*
X8940396Y-14422484D02*
X8892777Y-14422484D01*
X9092777Y-14422484D02*
X9092777Y-14289150D01*
X9092777Y-14327246D02*
X9102301Y-14308198D01*
X9102301Y-14308198D02*
X9111824Y-14298674D01*
X9111824Y-14298674D02*
X9130872Y-14289150D01*
X9130872Y-14289150D02*
X9149920Y-14289150D01*
X9216586Y-14422484D02*
X9216586Y-14289150D01*
X9216586Y-14222484D02*
X9207063Y-14232008D01*
X9207063Y-14232008D02*
X9216586Y-14241531D01*
X9216586Y-14241531D02*
X9226110Y-14232008D01*
X9226110Y-14232008D02*
X9216586Y-14222484D01*
X9216586Y-14222484D02*
X9216586Y-14241531D01*
X9340396Y-14422484D02*
X9321348Y-14412960D01*
X9321348Y-14412960D02*
X9311824Y-14393912D01*
X9311824Y-14393912D02*
X9311824Y-14222484D01*
X9445158Y-14422484D02*
X9426110Y-14412960D01*
X9426110Y-14412960D02*
X9416586Y-14393912D01*
X9416586Y-14393912D02*
X9416586Y-14222484D01*
X9673729Y-14422484D02*
X9673729Y-14222484D01*
X9673729Y-14222484D02*
X9740396Y-14365341D01*
X9740396Y-14365341D02*
X9807063Y-14222484D01*
X9807063Y-14222484D02*
X9807063Y-14422484D01*
X9988015Y-14422484D02*
X9988015Y-14317722D01*
X9988015Y-14317722D02*
X9978491Y-14298674D01*
X9978491Y-14298674D02*
X9959444Y-14289150D01*
X9959444Y-14289150D02*
X9921348Y-14289150D01*
X9921348Y-14289150D02*
X9902301Y-14298674D01*
X9988015Y-14412960D02*
X9968967Y-14422484D01*
X9968967Y-14422484D02*
X9921348Y-14422484D01*
X9921348Y-14422484D02*
X9902301Y-14412960D01*
X9902301Y-14412960D02*
X9892777Y-14393912D01*
X9892777Y-14393912D02*
X9892777Y-14374865D01*
X9892777Y-14374865D02*
X9902301Y-14355817D01*
X9902301Y-14355817D02*
X9921348Y-14346293D01*
X9921348Y-14346293D02*
X9968967Y-14346293D01*
X9968967Y-14346293D02*
X9988015Y-14336769D01*
X10083253Y-14289150D02*
X10083253Y-14489150D01*
X10083253Y-14298674D02*
X10102301Y-14289150D01*
X10102301Y-14289150D02*
X10140396Y-14289150D01*
X10140396Y-14289150D02*
X10159444Y-14298674D01*
X10159444Y-14298674D02*
X10168967Y-14308198D01*
X10168967Y-14308198D02*
X10178491Y-14327246D01*
X10178491Y-14327246D02*
X10178491Y-14384388D01*
X10178491Y-14384388D02*
X10168967Y-14403436D01*
X10168967Y-14403436D02*
X10159444Y-14412960D01*
X10159444Y-14412960D02*
X10140396Y-14422484D01*
X10140396Y-14422484D02*
X10102301Y-14422484D01*
X10102301Y-14422484D02*
X10083253Y-14412960D01*
X10264205Y-14403436D02*
X10273729Y-14412960D01*
X10273729Y-14412960D02*
X10264205Y-14422484D01*
X10264205Y-14422484D02*
X10254682Y-14412960D01*
X10254682Y-14412960D02*
X10264205Y-14403436D01*
X10264205Y-14403436D02*
X10264205Y-14422484D01*
X10264205Y-14298674D02*
X10273729Y-14308198D01*
X10273729Y-14308198D02*
X10264205Y-14317722D01*
X10264205Y-14317722D02*
X10254682Y-14308198D01*
X10254682Y-14308198D02*
X10264205Y-14298674D01*
X10264205Y-14298674D02*
X10264205Y-14317722D01*
D11*
X8607000Y-14738500D02*
X8632000Y-14763500D01*
X8632000Y-14738500D02*
X8607000Y-14763500D01*
D10*
X8930872Y-14642484D02*
X8949920Y-14642484D01*
X8949920Y-14642484D02*
X8968967Y-14652008D01*
X8968967Y-14652008D02*
X8978491Y-14661531D01*
X8978491Y-14661531D02*
X8988015Y-14680579D01*
X8988015Y-14680579D02*
X8997539Y-14718674D01*
X8997539Y-14718674D02*
X8997539Y-14766293D01*
X8997539Y-14766293D02*
X8988015Y-14804388D01*
X8988015Y-14804388D02*
X8978491Y-14823436D01*
X8978491Y-14823436D02*
X8968967Y-14832960D01*
X8968967Y-14832960D02*
X8949920Y-14842484D01*
X8949920Y-14842484D02*
X8930872Y-14842484D01*
X8930872Y-14842484D02*
X8911824Y-14832960D01*
X8911824Y-14832960D02*
X8902301Y-14823436D01*
X8902301Y-14823436D02*
X8892777Y-14804388D01*
X8892777Y-14804388D02*
X8883253Y-14766293D01*
X8883253Y-14766293D02*
X8883253Y-14718674D01*
X8883253Y-14718674D02*
X8892777Y-14680579D01*
X8892777Y-14680579D02*
X8902301Y-14661531D01*
X8902301Y-14661531D02*
X8911824Y-14652008D01*
X8911824Y-14652008D02*
X8930872Y-14642484D01*
X9083253Y-14823436D02*
X9092777Y-14832960D01*
X9092777Y-14832960D02*
X9083253Y-14842484D01*
X9083253Y-14842484D02*
X9073729Y-14832960D01*
X9073729Y-14832960D02*
X9083253Y-14823436D01*
X9083253Y-14823436D02*
X9083253Y-14842484D01*
X9168967Y-14661531D02*
X9178491Y-14652008D01*
X9178491Y-14652008D02*
X9197539Y-14642484D01*
X9197539Y-14642484D02*
X9245158Y-14642484D01*
X9245158Y-14642484D02*
X9264205Y-14652008D01*
X9264205Y-14652008D02*
X9273729Y-14661531D01*
X9273729Y-14661531D02*
X9283253Y-14680579D01*
X9283253Y-14680579D02*
X9283253Y-14699627D01*
X9283253Y-14699627D02*
X9273729Y-14728198D01*
X9273729Y-14728198D02*
X9159444Y-14842484D01*
X9159444Y-14842484D02*
X9283253Y-14842484D01*
X9464205Y-14642484D02*
X9368967Y-14642484D01*
X9368967Y-14642484D02*
X9359444Y-14737722D01*
X9359444Y-14737722D02*
X9368967Y-14728198D01*
X9368967Y-14728198D02*
X9388015Y-14718674D01*
X9388015Y-14718674D02*
X9435634Y-14718674D01*
X9435634Y-14718674D02*
X9454682Y-14728198D01*
X9454682Y-14728198D02*
X9464205Y-14737722D01*
X9464205Y-14737722D02*
X9473729Y-14756769D01*
X9473729Y-14756769D02*
X9473729Y-14804388D01*
X9473729Y-14804388D02*
X9464205Y-14823436D01*
X9464205Y-14823436D02*
X9454682Y-14832960D01*
X9454682Y-14832960D02*
X9435634Y-14842484D01*
X9435634Y-14842484D02*
X9388015Y-14842484D01*
X9388015Y-14842484D02*
X9368967Y-14832960D01*
X9368967Y-14832960D02*
X9359444Y-14823436D01*
X9597539Y-14642484D02*
X9616586Y-14642484D01*
X9616586Y-14642484D02*
X9635634Y-14652008D01*
X9635634Y-14652008D02*
X9645158Y-14661531D01*
X9645158Y-14661531D02*
X9654682Y-14680579D01*
X9654682Y-14680579D02*
X9664205Y-14718674D01*
X9664205Y-14718674D02*
X9664205Y-14766293D01*
X9664205Y-14766293D02*
X9654682Y-14804388D01*
X9654682Y-14804388D02*
X9645158Y-14823436D01*
X9645158Y-14823436D02*
X9635634Y-14832960D01*
X9635634Y-14832960D02*
X9616586Y-14842484D01*
X9616586Y-14842484D02*
X9597539Y-14842484D01*
X9597539Y-14842484D02*
X9578491Y-14832960D01*
X9578491Y-14832960D02*
X9568967Y-14823436D01*
X9568967Y-14823436D02*
X9559444Y-14804388D01*
X9559444Y-14804388D02*
X9549920Y-14766293D01*
X9549920Y-14766293D02*
X9549920Y-14718674D01*
X9549920Y-14718674D02*
X9559444Y-14680579D01*
X9559444Y-14680579D02*
X9568967Y-14661531D01*
X9568967Y-14661531D02*
X9578491Y-14652008D01*
X9578491Y-14652008D02*
X9597539Y-14642484D01*
X9749920Y-14842484D02*
X9749920Y-14709150D01*
X9749920Y-14728198D02*
X9759444Y-14718674D01*
X9759444Y-14718674D02*
X9778491Y-14709150D01*
X9778491Y-14709150D02*
X9807063Y-14709150D01*
X9807063Y-14709150D02*
X9826110Y-14718674D01*
X9826110Y-14718674D02*
X9835634Y-14737722D01*
X9835634Y-14737722D02*
X9835634Y-14842484D01*
X9835634Y-14737722D02*
X9845158Y-14718674D01*
X9845158Y-14718674D02*
X9864205Y-14709150D01*
X9864205Y-14709150D02*
X9892777Y-14709150D01*
X9892777Y-14709150D02*
X9911825Y-14718674D01*
X9911825Y-14718674D02*
X9921348Y-14737722D01*
X9921348Y-14737722D02*
X9921348Y-14842484D01*
X10016586Y-14842484D02*
X10016586Y-14709150D01*
X10016586Y-14728198D02*
X10026110Y-14718674D01*
X10026110Y-14718674D02*
X10045158Y-14709150D01*
X10045158Y-14709150D02*
X10073729Y-14709150D01*
X10073729Y-14709150D02*
X10092777Y-14718674D01*
X10092777Y-14718674D02*
X10102301Y-14737722D01*
X10102301Y-14737722D02*
X10102301Y-14842484D01*
X10102301Y-14737722D02*
X10111825Y-14718674D01*
X10111825Y-14718674D02*
X10130872Y-14709150D01*
X10130872Y-14709150D02*
X10159444Y-14709150D01*
X10159444Y-14709150D02*
X10178491Y-14718674D01*
X10178491Y-14718674D02*
X10188015Y-14737722D01*
X10188015Y-14737722D02*
X10188015Y-14842484D01*
X10578491Y-14632960D02*
X10407063Y-14890103D01*
X10835634Y-14642484D02*
X10854682Y-14642484D01*
X10854682Y-14642484D02*
X10873729Y-14652008D01*
X10873729Y-14652008D02*
X10883253Y-14661531D01*
X10883253Y-14661531D02*
X10892777Y-14680579D01*
X10892777Y-14680579D02*
X10902301Y-14718674D01*
X10902301Y-14718674D02*
X10902301Y-14766293D01*
X10902301Y-14766293D02*
X10892777Y-14804388D01*
X10892777Y-14804388D02*
X10883253Y-14823436D01*
X10883253Y-14823436D02*
X10873729Y-14832960D01*
X10873729Y-14832960D02*
X10854682Y-14842484D01*
X10854682Y-14842484D02*
X10835634Y-14842484D01*
X10835634Y-14842484D02*
X10816587Y-14832960D01*
X10816587Y-14832960D02*
X10807063Y-14823436D01*
X10807063Y-14823436D02*
X10797539Y-14804388D01*
X10797539Y-14804388D02*
X10788015Y-14766293D01*
X10788015Y-14766293D02*
X10788015Y-14718674D01*
X10788015Y-14718674D02*
X10797539Y-14680579D01*
X10797539Y-14680579D02*
X10807063Y-14661531D01*
X10807063Y-14661531D02*
X10816587Y-14652008D01*
X10816587Y-14652008D02*
X10835634Y-14642484D01*
X10988015Y-14823436D02*
X10997539Y-14832960D01*
X10997539Y-14832960D02*
X10988015Y-14842484D01*
X10988015Y-14842484D02*
X10978491Y-14832960D01*
X10978491Y-14832960D02*
X10988015Y-14823436D01*
X10988015Y-14823436D02*
X10988015Y-14842484D01*
X11121348Y-14642484D02*
X11140396Y-14642484D01*
X11140396Y-14642484D02*
X11159444Y-14652008D01*
X11159444Y-14652008D02*
X11168968Y-14661531D01*
X11168968Y-14661531D02*
X11178491Y-14680579D01*
X11178491Y-14680579D02*
X11188015Y-14718674D01*
X11188015Y-14718674D02*
X11188015Y-14766293D01*
X11188015Y-14766293D02*
X11178491Y-14804388D01*
X11178491Y-14804388D02*
X11168968Y-14823436D01*
X11168968Y-14823436D02*
X11159444Y-14832960D01*
X11159444Y-14832960D02*
X11140396Y-14842484D01*
X11140396Y-14842484D02*
X11121348Y-14842484D01*
X11121348Y-14842484D02*
X11102301Y-14832960D01*
X11102301Y-14832960D02*
X11092777Y-14823436D01*
X11092777Y-14823436D02*
X11083253Y-14804388D01*
X11083253Y-14804388D02*
X11073729Y-14766293D01*
X11073729Y-14766293D02*
X11073729Y-14718674D01*
X11073729Y-14718674D02*
X11083253Y-14680579D01*
X11083253Y-14680579D02*
X11092777Y-14661531D01*
X11092777Y-14661531D02*
X11102301Y-14652008D01*
X11102301Y-14652008D02*
X11121348Y-14642484D01*
X11311825Y-14642484D02*
X11330872Y-14642484D01*
X11330872Y-14642484D02*
X11349920Y-14652008D01*
X11349920Y-14652008D02*
X11359444Y-14661531D01*
X11359444Y-14661531D02*
X11368967Y-14680579D01*
X11368967Y-14680579D02*
X11378491Y-14718674D01*
X11378491Y-14718674D02*
X11378491Y-14766293D01*
X11378491Y-14766293D02*
X11368967Y-14804388D01*
X11368967Y-14804388D02*
X11359444Y-14823436D01*
X11359444Y-14823436D02*
X11349920Y-14832960D01*
X11349920Y-14832960D02*
X11330872Y-14842484D01*
X11330872Y-14842484D02*
X11311825Y-14842484D01*
X11311825Y-14842484D02*
X11292777Y-14832960D01*
X11292777Y-14832960D02*
X11283253Y-14823436D01*
X11283253Y-14823436D02*
X11273729Y-14804388D01*
X11273729Y-14804388D02*
X11264206Y-14766293D01*
X11264206Y-14766293D02*
X11264206Y-14718674D01*
X11264206Y-14718674D02*
X11273729Y-14680579D01*
X11273729Y-14680579D02*
X11283253Y-14661531D01*
X11283253Y-14661531D02*
X11292777Y-14652008D01*
X11292777Y-14652008D02*
X11311825Y-14642484D01*
X11473729Y-14842484D02*
X11511825Y-14842484D01*
X11511825Y-14842484D02*
X11530872Y-14832960D01*
X11530872Y-14832960D02*
X11540396Y-14823436D01*
X11540396Y-14823436D02*
X11559444Y-14794865D01*
X11559444Y-14794865D02*
X11568967Y-14756769D01*
X11568967Y-14756769D02*
X11568967Y-14680579D01*
X11568967Y-14680579D02*
X11559444Y-14661531D01*
X11559444Y-14661531D02*
X11549920Y-14652008D01*
X11549920Y-14652008D02*
X11530872Y-14642484D01*
X11530872Y-14642484D02*
X11492777Y-14642484D01*
X11492777Y-14642484D02*
X11473729Y-14652008D01*
X11473729Y-14652008D02*
X11464206Y-14661531D01*
X11464206Y-14661531D02*
X11454682Y-14680579D01*
X11454682Y-14680579D02*
X11454682Y-14728198D01*
X11454682Y-14728198D02*
X11464206Y-14747246D01*
X11464206Y-14747246D02*
X11473729Y-14756769D01*
X11473729Y-14756769D02*
X11492777Y-14766293D01*
X11492777Y-14766293D02*
X11530872Y-14766293D01*
X11530872Y-14766293D02*
X11549920Y-14756769D01*
X11549920Y-14756769D02*
X11559444Y-14747246D01*
X11559444Y-14747246D02*
X11568967Y-14728198D01*
X11683253Y-14728198D02*
X11664206Y-14718674D01*
X11664206Y-14718674D02*
X11654682Y-14709150D01*
X11654682Y-14709150D02*
X11645158Y-14690103D01*
X11645158Y-14690103D02*
X11645158Y-14680579D01*
X11645158Y-14680579D02*
X11654682Y-14661531D01*
X11654682Y-14661531D02*
X11664206Y-14652008D01*
X11664206Y-14652008D02*
X11683253Y-14642484D01*
X11683253Y-14642484D02*
X11721348Y-14642484D01*
X11721348Y-14642484D02*
X11740396Y-14652008D01*
X11740396Y-14652008D02*
X11749920Y-14661531D01*
X11749920Y-14661531D02*
X11759444Y-14680579D01*
X11759444Y-14680579D02*
X11759444Y-14690103D01*
X11759444Y-14690103D02*
X11749920Y-14709150D01*
X11749920Y-14709150D02*
X11740396Y-14718674D01*
X11740396Y-14718674D02*
X11721348Y-14728198D01*
X11721348Y-14728198D02*
X11683253Y-14728198D01*
X11683253Y-14728198D02*
X11664206Y-14737722D01*
X11664206Y-14737722D02*
X11654682Y-14747246D01*
X11654682Y-14747246D02*
X11645158Y-14766293D01*
X11645158Y-14766293D02*
X11645158Y-14804388D01*
X11645158Y-14804388D02*
X11654682Y-14823436D01*
X11654682Y-14823436D02*
X11664206Y-14832960D01*
X11664206Y-14832960D02*
X11683253Y-14842484D01*
X11683253Y-14842484D02*
X11721348Y-14842484D01*
X11721348Y-14842484D02*
X11740396Y-14832960D01*
X11740396Y-14832960D02*
X11749920Y-14823436D01*
X11749920Y-14823436D02*
X11759444Y-14804388D01*
X11759444Y-14804388D02*
X11759444Y-14766293D01*
X11759444Y-14766293D02*
X11749920Y-14747246D01*
X11749920Y-14747246D02*
X11740396Y-14737722D01*
X11740396Y-14737722D02*
X11721348Y-14728198D01*
X11835634Y-14642484D02*
X11835634Y-14680579D01*
X11911825Y-14642484D02*
X11911825Y-14680579D01*
X12207063Y-14918674D02*
X12197539Y-14909150D01*
X12197539Y-14909150D02*
X12178491Y-14880579D01*
X12178491Y-14880579D02*
X12168968Y-14861531D01*
X12168968Y-14861531D02*
X12159444Y-14832960D01*
X12159444Y-14832960D02*
X12149920Y-14785341D01*
X12149920Y-14785341D02*
X12149920Y-14747246D01*
X12149920Y-14747246D02*
X12159444Y-14699627D01*
X12159444Y-14699627D02*
X12168968Y-14671055D01*
X12168968Y-14671055D02*
X12178491Y-14652008D01*
X12178491Y-14652008D02*
X12197539Y-14623436D01*
X12197539Y-14623436D02*
X12207063Y-14613912D01*
X12368968Y-14709150D02*
X12368968Y-14842484D01*
X12321348Y-14632960D02*
X12273729Y-14775817D01*
X12273729Y-14775817D02*
X12397539Y-14775817D01*
X12626110Y-14842484D02*
X12626110Y-14642484D01*
X12711825Y-14842484D02*
X12711825Y-14737722D01*
X12711825Y-14737722D02*
X12702301Y-14718674D01*
X12702301Y-14718674D02*
X12683253Y-14709150D01*
X12683253Y-14709150D02*
X12654682Y-14709150D01*
X12654682Y-14709150D02*
X12635634Y-14718674D01*
X12635634Y-14718674D02*
X12626110Y-14728198D01*
X12835634Y-14842484D02*
X12816587Y-14832960D01*
X12816587Y-14832960D02*
X12807063Y-14823436D01*
X12807063Y-14823436D02*
X12797539Y-14804388D01*
X12797539Y-14804388D02*
X12797539Y-14747246D01*
X12797539Y-14747246D02*
X12807063Y-14728198D01*
X12807063Y-14728198D02*
X12816587Y-14718674D01*
X12816587Y-14718674D02*
X12835634Y-14709150D01*
X12835634Y-14709150D02*
X12864206Y-14709150D01*
X12864206Y-14709150D02*
X12883253Y-14718674D01*
X12883253Y-14718674D02*
X12892777Y-14728198D01*
X12892777Y-14728198D02*
X12902301Y-14747246D01*
X12902301Y-14747246D02*
X12902301Y-14804388D01*
X12902301Y-14804388D02*
X12892777Y-14823436D01*
X12892777Y-14823436D02*
X12883253Y-14832960D01*
X12883253Y-14832960D02*
X12864206Y-14842484D01*
X12864206Y-14842484D02*
X12835634Y-14842484D01*
X13016587Y-14842484D02*
X12997539Y-14832960D01*
X12997539Y-14832960D02*
X12988015Y-14813912D01*
X12988015Y-14813912D02*
X12988015Y-14642484D01*
X13168968Y-14832960D02*
X13149920Y-14842484D01*
X13149920Y-14842484D02*
X13111825Y-14842484D01*
X13111825Y-14842484D02*
X13092777Y-14832960D01*
X13092777Y-14832960D02*
X13083253Y-14813912D01*
X13083253Y-14813912D02*
X13083253Y-14737722D01*
X13083253Y-14737722D02*
X13092777Y-14718674D01*
X13092777Y-14718674D02*
X13111825Y-14709150D01*
X13111825Y-14709150D02*
X13149920Y-14709150D01*
X13149920Y-14709150D02*
X13168968Y-14718674D01*
X13168968Y-14718674D02*
X13178491Y-14737722D01*
X13178491Y-14737722D02*
X13178491Y-14756769D01*
X13178491Y-14756769D02*
X13083253Y-14775817D01*
X13254682Y-14832960D02*
X13273730Y-14842484D01*
X13273730Y-14842484D02*
X13311825Y-14842484D01*
X13311825Y-14842484D02*
X13330872Y-14832960D01*
X13330872Y-14832960D02*
X13340396Y-14813912D01*
X13340396Y-14813912D02*
X13340396Y-14804388D01*
X13340396Y-14804388D02*
X13330872Y-14785341D01*
X13330872Y-14785341D02*
X13311825Y-14775817D01*
X13311825Y-14775817D02*
X13283253Y-14775817D01*
X13283253Y-14775817D02*
X13264206Y-14766293D01*
X13264206Y-14766293D02*
X13254682Y-14747246D01*
X13254682Y-14747246D02*
X13254682Y-14737722D01*
X13254682Y-14737722D02*
X13264206Y-14718674D01*
X13264206Y-14718674D02*
X13283253Y-14709150D01*
X13283253Y-14709150D02*
X13311825Y-14709150D01*
X13311825Y-14709150D02*
X13330872Y-14718674D01*
X13407063Y-14918674D02*
X13416587Y-14909150D01*
X13416587Y-14909150D02*
X13435634Y-14880579D01*
X13435634Y-14880579D02*
X13445158Y-14861531D01*
X13445158Y-14861531D02*
X13454682Y-14832960D01*
X13454682Y-14832960D02*
X13464206Y-14785341D01*
X13464206Y-14785341D02*
X13464206Y-14747246D01*
X13464206Y-14747246D02*
X13454682Y-14699627D01*
X13454682Y-14699627D02*
X13445158Y-14671055D01*
X13445158Y-14671055D02*
X13435634Y-14652008D01*
X13435634Y-14652008D02*
X13416587Y-14623436D01*
X13416587Y-14623436D02*
X13407063Y-14613912D01*
D11*
X8632000Y-15015000D02*
G75*
G03*
X8592000Y-15015000I-20000J0D01*
G01*
X8592000Y-15015000D02*
G75*
G03*
X8632000Y-15015000I20000J0D01*
G01*
D10*
X8930872Y-14906484D02*
X8949920Y-14906484D01*
X8949920Y-14906484D02*
X8968967Y-14916008D01*
X8968967Y-14916008D02*
X8978491Y-14925531D01*
X8978491Y-14925531D02*
X8988015Y-14944579D01*
X8988015Y-14944579D02*
X8997539Y-14982674D01*
X8997539Y-14982674D02*
X8997539Y-15030293D01*
X8997539Y-15030293D02*
X8988015Y-15068388D01*
X8988015Y-15068388D02*
X8978491Y-15087436D01*
X8978491Y-15087436D02*
X8968967Y-15096960D01*
X8968967Y-15096960D02*
X8949920Y-15106484D01*
X8949920Y-15106484D02*
X8930872Y-15106484D01*
X8930872Y-15106484D02*
X8911824Y-15096960D01*
X8911824Y-15096960D02*
X8902301Y-15087436D01*
X8902301Y-15087436D02*
X8892777Y-15068388D01*
X8892777Y-15068388D02*
X8883253Y-15030293D01*
X8883253Y-15030293D02*
X8883253Y-14982674D01*
X8883253Y-14982674D02*
X8892777Y-14944579D01*
X8892777Y-14944579D02*
X8902301Y-14925531D01*
X8902301Y-14925531D02*
X8911824Y-14916008D01*
X8911824Y-14916008D02*
X8930872Y-14906484D01*
X9083253Y-15087436D02*
X9092777Y-15096960D01*
X9092777Y-15096960D02*
X9083253Y-15106484D01*
X9083253Y-15106484D02*
X9073729Y-15096960D01*
X9073729Y-15096960D02*
X9083253Y-15087436D01*
X9083253Y-15087436D02*
X9083253Y-15106484D01*
X9264205Y-14973150D02*
X9264205Y-15106484D01*
X9216586Y-14896960D02*
X9168967Y-15039817D01*
X9168967Y-15039817D02*
X9292777Y-15039817D01*
X9407063Y-14906484D02*
X9426110Y-14906484D01*
X9426110Y-14906484D02*
X9445158Y-14916008D01*
X9445158Y-14916008D02*
X9454682Y-14925531D01*
X9454682Y-14925531D02*
X9464205Y-14944579D01*
X9464205Y-14944579D02*
X9473729Y-14982674D01*
X9473729Y-14982674D02*
X9473729Y-15030293D01*
X9473729Y-15030293D02*
X9464205Y-15068388D01*
X9464205Y-15068388D02*
X9454682Y-15087436D01*
X9454682Y-15087436D02*
X9445158Y-15096960D01*
X9445158Y-15096960D02*
X9426110Y-15106484D01*
X9426110Y-15106484D02*
X9407063Y-15106484D01*
X9407063Y-15106484D02*
X9388015Y-15096960D01*
X9388015Y-15096960D02*
X9378491Y-15087436D01*
X9378491Y-15087436D02*
X9368967Y-15068388D01*
X9368967Y-15068388D02*
X9359444Y-15030293D01*
X9359444Y-15030293D02*
X9359444Y-14982674D01*
X9359444Y-14982674D02*
X9368967Y-14944579D01*
X9368967Y-14944579D02*
X9378491Y-14925531D01*
X9378491Y-14925531D02*
X9388015Y-14916008D01*
X9388015Y-14916008D02*
X9407063Y-14906484D01*
X9597539Y-14906484D02*
X9616586Y-14906484D01*
X9616586Y-14906484D02*
X9635634Y-14916008D01*
X9635634Y-14916008D02*
X9645158Y-14925531D01*
X9645158Y-14925531D02*
X9654682Y-14944579D01*
X9654682Y-14944579D02*
X9664205Y-14982674D01*
X9664205Y-14982674D02*
X9664205Y-15030293D01*
X9664205Y-15030293D02*
X9654682Y-15068388D01*
X9654682Y-15068388D02*
X9645158Y-15087436D01*
X9645158Y-15087436D02*
X9635634Y-15096960D01*
X9635634Y-15096960D02*
X9616586Y-15106484D01*
X9616586Y-15106484D02*
X9597539Y-15106484D01*
X9597539Y-15106484D02*
X9578491Y-15096960D01*
X9578491Y-15096960D02*
X9568967Y-15087436D01*
X9568967Y-15087436D02*
X9559444Y-15068388D01*
X9559444Y-15068388D02*
X9549920Y-15030293D01*
X9549920Y-15030293D02*
X9549920Y-14982674D01*
X9549920Y-14982674D02*
X9559444Y-14944579D01*
X9559444Y-14944579D02*
X9568967Y-14925531D01*
X9568967Y-14925531D02*
X9578491Y-14916008D01*
X9578491Y-14916008D02*
X9597539Y-14906484D01*
X9749920Y-15106484D02*
X9749920Y-14973150D01*
X9749920Y-14992198D02*
X9759444Y-14982674D01*
X9759444Y-14982674D02*
X9778491Y-14973150D01*
X9778491Y-14973150D02*
X9807063Y-14973150D01*
X9807063Y-14973150D02*
X9826110Y-14982674D01*
X9826110Y-14982674D02*
X9835634Y-15001722D01*
X9835634Y-15001722D02*
X9835634Y-15106484D01*
X9835634Y-15001722D02*
X9845158Y-14982674D01*
X9845158Y-14982674D02*
X9864205Y-14973150D01*
X9864205Y-14973150D02*
X9892777Y-14973150D01*
X9892777Y-14973150D02*
X9911825Y-14982674D01*
X9911825Y-14982674D02*
X9921348Y-15001722D01*
X9921348Y-15001722D02*
X9921348Y-15106484D01*
X10016586Y-15106484D02*
X10016586Y-14973150D01*
X10016586Y-14992198D02*
X10026110Y-14982674D01*
X10026110Y-14982674D02*
X10045158Y-14973150D01*
X10045158Y-14973150D02*
X10073729Y-14973150D01*
X10073729Y-14973150D02*
X10092777Y-14982674D01*
X10092777Y-14982674D02*
X10102301Y-15001722D01*
X10102301Y-15001722D02*
X10102301Y-15106484D01*
X10102301Y-15001722D02*
X10111825Y-14982674D01*
X10111825Y-14982674D02*
X10130872Y-14973150D01*
X10130872Y-14973150D02*
X10159444Y-14973150D01*
X10159444Y-14973150D02*
X10178491Y-14982674D01*
X10178491Y-14982674D02*
X10188015Y-15001722D01*
X10188015Y-15001722D02*
X10188015Y-15106484D01*
X10578491Y-14896960D02*
X10407063Y-15154103D01*
X10835634Y-14906484D02*
X10854682Y-14906484D01*
X10854682Y-14906484D02*
X10873729Y-14916008D01*
X10873729Y-14916008D02*
X10883253Y-14925531D01*
X10883253Y-14925531D02*
X10892777Y-14944579D01*
X10892777Y-14944579D02*
X10902301Y-14982674D01*
X10902301Y-14982674D02*
X10902301Y-15030293D01*
X10902301Y-15030293D02*
X10892777Y-15068388D01*
X10892777Y-15068388D02*
X10883253Y-15087436D01*
X10883253Y-15087436D02*
X10873729Y-15096960D01*
X10873729Y-15096960D02*
X10854682Y-15106484D01*
X10854682Y-15106484D02*
X10835634Y-15106484D01*
X10835634Y-15106484D02*
X10816587Y-15096960D01*
X10816587Y-15096960D02*
X10807063Y-15087436D01*
X10807063Y-15087436D02*
X10797539Y-15068388D01*
X10797539Y-15068388D02*
X10788015Y-15030293D01*
X10788015Y-15030293D02*
X10788015Y-14982674D01*
X10788015Y-14982674D02*
X10797539Y-14944579D01*
X10797539Y-14944579D02*
X10807063Y-14925531D01*
X10807063Y-14925531D02*
X10816587Y-14916008D01*
X10816587Y-14916008D02*
X10835634Y-14906484D01*
X10988015Y-15087436D02*
X10997539Y-15096960D01*
X10997539Y-15096960D02*
X10988015Y-15106484D01*
X10988015Y-15106484D02*
X10978491Y-15096960D01*
X10978491Y-15096960D02*
X10988015Y-15087436D01*
X10988015Y-15087436D02*
X10988015Y-15106484D01*
X11121348Y-14906484D02*
X11140396Y-14906484D01*
X11140396Y-14906484D02*
X11159444Y-14916008D01*
X11159444Y-14916008D02*
X11168968Y-14925531D01*
X11168968Y-14925531D02*
X11178491Y-14944579D01*
X11178491Y-14944579D02*
X11188015Y-14982674D01*
X11188015Y-14982674D02*
X11188015Y-15030293D01*
X11188015Y-15030293D02*
X11178491Y-15068388D01*
X11178491Y-15068388D02*
X11168968Y-15087436D01*
X11168968Y-15087436D02*
X11159444Y-15096960D01*
X11159444Y-15096960D02*
X11140396Y-15106484D01*
X11140396Y-15106484D02*
X11121348Y-15106484D01*
X11121348Y-15106484D02*
X11102301Y-15096960D01*
X11102301Y-15096960D02*
X11092777Y-15087436D01*
X11092777Y-15087436D02*
X11083253Y-15068388D01*
X11083253Y-15068388D02*
X11073729Y-15030293D01*
X11073729Y-15030293D02*
X11073729Y-14982674D01*
X11073729Y-14982674D02*
X11083253Y-14944579D01*
X11083253Y-14944579D02*
X11092777Y-14925531D01*
X11092777Y-14925531D02*
X11102301Y-14916008D01*
X11102301Y-14916008D02*
X11121348Y-14906484D01*
X11378491Y-15106484D02*
X11264206Y-15106484D01*
X11321348Y-15106484D02*
X11321348Y-14906484D01*
X11321348Y-14906484D02*
X11302301Y-14935055D01*
X11302301Y-14935055D02*
X11283253Y-14954103D01*
X11283253Y-14954103D02*
X11264206Y-14963627D01*
X11559444Y-14906484D02*
X11464206Y-14906484D01*
X11464206Y-14906484D02*
X11454682Y-15001722D01*
X11454682Y-15001722D02*
X11464206Y-14992198D01*
X11464206Y-14992198D02*
X11483253Y-14982674D01*
X11483253Y-14982674D02*
X11530872Y-14982674D01*
X11530872Y-14982674D02*
X11549920Y-14992198D01*
X11549920Y-14992198D02*
X11559444Y-15001722D01*
X11559444Y-15001722D02*
X11568967Y-15020769D01*
X11568967Y-15020769D02*
X11568967Y-15068388D01*
X11568967Y-15068388D02*
X11559444Y-15087436D01*
X11559444Y-15087436D02*
X11549920Y-15096960D01*
X11549920Y-15096960D02*
X11530872Y-15106484D01*
X11530872Y-15106484D02*
X11483253Y-15106484D01*
X11483253Y-15106484D02*
X11464206Y-15096960D01*
X11464206Y-15096960D02*
X11454682Y-15087436D01*
X11635634Y-14906484D02*
X11768967Y-14906484D01*
X11768967Y-14906484D02*
X11683253Y-15106484D01*
X11835634Y-14906484D02*
X11835634Y-14944579D01*
X11911825Y-14906484D02*
X11911825Y-14944579D01*
X12207063Y-15182674D02*
X12197539Y-15173150D01*
X12197539Y-15173150D02*
X12178491Y-15144579D01*
X12178491Y-15144579D02*
X12168968Y-15125531D01*
X12168968Y-15125531D02*
X12159444Y-15096960D01*
X12159444Y-15096960D02*
X12149920Y-15049341D01*
X12149920Y-15049341D02*
X12149920Y-15011246D01*
X12149920Y-15011246D02*
X12159444Y-14963627D01*
X12159444Y-14963627D02*
X12168968Y-14935055D01*
X12168968Y-14935055D02*
X12178491Y-14916008D01*
X12178491Y-14916008D02*
X12197539Y-14887436D01*
X12197539Y-14887436D02*
X12207063Y-14877912D01*
X12388015Y-15106484D02*
X12273729Y-15106484D01*
X12330872Y-15106484D02*
X12330872Y-14906484D01*
X12330872Y-14906484D02*
X12311825Y-14935055D01*
X12311825Y-14935055D02*
X12292777Y-14954103D01*
X12292777Y-14954103D02*
X12273729Y-14963627D01*
X12454682Y-14906484D02*
X12588015Y-14906484D01*
X12588015Y-14906484D02*
X12502301Y-15106484D01*
X12702301Y-14906484D02*
X12721349Y-14906484D01*
X12721349Y-14906484D02*
X12740396Y-14916008D01*
X12740396Y-14916008D02*
X12749920Y-14925531D01*
X12749920Y-14925531D02*
X12759444Y-14944579D01*
X12759444Y-14944579D02*
X12768968Y-14982674D01*
X12768968Y-14982674D02*
X12768968Y-15030293D01*
X12768968Y-15030293D02*
X12759444Y-15068388D01*
X12759444Y-15068388D02*
X12749920Y-15087436D01*
X12749920Y-15087436D02*
X12740396Y-15096960D01*
X12740396Y-15096960D02*
X12721349Y-15106484D01*
X12721349Y-15106484D02*
X12702301Y-15106484D01*
X12702301Y-15106484D02*
X12683253Y-15096960D01*
X12683253Y-15096960D02*
X12673729Y-15087436D01*
X12673729Y-15087436D02*
X12664206Y-15068388D01*
X12664206Y-15068388D02*
X12654682Y-15030293D01*
X12654682Y-15030293D02*
X12654682Y-14982674D01*
X12654682Y-14982674D02*
X12664206Y-14944579D01*
X12664206Y-14944579D02*
X12673729Y-14925531D01*
X12673729Y-14925531D02*
X12683253Y-14916008D01*
X12683253Y-14916008D02*
X12702301Y-14906484D01*
X13007063Y-15106484D02*
X13007063Y-14906484D01*
X13092777Y-15106484D02*
X13092777Y-15001722D01*
X13092777Y-15001722D02*
X13083253Y-14982674D01*
X13083253Y-14982674D02*
X13064206Y-14973150D01*
X13064206Y-14973150D02*
X13035634Y-14973150D01*
X13035634Y-14973150D02*
X13016587Y-14982674D01*
X13016587Y-14982674D02*
X13007063Y-14992198D01*
X13216587Y-15106484D02*
X13197539Y-15096960D01*
X13197539Y-15096960D02*
X13188015Y-15087436D01*
X13188015Y-15087436D02*
X13178491Y-15068388D01*
X13178491Y-15068388D02*
X13178491Y-15011246D01*
X13178491Y-15011246D02*
X13188015Y-14992198D01*
X13188015Y-14992198D02*
X13197539Y-14982674D01*
X13197539Y-14982674D02*
X13216587Y-14973150D01*
X13216587Y-14973150D02*
X13245158Y-14973150D01*
X13245158Y-14973150D02*
X13264206Y-14982674D01*
X13264206Y-14982674D02*
X13273730Y-14992198D01*
X13273730Y-14992198D02*
X13283253Y-15011246D01*
X13283253Y-15011246D02*
X13283253Y-15068388D01*
X13283253Y-15068388D02*
X13273730Y-15087436D01*
X13273730Y-15087436D02*
X13264206Y-15096960D01*
X13264206Y-15096960D02*
X13245158Y-15106484D01*
X13245158Y-15106484D02*
X13216587Y-15106484D01*
X13397539Y-15106484D02*
X13378491Y-15096960D01*
X13378491Y-15096960D02*
X13368968Y-15077912D01*
X13368968Y-15077912D02*
X13368968Y-14906484D01*
X13549920Y-15096960D02*
X13530872Y-15106484D01*
X13530872Y-15106484D02*
X13492777Y-15106484D01*
X13492777Y-15106484D02*
X13473730Y-15096960D01*
X13473730Y-15096960D02*
X13464206Y-15077912D01*
X13464206Y-15077912D02*
X13464206Y-15001722D01*
X13464206Y-15001722D02*
X13473730Y-14982674D01*
X13473730Y-14982674D02*
X13492777Y-14973150D01*
X13492777Y-14973150D02*
X13530872Y-14973150D01*
X13530872Y-14973150D02*
X13549920Y-14982674D01*
X13549920Y-14982674D02*
X13559444Y-15001722D01*
X13559444Y-15001722D02*
X13559444Y-15020769D01*
X13559444Y-15020769D02*
X13464206Y-15039817D01*
X13635634Y-15096960D02*
X13654682Y-15106484D01*
X13654682Y-15106484D02*
X13692777Y-15106484D01*
X13692777Y-15106484D02*
X13711825Y-15096960D01*
X13711825Y-15096960D02*
X13721349Y-15077912D01*
X13721349Y-15077912D02*
X13721349Y-15068388D01*
X13721349Y-15068388D02*
X13711825Y-15049341D01*
X13711825Y-15049341D02*
X13692777Y-15039817D01*
X13692777Y-15039817D02*
X13664206Y-15039817D01*
X13664206Y-15039817D02*
X13645158Y-15030293D01*
X13645158Y-15030293D02*
X13635634Y-15011246D01*
X13635634Y-15011246D02*
X13635634Y-15001722D01*
X13635634Y-15001722D02*
X13645158Y-14982674D01*
X13645158Y-14982674D02*
X13664206Y-14973150D01*
X13664206Y-14973150D02*
X13692777Y-14973150D01*
X13692777Y-14973150D02*
X13711825Y-14982674D01*
X13788015Y-15182674D02*
X13797539Y-15173150D01*
X13797539Y-15173150D02*
X13816587Y-15144579D01*
X13816587Y-15144579D02*
X13826111Y-15125531D01*
X13826111Y-15125531D02*
X13835634Y-15096960D01*
X13835634Y-15096960D02*
X13845158Y-15049341D01*
X13845158Y-15049341D02*
X13845158Y-15011246D01*
X13845158Y-15011246D02*
X13835634Y-14963627D01*
X13835634Y-14963627D02*
X13826111Y-14935055D01*
X13826111Y-14935055D02*
X13816587Y-14916008D01*
X13816587Y-14916008D02*
X13797539Y-14887436D01*
X13797539Y-14887436D02*
X13788015Y-14877912D01*
D11*
X8602000Y-15249000D02*
X8602000Y-15309000D01*
X8572000Y-15279000D02*
X8632000Y-15279000D01*
D10*
X8930872Y-15170484D02*
X8949920Y-15170484D01*
X8949920Y-15170484D02*
X8968967Y-15180008D01*
X8968967Y-15180008D02*
X8978491Y-15189531D01*
X8978491Y-15189531D02*
X8988015Y-15208579D01*
X8988015Y-15208579D02*
X8997539Y-15246674D01*
X8997539Y-15246674D02*
X8997539Y-15294293D01*
X8997539Y-15294293D02*
X8988015Y-15332388D01*
X8988015Y-15332388D02*
X8978491Y-15351436D01*
X8978491Y-15351436D02*
X8968967Y-15360960D01*
X8968967Y-15360960D02*
X8949920Y-15370484D01*
X8949920Y-15370484D02*
X8930872Y-15370484D01*
X8930872Y-15370484D02*
X8911824Y-15360960D01*
X8911824Y-15360960D02*
X8902301Y-15351436D01*
X8902301Y-15351436D02*
X8892777Y-15332388D01*
X8892777Y-15332388D02*
X8883253Y-15294293D01*
X8883253Y-15294293D02*
X8883253Y-15246674D01*
X8883253Y-15246674D02*
X8892777Y-15208579D01*
X8892777Y-15208579D02*
X8902301Y-15189531D01*
X8902301Y-15189531D02*
X8911824Y-15180008D01*
X8911824Y-15180008D02*
X8930872Y-15170484D01*
X9083253Y-15351436D02*
X9092777Y-15360960D01*
X9092777Y-15360960D02*
X9083253Y-15370484D01*
X9083253Y-15370484D02*
X9073729Y-15360960D01*
X9073729Y-15360960D02*
X9083253Y-15351436D01*
X9083253Y-15351436D02*
X9083253Y-15370484D01*
X9264205Y-15170484D02*
X9226110Y-15170484D01*
X9226110Y-15170484D02*
X9207063Y-15180008D01*
X9207063Y-15180008D02*
X9197539Y-15189531D01*
X9197539Y-15189531D02*
X9178491Y-15218103D01*
X9178491Y-15218103D02*
X9168967Y-15256198D01*
X9168967Y-15256198D02*
X9168967Y-15332388D01*
X9168967Y-15332388D02*
X9178491Y-15351436D01*
X9178491Y-15351436D02*
X9188015Y-15360960D01*
X9188015Y-15360960D02*
X9207063Y-15370484D01*
X9207063Y-15370484D02*
X9245158Y-15370484D01*
X9245158Y-15370484D02*
X9264205Y-15360960D01*
X9264205Y-15360960D02*
X9273729Y-15351436D01*
X9273729Y-15351436D02*
X9283253Y-15332388D01*
X9283253Y-15332388D02*
X9283253Y-15284769D01*
X9283253Y-15284769D02*
X9273729Y-15265722D01*
X9273729Y-15265722D02*
X9264205Y-15256198D01*
X9264205Y-15256198D02*
X9245158Y-15246674D01*
X9245158Y-15246674D02*
X9207063Y-15246674D01*
X9207063Y-15246674D02*
X9188015Y-15256198D01*
X9188015Y-15256198D02*
X9178491Y-15265722D01*
X9178491Y-15265722D02*
X9168967Y-15284769D01*
X9407063Y-15170484D02*
X9426110Y-15170484D01*
X9426110Y-15170484D02*
X9445158Y-15180008D01*
X9445158Y-15180008D02*
X9454682Y-15189531D01*
X9454682Y-15189531D02*
X9464205Y-15208579D01*
X9464205Y-15208579D02*
X9473729Y-15246674D01*
X9473729Y-15246674D02*
X9473729Y-15294293D01*
X9473729Y-15294293D02*
X9464205Y-15332388D01*
X9464205Y-15332388D02*
X9454682Y-15351436D01*
X9454682Y-15351436D02*
X9445158Y-15360960D01*
X9445158Y-15360960D02*
X9426110Y-15370484D01*
X9426110Y-15370484D02*
X9407063Y-15370484D01*
X9407063Y-15370484D02*
X9388015Y-15360960D01*
X9388015Y-15360960D02*
X9378491Y-15351436D01*
X9378491Y-15351436D02*
X9368967Y-15332388D01*
X9368967Y-15332388D02*
X9359444Y-15294293D01*
X9359444Y-15294293D02*
X9359444Y-15246674D01*
X9359444Y-15246674D02*
X9368967Y-15208579D01*
X9368967Y-15208579D02*
X9378491Y-15189531D01*
X9378491Y-15189531D02*
X9388015Y-15180008D01*
X9388015Y-15180008D02*
X9407063Y-15170484D01*
X9597539Y-15170484D02*
X9616586Y-15170484D01*
X9616586Y-15170484D02*
X9635634Y-15180008D01*
X9635634Y-15180008D02*
X9645158Y-15189531D01*
X9645158Y-15189531D02*
X9654682Y-15208579D01*
X9654682Y-15208579D02*
X9664205Y-15246674D01*
X9664205Y-15246674D02*
X9664205Y-15294293D01*
X9664205Y-15294293D02*
X9654682Y-15332388D01*
X9654682Y-15332388D02*
X9645158Y-15351436D01*
X9645158Y-15351436D02*
X9635634Y-15360960D01*
X9635634Y-15360960D02*
X9616586Y-15370484D01*
X9616586Y-15370484D02*
X9597539Y-15370484D01*
X9597539Y-15370484D02*
X9578491Y-15360960D01*
X9578491Y-15360960D02*
X9568967Y-15351436D01*
X9568967Y-15351436D02*
X9559444Y-15332388D01*
X9559444Y-15332388D02*
X9549920Y-15294293D01*
X9549920Y-15294293D02*
X9549920Y-15246674D01*
X9549920Y-15246674D02*
X9559444Y-15208579D01*
X9559444Y-15208579D02*
X9568967Y-15189531D01*
X9568967Y-15189531D02*
X9578491Y-15180008D01*
X9578491Y-15180008D02*
X9597539Y-15170484D01*
X9749920Y-15370484D02*
X9749920Y-15237150D01*
X9749920Y-15256198D02*
X9759444Y-15246674D01*
X9759444Y-15246674D02*
X9778491Y-15237150D01*
X9778491Y-15237150D02*
X9807063Y-15237150D01*
X9807063Y-15237150D02*
X9826110Y-15246674D01*
X9826110Y-15246674D02*
X9835634Y-15265722D01*
X9835634Y-15265722D02*
X9835634Y-15370484D01*
X9835634Y-15265722D02*
X9845158Y-15246674D01*
X9845158Y-15246674D02*
X9864205Y-15237150D01*
X9864205Y-15237150D02*
X9892777Y-15237150D01*
X9892777Y-15237150D02*
X9911825Y-15246674D01*
X9911825Y-15246674D02*
X9921348Y-15265722D01*
X9921348Y-15265722D02*
X9921348Y-15370484D01*
X10016586Y-15370484D02*
X10016586Y-15237150D01*
X10016586Y-15256198D02*
X10026110Y-15246674D01*
X10026110Y-15246674D02*
X10045158Y-15237150D01*
X10045158Y-15237150D02*
X10073729Y-15237150D01*
X10073729Y-15237150D02*
X10092777Y-15246674D01*
X10092777Y-15246674D02*
X10102301Y-15265722D01*
X10102301Y-15265722D02*
X10102301Y-15370484D01*
X10102301Y-15265722D02*
X10111825Y-15246674D01*
X10111825Y-15246674D02*
X10130872Y-15237150D01*
X10130872Y-15237150D02*
X10159444Y-15237150D01*
X10159444Y-15237150D02*
X10178491Y-15246674D01*
X10178491Y-15246674D02*
X10188015Y-15265722D01*
X10188015Y-15265722D02*
X10188015Y-15370484D01*
X10578491Y-15160960D02*
X10407063Y-15418103D01*
X10835634Y-15170484D02*
X10854682Y-15170484D01*
X10854682Y-15170484D02*
X10873729Y-15180008D01*
X10873729Y-15180008D02*
X10883253Y-15189531D01*
X10883253Y-15189531D02*
X10892777Y-15208579D01*
X10892777Y-15208579D02*
X10902301Y-15246674D01*
X10902301Y-15246674D02*
X10902301Y-15294293D01*
X10902301Y-15294293D02*
X10892777Y-15332388D01*
X10892777Y-15332388D02*
X10883253Y-15351436D01*
X10883253Y-15351436D02*
X10873729Y-15360960D01*
X10873729Y-15360960D02*
X10854682Y-15370484D01*
X10854682Y-15370484D02*
X10835634Y-15370484D01*
X10835634Y-15370484D02*
X10816587Y-15360960D01*
X10816587Y-15360960D02*
X10807063Y-15351436D01*
X10807063Y-15351436D02*
X10797539Y-15332388D01*
X10797539Y-15332388D02*
X10788015Y-15294293D01*
X10788015Y-15294293D02*
X10788015Y-15246674D01*
X10788015Y-15246674D02*
X10797539Y-15208579D01*
X10797539Y-15208579D02*
X10807063Y-15189531D01*
X10807063Y-15189531D02*
X10816587Y-15180008D01*
X10816587Y-15180008D02*
X10835634Y-15170484D01*
X10988015Y-15351436D02*
X10997539Y-15360960D01*
X10997539Y-15360960D02*
X10988015Y-15370484D01*
X10988015Y-15370484D02*
X10978491Y-15360960D01*
X10978491Y-15360960D02*
X10988015Y-15351436D01*
X10988015Y-15351436D02*
X10988015Y-15370484D01*
X11121348Y-15170484D02*
X11140396Y-15170484D01*
X11140396Y-15170484D02*
X11159444Y-15180008D01*
X11159444Y-15180008D02*
X11168968Y-15189531D01*
X11168968Y-15189531D02*
X11178491Y-15208579D01*
X11178491Y-15208579D02*
X11188015Y-15246674D01*
X11188015Y-15246674D02*
X11188015Y-15294293D01*
X11188015Y-15294293D02*
X11178491Y-15332388D01*
X11178491Y-15332388D02*
X11168968Y-15351436D01*
X11168968Y-15351436D02*
X11159444Y-15360960D01*
X11159444Y-15360960D02*
X11140396Y-15370484D01*
X11140396Y-15370484D02*
X11121348Y-15370484D01*
X11121348Y-15370484D02*
X11102301Y-15360960D01*
X11102301Y-15360960D02*
X11092777Y-15351436D01*
X11092777Y-15351436D02*
X11083253Y-15332388D01*
X11083253Y-15332388D02*
X11073729Y-15294293D01*
X11073729Y-15294293D02*
X11073729Y-15246674D01*
X11073729Y-15246674D02*
X11083253Y-15208579D01*
X11083253Y-15208579D02*
X11092777Y-15189531D01*
X11092777Y-15189531D02*
X11102301Y-15180008D01*
X11102301Y-15180008D02*
X11121348Y-15170484D01*
X11264206Y-15189531D02*
X11273729Y-15180008D01*
X11273729Y-15180008D02*
X11292777Y-15170484D01*
X11292777Y-15170484D02*
X11340396Y-15170484D01*
X11340396Y-15170484D02*
X11359444Y-15180008D01*
X11359444Y-15180008D02*
X11368967Y-15189531D01*
X11368967Y-15189531D02*
X11378491Y-15208579D01*
X11378491Y-15208579D02*
X11378491Y-15227627D01*
X11378491Y-15227627D02*
X11368967Y-15256198D01*
X11368967Y-15256198D02*
X11254682Y-15370484D01*
X11254682Y-15370484D02*
X11378491Y-15370484D01*
X11445158Y-15170484D02*
X11568967Y-15170484D01*
X11568967Y-15170484D02*
X11502301Y-15246674D01*
X11502301Y-15246674D02*
X11530872Y-15246674D01*
X11530872Y-15246674D02*
X11549920Y-15256198D01*
X11549920Y-15256198D02*
X11559444Y-15265722D01*
X11559444Y-15265722D02*
X11568967Y-15284769D01*
X11568967Y-15284769D02*
X11568967Y-15332388D01*
X11568967Y-15332388D02*
X11559444Y-15351436D01*
X11559444Y-15351436D02*
X11549920Y-15360960D01*
X11549920Y-15360960D02*
X11530872Y-15370484D01*
X11530872Y-15370484D02*
X11473729Y-15370484D01*
X11473729Y-15370484D02*
X11454682Y-15360960D01*
X11454682Y-15360960D02*
X11445158Y-15351436D01*
X11740396Y-15170484D02*
X11702301Y-15170484D01*
X11702301Y-15170484D02*
X11683253Y-15180008D01*
X11683253Y-15180008D02*
X11673729Y-15189531D01*
X11673729Y-15189531D02*
X11654682Y-15218103D01*
X11654682Y-15218103D02*
X11645158Y-15256198D01*
X11645158Y-15256198D02*
X11645158Y-15332388D01*
X11645158Y-15332388D02*
X11654682Y-15351436D01*
X11654682Y-15351436D02*
X11664206Y-15360960D01*
X11664206Y-15360960D02*
X11683253Y-15370484D01*
X11683253Y-15370484D02*
X11721348Y-15370484D01*
X11721348Y-15370484D02*
X11740396Y-15360960D01*
X11740396Y-15360960D02*
X11749920Y-15351436D01*
X11749920Y-15351436D02*
X11759444Y-15332388D01*
X11759444Y-15332388D02*
X11759444Y-15284769D01*
X11759444Y-15284769D02*
X11749920Y-15265722D01*
X11749920Y-15265722D02*
X11740396Y-15256198D01*
X11740396Y-15256198D02*
X11721348Y-15246674D01*
X11721348Y-15246674D02*
X11683253Y-15246674D01*
X11683253Y-15246674D02*
X11664206Y-15256198D01*
X11664206Y-15256198D02*
X11654682Y-15265722D01*
X11654682Y-15265722D02*
X11645158Y-15284769D01*
X11835634Y-15170484D02*
X11835634Y-15208579D01*
X11911825Y-15170484D02*
X11911825Y-15208579D01*
X12207063Y-15446674D02*
X12197539Y-15437150D01*
X12197539Y-15437150D02*
X12178491Y-15408579D01*
X12178491Y-15408579D02*
X12168968Y-15389531D01*
X12168968Y-15389531D02*
X12159444Y-15360960D01*
X12159444Y-15360960D02*
X12149920Y-15313341D01*
X12149920Y-15313341D02*
X12149920Y-15275246D01*
X12149920Y-15275246D02*
X12159444Y-15227627D01*
X12159444Y-15227627D02*
X12168968Y-15199055D01*
X12168968Y-15199055D02*
X12178491Y-15180008D01*
X12178491Y-15180008D02*
X12197539Y-15151436D01*
X12197539Y-15151436D02*
X12207063Y-15141912D01*
X12321348Y-15170484D02*
X12340396Y-15170484D01*
X12340396Y-15170484D02*
X12359444Y-15180008D01*
X12359444Y-15180008D02*
X12368968Y-15189531D01*
X12368968Y-15189531D02*
X12378491Y-15208579D01*
X12378491Y-15208579D02*
X12388015Y-15246674D01*
X12388015Y-15246674D02*
X12388015Y-15294293D01*
X12388015Y-15294293D02*
X12378491Y-15332388D01*
X12378491Y-15332388D02*
X12368968Y-15351436D01*
X12368968Y-15351436D02*
X12359444Y-15360960D01*
X12359444Y-15360960D02*
X12340396Y-15370484D01*
X12340396Y-15370484D02*
X12321348Y-15370484D01*
X12321348Y-15370484D02*
X12302301Y-15360960D01*
X12302301Y-15360960D02*
X12292777Y-15351436D01*
X12292777Y-15351436D02*
X12283253Y-15332388D01*
X12283253Y-15332388D02*
X12273729Y-15294293D01*
X12273729Y-15294293D02*
X12273729Y-15246674D01*
X12273729Y-15246674D02*
X12283253Y-15208579D01*
X12283253Y-15208579D02*
X12292777Y-15189531D01*
X12292777Y-15189531D02*
X12302301Y-15180008D01*
X12302301Y-15180008D02*
X12321348Y-15170484D01*
X12626110Y-15370484D02*
X12626110Y-15170484D01*
X12711825Y-15370484D02*
X12711825Y-15265722D01*
X12711825Y-15265722D02*
X12702301Y-15246674D01*
X12702301Y-15246674D02*
X12683253Y-15237150D01*
X12683253Y-15237150D02*
X12654682Y-15237150D01*
X12654682Y-15237150D02*
X12635634Y-15246674D01*
X12635634Y-15246674D02*
X12626110Y-15256198D01*
X12835634Y-15370484D02*
X12816587Y-15360960D01*
X12816587Y-15360960D02*
X12807063Y-15351436D01*
X12807063Y-15351436D02*
X12797539Y-15332388D01*
X12797539Y-15332388D02*
X12797539Y-15275246D01*
X12797539Y-15275246D02*
X12807063Y-15256198D01*
X12807063Y-15256198D02*
X12816587Y-15246674D01*
X12816587Y-15246674D02*
X12835634Y-15237150D01*
X12835634Y-15237150D02*
X12864206Y-15237150D01*
X12864206Y-15237150D02*
X12883253Y-15246674D01*
X12883253Y-15246674D02*
X12892777Y-15256198D01*
X12892777Y-15256198D02*
X12902301Y-15275246D01*
X12902301Y-15275246D02*
X12902301Y-15332388D01*
X12902301Y-15332388D02*
X12892777Y-15351436D01*
X12892777Y-15351436D02*
X12883253Y-15360960D01*
X12883253Y-15360960D02*
X12864206Y-15370484D01*
X12864206Y-15370484D02*
X12835634Y-15370484D01*
X13016587Y-15370484D02*
X12997539Y-15360960D01*
X12997539Y-15360960D02*
X12988015Y-15341912D01*
X12988015Y-15341912D02*
X12988015Y-15170484D01*
X13168968Y-15360960D02*
X13149920Y-15370484D01*
X13149920Y-15370484D02*
X13111825Y-15370484D01*
X13111825Y-15370484D02*
X13092777Y-15360960D01*
X13092777Y-15360960D02*
X13083253Y-15341912D01*
X13083253Y-15341912D02*
X13083253Y-15265722D01*
X13083253Y-15265722D02*
X13092777Y-15246674D01*
X13092777Y-15246674D02*
X13111825Y-15237150D01*
X13111825Y-15237150D02*
X13149920Y-15237150D01*
X13149920Y-15237150D02*
X13168968Y-15246674D01*
X13168968Y-15246674D02*
X13178491Y-15265722D01*
X13178491Y-15265722D02*
X13178491Y-15284769D01*
X13178491Y-15284769D02*
X13083253Y-15303817D01*
X13254682Y-15360960D02*
X13273730Y-15370484D01*
X13273730Y-15370484D02*
X13311825Y-15370484D01*
X13311825Y-15370484D02*
X13330872Y-15360960D01*
X13330872Y-15360960D02*
X13340396Y-15341912D01*
X13340396Y-15341912D02*
X13340396Y-15332388D01*
X13340396Y-15332388D02*
X13330872Y-15313341D01*
X13330872Y-15313341D02*
X13311825Y-15303817D01*
X13311825Y-15303817D02*
X13283253Y-15303817D01*
X13283253Y-15303817D02*
X13264206Y-15294293D01*
X13264206Y-15294293D02*
X13254682Y-15275246D01*
X13254682Y-15275246D02*
X13254682Y-15265722D01*
X13254682Y-15265722D02*
X13264206Y-15246674D01*
X13264206Y-15246674D02*
X13283253Y-15237150D01*
X13283253Y-15237150D02*
X13311825Y-15237150D01*
X13311825Y-15237150D02*
X13330872Y-15246674D01*
X13578492Y-15294293D02*
X13730873Y-15294293D01*
X13654682Y-15370484D02*
X13654682Y-15218103D01*
X14064206Y-15237150D02*
X14064206Y-15370484D01*
X14016587Y-15160960D02*
X13968968Y-15303817D01*
X13968968Y-15303817D02*
X14092777Y-15303817D01*
X14311825Y-15360960D02*
X14330873Y-15370484D01*
X14330873Y-15370484D02*
X14368968Y-15370484D01*
X14368968Y-15370484D02*
X14388015Y-15360960D01*
X14388015Y-15360960D02*
X14397539Y-15341912D01*
X14397539Y-15341912D02*
X14397539Y-15332388D01*
X14397539Y-15332388D02*
X14388015Y-15313341D01*
X14388015Y-15313341D02*
X14368968Y-15303817D01*
X14368968Y-15303817D02*
X14340396Y-15303817D01*
X14340396Y-15303817D02*
X14321349Y-15294293D01*
X14321349Y-15294293D02*
X14311825Y-15275246D01*
X14311825Y-15275246D02*
X14311825Y-15265722D01*
X14311825Y-15265722D02*
X14321349Y-15246674D01*
X14321349Y-15246674D02*
X14340396Y-15237150D01*
X14340396Y-15237150D02*
X14368968Y-15237150D01*
X14368968Y-15237150D02*
X14388015Y-15246674D01*
X14511825Y-15370484D02*
X14492777Y-15360960D01*
X14492777Y-15360960D02*
X14483254Y-15341912D01*
X14483254Y-15341912D02*
X14483254Y-15170484D01*
X14616587Y-15370484D02*
X14597539Y-15360960D01*
X14597539Y-15360960D02*
X14588015Y-15351436D01*
X14588015Y-15351436D02*
X14578492Y-15332388D01*
X14578492Y-15332388D02*
X14578492Y-15275246D01*
X14578492Y-15275246D02*
X14588015Y-15256198D01*
X14588015Y-15256198D02*
X14597539Y-15246674D01*
X14597539Y-15246674D02*
X14616587Y-15237150D01*
X14616587Y-15237150D02*
X14645158Y-15237150D01*
X14645158Y-15237150D02*
X14664206Y-15246674D01*
X14664206Y-15246674D02*
X14673730Y-15256198D01*
X14673730Y-15256198D02*
X14683254Y-15275246D01*
X14683254Y-15275246D02*
X14683254Y-15332388D01*
X14683254Y-15332388D02*
X14673730Y-15351436D01*
X14673730Y-15351436D02*
X14664206Y-15360960D01*
X14664206Y-15360960D02*
X14645158Y-15370484D01*
X14645158Y-15370484D02*
X14616587Y-15370484D01*
X14740396Y-15237150D02*
X14816587Y-15237150D01*
X14768968Y-15170484D02*
X14768968Y-15341912D01*
X14768968Y-15341912D02*
X14778492Y-15360960D01*
X14778492Y-15360960D02*
X14797539Y-15370484D01*
X14797539Y-15370484D02*
X14816587Y-15370484D01*
X14873730Y-15360960D02*
X14892777Y-15370484D01*
X14892777Y-15370484D02*
X14930873Y-15370484D01*
X14930873Y-15370484D02*
X14949920Y-15360960D01*
X14949920Y-15360960D02*
X14959444Y-15341912D01*
X14959444Y-15341912D02*
X14959444Y-15332388D01*
X14959444Y-15332388D02*
X14949920Y-15313341D01*
X14949920Y-15313341D02*
X14930873Y-15303817D01*
X14930873Y-15303817D02*
X14902301Y-15303817D01*
X14902301Y-15303817D02*
X14883254Y-15294293D01*
X14883254Y-15294293D02*
X14873730Y-15275246D01*
X14873730Y-15275246D02*
X14873730Y-15265722D01*
X14873730Y-15265722D02*
X14883254Y-15246674D01*
X14883254Y-15246674D02*
X14902301Y-15237150D01*
X14902301Y-15237150D02*
X14930873Y-15237150D01*
X14930873Y-15237150D02*
X14949920Y-15246674D01*
X15026111Y-15446674D02*
X15035635Y-15437150D01*
X15035635Y-15437150D02*
X15054682Y-15408579D01*
X15054682Y-15408579D02*
X15064206Y-15389531D01*
X15064206Y-15389531D02*
X15073730Y-15360960D01*
X15073730Y-15360960D02*
X15083254Y-15313341D01*
X15083254Y-15313341D02*
X15083254Y-15275246D01*
X15083254Y-15275246D02*
X15073730Y-15227627D01*
X15073730Y-15227627D02*
X15064206Y-15199055D01*
X15064206Y-15199055D02*
X15054682Y-15180008D01*
X15054682Y-15180008D02*
X15035635Y-15151436D01*
X15035635Y-15151436D02*
X15026111Y-15141912D01*
D11*
X8621017Y-15569517D02*
X8621017Y-15516483D01*
X8567983Y-15516483D01*
X8567983Y-15569517D01*
X8621017Y-15569517D01*
D10*
X8930872Y-15434484D02*
X8949920Y-15434484D01*
X8949920Y-15434484D02*
X8968967Y-15444008D01*
X8968967Y-15444008D02*
X8978491Y-15453531D01*
X8978491Y-15453531D02*
X8988015Y-15472579D01*
X8988015Y-15472579D02*
X8997539Y-15510674D01*
X8997539Y-15510674D02*
X8997539Y-15558293D01*
X8997539Y-15558293D02*
X8988015Y-15596388D01*
X8988015Y-15596388D02*
X8978491Y-15615436D01*
X8978491Y-15615436D02*
X8968967Y-15624960D01*
X8968967Y-15624960D02*
X8949920Y-15634484D01*
X8949920Y-15634484D02*
X8930872Y-15634484D01*
X8930872Y-15634484D02*
X8911824Y-15624960D01*
X8911824Y-15624960D02*
X8902301Y-15615436D01*
X8902301Y-15615436D02*
X8892777Y-15596388D01*
X8892777Y-15596388D02*
X8883253Y-15558293D01*
X8883253Y-15558293D02*
X8883253Y-15510674D01*
X8883253Y-15510674D02*
X8892777Y-15472579D01*
X8892777Y-15472579D02*
X8902301Y-15453531D01*
X8902301Y-15453531D02*
X8911824Y-15444008D01*
X8911824Y-15444008D02*
X8930872Y-15434484D01*
X9083253Y-15615436D02*
X9092777Y-15624960D01*
X9092777Y-15624960D02*
X9083253Y-15634484D01*
X9083253Y-15634484D02*
X9073729Y-15624960D01*
X9073729Y-15624960D02*
X9083253Y-15615436D01*
X9083253Y-15615436D02*
X9083253Y-15634484D01*
X9159444Y-15434484D02*
X9292777Y-15434484D01*
X9292777Y-15434484D02*
X9207063Y-15634484D01*
X9464205Y-15434484D02*
X9368967Y-15434484D01*
X9368967Y-15434484D02*
X9359444Y-15529722D01*
X9359444Y-15529722D02*
X9368967Y-15520198D01*
X9368967Y-15520198D02*
X9388015Y-15510674D01*
X9388015Y-15510674D02*
X9435634Y-15510674D01*
X9435634Y-15510674D02*
X9454682Y-15520198D01*
X9454682Y-15520198D02*
X9464205Y-15529722D01*
X9464205Y-15529722D02*
X9473729Y-15548769D01*
X9473729Y-15548769D02*
X9473729Y-15596388D01*
X9473729Y-15596388D02*
X9464205Y-15615436D01*
X9464205Y-15615436D02*
X9454682Y-15624960D01*
X9454682Y-15624960D02*
X9435634Y-15634484D01*
X9435634Y-15634484D02*
X9388015Y-15634484D01*
X9388015Y-15634484D02*
X9368967Y-15624960D01*
X9368967Y-15624960D02*
X9359444Y-15615436D01*
X9597539Y-15434484D02*
X9616586Y-15434484D01*
X9616586Y-15434484D02*
X9635634Y-15444008D01*
X9635634Y-15444008D02*
X9645158Y-15453531D01*
X9645158Y-15453531D02*
X9654682Y-15472579D01*
X9654682Y-15472579D02*
X9664205Y-15510674D01*
X9664205Y-15510674D02*
X9664205Y-15558293D01*
X9664205Y-15558293D02*
X9654682Y-15596388D01*
X9654682Y-15596388D02*
X9645158Y-15615436D01*
X9645158Y-15615436D02*
X9635634Y-15624960D01*
X9635634Y-15624960D02*
X9616586Y-15634484D01*
X9616586Y-15634484D02*
X9597539Y-15634484D01*
X9597539Y-15634484D02*
X9578491Y-15624960D01*
X9578491Y-15624960D02*
X9568967Y-15615436D01*
X9568967Y-15615436D02*
X9559444Y-15596388D01*
X9559444Y-15596388D02*
X9549920Y-15558293D01*
X9549920Y-15558293D02*
X9549920Y-15510674D01*
X9549920Y-15510674D02*
X9559444Y-15472579D01*
X9559444Y-15472579D02*
X9568967Y-15453531D01*
X9568967Y-15453531D02*
X9578491Y-15444008D01*
X9578491Y-15444008D02*
X9597539Y-15434484D01*
X9749920Y-15634484D02*
X9749920Y-15501150D01*
X9749920Y-15520198D02*
X9759444Y-15510674D01*
X9759444Y-15510674D02*
X9778491Y-15501150D01*
X9778491Y-15501150D02*
X9807063Y-15501150D01*
X9807063Y-15501150D02*
X9826110Y-15510674D01*
X9826110Y-15510674D02*
X9835634Y-15529722D01*
X9835634Y-15529722D02*
X9835634Y-15634484D01*
X9835634Y-15529722D02*
X9845158Y-15510674D01*
X9845158Y-15510674D02*
X9864205Y-15501150D01*
X9864205Y-15501150D02*
X9892777Y-15501150D01*
X9892777Y-15501150D02*
X9911825Y-15510674D01*
X9911825Y-15510674D02*
X9921348Y-15529722D01*
X9921348Y-15529722D02*
X9921348Y-15634484D01*
X10016586Y-15634484D02*
X10016586Y-15501150D01*
X10016586Y-15520198D02*
X10026110Y-15510674D01*
X10026110Y-15510674D02*
X10045158Y-15501150D01*
X10045158Y-15501150D02*
X10073729Y-15501150D01*
X10073729Y-15501150D02*
X10092777Y-15510674D01*
X10092777Y-15510674D02*
X10102301Y-15529722D01*
X10102301Y-15529722D02*
X10102301Y-15634484D01*
X10102301Y-15529722D02*
X10111825Y-15510674D01*
X10111825Y-15510674D02*
X10130872Y-15501150D01*
X10130872Y-15501150D02*
X10159444Y-15501150D01*
X10159444Y-15501150D02*
X10178491Y-15510674D01*
X10178491Y-15510674D02*
X10188015Y-15529722D01*
X10188015Y-15529722D02*
X10188015Y-15634484D01*
X10578491Y-15424960D02*
X10407063Y-15682103D01*
X10835634Y-15434484D02*
X10854682Y-15434484D01*
X10854682Y-15434484D02*
X10873729Y-15444008D01*
X10873729Y-15444008D02*
X10883253Y-15453531D01*
X10883253Y-15453531D02*
X10892777Y-15472579D01*
X10892777Y-15472579D02*
X10902301Y-15510674D01*
X10902301Y-15510674D02*
X10902301Y-15558293D01*
X10902301Y-15558293D02*
X10892777Y-15596388D01*
X10892777Y-15596388D02*
X10883253Y-15615436D01*
X10883253Y-15615436D02*
X10873729Y-15624960D01*
X10873729Y-15624960D02*
X10854682Y-15634484D01*
X10854682Y-15634484D02*
X10835634Y-15634484D01*
X10835634Y-15634484D02*
X10816587Y-15624960D01*
X10816587Y-15624960D02*
X10807063Y-15615436D01*
X10807063Y-15615436D02*
X10797539Y-15596388D01*
X10797539Y-15596388D02*
X10788015Y-15558293D01*
X10788015Y-15558293D02*
X10788015Y-15510674D01*
X10788015Y-15510674D02*
X10797539Y-15472579D01*
X10797539Y-15472579D02*
X10807063Y-15453531D01*
X10807063Y-15453531D02*
X10816587Y-15444008D01*
X10816587Y-15444008D02*
X10835634Y-15434484D01*
X10988015Y-15615436D02*
X10997539Y-15624960D01*
X10997539Y-15624960D02*
X10988015Y-15634484D01*
X10988015Y-15634484D02*
X10978491Y-15624960D01*
X10978491Y-15624960D02*
X10988015Y-15615436D01*
X10988015Y-15615436D02*
X10988015Y-15634484D01*
X11121348Y-15434484D02*
X11140396Y-15434484D01*
X11140396Y-15434484D02*
X11159444Y-15444008D01*
X11159444Y-15444008D02*
X11168968Y-15453531D01*
X11168968Y-15453531D02*
X11178491Y-15472579D01*
X11178491Y-15472579D02*
X11188015Y-15510674D01*
X11188015Y-15510674D02*
X11188015Y-15558293D01*
X11188015Y-15558293D02*
X11178491Y-15596388D01*
X11178491Y-15596388D02*
X11168968Y-15615436D01*
X11168968Y-15615436D02*
X11159444Y-15624960D01*
X11159444Y-15624960D02*
X11140396Y-15634484D01*
X11140396Y-15634484D02*
X11121348Y-15634484D01*
X11121348Y-15634484D02*
X11102301Y-15624960D01*
X11102301Y-15624960D02*
X11092777Y-15615436D01*
X11092777Y-15615436D02*
X11083253Y-15596388D01*
X11083253Y-15596388D02*
X11073729Y-15558293D01*
X11073729Y-15558293D02*
X11073729Y-15510674D01*
X11073729Y-15510674D02*
X11083253Y-15472579D01*
X11083253Y-15472579D02*
X11092777Y-15453531D01*
X11092777Y-15453531D02*
X11102301Y-15444008D01*
X11102301Y-15444008D02*
X11121348Y-15434484D01*
X11264206Y-15453531D02*
X11273729Y-15444008D01*
X11273729Y-15444008D02*
X11292777Y-15434484D01*
X11292777Y-15434484D02*
X11340396Y-15434484D01*
X11340396Y-15434484D02*
X11359444Y-15444008D01*
X11359444Y-15444008D02*
X11368967Y-15453531D01*
X11368967Y-15453531D02*
X11378491Y-15472579D01*
X11378491Y-15472579D02*
X11378491Y-15491627D01*
X11378491Y-15491627D02*
X11368967Y-15520198D01*
X11368967Y-15520198D02*
X11254682Y-15634484D01*
X11254682Y-15634484D02*
X11378491Y-15634484D01*
X11473729Y-15634484D02*
X11511825Y-15634484D01*
X11511825Y-15634484D02*
X11530872Y-15624960D01*
X11530872Y-15624960D02*
X11540396Y-15615436D01*
X11540396Y-15615436D02*
X11559444Y-15586865D01*
X11559444Y-15586865D02*
X11568967Y-15548769D01*
X11568967Y-15548769D02*
X11568967Y-15472579D01*
X11568967Y-15472579D02*
X11559444Y-15453531D01*
X11559444Y-15453531D02*
X11549920Y-15444008D01*
X11549920Y-15444008D02*
X11530872Y-15434484D01*
X11530872Y-15434484D02*
X11492777Y-15434484D01*
X11492777Y-15434484D02*
X11473729Y-15444008D01*
X11473729Y-15444008D02*
X11464206Y-15453531D01*
X11464206Y-15453531D02*
X11454682Y-15472579D01*
X11454682Y-15472579D02*
X11454682Y-15520198D01*
X11454682Y-15520198D02*
X11464206Y-15539246D01*
X11464206Y-15539246D02*
X11473729Y-15548769D01*
X11473729Y-15548769D02*
X11492777Y-15558293D01*
X11492777Y-15558293D02*
X11530872Y-15558293D01*
X11530872Y-15558293D02*
X11549920Y-15548769D01*
X11549920Y-15548769D02*
X11559444Y-15539246D01*
X11559444Y-15539246D02*
X11568967Y-15520198D01*
X11749920Y-15434484D02*
X11654682Y-15434484D01*
X11654682Y-15434484D02*
X11645158Y-15529722D01*
X11645158Y-15529722D02*
X11654682Y-15520198D01*
X11654682Y-15520198D02*
X11673729Y-15510674D01*
X11673729Y-15510674D02*
X11721348Y-15510674D01*
X11721348Y-15510674D02*
X11740396Y-15520198D01*
X11740396Y-15520198D02*
X11749920Y-15529722D01*
X11749920Y-15529722D02*
X11759444Y-15548769D01*
X11759444Y-15548769D02*
X11759444Y-15596388D01*
X11759444Y-15596388D02*
X11749920Y-15615436D01*
X11749920Y-15615436D02*
X11740396Y-15624960D01*
X11740396Y-15624960D02*
X11721348Y-15634484D01*
X11721348Y-15634484D02*
X11673729Y-15634484D01*
X11673729Y-15634484D02*
X11654682Y-15624960D01*
X11654682Y-15624960D02*
X11645158Y-15615436D01*
X11835634Y-15434484D02*
X11835634Y-15472579D01*
X11911825Y-15434484D02*
X11911825Y-15472579D01*
X12207063Y-15710674D02*
X12197539Y-15701150D01*
X12197539Y-15701150D02*
X12178491Y-15672579D01*
X12178491Y-15672579D02*
X12168968Y-15653531D01*
X12168968Y-15653531D02*
X12159444Y-15624960D01*
X12159444Y-15624960D02*
X12149920Y-15577341D01*
X12149920Y-15577341D02*
X12149920Y-15539246D01*
X12149920Y-15539246D02*
X12159444Y-15491627D01*
X12159444Y-15491627D02*
X12168968Y-15463055D01*
X12168968Y-15463055D02*
X12178491Y-15444008D01*
X12178491Y-15444008D02*
X12197539Y-15415436D01*
X12197539Y-15415436D02*
X12207063Y-15405912D01*
X12388015Y-15634484D02*
X12273729Y-15634484D01*
X12330872Y-15634484D02*
X12330872Y-15434484D01*
X12330872Y-15434484D02*
X12311825Y-15463055D01*
X12311825Y-15463055D02*
X12292777Y-15482103D01*
X12292777Y-15482103D02*
X12273729Y-15491627D01*
X12464206Y-15453531D02*
X12473729Y-15444008D01*
X12473729Y-15444008D02*
X12492777Y-15434484D01*
X12492777Y-15434484D02*
X12540396Y-15434484D01*
X12540396Y-15434484D02*
X12559444Y-15444008D01*
X12559444Y-15444008D02*
X12568968Y-15453531D01*
X12568968Y-15453531D02*
X12578491Y-15472579D01*
X12578491Y-15472579D02*
X12578491Y-15491627D01*
X12578491Y-15491627D02*
X12568968Y-15520198D01*
X12568968Y-15520198D02*
X12454682Y-15634484D01*
X12454682Y-15634484D02*
X12578491Y-15634484D01*
X12816587Y-15634484D02*
X12816587Y-15434484D01*
X12902301Y-15634484D02*
X12902301Y-15529722D01*
X12902301Y-15529722D02*
X12892777Y-15510674D01*
X12892777Y-15510674D02*
X12873730Y-15501150D01*
X12873730Y-15501150D02*
X12845158Y-15501150D01*
X12845158Y-15501150D02*
X12826110Y-15510674D01*
X12826110Y-15510674D02*
X12816587Y-15520198D01*
X13026110Y-15634484D02*
X13007063Y-15624960D01*
X13007063Y-15624960D02*
X12997539Y-15615436D01*
X12997539Y-15615436D02*
X12988015Y-15596388D01*
X12988015Y-15596388D02*
X12988015Y-15539246D01*
X12988015Y-15539246D02*
X12997539Y-15520198D01*
X12997539Y-15520198D02*
X13007063Y-15510674D01*
X13007063Y-15510674D02*
X13026110Y-15501150D01*
X13026110Y-15501150D02*
X13054682Y-15501150D01*
X13054682Y-15501150D02*
X13073730Y-15510674D01*
X13073730Y-15510674D02*
X13083253Y-15520198D01*
X13083253Y-15520198D02*
X13092777Y-15539246D01*
X13092777Y-15539246D02*
X13092777Y-15596388D01*
X13092777Y-15596388D02*
X13083253Y-15615436D01*
X13083253Y-15615436D02*
X13073730Y-15624960D01*
X13073730Y-15624960D02*
X13054682Y-15634484D01*
X13054682Y-15634484D02*
X13026110Y-15634484D01*
X13207063Y-15634484D02*
X13188015Y-15624960D01*
X13188015Y-15624960D02*
X13178491Y-15605912D01*
X13178491Y-15605912D02*
X13178491Y-15434484D01*
X13359444Y-15624960D02*
X13340396Y-15634484D01*
X13340396Y-15634484D02*
X13302301Y-15634484D01*
X13302301Y-15634484D02*
X13283253Y-15624960D01*
X13283253Y-15624960D02*
X13273730Y-15605912D01*
X13273730Y-15605912D02*
X13273730Y-15529722D01*
X13273730Y-15529722D02*
X13283253Y-15510674D01*
X13283253Y-15510674D02*
X13302301Y-15501150D01*
X13302301Y-15501150D02*
X13340396Y-15501150D01*
X13340396Y-15501150D02*
X13359444Y-15510674D01*
X13359444Y-15510674D02*
X13368968Y-15529722D01*
X13368968Y-15529722D02*
X13368968Y-15548769D01*
X13368968Y-15548769D02*
X13273730Y-15567817D01*
X13445158Y-15624960D02*
X13464206Y-15634484D01*
X13464206Y-15634484D02*
X13502301Y-15634484D01*
X13502301Y-15634484D02*
X13521349Y-15624960D01*
X13521349Y-15624960D02*
X13530872Y-15605912D01*
X13530872Y-15605912D02*
X13530872Y-15596388D01*
X13530872Y-15596388D02*
X13521349Y-15577341D01*
X13521349Y-15577341D02*
X13502301Y-15567817D01*
X13502301Y-15567817D02*
X13473730Y-15567817D01*
X13473730Y-15567817D02*
X13454682Y-15558293D01*
X13454682Y-15558293D02*
X13445158Y-15539246D01*
X13445158Y-15539246D02*
X13445158Y-15529722D01*
X13445158Y-15529722D02*
X13454682Y-15510674D01*
X13454682Y-15510674D02*
X13473730Y-15501150D01*
X13473730Y-15501150D02*
X13502301Y-15501150D01*
X13502301Y-15501150D02*
X13521349Y-15510674D01*
X13597539Y-15710674D02*
X13607063Y-15701150D01*
X13607063Y-15701150D02*
X13626111Y-15672579D01*
X13626111Y-15672579D02*
X13635634Y-15653531D01*
X13635634Y-15653531D02*
X13645158Y-15624960D01*
X13645158Y-15624960D02*
X13654682Y-15577341D01*
X13654682Y-15577341D02*
X13654682Y-15539246D01*
X13654682Y-15539246D02*
X13645158Y-15491627D01*
X13645158Y-15491627D02*
X13635634Y-15463055D01*
X13635634Y-15463055D02*
X13626111Y-15444008D01*
X13626111Y-15444008D02*
X13607063Y-15415436D01*
X13607063Y-15415436D02*
X13597539Y-15405912D01*
D11*
X8582000Y-15857000D02*
X8632000Y-15807000D01*
X8582000Y-15757000D01*
X8532000Y-15807000D01*
X8582000Y-15857000D01*
D10*
X8997539Y-15898484D02*
X8883253Y-15898484D01*
X8940396Y-15898484D02*
X8940396Y-15698484D01*
X8940396Y-15698484D02*
X8921348Y-15727055D01*
X8921348Y-15727055D02*
X8902301Y-15746103D01*
X8902301Y-15746103D02*
X8883253Y-15755627D01*
X9083253Y-15879436D02*
X9092777Y-15888960D01*
X9092777Y-15888960D02*
X9083253Y-15898484D01*
X9083253Y-15898484D02*
X9073729Y-15888960D01*
X9073729Y-15888960D02*
X9083253Y-15879436D01*
X9083253Y-15879436D02*
X9083253Y-15898484D01*
X9216586Y-15698484D02*
X9235634Y-15698484D01*
X9235634Y-15698484D02*
X9254682Y-15708008D01*
X9254682Y-15708008D02*
X9264205Y-15717531D01*
X9264205Y-15717531D02*
X9273729Y-15736579D01*
X9273729Y-15736579D02*
X9283253Y-15774674D01*
X9283253Y-15774674D02*
X9283253Y-15822293D01*
X9283253Y-15822293D02*
X9273729Y-15860388D01*
X9273729Y-15860388D02*
X9264205Y-15879436D01*
X9264205Y-15879436D02*
X9254682Y-15888960D01*
X9254682Y-15888960D02*
X9235634Y-15898484D01*
X9235634Y-15898484D02*
X9216586Y-15898484D01*
X9216586Y-15898484D02*
X9197539Y-15888960D01*
X9197539Y-15888960D02*
X9188015Y-15879436D01*
X9188015Y-15879436D02*
X9178491Y-15860388D01*
X9178491Y-15860388D02*
X9168967Y-15822293D01*
X9168967Y-15822293D02*
X9168967Y-15774674D01*
X9168967Y-15774674D02*
X9178491Y-15736579D01*
X9178491Y-15736579D02*
X9188015Y-15717531D01*
X9188015Y-15717531D02*
X9197539Y-15708008D01*
X9197539Y-15708008D02*
X9216586Y-15698484D01*
X9407063Y-15698484D02*
X9426110Y-15698484D01*
X9426110Y-15698484D02*
X9445158Y-15708008D01*
X9445158Y-15708008D02*
X9454682Y-15717531D01*
X9454682Y-15717531D02*
X9464205Y-15736579D01*
X9464205Y-15736579D02*
X9473729Y-15774674D01*
X9473729Y-15774674D02*
X9473729Y-15822293D01*
X9473729Y-15822293D02*
X9464205Y-15860388D01*
X9464205Y-15860388D02*
X9454682Y-15879436D01*
X9454682Y-15879436D02*
X9445158Y-15888960D01*
X9445158Y-15888960D02*
X9426110Y-15898484D01*
X9426110Y-15898484D02*
X9407063Y-15898484D01*
X9407063Y-15898484D02*
X9388015Y-15888960D01*
X9388015Y-15888960D02*
X9378491Y-15879436D01*
X9378491Y-15879436D02*
X9368967Y-15860388D01*
X9368967Y-15860388D02*
X9359444Y-15822293D01*
X9359444Y-15822293D02*
X9359444Y-15774674D01*
X9359444Y-15774674D02*
X9368967Y-15736579D01*
X9368967Y-15736579D02*
X9378491Y-15717531D01*
X9378491Y-15717531D02*
X9388015Y-15708008D01*
X9388015Y-15708008D02*
X9407063Y-15698484D01*
X9597539Y-15698484D02*
X9616586Y-15698484D01*
X9616586Y-15698484D02*
X9635634Y-15708008D01*
X9635634Y-15708008D02*
X9645158Y-15717531D01*
X9645158Y-15717531D02*
X9654682Y-15736579D01*
X9654682Y-15736579D02*
X9664205Y-15774674D01*
X9664205Y-15774674D02*
X9664205Y-15822293D01*
X9664205Y-15822293D02*
X9654682Y-15860388D01*
X9654682Y-15860388D02*
X9645158Y-15879436D01*
X9645158Y-15879436D02*
X9635634Y-15888960D01*
X9635634Y-15888960D02*
X9616586Y-15898484D01*
X9616586Y-15898484D02*
X9597539Y-15898484D01*
X9597539Y-15898484D02*
X9578491Y-15888960D01*
X9578491Y-15888960D02*
X9568967Y-15879436D01*
X9568967Y-15879436D02*
X9559444Y-15860388D01*
X9559444Y-15860388D02*
X9549920Y-15822293D01*
X9549920Y-15822293D02*
X9549920Y-15774674D01*
X9549920Y-15774674D02*
X9559444Y-15736579D01*
X9559444Y-15736579D02*
X9568967Y-15717531D01*
X9568967Y-15717531D02*
X9578491Y-15708008D01*
X9578491Y-15708008D02*
X9597539Y-15698484D01*
X9749920Y-15898484D02*
X9749920Y-15765150D01*
X9749920Y-15784198D02*
X9759444Y-15774674D01*
X9759444Y-15774674D02*
X9778491Y-15765150D01*
X9778491Y-15765150D02*
X9807063Y-15765150D01*
X9807063Y-15765150D02*
X9826110Y-15774674D01*
X9826110Y-15774674D02*
X9835634Y-15793722D01*
X9835634Y-15793722D02*
X9835634Y-15898484D01*
X9835634Y-15793722D02*
X9845158Y-15774674D01*
X9845158Y-15774674D02*
X9864205Y-15765150D01*
X9864205Y-15765150D02*
X9892777Y-15765150D01*
X9892777Y-15765150D02*
X9911825Y-15774674D01*
X9911825Y-15774674D02*
X9921348Y-15793722D01*
X9921348Y-15793722D02*
X9921348Y-15898484D01*
X10016586Y-15898484D02*
X10016586Y-15765150D01*
X10016586Y-15784198D02*
X10026110Y-15774674D01*
X10026110Y-15774674D02*
X10045158Y-15765150D01*
X10045158Y-15765150D02*
X10073729Y-15765150D01*
X10073729Y-15765150D02*
X10092777Y-15774674D01*
X10092777Y-15774674D02*
X10102301Y-15793722D01*
X10102301Y-15793722D02*
X10102301Y-15898484D01*
X10102301Y-15793722D02*
X10111825Y-15774674D01*
X10111825Y-15774674D02*
X10130872Y-15765150D01*
X10130872Y-15765150D02*
X10159444Y-15765150D01*
X10159444Y-15765150D02*
X10178491Y-15774674D01*
X10178491Y-15774674D02*
X10188015Y-15793722D01*
X10188015Y-15793722D02*
X10188015Y-15898484D01*
X10578491Y-15688960D02*
X10407063Y-15946103D01*
X10835634Y-15698484D02*
X10854682Y-15698484D01*
X10854682Y-15698484D02*
X10873729Y-15708008D01*
X10873729Y-15708008D02*
X10883253Y-15717531D01*
X10883253Y-15717531D02*
X10892777Y-15736579D01*
X10892777Y-15736579D02*
X10902301Y-15774674D01*
X10902301Y-15774674D02*
X10902301Y-15822293D01*
X10902301Y-15822293D02*
X10892777Y-15860388D01*
X10892777Y-15860388D02*
X10883253Y-15879436D01*
X10883253Y-15879436D02*
X10873729Y-15888960D01*
X10873729Y-15888960D02*
X10854682Y-15898484D01*
X10854682Y-15898484D02*
X10835634Y-15898484D01*
X10835634Y-15898484D02*
X10816587Y-15888960D01*
X10816587Y-15888960D02*
X10807063Y-15879436D01*
X10807063Y-15879436D02*
X10797539Y-15860388D01*
X10797539Y-15860388D02*
X10788015Y-15822293D01*
X10788015Y-15822293D02*
X10788015Y-15774674D01*
X10788015Y-15774674D02*
X10797539Y-15736579D01*
X10797539Y-15736579D02*
X10807063Y-15717531D01*
X10807063Y-15717531D02*
X10816587Y-15708008D01*
X10816587Y-15708008D02*
X10835634Y-15698484D01*
X10988015Y-15879436D02*
X10997539Y-15888960D01*
X10997539Y-15888960D02*
X10988015Y-15898484D01*
X10988015Y-15898484D02*
X10978491Y-15888960D01*
X10978491Y-15888960D02*
X10988015Y-15879436D01*
X10988015Y-15879436D02*
X10988015Y-15898484D01*
X11121348Y-15698484D02*
X11140396Y-15698484D01*
X11140396Y-15698484D02*
X11159444Y-15708008D01*
X11159444Y-15708008D02*
X11168968Y-15717531D01*
X11168968Y-15717531D02*
X11178491Y-15736579D01*
X11178491Y-15736579D02*
X11188015Y-15774674D01*
X11188015Y-15774674D02*
X11188015Y-15822293D01*
X11188015Y-15822293D02*
X11178491Y-15860388D01*
X11178491Y-15860388D02*
X11168968Y-15879436D01*
X11168968Y-15879436D02*
X11159444Y-15888960D01*
X11159444Y-15888960D02*
X11140396Y-15898484D01*
X11140396Y-15898484D02*
X11121348Y-15898484D01*
X11121348Y-15898484D02*
X11102301Y-15888960D01*
X11102301Y-15888960D02*
X11092777Y-15879436D01*
X11092777Y-15879436D02*
X11083253Y-15860388D01*
X11083253Y-15860388D02*
X11073729Y-15822293D01*
X11073729Y-15822293D02*
X11073729Y-15774674D01*
X11073729Y-15774674D02*
X11083253Y-15736579D01*
X11083253Y-15736579D02*
X11092777Y-15717531D01*
X11092777Y-15717531D02*
X11102301Y-15708008D01*
X11102301Y-15708008D02*
X11121348Y-15698484D01*
X11254682Y-15698484D02*
X11378491Y-15698484D01*
X11378491Y-15698484D02*
X11311825Y-15774674D01*
X11311825Y-15774674D02*
X11340396Y-15774674D01*
X11340396Y-15774674D02*
X11359444Y-15784198D01*
X11359444Y-15784198D02*
X11368967Y-15793722D01*
X11368967Y-15793722D02*
X11378491Y-15812769D01*
X11378491Y-15812769D02*
X11378491Y-15860388D01*
X11378491Y-15860388D02*
X11368967Y-15879436D01*
X11368967Y-15879436D02*
X11359444Y-15888960D01*
X11359444Y-15888960D02*
X11340396Y-15898484D01*
X11340396Y-15898484D02*
X11283253Y-15898484D01*
X11283253Y-15898484D02*
X11264206Y-15888960D01*
X11264206Y-15888960D02*
X11254682Y-15879436D01*
X11473729Y-15898484D02*
X11511825Y-15898484D01*
X11511825Y-15898484D02*
X11530872Y-15888960D01*
X11530872Y-15888960D02*
X11540396Y-15879436D01*
X11540396Y-15879436D02*
X11559444Y-15850865D01*
X11559444Y-15850865D02*
X11568967Y-15812769D01*
X11568967Y-15812769D02*
X11568967Y-15736579D01*
X11568967Y-15736579D02*
X11559444Y-15717531D01*
X11559444Y-15717531D02*
X11549920Y-15708008D01*
X11549920Y-15708008D02*
X11530872Y-15698484D01*
X11530872Y-15698484D02*
X11492777Y-15698484D01*
X11492777Y-15698484D02*
X11473729Y-15708008D01*
X11473729Y-15708008D02*
X11464206Y-15717531D01*
X11464206Y-15717531D02*
X11454682Y-15736579D01*
X11454682Y-15736579D02*
X11454682Y-15784198D01*
X11454682Y-15784198D02*
X11464206Y-15803246D01*
X11464206Y-15803246D02*
X11473729Y-15812769D01*
X11473729Y-15812769D02*
X11492777Y-15822293D01*
X11492777Y-15822293D02*
X11530872Y-15822293D01*
X11530872Y-15822293D02*
X11549920Y-15812769D01*
X11549920Y-15812769D02*
X11559444Y-15803246D01*
X11559444Y-15803246D02*
X11568967Y-15784198D01*
X11740396Y-15765150D02*
X11740396Y-15898484D01*
X11692777Y-15688960D02*
X11645158Y-15831817D01*
X11645158Y-15831817D02*
X11768967Y-15831817D01*
X11835634Y-15698484D02*
X11835634Y-15736579D01*
X11911825Y-15698484D02*
X11911825Y-15736579D01*
X12207063Y-15974674D02*
X12197539Y-15965150D01*
X12197539Y-15965150D02*
X12178491Y-15936579D01*
X12178491Y-15936579D02*
X12168968Y-15917531D01*
X12168968Y-15917531D02*
X12159444Y-15888960D01*
X12159444Y-15888960D02*
X12149920Y-15841341D01*
X12149920Y-15841341D02*
X12149920Y-15803246D01*
X12149920Y-15803246D02*
X12159444Y-15755627D01*
X12159444Y-15755627D02*
X12168968Y-15727055D01*
X12168968Y-15727055D02*
X12178491Y-15708008D01*
X12178491Y-15708008D02*
X12197539Y-15679436D01*
X12197539Y-15679436D02*
X12207063Y-15669912D01*
X12273729Y-15717531D02*
X12283253Y-15708008D01*
X12283253Y-15708008D02*
X12302301Y-15698484D01*
X12302301Y-15698484D02*
X12349920Y-15698484D01*
X12349920Y-15698484D02*
X12368968Y-15708008D01*
X12368968Y-15708008D02*
X12378491Y-15717531D01*
X12378491Y-15717531D02*
X12388015Y-15736579D01*
X12388015Y-15736579D02*
X12388015Y-15755627D01*
X12388015Y-15755627D02*
X12378491Y-15784198D01*
X12378491Y-15784198D02*
X12264206Y-15898484D01*
X12264206Y-15898484D02*
X12388015Y-15898484D01*
X12559444Y-15765150D02*
X12559444Y-15898484D01*
X12511825Y-15688960D02*
X12464206Y-15831817D01*
X12464206Y-15831817D02*
X12588015Y-15831817D01*
X12816587Y-15898484D02*
X12816587Y-15698484D01*
X12902301Y-15898484D02*
X12902301Y-15793722D01*
X12902301Y-15793722D02*
X12892777Y-15774674D01*
X12892777Y-15774674D02*
X12873730Y-15765150D01*
X12873730Y-15765150D02*
X12845158Y-15765150D01*
X12845158Y-15765150D02*
X12826110Y-15774674D01*
X12826110Y-15774674D02*
X12816587Y-15784198D01*
X13026110Y-15898484D02*
X13007063Y-15888960D01*
X13007063Y-15888960D02*
X12997539Y-15879436D01*
X12997539Y-15879436D02*
X12988015Y-15860388D01*
X12988015Y-15860388D02*
X12988015Y-15803246D01*
X12988015Y-15803246D02*
X12997539Y-15784198D01*
X12997539Y-15784198D02*
X13007063Y-15774674D01*
X13007063Y-15774674D02*
X13026110Y-15765150D01*
X13026110Y-15765150D02*
X13054682Y-15765150D01*
X13054682Y-15765150D02*
X13073730Y-15774674D01*
X13073730Y-15774674D02*
X13083253Y-15784198D01*
X13083253Y-15784198D02*
X13092777Y-15803246D01*
X13092777Y-15803246D02*
X13092777Y-15860388D01*
X13092777Y-15860388D02*
X13083253Y-15879436D01*
X13083253Y-15879436D02*
X13073730Y-15888960D01*
X13073730Y-15888960D02*
X13054682Y-15898484D01*
X13054682Y-15898484D02*
X13026110Y-15898484D01*
X13207063Y-15898484D02*
X13188015Y-15888960D01*
X13188015Y-15888960D02*
X13178491Y-15869912D01*
X13178491Y-15869912D02*
X13178491Y-15698484D01*
X13359444Y-15888960D02*
X13340396Y-15898484D01*
X13340396Y-15898484D02*
X13302301Y-15898484D01*
X13302301Y-15898484D02*
X13283253Y-15888960D01*
X13283253Y-15888960D02*
X13273730Y-15869912D01*
X13273730Y-15869912D02*
X13273730Y-15793722D01*
X13273730Y-15793722D02*
X13283253Y-15774674D01*
X13283253Y-15774674D02*
X13302301Y-15765150D01*
X13302301Y-15765150D02*
X13340396Y-15765150D01*
X13340396Y-15765150D02*
X13359444Y-15774674D01*
X13359444Y-15774674D02*
X13368968Y-15793722D01*
X13368968Y-15793722D02*
X13368968Y-15812769D01*
X13368968Y-15812769D02*
X13273730Y-15831817D01*
X13445158Y-15888960D02*
X13464206Y-15898484D01*
X13464206Y-15898484D02*
X13502301Y-15898484D01*
X13502301Y-15898484D02*
X13521349Y-15888960D01*
X13521349Y-15888960D02*
X13530872Y-15869912D01*
X13530872Y-15869912D02*
X13530872Y-15860388D01*
X13530872Y-15860388D02*
X13521349Y-15841341D01*
X13521349Y-15841341D02*
X13502301Y-15831817D01*
X13502301Y-15831817D02*
X13473730Y-15831817D01*
X13473730Y-15831817D02*
X13454682Y-15822293D01*
X13454682Y-15822293D02*
X13445158Y-15803246D01*
X13445158Y-15803246D02*
X13445158Y-15793722D01*
X13445158Y-15793722D02*
X13454682Y-15774674D01*
X13454682Y-15774674D02*
X13473730Y-15765150D01*
X13473730Y-15765150D02*
X13502301Y-15765150D01*
X13502301Y-15765150D02*
X13521349Y-15774674D01*
X13597539Y-15974674D02*
X13607063Y-15965150D01*
X13607063Y-15965150D02*
X13626111Y-15936579D01*
X13626111Y-15936579D02*
X13635634Y-15917531D01*
X13635634Y-15917531D02*
X13645158Y-15888960D01*
X13645158Y-15888960D02*
X13654682Y-15841341D01*
X13654682Y-15841341D02*
X13654682Y-15803246D01*
X13654682Y-15803246D02*
X13645158Y-15755627D01*
X13645158Y-15755627D02*
X13635634Y-15727055D01*
X13635634Y-15727055D02*
X13626111Y-15708008D01*
X13626111Y-15708008D02*
X13607063Y-15679436D01*
X13607063Y-15679436D02*
X13597539Y-15669912D01*
D12*
X8447000Y-15978500D02*
X8632000Y-16163500D01*
X8632000Y-15978500D02*
X8447000Y-16163500D01*
X8632000Y-16071000D02*
G75*
G03*
X8447000Y-16071000I-92500J0D01*
G01*
X8447000Y-16071000D02*
G75*
G03*
X8632000Y-16071000I92500J0D01*
G01*
D10*
X8997539Y-16162484D02*
X8883253Y-16162484D01*
X8940396Y-16162484D02*
X8940396Y-15962484D01*
X8940396Y-15962484D02*
X8921348Y-15991055D01*
X8921348Y-15991055D02*
X8902301Y-16010103D01*
X8902301Y-16010103D02*
X8883253Y-16019627D01*
X9083253Y-16143436D02*
X9092777Y-16152960D01*
X9092777Y-16152960D02*
X9083253Y-16162484D01*
X9083253Y-16162484D02*
X9073729Y-16152960D01*
X9073729Y-16152960D02*
X9083253Y-16143436D01*
X9083253Y-16143436D02*
X9083253Y-16162484D01*
X9207063Y-16048198D02*
X9188015Y-16038674D01*
X9188015Y-16038674D02*
X9178491Y-16029150D01*
X9178491Y-16029150D02*
X9168967Y-16010103D01*
X9168967Y-16010103D02*
X9168967Y-16000579D01*
X9168967Y-16000579D02*
X9178491Y-15981531D01*
X9178491Y-15981531D02*
X9188015Y-15972008D01*
X9188015Y-15972008D02*
X9207063Y-15962484D01*
X9207063Y-15962484D02*
X9245158Y-15962484D01*
X9245158Y-15962484D02*
X9264205Y-15972008D01*
X9264205Y-15972008D02*
X9273729Y-15981531D01*
X9273729Y-15981531D02*
X9283253Y-16000579D01*
X9283253Y-16000579D02*
X9283253Y-16010103D01*
X9283253Y-16010103D02*
X9273729Y-16029150D01*
X9273729Y-16029150D02*
X9264205Y-16038674D01*
X9264205Y-16038674D02*
X9245158Y-16048198D01*
X9245158Y-16048198D02*
X9207063Y-16048198D01*
X9207063Y-16048198D02*
X9188015Y-16057722D01*
X9188015Y-16057722D02*
X9178491Y-16067246D01*
X9178491Y-16067246D02*
X9168967Y-16086293D01*
X9168967Y-16086293D02*
X9168967Y-16124388D01*
X9168967Y-16124388D02*
X9178491Y-16143436D01*
X9178491Y-16143436D02*
X9188015Y-16152960D01*
X9188015Y-16152960D02*
X9207063Y-16162484D01*
X9207063Y-16162484D02*
X9245158Y-16162484D01*
X9245158Y-16162484D02*
X9264205Y-16152960D01*
X9264205Y-16152960D02*
X9273729Y-16143436D01*
X9273729Y-16143436D02*
X9283253Y-16124388D01*
X9283253Y-16124388D02*
X9283253Y-16086293D01*
X9283253Y-16086293D02*
X9273729Y-16067246D01*
X9273729Y-16067246D02*
X9264205Y-16057722D01*
X9264205Y-16057722D02*
X9245158Y-16048198D01*
X9464205Y-15962484D02*
X9368967Y-15962484D01*
X9368967Y-15962484D02*
X9359444Y-16057722D01*
X9359444Y-16057722D02*
X9368967Y-16048198D01*
X9368967Y-16048198D02*
X9388015Y-16038674D01*
X9388015Y-16038674D02*
X9435634Y-16038674D01*
X9435634Y-16038674D02*
X9454682Y-16048198D01*
X9454682Y-16048198D02*
X9464205Y-16057722D01*
X9464205Y-16057722D02*
X9473729Y-16076769D01*
X9473729Y-16076769D02*
X9473729Y-16124388D01*
X9473729Y-16124388D02*
X9464205Y-16143436D01*
X9464205Y-16143436D02*
X9454682Y-16152960D01*
X9454682Y-16152960D02*
X9435634Y-16162484D01*
X9435634Y-16162484D02*
X9388015Y-16162484D01*
X9388015Y-16162484D02*
X9368967Y-16152960D01*
X9368967Y-16152960D02*
X9359444Y-16143436D01*
X9597539Y-15962484D02*
X9616586Y-15962484D01*
X9616586Y-15962484D02*
X9635634Y-15972008D01*
X9635634Y-15972008D02*
X9645158Y-15981531D01*
X9645158Y-15981531D02*
X9654682Y-16000579D01*
X9654682Y-16000579D02*
X9664205Y-16038674D01*
X9664205Y-16038674D02*
X9664205Y-16086293D01*
X9664205Y-16086293D02*
X9654682Y-16124388D01*
X9654682Y-16124388D02*
X9645158Y-16143436D01*
X9645158Y-16143436D02*
X9635634Y-16152960D01*
X9635634Y-16152960D02*
X9616586Y-16162484D01*
X9616586Y-16162484D02*
X9597539Y-16162484D01*
X9597539Y-16162484D02*
X9578491Y-16152960D01*
X9578491Y-16152960D02*
X9568967Y-16143436D01*
X9568967Y-16143436D02*
X9559444Y-16124388D01*
X9559444Y-16124388D02*
X9549920Y-16086293D01*
X9549920Y-16086293D02*
X9549920Y-16038674D01*
X9549920Y-16038674D02*
X9559444Y-16000579D01*
X9559444Y-16000579D02*
X9568967Y-15981531D01*
X9568967Y-15981531D02*
X9578491Y-15972008D01*
X9578491Y-15972008D02*
X9597539Y-15962484D01*
X9749920Y-16162484D02*
X9749920Y-16029150D01*
X9749920Y-16048198D02*
X9759444Y-16038674D01*
X9759444Y-16038674D02*
X9778491Y-16029150D01*
X9778491Y-16029150D02*
X9807063Y-16029150D01*
X9807063Y-16029150D02*
X9826110Y-16038674D01*
X9826110Y-16038674D02*
X9835634Y-16057722D01*
X9835634Y-16057722D02*
X9835634Y-16162484D01*
X9835634Y-16057722D02*
X9845158Y-16038674D01*
X9845158Y-16038674D02*
X9864205Y-16029150D01*
X9864205Y-16029150D02*
X9892777Y-16029150D01*
X9892777Y-16029150D02*
X9911825Y-16038674D01*
X9911825Y-16038674D02*
X9921348Y-16057722D01*
X9921348Y-16057722D02*
X9921348Y-16162484D01*
X10016586Y-16162484D02*
X10016586Y-16029150D01*
X10016586Y-16048198D02*
X10026110Y-16038674D01*
X10026110Y-16038674D02*
X10045158Y-16029150D01*
X10045158Y-16029150D02*
X10073729Y-16029150D01*
X10073729Y-16029150D02*
X10092777Y-16038674D01*
X10092777Y-16038674D02*
X10102301Y-16057722D01*
X10102301Y-16057722D02*
X10102301Y-16162484D01*
X10102301Y-16057722D02*
X10111825Y-16038674D01*
X10111825Y-16038674D02*
X10130872Y-16029150D01*
X10130872Y-16029150D02*
X10159444Y-16029150D01*
X10159444Y-16029150D02*
X10178491Y-16038674D01*
X10178491Y-16038674D02*
X10188015Y-16057722D01*
X10188015Y-16057722D02*
X10188015Y-16162484D01*
X10578491Y-15952960D02*
X10407063Y-16210103D01*
X10835634Y-15962484D02*
X10854682Y-15962484D01*
X10854682Y-15962484D02*
X10873729Y-15972008D01*
X10873729Y-15972008D02*
X10883253Y-15981531D01*
X10883253Y-15981531D02*
X10892777Y-16000579D01*
X10892777Y-16000579D02*
X10902301Y-16038674D01*
X10902301Y-16038674D02*
X10902301Y-16086293D01*
X10902301Y-16086293D02*
X10892777Y-16124388D01*
X10892777Y-16124388D02*
X10883253Y-16143436D01*
X10883253Y-16143436D02*
X10873729Y-16152960D01*
X10873729Y-16152960D02*
X10854682Y-16162484D01*
X10854682Y-16162484D02*
X10835634Y-16162484D01*
X10835634Y-16162484D02*
X10816587Y-16152960D01*
X10816587Y-16152960D02*
X10807063Y-16143436D01*
X10807063Y-16143436D02*
X10797539Y-16124388D01*
X10797539Y-16124388D02*
X10788015Y-16086293D01*
X10788015Y-16086293D02*
X10788015Y-16038674D01*
X10788015Y-16038674D02*
X10797539Y-16000579D01*
X10797539Y-16000579D02*
X10807063Y-15981531D01*
X10807063Y-15981531D02*
X10816587Y-15972008D01*
X10816587Y-15972008D02*
X10835634Y-15962484D01*
X10988015Y-16143436D02*
X10997539Y-16152960D01*
X10997539Y-16152960D02*
X10988015Y-16162484D01*
X10988015Y-16162484D02*
X10978491Y-16152960D01*
X10978491Y-16152960D02*
X10988015Y-16143436D01*
X10988015Y-16143436D02*
X10988015Y-16162484D01*
X11121348Y-15962484D02*
X11140396Y-15962484D01*
X11140396Y-15962484D02*
X11159444Y-15972008D01*
X11159444Y-15972008D02*
X11168968Y-15981531D01*
X11168968Y-15981531D02*
X11178491Y-16000579D01*
X11178491Y-16000579D02*
X11188015Y-16038674D01*
X11188015Y-16038674D02*
X11188015Y-16086293D01*
X11188015Y-16086293D02*
X11178491Y-16124388D01*
X11178491Y-16124388D02*
X11168968Y-16143436D01*
X11168968Y-16143436D02*
X11159444Y-16152960D01*
X11159444Y-16152960D02*
X11140396Y-16162484D01*
X11140396Y-16162484D02*
X11121348Y-16162484D01*
X11121348Y-16162484D02*
X11102301Y-16152960D01*
X11102301Y-16152960D02*
X11092777Y-16143436D01*
X11092777Y-16143436D02*
X11083253Y-16124388D01*
X11083253Y-16124388D02*
X11073729Y-16086293D01*
X11073729Y-16086293D02*
X11073729Y-16038674D01*
X11073729Y-16038674D02*
X11083253Y-16000579D01*
X11083253Y-16000579D02*
X11092777Y-15981531D01*
X11092777Y-15981531D02*
X11102301Y-15972008D01*
X11102301Y-15972008D02*
X11121348Y-15962484D01*
X11254682Y-15962484D02*
X11388015Y-15962484D01*
X11388015Y-15962484D02*
X11302301Y-16162484D01*
X11454682Y-15981531D02*
X11464206Y-15972008D01*
X11464206Y-15972008D02*
X11483253Y-15962484D01*
X11483253Y-15962484D02*
X11530872Y-15962484D01*
X11530872Y-15962484D02*
X11549920Y-15972008D01*
X11549920Y-15972008D02*
X11559444Y-15981531D01*
X11559444Y-15981531D02*
X11568967Y-16000579D01*
X11568967Y-16000579D02*
X11568967Y-16019627D01*
X11568967Y-16019627D02*
X11559444Y-16048198D01*
X11559444Y-16048198D02*
X11445158Y-16162484D01*
X11445158Y-16162484D02*
X11568967Y-16162484D01*
X11683253Y-16048198D02*
X11664206Y-16038674D01*
X11664206Y-16038674D02*
X11654682Y-16029150D01*
X11654682Y-16029150D02*
X11645158Y-16010103D01*
X11645158Y-16010103D02*
X11645158Y-16000579D01*
X11645158Y-16000579D02*
X11654682Y-15981531D01*
X11654682Y-15981531D02*
X11664206Y-15972008D01*
X11664206Y-15972008D02*
X11683253Y-15962484D01*
X11683253Y-15962484D02*
X11721348Y-15962484D01*
X11721348Y-15962484D02*
X11740396Y-15972008D01*
X11740396Y-15972008D02*
X11749920Y-15981531D01*
X11749920Y-15981531D02*
X11759444Y-16000579D01*
X11759444Y-16000579D02*
X11759444Y-16010103D01*
X11759444Y-16010103D02*
X11749920Y-16029150D01*
X11749920Y-16029150D02*
X11740396Y-16038674D01*
X11740396Y-16038674D02*
X11721348Y-16048198D01*
X11721348Y-16048198D02*
X11683253Y-16048198D01*
X11683253Y-16048198D02*
X11664206Y-16057722D01*
X11664206Y-16057722D02*
X11654682Y-16067246D01*
X11654682Y-16067246D02*
X11645158Y-16086293D01*
X11645158Y-16086293D02*
X11645158Y-16124388D01*
X11645158Y-16124388D02*
X11654682Y-16143436D01*
X11654682Y-16143436D02*
X11664206Y-16152960D01*
X11664206Y-16152960D02*
X11683253Y-16162484D01*
X11683253Y-16162484D02*
X11721348Y-16162484D01*
X11721348Y-16162484D02*
X11740396Y-16152960D01*
X11740396Y-16152960D02*
X11749920Y-16143436D01*
X11749920Y-16143436D02*
X11759444Y-16124388D01*
X11759444Y-16124388D02*
X11759444Y-16086293D01*
X11759444Y-16086293D02*
X11749920Y-16067246D01*
X11749920Y-16067246D02*
X11740396Y-16057722D01*
X11740396Y-16057722D02*
X11721348Y-16048198D01*
X11835634Y-15962484D02*
X11835634Y-16000579D01*
X11911825Y-15962484D02*
X11911825Y-16000579D01*
X12207063Y-16238674D02*
X12197539Y-16229150D01*
X12197539Y-16229150D02*
X12178491Y-16200579D01*
X12178491Y-16200579D02*
X12168968Y-16181531D01*
X12168968Y-16181531D02*
X12159444Y-16152960D01*
X12159444Y-16152960D02*
X12149920Y-16105341D01*
X12149920Y-16105341D02*
X12149920Y-16067246D01*
X12149920Y-16067246D02*
X12159444Y-16019627D01*
X12159444Y-16019627D02*
X12168968Y-15991055D01*
X12168968Y-15991055D02*
X12178491Y-15972008D01*
X12178491Y-15972008D02*
X12197539Y-15943436D01*
X12197539Y-15943436D02*
X12207063Y-15933912D01*
X12368968Y-16029150D02*
X12368968Y-16162484D01*
X12321348Y-15952960D02*
X12273729Y-16095817D01*
X12273729Y-16095817D02*
X12397539Y-16095817D01*
X12626110Y-16162484D02*
X12626110Y-15962484D01*
X12711825Y-16162484D02*
X12711825Y-16057722D01*
X12711825Y-16057722D02*
X12702301Y-16038674D01*
X12702301Y-16038674D02*
X12683253Y-16029150D01*
X12683253Y-16029150D02*
X12654682Y-16029150D01*
X12654682Y-16029150D02*
X12635634Y-16038674D01*
X12635634Y-16038674D02*
X12626110Y-16048198D01*
X12835634Y-16162484D02*
X12816587Y-16152960D01*
X12816587Y-16152960D02*
X12807063Y-16143436D01*
X12807063Y-16143436D02*
X12797539Y-16124388D01*
X12797539Y-16124388D02*
X12797539Y-16067246D01*
X12797539Y-16067246D02*
X12807063Y-16048198D01*
X12807063Y-16048198D02*
X12816587Y-16038674D01*
X12816587Y-16038674D02*
X12835634Y-16029150D01*
X12835634Y-16029150D02*
X12864206Y-16029150D01*
X12864206Y-16029150D02*
X12883253Y-16038674D01*
X12883253Y-16038674D02*
X12892777Y-16048198D01*
X12892777Y-16048198D02*
X12902301Y-16067246D01*
X12902301Y-16067246D02*
X12902301Y-16124388D01*
X12902301Y-16124388D02*
X12892777Y-16143436D01*
X12892777Y-16143436D02*
X12883253Y-16152960D01*
X12883253Y-16152960D02*
X12864206Y-16162484D01*
X12864206Y-16162484D02*
X12835634Y-16162484D01*
X13016587Y-16162484D02*
X12997539Y-16152960D01*
X12997539Y-16152960D02*
X12988015Y-16133912D01*
X12988015Y-16133912D02*
X12988015Y-15962484D01*
X13168968Y-16152960D02*
X13149920Y-16162484D01*
X13149920Y-16162484D02*
X13111825Y-16162484D01*
X13111825Y-16162484D02*
X13092777Y-16152960D01*
X13092777Y-16152960D02*
X13083253Y-16133912D01*
X13083253Y-16133912D02*
X13083253Y-16057722D01*
X13083253Y-16057722D02*
X13092777Y-16038674D01*
X13092777Y-16038674D02*
X13111825Y-16029150D01*
X13111825Y-16029150D02*
X13149920Y-16029150D01*
X13149920Y-16029150D02*
X13168968Y-16038674D01*
X13168968Y-16038674D02*
X13178491Y-16057722D01*
X13178491Y-16057722D02*
X13178491Y-16076769D01*
X13178491Y-16076769D02*
X13083253Y-16095817D01*
X13254682Y-16152960D02*
X13273730Y-16162484D01*
X13273730Y-16162484D02*
X13311825Y-16162484D01*
X13311825Y-16162484D02*
X13330872Y-16152960D01*
X13330872Y-16152960D02*
X13340396Y-16133912D01*
X13340396Y-16133912D02*
X13340396Y-16124388D01*
X13340396Y-16124388D02*
X13330872Y-16105341D01*
X13330872Y-16105341D02*
X13311825Y-16095817D01*
X13311825Y-16095817D02*
X13283253Y-16095817D01*
X13283253Y-16095817D02*
X13264206Y-16086293D01*
X13264206Y-16086293D02*
X13254682Y-16067246D01*
X13254682Y-16067246D02*
X13254682Y-16057722D01*
X13254682Y-16057722D02*
X13264206Y-16038674D01*
X13264206Y-16038674D02*
X13283253Y-16029150D01*
X13283253Y-16029150D02*
X13311825Y-16029150D01*
X13311825Y-16029150D02*
X13330872Y-16038674D01*
X13407063Y-16238674D02*
X13416587Y-16229150D01*
X13416587Y-16229150D02*
X13435634Y-16200579D01*
X13435634Y-16200579D02*
X13445158Y-16181531D01*
X13445158Y-16181531D02*
X13454682Y-16152960D01*
X13454682Y-16152960D02*
X13464206Y-16105341D01*
X13464206Y-16105341D02*
X13464206Y-16067246D01*
X13464206Y-16067246D02*
X13454682Y-16019627D01*
X13454682Y-16019627D02*
X13445158Y-15991055D01*
X13445158Y-15991055D02*
X13435634Y-15972008D01*
X13435634Y-15972008D02*
X13416587Y-15943436D01*
X13416587Y-15943436D02*
X13407063Y-15933912D01*
M02*
