M48
; DRILL file {KiCad 7.0.11-7.0.11~ubuntu22.04.1} date Fri 28 Jun 2024 09:44:55 PM PDT
; FORMAT={-:-/ absolute / inch / decimal}
; #@! TF.CreationDate,2024-06-28T21:44:55-07:00
; #@! TF.GenerationSoftware,Kicad,Pcbnew,7.0.11-7.0.11~ubuntu22.04.1
; #@! TF.FileFunction,Plated,1,2,PTH
FMAT,2
INCH
; #@! TA.AperFunction,Plated,PTH,ComponentDrill
T1C0.0079
; #@! TA.AperFunction,Plated,PTH,ComponentDrill
T2C0.0098
; #@! TA.AperFunction,Plated,PTH,ViaDrill
T3C0.0157
; #@! TA.AperFunction,Plated,PTH,ComponentDrill
T4C0.0236
; #@! TA.AperFunction,Plated,PTH,ComponentDrill
T5C0.0300
; #@! TA.AperFunction,Plated,PTH,ComponentDrill
T6C0.0394
; #@! TA.AperFunction,Plated,PTH,ComponentDrill
T7C0.0728
; #@! TA.AperFunction,Plated,PTH,ComponentDrill
T8C0.0945
%
G90
G05
T1
X4.1982Y-4.7853
X4.1982Y-4.8317
X4.2447Y-4.7853
X4.2447Y-4.8317
T2
X5.2449Y-5.3394
X5.2843Y-5.3394
X5.4961Y-2.8874
X5.4961Y-2.9268
T3
X3.798Y-3.5118
X3.985Y-4.8437
X4.1083Y-3.8598
X4.1693Y-5.1417
X4.213Y-4.5492
X4.2283Y-4.9157
X4.2457Y-4.6713
X4.2783Y-4.913
X4.315Y-4.8425
X4.3496Y-4.7913
X4.3736Y-3.6382
X4.3906Y-2.9567
X4.4909Y-5.3811
X4.5371Y-4.602
X4.5533Y-5.0477
X4.6315Y-5.237
X4.6484Y-4.2846
X4.6646Y-4.9929
X4.6772Y-4.765
X4.728Y-4.9829
X4.7343Y-5.0673
X5.0311Y-5.4382
X5.1106Y-4.9311
X5.1236Y-3.8063
X5.1875Y-5.4395
X5.3413Y-2.6839
X5.3601Y-5.1416
X5.3831Y-5.4339
X5.3854Y-5.3767
X5.3969Y-5.1228
X5.3976Y-2.8091
X5.4524Y-5.1563
X5.4555Y-5.2469
X5.4579Y-2.9815
X5.5665Y-2.8677
X5.7197Y-5.4346
X5.7531Y-2.7445
X5.781Y-5.3285
X5.9228Y-4.7366
X5.9305Y-5.5076
X6.2256Y-5.5055
X6.337Y-5.3575
X6.4065Y-5.3717
X6.4902Y-5.3508
X6.5443Y-5.4921
X6.5837Y-5.4543
X6.6161Y-5.3724
X6.622Y-2.9854
X6.6743Y-2.5926
X6.6958Y-2.9467
X6.7169Y-2.7169
X6.7297Y-2.6421
X6.7346Y-2.9311
X6.735Y-2.8524
X6.7538Y-2.7678
X6.7665Y-2.8228
X6.7668Y-2.8832
X6.7744Y-2.5484
X6.7987Y-2.8024
X6.8031Y-2.9228
X6.8327Y-4.8563
X6.9406Y-3.0587
X6.9524Y-2.5681
X7.1772Y-3.3374
X7.1946Y-3.4161
X7.365Y-4.3504
X7.3764Y-2.8776
X7.3835Y-4.1319
X7.4388Y-4.1037
X7.4441Y-3.7303
X7.4615Y-3.6703
X7.4641Y-4.071
X7.491Y-3.4698
X7.494Y-4.0425
X7.5025Y-3.6648
X7.5076Y-3.2747
X7.5189Y-3.7234
X7.52Y-4.0103
X7.5258Y-4.4415
X7.5335Y-4.3402
X7.5576Y-3.4656
X7.5607Y-3.6839
X7.5835Y-3.5614
X7.5901Y-4.2945
X7.6537Y-4.1535
X7.6689Y-3.7256
X7.685Y-4.0591
X7.6858Y-4.1079
X7.688Y-3.6767
X7.6882Y-4.2949
X7.7293Y-3.679
X7.7315Y-5.172
X7.7332Y-3.7563
X7.7374Y-3.2248
X7.7412Y-3.5627
X7.753Y-3.3443
X7.7735Y-3.7155
X7.7961Y-4.1031
X7.8041Y-3.6809
X7.8108Y-4.1418
X7.8283Y-2.6354
X7.8317Y-3.4057
X7.8317Y-3.4057
X7.8516Y-4.1488
X7.9031Y-4.0795
X7.9087Y-3.7121
X7.9154Y-4.1413
X7.9323Y-3.5465
X7.9758Y-3.7509
X7.9769Y-3.5509
X8.0224Y-3.3425
X8.0465Y-3.5594
X8.0689Y-4.0984
X8.0705Y-4.35
X8.0717Y-3.7197
X8.1102Y-3.5508
X8.1512Y-4.4744
X8.1661Y-3.4524
T5
X7.8921Y-4.3677
X7.8921Y-4.5449
X7.8961Y-3.302
X7.8961Y-3.4791
X7.9709Y-4.3677
X7.9709Y-4.5449
X7.9748Y-3.302
X7.9748Y-3.4791
T6
X5.2516Y-2.7492
X5.2567Y-2.4602
X5.2567Y-2.5602
X5.274Y-5.2047
X5.3516Y-2.7492
X5.3567Y-2.4602
X5.3567Y-2.5602
X5.374Y-5.2047
X5.4567Y-2.4602
X5.4567Y-2.5602
X5.5567Y-2.4602
X5.5567Y-2.5602
X5.6567Y-2.4602
X5.6567Y-2.5602
X5.7567Y-2.4602
X5.7567Y-2.5602
X5.8567Y-2.4602
X5.8567Y-2.5602
X5.9567Y-2.4602
X5.9567Y-2.5602
X6.0567Y-2.4602
X6.0567Y-2.5602
X6.1567Y-2.4602
X6.1567Y-2.5602
X6.2567Y-2.4602
X6.2567Y-2.5602
X6.3567Y-2.4602
X6.3567Y-2.5602
T7
X4.8661Y-2.5039
X4.8661Y-3.1343
X4.8661Y-4.7402
X4.8661Y-5.3705
T8
X7.8811Y-3.9173
T4
X5.5465Y-5.2577G85X5.5465Y-5.301
G05
X5.5465Y-5.4281G85X5.5465Y-5.4596
G05
X5.8866Y-5.2577G85X5.8866Y-5.301
G05
X5.8866Y-5.4281G85X5.8866Y-5.4596
G05
M30
