%TF.GenerationSoftware,KiCad,Pcbnew,7.0.10-7.0.10~ubuntu22.04.1*%
%TF.CreationDate,2024-04-26T13:08:28-04:00*%
%TF.ProjectId,little_red_rover,6c697474-6c65-45f7-9265-645f726f7665,rev?*%
%TF.SameCoordinates,Original*%
%TF.FileFunction,Drillmap*%
%TF.FilePolarity,Positive*%
%FSLAX45Y45*%
G04 Gerber Fmt 4.5, Leading zero omitted, Abs format (unit mm)*
G04 Created by KiCad (PCBNEW 7.0.10-7.0.10~ubuntu22.04.1) date 2024-04-26 13:08:28*
%MOMM*%
%LPD*%
G01*
G04 APERTURE LIST*
%ADD10C,0.200000*%
%ADD11C,0.100000*%
%ADD12C,0.134620*%
%ADD13C,0.422000*%
G04 APERTURE END LIST*
D10*
X18402481Y-13700000D02*
X17342481Y-13700000D01*
X12752480Y-14100000D02*
X21372481Y-14100000D01*
X9150814Y-9100000D02*
X8740000Y-9100000D01*
X21372481Y-6290000D02*
X20872481Y-6290000D01*
X8700814Y-9300000D02*
G75*
G03*
X8700814Y-10680000I4051666J-690000D01*
G01*
X17342481Y-8140000D02*
X18402481Y-8140000D01*
X17342481Y-11610000D02*
X18402481Y-11610000D01*
X21372481Y-6080000D02*
X20872481Y-6080000D01*
X18402481Y-6050000D02*
X17342481Y-6050000D01*
X8740000Y-10880000D02*
X9150814Y-10880000D01*
X17342481Y-13700000D02*
X17342481Y-13930000D01*
X20872481Y-13690000D02*
X20872481Y-13900000D01*
X15930842Y-10490000D02*
X14616633Y-11732043D01*
X12752480Y-5880000D02*
X21372481Y-5880000D01*
X9107210Y-10680000D02*
X8700814Y-10680000D01*
X13986473Y-8355141D02*
G75*
G03*
X13986473Y-11624859I3166007J-1634859D01*
G01*
X21372481Y-11640000D02*
X20872481Y-11640000D01*
X18402481Y-11610000D02*
X18402481Y-11840000D01*
X9010542Y-11690000D02*
G75*
G03*
X12752480Y-14100000I3741938J1700000D01*
G01*
X21372481Y-11850000D02*
X20872481Y-11850000D01*
X20872481Y-13900000D02*
X21372481Y-13900000D01*
X18402481Y-8370000D02*
X18402481Y-8140000D01*
X9359237Y-11490000D02*
G75*
G03*
X9454891Y-11690000I3393283J1500020D01*
G01*
X18402481Y-13700000D02*
X18402481Y-13930000D01*
X17342481Y-11610000D02*
X17342481Y-11840000D01*
X8925981Y-11490000D02*
X9359237Y-11490000D01*
X18402481Y-6280000D02*
X18402481Y-6050000D01*
X21372481Y-14100000D02*
X21372481Y-13900000D01*
X9359237Y-8490000D02*
X8925981Y-8490000D01*
X20872481Y-11640000D02*
X20872481Y-11850000D01*
X12752480Y-5880000D02*
G75*
G03*
X9010543Y-8290000I-1J-4110000D01*
G01*
X21372481Y-13690000D02*
X20872481Y-13690000D01*
X21372481Y-8130000D02*
X21372481Y-6290000D01*
X13986466Y-11624862D02*
G75*
G03*
X14616633Y-11732043I355414J183532D01*
G01*
X15930842Y-10490000D02*
G75*
G03*
X15930842Y-9490000I1221638J500000D01*
G01*
X17342481Y-6280000D02*
X17342481Y-6050000D01*
X8739999Y-10880000D02*
G75*
G03*
X8925981Y-11490000I4012401J889980D01*
G01*
X8925982Y-8490000D02*
G75*
G03*
X8740000Y-9100000I3826548J-1500020D01*
G01*
X9454891Y-8290000D02*
G75*
G03*
X9359237Y-8490000I3297629J-1700020D01*
G01*
X9107209Y-10680000D02*
G75*
G03*
X9150814Y-10880000I3645341J690020D01*
G01*
X9010543Y-8290000D02*
X9454891Y-8290000D01*
X21372481Y-8130000D02*
X20872481Y-8130000D01*
X18402481Y-13930000D02*
X17342481Y-13930000D01*
X9010543Y-11690000D02*
X9454891Y-11690000D01*
X20872481Y-8130000D02*
X20872481Y-8340000D01*
X17342481Y-8370000D02*
X18402481Y-8370000D01*
X20872481Y-6080000D02*
X20872481Y-6290000D01*
X9150815Y-9100000D02*
G75*
G03*
X9107210Y-9300000I3601735J-890020D01*
G01*
X20872481Y-8340000D02*
X21372481Y-8340000D01*
X14616628Y-8247963D02*
G75*
G03*
X13986473Y-8355141I-274748J-290707D01*
G01*
X15930842Y-9490000D02*
X14616633Y-8247957D01*
X17342481Y-8370000D02*
X17342481Y-8140000D01*
X17342481Y-11840000D02*
X18402481Y-11840000D01*
X21372481Y-6080000D02*
X21372481Y-5880000D01*
X9107210Y-9300000D02*
X8700814Y-9300000D01*
X18402481Y-6280000D02*
X17342481Y-6280000D01*
X21372481Y-11640000D02*
X21372481Y-8340000D01*
X21372481Y-13690000D02*
X21372481Y-11850000D01*
D11*
X13958500Y-13447000D02*
X14023500Y-13512000D01*
X14023500Y-13447000D02*
X13958500Y-13512000D01*
X14536500Y-13447000D02*
X14601500Y-13512000D01*
X14601500Y-13447000D02*
X14536500Y-13512000D01*
D12*
X20370425Y-11503746D02*
G75*
G03*
X20235805Y-11503746I-67310J0D01*
G01*
X20235805Y-11503746D02*
G75*
G03*
X20370425Y-11503746I67310J0D01*
G01*
X20394195Y-8476254D02*
G75*
G03*
X20259575Y-8476254I-67310J0D01*
G01*
X20259575Y-8476254D02*
G75*
G03*
X20394195Y-8476254I67310J0D01*
G01*
D13*
X9222481Y-9779000D02*
X9222481Y-10201000D01*
X9011481Y-9990000D02*
X9433481Y-9990000D01*
X16352480Y-7979000D02*
X16352480Y-8401000D01*
X16141480Y-8190000D02*
X16563480Y-8190000D01*
X16352480Y-11579000D02*
X16352480Y-12001000D01*
X16141480Y-11790000D02*
X16563480Y-11790000D01*
D10*
X8893257Y-14421484D02*
X8893257Y-14221484D01*
X8893257Y-14221484D02*
X8940876Y-14221484D01*
X8940876Y-14221484D02*
X8969448Y-14231008D01*
X8969448Y-14231008D02*
X8988495Y-14250055D01*
X8988495Y-14250055D02*
X8998019Y-14269103D01*
X8998019Y-14269103D02*
X9007543Y-14307198D01*
X9007543Y-14307198D02*
X9007543Y-14335769D01*
X9007543Y-14335769D02*
X8998019Y-14373865D01*
X8998019Y-14373865D02*
X8988495Y-14392912D01*
X8988495Y-14392912D02*
X8969448Y-14411960D01*
X8969448Y-14411960D02*
X8940876Y-14421484D01*
X8940876Y-14421484D02*
X8893257Y-14421484D01*
X9093257Y-14421484D02*
X9093257Y-14288150D01*
X9093257Y-14326246D02*
X9102781Y-14307198D01*
X9102781Y-14307198D02*
X9112305Y-14297674D01*
X9112305Y-14297674D02*
X9131353Y-14288150D01*
X9131353Y-14288150D02*
X9150400Y-14288150D01*
X9217067Y-14421484D02*
X9217067Y-14288150D01*
X9217067Y-14221484D02*
X9207543Y-14231008D01*
X9207543Y-14231008D02*
X9217067Y-14240531D01*
X9217067Y-14240531D02*
X9226591Y-14231008D01*
X9226591Y-14231008D02*
X9217067Y-14221484D01*
X9217067Y-14221484D02*
X9217067Y-14240531D01*
X9340876Y-14421484D02*
X9321829Y-14411960D01*
X9321829Y-14411960D02*
X9312305Y-14392912D01*
X9312305Y-14392912D02*
X9312305Y-14221484D01*
X9445638Y-14421484D02*
X9426591Y-14411960D01*
X9426591Y-14411960D02*
X9417067Y-14392912D01*
X9417067Y-14392912D02*
X9417067Y-14221484D01*
X9674210Y-14421484D02*
X9674210Y-14221484D01*
X9674210Y-14221484D02*
X9740876Y-14364341D01*
X9740876Y-14364341D02*
X9807543Y-14221484D01*
X9807543Y-14221484D02*
X9807543Y-14421484D01*
X9988495Y-14421484D02*
X9988495Y-14316722D01*
X9988495Y-14316722D02*
X9978972Y-14297674D01*
X9978972Y-14297674D02*
X9959924Y-14288150D01*
X9959924Y-14288150D02*
X9921829Y-14288150D01*
X9921829Y-14288150D02*
X9902781Y-14297674D01*
X9988495Y-14411960D02*
X9969448Y-14421484D01*
X9969448Y-14421484D02*
X9921829Y-14421484D01*
X9921829Y-14421484D02*
X9902781Y-14411960D01*
X9902781Y-14411960D02*
X9893257Y-14392912D01*
X9893257Y-14392912D02*
X9893257Y-14373865D01*
X9893257Y-14373865D02*
X9902781Y-14354817D01*
X9902781Y-14354817D02*
X9921829Y-14345293D01*
X9921829Y-14345293D02*
X9969448Y-14345293D01*
X9969448Y-14345293D02*
X9988495Y-14335769D01*
X10083734Y-14288150D02*
X10083734Y-14488150D01*
X10083734Y-14297674D02*
X10102781Y-14288150D01*
X10102781Y-14288150D02*
X10140876Y-14288150D01*
X10140876Y-14288150D02*
X10159924Y-14297674D01*
X10159924Y-14297674D02*
X10169448Y-14307198D01*
X10169448Y-14307198D02*
X10178972Y-14326246D01*
X10178972Y-14326246D02*
X10178972Y-14383388D01*
X10178972Y-14383388D02*
X10169448Y-14402436D01*
X10169448Y-14402436D02*
X10159924Y-14411960D01*
X10159924Y-14411960D02*
X10140876Y-14421484D01*
X10140876Y-14421484D02*
X10102781Y-14421484D01*
X10102781Y-14421484D02*
X10083734Y-14411960D01*
X10264686Y-14402436D02*
X10274210Y-14411960D01*
X10274210Y-14411960D02*
X10264686Y-14421484D01*
X10264686Y-14421484D02*
X10255162Y-14411960D01*
X10255162Y-14411960D02*
X10264686Y-14402436D01*
X10264686Y-14402436D02*
X10264686Y-14421484D01*
X10264686Y-14297674D02*
X10274210Y-14307198D01*
X10274210Y-14307198D02*
X10264686Y-14316722D01*
X10264686Y-14316722D02*
X10255162Y-14307198D01*
X10255162Y-14307198D02*
X10264686Y-14297674D01*
X10264686Y-14297674D02*
X10264686Y-14316722D01*
D11*
X8567481Y-14717500D02*
X8632481Y-14782500D01*
X8632481Y-14717500D02*
X8567481Y-14782500D01*
D10*
X8931353Y-14641484D02*
X8950400Y-14641484D01*
X8950400Y-14641484D02*
X8969448Y-14651008D01*
X8969448Y-14651008D02*
X8978972Y-14660531D01*
X8978972Y-14660531D02*
X8988495Y-14679579D01*
X8988495Y-14679579D02*
X8998019Y-14717674D01*
X8998019Y-14717674D02*
X8998019Y-14765293D01*
X8998019Y-14765293D02*
X8988495Y-14803388D01*
X8988495Y-14803388D02*
X8978972Y-14822436D01*
X8978972Y-14822436D02*
X8969448Y-14831960D01*
X8969448Y-14831960D02*
X8950400Y-14841484D01*
X8950400Y-14841484D02*
X8931353Y-14841484D01*
X8931353Y-14841484D02*
X8912305Y-14831960D01*
X8912305Y-14831960D02*
X8902781Y-14822436D01*
X8902781Y-14822436D02*
X8893257Y-14803388D01*
X8893257Y-14803388D02*
X8883734Y-14765293D01*
X8883734Y-14765293D02*
X8883734Y-14717674D01*
X8883734Y-14717674D02*
X8893257Y-14679579D01*
X8893257Y-14679579D02*
X8902781Y-14660531D01*
X8902781Y-14660531D02*
X8912305Y-14651008D01*
X8912305Y-14651008D02*
X8931353Y-14641484D01*
X9083734Y-14822436D02*
X9093257Y-14831960D01*
X9093257Y-14831960D02*
X9083734Y-14841484D01*
X9083734Y-14841484D02*
X9074210Y-14831960D01*
X9074210Y-14831960D02*
X9083734Y-14822436D01*
X9083734Y-14822436D02*
X9083734Y-14841484D01*
X9264686Y-14641484D02*
X9226591Y-14641484D01*
X9226591Y-14641484D02*
X9207543Y-14651008D01*
X9207543Y-14651008D02*
X9198019Y-14660531D01*
X9198019Y-14660531D02*
X9178972Y-14689103D01*
X9178972Y-14689103D02*
X9169448Y-14727198D01*
X9169448Y-14727198D02*
X9169448Y-14803388D01*
X9169448Y-14803388D02*
X9178972Y-14822436D01*
X9178972Y-14822436D02*
X9188495Y-14831960D01*
X9188495Y-14831960D02*
X9207543Y-14841484D01*
X9207543Y-14841484D02*
X9245638Y-14841484D01*
X9245638Y-14841484D02*
X9264686Y-14831960D01*
X9264686Y-14831960D02*
X9274210Y-14822436D01*
X9274210Y-14822436D02*
X9283734Y-14803388D01*
X9283734Y-14803388D02*
X9283734Y-14755769D01*
X9283734Y-14755769D02*
X9274210Y-14736722D01*
X9274210Y-14736722D02*
X9264686Y-14727198D01*
X9264686Y-14727198D02*
X9245638Y-14717674D01*
X9245638Y-14717674D02*
X9207543Y-14717674D01*
X9207543Y-14717674D02*
X9188495Y-14727198D01*
X9188495Y-14727198D02*
X9178972Y-14736722D01*
X9178972Y-14736722D02*
X9169448Y-14755769D01*
X9464686Y-14641484D02*
X9369448Y-14641484D01*
X9369448Y-14641484D02*
X9359924Y-14736722D01*
X9359924Y-14736722D02*
X9369448Y-14727198D01*
X9369448Y-14727198D02*
X9388495Y-14717674D01*
X9388495Y-14717674D02*
X9436115Y-14717674D01*
X9436115Y-14717674D02*
X9455162Y-14727198D01*
X9455162Y-14727198D02*
X9464686Y-14736722D01*
X9464686Y-14736722D02*
X9474210Y-14755769D01*
X9474210Y-14755769D02*
X9474210Y-14803388D01*
X9474210Y-14803388D02*
X9464686Y-14822436D01*
X9464686Y-14822436D02*
X9455162Y-14831960D01*
X9455162Y-14831960D02*
X9436115Y-14841484D01*
X9436115Y-14841484D02*
X9388495Y-14841484D01*
X9388495Y-14841484D02*
X9369448Y-14831960D01*
X9369448Y-14831960D02*
X9359924Y-14822436D01*
X9598019Y-14641484D02*
X9617067Y-14641484D01*
X9617067Y-14641484D02*
X9636115Y-14651008D01*
X9636115Y-14651008D02*
X9645638Y-14660531D01*
X9645638Y-14660531D02*
X9655162Y-14679579D01*
X9655162Y-14679579D02*
X9664686Y-14717674D01*
X9664686Y-14717674D02*
X9664686Y-14765293D01*
X9664686Y-14765293D02*
X9655162Y-14803388D01*
X9655162Y-14803388D02*
X9645638Y-14822436D01*
X9645638Y-14822436D02*
X9636115Y-14831960D01*
X9636115Y-14831960D02*
X9617067Y-14841484D01*
X9617067Y-14841484D02*
X9598019Y-14841484D01*
X9598019Y-14841484D02*
X9578972Y-14831960D01*
X9578972Y-14831960D02*
X9569448Y-14822436D01*
X9569448Y-14822436D02*
X9559924Y-14803388D01*
X9559924Y-14803388D02*
X9550400Y-14765293D01*
X9550400Y-14765293D02*
X9550400Y-14717674D01*
X9550400Y-14717674D02*
X9559924Y-14679579D01*
X9559924Y-14679579D02*
X9569448Y-14660531D01*
X9569448Y-14660531D02*
X9578972Y-14651008D01*
X9578972Y-14651008D02*
X9598019Y-14641484D01*
X9750400Y-14841484D02*
X9750400Y-14708150D01*
X9750400Y-14727198D02*
X9759924Y-14717674D01*
X9759924Y-14717674D02*
X9778972Y-14708150D01*
X9778972Y-14708150D02*
X9807543Y-14708150D01*
X9807543Y-14708150D02*
X9826591Y-14717674D01*
X9826591Y-14717674D02*
X9836115Y-14736722D01*
X9836115Y-14736722D02*
X9836115Y-14841484D01*
X9836115Y-14736722D02*
X9845638Y-14717674D01*
X9845638Y-14717674D02*
X9864686Y-14708150D01*
X9864686Y-14708150D02*
X9893257Y-14708150D01*
X9893257Y-14708150D02*
X9912305Y-14717674D01*
X9912305Y-14717674D02*
X9921829Y-14736722D01*
X9921829Y-14736722D02*
X9921829Y-14841484D01*
X10017067Y-14841484D02*
X10017067Y-14708150D01*
X10017067Y-14727198D02*
X10026591Y-14717674D01*
X10026591Y-14717674D02*
X10045638Y-14708150D01*
X10045638Y-14708150D02*
X10074210Y-14708150D01*
X10074210Y-14708150D02*
X10093257Y-14717674D01*
X10093257Y-14717674D02*
X10102781Y-14736722D01*
X10102781Y-14736722D02*
X10102781Y-14841484D01*
X10102781Y-14736722D02*
X10112305Y-14717674D01*
X10112305Y-14717674D02*
X10131353Y-14708150D01*
X10131353Y-14708150D02*
X10159924Y-14708150D01*
X10159924Y-14708150D02*
X10178972Y-14717674D01*
X10178972Y-14717674D02*
X10188496Y-14736722D01*
X10188496Y-14736722D02*
X10188496Y-14841484D01*
X10578972Y-14631960D02*
X10407543Y-14889103D01*
X10836115Y-14641484D02*
X10855162Y-14641484D01*
X10855162Y-14641484D02*
X10874210Y-14651008D01*
X10874210Y-14651008D02*
X10883734Y-14660531D01*
X10883734Y-14660531D02*
X10893258Y-14679579D01*
X10893258Y-14679579D02*
X10902781Y-14717674D01*
X10902781Y-14717674D02*
X10902781Y-14765293D01*
X10902781Y-14765293D02*
X10893258Y-14803388D01*
X10893258Y-14803388D02*
X10883734Y-14822436D01*
X10883734Y-14822436D02*
X10874210Y-14831960D01*
X10874210Y-14831960D02*
X10855162Y-14841484D01*
X10855162Y-14841484D02*
X10836115Y-14841484D01*
X10836115Y-14841484D02*
X10817067Y-14831960D01*
X10817067Y-14831960D02*
X10807543Y-14822436D01*
X10807543Y-14822436D02*
X10798019Y-14803388D01*
X10798019Y-14803388D02*
X10788496Y-14765293D01*
X10788496Y-14765293D02*
X10788496Y-14717674D01*
X10788496Y-14717674D02*
X10798019Y-14679579D01*
X10798019Y-14679579D02*
X10807543Y-14660531D01*
X10807543Y-14660531D02*
X10817067Y-14651008D01*
X10817067Y-14651008D02*
X10836115Y-14641484D01*
X10988496Y-14822436D02*
X10998019Y-14831960D01*
X10998019Y-14831960D02*
X10988496Y-14841484D01*
X10988496Y-14841484D02*
X10978972Y-14831960D01*
X10978972Y-14831960D02*
X10988496Y-14822436D01*
X10988496Y-14822436D02*
X10988496Y-14841484D01*
X11121829Y-14641484D02*
X11140877Y-14641484D01*
X11140877Y-14641484D02*
X11159924Y-14651008D01*
X11159924Y-14651008D02*
X11169448Y-14660531D01*
X11169448Y-14660531D02*
X11178972Y-14679579D01*
X11178972Y-14679579D02*
X11188496Y-14717674D01*
X11188496Y-14717674D02*
X11188496Y-14765293D01*
X11188496Y-14765293D02*
X11178972Y-14803388D01*
X11178972Y-14803388D02*
X11169448Y-14822436D01*
X11169448Y-14822436D02*
X11159924Y-14831960D01*
X11159924Y-14831960D02*
X11140877Y-14841484D01*
X11140877Y-14841484D02*
X11121829Y-14841484D01*
X11121829Y-14841484D02*
X11102781Y-14831960D01*
X11102781Y-14831960D02*
X11093258Y-14822436D01*
X11093258Y-14822436D02*
X11083734Y-14803388D01*
X11083734Y-14803388D02*
X11074210Y-14765293D01*
X11074210Y-14765293D02*
X11074210Y-14717674D01*
X11074210Y-14717674D02*
X11083734Y-14679579D01*
X11083734Y-14679579D02*
X11093258Y-14660531D01*
X11093258Y-14660531D02*
X11102781Y-14651008D01*
X11102781Y-14651008D02*
X11121829Y-14641484D01*
X11264686Y-14660531D02*
X11274210Y-14651008D01*
X11274210Y-14651008D02*
X11293257Y-14641484D01*
X11293257Y-14641484D02*
X11340877Y-14641484D01*
X11340877Y-14641484D02*
X11359924Y-14651008D01*
X11359924Y-14651008D02*
X11369448Y-14660531D01*
X11369448Y-14660531D02*
X11378972Y-14679579D01*
X11378972Y-14679579D02*
X11378972Y-14698627D01*
X11378972Y-14698627D02*
X11369448Y-14727198D01*
X11369448Y-14727198D02*
X11255162Y-14841484D01*
X11255162Y-14841484D02*
X11378972Y-14841484D01*
X11559924Y-14641484D02*
X11464686Y-14641484D01*
X11464686Y-14641484D02*
X11455162Y-14736722D01*
X11455162Y-14736722D02*
X11464686Y-14727198D01*
X11464686Y-14727198D02*
X11483734Y-14717674D01*
X11483734Y-14717674D02*
X11531353Y-14717674D01*
X11531353Y-14717674D02*
X11550400Y-14727198D01*
X11550400Y-14727198D02*
X11559924Y-14736722D01*
X11559924Y-14736722D02*
X11569448Y-14755769D01*
X11569448Y-14755769D02*
X11569448Y-14803388D01*
X11569448Y-14803388D02*
X11559924Y-14822436D01*
X11559924Y-14822436D02*
X11550400Y-14831960D01*
X11550400Y-14831960D02*
X11531353Y-14841484D01*
X11531353Y-14841484D02*
X11483734Y-14841484D01*
X11483734Y-14841484D02*
X11464686Y-14831960D01*
X11464686Y-14831960D02*
X11455162Y-14822436D01*
X11740877Y-14641484D02*
X11702781Y-14641484D01*
X11702781Y-14641484D02*
X11683734Y-14651008D01*
X11683734Y-14651008D02*
X11674210Y-14660531D01*
X11674210Y-14660531D02*
X11655162Y-14689103D01*
X11655162Y-14689103D02*
X11645638Y-14727198D01*
X11645638Y-14727198D02*
X11645638Y-14803388D01*
X11645638Y-14803388D02*
X11655162Y-14822436D01*
X11655162Y-14822436D02*
X11664686Y-14831960D01*
X11664686Y-14831960D02*
X11683734Y-14841484D01*
X11683734Y-14841484D02*
X11721829Y-14841484D01*
X11721829Y-14841484D02*
X11740877Y-14831960D01*
X11740877Y-14831960D02*
X11750400Y-14822436D01*
X11750400Y-14822436D02*
X11759924Y-14803388D01*
X11759924Y-14803388D02*
X11759924Y-14755769D01*
X11759924Y-14755769D02*
X11750400Y-14736722D01*
X11750400Y-14736722D02*
X11740877Y-14727198D01*
X11740877Y-14727198D02*
X11721829Y-14717674D01*
X11721829Y-14717674D02*
X11683734Y-14717674D01*
X11683734Y-14717674D02*
X11664686Y-14727198D01*
X11664686Y-14727198D02*
X11655162Y-14736722D01*
X11655162Y-14736722D02*
X11645638Y-14755769D01*
X11836115Y-14641484D02*
X11836115Y-14679579D01*
X11912305Y-14641484D02*
X11912305Y-14679579D01*
X12207543Y-14917674D02*
X12198019Y-14908150D01*
X12198019Y-14908150D02*
X12178972Y-14879579D01*
X12178972Y-14879579D02*
X12169448Y-14860531D01*
X12169448Y-14860531D02*
X12159924Y-14831960D01*
X12159924Y-14831960D02*
X12150400Y-14784341D01*
X12150400Y-14784341D02*
X12150400Y-14746246D01*
X12150400Y-14746246D02*
X12159924Y-14698627D01*
X12159924Y-14698627D02*
X12169448Y-14670055D01*
X12169448Y-14670055D02*
X12178972Y-14651008D01*
X12178972Y-14651008D02*
X12198019Y-14622436D01*
X12198019Y-14622436D02*
X12207543Y-14612912D01*
X12274210Y-14660531D02*
X12283734Y-14651008D01*
X12283734Y-14651008D02*
X12302781Y-14641484D01*
X12302781Y-14641484D02*
X12350400Y-14641484D01*
X12350400Y-14641484D02*
X12369448Y-14651008D01*
X12369448Y-14651008D02*
X12378972Y-14660531D01*
X12378972Y-14660531D02*
X12388496Y-14679579D01*
X12388496Y-14679579D02*
X12388496Y-14698627D01*
X12388496Y-14698627D02*
X12378972Y-14727198D01*
X12378972Y-14727198D02*
X12264686Y-14841484D01*
X12264686Y-14841484D02*
X12388496Y-14841484D01*
X12626591Y-14841484D02*
X12626591Y-14641484D01*
X12712305Y-14841484D02*
X12712305Y-14736722D01*
X12712305Y-14736722D02*
X12702781Y-14717674D01*
X12702781Y-14717674D02*
X12683734Y-14708150D01*
X12683734Y-14708150D02*
X12655162Y-14708150D01*
X12655162Y-14708150D02*
X12636115Y-14717674D01*
X12636115Y-14717674D02*
X12626591Y-14727198D01*
X12836115Y-14841484D02*
X12817067Y-14831960D01*
X12817067Y-14831960D02*
X12807543Y-14822436D01*
X12807543Y-14822436D02*
X12798020Y-14803388D01*
X12798020Y-14803388D02*
X12798020Y-14746246D01*
X12798020Y-14746246D02*
X12807543Y-14727198D01*
X12807543Y-14727198D02*
X12817067Y-14717674D01*
X12817067Y-14717674D02*
X12836115Y-14708150D01*
X12836115Y-14708150D02*
X12864686Y-14708150D01*
X12864686Y-14708150D02*
X12883734Y-14717674D01*
X12883734Y-14717674D02*
X12893258Y-14727198D01*
X12893258Y-14727198D02*
X12902781Y-14746246D01*
X12902781Y-14746246D02*
X12902781Y-14803388D01*
X12902781Y-14803388D02*
X12893258Y-14822436D01*
X12893258Y-14822436D02*
X12883734Y-14831960D01*
X12883734Y-14831960D02*
X12864686Y-14841484D01*
X12864686Y-14841484D02*
X12836115Y-14841484D01*
X13017067Y-14841484D02*
X12998020Y-14831960D01*
X12998020Y-14831960D02*
X12988496Y-14812912D01*
X12988496Y-14812912D02*
X12988496Y-14641484D01*
X13169448Y-14831960D02*
X13150401Y-14841484D01*
X13150401Y-14841484D02*
X13112305Y-14841484D01*
X13112305Y-14841484D02*
X13093258Y-14831960D01*
X13093258Y-14831960D02*
X13083734Y-14812912D01*
X13083734Y-14812912D02*
X13083734Y-14736722D01*
X13083734Y-14736722D02*
X13093258Y-14717674D01*
X13093258Y-14717674D02*
X13112305Y-14708150D01*
X13112305Y-14708150D02*
X13150401Y-14708150D01*
X13150401Y-14708150D02*
X13169448Y-14717674D01*
X13169448Y-14717674D02*
X13178972Y-14736722D01*
X13178972Y-14736722D02*
X13178972Y-14755769D01*
X13178972Y-14755769D02*
X13083734Y-14774817D01*
X13255162Y-14831960D02*
X13274210Y-14841484D01*
X13274210Y-14841484D02*
X13312305Y-14841484D01*
X13312305Y-14841484D02*
X13331353Y-14831960D01*
X13331353Y-14831960D02*
X13340877Y-14812912D01*
X13340877Y-14812912D02*
X13340877Y-14803388D01*
X13340877Y-14803388D02*
X13331353Y-14784341D01*
X13331353Y-14784341D02*
X13312305Y-14774817D01*
X13312305Y-14774817D02*
X13283734Y-14774817D01*
X13283734Y-14774817D02*
X13264686Y-14765293D01*
X13264686Y-14765293D02*
X13255162Y-14746246D01*
X13255162Y-14746246D02*
X13255162Y-14736722D01*
X13255162Y-14736722D02*
X13264686Y-14717674D01*
X13264686Y-14717674D02*
X13283734Y-14708150D01*
X13283734Y-14708150D02*
X13312305Y-14708150D01*
X13312305Y-14708150D02*
X13331353Y-14717674D01*
X13407543Y-14917674D02*
X13417067Y-14908150D01*
X13417067Y-14908150D02*
X13436115Y-14879579D01*
X13436115Y-14879579D02*
X13445639Y-14860531D01*
X13445639Y-14860531D02*
X13455162Y-14831960D01*
X13455162Y-14831960D02*
X13464686Y-14784341D01*
X13464686Y-14784341D02*
X13464686Y-14746246D01*
X13464686Y-14746246D02*
X13455162Y-14698627D01*
X13455162Y-14698627D02*
X13445639Y-14670055D01*
X13445639Y-14670055D02*
X13436115Y-14651008D01*
X13436115Y-14651008D02*
X13417067Y-14622436D01*
X13417067Y-14622436D02*
X13407543Y-14612912D01*
X13769448Y-14917674D02*
X13759924Y-14908150D01*
X13759924Y-14908150D02*
X13740877Y-14879579D01*
X13740877Y-14879579D02*
X13731353Y-14860531D01*
X13731353Y-14860531D02*
X13721829Y-14831960D01*
X13721829Y-14831960D02*
X13712305Y-14784341D01*
X13712305Y-14784341D02*
X13712305Y-14746246D01*
X13712305Y-14746246D02*
X13721829Y-14698627D01*
X13721829Y-14698627D02*
X13731353Y-14670055D01*
X13731353Y-14670055D02*
X13740877Y-14651008D01*
X13740877Y-14651008D02*
X13759924Y-14622436D01*
X13759924Y-14622436D02*
X13769448Y-14612912D01*
X13845639Y-14708150D02*
X13845639Y-14841484D01*
X13845639Y-14727198D02*
X13855162Y-14717674D01*
X13855162Y-14717674D02*
X13874210Y-14708150D01*
X13874210Y-14708150D02*
X13902782Y-14708150D01*
X13902782Y-14708150D02*
X13921829Y-14717674D01*
X13921829Y-14717674D02*
X13931353Y-14736722D01*
X13931353Y-14736722D02*
X13931353Y-14841484D01*
X14055162Y-14841484D02*
X14036115Y-14831960D01*
X14036115Y-14831960D02*
X14026591Y-14822436D01*
X14026591Y-14822436D02*
X14017067Y-14803388D01*
X14017067Y-14803388D02*
X14017067Y-14746246D01*
X14017067Y-14746246D02*
X14026591Y-14727198D01*
X14026591Y-14727198D02*
X14036115Y-14717674D01*
X14036115Y-14717674D02*
X14055162Y-14708150D01*
X14055162Y-14708150D02*
X14083734Y-14708150D01*
X14083734Y-14708150D02*
X14102782Y-14717674D01*
X14102782Y-14717674D02*
X14112305Y-14727198D01*
X14112305Y-14727198D02*
X14121829Y-14746246D01*
X14121829Y-14746246D02*
X14121829Y-14803388D01*
X14121829Y-14803388D02*
X14112305Y-14822436D01*
X14112305Y-14822436D02*
X14102782Y-14831960D01*
X14102782Y-14831960D02*
X14083734Y-14841484D01*
X14083734Y-14841484D02*
X14055162Y-14841484D01*
X14178972Y-14708150D02*
X14255162Y-14708150D01*
X14207543Y-14641484D02*
X14207543Y-14812912D01*
X14207543Y-14812912D02*
X14217067Y-14831960D01*
X14217067Y-14831960D02*
X14236115Y-14841484D01*
X14236115Y-14841484D02*
X14255162Y-14841484D01*
X14474210Y-14708150D02*
X14474210Y-14908150D01*
X14474210Y-14717674D02*
X14493258Y-14708150D01*
X14493258Y-14708150D02*
X14531353Y-14708150D01*
X14531353Y-14708150D02*
X14550401Y-14717674D01*
X14550401Y-14717674D02*
X14559924Y-14727198D01*
X14559924Y-14727198D02*
X14569448Y-14746246D01*
X14569448Y-14746246D02*
X14569448Y-14803388D01*
X14569448Y-14803388D02*
X14559924Y-14822436D01*
X14559924Y-14822436D02*
X14550401Y-14831960D01*
X14550401Y-14831960D02*
X14531353Y-14841484D01*
X14531353Y-14841484D02*
X14493258Y-14841484D01*
X14493258Y-14841484D02*
X14474210Y-14831960D01*
X14683734Y-14841484D02*
X14664686Y-14831960D01*
X14664686Y-14831960D02*
X14655163Y-14812912D01*
X14655163Y-14812912D02*
X14655163Y-14641484D01*
X14845639Y-14841484D02*
X14845639Y-14736722D01*
X14845639Y-14736722D02*
X14836115Y-14717674D01*
X14836115Y-14717674D02*
X14817067Y-14708150D01*
X14817067Y-14708150D02*
X14778972Y-14708150D01*
X14778972Y-14708150D02*
X14759924Y-14717674D01*
X14845639Y-14831960D02*
X14826591Y-14841484D01*
X14826591Y-14841484D02*
X14778972Y-14841484D01*
X14778972Y-14841484D02*
X14759924Y-14831960D01*
X14759924Y-14831960D02*
X14750401Y-14812912D01*
X14750401Y-14812912D02*
X14750401Y-14793865D01*
X14750401Y-14793865D02*
X14759924Y-14774817D01*
X14759924Y-14774817D02*
X14778972Y-14765293D01*
X14778972Y-14765293D02*
X14826591Y-14765293D01*
X14826591Y-14765293D02*
X14845639Y-14755769D01*
X14912305Y-14708150D02*
X14988496Y-14708150D01*
X14940877Y-14641484D02*
X14940877Y-14812912D01*
X14940877Y-14812912D02*
X14950401Y-14831960D01*
X14950401Y-14831960D02*
X14969448Y-14841484D01*
X14969448Y-14841484D02*
X14988496Y-14841484D01*
X15131353Y-14831960D02*
X15112305Y-14841484D01*
X15112305Y-14841484D02*
X15074210Y-14841484D01*
X15074210Y-14841484D02*
X15055163Y-14831960D01*
X15055163Y-14831960D02*
X15045639Y-14812912D01*
X15045639Y-14812912D02*
X15045639Y-14736722D01*
X15045639Y-14736722D02*
X15055163Y-14717674D01*
X15055163Y-14717674D02*
X15074210Y-14708150D01*
X15074210Y-14708150D02*
X15112305Y-14708150D01*
X15112305Y-14708150D02*
X15131353Y-14717674D01*
X15131353Y-14717674D02*
X15140877Y-14736722D01*
X15140877Y-14736722D02*
X15140877Y-14755769D01*
X15140877Y-14755769D02*
X15045639Y-14774817D01*
X15312305Y-14841484D02*
X15312305Y-14641484D01*
X15312305Y-14831960D02*
X15293258Y-14841484D01*
X15293258Y-14841484D02*
X15255163Y-14841484D01*
X15255163Y-14841484D02*
X15236115Y-14831960D01*
X15236115Y-14831960D02*
X15226591Y-14822436D01*
X15226591Y-14822436D02*
X15217067Y-14803388D01*
X15217067Y-14803388D02*
X15217067Y-14746246D01*
X15217067Y-14746246D02*
X15226591Y-14727198D01*
X15226591Y-14727198D02*
X15236115Y-14717674D01*
X15236115Y-14717674D02*
X15255163Y-14708150D01*
X15255163Y-14708150D02*
X15293258Y-14708150D01*
X15293258Y-14708150D02*
X15312305Y-14717674D01*
X15388496Y-14917674D02*
X15398020Y-14908150D01*
X15398020Y-14908150D02*
X15417067Y-14879579D01*
X15417067Y-14879579D02*
X15426591Y-14860531D01*
X15426591Y-14860531D02*
X15436115Y-14831960D01*
X15436115Y-14831960D02*
X15445639Y-14784341D01*
X15445639Y-14784341D02*
X15445639Y-14746246D01*
X15445639Y-14746246D02*
X15436115Y-14698627D01*
X15436115Y-14698627D02*
X15426591Y-14670055D01*
X15426591Y-14670055D02*
X15417067Y-14651008D01*
X15417067Y-14651008D02*
X15398020Y-14622436D01*
X15398020Y-14622436D02*
X15388496Y-14612912D01*
D12*
X8632481Y-15014000D02*
G75*
G03*
X8497861Y-15014000I-67310J0D01*
G01*
X8497861Y-15014000D02*
G75*
G03*
X8632481Y-15014000I67310J0D01*
G01*
D10*
X8998019Y-15105484D02*
X8883734Y-15105484D01*
X8940876Y-15105484D02*
X8940876Y-14905484D01*
X8940876Y-14905484D02*
X8921829Y-14934055D01*
X8921829Y-14934055D02*
X8902781Y-14953103D01*
X8902781Y-14953103D02*
X8883734Y-14962627D01*
X9083734Y-15086436D02*
X9093257Y-15095960D01*
X9093257Y-15095960D02*
X9083734Y-15105484D01*
X9083734Y-15105484D02*
X9074210Y-15095960D01*
X9074210Y-15095960D02*
X9083734Y-15086436D01*
X9083734Y-15086436D02*
X9083734Y-15105484D01*
X9159924Y-14905484D02*
X9283734Y-14905484D01*
X9283734Y-14905484D02*
X9217067Y-14981674D01*
X9217067Y-14981674D02*
X9245638Y-14981674D01*
X9245638Y-14981674D02*
X9264686Y-14991198D01*
X9264686Y-14991198D02*
X9274210Y-15000722D01*
X9274210Y-15000722D02*
X9283734Y-15019769D01*
X9283734Y-15019769D02*
X9283734Y-15067388D01*
X9283734Y-15067388D02*
X9274210Y-15086436D01*
X9274210Y-15086436D02*
X9264686Y-15095960D01*
X9264686Y-15095960D02*
X9245638Y-15105484D01*
X9245638Y-15105484D02*
X9188495Y-15105484D01*
X9188495Y-15105484D02*
X9169448Y-15095960D01*
X9169448Y-15095960D02*
X9159924Y-15086436D01*
X9455162Y-14972150D02*
X9455162Y-15105484D01*
X9407543Y-14895960D02*
X9359924Y-15038817D01*
X9359924Y-15038817D02*
X9483734Y-15038817D01*
X9645638Y-14905484D02*
X9607543Y-14905484D01*
X9607543Y-14905484D02*
X9588495Y-14915008D01*
X9588495Y-14915008D02*
X9578972Y-14924531D01*
X9578972Y-14924531D02*
X9559924Y-14953103D01*
X9559924Y-14953103D02*
X9550400Y-14991198D01*
X9550400Y-14991198D02*
X9550400Y-15067388D01*
X9550400Y-15067388D02*
X9559924Y-15086436D01*
X9559924Y-15086436D02*
X9569448Y-15095960D01*
X9569448Y-15095960D02*
X9588495Y-15105484D01*
X9588495Y-15105484D02*
X9626591Y-15105484D01*
X9626591Y-15105484D02*
X9645638Y-15095960D01*
X9645638Y-15095960D02*
X9655162Y-15086436D01*
X9655162Y-15086436D02*
X9664686Y-15067388D01*
X9664686Y-15067388D02*
X9664686Y-15019769D01*
X9664686Y-15019769D02*
X9655162Y-15000722D01*
X9655162Y-15000722D02*
X9645638Y-14991198D01*
X9645638Y-14991198D02*
X9626591Y-14981674D01*
X9626591Y-14981674D02*
X9588495Y-14981674D01*
X9588495Y-14981674D02*
X9569448Y-14991198D01*
X9569448Y-14991198D02*
X9559924Y-15000722D01*
X9559924Y-15000722D02*
X9550400Y-15019769D01*
X9750400Y-15105484D02*
X9750400Y-14972150D01*
X9750400Y-14991198D02*
X9759924Y-14981674D01*
X9759924Y-14981674D02*
X9778972Y-14972150D01*
X9778972Y-14972150D02*
X9807543Y-14972150D01*
X9807543Y-14972150D02*
X9826591Y-14981674D01*
X9826591Y-14981674D02*
X9836115Y-15000722D01*
X9836115Y-15000722D02*
X9836115Y-15105484D01*
X9836115Y-15000722D02*
X9845638Y-14981674D01*
X9845638Y-14981674D02*
X9864686Y-14972150D01*
X9864686Y-14972150D02*
X9893257Y-14972150D01*
X9893257Y-14972150D02*
X9912305Y-14981674D01*
X9912305Y-14981674D02*
X9921829Y-15000722D01*
X9921829Y-15000722D02*
X9921829Y-15105484D01*
X10017067Y-15105484D02*
X10017067Y-14972150D01*
X10017067Y-14991198D02*
X10026591Y-14981674D01*
X10026591Y-14981674D02*
X10045638Y-14972150D01*
X10045638Y-14972150D02*
X10074210Y-14972150D01*
X10074210Y-14972150D02*
X10093257Y-14981674D01*
X10093257Y-14981674D02*
X10102781Y-15000722D01*
X10102781Y-15000722D02*
X10102781Y-15105484D01*
X10102781Y-15000722D02*
X10112305Y-14981674D01*
X10112305Y-14981674D02*
X10131353Y-14972150D01*
X10131353Y-14972150D02*
X10159924Y-14972150D01*
X10159924Y-14972150D02*
X10178972Y-14981674D01*
X10178972Y-14981674D02*
X10188496Y-15000722D01*
X10188496Y-15000722D02*
X10188496Y-15105484D01*
X10578972Y-14895960D02*
X10407543Y-15153103D01*
X10836115Y-14905484D02*
X10855162Y-14905484D01*
X10855162Y-14905484D02*
X10874210Y-14915008D01*
X10874210Y-14915008D02*
X10883734Y-14924531D01*
X10883734Y-14924531D02*
X10893258Y-14943579D01*
X10893258Y-14943579D02*
X10902781Y-14981674D01*
X10902781Y-14981674D02*
X10902781Y-15029293D01*
X10902781Y-15029293D02*
X10893258Y-15067388D01*
X10893258Y-15067388D02*
X10883734Y-15086436D01*
X10883734Y-15086436D02*
X10874210Y-15095960D01*
X10874210Y-15095960D02*
X10855162Y-15105484D01*
X10855162Y-15105484D02*
X10836115Y-15105484D01*
X10836115Y-15105484D02*
X10817067Y-15095960D01*
X10817067Y-15095960D02*
X10807543Y-15086436D01*
X10807543Y-15086436D02*
X10798019Y-15067388D01*
X10798019Y-15067388D02*
X10788496Y-15029293D01*
X10788496Y-15029293D02*
X10788496Y-14981674D01*
X10788496Y-14981674D02*
X10798019Y-14943579D01*
X10798019Y-14943579D02*
X10807543Y-14924531D01*
X10807543Y-14924531D02*
X10817067Y-14915008D01*
X10817067Y-14915008D02*
X10836115Y-14905484D01*
X10988496Y-15086436D02*
X10998019Y-15095960D01*
X10998019Y-15095960D02*
X10988496Y-15105484D01*
X10988496Y-15105484D02*
X10978972Y-15095960D01*
X10978972Y-15095960D02*
X10988496Y-15086436D01*
X10988496Y-15086436D02*
X10988496Y-15105484D01*
X11121829Y-14905484D02*
X11140877Y-14905484D01*
X11140877Y-14905484D02*
X11159924Y-14915008D01*
X11159924Y-14915008D02*
X11169448Y-14924531D01*
X11169448Y-14924531D02*
X11178972Y-14943579D01*
X11178972Y-14943579D02*
X11188496Y-14981674D01*
X11188496Y-14981674D02*
X11188496Y-15029293D01*
X11188496Y-15029293D02*
X11178972Y-15067388D01*
X11178972Y-15067388D02*
X11169448Y-15086436D01*
X11169448Y-15086436D02*
X11159924Y-15095960D01*
X11159924Y-15095960D02*
X11140877Y-15105484D01*
X11140877Y-15105484D02*
X11121829Y-15105484D01*
X11121829Y-15105484D02*
X11102781Y-15095960D01*
X11102781Y-15095960D02*
X11093258Y-15086436D01*
X11093258Y-15086436D02*
X11083734Y-15067388D01*
X11083734Y-15067388D02*
X11074210Y-15029293D01*
X11074210Y-15029293D02*
X11074210Y-14981674D01*
X11074210Y-14981674D02*
X11083734Y-14943579D01*
X11083734Y-14943579D02*
X11093258Y-14924531D01*
X11093258Y-14924531D02*
X11102781Y-14915008D01*
X11102781Y-14915008D02*
X11121829Y-14905484D01*
X11369448Y-14905484D02*
X11274210Y-14905484D01*
X11274210Y-14905484D02*
X11264686Y-15000722D01*
X11264686Y-15000722D02*
X11274210Y-14991198D01*
X11274210Y-14991198D02*
X11293257Y-14981674D01*
X11293257Y-14981674D02*
X11340877Y-14981674D01*
X11340877Y-14981674D02*
X11359924Y-14991198D01*
X11359924Y-14991198D02*
X11369448Y-15000722D01*
X11369448Y-15000722D02*
X11378972Y-15019769D01*
X11378972Y-15019769D02*
X11378972Y-15067388D01*
X11378972Y-15067388D02*
X11369448Y-15086436D01*
X11369448Y-15086436D02*
X11359924Y-15095960D01*
X11359924Y-15095960D02*
X11340877Y-15105484D01*
X11340877Y-15105484D02*
X11293257Y-15105484D01*
X11293257Y-15105484D02*
X11274210Y-15095960D01*
X11274210Y-15095960D02*
X11264686Y-15086436D01*
X11445638Y-14905484D02*
X11569448Y-14905484D01*
X11569448Y-14905484D02*
X11502781Y-14981674D01*
X11502781Y-14981674D02*
X11531353Y-14981674D01*
X11531353Y-14981674D02*
X11550400Y-14991198D01*
X11550400Y-14991198D02*
X11559924Y-15000722D01*
X11559924Y-15000722D02*
X11569448Y-15019769D01*
X11569448Y-15019769D02*
X11569448Y-15067388D01*
X11569448Y-15067388D02*
X11559924Y-15086436D01*
X11559924Y-15086436D02*
X11550400Y-15095960D01*
X11550400Y-15095960D02*
X11531353Y-15105484D01*
X11531353Y-15105484D02*
X11474210Y-15105484D01*
X11474210Y-15105484D02*
X11455162Y-15095960D01*
X11455162Y-15095960D02*
X11445638Y-15086436D01*
X11693257Y-14905484D02*
X11712305Y-14905484D01*
X11712305Y-14905484D02*
X11731353Y-14915008D01*
X11731353Y-14915008D02*
X11740877Y-14924531D01*
X11740877Y-14924531D02*
X11750400Y-14943579D01*
X11750400Y-14943579D02*
X11759924Y-14981674D01*
X11759924Y-14981674D02*
X11759924Y-15029293D01*
X11759924Y-15029293D02*
X11750400Y-15067388D01*
X11750400Y-15067388D02*
X11740877Y-15086436D01*
X11740877Y-15086436D02*
X11731353Y-15095960D01*
X11731353Y-15095960D02*
X11712305Y-15105484D01*
X11712305Y-15105484D02*
X11693257Y-15105484D01*
X11693257Y-15105484D02*
X11674210Y-15095960D01*
X11674210Y-15095960D02*
X11664686Y-15086436D01*
X11664686Y-15086436D02*
X11655162Y-15067388D01*
X11655162Y-15067388D02*
X11645638Y-15029293D01*
X11645638Y-15029293D02*
X11645638Y-14981674D01*
X11645638Y-14981674D02*
X11655162Y-14943579D01*
X11655162Y-14943579D02*
X11664686Y-14924531D01*
X11664686Y-14924531D02*
X11674210Y-14915008D01*
X11674210Y-14915008D02*
X11693257Y-14905484D01*
X11836115Y-14905484D02*
X11836115Y-14943579D01*
X11912305Y-14905484D02*
X11912305Y-14943579D01*
X12207543Y-15181674D02*
X12198019Y-15172150D01*
X12198019Y-15172150D02*
X12178972Y-15143579D01*
X12178972Y-15143579D02*
X12169448Y-15124531D01*
X12169448Y-15124531D02*
X12159924Y-15095960D01*
X12159924Y-15095960D02*
X12150400Y-15048341D01*
X12150400Y-15048341D02*
X12150400Y-15010246D01*
X12150400Y-15010246D02*
X12159924Y-14962627D01*
X12159924Y-14962627D02*
X12169448Y-14934055D01*
X12169448Y-14934055D02*
X12178972Y-14915008D01*
X12178972Y-14915008D02*
X12198019Y-14886436D01*
X12198019Y-14886436D02*
X12207543Y-14876912D01*
X12274210Y-14924531D02*
X12283734Y-14915008D01*
X12283734Y-14915008D02*
X12302781Y-14905484D01*
X12302781Y-14905484D02*
X12350400Y-14905484D01*
X12350400Y-14905484D02*
X12369448Y-14915008D01*
X12369448Y-14915008D02*
X12378972Y-14924531D01*
X12378972Y-14924531D02*
X12388496Y-14943579D01*
X12388496Y-14943579D02*
X12388496Y-14962627D01*
X12388496Y-14962627D02*
X12378972Y-14991198D01*
X12378972Y-14991198D02*
X12264686Y-15105484D01*
X12264686Y-15105484D02*
X12388496Y-15105484D01*
X12626591Y-15105484D02*
X12626591Y-14905484D01*
X12712305Y-15105484D02*
X12712305Y-15000722D01*
X12712305Y-15000722D02*
X12702781Y-14981674D01*
X12702781Y-14981674D02*
X12683734Y-14972150D01*
X12683734Y-14972150D02*
X12655162Y-14972150D01*
X12655162Y-14972150D02*
X12636115Y-14981674D01*
X12636115Y-14981674D02*
X12626591Y-14991198D01*
X12836115Y-15105484D02*
X12817067Y-15095960D01*
X12817067Y-15095960D02*
X12807543Y-15086436D01*
X12807543Y-15086436D02*
X12798020Y-15067388D01*
X12798020Y-15067388D02*
X12798020Y-15010246D01*
X12798020Y-15010246D02*
X12807543Y-14991198D01*
X12807543Y-14991198D02*
X12817067Y-14981674D01*
X12817067Y-14981674D02*
X12836115Y-14972150D01*
X12836115Y-14972150D02*
X12864686Y-14972150D01*
X12864686Y-14972150D02*
X12883734Y-14981674D01*
X12883734Y-14981674D02*
X12893258Y-14991198D01*
X12893258Y-14991198D02*
X12902781Y-15010246D01*
X12902781Y-15010246D02*
X12902781Y-15067388D01*
X12902781Y-15067388D02*
X12893258Y-15086436D01*
X12893258Y-15086436D02*
X12883734Y-15095960D01*
X12883734Y-15095960D02*
X12864686Y-15105484D01*
X12864686Y-15105484D02*
X12836115Y-15105484D01*
X13017067Y-15105484D02*
X12998020Y-15095960D01*
X12998020Y-15095960D02*
X12988496Y-15076912D01*
X12988496Y-15076912D02*
X12988496Y-14905484D01*
X13169448Y-15095960D02*
X13150401Y-15105484D01*
X13150401Y-15105484D02*
X13112305Y-15105484D01*
X13112305Y-15105484D02*
X13093258Y-15095960D01*
X13093258Y-15095960D02*
X13083734Y-15076912D01*
X13083734Y-15076912D02*
X13083734Y-15000722D01*
X13083734Y-15000722D02*
X13093258Y-14981674D01*
X13093258Y-14981674D02*
X13112305Y-14972150D01*
X13112305Y-14972150D02*
X13150401Y-14972150D01*
X13150401Y-14972150D02*
X13169448Y-14981674D01*
X13169448Y-14981674D02*
X13178972Y-15000722D01*
X13178972Y-15000722D02*
X13178972Y-15019769D01*
X13178972Y-15019769D02*
X13083734Y-15038817D01*
X13255162Y-15095960D02*
X13274210Y-15105484D01*
X13274210Y-15105484D02*
X13312305Y-15105484D01*
X13312305Y-15105484D02*
X13331353Y-15095960D01*
X13331353Y-15095960D02*
X13340877Y-15076912D01*
X13340877Y-15076912D02*
X13340877Y-15067388D01*
X13340877Y-15067388D02*
X13331353Y-15048341D01*
X13331353Y-15048341D02*
X13312305Y-15038817D01*
X13312305Y-15038817D02*
X13283734Y-15038817D01*
X13283734Y-15038817D02*
X13264686Y-15029293D01*
X13264686Y-15029293D02*
X13255162Y-15010246D01*
X13255162Y-15010246D02*
X13255162Y-15000722D01*
X13255162Y-15000722D02*
X13264686Y-14981674D01*
X13264686Y-14981674D02*
X13283734Y-14972150D01*
X13283734Y-14972150D02*
X13312305Y-14972150D01*
X13312305Y-14972150D02*
X13331353Y-14981674D01*
X13407543Y-15181674D02*
X13417067Y-15172150D01*
X13417067Y-15172150D02*
X13436115Y-15143579D01*
X13436115Y-15143579D02*
X13445639Y-15124531D01*
X13445639Y-15124531D02*
X13455162Y-15095960D01*
X13455162Y-15095960D02*
X13464686Y-15048341D01*
X13464686Y-15048341D02*
X13464686Y-15010246D01*
X13464686Y-15010246D02*
X13455162Y-14962627D01*
X13455162Y-14962627D02*
X13445639Y-14934055D01*
X13445639Y-14934055D02*
X13436115Y-14915008D01*
X13436115Y-14915008D02*
X13417067Y-14886436D01*
X13417067Y-14886436D02*
X13407543Y-14876912D01*
X13769448Y-15181674D02*
X13759924Y-15172150D01*
X13759924Y-15172150D02*
X13740877Y-15143579D01*
X13740877Y-15143579D02*
X13731353Y-15124531D01*
X13731353Y-15124531D02*
X13721829Y-15095960D01*
X13721829Y-15095960D02*
X13712305Y-15048341D01*
X13712305Y-15048341D02*
X13712305Y-15010246D01*
X13712305Y-15010246D02*
X13721829Y-14962627D01*
X13721829Y-14962627D02*
X13731353Y-14934055D01*
X13731353Y-14934055D02*
X13740877Y-14915008D01*
X13740877Y-14915008D02*
X13759924Y-14886436D01*
X13759924Y-14886436D02*
X13769448Y-14876912D01*
X13845639Y-14972150D02*
X13845639Y-15105484D01*
X13845639Y-14991198D02*
X13855162Y-14981674D01*
X13855162Y-14981674D02*
X13874210Y-14972150D01*
X13874210Y-14972150D02*
X13902782Y-14972150D01*
X13902782Y-14972150D02*
X13921829Y-14981674D01*
X13921829Y-14981674D02*
X13931353Y-15000722D01*
X13931353Y-15000722D02*
X13931353Y-15105484D01*
X14055162Y-15105484D02*
X14036115Y-15095960D01*
X14036115Y-15095960D02*
X14026591Y-15086436D01*
X14026591Y-15086436D02*
X14017067Y-15067388D01*
X14017067Y-15067388D02*
X14017067Y-15010246D01*
X14017067Y-15010246D02*
X14026591Y-14991198D01*
X14026591Y-14991198D02*
X14036115Y-14981674D01*
X14036115Y-14981674D02*
X14055162Y-14972150D01*
X14055162Y-14972150D02*
X14083734Y-14972150D01*
X14083734Y-14972150D02*
X14102782Y-14981674D01*
X14102782Y-14981674D02*
X14112305Y-14991198D01*
X14112305Y-14991198D02*
X14121829Y-15010246D01*
X14121829Y-15010246D02*
X14121829Y-15067388D01*
X14121829Y-15067388D02*
X14112305Y-15086436D01*
X14112305Y-15086436D02*
X14102782Y-15095960D01*
X14102782Y-15095960D02*
X14083734Y-15105484D01*
X14083734Y-15105484D02*
X14055162Y-15105484D01*
X14178972Y-14972150D02*
X14255162Y-14972150D01*
X14207543Y-14905484D02*
X14207543Y-15076912D01*
X14207543Y-15076912D02*
X14217067Y-15095960D01*
X14217067Y-15095960D02*
X14236115Y-15105484D01*
X14236115Y-15105484D02*
X14255162Y-15105484D01*
X14474210Y-14972150D02*
X14474210Y-15172150D01*
X14474210Y-14981674D02*
X14493258Y-14972150D01*
X14493258Y-14972150D02*
X14531353Y-14972150D01*
X14531353Y-14972150D02*
X14550401Y-14981674D01*
X14550401Y-14981674D02*
X14559924Y-14991198D01*
X14559924Y-14991198D02*
X14569448Y-15010246D01*
X14569448Y-15010246D02*
X14569448Y-15067388D01*
X14569448Y-15067388D02*
X14559924Y-15086436D01*
X14559924Y-15086436D02*
X14550401Y-15095960D01*
X14550401Y-15095960D02*
X14531353Y-15105484D01*
X14531353Y-15105484D02*
X14493258Y-15105484D01*
X14493258Y-15105484D02*
X14474210Y-15095960D01*
X14683734Y-15105484D02*
X14664686Y-15095960D01*
X14664686Y-15095960D02*
X14655163Y-15076912D01*
X14655163Y-15076912D02*
X14655163Y-14905484D01*
X14845639Y-15105484D02*
X14845639Y-15000722D01*
X14845639Y-15000722D02*
X14836115Y-14981674D01*
X14836115Y-14981674D02*
X14817067Y-14972150D01*
X14817067Y-14972150D02*
X14778972Y-14972150D01*
X14778972Y-14972150D02*
X14759924Y-14981674D01*
X14845639Y-15095960D02*
X14826591Y-15105484D01*
X14826591Y-15105484D02*
X14778972Y-15105484D01*
X14778972Y-15105484D02*
X14759924Y-15095960D01*
X14759924Y-15095960D02*
X14750401Y-15076912D01*
X14750401Y-15076912D02*
X14750401Y-15057865D01*
X14750401Y-15057865D02*
X14759924Y-15038817D01*
X14759924Y-15038817D02*
X14778972Y-15029293D01*
X14778972Y-15029293D02*
X14826591Y-15029293D01*
X14826591Y-15029293D02*
X14845639Y-15019769D01*
X14912305Y-14972150D02*
X14988496Y-14972150D01*
X14940877Y-14905484D02*
X14940877Y-15076912D01*
X14940877Y-15076912D02*
X14950401Y-15095960D01*
X14950401Y-15095960D02*
X14969448Y-15105484D01*
X14969448Y-15105484D02*
X14988496Y-15105484D01*
X15131353Y-15095960D02*
X15112305Y-15105484D01*
X15112305Y-15105484D02*
X15074210Y-15105484D01*
X15074210Y-15105484D02*
X15055163Y-15095960D01*
X15055163Y-15095960D02*
X15045639Y-15076912D01*
X15045639Y-15076912D02*
X15045639Y-15000722D01*
X15045639Y-15000722D02*
X15055163Y-14981674D01*
X15055163Y-14981674D02*
X15074210Y-14972150D01*
X15074210Y-14972150D02*
X15112305Y-14972150D01*
X15112305Y-14972150D02*
X15131353Y-14981674D01*
X15131353Y-14981674D02*
X15140877Y-15000722D01*
X15140877Y-15000722D02*
X15140877Y-15019769D01*
X15140877Y-15019769D02*
X15045639Y-15038817D01*
X15312305Y-15105484D02*
X15312305Y-14905484D01*
X15312305Y-15095960D02*
X15293258Y-15105484D01*
X15293258Y-15105484D02*
X15255163Y-15105484D01*
X15255163Y-15105484D02*
X15236115Y-15095960D01*
X15236115Y-15095960D02*
X15226591Y-15086436D01*
X15226591Y-15086436D02*
X15217067Y-15067388D01*
X15217067Y-15067388D02*
X15217067Y-15010246D01*
X15217067Y-15010246D02*
X15226591Y-14991198D01*
X15226591Y-14991198D02*
X15236115Y-14981674D01*
X15236115Y-14981674D02*
X15255163Y-14972150D01*
X15255163Y-14972150D02*
X15293258Y-14972150D01*
X15293258Y-14972150D02*
X15312305Y-14981674D01*
X15388496Y-15181674D02*
X15398020Y-15172150D01*
X15398020Y-15172150D02*
X15417067Y-15143579D01*
X15417067Y-15143579D02*
X15426591Y-15124531D01*
X15426591Y-15124531D02*
X15436115Y-15095960D01*
X15436115Y-15095960D02*
X15445639Y-15048341D01*
X15445639Y-15048341D02*
X15445639Y-15010246D01*
X15445639Y-15010246D02*
X15436115Y-14962627D01*
X15436115Y-14962627D02*
X15426591Y-14934055D01*
X15426591Y-14934055D02*
X15417067Y-14915008D01*
X15417067Y-14915008D02*
X15398020Y-14886436D01*
X15398020Y-14886436D02*
X15388496Y-14876912D01*
X8532481Y-15178000D02*
X8532481Y-15378000D01*
X8432481Y-15278000D02*
X8632481Y-15278000D01*
X8978972Y-15236150D02*
X8978972Y-15369484D01*
X8931353Y-15159960D02*
X8883734Y-15302817D01*
X8883734Y-15302817D02*
X9007543Y-15302817D01*
X9083734Y-15350436D02*
X9093257Y-15359960D01*
X9093257Y-15359960D02*
X9083734Y-15369484D01*
X9083734Y-15369484D02*
X9074210Y-15359960D01*
X9074210Y-15359960D02*
X9083734Y-15350436D01*
X9083734Y-15350436D02*
X9083734Y-15369484D01*
X9169448Y-15188531D02*
X9178972Y-15179008D01*
X9178972Y-15179008D02*
X9198019Y-15169484D01*
X9198019Y-15169484D02*
X9245638Y-15169484D01*
X9245638Y-15169484D02*
X9264686Y-15179008D01*
X9264686Y-15179008D02*
X9274210Y-15188531D01*
X9274210Y-15188531D02*
X9283734Y-15207579D01*
X9283734Y-15207579D02*
X9283734Y-15226627D01*
X9283734Y-15226627D02*
X9274210Y-15255198D01*
X9274210Y-15255198D02*
X9159924Y-15369484D01*
X9159924Y-15369484D02*
X9283734Y-15369484D01*
X9359924Y-15188531D02*
X9369448Y-15179008D01*
X9369448Y-15179008D02*
X9388495Y-15169484D01*
X9388495Y-15169484D02*
X9436115Y-15169484D01*
X9436115Y-15169484D02*
X9455162Y-15179008D01*
X9455162Y-15179008D02*
X9464686Y-15188531D01*
X9464686Y-15188531D02*
X9474210Y-15207579D01*
X9474210Y-15207579D02*
X9474210Y-15226627D01*
X9474210Y-15226627D02*
X9464686Y-15255198D01*
X9464686Y-15255198D02*
X9350400Y-15369484D01*
X9350400Y-15369484D02*
X9474210Y-15369484D01*
X9598019Y-15169484D02*
X9617067Y-15169484D01*
X9617067Y-15169484D02*
X9636115Y-15179008D01*
X9636115Y-15179008D02*
X9645638Y-15188531D01*
X9645638Y-15188531D02*
X9655162Y-15207579D01*
X9655162Y-15207579D02*
X9664686Y-15245674D01*
X9664686Y-15245674D02*
X9664686Y-15293293D01*
X9664686Y-15293293D02*
X9655162Y-15331388D01*
X9655162Y-15331388D02*
X9645638Y-15350436D01*
X9645638Y-15350436D02*
X9636115Y-15359960D01*
X9636115Y-15359960D02*
X9617067Y-15369484D01*
X9617067Y-15369484D02*
X9598019Y-15369484D01*
X9598019Y-15369484D02*
X9578972Y-15359960D01*
X9578972Y-15359960D02*
X9569448Y-15350436D01*
X9569448Y-15350436D02*
X9559924Y-15331388D01*
X9559924Y-15331388D02*
X9550400Y-15293293D01*
X9550400Y-15293293D02*
X9550400Y-15245674D01*
X9550400Y-15245674D02*
X9559924Y-15207579D01*
X9559924Y-15207579D02*
X9569448Y-15188531D01*
X9569448Y-15188531D02*
X9578972Y-15179008D01*
X9578972Y-15179008D02*
X9598019Y-15169484D01*
X9750400Y-15369484D02*
X9750400Y-15236150D01*
X9750400Y-15255198D02*
X9759924Y-15245674D01*
X9759924Y-15245674D02*
X9778972Y-15236150D01*
X9778972Y-15236150D02*
X9807543Y-15236150D01*
X9807543Y-15236150D02*
X9826591Y-15245674D01*
X9826591Y-15245674D02*
X9836115Y-15264722D01*
X9836115Y-15264722D02*
X9836115Y-15369484D01*
X9836115Y-15264722D02*
X9845638Y-15245674D01*
X9845638Y-15245674D02*
X9864686Y-15236150D01*
X9864686Y-15236150D02*
X9893257Y-15236150D01*
X9893257Y-15236150D02*
X9912305Y-15245674D01*
X9912305Y-15245674D02*
X9921829Y-15264722D01*
X9921829Y-15264722D02*
X9921829Y-15369484D01*
X10017067Y-15369484D02*
X10017067Y-15236150D01*
X10017067Y-15255198D02*
X10026591Y-15245674D01*
X10026591Y-15245674D02*
X10045638Y-15236150D01*
X10045638Y-15236150D02*
X10074210Y-15236150D01*
X10074210Y-15236150D02*
X10093257Y-15245674D01*
X10093257Y-15245674D02*
X10102781Y-15264722D01*
X10102781Y-15264722D02*
X10102781Y-15369484D01*
X10102781Y-15264722D02*
X10112305Y-15245674D01*
X10112305Y-15245674D02*
X10131353Y-15236150D01*
X10131353Y-15236150D02*
X10159924Y-15236150D01*
X10159924Y-15236150D02*
X10178972Y-15245674D01*
X10178972Y-15245674D02*
X10188496Y-15264722D01*
X10188496Y-15264722D02*
X10188496Y-15369484D01*
X10578972Y-15159960D02*
X10407543Y-15417103D01*
X10836115Y-15169484D02*
X10855162Y-15169484D01*
X10855162Y-15169484D02*
X10874210Y-15179008D01*
X10874210Y-15179008D02*
X10883734Y-15188531D01*
X10883734Y-15188531D02*
X10893258Y-15207579D01*
X10893258Y-15207579D02*
X10902781Y-15245674D01*
X10902781Y-15245674D02*
X10902781Y-15293293D01*
X10902781Y-15293293D02*
X10893258Y-15331388D01*
X10893258Y-15331388D02*
X10883734Y-15350436D01*
X10883734Y-15350436D02*
X10874210Y-15359960D01*
X10874210Y-15359960D02*
X10855162Y-15369484D01*
X10855162Y-15369484D02*
X10836115Y-15369484D01*
X10836115Y-15369484D02*
X10817067Y-15359960D01*
X10817067Y-15359960D02*
X10807543Y-15350436D01*
X10807543Y-15350436D02*
X10798019Y-15331388D01*
X10798019Y-15331388D02*
X10788496Y-15293293D01*
X10788496Y-15293293D02*
X10788496Y-15245674D01*
X10788496Y-15245674D02*
X10798019Y-15207579D01*
X10798019Y-15207579D02*
X10807543Y-15188531D01*
X10807543Y-15188531D02*
X10817067Y-15179008D01*
X10817067Y-15179008D02*
X10836115Y-15169484D01*
X10988496Y-15350436D02*
X10998019Y-15359960D01*
X10998019Y-15359960D02*
X10988496Y-15369484D01*
X10988496Y-15369484D02*
X10978972Y-15359960D01*
X10978972Y-15359960D02*
X10988496Y-15350436D01*
X10988496Y-15350436D02*
X10988496Y-15369484D01*
X11188496Y-15369484D02*
X11074210Y-15369484D01*
X11131353Y-15369484D02*
X11131353Y-15169484D01*
X11131353Y-15169484D02*
X11112305Y-15198055D01*
X11112305Y-15198055D02*
X11093258Y-15217103D01*
X11093258Y-15217103D02*
X11074210Y-15226627D01*
X11359924Y-15169484D02*
X11321829Y-15169484D01*
X11321829Y-15169484D02*
X11302781Y-15179008D01*
X11302781Y-15179008D02*
X11293257Y-15188531D01*
X11293257Y-15188531D02*
X11274210Y-15217103D01*
X11274210Y-15217103D02*
X11264686Y-15255198D01*
X11264686Y-15255198D02*
X11264686Y-15331388D01*
X11264686Y-15331388D02*
X11274210Y-15350436D01*
X11274210Y-15350436D02*
X11283734Y-15359960D01*
X11283734Y-15359960D02*
X11302781Y-15369484D01*
X11302781Y-15369484D02*
X11340877Y-15369484D01*
X11340877Y-15369484D02*
X11359924Y-15359960D01*
X11359924Y-15359960D02*
X11369448Y-15350436D01*
X11369448Y-15350436D02*
X11378972Y-15331388D01*
X11378972Y-15331388D02*
X11378972Y-15283769D01*
X11378972Y-15283769D02*
X11369448Y-15264722D01*
X11369448Y-15264722D02*
X11359924Y-15255198D01*
X11359924Y-15255198D02*
X11340877Y-15245674D01*
X11340877Y-15245674D02*
X11302781Y-15245674D01*
X11302781Y-15245674D02*
X11283734Y-15255198D01*
X11283734Y-15255198D02*
X11274210Y-15264722D01*
X11274210Y-15264722D02*
X11264686Y-15283769D01*
X11550400Y-15169484D02*
X11512305Y-15169484D01*
X11512305Y-15169484D02*
X11493257Y-15179008D01*
X11493257Y-15179008D02*
X11483734Y-15188531D01*
X11483734Y-15188531D02*
X11464686Y-15217103D01*
X11464686Y-15217103D02*
X11455162Y-15255198D01*
X11455162Y-15255198D02*
X11455162Y-15331388D01*
X11455162Y-15331388D02*
X11464686Y-15350436D01*
X11464686Y-15350436D02*
X11474210Y-15359960D01*
X11474210Y-15359960D02*
X11493257Y-15369484D01*
X11493257Y-15369484D02*
X11531353Y-15369484D01*
X11531353Y-15369484D02*
X11550400Y-15359960D01*
X11550400Y-15359960D02*
X11559924Y-15350436D01*
X11559924Y-15350436D02*
X11569448Y-15331388D01*
X11569448Y-15331388D02*
X11569448Y-15283769D01*
X11569448Y-15283769D02*
X11559924Y-15264722D01*
X11559924Y-15264722D02*
X11550400Y-15255198D01*
X11550400Y-15255198D02*
X11531353Y-15245674D01*
X11531353Y-15245674D02*
X11493257Y-15245674D01*
X11493257Y-15245674D02*
X11474210Y-15255198D01*
X11474210Y-15255198D02*
X11464686Y-15264722D01*
X11464686Y-15264722D02*
X11455162Y-15283769D01*
X11759924Y-15369484D02*
X11645638Y-15369484D01*
X11702781Y-15369484D02*
X11702781Y-15169484D01*
X11702781Y-15169484D02*
X11683734Y-15198055D01*
X11683734Y-15198055D02*
X11664686Y-15217103D01*
X11664686Y-15217103D02*
X11645638Y-15226627D01*
X11836115Y-15169484D02*
X11836115Y-15207579D01*
X11912305Y-15169484D02*
X11912305Y-15207579D01*
X12207543Y-15445674D02*
X12198019Y-15436150D01*
X12198019Y-15436150D02*
X12178972Y-15407579D01*
X12178972Y-15407579D02*
X12169448Y-15388531D01*
X12169448Y-15388531D02*
X12159924Y-15359960D01*
X12159924Y-15359960D02*
X12150400Y-15312341D01*
X12150400Y-15312341D02*
X12150400Y-15274246D01*
X12150400Y-15274246D02*
X12159924Y-15226627D01*
X12159924Y-15226627D02*
X12169448Y-15198055D01*
X12169448Y-15198055D02*
X12178972Y-15179008D01*
X12178972Y-15179008D02*
X12198019Y-15150436D01*
X12198019Y-15150436D02*
X12207543Y-15140912D01*
X12264686Y-15169484D02*
X12388496Y-15169484D01*
X12388496Y-15169484D02*
X12321829Y-15245674D01*
X12321829Y-15245674D02*
X12350400Y-15245674D01*
X12350400Y-15245674D02*
X12369448Y-15255198D01*
X12369448Y-15255198D02*
X12378972Y-15264722D01*
X12378972Y-15264722D02*
X12388496Y-15283769D01*
X12388496Y-15283769D02*
X12388496Y-15331388D01*
X12388496Y-15331388D02*
X12378972Y-15350436D01*
X12378972Y-15350436D02*
X12369448Y-15359960D01*
X12369448Y-15359960D02*
X12350400Y-15369484D01*
X12350400Y-15369484D02*
X12293258Y-15369484D01*
X12293258Y-15369484D02*
X12274210Y-15359960D01*
X12274210Y-15359960D02*
X12264686Y-15350436D01*
X12626591Y-15369484D02*
X12626591Y-15169484D01*
X12712305Y-15369484D02*
X12712305Y-15264722D01*
X12712305Y-15264722D02*
X12702781Y-15245674D01*
X12702781Y-15245674D02*
X12683734Y-15236150D01*
X12683734Y-15236150D02*
X12655162Y-15236150D01*
X12655162Y-15236150D02*
X12636115Y-15245674D01*
X12636115Y-15245674D02*
X12626591Y-15255198D01*
X12836115Y-15369484D02*
X12817067Y-15359960D01*
X12817067Y-15359960D02*
X12807543Y-15350436D01*
X12807543Y-15350436D02*
X12798020Y-15331388D01*
X12798020Y-15331388D02*
X12798020Y-15274246D01*
X12798020Y-15274246D02*
X12807543Y-15255198D01*
X12807543Y-15255198D02*
X12817067Y-15245674D01*
X12817067Y-15245674D02*
X12836115Y-15236150D01*
X12836115Y-15236150D02*
X12864686Y-15236150D01*
X12864686Y-15236150D02*
X12883734Y-15245674D01*
X12883734Y-15245674D02*
X12893258Y-15255198D01*
X12893258Y-15255198D02*
X12902781Y-15274246D01*
X12902781Y-15274246D02*
X12902781Y-15331388D01*
X12902781Y-15331388D02*
X12893258Y-15350436D01*
X12893258Y-15350436D02*
X12883734Y-15359960D01*
X12883734Y-15359960D02*
X12864686Y-15369484D01*
X12864686Y-15369484D02*
X12836115Y-15369484D01*
X13017067Y-15369484D02*
X12998020Y-15359960D01*
X12998020Y-15359960D02*
X12988496Y-15340912D01*
X12988496Y-15340912D02*
X12988496Y-15169484D01*
X13169448Y-15359960D02*
X13150401Y-15369484D01*
X13150401Y-15369484D02*
X13112305Y-15369484D01*
X13112305Y-15369484D02*
X13093258Y-15359960D01*
X13093258Y-15359960D02*
X13083734Y-15340912D01*
X13083734Y-15340912D02*
X13083734Y-15264722D01*
X13083734Y-15264722D02*
X13093258Y-15245674D01*
X13093258Y-15245674D02*
X13112305Y-15236150D01*
X13112305Y-15236150D02*
X13150401Y-15236150D01*
X13150401Y-15236150D02*
X13169448Y-15245674D01*
X13169448Y-15245674D02*
X13178972Y-15264722D01*
X13178972Y-15264722D02*
X13178972Y-15283769D01*
X13178972Y-15283769D02*
X13083734Y-15302817D01*
X13255162Y-15359960D02*
X13274210Y-15369484D01*
X13274210Y-15369484D02*
X13312305Y-15369484D01*
X13312305Y-15369484D02*
X13331353Y-15359960D01*
X13331353Y-15359960D02*
X13340877Y-15340912D01*
X13340877Y-15340912D02*
X13340877Y-15331388D01*
X13340877Y-15331388D02*
X13331353Y-15312341D01*
X13331353Y-15312341D02*
X13312305Y-15302817D01*
X13312305Y-15302817D02*
X13283734Y-15302817D01*
X13283734Y-15302817D02*
X13264686Y-15293293D01*
X13264686Y-15293293D02*
X13255162Y-15274246D01*
X13255162Y-15274246D02*
X13255162Y-15264722D01*
X13255162Y-15264722D02*
X13264686Y-15245674D01*
X13264686Y-15245674D02*
X13283734Y-15236150D01*
X13283734Y-15236150D02*
X13312305Y-15236150D01*
X13312305Y-15236150D02*
X13331353Y-15245674D01*
X13407543Y-15445674D02*
X13417067Y-15436150D01*
X13417067Y-15436150D02*
X13436115Y-15407579D01*
X13436115Y-15407579D02*
X13445639Y-15388531D01*
X13445639Y-15388531D02*
X13455162Y-15359960D01*
X13455162Y-15359960D02*
X13464686Y-15312341D01*
X13464686Y-15312341D02*
X13464686Y-15274246D01*
X13464686Y-15274246D02*
X13455162Y-15226627D01*
X13455162Y-15226627D02*
X13445639Y-15198055D01*
X13445639Y-15198055D02*
X13436115Y-15179008D01*
X13436115Y-15179008D02*
X13417067Y-15150436D01*
X13417067Y-15150436D02*
X13407543Y-15140912D01*
X13769448Y-15445674D02*
X13759924Y-15436150D01*
X13759924Y-15436150D02*
X13740877Y-15407579D01*
X13740877Y-15407579D02*
X13731353Y-15388531D01*
X13731353Y-15388531D02*
X13721829Y-15359960D01*
X13721829Y-15359960D02*
X13712305Y-15312341D01*
X13712305Y-15312341D02*
X13712305Y-15274246D01*
X13712305Y-15274246D02*
X13721829Y-15226627D01*
X13721829Y-15226627D02*
X13731353Y-15198055D01*
X13731353Y-15198055D02*
X13740877Y-15179008D01*
X13740877Y-15179008D02*
X13759924Y-15150436D01*
X13759924Y-15150436D02*
X13769448Y-15140912D01*
X13845639Y-15236150D02*
X13845639Y-15369484D01*
X13845639Y-15255198D02*
X13855162Y-15245674D01*
X13855162Y-15245674D02*
X13874210Y-15236150D01*
X13874210Y-15236150D02*
X13902782Y-15236150D01*
X13902782Y-15236150D02*
X13921829Y-15245674D01*
X13921829Y-15245674D02*
X13931353Y-15264722D01*
X13931353Y-15264722D02*
X13931353Y-15369484D01*
X14055162Y-15369484D02*
X14036115Y-15359960D01*
X14036115Y-15359960D02*
X14026591Y-15350436D01*
X14026591Y-15350436D02*
X14017067Y-15331388D01*
X14017067Y-15331388D02*
X14017067Y-15274246D01*
X14017067Y-15274246D02*
X14026591Y-15255198D01*
X14026591Y-15255198D02*
X14036115Y-15245674D01*
X14036115Y-15245674D02*
X14055162Y-15236150D01*
X14055162Y-15236150D02*
X14083734Y-15236150D01*
X14083734Y-15236150D02*
X14102782Y-15245674D01*
X14102782Y-15245674D02*
X14112305Y-15255198D01*
X14112305Y-15255198D02*
X14121829Y-15274246D01*
X14121829Y-15274246D02*
X14121829Y-15331388D01*
X14121829Y-15331388D02*
X14112305Y-15350436D01*
X14112305Y-15350436D02*
X14102782Y-15359960D01*
X14102782Y-15359960D02*
X14083734Y-15369484D01*
X14083734Y-15369484D02*
X14055162Y-15369484D01*
X14178972Y-15236150D02*
X14255162Y-15236150D01*
X14207543Y-15169484D02*
X14207543Y-15340912D01*
X14207543Y-15340912D02*
X14217067Y-15359960D01*
X14217067Y-15359960D02*
X14236115Y-15369484D01*
X14236115Y-15369484D02*
X14255162Y-15369484D01*
X14474210Y-15236150D02*
X14474210Y-15436150D01*
X14474210Y-15245674D02*
X14493258Y-15236150D01*
X14493258Y-15236150D02*
X14531353Y-15236150D01*
X14531353Y-15236150D02*
X14550401Y-15245674D01*
X14550401Y-15245674D02*
X14559924Y-15255198D01*
X14559924Y-15255198D02*
X14569448Y-15274246D01*
X14569448Y-15274246D02*
X14569448Y-15331388D01*
X14569448Y-15331388D02*
X14559924Y-15350436D01*
X14559924Y-15350436D02*
X14550401Y-15359960D01*
X14550401Y-15359960D02*
X14531353Y-15369484D01*
X14531353Y-15369484D02*
X14493258Y-15369484D01*
X14493258Y-15369484D02*
X14474210Y-15359960D01*
X14683734Y-15369484D02*
X14664686Y-15359960D01*
X14664686Y-15359960D02*
X14655163Y-15340912D01*
X14655163Y-15340912D02*
X14655163Y-15169484D01*
X14845639Y-15369484D02*
X14845639Y-15264722D01*
X14845639Y-15264722D02*
X14836115Y-15245674D01*
X14836115Y-15245674D02*
X14817067Y-15236150D01*
X14817067Y-15236150D02*
X14778972Y-15236150D01*
X14778972Y-15236150D02*
X14759924Y-15245674D01*
X14845639Y-15359960D02*
X14826591Y-15369484D01*
X14826591Y-15369484D02*
X14778972Y-15369484D01*
X14778972Y-15369484D02*
X14759924Y-15359960D01*
X14759924Y-15359960D02*
X14750401Y-15340912D01*
X14750401Y-15340912D02*
X14750401Y-15321865D01*
X14750401Y-15321865D02*
X14759924Y-15302817D01*
X14759924Y-15302817D02*
X14778972Y-15293293D01*
X14778972Y-15293293D02*
X14826591Y-15293293D01*
X14826591Y-15293293D02*
X14845639Y-15283769D01*
X14912305Y-15236150D02*
X14988496Y-15236150D01*
X14940877Y-15169484D02*
X14940877Y-15340912D01*
X14940877Y-15340912D02*
X14950401Y-15359960D01*
X14950401Y-15359960D02*
X14969448Y-15369484D01*
X14969448Y-15369484D02*
X14988496Y-15369484D01*
X15131353Y-15359960D02*
X15112305Y-15369484D01*
X15112305Y-15369484D02*
X15074210Y-15369484D01*
X15074210Y-15369484D02*
X15055163Y-15359960D01*
X15055163Y-15359960D02*
X15045639Y-15340912D01*
X15045639Y-15340912D02*
X15045639Y-15264722D01*
X15045639Y-15264722D02*
X15055163Y-15245674D01*
X15055163Y-15245674D02*
X15074210Y-15236150D01*
X15074210Y-15236150D02*
X15112305Y-15236150D01*
X15112305Y-15236150D02*
X15131353Y-15245674D01*
X15131353Y-15245674D02*
X15140877Y-15264722D01*
X15140877Y-15264722D02*
X15140877Y-15283769D01*
X15140877Y-15283769D02*
X15045639Y-15302817D01*
X15312305Y-15369484D02*
X15312305Y-15169484D01*
X15312305Y-15359960D02*
X15293258Y-15369484D01*
X15293258Y-15369484D02*
X15255163Y-15369484D01*
X15255163Y-15369484D02*
X15236115Y-15359960D01*
X15236115Y-15359960D02*
X15226591Y-15350436D01*
X15226591Y-15350436D02*
X15217067Y-15331388D01*
X15217067Y-15331388D02*
X15217067Y-15274246D01*
X15217067Y-15274246D02*
X15226591Y-15255198D01*
X15226591Y-15255198D02*
X15236115Y-15245674D01*
X15236115Y-15245674D02*
X15255163Y-15236150D01*
X15255163Y-15236150D02*
X15293258Y-15236150D01*
X15293258Y-15236150D02*
X15312305Y-15245674D01*
X15388496Y-15445674D02*
X15398020Y-15436150D01*
X15398020Y-15436150D02*
X15417067Y-15407579D01*
X15417067Y-15407579D02*
X15426591Y-15388531D01*
X15426591Y-15388531D02*
X15436115Y-15359960D01*
X15436115Y-15359960D02*
X15445639Y-15312341D01*
X15445639Y-15312341D02*
X15445639Y-15274246D01*
X15445639Y-15274246D02*
X15436115Y-15226627D01*
X15436115Y-15226627D02*
X15426591Y-15198055D01*
X15426591Y-15198055D02*
X15417067Y-15179008D01*
X15417067Y-15179008D02*
X15398020Y-15150436D01*
X15398020Y-15150436D02*
X15388496Y-15140912D01*
M02*
