%TF.GenerationSoftware,KiCad,Pcbnew,7.0.11-7.0.11~ubuntu22.04.1*%
%TF.CreationDate,2024-06-28T21:45:01-07:00*%
%TF.ProjectId,little_red_rover,6c697474-6c65-45f7-9265-645f726f7665,rev?*%
%TF.SameCoordinates,Original*%
%TF.FileFunction,Soldermask,Bot*%
%TF.FilePolarity,Negative*%
%FSLAX46Y46*%
G04 Gerber Fmt 4.6, Leading zero omitted, Abs format (unit mm)*
G04 Created by KiCad (PCBNEW 7.0.11-7.0.11~ubuntu22.04.1) date 2024-06-28 21:45:01*
%MOMM*%
%LPD*%
G01*
G04 APERTURE LIST*
%ADD10C,6.200000*%
%ADD11C,1.346200*%
%ADD12C,1.270000*%
%ADD13C,0.650000*%
%ADD14O,1.000000X2.100000*%
%ADD15O,1.000000X1.800000*%
%ADD16C,2.800000*%
%ADD17R,1.700000X1.700000*%
%ADD18O,1.700000X1.700000*%
G04 APERTURE END LIST*
D10*
%TO.C,MH1*%
X163520000Y-117900000D03*
%TD*%
D11*
%TO.C,U7*%
X202310000Y-86120000D03*
D12*
X200559938Y-83869999D03*
X200559938Y-88370000D03*
X202559939Y-88370000D03*
X202559939Y-83869999D03*
%TD*%
D13*
%TO.C,J1*%
X142310000Y-134595000D03*
X148090000Y-134595000D03*
D14*
X140880000Y-134095000D03*
D15*
X140880000Y-138275000D03*
D14*
X149520000Y-134095000D03*
D15*
X149520000Y-138275000D03*
%TD*%
D11*
%TO.C,U8*%
X202210062Y-113190000D03*
D12*
X200460000Y-110939999D03*
X200460000Y-115440000D03*
X202460001Y-115440000D03*
X202460001Y-110939999D03*
%TD*%
D16*
%TO.C,U10*%
X200180000Y-99500000D03*
%TD*%
D10*
%TO.C,MH2*%
X163520000Y-81900000D03*
%TD*%
D17*
%TO.C,J3*%
X133390000Y-69830000D03*
D18*
X135930000Y-69830000D03*
%TD*%
D17*
%TO.C,J4*%
X136500000Y-132200000D03*
D18*
X133960000Y-132200000D03*
%TD*%
D10*
%TO.C,MH3*%
X92220000Y-99900000D03*
%TD*%
D17*
%TO.C,J8*%
X161459293Y-65029293D03*
D18*
X161459293Y-62489293D03*
X158919293Y-65029293D03*
X158919293Y-62489293D03*
X156379293Y-65029293D03*
X156379293Y-62489293D03*
X153839293Y-65029293D03*
X153839293Y-62489293D03*
X151299293Y-65029293D03*
X151299293Y-62489293D03*
X148759293Y-65029293D03*
X148759293Y-62489293D03*
X146219293Y-65029293D03*
X146219293Y-62489293D03*
X143679293Y-65029293D03*
X143679293Y-62489293D03*
X141139293Y-65029293D03*
X141139293Y-62489293D03*
X138599293Y-65029293D03*
X138599293Y-62489293D03*
X136059293Y-65029293D03*
X136059293Y-62489293D03*
X133519293Y-65029293D03*
X133519293Y-62489293D03*
%TD*%
M02*
