%TF.GenerationSoftware,KiCad,Pcbnew,7.0.10-7.0.10~ubuntu22.04.1*%
%TF.CreationDate,2024-04-26T13:08:31-04:00*%
%TF.ProjectId,little_red_rover,6c697474-6c65-45f7-9265-645f726f7665,rev?*%
%TF.SameCoordinates,Original*%
%TF.FileFunction,Profile,NP*%
%FSLAX46Y46*%
G04 Gerber Fmt 4.6, Leading zero omitted, Abs format (unit mm)*
G04 Created by KiCad (PCBNEW 7.0.10-7.0.10~ubuntu22.04.1) date 2024-04-26 13:08:31*
%MOMM*%
%LPD*%
G01*
G04 APERTURE LIST*
%TA.AperFunction,Profile*%
%ADD10C,0.200000*%
%TD*%
G04 APERTURE END LIST*
D10*
X184024805Y-137000000D02*
X173424805Y-137000000D01*
X127524805Y-141000000D02*
X213724805Y-141000000D01*
X91508142Y-91000000D02*
X87400000Y-91000000D01*
X213724805Y-62900000D02*
X208724805Y-62900000D01*
X87008143Y-93000000D02*
G75*
G03*
X87008143Y-106800000I40516657J-6900000D01*
G01*
X173424805Y-81400000D02*
X184024805Y-81400000D01*
X173424805Y-116100000D02*
X184024805Y-116100000D01*
X213724805Y-60800000D02*
X208724805Y-60800000D01*
X184024805Y-60500000D02*
X173424805Y-60500000D01*
X87400000Y-108800000D02*
X91508142Y-108800000D01*
X173424805Y-137000000D02*
X173424805Y-139300000D01*
X208724805Y-136900000D02*
X208724805Y-139000000D01*
X159308423Y-104900000D02*
X146166333Y-117320432D01*
X127524805Y-58800000D02*
X213724805Y-58800000D01*
X91072096Y-106800000D02*
X87008142Y-106800000D01*
X139864729Y-83551414D02*
G75*
G03*
X139864729Y-116248586I31660071J-16348586D01*
G01*
X213724805Y-116400000D02*
X208724805Y-116400000D01*
X184024805Y-116100000D02*
X184024805Y-118400000D01*
X90105421Y-116900002D02*
G75*
G03*
X127524805Y-141000000I37419379J17000002D01*
G01*
X213724805Y-118500000D02*
X208724805Y-118500000D01*
X208724805Y-139000000D02*
X213724805Y-139000000D01*
X184024805Y-83700000D02*
X184024805Y-81400000D01*
X93592372Y-114900000D02*
G75*
G03*
X94548905Y-116900000I33932828J15000200D01*
G01*
X184024805Y-137000000D02*
X184024805Y-139300000D01*
X173424805Y-116100000D02*
X173424805Y-118400000D01*
X89259808Y-114900000D02*
X93592372Y-114900000D01*
X184024805Y-62800000D02*
X184024805Y-60500000D01*
X213724805Y-141000000D02*
X213724805Y-139000000D01*
X93592372Y-84900000D02*
X89259808Y-84900000D01*
X208724805Y-116400000D02*
X208724805Y-118500000D01*
X127524805Y-58800005D02*
G75*
G03*
X90105425Y-82900000I-5J-41099995D01*
G01*
X213724805Y-136900000D02*
X208724805Y-136900000D01*
X213724805Y-81300000D02*
X213724805Y-62900000D01*
X139864656Y-116248624D02*
G75*
G03*
X146166333Y-117320432I3554144J1835324D01*
G01*
X159308424Y-104900000D02*
G75*
G03*
X159308424Y-94900000I12216376J5000000D01*
G01*
X173424805Y-62800000D02*
X173424805Y-60500000D01*
X87399994Y-108800001D02*
G75*
G03*
X89259808Y-114900000I40124006J8899801D01*
G01*
X89259815Y-84900003D02*
G75*
G03*
X87400000Y-91000000I38265485J-15000197D01*
G01*
X94548905Y-82900000D02*
G75*
G03*
X93592372Y-84900000I32976295J-17000200D01*
G01*
X91072094Y-106800000D02*
G75*
G03*
X91508143Y-108800000I36453406J6900200D01*
G01*
X90105425Y-82900000D02*
X94548905Y-82900000D01*
X213724805Y-81300000D02*
X208724805Y-81300000D01*
X184024805Y-139300000D02*
X173424805Y-139300000D01*
X90105425Y-116900000D02*
X94548905Y-116900000D01*
X208724805Y-81300000D02*
X208724805Y-83400000D01*
X173424805Y-83700000D02*
X184024805Y-83700000D01*
X208724805Y-60800000D02*
X208724805Y-62900000D01*
X91508146Y-91000001D02*
G75*
G03*
X91072097Y-93000000I36017354J-8900199D01*
G01*
X208724805Y-83400000D02*
X213724805Y-83400000D01*
X146166276Y-82479629D02*
G75*
G03*
X139864730Y-83551414I-2747476J-2907071D01*
G01*
X159308423Y-94900000D02*
X146166333Y-82479568D01*
X173424805Y-83700000D02*
X173424805Y-81400000D01*
X173424805Y-118400000D02*
X184024805Y-118400000D01*
X213724805Y-60800000D02*
X213724805Y-58800000D01*
X91072096Y-93000000D02*
X87008142Y-93000000D01*
X184024805Y-62800000D02*
X173424805Y-62800000D01*
X213724805Y-116400000D02*
X213724805Y-83400000D01*
X213724805Y-136900000D02*
X213724805Y-118500000D01*
M02*
