%TF.GenerationSoftware,KiCad,Pcbnew,7.0.11-7.0.11~ubuntu22.04.1*%
%TF.CreationDate,2024-08-24T14:16:00-04:00*%
%TF.ProjectId,little_red_rover,6c697474-6c65-45f7-9265-645f726f7665,rev?*%
%TF.SameCoordinates,Original*%
%TF.FileFunction,Paste,Top*%
%TF.FilePolarity,Positive*%
%FSLAX46Y46*%
G04 Gerber Fmt 4.6, Leading zero omitted, Abs format (unit mm)*
G04 Created by KiCad (PCBNEW 7.0.11-7.0.11~ubuntu22.04.1) date 2024-08-24 14:16:00*
%MOMM*%
%LPD*%
G01*
G04 APERTURE LIST*
G04 Aperture macros list*
%AMRoundRect*
0 Rectangle with rounded corners*
0 $1 Rounding radius*
0 $2 $3 $4 $5 $6 $7 $8 $9 X,Y pos of 4 corners*
0 Add a 4 corners polygon primitive as box body*
4,1,4,$2,$3,$4,$5,$6,$7,$8,$9,$2,$3,0*
0 Add four circle primitives for the rounded corners*
1,1,$1+$1,$2,$3*
1,1,$1+$1,$4,$5*
1,1,$1+$1,$6,$7*
1,1,$1+$1,$8,$9*
0 Add four rect primitives between the rounded corners*
20,1,$1+$1,$2,$3,$4,$5,0*
20,1,$1+$1,$4,$5,$6,$7,0*
20,1,$1+$1,$6,$7,$8,$9,0*
20,1,$1+$1,$8,$9,$2,$3,0*%
%AMFreePoly0*
4,1,6,0.600000,-0.600000,-0.600000,-0.600000,-0.600000,0.000000,0.000000,0.600000,0.600000,0.600000,0.600000,-0.600000,0.600000,-0.600000,$1*%
G04 Aperture macros list end*
%ADD10RoundRect,0.237500X-0.300000X-0.237500X0.300000X-0.237500X0.300000X0.237500X-0.300000X0.237500X0*%
%ADD11RoundRect,0.237500X0.237500X-0.300000X0.237500X0.300000X-0.237500X0.300000X-0.237500X-0.300000X0*%
%ADD12R,1.000000X0.800000*%
%ADD13R,0.700000X1.500000*%
%ADD14RoundRect,0.237500X0.237500X-0.250000X0.237500X0.250000X-0.237500X0.250000X-0.237500X-0.250000X0*%
%ADD15RoundRect,0.160000X0.160000X-0.160000X0.160000X0.160000X-0.160000X0.160000X-0.160000X-0.160000X0*%
%ADD16RoundRect,0.062500X0.062500X-0.375000X0.062500X0.375000X-0.062500X0.375000X-0.062500X-0.375000X0*%
%ADD17RoundRect,0.062500X0.375000X-0.062500X0.375000X0.062500X-0.375000X0.062500X-0.375000X-0.062500X0*%
%ADD18RoundRect,0.237500X-0.237500X0.250000X-0.237500X-0.250000X0.237500X-0.250000X0.237500X0.250000X0*%
%ADD19RoundRect,0.237500X0.250000X0.237500X-0.250000X0.237500X-0.250000X-0.237500X0.250000X-0.237500X0*%
%ADD20RoundRect,0.237500X-0.250000X-0.237500X0.250000X-0.237500X0.250000X0.237500X-0.250000X0.237500X0*%
%ADD21RoundRect,0.250001X-0.462499X-0.849999X0.462499X-0.849999X0.462499X0.849999X-0.462499X0.849999X0*%
%ADD22RoundRect,0.150000X-0.150000X-0.425000X0.150000X-0.425000X0.150000X0.425000X-0.150000X0.425000X0*%
%ADD23RoundRect,0.075000X-0.075000X-0.500000X0.075000X-0.500000X0.075000X0.500000X-0.075000X0.500000X0*%
%ADD24O,1.000000X2.100000*%
%ADD25O,1.000000X1.800000*%
%ADD26RoundRect,0.237500X0.300000X0.237500X-0.300000X0.237500X-0.300000X-0.237500X0.300000X-0.237500X0*%
%ADD27R,0.750000X0.650000*%
%ADD28RoundRect,0.062500X-0.187500X-0.062500X0.187500X-0.062500X0.187500X0.062500X-0.187500X0.062500X0*%
%ADD29RoundRect,0.237500X-0.237500X0.300000X-0.237500X-0.300000X0.237500X-0.300000X0.237500X0.300000X0*%
%ADD30R,0.400000X0.800000*%
%ADD31R,0.800000X0.400000*%
%ADD32FreePoly0,270.000000*%
%ADD33R,1.200000X1.200000*%
%ADD34R,0.800000X0.800000*%
%ADD35RoundRect,0.237500X0.237500X-0.287500X0.237500X0.287500X-0.237500X0.287500X-0.237500X-0.287500X0*%
%ADD36R,1.250000X1.000000*%
%ADD37RoundRect,0.087500X-0.087500X0.225000X-0.087500X-0.225000X0.087500X-0.225000X0.087500X0.225000X0*%
%ADD38RoundRect,0.087500X-0.225000X0.087500X-0.225000X-0.087500X0.225000X-0.087500X0.225000X0.087500X0*%
%ADD39R,0.700000X0.700000*%
%ADD40RoundRect,0.162500X-0.162500X0.837500X-0.162500X-0.837500X0.162500X-0.837500X0.162500X0.837500X0*%
%ADD41RoundRect,0.150000X-0.512500X-0.150000X0.512500X-0.150000X0.512500X0.150000X-0.512500X0.150000X0*%
%ADD42RoundRect,0.150000X0.150000X-0.512500X0.150000X0.512500X-0.150000X0.512500X-0.150000X-0.512500X0*%
%ADD43R,1.701800X0.660400*%
%ADD44R,2.794000X1.092200*%
%ADD45RoundRect,0.162500X0.162500X-0.837500X0.162500X0.837500X-0.162500X0.837500X-0.162500X-0.837500X0*%
G04 APERTURE END LIST*
D10*
%TO.C,C4*%
X101567500Y-113690000D03*
X103292500Y-113690000D03*
%TD*%
%TO.C,C12*%
X101517500Y-115700000D03*
X103242500Y-115700000D03*
%TD*%
D11*
%TO.C,C7*%
X126010000Y-109172500D03*
X126010000Y-107447500D03*
%TD*%
D12*
%TO.C,SW4*%
X129880000Y-138095000D03*
X129880000Y-140305000D03*
X137180000Y-138095000D03*
X137180000Y-140305000D03*
D13*
X131280000Y-137445000D03*
X134280000Y-137445000D03*
X135780000Y-137445000D03*
%TD*%
D14*
%TO.C,R9*%
X207000000Y-112512500D03*
X207000000Y-110687500D03*
%TD*%
D15*
%TO.C,U2*%
X108150000Y-124057500D03*
X108950000Y-124057500D03*
X108150000Y-123257500D03*
X108950000Y-123257500D03*
D16*
X107800000Y-125095000D03*
X108300000Y-125095000D03*
X108800000Y-125095000D03*
X109300000Y-125095000D03*
D17*
X109987500Y-124407500D03*
X109987500Y-123907500D03*
X109987500Y-123407500D03*
X109987500Y-122907500D03*
D16*
X109300000Y-122220000D03*
X108800000Y-122220000D03*
X108300000Y-122220000D03*
X107800000Y-122220000D03*
D17*
X107112500Y-122907500D03*
X107112500Y-123407500D03*
X107112500Y-123907500D03*
X107112500Y-124407500D03*
%TD*%
D14*
%TO.C,R4*%
X104860000Y-121690000D03*
X104860000Y-119865000D03*
%TD*%
D18*
%TO.C,R5*%
X105250000Y-127095000D03*
X105250000Y-128920000D03*
%TD*%
D10*
%TO.C,C16*%
X98405000Y-100210000D03*
X100130000Y-100210000D03*
%TD*%
D14*
%TO.C,R15*%
X191510000Y-86490000D03*
X191510000Y-84665000D03*
%TD*%
D18*
%TO.C,R12*%
X152090000Y-137117500D03*
X152090000Y-138942500D03*
%TD*%
D19*
%TO.C,R19*%
X105282500Y-123857500D03*
X103457500Y-123857500D03*
%TD*%
D14*
%TO.C,R10*%
X125010000Y-99082500D03*
X125010000Y-97257500D03*
%TD*%
D20*
%TO.C,R2*%
X147287500Y-131600000D03*
X149112500Y-131600000D03*
%TD*%
D19*
%TO.C,R11*%
X134632500Y-133890000D03*
X132807500Y-133890000D03*
%TD*%
D21*
%TO.C,L2*%
X98167500Y-123810000D03*
X100492500Y-123810000D03*
%TD*%
D10*
%TO.C,C10*%
X127530000Y-86760000D03*
X129255000Y-86760000D03*
%TD*%
D22*
%TO.C,J1*%
X142000000Y-133520000D03*
X142800000Y-133520000D03*
D23*
X143950000Y-133520000D03*
X144950000Y-133520000D03*
X145450000Y-133520000D03*
X146450000Y-133520000D03*
D22*
X147600000Y-133520000D03*
X148400000Y-133520000D03*
X148400000Y-133520000D03*
X147600000Y-133520000D03*
D23*
X146950000Y-133520000D03*
X145950000Y-133520000D03*
X144450000Y-133520000D03*
X143450000Y-133520000D03*
D22*
X142800000Y-133520000D03*
X142000000Y-133520000D03*
D24*
X140880000Y-134095000D03*
D25*
X140880000Y-138275000D03*
D24*
X149520000Y-134095000D03*
D25*
X149520000Y-138275000D03*
%TD*%
D26*
%TO.C,C14*%
X206925000Y-109200000D03*
X205200000Y-109200000D03*
%TD*%
D18*
%TO.C,R13*%
X169625000Y-136627500D03*
X169625000Y-138452500D03*
%TD*%
D11*
%TO.C,C8*%
X125930000Y-86822500D03*
X125930000Y-85097500D03*
%TD*%
D27*
%TO.C,U5*%
X126730000Y-88460000D03*
X126730000Y-89260000D03*
D28*
X125780000Y-88110000D03*
X125780000Y-88610000D03*
X125780000Y-89110000D03*
X125780000Y-89610000D03*
X127680000Y-89610000D03*
X127680000Y-89110000D03*
X127680000Y-88610000D03*
X127680000Y-88110000D03*
%TD*%
D29*
%TO.C,C1*%
X103310000Y-119915000D03*
X103310000Y-121640000D03*
%TD*%
D30*
%TO.C,U10*%
X206130000Y-92500000D03*
X205280000Y-92500000D03*
X204430000Y-92500000D03*
X203580000Y-92500000D03*
X202730000Y-92500000D03*
X201880000Y-92500000D03*
X201030000Y-92500000D03*
X200180000Y-92500000D03*
X199330000Y-92500000D03*
X198480000Y-92500000D03*
X197630000Y-92500000D03*
X196780000Y-92500000D03*
X195930000Y-92500000D03*
X195080000Y-92500000D03*
X194230000Y-92500000D03*
D31*
X193180000Y-93550000D03*
X193180000Y-94400000D03*
X193180000Y-95250000D03*
X193180000Y-96100000D03*
X193180000Y-96950000D03*
X193180000Y-97800000D03*
X193180000Y-98650000D03*
X193180000Y-99500000D03*
X193180000Y-100350000D03*
X193180000Y-101200000D03*
X193180000Y-102050000D03*
X193180000Y-102900000D03*
X193180000Y-103750000D03*
X193180000Y-104600000D03*
X193180000Y-105450000D03*
D30*
X194230000Y-106500000D03*
X195080000Y-106500000D03*
X195930000Y-106500000D03*
X196780000Y-106500000D03*
X197630000Y-106500000D03*
X198480000Y-106500000D03*
X199330000Y-106500000D03*
X200180000Y-106500000D03*
X201030000Y-106500000D03*
X201880000Y-106500000D03*
X202730000Y-106500000D03*
X203580000Y-106500000D03*
X204430000Y-106500000D03*
X205280000Y-106500000D03*
X206130000Y-106500000D03*
D31*
X207180000Y-105450000D03*
X207180000Y-104600000D03*
X207180000Y-103750000D03*
X207180000Y-102900000D03*
X207180000Y-102050000D03*
X207180000Y-101200000D03*
X207180000Y-100350000D03*
X207180000Y-99500000D03*
X207180000Y-98650000D03*
X207180000Y-97800000D03*
X207180000Y-96950000D03*
X207180000Y-96100000D03*
X207180000Y-95250000D03*
X207180000Y-94400000D03*
X207180000Y-93550000D03*
D32*
X201830000Y-97850000D03*
D33*
X200180000Y-97850000D03*
X198530000Y-97850000D03*
X201830000Y-99500000D03*
X200180000Y-99500000D03*
X198530000Y-99500000D03*
X201830000Y-101150000D03*
X200180000Y-101150000D03*
X198530000Y-101150000D03*
D34*
X207180000Y-92500000D03*
X193180000Y-92500000D03*
X193180000Y-106500000D03*
X207180000Y-106500000D03*
%TD*%
D10*
%TO.C,C11*%
X103207500Y-117300000D03*
X104932500Y-117300000D03*
%TD*%
D19*
%TO.C,R6*%
X109862500Y-108507500D03*
X108037500Y-108507500D03*
%TD*%
D35*
%TO.C,D7*%
X153833333Y-138882500D03*
X153833333Y-137132500D03*
%TD*%
D18*
%TO.C,R17*%
X198780000Y-88057500D03*
X198780000Y-89882500D03*
%TD*%
D11*
%TO.C,C5*%
X108700000Y-128880000D03*
X108700000Y-127155000D03*
%TD*%
D10*
%TO.C,C9*%
X127567500Y-109280000D03*
X129292500Y-109280000D03*
%TD*%
D35*
%TO.C,D8*%
X157320000Y-138882500D03*
X157320000Y-137132500D03*
%TD*%
D27*
%TO.C,U6*%
X126880000Y-110860000D03*
X126880000Y-111660000D03*
D28*
X125930000Y-110510000D03*
X125930000Y-111010000D03*
X125930000Y-111510000D03*
X125930000Y-112010000D03*
X127830000Y-112010000D03*
X127830000Y-111510000D03*
X127830000Y-111010000D03*
X127830000Y-110510000D03*
%TD*%
D36*
%TO.C,SW2*%
X99705000Y-72520000D03*
X107455000Y-72520000D03*
%TD*%
D37*
%TO.C,U9*%
X188260000Y-84415000D03*
X187760000Y-84415000D03*
X187260000Y-84415000D03*
X186760000Y-84415000D03*
D38*
X186597500Y-85077500D03*
X186597500Y-85577500D03*
X186597500Y-86077500D03*
D37*
X186760000Y-86740000D03*
X187260000Y-86740000D03*
X187760000Y-86740000D03*
X188260000Y-86740000D03*
D38*
X188422500Y-86077500D03*
X188422500Y-85577500D03*
X188422500Y-85077500D03*
%TD*%
D10*
%TO.C,C6*%
X109517500Y-72520000D03*
X111242500Y-72520000D03*
%TD*%
D29*
%TO.C,C3*%
X110360000Y-112865000D03*
X110360000Y-114590000D03*
%TD*%
D36*
%TO.C,SW1*%
X99705000Y-77720000D03*
X107455000Y-77720000D03*
%TD*%
D39*
%TO.C,D5*%
X160970000Y-138490000D03*
X160970000Y-137390000D03*
X159140000Y-137390000D03*
X159140000Y-138490000D03*
%TD*%
D19*
%TO.C,R1*%
X143112500Y-131600000D03*
X141287500Y-131600000D03*
%TD*%
D26*
%TO.C,C13*%
X111242500Y-77720000D03*
X109517500Y-77720000D03*
%TD*%
D39*
%TO.C,D3*%
X168055000Y-138540000D03*
X168055000Y-137440000D03*
X166225000Y-137440000D03*
X166225000Y-138540000D03*
%TD*%
D40*
%TO.C,Q2*%
X105340000Y-107067500D03*
X103440000Y-107067500D03*
X104390000Y-110487500D03*
%TD*%
D29*
%TO.C,C2*%
X110140000Y-118925000D03*
X110140000Y-120650000D03*
%TD*%
D18*
%TO.C,R3*%
X107060000Y-127085000D03*
X107060000Y-128910000D03*
%TD*%
%TO.C,R16*%
X194630000Y-88087500D03*
X194630000Y-89912500D03*
%TD*%
%TO.C,R20*%
X203250000Y-86750000D03*
X203250000Y-88575000D03*
%TD*%
D14*
%TO.C,R14*%
X193110000Y-86490000D03*
X193110000Y-84665000D03*
%TD*%
D39*
%TO.C,D4*%
X164555000Y-138540000D03*
X164555000Y-137440000D03*
X162725000Y-137440000D03*
X162725000Y-138540000D03*
%TD*%
D18*
%TO.C,R18*%
X155576666Y-137117500D03*
X155576666Y-138942500D03*
%TD*%
D41*
%TO.C,U3*%
X106142500Y-112517500D03*
X106142500Y-113467500D03*
X106142500Y-114417500D03*
X108417500Y-114417500D03*
X108417500Y-112517500D03*
%TD*%
D36*
%TO.C,SW3*%
X99705000Y-82920000D03*
X107455000Y-82920000D03*
%TD*%
D19*
%TO.C,R7*%
X136412500Y-135500000D03*
X134587500Y-135500000D03*
%TD*%
D42*
%TO.C,U4*%
X99647500Y-121195000D03*
X100597500Y-121195000D03*
X101547500Y-121195000D03*
X101547500Y-118920000D03*
X99647500Y-118920000D03*
%TD*%
D26*
%TO.C,C15*%
X111242500Y-82920000D03*
X109517500Y-82920000D03*
%TD*%
D43*
%TO.C,J2*%
X102784300Y-101915000D03*
X102784300Y-100665000D03*
X102784300Y-99415000D03*
X102784300Y-98165000D03*
D44*
X105860000Y-103840000D03*
X105860000Y-96240000D03*
%TD*%
D45*
%TO.C,Q1*%
X106650000Y-120247500D03*
X108550000Y-120247500D03*
X107600000Y-116827500D03*
%TD*%
D14*
%TO.C,R8*%
X125000000Y-95162500D03*
X125000000Y-93337500D03*
%TD*%
M02*
