%TF.GenerationSoftware,KiCad,Pcbnew,7.0.11-7.0.11~ubuntu22.04.1*%
%TF.CreationDate,2024-06-28T21:44:56-07:00*%
%TF.ProjectId,little_red_rover,6c697474-6c65-45f7-9265-645f726f7665,rev?*%
%TF.SameCoordinates,Original*%
%TF.FileFunction,Drillmap*%
%TF.FilePolarity,Positive*%
%FSLAX45Y45*%
G04 Gerber Fmt 4.5, Leading zero omitted, Abs format (unit mm)*
G04 Created by KiCad (PCBNEW 7.0.11-7.0.11~ubuntu22.04.1) date 2024-06-28 21:44:56*
%MOMM*%
%LPD*%
G01*
G04 APERTURE LIST*
%ADD10C,0.200000*%
%ADD11C,0.100000*%
%ADD12C,0.134620*%
%ADD13C,0.422000*%
G04 APERTURE END LIST*
D10*
X9352165Y-8505000D02*
X8919654Y-8505000D01*
X21372000Y-13685000D02*
X21372000Y-11855000D01*
X20872000Y-6065000D02*
X21372000Y-6065000D01*
X13985992Y-8355141D02*
G75*
G03*
X13985992Y-11624859I3166008J-1634859D01*
G01*
X9154074Y-9085000D02*
X8742876Y-9085000D01*
X21372000Y-11625000D02*
X21372000Y-8355000D01*
X21372000Y-13915000D02*
X20872000Y-13915000D01*
X18402000Y-11610000D02*
X18402000Y-11840000D01*
X8697808Y-9315000D02*
G75*
G03*
X8697808Y-10665000I4054192J-675000D01*
G01*
X18402000Y-13700000D02*
X18402000Y-13930000D01*
X21372000Y-8125000D02*
X21372000Y-6295000D01*
X17342000Y-8370000D02*
X18402000Y-8370000D01*
X20872000Y-13685000D02*
X20872000Y-13915000D01*
X9462186Y-8275000D02*
G75*
G03*
X9352165Y-8505000I3289874J-1715030D01*
G01*
X21372000Y-8125000D02*
X20872000Y-8125000D01*
X21372000Y-6295000D02*
X20872000Y-6295000D01*
X20872000Y-6065000D02*
X20872000Y-6295000D01*
X17342000Y-8140000D02*
X18402000Y-8140000D01*
X17342000Y-11610000D02*
X17342000Y-11840000D01*
X15930362Y-9490000D02*
X14616153Y-8247957D01*
X9016913Y-11705000D02*
X9462186Y-11705000D01*
X21372000Y-13685000D02*
X20872000Y-13685000D01*
X8742876Y-10895000D02*
X9154074Y-10895000D01*
X17342000Y-6280000D02*
X17342000Y-6050000D01*
X9103922Y-9315000D02*
X8697808Y-9315000D01*
X8742876Y-10895000D02*
G75*
G03*
X8919654Y-11475000I4009144J905010D01*
G01*
X18402000Y-8370000D02*
X18402000Y-8140000D01*
X15930362Y-10490000D02*
G75*
G03*
X15930362Y-9490000I1221638J500000D01*
G01*
X8919654Y-11475000D02*
X9352165Y-11475000D01*
X12752000Y-14100000D02*
X21372000Y-14100000D01*
X13985986Y-11624862D02*
G75*
G03*
X14616153Y-11732043I355414J183532D01*
G01*
X9103922Y-10665000D02*
X8697808Y-10665000D01*
X20872000Y-8355000D02*
X21372000Y-8355000D01*
X21372000Y-14100000D02*
X21372000Y-13915000D01*
X18402000Y-13930000D02*
X17342000Y-13930000D01*
X17342000Y-11610000D02*
X18402000Y-11610000D01*
X21372000Y-11625000D02*
X20872000Y-11625000D01*
X17342000Y-13700000D02*
X17342000Y-13930000D01*
X21372000Y-6065000D02*
X21372000Y-5880000D01*
X17342000Y-11840000D02*
X18402000Y-11840000D01*
X20872000Y-8125000D02*
X20872000Y-8355000D01*
X18402000Y-6050000D02*
X17342000Y-6050000D01*
X15930362Y-10490000D02*
X14616153Y-11732043D01*
X20872000Y-11625000D02*
X20872000Y-11855000D01*
X9016913Y-11705000D02*
G75*
G03*
X12752000Y-14100000I3735087J1715000D01*
G01*
X21372000Y-11855000D02*
X20872000Y-11855000D01*
X9352165Y-11475000D02*
G75*
G03*
X9462186Y-11705000I3399895J1485030D01*
G01*
X9103922Y-10665000D02*
G75*
G03*
X9154074Y-10895000I3648038J674990D01*
G01*
X18402000Y-6280000D02*
X17342000Y-6280000D01*
X12752000Y-5880000D02*
X21372000Y-5880000D01*
X17342000Y-8370000D02*
X17342000Y-8140000D01*
X9016913Y-8275000D02*
X9462186Y-8275000D01*
X12752000Y-5880000D02*
G75*
G03*
X9016913Y-8275000I0J-4110000D01*
G01*
X18402000Y-13700000D02*
X17342000Y-13700000D01*
X8919655Y-8505000D02*
G75*
G03*
X8742876Y-9085000I3832365J-1485010D01*
G01*
X18402000Y-6280000D02*
X18402000Y-6050000D01*
X14616148Y-8247962D02*
G75*
G03*
X13985992Y-8355141I-274748J-290708D01*
G01*
X9154074Y-9085000D02*
G75*
G03*
X9103922Y-9315000I3597696J-904950D01*
G01*
D11*
X14198500Y-13427000D02*
X14263500Y-13492000D01*
X14263500Y-13427000D02*
X14198500Y-13492000D01*
X14776500Y-13427000D02*
X14841500Y-13492000D01*
X14841500Y-13427000D02*
X14776500Y-13492000D01*
D12*
X20288316Y-11319000D02*
G75*
G03*
X20153696Y-11319000I-67310J0D01*
G01*
X20153696Y-11319000D02*
G75*
G03*
X20288316Y-11319000I67310J0D01*
G01*
X20298310Y-8612000D02*
G75*
G03*
X20163690Y-8612000I-67310J0D01*
G01*
X20163690Y-8612000D02*
G75*
G03*
X20298310Y-8612000I67310J0D01*
G01*
D13*
X9222000Y-9779000D02*
X9222000Y-10201000D01*
X9011000Y-9990000D02*
X9433000Y-9990000D01*
X16352000Y-7979000D02*
X16352000Y-8401000D01*
X16141000Y-8190000D02*
X16563000Y-8190000D01*
X16352000Y-11579000D02*
X16352000Y-12001000D01*
X16141000Y-11790000D02*
X16563000Y-11790000D01*
D10*
X8892777Y-14421484D02*
X8892777Y-14221484D01*
X8892777Y-14221484D02*
X8940396Y-14221484D01*
X8940396Y-14221484D02*
X8968967Y-14231008D01*
X8968967Y-14231008D02*
X8988015Y-14250055D01*
X8988015Y-14250055D02*
X8997539Y-14269103D01*
X8997539Y-14269103D02*
X9007063Y-14307198D01*
X9007063Y-14307198D02*
X9007063Y-14335769D01*
X9007063Y-14335769D02*
X8997539Y-14373865D01*
X8997539Y-14373865D02*
X8988015Y-14392912D01*
X8988015Y-14392912D02*
X8968967Y-14411960D01*
X8968967Y-14411960D02*
X8940396Y-14421484D01*
X8940396Y-14421484D02*
X8892777Y-14421484D01*
X9092777Y-14421484D02*
X9092777Y-14288150D01*
X9092777Y-14326246D02*
X9102301Y-14307198D01*
X9102301Y-14307198D02*
X9111824Y-14297674D01*
X9111824Y-14297674D02*
X9130872Y-14288150D01*
X9130872Y-14288150D02*
X9149920Y-14288150D01*
X9216586Y-14421484D02*
X9216586Y-14288150D01*
X9216586Y-14221484D02*
X9207063Y-14231008D01*
X9207063Y-14231008D02*
X9216586Y-14240531D01*
X9216586Y-14240531D02*
X9226110Y-14231008D01*
X9226110Y-14231008D02*
X9216586Y-14221484D01*
X9216586Y-14221484D02*
X9216586Y-14240531D01*
X9340396Y-14421484D02*
X9321348Y-14411960D01*
X9321348Y-14411960D02*
X9311824Y-14392912D01*
X9311824Y-14392912D02*
X9311824Y-14221484D01*
X9445158Y-14421484D02*
X9426110Y-14411960D01*
X9426110Y-14411960D02*
X9416586Y-14392912D01*
X9416586Y-14392912D02*
X9416586Y-14221484D01*
X9673729Y-14421484D02*
X9673729Y-14221484D01*
X9673729Y-14221484D02*
X9740396Y-14364341D01*
X9740396Y-14364341D02*
X9807063Y-14221484D01*
X9807063Y-14221484D02*
X9807063Y-14421484D01*
X9988015Y-14421484D02*
X9988015Y-14316722D01*
X9988015Y-14316722D02*
X9978491Y-14297674D01*
X9978491Y-14297674D02*
X9959444Y-14288150D01*
X9959444Y-14288150D02*
X9921348Y-14288150D01*
X9921348Y-14288150D02*
X9902301Y-14297674D01*
X9988015Y-14411960D02*
X9968967Y-14421484D01*
X9968967Y-14421484D02*
X9921348Y-14421484D01*
X9921348Y-14421484D02*
X9902301Y-14411960D01*
X9902301Y-14411960D02*
X9892777Y-14392912D01*
X9892777Y-14392912D02*
X9892777Y-14373865D01*
X9892777Y-14373865D02*
X9902301Y-14354817D01*
X9902301Y-14354817D02*
X9921348Y-14345293D01*
X9921348Y-14345293D02*
X9968967Y-14345293D01*
X9968967Y-14345293D02*
X9988015Y-14335769D01*
X10083253Y-14288150D02*
X10083253Y-14488150D01*
X10083253Y-14297674D02*
X10102301Y-14288150D01*
X10102301Y-14288150D02*
X10140396Y-14288150D01*
X10140396Y-14288150D02*
X10159444Y-14297674D01*
X10159444Y-14297674D02*
X10168967Y-14307198D01*
X10168967Y-14307198D02*
X10178491Y-14326246D01*
X10178491Y-14326246D02*
X10178491Y-14383388D01*
X10178491Y-14383388D02*
X10168967Y-14402436D01*
X10168967Y-14402436D02*
X10159444Y-14411960D01*
X10159444Y-14411960D02*
X10140396Y-14421484D01*
X10140396Y-14421484D02*
X10102301Y-14421484D01*
X10102301Y-14421484D02*
X10083253Y-14411960D01*
X10264205Y-14402436D02*
X10273729Y-14411960D01*
X10273729Y-14411960D02*
X10264205Y-14421484D01*
X10264205Y-14421484D02*
X10254682Y-14411960D01*
X10254682Y-14411960D02*
X10264205Y-14402436D01*
X10264205Y-14402436D02*
X10264205Y-14421484D01*
X10264205Y-14297674D02*
X10273729Y-14307198D01*
X10273729Y-14307198D02*
X10264205Y-14316722D01*
X10264205Y-14316722D02*
X10254682Y-14307198D01*
X10254682Y-14307198D02*
X10264205Y-14297674D01*
X10264205Y-14297674D02*
X10264205Y-14316722D01*
D11*
X8567000Y-14717500D02*
X8632000Y-14782500D01*
X8632000Y-14717500D02*
X8567000Y-14782500D01*
D10*
X8930872Y-14641484D02*
X8949920Y-14641484D01*
X8949920Y-14641484D02*
X8968967Y-14651008D01*
X8968967Y-14651008D02*
X8978491Y-14660531D01*
X8978491Y-14660531D02*
X8988015Y-14679579D01*
X8988015Y-14679579D02*
X8997539Y-14717674D01*
X8997539Y-14717674D02*
X8997539Y-14765293D01*
X8997539Y-14765293D02*
X8988015Y-14803388D01*
X8988015Y-14803388D02*
X8978491Y-14822436D01*
X8978491Y-14822436D02*
X8968967Y-14831960D01*
X8968967Y-14831960D02*
X8949920Y-14841484D01*
X8949920Y-14841484D02*
X8930872Y-14841484D01*
X8930872Y-14841484D02*
X8911824Y-14831960D01*
X8911824Y-14831960D02*
X8902301Y-14822436D01*
X8902301Y-14822436D02*
X8892777Y-14803388D01*
X8892777Y-14803388D02*
X8883253Y-14765293D01*
X8883253Y-14765293D02*
X8883253Y-14717674D01*
X8883253Y-14717674D02*
X8892777Y-14679579D01*
X8892777Y-14679579D02*
X8902301Y-14660531D01*
X8902301Y-14660531D02*
X8911824Y-14651008D01*
X8911824Y-14651008D02*
X8930872Y-14641484D01*
X9083253Y-14822436D02*
X9092777Y-14831960D01*
X9092777Y-14831960D02*
X9083253Y-14841484D01*
X9083253Y-14841484D02*
X9073729Y-14831960D01*
X9073729Y-14831960D02*
X9083253Y-14822436D01*
X9083253Y-14822436D02*
X9083253Y-14841484D01*
X9264205Y-14641484D02*
X9226110Y-14641484D01*
X9226110Y-14641484D02*
X9207063Y-14651008D01*
X9207063Y-14651008D02*
X9197539Y-14660531D01*
X9197539Y-14660531D02*
X9178491Y-14689103D01*
X9178491Y-14689103D02*
X9168967Y-14727198D01*
X9168967Y-14727198D02*
X9168967Y-14803388D01*
X9168967Y-14803388D02*
X9178491Y-14822436D01*
X9178491Y-14822436D02*
X9188015Y-14831960D01*
X9188015Y-14831960D02*
X9207063Y-14841484D01*
X9207063Y-14841484D02*
X9245158Y-14841484D01*
X9245158Y-14841484D02*
X9264205Y-14831960D01*
X9264205Y-14831960D02*
X9273729Y-14822436D01*
X9273729Y-14822436D02*
X9283253Y-14803388D01*
X9283253Y-14803388D02*
X9283253Y-14755769D01*
X9283253Y-14755769D02*
X9273729Y-14736722D01*
X9273729Y-14736722D02*
X9264205Y-14727198D01*
X9264205Y-14727198D02*
X9245158Y-14717674D01*
X9245158Y-14717674D02*
X9207063Y-14717674D01*
X9207063Y-14717674D02*
X9188015Y-14727198D01*
X9188015Y-14727198D02*
X9178491Y-14736722D01*
X9178491Y-14736722D02*
X9168967Y-14755769D01*
X9464205Y-14641484D02*
X9368967Y-14641484D01*
X9368967Y-14641484D02*
X9359444Y-14736722D01*
X9359444Y-14736722D02*
X9368967Y-14727198D01*
X9368967Y-14727198D02*
X9388015Y-14717674D01*
X9388015Y-14717674D02*
X9435634Y-14717674D01*
X9435634Y-14717674D02*
X9454682Y-14727198D01*
X9454682Y-14727198D02*
X9464205Y-14736722D01*
X9464205Y-14736722D02*
X9473729Y-14755769D01*
X9473729Y-14755769D02*
X9473729Y-14803388D01*
X9473729Y-14803388D02*
X9464205Y-14822436D01*
X9464205Y-14822436D02*
X9454682Y-14831960D01*
X9454682Y-14831960D02*
X9435634Y-14841484D01*
X9435634Y-14841484D02*
X9388015Y-14841484D01*
X9388015Y-14841484D02*
X9368967Y-14831960D01*
X9368967Y-14831960D02*
X9359444Y-14822436D01*
X9597539Y-14641484D02*
X9616586Y-14641484D01*
X9616586Y-14641484D02*
X9635634Y-14651008D01*
X9635634Y-14651008D02*
X9645158Y-14660531D01*
X9645158Y-14660531D02*
X9654682Y-14679579D01*
X9654682Y-14679579D02*
X9664205Y-14717674D01*
X9664205Y-14717674D02*
X9664205Y-14765293D01*
X9664205Y-14765293D02*
X9654682Y-14803388D01*
X9654682Y-14803388D02*
X9645158Y-14822436D01*
X9645158Y-14822436D02*
X9635634Y-14831960D01*
X9635634Y-14831960D02*
X9616586Y-14841484D01*
X9616586Y-14841484D02*
X9597539Y-14841484D01*
X9597539Y-14841484D02*
X9578491Y-14831960D01*
X9578491Y-14831960D02*
X9568967Y-14822436D01*
X9568967Y-14822436D02*
X9559444Y-14803388D01*
X9559444Y-14803388D02*
X9549920Y-14765293D01*
X9549920Y-14765293D02*
X9549920Y-14717674D01*
X9549920Y-14717674D02*
X9559444Y-14679579D01*
X9559444Y-14679579D02*
X9568967Y-14660531D01*
X9568967Y-14660531D02*
X9578491Y-14651008D01*
X9578491Y-14651008D02*
X9597539Y-14641484D01*
X9749920Y-14841484D02*
X9749920Y-14708150D01*
X9749920Y-14727198D02*
X9759444Y-14717674D01*
X9759444Y-14717674D02*
X9778491Y-14708150D01*
X9778491Y-14708150D02*
X9807063Y-14708150D01*
X9807063Y-14708150D02*
X9826110Y-14717674D01*
X9826110Y-14717674D02*
X9835634Y-14736722D01*
X9835634Y-14736722D02*
X9835634Y-14841484D01*
X9835634Y-14736722D02*
X9845158Y-14717674D01*
X9845158Y-14717674D02*
X9864205Y-14708150D01*
X9864205Y-14708150D02*
X9892777Y-14708150D01*
X9892777Y-14708150D02*
X9911825Y-14717674D01*
X9911825Y-14717674D02*
X9921348Y-14736722D01*
X9921348Y-14736722D02*
X9921348Y-14841484D01*
X10016586Y-14841484D02*
X10016586Y-14708150D01*
X10016586Y-14727198D02*
X10026110Y-14717674D01*
X10026110Y-14717674D02*
X10045158Y-14708150D01*
X10045158Y-14708150D02*
X10073729Y-14708150D01*
X10073729Y-14708150D02*
X10092777Y-14717674D01*
X10092777Y-14717674D02*
X10102301Y-14736722D01*
X10102301Y-14736722D02*
X10102301Y-14841484D01*
X10102301Y-14736722D02*
X10111825Y-14717674D01*
X10111825Y-14717674D02*
X10130872Y-14708150D01*
X10130872Y-14708150D02*
X10159444Y-14708150D01*
X10159444Y-14708150D02*
X10178491Y-14717674D01*
X10178491Y-14717674D02*
X10188015Y-14736722D01*
X10188015Y-14736722D02*
X10188015Y-14841484D01*
X10578491Y-14631960D02*
X10407063Y-14889103D01*
X10835634Y-14641484D02*
X10854682Y-14641484D01*
X10854682Y-14641484D02*
X10873729Y-14651008D01*
X10873729Y-14651008D02*
X10883253Y-14660531D01*
X10883253Y-14660531D02*
X10892777Y-14679579D01*
X10892777Y-14679579D02*
X10902301Y-14717674D01*
X10902301Y-14717674D02*
X10902301Y-14765293D01*
X10902301Y-14765293D02*
X10892777Y-14803388D01*
X10892777Y-14803388D02*
X10883253Y-14822436D01*
X10883253Y-14822436D02*
X10873729Y-14831960D01*
X10873729Y-14831960D02*
X10854682Y-14841484D01*
X10854682Y-14841484D02*
X10835634Y-14841484D01*
X10835634Y-14841484D02*
X10816587Y-14831960D01*
X10816587Y-14831960D02*
X10807063Y-14822436D01*
X10807063Y-14822436D02*
X10797539Y-14803388D01*
X10797539Y-14803388D02*
X10788015Y-14765293D01*
X10788015Y-14765293D02*
X10788015Y-14717674D01*
X10788015Y-14717674D02*
X10797539Y-14679579D01*
X10797539Y-14679579D02*
X10807063Y-14660531D01*
X10807063Y-14660531D02*
X10816587Y-14651008D01*
X10816587Y-14651008D02*
X10835634Y-14641484D01*
X10988015Y-14822436D02*
X10997539Y-14831960D01*
X10997539Y-14831960D02*
X10988015Y-14841484D01*
X10988015Y-14841484D02*
X10978491Y-14831960D01*
X10978491Y-14831960D02*
X10988015Y-14822436D01*
X10988015Y-14822436D02*
X10988015Y-14841484D01*
X11121348Y-14641484D02*
X11140396Y-14641484D01*
X11140396Y-14641484D02*
X11159444Y-14651008D01*
X11159444Y-14651008D02*
X11168968Y-14660531D01*
X11168968Y-14660531D02*
X11178491Y-14679579D01*
X11178491Y-14679579D02*
X11188015Y-14717674D01*
X11188015Y-14717674D02*
X11188015Y-14765293D01*
X11188015Y-14765293D02*
X11178491Y-14803388D01*
X11178491Y-14803388D02*
X11168968Y-14822436D01*
X11168968Y-14822436D02*
X11159444Y-14831960D01*
X11159444Y-14831960D02*
X11140396Y-14841484D01*
X11140396Y-14841484D02*
X11121348Y-14841484D01*
X11121348Y-14841484D02*
X11102301Y-14831960D01*
X11102301Y-14831960D02*
X11092777Y-14822436D01*
X11092777Y-14822436D02*
X11083253Y-14803388D01*
X11083253Y-14803388D02*
X11073729Y-14765293D01*
X11073729Y-14765293D02*
X11073729Y-14717674D01*
X11073729Y-14717674D02*
X11083253Y-14679579D01*
X11083253Y-14679579D02*
X11092777Y-14660531D01*
X11092777Y-14660531D02*
X11102301Y-14651008D01*
X11102301Y-14651008D02*
X11121348Y-14641484D01*
X11264206Y-14660531D02*
X11273729Y-14651008D01*
X11273729Y-14651008D02*
X11292777Y-14641484D01*
X11292777Y-14641484D02*
X11340396Y-14641484D01*
X11340396Y-14641484D02*
X11359444Y-14651008D01*
X11359444Y-14651008D02*
X11368967Y-14660531D01*
X11368967Y-14660531D02*
X11378491Y-14679579D01*
X11378491Y-14679579D02*
X11378491Y-14698627D01*
X11378491Y-14698627D02*
X11368967Y-14727198D01*
X11368967Y-14727198D02*
X11254682Y-14841484D01*
X11254682Y-14841484D02*
X11378491Y-14841484D01*
X11559444Y-14641484D02*
X11464206Y-14641484D01*
X11464206Y-14641484D02*
X11454682Y-14736722D01*
X11454682Y-14736722D02*
X11464206Y-14727198D01*
X11464206Y-14727198D02*
X11483253Y-14717674D01*
X11483253Y-14717674D02*
X11530872Y-14717674D01*
X11530872Y-14717674D02*
X11549920Y-14727198D01*
X11549920Y-14727198D02*
X11559444Y-14736722D01*
X11559444Y-14736722D02*
X11568967Y-14755769D01*
X11568967Y-14755769D02*
X11568967Y-14803388D01*
X11568967Y-14803388D02*
X11559444Y-14822436D01*
X11559444Y-14822436D02*
X11549920Y-14831960D01*
X11549920Y-14831960D02*
X11530872Y-14841484D01*
X11530872Y-14841484D02*
X11483253Y-14841484D01*
X11483253Y-14841484D02*
X11464206Y-14831960D01*
X11464206Y-14831960D02*
X11454682Y-14822436D01*
X11740396Y-14641484D02*
X11702301Y-14641484D01*
X11702301Y-14641484D02*
X11683253Y-14651008D01*
X11683253Y-14651008D02*
X11673729Y-14660531D01*
X11673729Y-14660531D02*
X11654682Y-14689103D01*
X11654682Y-14689103D02*
X11645158Y-14727198D01*
X11645158Y-14727198D02*
X11645158Y-14803388D01*
X11645158Y-14803388D02*
X11654682Y-14822436D01*
X11654682Y-14822436D02*
X11664206Y-14831960D01*
X11664206Y-14831960D02*
X11683253Y-14841484D01*
X11683253Y-14841484D02*
X11721348Y-14841484D01*
X11721348Y-14841484D02*
X11740396Y-14831960D01*
X11740396Y-14831960D02*
X11749920Y-14822436D01*
X11749920Y-14822436D02*
X11759444Y-14803388D01*
X11759444Y-14803388D02*
X11759444Y-14755769D01*
X11759444Y-14755769D02*
X11749920Y-14736722D01*
X11749920Y-14736722D02*
X11740396Y-14727198D01*
X11740396Y-14727198D02*
X11721348Y-14717674D01*
X11721348Y-14717674D02*
X11683253Y-14717674D01*
X11683253Y-14717674D02*
X11664206Y-14727198D01*
X11664206Y-14727198D02*
X11654682Y-14736722D01*
X11654682Y-14736722D02*
X11645158Y-14755769D01*
X11835634Y-14641484D02*
X11835634Y-14679579D01*
X11911825Y-14641484D02*
X11911825Y-14679579D01*
X12207063Y-14917674D02*
X12197539Y-14908150D01*
X12197539Y-14908150D02*
X12178491Y-14879579D01*
X12178491Y-14879579D02*
X12168968Y-14860531D01*
X12168968Y-14860531D02*
X12159444Y-14831960D01*
X12159444Y-14831960D02*
X12149920Y-14784341D01*
X12149920Y-14784341D02*
X12149920Y-14746246D01*
X12149920Y-14746246D02*
X12159444Y-14698627D01*
X12159444Y-14698627D02*
X12168968Y-14670055D01*
X12168968Y-14670055D02*
X12178491Y-14651008D01*
X12178491Y-14651008D02*
X12197539Y-14622436D01*
X12197539Y-14622436D02*
X12207063Y-14612912D01*
X12273729Y-14660531D02*
X12283253Y-14651008D01*
X12283253Y-14651008D02*
X12302301Y-14641484D01*
X12302301Y-14641484D02*
X12349920Y-14641484D01*
X12349920Y-14641484D02*
X12368968Y-14651008D01*
X12368968Y-14651008D02*
X12378491Y-14660531D01*
X12378491Y-14660531D02*
X12388015Y-14679579D01*
X12388015Y-14679579D02*
X12388015Y-14698627D01*
X12388015Y-14698627D02*
X12378491Y-14727198D01*
X12378491Y-14727198D02*
X12264206Y-14841484D01*
X12264206Y-14841484D02*
X12388015Y-14841484D01*
X12626110Y-14841484D02*
X12626110Y-14641484D01*
X12711825Y-14841484D02*
X12711825Y-14736722D01*
X12711825Y-14736722D02*
X12702301Y-14717674D01*
X12702301Y-14717674D02*
X12683253Y-14708150D01*
X12683253Y-14708150D02*
X12654682Y-14708150D01*
X12654682Y-14708150D02*
X12635634Y-14717674D01*
X12635634Y-14717674D02*
X12626110Y-14727198D01*
X12835634Y-14841484D02*
X12816587Y-14831960D01*
X12816587Y-14831960D02*
X12807063Y-14822436D01*
X12807063Y-14822436D02*
X12797539Y-14803388D01*
X12797539Y-14803388D02*
X12797539Y-14746246D01*
X12797539Y-14746246D02*
X12807063Y-14727198D01*
X12807063Y-14727198D02*
X12816587Y-14717674D01*
X12816587Y-14717674D02*
X12835634Y-14708150D01*
X12835634Y-14708150D02*
X12864206Y-14708150D01*
X12864206Y-14708150D02*
X12883253Y-14717674D01*
X12883253Y-14717674D02*
X12892777Y-14727198D01*
X12892777Y-14727198D02*
X12902301Y-14746246D01*
X12902301Y-14746246D02*
X12902301Y-14803388D01*
X12902301Y-14803388D02*
X12892777Y-14822436D01*
X12892777Y-14822436D02*
X12883253Y-14831960D01*
X12883253Y-14831960D02*
X12864206Y-14841484D01*
X12864206Y-14841484D02*
X12835634Y-14841484D01*
X13016587Y-14841484D02*
X12997539Y-14831960D01*
X12997539Y-14831960D02*
X12988015Y-14812912D01*
X12988015Y-14812912D02*
X12988015Y-14641484D01*
X13168968Y-14831960D02*
X13149920Y-14841484D01*
X13149920Y-14841484D02*
X13111825Y-14841484D01*
X13111825Y-14841484D02*
X13092777Y-14831960D01*
X13092777Y-14831960D02*
X13083253Y-14812912D01*
X13083253Y-14812912D02*
X13083253Y-14736722D01*
X13083253Y-14736722D02*
X13092777Y-14717674D01*
X13092777Y-14717674D02*
X13111825Y-14708150D01*
X13111825Y-14708150D02*
X13149920Y-14708150D01*
X13149920Y-14708150D02*
X13168968Y-14717674D01*
X13168968Y-14717674D02*
X13178491Y-14736722D01*
X13178491Y-14736722D02*
X13178491Y-14755769D01*
X13178491Y-14755769D02*
X13083253Y-14774817D01*
X13254682Y-14831960D02*
X13273730Y-14841484D01*
X13273730Y-14841484D02*
X13311825Y-14841484D01*
X13311825Y-14841484D02*
X13330872Y-14831960D01*
X13330872Y-14831960D02*
X13340396Y-14812912D01*
X13340396Y-14812912D02*
X13340396Y-14803388D01*
X13340396Y-14803388D02*
X13330872Y-14784341D01*
X13330872Y-14784341D02*
X13311825Y-14774817D01*
X13311825Y-14774817D02*
X13283253Y-14774817D01*
X13283253Y-14774817D02*
X13264206Y-14765293D01*
X13264206Y-14765293D02*
X13254682Y-14746246D01*
X13254682Y-14746246D02*
X13254682Y-14736722D01*
X13254682Y-14736722D02*
X13264206Y-14717674D01*
X13264206Y-14717674D02*
X13283253Y-14708150D01*
X13283253Y-14708150D02*
X13311825Y-14708150D01*
X13311825Y-14708150D02*
X13330872Y-14717674D01*
X13407063Y-14917674D02*
X13416587Y-14908150D01*
X13416587Y-14908150D02*
X13435634Y-14879579D01*
X13435634Y-14879579D02*
X13445158Y-14860531D01*
X13445158Y-14860531D02*
X13454682Y-14831960D01*
X13454682Y-14831960D02*
X13464206Y-14784341D01*
X13464206Y-14784341D02*
X13464206Y-14746246D01*
X13464206Y-14746246D02*
X13454682Y-14698627D01*
X13454682Y-14698627D02*
X13445158Y-14670055D01*
X13445158Y-14670055D02*
X13435634Y-14651008D01*
X13435634Y-14651008D02*
X13416587Y-14622436D01*
X13416587Y-14622436D02*
X13407063Y-14612912D01*
X13768968Y-14917674D02*
X13759444Y-14908150D01*
X13759444Y-14908150D02*
X13740396Y-14879579D01*
X13740396Y-14879579D02*
X13730872Y-14860531D01*
X13730872Y-14860531D02*
X13721349Y-14831960D01*
X13721349Y-14831960D02*
X13711825Y-14784341D01*
X13711825Y-14784341D02*
X13711825Y-14746246D01*
X13711825Y-14746246D02*
X13721349Y-14698627D01*
X13721349Y-14698627D02*
X13730872Y-14670055D01*
X13730872Y-14670055D02*
X13740396Y-14651008D01*
X13740396Y-14651008D02*
X13759444Y-14622436D01*
X13759444Y-14622436D02*
X13768968Y-14612912D01*
X13845158Y-14708150D02*
X13845158Y-14841484D01*
X13845158Y-14727198D02*
X13854682Y-14717674D01*
X13854682Y-14717674D02*
X13873730Y-14708150D01*
X13873730Y-14708150D02*
X13902301Y-14708150D01*
X13902301Y-14708150D02*
X13921349Y-14717674D01*
X13921349Y-14717674D02*
X13930872Y-14736722D01*
X13930872Y-14736722D02*
X13930872Y-14841484D01*
X14054682Y-14841484D02*
X14035634Y-14831960D01*
X14035634Y-14831960D02*
X14026111Y-14822436D01*
X14026111Y-14822436D02*
X14016587Y-14803388D01*
X14016587Y-14803388D02*
X14016587Y-14746246D01*
X14016587Y-14746246D02*
X14026111Y-14727198D01*
X14026111Y-14727198D02*
X14035634Y-14717674D01*
X14035634Y-14717674D02*
X14054682Y-14708150D01*
X14054682Y-14708150D02*
X14083253Y-14708150D01*
X14083253Y-14708150D02*
X14102301Y-14717674D01*
X14102301Y-14717674D02*
X14111825Y-14727198D01*
X14111825Y-14727198D02*
X14121349Y-14746246D01*
X14121349Y-14746246D02*
X14121349Y-14803388D01*
X14121349Y-14803388D02*
X14111825Y-14822436D01*
X14111825Y-14822436D02*
X14102301Y-14831960D01*
X14102301Y-14831960D02*
X14083253Y-14841484D01*
X14083253Y-14841484D02*
X14054682Y-14841484D01*
X14178492Y-14708150D02*
X14254682Y-14708150D01*
X14207063Y-14641484D02*
X14207063Y-14812912D01*
X14207063Y-14812912D02*
X14216587Y-14831960D01*
X14216587Y-14831960D02*
X14235634Y-14841484D01*
X14235634Y-14841484D02*
X14254682Y-14841484D01*
X14473730Y-14708150D02*
X14473730Y-14908150D01*
X14473730Y-14717674D02*
X14492777Y-14708150D01*
X14492777Y-14708150D02*
X14530873Y-14708150D01*
X14530873Y-14708150D02*
X14549920Y-14717674D01*
X14549920Y-14717674D02*
X14559444Y-14727198D01*
X14559444Y-14727198D02*
X14568968Y-14746246D01*
X14568968Y-14746246D02*
X14568968Y-14803388D01*
X14568968Y-14803388D02*
X14559444Y-14822436D01*
X14559444Y-14822436D02*
X14549920Y-14831960D01*
X14549920Y-14831960D02*
X14530873Y-14841484D01*
X14530873Y-14841484D02*
X14492777Y-14841484D01*
X14492777Y-14841484D02*
X14473730Y-14831960D01*
X14683253Y-14841484D02*
X14664206Y-14831960D01*
X14664206Y-14831960D02*
X14654682Y-14812912D01*
X14654682Y-14812912D02*
X14654682Y-14641484D01*
X14845158Y-14841484D02*
X14845158Y-14736722D01*
X14845158Y-14736722D02*
X14835634Y-14717674D01*
X14835634Y-14717674D02*
X14816587Y-14708150D01*
X14816587Y-14708150D02*
X14778492Y-14708150D01*
X14778492Y-14708150D02*
X14759444Y-14717674D01*
X14845158Y-14831960D02*
X14826111Y-14841484D01*
X14826111Y-14841484D02*
X14778492Y-14841484D01*
X14778492Y-14841484D02*
X14759444Y-14831960D01*
X14759444Y-14831960D02*
X14749920Y-14812912D01*
X14749920Y-14812912D02*
X14749920Y-14793865D01*
X14749920Y-14793865D02*
X14759444Y-14774817D01*
X14759444Y-14774817D02*
X14778492Y-14765293D01*
X14778492Y-14765293D02*
X14826111Y-14765293D01*
X14826111Y-14765293D02*
X14845158Y-14755769D01*
X14911825Y-14708150D02*
X14988015Y-14708150D01*
X14940396Y-14641484D02*
X14940396Y-14812912D01*
X14940396Y-14812912D02*
X14949920Y-14831960D01*
X14949920Y-14831960D02*
X14968968Y-14841484D01*
X14968968Y-14841484D02*
X14988015Y-14841484D01*
X15130873Y-14831960D02*
X15111825Y-14841484D01*
X15111825Y-14841484D02*
X15073730Y-14841484D01*
X15073730Y-14841484D02*
X15054682Y-14831960D01*
X15054682Y-14831960D02*
X15045158Y-14812912D01*
X15045158Y-14812912D02*
X15045158Y-14736722D01*
X15045158Y-14736722D02*
X15054682Y-14717674D01*
X15054682Y-14717674D02*
X15073730Y-14708150D01*
X15073730Y-14708150D02*
X15111825Y-14708150D01*
X15111825Y-14708150D02*
X15130873Y-14717674D01*
X15130873Y-14717674D02*
X15140396Y-14736722D01*
X15140396Y-14736722D02*
X15140396Y-14755769D01*
X15140396Y-14755769D02*
X15045158Y-14774817D01*
X15311825Y-14841484D02*
X15311825Y-14641484D01*
X15311825Y-14831960D02*
X15292777Y-14841484D01*
X15292777Y-14841484D02*
X15254682Y-14841484D01*
X15254682Y-14841484D02*
X15235634Y-14831960D01*
X15235634Y-14831960D02*
X15226111Y-14822436D01*
X15226111Y-14822436D02*
X15216587Y-14803388D01*
X15216587Y-14803388D02*
X15216587Y-14746246D01*
X15216587Y-14746246D02*
X15226111Y-14727198D01*
X15226111Y-14727198D02*
X15235634Y-14717674D01*
X15235634Y-14717674D02*
X15254682Y-14708150D01*
X15254682Y-14708150D02*
X15292777Y-14708150D01*
X15292777Y-14708150D02*
X15311825Y-14717674D01*
X15388015Y-14917674D02*
X15397539Y-14908150D01*
X15397539Y-14908150D02*
X15416587Y-14879579D01*
X15416587Y-14879579D02*
X15426111Y-14860531D01*
X15426111Y-14860531D02*
X15435634Y-14831960D01*
X15435634Y-14831960D02*
X15445158Y-14784341D01*
X15445158Y-14784341D02*
X15445158Y-14746246D01*
X15445158Y-14746246D02*
X15435634Y-14698627D01*
X15435634Y-14698627D02*
X15426111Y-14670055D01*
X15426111Y-14670055D02*
X15416587Y-14651008D01*
X15416587Y-14651008D02*
X15397539Y-14622436D01*
X15397539Y-14622436D02*
X15388015Y-14612912D01*
D12*
X8632000Y-15014000D02*
G75*
G03*
X8497380Y-15014000I-67310J0D01*
G01*
X8497380Y-15014000D02*
G75*
G03*
X8632000Y-15014000I67310J0D01*
G01*
D10*
X8997539Y-15105484D02*
X8883253Y-15105484D01*
X8940396Y-15105484D02*
X8940396Y-14905484D01*
X8940396Y-14905484D02*
X8921348Y-14934055D01*
X8921348Y-14934055D02*
X8902301Y-14953103D01*
X8902301Y-14953103D02*
X8883253Y-14962627D01*
X9083253Y-15086436D02*
X9092777Y-15095960D01*
X9092777Y-15095960D02*
X9083253Y-15105484D01*
X9083253Y-15105484D02*
X9073729Y-15095960D01*
X9073729Y-15095960D02*
X9083253Y-15086436D01*
X9083253Y-15086436D02*
X9083253Y-15105484D01*
X9159444Y-14905484D02*
X9283253Y-14905484D01*
X9283253Y-14905484D02*
X9216586Y-14981674D01*
X9216586Y-14981674D02*
X9245158Y-14981674D01*
X9245158Y-14981674D02*
X9264205Y-14991198D01*
X9264205Y-14991198D02*
X9273729Y-15000722D01*
X9273729Y-15000722D02*
X9283253Y-15019769D01*
X9283253Y-15019769D02*
X9283253Y-15067388D01*
X9283253Y-15067388D02*
X9273729Y-15086436D01*
X9273729Y-15086436D02*
X9264205Y-15095960D01*
X9264205Y-15095960D02*
X9245158Y-15105484D01*
X9245158Y-15105484D02*
X9188015Y-15105484D01*
X9188015Y-15105484D02*
X9168967Y-15095960D01*
X9168967Y-15095960D02*
X9159444Y-15086436D01*
X9454682Y-14972150D02*
X9454682Y-15105484D01*
X9407063Y-14895960D02*
X9359444Y-15038817D01*
X9359444Y-15038817D02*
X9483253Y-15038817D01*
X9645158Y-14905484D02*
X9607063Y-14905484D01*
X9607063Y-14905484D02*
X9588015Y-14915008D01*
X9588015Y-14915008D02*
X9578491Y-14924531D01*
X9578491Y-14924531D02*
X9559444Y-14953103D01*
X9559444Y-14953103D02*
X9549920Y-14991198D01*
X9549920Y-14991198D02*
X9549920Y-15067388D01*
X9549920Y-15067388D02*
X9559444Y-15086436D01*
X9559444Y-15086436D02*
X9568967Y-15095960D01*
X9568967Y-15095960D02*
X9588015Y-15105484D01*
X9588015Y-15105484D02*
X9626110Y-15105484D01*
X9626110Y-15105484D02*
X9645158Y-15095960D01*
X9645158Y-15095960D02*
X9654682Y-15086436D01*
X9654682Y-15086436D02*
X9664205Y-15067388D01*
X9664205Y-15067388D02*
X9664205Y-15019769D01*
X9664205Y-15019769D02*
X9654682Y-15000722D01*
X9654682Y-15000722D02*
X9645158Y-14991198D01*
X9645158Y-14991198D02*
X9626110Y-14981674D01*
X9626110Y-14981674D02*
X9588015Y-14981674D01*
X9588015Y-14981674D02*
X9568967Y-14991198D01*
X9568967Y-14991198D02*
X9559444Y-15000722D01*
X9559444Y-15000722D02*
X9549920Y-15019769D01*
X9749920Y-15105484D02*
X9749920Y-14972150D01*
X9749920Y-14991198D02*
X9759444Y-14981674D01*
X9759444Y-14981674D02*
X9778491Y-14972150D01*
X9778491Y-14972150D02*
X9807063Y-14972150D01*
X9807063Y-14972150D02*
X9826110Y-14981674D01*
X9826110Y-14981674D02*
X9835634Y-15000722D01*
X9835634Y-15000722D02*
X9835634Y-15105484D01*
X9835634Y-15000722D02*
X9845158Y-14981674D01*
X9845158Y-14981674D02*
X9864205Y-14972150D01*
X9864205Y-14972150D02*
X9892777Y-14972150D01*
X9892777Y-14972150D02*
X9911825Y-14981674D01*
X9911825Y-14981674D02*
X9921348Y-15000722D01*
X9921348Y-15000722D02*
X9921348Y-15105484D01*
X10016586Y-15105484D02*
X10016586Y-14972150D01*
X10016586Y-14991198D02*
X10026110Y-14981674D01*
X10026110Y-14981674D02*
X10045158Y-14972150D01*
X10045158Y-14972150D02*
X10073729Y-14972150D01*
X10073729Y-14972150D02*
X10092777Y-14981674D01*
X10092777Y-14981674D02*
X10102301Y-15000722D01*
X10102301Y-15000722D02*
X10102301Y-15105484D01*
X10102301Y-15000722D02*
X10111825Y-14981674D01*
X10111825Y-14981674D02*
X10130872Y-14972150D01*
X10130872Y-14972150D02*
X10159444Y-14972150D01*
X10159444Y-14972150D02*
X10178491Y-14981674D01*
X10178491Y-14981674D02*
X10188015Y-15000722D01*
X10188015Y-15000722D02*
X10188015Y-15105484D01*
X10578491Y-14895960D02*
X10407063Y-15153103D01*
X10835634Y-14905484D02*
X10854682Y-14905484D01*
X10854682Y-14905484D02*
X10873729Y-14915008D01*
X10873729Y-14915008D02*
X10883253Y-14924531D01*
X10883253Y-14924531D02*
X10892777Y-14943579D01*
X10892777Y-14943579D02*
X10902301Y-14981674D01*
X10902301Y-14981674D02*
X10902301Y-15029293D01*
X10902301Y-15029293D02*
X10892777Y-15067388D01*
X10892777Y-15067388D02*
X10883253Y-15086436D01*
X10883253Y-15086436D02*
X10873729Y-15095960D01*
X10873729Y-15095960D02*
X10854682Y-15105484D01*
X10854682Y-15105484D02*
X10835634Y-15105484D01*
X10835634Y-15105484D02*
X10816587Y-15095960D01*
X10816587Y-15095960D02*
X10807063Y-15086436D01*
X10807063Y-15086436D02*
X10797539Y-15067388D01*
X10797539Y-15067388D02*
X10788015Y-15029293D01*
X10788015Y-15029293D02*
X10788015Y-14981674D01*
X10788015Y-14981674D02*
X10797539Y-14943579D01*
X10797539Y-14943579D02*
X10807063Y-14924531D01*
X10807063Y-14924531D02*
X10816587Y-14915008D01*
X10816587Y-14915008D02*
X10835634Y-14905484D01*
X10988015Y-15086436D02*
X10997539Y-15095960D01*
X10997539Y-15095960D02*
X10988015Y-15105484D01*
X10988015Y-15105484D02*
X10978491Y-15095960D01*
X10978491Y-15095960D02*
X10988015Y-15086436D01*
X10988015Y-15086436D02*
X10988015Y-15105484D01*
X11121348Y-14905484D02*
X11140396Y-14905484D01*
X11140396Y-14905484D02*
X11159444Y-14915008D01*
X11159444Y-14915008D02*
X11168968Y-14924531D01*
X11168968Y-14924531D02*
X11178491Y-14943579D01*
X11178491Y-14943579D02*
X11188015Y-14981674D01*
X11188015Y-14981674D02*
X11188015Y-15029293D01*
X11188015Y-15029293D02*
X11178491Y-15067388D01*
X11178491Y-15067388D02*
X11168968Y-15086436D01*
X11168968Y-15086436D02*
X11159444Y-15095960D01*
X11159444Y-15095960D02*
X11140396Y-15105484D01*
X11140396Y-15105484D02*
X11121348Y-15105484D01*
X11121348Y-15105484D02*
X11102301Y-15095960D01*
X11102301Y-15095960D02*
X11092777Y-15086436D01*
X11092777Y-15086436D02*
X11083253Y-15067388D01*
X11083253Y-15067388D02*
X11073729Y-15029293D01*
X11073729Y-15029293D02*
X11073729Y-14981674D01*
X11073729Y-14981674D02*
X11083253Y-14943579D01*
X11083253Y-14943579D02*
X11092777Y-14924531D01*
X11092777Y-14924531D02*
X11102301Y-14915008D01*
X11102301Y-14915008D02*
X11121348Y-14905484D01*
X11368967Y-14905484D02*
X11273729Y-14905484D01*
X11273729Y-14905484D02*
X11264206Y-15000722D01*
X11264206Y-15000722D02*
X11273729Y-14991198D01*
X11273729Y-14991198D02*
X11292777Y-14981674D01*
X11292777Y-14981674D02*
X11340396Y-14981674D01*
X11340396Y-14981674D02*
X11359444Y-14991198D01*
X11359444Y-14991198D02*
X11368967Y-15000722D01*
X11368967Y-15000722D02*
X11378491Y-15019769D01*
X11378491Y-15019769D02*
X11378491Y-15067388D01*
X11378491Y-15067388D02*
X11368967Y-15086436D01*
X11368967Y-15086436D02*
X11359444Y-15095960D01*
X11359444Y-15095960D02*
X11340396Y-15105484D01*
X11340396Y-15105484D02*
X11292777Y-15105484D01*
X11292777Y-15105484D02*
X11273729Y-15095960D01*
X11273729Y-15095960D02*
X11264206Y-15086436D01*
X11445158Y-14905484D02*
X11568967Y-14905484D01*
X11568967Y-14905484D02*
X11502301Y-14981674D01*
X11502301Y-14981674D02*
X11530872Y-14981674D01*
X11530872Y-14981674D02*
X11549920Y-14991198D01*
X11549920Y-14991198D02*
X11559444Y-15000722D01*
X11559444Y-15000722D02*
X11568967Y-15019769D01*
X11568967Y-15019769D02*
X11568967Y-15067388D01*
X11568967Y-15067388D02*
X11559444Y-15086436D01*
X11559444Y-15086436D02*
X11549920Y-15095960D01*
X11549920Y-15095960D02*
X11530872Y-15105484D01*
X11530872Y-15105484D02*
X11473729Y-15105484D01*
X11473729Y-15105484D02*
X11454682Y-15095960D01*
X11454682Y-15095960D02*
X11445158Y-15086436D01*
X11692777Y-14905484D02*
X11711825Y-14905484D01*
X11711825Y-14905484D02*
X11730872Y-14915008D01*
X11730872Y-14915008D02*
X11740396Y-14924531D01*
X11740396Y-14924531D02*
X11749920Y-14943579D01*
X11749920Y-14943579D02*
X11759444Y-14981674D01*
X11759444Y-14981674D02*
X11759444Y-15029293D01*
X11759444Y-15029293D02*
X11749920Y-15067388D01*
X11749920Y-15067388D02*
X11740396Y-15086436D01*
X11740396Y-15086436D02*
X11730872Y-15095960D01*
X11730872Y-15095960D02*
X11711825Y-15105484D01*
X11711825Y-15105484D02*
X11692777Y-15105484D01*
X11692777Y-15105484D02*
X11673729Y-15095960D01*
X11673729Y-15095960D02*
X11664206Y-15086436D01*
X11664206Y-15086436D02*
X11654682Y-15067388D01*
X11654682Y-15067388D02*
X11645158Y-15029293D01*
X11645158Y-15029293D02*
X11645158Y-14981674D01*
X11645158Y-14981674D02*
X11654682Y-14943579D01*
X11654682Y-14943579D02*
X11664206Y-14924531D01*
X11664206Y-14924531D02*
X11673729Y-14915008D01*
X11673729Y-14915008D02*
X11692777Y-14905484D01*
X11835634Y-14905484D02*
X11835634Y-14943579D01*
X11911825Y-14905484D02*
X11911825Y-14943579D01*
X12207063Y-15181674D02*
X12197539Y-15172150D01*
X12197539Y-15172150D02*
X12178491Y-15143579D01*
X12178491Y-15143579D02*
X12168968Y-15124531D01*
X12168968Y-15124531D02*
X12159444Y-15095960D01*
X12159444Y-15095960D02*
X12149920Y-15048341D01*
X12149920Y-15048341D02*
X12149920Y-15010246D01*
X12149920Y-15010246D02*
X12159444Y-14962627D01*
X12159444Y-14962627D02*
X12168968Y-14934055D01*
X12168968Y-14934055D02*
X12178491Y-14915008D01*
X12178491Y-14915008D02*
X12197539Y-14886436D01*
X12197539Y-14886436D02*
X12207063Y-14876912D01*
X12273729Y-14924531D02*
X12283253Y-14915008D01*
X12283253Y-14915008D02*
X12302301Y-14905484D01*
X12302301Y-14905484D02*
X12349920Y-14905484D01*
X12349920Y-14905484D02*
X12368968Y-14915008D01*
X12368968Y-14915008D02*
X12378491Y-14924531D01*
X12378491Y-14924531D02*
X12388015Y-14943579D01*
X12388015Y-14943579D02*
X12388015Y-14962627D01*
X12388015Y-14962627D02*
X12378491Y-14991198D01*
X12378491Y-14991198D02*
X12264206Y-15105484D01*
X12264206Y-15105484D02*
X12388015Y-15105484D01*
X12626110Y-15105484D02*
X12626110Y-14905484D01*
X12711825Y-15105484D02*
X12711825Y-15000722D01*
X12711825Y-15000722D02*
X12702301Y-14981674D01*
X12702301Y-14981674D02*
X12683253Y-14972150D01*
X12683253Y-14972150D02*
X12654682Y-14972150D01*
X12654682Y-14972150D02*
X12635634Y-14981674D01*
X12635634Y-14981674D02*
X12626110Y-14991198D01*
X12835634Y-15105484D02*
X12816587Y-15095960D01*
X12816587Y-15095960D02*
X12807063Y-15086436D01*
X12807063Y-15086436D02*
X12797539Y-15067388D01*
X12797539Y-15067388D02*
X12797539Y-15010246D01*
X12797539Y-15010246D02*
X12807063Y-14991198D01*
X12807063Y-14991198D02*
X12816587Y-14981674D01*
X12816587Y-14981674D02*
X12835634Y-14972150D01*
X12835634Y-14972150D02*
X12864206Y-14972150D01*
X12864206Y-14972150D02*
X12883253Y-14981674D01*
X12883253Y-14981674D02*
X12892777Y-14991198D01*
X12892777Y-14991198D02*
X12902301Y-15010246D01*
X12902301Y-15010246D02*
X12902301Y-15067388D01*
X12902301Y-15067388D02*
X12892777Y-15086436D01*
X12892777Y-15086436D02*
X12883253Y-15095960D01*
X12883253Y-15095960D02*
X12864206Y-15105484D01*
X12864206Y-15105484D02*
X12835634Y-15105484D01*
X13016587Y-15105484D02*
X12997539Y-15095960D01*
X12997539Y-15095960D02*
X12988015Y-15076912D01*
X12988015Y-15076912D02*
X12988015Y-14905484D01*
X13168968Y-15095960D02*
X13149920Y-15105484D01*
X13149920Y-15105484D02*
X13111825Y-15105484D01*
X13111825Y-15105484D02*
X13092777Y-15095960D01*
X13092777Y-15095960D02*
X13083253Y-15076912D01*
X13083253Y-15076912D02*
X13083253Y-15000722D01*
X13083253Y-15000722D02*
X13092777Y-14981674D01*
X13092777Y-14981674D02*
X13111825Y-14972150D01*
X13111825Y-14972150D02*
X13149920Y-14972150D01*
X13149920Y-14972150D02*
X13168968Y-14981674D01*
X13168968Y-14981674D02*
X13178491Y-15000722D01*
X13178491Y-15000722D02*
X13178491Y-15019769D01*
X13178491Y-15019769D02*
X13083253Y-15038817D01*
X13254682Y-15095960D02*
X13273730Y-15105484D01*
X13273730Y-15105484D02*
X13311825Y-15105484D01*
X13311825Y-15105484D02*
X13330872Y-15095960D01*
X13330872Y-15095960D02*
X13340396Y-15076912D01*
X13340396Y-15076912D02*
X13340396Y-15067388D01*
X13340396Y-15067388D02*
X13330872Y-15048341D01*
X13330872Y-15048341D02*
X13311825Y-15038817D01*
X13311825Y-15038817D02*
X13283253Y-15038817D01*
X13283253Y-15038817D02*
X13264206Y-15029293D01*
X13264206Y-15029293D02*
X13254682Y-15010246D01*
X13254682Y-15010246D02*
X13254682Y-15000722D01*
X13254682Y-15000722D02*
X13264206Y-14981674D01*
X13264206Y-14981674D02*
X13283253Y-14972150D01*
X13283253Y-14972150D02*
X13311825Y-14972150D01*
X13311825Y-14972150D02*
X13330872Y-14981674D01*
X13407063Y-15181674D02*
X13416587Y-15172150D01*
X13416587Y-15172150D02*
X13435634Y-15143579D01*
X13435634Y-15143579D02*
X13445158Y-15124531D01*
X13445158Y-15124531D02*
X13454682Y-15095960D01*
X13454682Y-15095960D02*
X13464206Y-15048341D01*
X13464206Y-15048341D02*
X13464206Y-15010246D01*
X13464206Y-15010246D02*
X13454682Y-14962627D01*
X13454682Y-14962627D02*
X13445158Y-14934055D01*
X13445158Y-14934055D02*
X13435634Y-14915008D01*
X13435634Y-14915008D02*
X13416587Y-14886436D01*
X13416587Y-14886436D02*
X13407063Y-14876912D01*
X13768968Y-15181674D02*
X13759444Y-15172150D01*
X13759444Y-15172150D02*
X13740396Y-15143579D01*
X13740396Y-15143579D02*
X13730872Y-15124531D01*
X13730872Y-15124531D02*
X13721349Y-15095960D01*
X13721349Y-15095960D02*
X13711825Y-15048341D01*
X13711825Y-15048341D02*
X13711825Y-15010246D01*
X13711825Y-15010246D02*
X13721349Y-14962627D01*
X13721349Y-14962627D02*
X13730872Y-14934055D01*
X13730872Y-14934055D02*
X13740396Y-14915008D01*
X13740396Y-14915008D02*
X13759444Y-14886436D01*
X13759444Y-14886436D02*
X13768968Y-14876912D01*
X13845158Y-14972150D02*
X13845158Y-15105484D01*
X13845158Y-14991198D02*
X13854682Y-14981674D01*
X13854682Y-14981674D02*
X13873730Y-14972150D01*
X13873730Y-14972150D02*
X13902301Y-14972150D01*
X13902301Y-14972150D02*
X13921349Y-14981674D01*
X13921349Y-14981674D02*
X13930872Y-15000722D01*
X13930872Y-15000722D02*
X13930872Y-15105484D01*
X14054682Y-15105484D02*
X14035634Y-15095960D01*
X14035634Y-15095960D02*
X14026111Y-15086436D01*
X14026111Y-15086436D02*
X14016587Y-15067388D01*
X14016587Y-15067388D02*
X14016587Y-15010246D01*
X14016587Y-15010246D02*
X14026111Y-14991198D01*
X14026111Y-14991198D02*
X14035634Y-14981674D01*
X14035634Y-14981674D02*
X14054682Y-14972150D01*
X14054682Y-14972150D02*
X14083253Y-14972150D01*
X14083253Y-14972150D02*
X14102301Y-14981674D01*
X14102301Y-14981674D02*
X14111825Y-14991198D01*
X14111825Y-14991198D02*
X14121349Y-15010246D01*
X14121349Y-15010246D02*
X14121349Y-15067388D01*
X14121349Y-15067388D02*
X14111825Y-15086436D01*
X14111825Y-15086436D02*
X14102301Y-15095960D01*
X14102301Y-15095960D02*
X14083253Y-15105484D01*
X14083253Y-15105484D02*
X14054682Y-15105484D01*
X14178492Y-14972150D02*
X14254682Y-14972150D01*
X14207063Y-14905484D02*
X14207063Y-15076912D01*
X14207063Y-15076912D02*
X14216587Y-15095960D01*
X14216587Y-15095960D02*
X14235634Y-15105484D01*
X14235634Y-15105484D02*
X14254682Y-15105484D01*
X14473730Y-14972150D02*
X14473730Y-15172150D01*
X14473730Y-14981674D02*
X14492777Y-14972150D01*
X14492777Y-14972150D02*
X14530873Y-14972150D01*
X14530873Y-14972150D02*
X14549920Y-14981674D01*
X14549920Y-14981674D02*
X14559444Y-14991198D01*
X14559444Y-14991198D02*
X14568968Y-15010246D01*
X14568968Y-15010246D02*
X14568968Y-15067388D01*
X14568968Y-15067388D02*
X14559444Y-15086436D01*
X14559444Y-15086436D02*
X14549920Y-15095960D01*
X14549920Y-15095960D02*
X14530873Y-15105484D01*
X14530873Y-15105484D02*
X14492777Y-15105484D01*
X14492777Y-15105484D02*
X14473730Y-15095960D01*
X14683253Y-15105484D02*
X14664206Y-15095960D01*
X14664206Y-15095960D02*
X14654682Y-15076912D01*
X14654682Y-15076912D02*
X14654682Y-14905484D01*
X14845158Y-15105484D02*
X14845158Y-15000722D01*
X14845158Y-15000722D02*
X14835634Y-14981674D01*
X14835634Y-14981674D02*
X14816587Y-14972150D01*
X14816587Y-14972150D02*
X14778492Y-14972150D01*
X14778492Y-14972150D02*
X14759444Y-14981674D01*
X14845158Y-15095960D02*
X14826111Y-15105484D01*
X14826111Y-15105484D02*
X14778492Y-15105484D01*
X14778492Y-15105484D02*
X14759444Y-15095960D01*
X14759444Y-15095960D02*
X14749920Y-15076912D01*
X14749920Y-15076912D02*
X14749920Y-15057865D01*
X14749920Y-15057865D02*
X14759444Y-15038817D01*
X14759444Y-15038817D02*
X14778492Y-15029293D01*
X14778492Y-15029293D02*
X14826111Y-15029293D01*
X14826111Y-15029293D02*
X14845158Y-15019769D01*
X14911825Y-14972150D02*
X14988015Y-14972150D01*
X14940396Y-14905484D02*
X14940396Y-15076912D01*
X14940396Y-15076912D02*
X14949920Y-15095960D01*
X14949920Y-15095960D02*
X14968968Y-15105484D01*
X14968968Y-15105484D02*
X14988015Y-15105484D01*
X15130873Y-15095960D02*
X15111825Y-15105484D01*
X15111825Y-15105484D02*
X15073730Y-15105484D01*
X15073730Y-15105484D02*
X15054682Y-15095960D01*
X15054682Y-15095960D02*
X15045158Y-15076912D01*
X15045158Y-15076912D02*
X15045158Y-15000722D01*
X15045158Y-15000722D02*
X15054682Y-14981674D01*
X15054682Y-14981674D02*
X15073730Y-14972150D01*
X15073730Y-14972150D02*
X15111825Y-14972150D01*
X15111825Y-14972150D02*
X15130873Y-14981674D01*
X15130873Y-14981674D02*
X15140396Y-15000722D01*
X15140396Y-15000722D02*
X15140396Y-15019769D01*
X15140396Y-15019769D02*
X15045158Y-15038817D01*
X15311825Y-15105484D02*
X15311825Y-14905484D01*
X15311825Y-15095960D02*
X15292777Y-15105484D01*
X15292777Y-15105484D02*
X15254682Y-15105484D01*
X15254682Y-15105484D02*
X15235634Y-15095960D01*
X15235634Y-15095960D02*
X15226111Y-15086436D01*
X15226111Y-15086436D02*
X15216587Y-15067388D01*
X15216587Y-15067388D02*
X15216587Y-15010246D01*
X15216587Y-15010246D02*
X15226111Y-14991198D01*
X15226111Y-14991198D02*
X15235634Y-14981674D01*
X15235634Y-14981674D02*
X15254682Y-14972150D01*
X15254682Y-14972150D02*
X15292777Y-14972150D01*
X15292777Y-14972150D02*
X15311825Y-14981674D01*
X15388015Y-15181674D02*
X15397539Y-15172150D01*
X15397539Y-15172150D02*
X15416587Y-15143579D01*
X15416587Y-15143579D02*
X15426111Y-15124531D01*
X15426111Y-15124531D02*
X15435634Y-15095960D01*
X15435634Y-15095960D02*
X15445158Y-15048341D01*
X15445158Y-15048341D02*
X15445158Y-15010246D01*
X15445158Y-15010246D02*
X15435634Y-14962627D01*
X15435634Y-14962627D02*
X15426111Y-14934055D01*
X15426111Y-14934055D02*
X15416587Y-14915008D01*
X15416587Y-14915008D02*
X15397539Y-14886436D01*
X15397539Y-14886436D02*
X15388015Y-14876912D01*
X8532000Y-15178000D02*
X8532000Y-15378000D01*
X8432000Y-15278000D02*
X8632000Y-15278000D01*
X8978491Y-15236150D02*
X8978491Y-15369484D01*
X8930872Y-15159960D02*
X8883253Y-15302817D01*
X8883253Y-15302817D02*
X9007063Y-15302817D01*
X9083253Y-15350436D02*
X9092777Y-15359960D01*
X9092777Y-15359960D02*
X9083253Y-15369484D01*
X9083253Y-15369484D02*
X9073729Y-15359960D01*
X9073729Y-15359960D02*
X9083253Y-15350436D01*
X9083253Y-15350436D02*
X9083253Y-15369484D01*
X9168967Y-15188531D02*
X9178491Y-15179008D01*
X9178491Y-15179008D02*
X9197539Y-15169484D01*
X9197539Y-15169484D02*
X9245158Y-15169484D01*
X9245158Y-15169484D02*
X9264205Y-15179008D01*
X9264205Y-15179008D02*
X9273729Y-15188531D01*
X9273729Y-15188531D02*
X9283253Y-15207579D01*
X9283253Y-15207579D02*
X9283253Y-15226627D01*
X9283253Y-15226627D02*
X9273729Y-15255198D01*
X9273729Y-15255198D02*
X9159444Y-15369484D01*
X9159444Y-15369484D02*
X9283253Y-15369484D01*
X9359444Y-15188531D02*
X9368967Y-15179008D01*
X9368967Y-15179008D02*
X9388015Y-15169484D01*
X9388015Y-15169484D02*
X9435634Y-15169484D01*
X9435634Y-15169484D02*
X9454682Y-15179008D01*
X9454682Y-15179008D02*
X9464205Y-15188531D01*
X9464205Y-15188531D02*
X9473729Y-15207579D01*
X9473729Y-15207579D02*
X9473729Y-15226627D01*
X9473729Y-15226627D02*
X9464205Y-15255198D01*
X9464205Y-15255198D02*
X9349920Y-15369484D01*
X9349920Y-15369484D02*
X9473729Y-15369484D01*
X9597539Y-15169484D02*
X9616586Y-15169484D01*
X9616586Y-15169484D02*
X9635634Y-15179008D01*
X9635634Y-15179008D02*
X9645158Y-15188531D01*
X9645158Y-15188531D02*
X9654682Y-15207579D01*
X9654682Y-15207579D02*
X9664205Y-15245674D01*
X9664205Y-15245674D02*
X9664205Y-15293293D01*
X9664205Y-15293293D02*
X9654682Y-15331388D01*
X9654682Y-15331388D02*
X9645158Y-15350436D01*
X9645158Y-15350436D02*
X9635634Y-15359960D01*
X9635634Y-15359960D02*
X9616586Y-15369484D01*
X9616586Y-15369484D02*
X9597539Y-15369484D01*
X9597539Y-15369484D02*
X9578491Y-15359960D01*
X9578491Y-15359960D02*
X9568967Y-15350436D01*
X9568967Y-15350436D02*
X9559444Y-15331388D01*
X9559444Y-15331388D02*
X9549920Y-15293293D01*
X9549920Y-15293293D02*
X9549920Y-15245674D01*
X9549920Y-15245674D02*
X9559444Y-15207579D01*
X9559444Y-15207579D02*
X9568967Y-15188531D01*
X9568967Y-15188531D02*
X9578491Y-15179008D01*
X9578491Y-15179008D02*
X9597539Y-15169484D01*
X9749920Y-15369484D02*
X9749920Y-15236150D01*
X9749920Y-15255198D02*
X9759444Y-15245674D01*
X9759444Y-15245674D02*
X9778491Y-15236150D01*
X9778491Y-15236150D02*
X9807063Y-15236150D01*
X9807063Y-15236150D02*
X9826110Y-15245674D01*
X9826110Y-15245674D02*
X9835634Y-15264722D01*
X9835634Y-15264722D02*
X9835634Y-15369484D01*
X9835634Y-15264722D02*
X9845158Y-15245674D01*
X9845158Y-15245674D02*
X9864205Y-15236150D01*
X9864205Y-15236150D02*
X9892777Y-15236150D01*
X9892777Y-15236150D02*
X9911825Y-15245674D01*
X9911825Y-15245674D02*
X9921348Y-15264722D01*
X9921348Y-15264722D02*
X9921348Y-15369484D01*
X10016586Y-15369484D02*
X10016586Y-15236150D01*
X10016586Y-15255198D02*
X10026110Y-15245674D01*
X10026110Y-15245674D02*
X10045158Y-15236150D01*
X10045158Y-15236150D02*
X10073729Y-15236150D01*
X10073729Y-15236150D02*
X10092777Y-15245674D01*
X10092777Y-15245674D02*
X10102301Y-15264722D01*
X10102301Y-15264722D02*
X10102301Y-15369484D01*
X10102301Y-15264722D02*
X10111825Y-15245674D01*
X10111825Y-15245674D02*
X10130872Y-15236150D01*
X10130872Y-15236150D02*
X10159444Y-15236150D01*
X10159444Y-15236150D02*
X10178491Y-15245674D01*
X10178491Y-15245674D02*
X10188015Y-15264722D01*
X10188015Y-15264722D02*
X10188015Y-15369484D01*
X10578491Y-15159960D02*
X10407063Y-15417103D01*
X10835634Y-15169484D02*
X10854682Y-15169484D01*
X10854682Y-15169484D02*
X10873729Y-15179008D01*
X10873729Y-15179008D02*
X10883253Y-15188531D01*
X10883253Y-15188531D02*
X10892777Y-15207579D01*
X10892777Y-15207579D02*
X10902301Y-15245674D01*
X10902301Y-15245674D02*
X10902301Y-15293293D01*
X10902301Y-15293293D02*
X10892777Y-15331388D01*
X10892777Y-15331388D02*
X10883253Y-15350436D01*
X10883253Y-15350436D02*
X10873729Y-15359960D01*
X10873729Y-15359960D02*
X10854682Y-15369484D01*
X10854682Y-15369484D02*
X10835634Y-15369484D01*
X10835634Y-15369484D02*
X10816587Y-15359960D01*
X10816587Y-15359960D02*
X10807063Y-15350436D01*
X10807063Y-15350436D02*
X10797539Y-15331388D01*
X10797539Y-15331388D02*
X10788015Y-15293293D01*
X10788015Y-15293293D02*
X10788015Y-15245674D01*
X10788015Y-15245674D02*
X10797539Y-15207579D01*
X10797539Y-15207579D02*
X10807063Y-15188531D01*
X10807063Y-15188531D02*
X10816587Y-15179008D01*
X10816587Y-15179008D02*
X10835634Y-15169484D01*
X10988015Y-15350436D02*
X10997539Y-15359960D01*
X10997539Y-15359960D02*
X10988015Y-15369484D01*
X10988015Y-15369484D02*
X10978491Y-15359960D01*
X10978491Y-15359960D02*
X10988015Y-15350436D01*
X10988015Y-15350436D02*
X10988015Y-15369484D01*
X11188015Y-15369484D02*
X11073729Y-15369484D01*
X11130872Y-15369484D02*
X11130872Y-15169484D01*
X11130872Y-15169484D02*
X11111825Y-15198055D01*
X11111825Y-15198055D02*
X11092777Y-15217103D01*
X11092777Y-15217103D02*
X11073729Y-15226627D01*
X11359444Y-15169484D02*
X11321348Y-15169484D01*
X11321348Y-15169484D02*
X11302301Y-15179008D01*
X11302301Y-15179008D02*
X11292777Y-15188531D01*
X11292777Y-15188531D02*
X11273729Y-15217103D01*
X11273729Y-15217103D02*
X11264206Y-15255198D01*
X11264206Y-15255198D02*
X11264206Y-15331388D01*
X11264206Y-15331388D02*
X11273729Y-15350436D01*
X11273729Y-15350436D02*
X11283253Y-15359960D01*
X11283253Y-15359960D02*
X11302301Y-15369484D01*
X11302301Y-15369484D02*
X11340396Y-15369484D01*
X11340396Y-15369484D02*
X11359444Y-15359960D01*
X11359444Y-15359960D02*
X11368967Y-15350436D01*
X11368967Y-15350436D02*
X11378491Y-15331388D01*
X11378491Y-15331388D02*
X11378491Y-15283769D01*
X11378491Y-15283769D02*
X11368967Y-15264722D01*
X11368967Y-15264722D02*
X11359444Y-15255198D01*
X11359444Y-15255198D02*
X11340396Y-15245674D01*
X11340396Y-15245674D02*
X11302301Y-15245674D01*
X11302301Y-15245674D02*
X11283253Y-15255198D01*
X11283253Y-15255198D02*
X11273729Y-15264722D01*
X11273729Y-15264722D02*
X11264206Y-15283769D01*
X11549920Y-15169484D02*
X11511825Y-15169484D01*
X11511825Y-15169484D02*
X11492777Y-15179008D01*
X11492777Y-15179008D02*
X11483253Y-15188531D01*
X11483253Y-15188531D02*
X11464206Y-15217103D01*
X11464206Y-15217103D02*
X11454682Y-15255198D01*
X11454682Y-15255198D02*
X11454682Y-15331388D01*
X11454682Y-15331388D02*
X11464206Y-15350436D01*
X11464206Y-15350436D02*
X11473729Y-15359960D01*
X11473729Y-15359960D02*
X11492777Y-15369484D01*
X11492777Y-15369484D02*
X11530872Y-15369484D01*
X11530872Y-15369484D02*
X11549920Y-15359960D01*
X11549920Y-15359960D02*
X11559444Y-15350436D01*
X11559444Y-15350436D02*
X11568967Y-15331388D01*
X11568967Y-15331388D02*
X11568967Y-15283769D01*
X11568967Y-15283769D02*
X11559444Y-15264722D01*
X11559444Y-15264722D02*
X11549920Y-15255198D01*
X11549920Y-15255198D02*
X11530872Y-15245674D01*
X11530872Y-15245674D02*
X11492777Y-15245674D01*
X11492777Y-15245674D02*
X11473729Y-15255198D01*
X11473729Y-15255198D02*
X11464206Y-15264722D01*
X11464206Y-15264722D02*
X11454682Y-15283769D01*
X11759444Y-15369484D02*
X11645158Y-15369484D01*
X11702301Y-15369484D02*
X11702301Y-15169484D01*
X11702301Y-15169484D02*
X11683253Y-15198055D01*
X11683253Y-15198055D02*
X11664206Y-15217103D01*
X11664206Y-15217103D02*
X11645158Y-15226627D01*
X11835634Y-15169484D02*
X11835634Y-15207579D01*
X11911825Y-15169484D02*
X11911825Y-15207579D01*
X12207063Y-15445674D02*
X12197539Y-15436150D01*
X12197539Y-15436150D02*
X12178491Y-15407579D01*
X12178491Y-15407579D02*
X12168968Y-15388531D01*
X12168968Y-15388531D02*
X12159444Y-15359960D01*
X12159444Y-15359960D02*
X12149920Y-15312341D01*
X12149920Y-15312341D02*
X12149920Y-15274246D01*
X12149920Y-15274246D02*
X12159444Y-15226627D01*
X12159444Y-15226627D02*
X12168968Y-15198055D01*
X12168968Y-15198055D02*
X12178491Y-15179008D01*
X12178491Y-15179008D02*
X12197539Y-15150436D01*
X12197539Y-15150436D02*
X12207063Y-15140912D01*
X12264206Y-15169484D02*
X12388015Y-15169484D01*
X12388015Y-15169484D02*
X12321348Y-15245674D01*
X12321348Y-15245674D02*
X12349920Y-15245674D01*
X12349920Y-15245674D02*
X12368968Y-15255198D01*
X12368968Y-15255198D02*
X12378491Y-15264722D01*
X12378491Y-15264722D02*
X12388015Y-15283769D01*
X12388015Y-15283769D02*
X12388015Y-15331388D01*
X12388015Y-15331388D02*
X12378491Y-15350436D01*
X12378491Y-15350436D02*
X12368968Y-15359960D01*
X12368968Y-15359960D02*
X12349920Y-15369484D01*
X12349920Y-15369484D02*
X12292777Y-15369484D01*
X12292777Y-15369484D02*
X12273729Y-15359960D01*
X12273729Y-15359960D02*
X12264206Y-15350436D01*
X12626110Y-15369484D02*
X12626110Y-15169484D01*
X12711825Y-15369484D02*
X12711825Y-15264722D01*
X12711825Y-15264722D02*
X12702301Y-15245674D01*
X12702301Y-15245674D02*
X12683253Y-15236150D01*
X12683253Y-15236150D02*
X12654682Y-15236150D01*
X12654682Y-15236150D02*
X12635634Y-15245674D01*
X12635634Y-15245674D02*
X12626110Y-15255198D01*
X12835634Y-15369484D02*
X12816587Y-15359960D01*
X12816587Y-15359960D02*
X12807063Y-15350436D01*
X12807063Y-15350436D02*
X12797539Y-15331388D01*
X12797539Y-15331388D02*
X12797539Y-15274246D01*
X12797539Y-15274246D02*
X12807063Y-15255198D01*
X12807063Y-15255198D02*
X12816587Y-15245674D01*
X12816587Y-15245674D02*
X12835634Y-15236150D01*
X12835634Y-15236150D02*
X12864206Y-15236150D01*
X12864206Y-15236150D02*
X12883253Y-15245674D01*
X12883253Y-15245674D02*
X12892777Y-15255198D01*
X12892777Y-15255198D02*
X12902301Y-15274246D01*
X12902301Y-15274246D02*
X12902301Y-15331388D01*
X12902301Y-15331388D02*
X12892777Y-15350436D01*
X12892777Y-15350436D02*
X12883253Y-15359960D01*
X12883253Y-15359960D02*
X12864206Y-15369484D01*
X12864206Y-15369484D02*
X12835634Y-15369484D01*
X13016587Y-15369484D02*
X12997539Y-15359960D01*
X12997539Y-15359960D02*
X12988015Y-15340912D01*
X12988015Y-15340912D02*
X12988015Y-15169484D01*
X13168968Y-15359960D02*
X13149920Y-15369484D01*
X13149920Y-15369484D02*
X13111825Y-15369484D01*
X13111825Y-15369484D02*
X13092777Y-15359960D01*
X13092777Y-15359960D02*
X13083253Y-15340912D01*
X13083253Y-15340912D02*
X13083253Y-15264722D01*
X13083253Y-15264722D02*
X13092777Y-15245674D01*
X13092777Y-15245674D02*
X13111825Y-15236150D01*
X13111825Y-15236150D02*
X13149920Y-15236150D01*
X13149920Y-15236150D02*
X13168968Y-15245674D01*
X13168968Y-15245674D02*
X13178491Y-15264722D01*
X13178491Y-15264722D02*
X13178491Y-15283769D01*
X13178491Y-15283769D02*
X13083253Y-15302817D01*
X13254682Y-15359960D02*
X13273730Y-15369484D01*
X13273730Y-15369484D02*
X13311825Y-15369484D01*
X13311825Y-15369484D02*
X13330872Y-15359960D01*
X13330872Y-15359960D02*
X13340396Y-15340912D01*
X13340396Y-15340912D02*
X13340396Y-15331388D01*
X13340396Y-15331388D02*
X13330872Y-15312341D01*
X13330872Y-15312341D02*
X13311825Y-15302817D01*
X13311825Y-15302817D02*
X13283253Y-15302817D01*
X13283253Y-15302817D02*
X13264206Y-15293293D01*
X13264206Y-15293293D02*
X13254682Y-15274246D01*
X13254682Y-15274246D02*
X13254682Y-15264722D01*
X13254682Y-15264722D02*
X13264206Y-15245674D01*
X13264206Y-15245674D02*
X13283253Y-15236150D01*
X13283253Y-15236150D02*
X13311825Y-15236150D01*
X13311825Y-15236150D02*
X13330872Y-15245674D01*
X13407063Y-15445674D02*
X13416587Y-15436150D01*
X13416587Y-15436150D02*
X13435634Y-15407579D01*
X13435634Y-15407579D02*
X13445158Y-15388531D01*
X13445158Y-15388531D02*
X13454682Y-15359960D01*
X13454682Y-15359960D02*
X13464206Y-15312341D01*
X13464206Y-15312341D02*
X13464206Y-15274246D01*
X13464206Y-15274246D02*
X13454682Y-15226627D01*
X13454682Y-15226627D02*
X13445158Y-15198055D01*
X13445158Y-15198055D02*
X13435634Y-15179008D01*
X13435634Y-15179008D02*
X13416587Y-15150436D01*
X13416587Y-15150436D02*
X13407063Y-15140912D01*
X13768968Y-15445674D02*
X13759444Y-15436150D01*
X13759444Y-15436150D02*
X13740396Y-15407579D01*
X13740396Y-15407579D02*
X13730872Y-15388531D01*
X13730872Y-15388531D02*
X13721349Y-15359960D01*
X13721349Y-15359960D02*
X13711825Y-15312341D01*
X13711825Y-15312341D02*
X13711825Y-15274246D01*
X13711825Y-15274246D02*
X13721349Y-15226627D01*
X13721349Y-15226627D02*
X13730872Y-15198055D01*
X13730872Y-15198055D02*
X13740396Y-15179008D01*
X13740396Y-15179008D02*
X13759444Y-15150436D01*
X13759444Y-15150436D02*
X13768968Y-15140912D01*
X13845158Y-15236150D02*
X13845158Y-15369484D01*
X13845158Y-15255198D02*
X13854682Y-15245674D01*
X13854682Y-15245674D02*
X13873730Y-15236150D01*
X13873730Y-15236150D02*
X13902301Y-15236150D01*
X13902301Y-15236150D02*
X13921349Y-15245674D01*
X13921349Y-15245674D02*
X13930872Y-15264722D01*
X13930872Y-15264722D02*
X13930872Y-15369484D01*
X14054682Y-15369484D02*
X14035634Y-15359960D01*
X14035634Y-15359960D02*
X14026111Y-15350436D01*
X14026111Y-15350436D02*
X14016587Y-15331388D01*
X14016587Y-15331388D02*
X14016587Y-15274246D01*
X14016587Y-15274246D02*
X14026111Y-15255198D01*
X14026111Y-15255198D02*
X14035634Y-15245674D01*
X14035634Y-15245674D02*
X14054682Y-15236150D01*
X14054682Y-15236150D02*
X14083253Y-15236150D01*
X14083253Y-15236150D02*
X14102301Y-15245674D01*
X14102301Y-15245674D02*
X14111825Y-15255198D01*
X14111825Y-15255198D02*
X14121349Y-15274246D01*
X14121349Y-15274246D02*
X14121349Y-15331388D01*
X14121349Y-15331388D02*
X14111825Y-15350436D01*
X14111825Y-15350436D02*
X14102301Y-15359960D01*
X14102301Y-15359960D02*
X14083253Y-15369484D01*
X14083253Y-15369484D02*
X14054682Y-15369484D01*
X14178492Y-15236150D02*
X14254682Y-15236150D01*
X14207063Y-15169484D02*
X14207063Y-15340912D01*
X14207063Y-15340912D02*
X14216587Y-15359960D01*
X14216587Y-15359960D02*
X14235634Y-15369484D01*
X14235634Y-15369484D02*
X14254682Y-15369484D01*
X14473730Y-15236150D02*
X14473730Y-15436150D01*
X14473730Y-15245674D02*
X14492777Y-15236150D01*
X14492777Y-15236150D02*
X14530873Y-15236150D01*
X14530873Y-15236150D02*
X14549920Y-15245674D01*
X14549920Y-15245674D02*
X14559444Y-15255198D01*
X14559444Y-15255198D02*
X14568968Y-15274246D01*
X14568968Y-15274246D02*
X14568968Y-15331388D01*
X14568968Y-15331388D02*
X14559444Y-15350436D01*
X14559444Y-15350436D02*
X14549920Y-15359960D01*
X14549920Y-15359960D02*
X14530873Y-15369484D01*
X14530873Y-15369484D02*
X14492777Y-15369484D01*
X14492777Y-15369484D02*
X14473730Y-15359960D01*
X14683253Y-15369484D02*
X14664206Y-15359960D01*
X14664206Y-15359960D02*
X14654682Y-15340912D01*
X14654682Y-15340912D02*
X14654682Y-15169484D01*
X14845158Y-15369484D02*
X14845158Y-15264722D01*
X14845158Y-15264722D02*
X14835634Y-15245674D01*
X14835634Y-15245674D02*
X14816587Y-15236150D01*
X14816587Y-15236150D02*
X14778492Y-15236150D01*
X14778492Y-15236150D02*
X14759444Y-15245674D01*
X14845158Y-15359960D02*
X14826111Y-15369484D01*
X14826111Y-15369484D02*
X14778492Y-15369484D01*
X14778492Y-15369484D02*
X14759444Y-15359960D01*
X14759444Y-15359960D02*
X14749920Y-15340912D01*
X14749920Y-15340912D02*
X14749920Y-15321865D01*
X14749920Y-15321865D02*
X14759444Y-15302817D01*
X14759444Y-15302817D02*
X14778492Y-15293293D01*
X14778492Y-15293293D02*
X14826111Y-15293293D01*
X14826111Y-15293293D02*
X14845158Y-15283769D01*
X14911825Y-15236150D02*
X14988015Y-15236150D01*
X14940396Y-15169484D02*
X14940396Y-15340912D01*
X14940396Y-15340912D02*
X14949920Y-15359960D01*
X14949920Y-15359960D02*
X14968968Y-15369484D01*
X14968968Y-15369484D02*
X14988015Y-15369484D01*
X15130873Y-15359960D02*
X15111825Y-15369484D01*
X15111825Y-15369484D02*
X15073730Y-15369484D01*
X15073730Y-15369484D02*
X15054682Y-15359960D01*
X15054682Y-15359960D02*
X15045158Y-15340912D01*
X15045158Y-15340912D02*
X15045158Y-15264722D01*
X15045158Y-15264722D02*
X15054682Y-15245674D01*
X15054682Y-15245674D02*
X15073730Y-15236150D01*
X15073730Y-15236150D02*
X15111825Y-15236150D01*
X15111825Y-15236150D02*
X15130873Y-15245674D01*
X15130873Y-15245674D02*
X15140396Y-15264722D01*
X15140396Y-15264722D02*
X15140396Y-15283769D01*
X15140396Y-15283769D02*
X15045158Y-15302817D01*
X15311825Y-15369484D02*
X15311825Y-15169484D01*
X15311825Y-15359960D02*
X15292777Y-15369484D01*
X15292777Y-15369484D02*
X15254682Y-15369484D01*
X15254682Y-15369484D02*
X15235634Y-15359960D01*
X15235634Y-15359960D02*
X15226111Y-15350436D01*
X15226111Y-15350436D02*
X15216587Y-15331388D01*
X15216587Y-15331388D02*
X15216587Y-15274246D01*
X15216587Y-15274246D02*
X15226111Y-15255198D01*
X15226111Y-15255198D02*
X15235634Y-15245674D01*
X15235634Y-15245674D02*
X15254682Y-15236150D01*
X15254682Y-15236150D02*
X15292777Y-15236150D01*
X15292777Y-15236150D02*
X15311825Y-15245674D01*
X15388015Y-15445674D02*
X15397539Y-15436150D01*
X15397539Y-15436150D02*
X15416587Y-15407579D01*
X15416587Y-15407579D02*
X15426111Y-15388531D01*
X15426111Y-15388531D02*
X15435634Y-15359960D01*
X15435634Y-15359960D02*
X15445158Y-15312341D01*
X15445158Y-15312341D02*
X15445158Y-15274246D01*
X15445158Y-15274246D02*
X15435634Y-15226627D01*
X15435634Y-15226627D02*
X15426111Y-15198055D01*
X15426111Y-15198055D02*
X15416587Y-15179008D01*
X15416587Y-15179008D02*
X15397539Y-15150436D01*
X15397539Y-15150436D02*
X15388015Y-15140912D01*
M02*
