%TF.GenerationSoftware,KiCad,Pcbnew,7.0.11-7.0.11~ubuntu22.04.1*%
%TF.CreationDate,2024-06-28T21:45:01-07:00*%
%TF.ProjectId,little_red_rover,6c697474-6c65-45f7-9265-645f726f7665,rev?*%
%TF.SameCoordinates,Original*%
%TF.FileFunction,Paste,Top*%
%TF.FilePolarity,Positive*%
%FSLAX46Y46*%
G04 Gerber Fmt 4.6, Leading zero omitted, Abs format (unit mm)*
G04 Created by KiCad (PCBNEW 7.0.11-7.0.11~ubuntu22.04.1) date 2024-06-28 21:45:01*
%MOMM*%
%LPD*%
G01*
G04 APERTURE LIST*
G04 Aperture macros list*
%AMRoundRect*
0 Rectangle with rounded corners*
0 $1 Rounding radius*
0 $2 $3 $4 $5 $6 $7 $8 $9 X,Y pos of 4 corners*
0 Add a 4 corners polygon primitive as box body*
4,1,4,$2,$3,$4,$5,$6,$7,$8,$9,$2,$3,0*
0 Add four circle primitives for the rounded corners*
1,1,$1+$1,$2,$3*
1,1,$1+$1,$4,$5*
1,1,$1+$1,$6,$7*
1,1,$1+$1,$8,$9*
0 Add four rect primitives between the rounded corners*
20,1,$1+$1,$2,$3,$4,$5,0*
20,1,$1+$1,$4,$5,$6,$7,0*
20,1,$1+$1,$6,$7,$8,$9,0*
20,1,$1+$1,$8,$9,$2,$3,0*%
%AMFreePoly0*
4,1,6,0.600000,-0.600000,-0.600000,-0.600000,-0.600000,0.000000,0.000000,0.600000,0.600000,0.600000,0.600000,-0.600000,0.600000,-0.600000,$1*%
G04 Aperture macros list end*
%ADD10RoundRect,0.237500X-0.300000X-0.237500X0.300000X-0.237500X0.300000X0.237500X-0.300000X0.237500X0*%
%ADD11RoundRect,0.237500X0.237500X-0.250000X0.237500X0.250000X-0.237500X0.250000X-0.237500X-0.250000X0*%
%ADD12RoundRect,0.182500X0.182500X-0.182500X0.182500X0.182500X-0.182500X0.182500X-0.182500X-0.182500X0*%
%ADD13RoundRect,0.062500X0.062500X-0.350000X0.062500X0.350000X-0.062500X0.350000X-0.062500X-0.350000X0*%
%ADD14RoundRect,0.062500X0.350000X-0.062500X0.350000X0.062500X-0.350000X0.062500X-0.350000X-0.062500X0*%
%ADD15RoundRect,0.237500X0.237500X-0.287500X0.237500X0.287500X-0.237500X0.287500X-0.237500X-0.287500X0*%
%ADD16RoundRect,0.237500X-0.237500X0.250000X-0.237500X-0.250000X0.237500X-0.250000X0.237500X0.250000X0*%
%ADD17RoundRect,0.237500X0.237500X-0.300000X0.237500X0.300000X-0.237500X0.300000X-0.237500X-0.300000X0*%
%ADD18RoundRect,0.237500X-0.250000X-0.237500X0.250000X-0.237500X0.250000X0.237500X-0.250000X0.237500X0*%
%ADD19RoundRect,0.250001X-0.849999X0.462499X-0.849999X-0.462499X0.849999X-0.462499X0.849999X0.462499X0*%
%ADD20RoundRect,0.150000X-0.150000X-0.425000X0.150000X-0.425000X0.150000X0.425000X-0.150000X0.425000X0*%
%ADD21RoundRect,0.075000X-0.075000X-0.500000X0.075000X-0.500000X0.075000X0.500000X-0.075000X0.500000X0*%
%ADD22O,1.000000X2.100000*%
%ADD23O,1.000000X1.800000*%
%ADD24RoundRect,0.237500X0.300000X0.237500X-0.300000X0.237500X-0.300000X-0.237500X0.300000X-0.237500X0*%
%ADD25R,0.750000X0.650000*%
%ADD26RoundRect,0.062500X-0.187500X-0.062500X0.187500X-0.062500X0.187500X0.062500X-0.187500X0.062500X0*%
%ADD27R,0.400000X1.800000*%
%ADD28R,1.800000X0.400000*%
%ADD29R,0.800000X0.400000*%
%ADD30FreePoly0,270.000000*%
%ADD31R,1.200000X1.200000*%
%ADD32R,0.800000X1.800000*%
%ADD33R,1.800000X1.800000*%
%ADD34RoundRect,0.237500X-0.237500X0.300000X-0.237500X-0.300000X0.237500X-0.300000X0.237500X0.300000X0*%
%ADD35R,0.650000X0.750000*%
%ADD36RoundRect,0.062500X-0.062500X0.187500X-0.062500X-0.187500X0.062500X-0.187500X0.062500X0.187500X0*%
%ADD37R,1.250000X1.000000*%
%ADD38RoundRect,0.087500X-0.087500X0.225000X-0.087500X-0.225000X0.087500X-0.225000X0.087500X0.225000X0*%
%ADD39RoundRect,0.087500X-0.225000X0.087500X-0.225000X-0.087500X0.225000X-0.087500X0.225000X0.087500X0*%
%ADD40R,0.700000X0.700000*%
%ADD41RoundRect,0.237500X0.250000X0.237500X-0.250000X0.237500X-0.250000X-0.237500X0.250000X-0.237500X0*%
%ADD42RoundRect,0.150000X0.150000X-0.512500X0.150000X0.512500X-0.150000X0.512500X-0.150000X-0.512500X0*%
%ADD43R,1.701800X0.660400*%
%ADD44R,2.794000X1.092200*%
G04 APERTURE END LIST*
D10*
%TO.C,C4*%
X113187500Y-123062500D03*
X114912500Y-123062500D03*
%TD*%
%TO.C,C12*%
X113137500Y-125200000D03*
X114862500Y-125200000D03*
%TD*%
%TO.C,C7*%
X135807500Y-134750000D03*
X137532500Y-134750000D03*
%TD*%
D11*
%TO.C,R9*%
X207000000Y-112512500D03*
X207000000Y-110687500D03*
%TD*%
D12*
%TO.C,U2*%
X106805000Y-122555614D03*
X107645000Y-122555614D03*
X106805000Y-121715614D03*
X107645000Y-121715614D03*
D13*
X106475000Y-123598114D03*
X106975000Y-123598114D03*
X107475000Y-123598114D03*
X107975000Y-123598114D03*
D14*
X108687500Y-122885614D03*
X108687500Y-122385614D03*
X108687500Y-121885614D03*
X108687500Y-121385614D03*
D13*
X107975000Y-120673114D03*
X107475000Y-120673114D03*
X106975000Y-120673114D03*
X106475000Y-120673114D03*
D14*
X105762500Y-121385614D03*
X105762500Y-121885614D03*
X105762500Y-122385614D03*
X105762500Y-122885614D03*
%TD*%
D15*
%TO.C,D1*%
X153687500Y-138875000D03*
X153687500Y-137125000D03*
%TD*%
D16*
%TO.C,R4*%
X152140000Y-137067500D03*
X152140000Y-138892500D03*
%TD*%
%TO.C,R5*%
X155150000Y-137100000D03*
X155150000Y-138925000D03*
%TD*%
D17*
%TO.C,R15*%
X191510000Y-86440000D03*
X191510000Y-84715000D03*
%TD*%
D18*
%TO.C,R2*%
X147287500Y-131600000D03*
X149112500Y-131600000D03*
%TD*%
D19*
%TO.C,L2*%
X110000000Y-128237500D03*
X110000000Y-130562500D03*
%TD*%
D10*
%TO.C,C10*%
X140400000Y-71740000D03*
X142125000Y-71740000D03*
%TD*%
D20*
%TO.C,J1*%
X142000000Y-133520000D03*
X142800000Y-133520000D03*
D21*
X143950000Y-133520000D03*
X144950000Y-133520000D03*
X145450000Y-133520000D03*
X146450000Y-133520000D03*
D20*
X147600000Y-133520000D03*
X148400000Y-133520000D03*
X148400000Y-133520000D03*
X147600000Y-133520000D03*
D21*
X146950000Y-133520000D03*
X145950000Y-133520000D03*
X144450000Y-133520000D03*
X143450000Y-133520000D03*
D20*
X142800000Y-133520000D03*
X142000000Y-133520000D03*
D22*
X140880000Y-134095000D03*
D23*
X140880000Y-138275000D03*
D22*
X149520000Y-134095000D03*
D23*
X149520000Y-138275000D03*
%TD*%
D24*
%TO.C,C14*%
X206925000Y-109200000D03*
X205200000Y-109200000D03*
%TD*%
D16*
%TO.C,R13*%
X169625000Y-136627500D03*
X169625000Y-138452500D03*
%TD*%
D17*
%TO.C,C8*%
X138800000Y-71802500D03*
X138800000Y-70077500D03*
%TD*%
D25*
%TO.C,U5*%
X139600000Y-73440000D03*
X139600000Y-74240000D03*
D26*
X138650000Y-73090000D03*
X138650000Y-73590000D03*
X138650000Y-74090000D03*
X138650000Y-74590000D03*
X140550000Y-74590000D03*
X140550000Y-74090000D03*
X140550000Y-73590000D03*
X140550000Y-73090000D03*
%TD*%
D17*
%TO.C,C1*%
X102687500Y-122748114D03*
X102687500Y-121023114D03*
%TD*%
D27*
%TO.C,U10*%
X206130000Y-92000000D03*
X205280000Y-91992000D03*
X204430000Y-91992000D03*
X203580000Y-91992000D03*
X202730000Y-91992000D03*
X201880000Y-91992000D03*
X201030000Y-91992000D03*
X200180000Y-91992000D03*
X199330000Y-91992000D03*
X198480000Y-91992000D03*
X197630000Y-91992000D03*
X196780000Y-91992000D03*
X195930000Y-91992000D03*
X195080000Y-91992000D03*
X194230000Y-91992000D03*
D28*
X192680000Y-93550000D03*
X192680000Y-94400000D03*
X192680000Y-95250000D03*
X192680000Y-96100000D03*
X192680000Y-96950000D03*
X192680000Y-97800000D03*
X192680000Y-98650000D03*
X192680000Y-99500000D03*
X192680000Y-100350000D03*
X192680000Y-101200000D03*
X192680000Y-102050000D03*
X192680000Y-102900000D03*
X192680000Y-103750000D03*
X192680000Y-104600000D03*
X192680000Y-105450000D03*
D27*
X194230000Y-107008000D03*
X195080000Y-107008000D03*
X195930000Y-107008000D03*
X196780000Y-107008000D03*
X197630000Y-107008000D03*
X198480000Y-107008000D03*
X199330000Y-107008000D03*
X200180000Y-107008000D03*
X201030000Y-107008000D03*
X201880000Y-107008000D03*
X202730000Y-107008000D03*
X203580000Y-107008000D03*
X204430000Y-107008000D03*
X205280000Y-107008000D03*
X206130000Y-107000000D03*
D29*
X207180000Y-105450000D03*
X207180000Y-104600000D03*
X207180000Y-103750000D03*
X207180000Y-102900000D03*
X207180000Y-102050000D03*
X207180000Y-101200000D03*
X207180000Y-100350000D03*
X207180000Y-99500000D03*
X207180000Y-98650000D03*
X207180000Y-97800000D03*
X207180000Y-96950000D03*
X207180000Y-96100000D03*
X207180000Y-95250000D03*
X207180000Y-94400000D03*
X207180000Y-93550000D03*
D30*
X201830000Y-97850000D03*
D31*
X200180000Y-97850000D03*
X198530000Y-97850000D03*
X201830000Y-99500000D03*
X198530000Y-99500000D03*
X201830000Y-101150000D03*
X200180000Y-101150000D03*
X198530000Y-101150000D03*
D32*
X207180000Y-92000000D03*
D33*
X192680000Y-92000000D03*
X192680000Y-107000000D03*
D32*
X207180000Y-107000000D03*
%TD*%
D10*
%TO.C,C11*%
X113137500Y-126800000D03*
X114862500Y-126800000D03*
%TD*%
D18*
%TO.C,R6*%
X100775000Y-124885614D03*
X102600000Y-124885614D03*
%TD*%
D16*
%TO.C,R17*%
X198780000Y-88057500D03*
X198780000Y-89882500D03*
%TD*%
D34*
%TO.C,C5*%
X106687500Y-126023114D03*
X106687500Y-127748114D03*
%TD*%
%TO.C,C9*%
X135700000Y-136307500D03*
X135700000Y-138032500D03*
%TD*%
D15*
%TO.C,D2*%
X156687500Y-138893750D03*
X156687500Y-137143750D03*
%TD*%
D35*
%TO.C,U6*%
X134120000Y-135620000D03*
X133320000Y-135620000D03*
D36*
X134470000Y-134670000D03*
X133970000Y-134670000D03*
X133470000Y-134670000D03*
X132970000Y-134670000D03*
X132970000Y-136570000D03*
X133470000Y-136570000D03*
X133970000Y-136570000D03*
X134470000Y-136570000D03*
%TD*%
D37*
%TO.C,SW2*%
X102325000Y-72600000D03*
X110075000Y-72600000D03*
%TD*%
D38*
%TO.C,U9*%
X188260000Y-84415000D03*
X187760000Y-84415000D03*
X187260000Y-84415000D03*
X186760000Y-84415000D03*
D39*
X186597500Y-85077500D03*
X186597500Y-85577500D03*
X186597500Y-86077500D03*
D38*
X186760000Y-86740000D03*
X187260000Y-86740000D03*
X187760000Y-86740000D03*
X188260000Y-86740000D03*
D39*
X188422500Y-86077500D03*
X188422500Y-85577500D03*
X188422500Y-85077500D03*
%TD*%
D10*
%TO.C,C6*%
X112137500Y-72600000D03*
X113862500Y-72600000D03*
%TD*%
D16*
%TO.C,R8*%
X104687500Y-116973114D03*
X104687500Y-118798114D03*
%TD*%
D24*
%TO.C,C3*%
X113912500Y-117062500D03*
X112187500Y-117062500D03*
%TD*%
D37*
%TO.C,SW1*%
X102325000Y-77800000D03*
X110075000Y-77800000D03*
%TD*%
D18*
%TO.C,R7*%
X99722500Y-126645614D03*
X101547500Y-126645614D03*
%TD*%
D40*
%TO.C,D5*%
X160970000Y-138490000D03*
X160970000Y-137390000D03*
X159140000Y-137390000D03*
X159140000Y-138490000D03*
%TD*%
D41*
%TO.C,R1*%
X143112500Y-131600000D03*
X141287500Y-131600000D03*
%TD*%
D24*
%TO.C,C13*%
X113862500Y-77800000D03*
X112137500Y-77800000D03*
%TD*%
D40*
%TO.C,D3*%
X168055000Y-138540000D03*
X168055000Y-137440000D03*
X166225000Y-137440000D03*
X166225000Y-138540000D03*
%TD*%
D17*
%TO.C,C2*%
X106687500Y-118748114D03*
X106687500Y-117023114D03*
%TD*%
D11*
%TO.C,R3*%
X104687500Y-127798114D03*
X104687500Y-125973114D03*
%TD*%
D16*
%TO.C,R16*%
X194630000Y-88087500D03*
X194630000Y-89912500D03*
%TD*%
D17*
%TO.C,R14*%
X193110000Y-86440000D03*
X193110000Y-84715000D03*
%TD*%
D40*
%TO.C,D4*%
X164555000Y-138540000D03*
X164555000Y-137440000D03*
X162725000Y-137440000D03*
X162725000Y-138540000D03*
%TD*%
D18*
%TO.C,R11*%
X196577500Y-83530000D03*
X198402500Y-83530000D03*
%TD*%
D42*
%TO.C,U3*%
X114100000Y-121200000D03*
X115050000Y-121200000D03*
X116000000Y-121200000D03*
X116000000Y-118925000D03*
X114100000Y-118925000D03*
%TD*%
D37*
%TO.C,SW3*%
X102325000Y-83000000D03*
X110075000Y-83000000D03*
%TD*%
D42*
%TO.C,U4*%
X112512500Y-130737500D03*
X113462500Y-130737500D03*
X114412500Y-130737500D03*
X114412500Y-128462500D03*
X112512500Y-128462500D03*
%TD*%
D24*
%TO.C,C15*%
X113862500Y-83000000D03*
X112137500Y-83000000D03*
%TD*%
D43*
%TO.C,J2*%
X102784300Y-101915000D03*
X102784300Y-100665000D03*
X102784300Y-99415000D03*
X102784300Y-98165000D03*
D44*
X105860000Y-103840000D03*
X105860000Y-96240000D03*
%TD*%
M02*
