%TF.GenerationSoftware,KiCad,Pcbnew,7.0.10-7.0.10~ubuntu22.04.1*%
%TF.CreationDate,2024-04-21T14:18:29-04:00*%
%TF.ProjectId,little_red_rover,6c697474-6c65-45f7-9265-645f726f7665,rev?*%
%TF.SameCoordinates,Original*%
%TF.FileFunction,Drillmap*%
%TF.FilePolarity,Positive*%
%FSLAX45Y45*%
G04 Gerber Fmt 4.5, Leading zero omitted, Abs format (unit mm)*
G04 Created by KiCad (PCBNEW 7.0.10-7.0.10~ubuntu22.04.1) date 2024-04-21 14:18:29*
%MOMM*%
%LPD*%
G01*
G04 APERTURE LIST*
%ADD10C,0.200000*%
%ADD11C,0.100000*%
%ADD12C,0.240000*%
G04 APERTURE END LIST*
D10*
X21365000Y-11650000D02*
X20865000Y-11650000D01*
X18375000Y-11935000D02*
X17361369Y-11935000D01*
X9003062Y-11700000D02*
X9447410Y-11700000D01*
X21365000Y-6090000D02*
X21365000Y-5890000D01*
X18375000Y-11935000D02*
X18375000Y-11635000D01*
X21365000Y-11650000D02*
X21365000Y-8350000D01*
X18375000Y-11635000D02*
X17361369Y-11635000D01*
X17361369Y-6375000D02*
X17361369Y-6075000D01*
X9003062Y-8300000D02*
X9447410Y-8300000D01*
X9099729Y-10690000D02*
G75*
G03*
X9143334Y-10890000I3645091J689960D01*
G01*
X17361369Y-11935000D02*
X17361369Y-11635000D01*
X21365000Y-8150000D02*
X20865000Y-8150000D01*
X16505000Y-8200000D02*
G75*
G03*
X16185000Y-8200000I-160000J0D01*
G01*
X16185000Y-8200000D02*
G75*
G03*
X16505000Y-8200000I160000J0D01*
G01*
X12745000Y-5890000D02*
G75*
G03*
X9003062Y-8300000I1J-4110001D01*
G01*
X13978988Y-11634861D02*
G75*
G03*
X14609153Y-11742043I355412J183521D01*
G01*
X9351757Y-8500000D02*
X8918500Y-8500000D01*
X20865000Y-13710000D02*
X20865000Y-13910000D01*
X14609149Y-8257960D02*
G75*
G03*
X13978992Y-8365141I-274750J-290700D01*
G01*
X15923362Y-9500000D02*
X14609153Y-8257957D01*
X8693334Y-9310000D02*
G75*
G03*
X8693334Y-10690000I4051666J-690000D01*
G01*
X17361369Y-6375000D02*
X18375000Y-6375000D01*
X12745000Y-14110000D02*
X21365000Y-14110000D01*
X9447410Y-8300000D02*
G75*
G03*
X9351757Y-8500000I3297630J-1700020D01*
G01*
X21365000Y-8150000D02*
X21365000Y-6290000D01*
X17361369Y-13925000D02*
X17361369Y-13625000D01*
X20865000Y-8150000D02*
X20865000Y-8350000D01*
X17361369Y-6075000D02*
X18375000Y-6075000D01*
X9099729Y-10690000D02*
X8693334Y-10690000D01*
X18375000Y-8365000D02*
X18375000Y-8065000D01*
X20865000Y-6090000D02*
X21365000Y-6090000D01*
X17361369Y-8365000D02*
X18375000Y-8365000D01*
X15923362Y-10500000D02*
G75*
G03*
X15923362Y-9500000I1221638J500000D01*
G01*
X18375000Y-13925000D02*
X17361369Y-13925000D01*
X20865000Y-11650000D02*
X20865000Y-11850000D01*
X8732520Y-10890000D02*
X9143334Y-10890000D01*
X18375000Y-13625000D02*
X17361369Y-13625000D01*
X12745000Y-5890000D02*
X21365000Y-5890000D01*
X21365000Y-8350000D02*
X20865000Y-8350000D01*
X8918501Y-8500000D02*
G75*
G03*
X8732520Y-9110000I3826559J-1500020D01*
G01*
X8918500Y-11500000D02*
X9351757Y-11500000D01*
X9143334Y-9110000D02*
G75*
G03*
X9099729Y-9310000I3601986J-890070D01*
G01*
X9003062Y-11700000D02*
G75*
G03*
X12745000Y-14110000I3741938J1700000D01*
G01*
X21365000Y-11850000D02*
X20865000Y-11850000D01*
X21365000Y-6290000D02*
X20865000Y-6290000D01*
X17361369Y-8065000D02*
X18375000Y-8065000D01*
X20865000Y-13910000D02*
X21365000Y-13910000D01*
X20865000Y-6090000D02*
X20865000Y-6290000D01*
X16505000Y-11800000D02*
G75*
G03*
X16185000Y-11800000I-160000J0D01*
G01*
X16185000Y-11800000D02*
G75*
G03*
X16505000Y-11800000I160000J0D01*
G01*
X18375000Y-13925000D02*
X18375000Y-13625000D01*
X9099729Y-9310000D02*
X8693334Y-9310000D01*
X17361369Y-8365000D02*
X17361369Y-8065000D01*
X9375000Y-10000000D02*
G75*
G03*
X9055000Y-10000000I-160000J0D01*
G01*
X9055000Y-10000000D02*
G75*
G03*
X9375000Y-10000000I160000J0D01*
G01*
X21365000Y-13710000D02*
X20865000Y-13710000D01*
X8732519Y-10890000D02*
G75*
G03*
X8918500Y-11500000I4012401J889980D01*
G01*
X21365000Y-13710000D02*
X21365000Y-11850000D01*
X9351757Y-11500000D02*
G75*
G03*
X9447410Y-11700000I3393283J1500020D01*
G01*
X9143334Y-9110000D02*
X8732520Y-9110000D01*
X18375000Y-6375000D02*
X18375000Y-6075000D01*
X13978992Y-8365141D02*
G75*
G03*
X13978992Y-11634859I3166008J-1634859D01*
G01*
X15923362Y-10500000D02*
X14609153Y-11742043D01*
X21365000Y-14110000D02*
X21365000Y-13910000D01*
D11*
X12540000Y-12040000D02*
X12560000Y-12060000D01*
X12560000Y-12040000D02*
X12540000Y-12060000D01*
X12540000Y-12158000D02*
X12560000Y-12178000D01*
X12560000Y-12158000D02*
X12540000Y-12178000D01*
X12658000Y-12040000D02*
X12678000Y-12060000D01*
X12678000Y-12040000D02*
X12658000Y-12060000D01*
X12658000Y-12158000D02*
X12678000Y-12178000D01*
X12678000Y-12158000D02*
X12658000Y-12178000D01*
X12337500Y-6995000D02*
G75*
G03*
X12312500Y-6995000I-12500J0D01*
G01*
X12312500Y-6995000D02*
G75*
G03*
X12337500Y-6995000I12500J0D01*
G01*
X12437500Y-6995000D02*
G75*
G03*
X12412500Y-6995000I-12500J0D01*
G01*
X12412500Y-6995000D02*
G75*
G03*
X12437500Y-6995000I12500J0D01*
G01*
X13112500Y-7000000D02*
G75*
G03*
X13087500Y-7000000I-12500J0D01*
G01*
X13087500Y-7000000D02*
G75*
G03*
X13112500Y-7000000I12500J0D01*
G01*
X13212500Y-7000000D02*
G75*
G03*
X13187500Y-7000000I-12500J0D01*
G01*
X13187500Y-7000000D02*
G75*
G03*
X13212500Y-7000000I12500J0D01*
G01*
X10780000Y-6890000D02*
X10780000Y-6930000D01*
X10760000Y-6910000D02*
X10800000Y-6910000D01*
X10790000Y-8490000D02*
X10790000Y-8530000D01*
X10770000Y-8510000D02*
X10810000Y-8510000D01*
X10790000Y-11549000D02*
X10790000Y-11589000D01*
X10770000Y-11569000D02*
X10810000Y-11569000D01*
X10790000Y-13150000D02*
X10790000Y-13190000D01*
X10770000Y-13170000D02*
X10810000Y-13170000D01*
X11800000Y-12740000D02*
X11800000Y-12780000D01*
X11780000Y-12760000D02*
X11820000Y-12760000D01*
X11860000Y-12480000D02*
X11860000Y-12520000D01*
X11840000Y-12500000D02*
X11880000Y-12500000D01*
X11900002Y-13867500D02*
X11900002Y-13907500D01*
X11880002Y-13887500D02*
X11920002Y-13887500D01*
X11960000Y-12360000D02*
X11960000Y-12400000D01*
X11940000Y-12380000D02*
X11980000Y-12380000D01*
X12110000Y-13480000D02*
X12110000Y-13520000D01*
X12090000Y-13500000D02*
X12130000Y-13500000D01*
X12200000Y-13867500D02*
X12200000Y-13907500D01*
X12180000Y-13887500D02*
X12220000Y-13887500D01*
X12360000Y-9960000D02*
X12360000Y-10000000D01*
X12340000Y-9980000D02*
X12380000Y-9980000D01*
X12360000Y-12650000D02*
X12360000Y-12690000D01*
X12340000Y-12670000D02*
X12380000Y-12670000D01*
X12380000Y-9000000D02*
X12380000Y-9040000D01*
X12360000Y-9020000D02*
X12400000Y-9020000D01*
X12560000Y-12650000D02*
X12560000Y-12690000D01*
X12540000Y-12670000D02*
X12580000Y-12670000D01*
X12620000Y-6880000D02*
X12620000Y-6920000D01*
X12600000Y-6900000D02*
X12640000Y-6900000D01*
X12630000Y-10240000D02*
X12630000Y-10280000D01*
X12610000Y-10260000D02*
X12650000Y-10260000D01*
X12640000Y-10370000D02*
X12640000Y-10410000D01*
X12620000Y-10390000D02*
X12660000Y-10390000D01*
X12690000Y-11790000D02*
X12690000Y-11830000D01*
X12670000Y-11810000D02*
X12710000Y-11810000D01*
X12743033Y-6876967D02*
X12743033Y-6916967D01*
X12723033Y-6896967D02*
X12763033Y-6896967D01*
X12842366Y-6893785D02*
X12842366Y-6933785D01*
X12822366Y-6913785D02*
X12862366Y-6913785D01*
X12880000Y-12070000D02*
X12880000Y-12110000D01*
X12860000Y-12090000D02*
X12900000Y-12090000D01*
X13100000Y-6750000D02*
X13100000Y-6790000D01*
X13080000Y-6770000D02*
X13120000Y-6770000D01*
X13130931Y-12815931D02*
X13130931Y-12855931D01*
X13110931Y-12835931D02*
X13150931Y-12835931D01*
X13210000Y-11720000D02*
X13210000Y-11760000D01*
X13190000Y-11740000D02*
X13230000Y-11740000D01*
X13240000Y-12250000D02*
X13240000Y-12290000D01*
X13220000Y-12270000D02*
X13260000Y-12270000D01*
X13324399Y-13479500D02*
X13324399Y-13519500D01*
X13304399Y-13499500D02*
X13344399Y-13499500D01*
X13330000Y-12840000D02*
X13330000Y-12880000D01*
X13310000Y-12860000D02*
X13350000Y-12860000D01*
X13350000Y-12660000D02*
X13350000Y-12700000D01*
X13330000Y-12680000D02*
X13370000Y-12680000D01*
X13580000Y-13160000D02*
X13580000Y-13200000D01*
X13560000Y-13180000D02*
X13600000Y-13180000D01*
X14150000Y-12560000D02*
X14150000Y-12600000D01*
X14130000Y-12580000D02*
X14170000Y-12580000D01*
X14234020Y-12275980D02*
X14234020Y-12315980D01*
X14214020Y-12295980D02*
X14254020Y-12295980D01*
X14240000Y-12410000D02*
X14240000Y-12450000D01*
X14220000Y-12430000D02*
X14260000Y-12430000D01*
X14240000Y-12500000D02*
X14240000Y-12540000D01*
X14220000Y-12520000D02*
X14260000Y-12520000D01*
X14340000Y-12552700D02*
X14340000Y-12592700D01*
X14320000Y-12572700D02*
X14360000Y-12572700D01*
X14500000Y-12700000D02*
X14500000Y-12740000D01*
X14480000Y-12720000D02*
X14520000Y-12720000D01*
X15050000Y-7060000D02*
X15050000Y-7100000D01*
X15030000Y-7080000D02*
X15070000Y-7080000D01*
X15600000Y-7760000D02*
X15600000Y-7800000D01*
X15580000Y-7780000D02*
X15620000Y-7780000D01*
X15680000Y-11320000D02*
X15680000Y-11360000D01*
X15660000Y-11340000D02*
X15700000Y-11340000D01*
X15770000Y-8790000D02*
X15770000Y-8830000D01*
X15750000Y-8810000D02*
X15790000Y-8810000D01*
X18500000Y-11160000D02*
X18500000Y-11200000D01*
X18480000Y-11180000D02*
X18520000Y-11180000D01*
X18506820Y-12066820D02*
X18506820Y-12106820D01*
X18486820Y-12086820D02*
X18526820Y-12086820D01*
X18780000Y-10290000D02*
X18780000Y-10330000D01*
X18760000Y-10310000D02*
X18800000Y-10310000D01*
X18920000Y-10420000D02*
X18920000Y-10460000D01*
X18900000Y-10440000D02*
X18940000Y-10440000D01*
X18940000Y-9697000D02*
X18940000Y-9737000D01*
X18920000Y-9717000D02*
X18960000Y-9717000D01*
X18940000Y-9880000D02*
X18940000Y-9920000D01*
X18920000Y-9900000D02*
X18960000Y-9900000D01*
X18961673Y-10528327D02*
X18961673Y-10568327D01*
X18941673Y-10548327D02*
X18981673Y-10548327D01*
X19027570Y-11082758D02*
X19027570Y-11122758D01*
X19007570Y-11102758D02*
X19047570Y-11102758D01*
X19050000Y-9347000D02*
X19050000Y-9387000D01*
X19030000Y-9367000D02*
X19070000Y-9367000D01*
X19090000Y-10130000D02*
X19090000Y-10170000D01*
X19070000Y-10150000D02*
X19110000Y-10150000D01*
X19290000Y-9998282D02*
X19290000Y-10038282D01*
X19270000Y-10018282D02*
X19310000Y-10018282D01*
X19410000Y-10310000D02*
X19410000Y-10350000D01*
X19390000Y-10330000D02*
X19430000Y-10330000D01*
X19458750Y-11230000D02*
X19458750Y-11270000D01*
X19438750Y-11250000D02*
X19478750Y-11250000D01*
X19479141Y-10081358D02*
X19479141Y-10121358D01*
X19459141Y-10101358D02*
X19499141Y-10101358D01*
X19500000Y-10870000D02*
X19500000Y-10910000D01*
X19480000Y-10890000D02*
X19520000Y-10890000D01*
X19604375Y-11375625D02*
X19604375Y-11415625D01*
X19584375Y-11395625D02*
X19624375Y-11395625D01*
X19641250Y-11230000D02*
X19641250Y-11270000D01*
X19621250Y-11250000D02*
X19661250Y-11250000D01*
X19680000Y-10050000D02*
X19680000Y-10090000D01*
X19660000Y-10070000D02*
X19700000Y-10070000D01*
X19680000Y-10210000D02*
X19680000Y-10250000D01*
X19660000Y-10230000D02*
X19700000Y-10230000D01*
X19765000Y-9650000D02*
X19765000Y-9690000D01*
X19745000Y-9670000D02*
X19785000Y-9670000D01*
X19810000Y-9270000D02*
X19810000Y-9310000D01*
X19790000Y-9290000D02*
X19830000Y-9290000D01*
X19880000Y-10460000D02*
X19880000Y-10500000D01*
X19860000Y-10480000D02*
X19900000Y-10480000D01*
X19894044Y-10975000D02*
X19894044Y-11015000D01*
X19874044Y-10995000D02*
X19914044Y-10995000D01*
X20220000Y-9410000D02*
X20220000Y-9450000D01*
X20200000Y-9430000D02*
X20240000Y-9430000D01*
X20220000Y-10690000D02*
X20220000Y-10730000D01*
X20200000Y-10710000D02*
X20240000Y-10710000D01*
X20300000Y-9560000D02*
X20300000Y-9600000D01*
X20280000Y-9580000D02*
X20320000Y-9580000D01*
X20570000Y-10500000D02*
X20570000Y-10540000D01*
X20550000Y-10520000D02*
X20590000Y-10520000D01*
X12889213Y-13460713D02*
X12889213Y-13418287D01*
X12846787Y-13418287D01*
X12846787Y-13460713D01*
X12889213Y-13460713D01*
X12838000Y-13384500D02*
X12838000Y-13494500D01*
X12838000Y-13494500D02*
G75*
G03*
X12898000Y-13494500I30000J0D01*
G01*
X12898000Y-13494500D02*
X12898000Y-13384500D01*
X12898000Y-13384500D02*
G75*
G03*
X12838000Y-13384500I-30000J0D01*
G01*
X12889213Y-13878713D02*
X12889213Y-13836287D01*
X12846787Y-13836287D01*
X12846787Y-13878713D01*
X12889213Y-13878713D01*
X12838000Y-13817500D02*
X12838000Y-13897500D01*
X12838000Y-13897500D02*
G75*
G03*
X12898000Y-13897500I30000J0D01*
G01*
X12898000Y-13897500D02*
X12898000Y-13817500D01*
X12898000Y-13817500D02*
G75*
G03*
X12838000Y-13817500I-30000J0D01*
G01*
X13753213Y-13460713D02*
X13753213Y-13418287D01*
X13710787Y-13418287D01*
X13710787Y-13460713D01*
X13753213Y-13460713D01*
X13702000Y-13384500D02*
X13702000Y-13494500D01*
X13702000Y-13494500D02*
G75*
G03*
X13762000Y-13494500I30000J0D01*
G01*
X13762000Y-13494500D02*
X13762000Y-13384500D01*
X13762000Y-13384500D02*
G75*
G03*
X13702000Y-13384500I-30000J0D01*
G01*
X13753213Y-13878713D02*
X13753213Y-13836287D01*
X13710787Y-13836287D01*
X13710787Y-13878713D01*
X13753213Y-13878713D01*
X13702000Y-13817500D02*
X13702000Y-13897500D01*
X13702000Y-13897500D02*
G75*
G03*
X13762000Y-13897500I30000J0D01*
G01*
X13762000Y-13897500D02*
X13762000Y-13817500D01*
X13762000Y-13817500D02*
G75*
G03*
X13702000Y-13817500I-30000J0D01*
G01*
X20078115Y-11366840D02*
X20116215Y-11328740D01*
X20078115Y-11290640D01*
X20040015Y-11328740D01*
X20078115Y-11366840D01*
X20078115Y-11566840D02*
X20116215Y-11528740D01*
X20078115Y-11490640D01*
X20040015Y-11528740D01*
X20078115Y-11566840D01*
X20101885Y-8489360D02*
X20139985Y-8451260D01*
X20101885Y-8413160D01*
X20063785Y-8451260D01*
X20101885Y-8489360D01*
X20101885Y-8689360D02*
X20139985Y-8651260D01*
X20101885Y-8613160D01*
X20063785Y-8651260D01*
X20101885Y-8689360D01*
X20528115Y-11366840D02*
X20566215Y-11328740D01*
X20528115Y-11290640D01*
X20490015Y-11328740D01*
X20528115Y-11366840D01*
X20528115Y-11566840D02*
X20566215Y-11528740D01*
X20528115Y-11490640D01*
X20490015Y-11528740D01*
X20528115Y-11566840D01*
X20551885Y-8489360D02*
X20589985Y-8451260D01*
X20551885Y-8413160D01*
X20513785Y-8451260D01*
X20551885Y-8489360D01*
X20551885Y-8689360D02*
X20589985Y-8651260D01*
X20551885Y-8613160D01*
X20513785Y-8651260D01*
X20551885Y-8689360D01*
X12220000Y-7410000D02*
X12320000Y-7510000D01*
X12320000Y-7410000D02*
X12220000Y-7510000D01*
X12320000Y-7460000D02*
G75*
G03*
X12220000Y-7460000I-50000J0D01*
G01*
X12220000Y-7460000D02*
G75*
G03*
X12320000Y-7460000I50000J0D01*
G01*
X12474000Y-7410000D02*
X12574000Y-7510000D01*
X12574000Y-7410000D02*
X12474000Y-7510000D01*
X12574000Y-7460000D02*
G75*
G03*
X12474000Y-7460000I-50000J0D01*
G01*
X12474000Y-7460000D02*
G75*
G03*
X12574000Y-7460000I50000J0D01*
G01*
X12970000Y-7410000D02*
X13070000Y-7510000D01*
X13070000Y-7410000D02*
X12970000Y-7510000D01*
X13070000Y-7460000D02*
G75*
G03*
X12970000Y-7460000I-50000J0D01*
G01*
X12970000Y-7460000D02*
G75*
G03*
X13070000Y-7460000I50000J0D01*
G01*
X13224000Y-7410000D02*
X13324000Y-7510000D01*
X13324000Y-7410000D02*
X13224000Y-7510000D01*
X13324000Y-7460000D02*
G75*
G03*
X13224000Y-7460000I-50000J0D01*
G01*
X13224000Y-7460000D02*
G75*
G03*
X13324000Y-7460000I50000J0D01*
G01*
D12*
X20100000Y-9950000D02*
X20340000Y-10190000D01*
X20340000Y-9950000D02*
X20100000Y-10190000D01*
X20220000Y-9950000D02*
X20220000Y-10190000D01*
X20100000Y-10070000D02*
X20340000Y-10070000D01*
D10*
X8885777Y-14431484D02*
X8885777Y-14231484D01*
X8885777Y-14231484D02*
X8933396Y-14231484D01*
X8933396Y-14231484D02*
X8961967Y-14241008D01*
X8961967Y-14241008D02*
X8981015Y-14260055D01*
X8981015Y-14260055D02*
X8990539Y-14279103D01*
X8990539Y-14279103D02*
X9000063Y-14317198D01*
X9000063Y-14317198D02*
X9000063Y-14345769D01*
X9000063Y-14345769D02*
X8990539Y-14383865D01*
X8990539Y-14383865D02*
X8981015Y-14402912D01*
X8981015Y-14402912D02*
X8961967Y-14421960D01*
X8961967Y-14421960D02*
X8933396Y-14431484D01*
X8933396Y-14431484D02*
X8885777Y-14431484D01*
X9085777Y-14431484D02*
X9085777Y-14298150D01*
X9085777Y-14336246D02*
X9095301Y-14317198D01*
X9095301Y-14317198D02*
X9104824Y-14307674D01*
X9104824Y-14307674D02*
X9123872Y-14298150D01*
X9123872Y-14298150D02*
X9142920Y-14298150D01*
X9209586Y-14431484D02*
X9209586Y-14298150D01*
X9209586Y-14231484D02*
X9200063Y-14241008D01*
X9200063Y-14241008D02*
X9209586Y-14250531D01*
X9209586Y-14250531D02*
X9219110Y-14241008D01*
X9219110Y-14241008D02*
X9209586Y-14231484D01*
X9209586Y-14231484D02*
X9209586Y-14250531D01*
X9333396Y-14431484D02*
X9314348Y-14421960D01*
X9314348Y-14421960D02*
X9304824Y-14402912D01*
X9304824Y-14402912D02*
X9304824Y-14231484D01*
X9438158Y-14431484D02*
X9419110Y-14421960D01*
X9419110Y-14421960D02*
X9409586Y-14402912D01*
X9409586Y-14402912D02*
X9409586Y-14231484D01*
X9666729Y-14431484D02*
X9666729Y-14231484D01*
X9666729Y-14231484D02*
X9733396Y-14374341D01*
X9733396Y-14374341D02*
X9800063Y-14231484D01*
X9800063Y-14231484D02*
X9800063Y-14431484D01*
X9981015Y-14431484D02*
X9981015Y-14326722D01*
X9981015Y-14326722D02*
X9971491Y-14307674D01*
X9971491Y-14307674D02*
X9952444Y-14298150D01*
X9952444Y-14298150D02*
X9914348Y-14298150D01*
X9914348Y-14298150D02*
X9895301Y-14307674D01*
X9981015Y-14421960D02*
X9961967Y-14431484D01*
X9961967Y-14431484D02*
X9914348Y-14431484D01*
X9914348Y-14431484D02*
X9895301Y-14421960D01*
X9895301Y-14421960D02*
X9885777Y-14402912D01*
X9885777Y-14402912D02*
X9885777Y-14383865D01*
X9885777Y-14383865D02*
X9895301Y-14364817D01*
X9895301Y-14364817D02*
X9914348Y-14355293D01*
X9914348Y-14355293D02*
X9961967Y-14355293D01*
X9961967Y-14355293D02*
X9981015Y-14345769D01*
X10076253Y-14298150D02*
X10076253Y-14498150D01*
X10076253Y-14307674D02*
X10095301Y-14298150D01*
X10095301Y-14298150D02*
X10133396Y-14298150D01*
X10133396Y-14298150D02*
X10152444Y-14307674D01*
X10152444Y-14307674D02*
X10161967Y-14317198D01*
X10161967Y-14317198D02*
X10171491Y-14336246D01*
X10171491Y-14336246D02*
X10171491Y-14393388D01*
X10171491Y-14393388D02*
X10161967Y-14412436D01*
X10161967Y-14412436D02*
X10152444Y-14421960D01*
X10152444Y-14421960D02*
X10133396Y-14431484D01*
X10133396Y-14431484D02*
X10095301Y-14431484D01*
X10095301Y-14431484D02*
X10076253Y-14421960D01*
X10257205Y-14412436D02*
X10266729Y-14421960D01*
X10266729Y-14421960D02*
X10257205Y-14431484D01*
X10257205Y-14431484D02*
X10247682Y-14421960D01*
X10247682Y-14421960D02*
X10257205Y-14412436D01*
X10257205Y-14412436D02*
X10257205Y-14431484D01*
X10257205Y-14307674D02*
X10266729Y-14317198D01*
X10266729Y-14317198D02*
X10257205Y-14326722D01*
X10257205Y-14326722D02*
X10247682Y-14317198D01*
X10247682Y-14317198D02*
X10257205Y-14307674D01*
X10257205Y-14307674D02*
X10257205Y-14326722D01*
D11*
X8605000Y-14750000D02*
X8625000Y-14770000D01*
X8625000Y-14750000D02*
X8605000Y-14770000D01*
D10*
X8923872Y-14651484D02*
X8942920Y-14651484D01*
X8942920Y-14651484D02*
X8961967Y-14661008D01*
X8961967Y-14661008D02*
X8971491Y-14670531D01*
X8971491Y-14670531D02*
X8981015Y-14689579D01*
X8981015Y-14689579D02*
X8990539Y-14727674D01*
X8990539Y-14727674D02*
X8990539Y-14775293D01*
X8990539Y-14775293D02*
X8981015Y-14813388D01*
X8981015Y-14813388D02*
X8971491Y-14832436D01*
X8971491Y-14832436D02*
X8961967Y-14841960D01*
X8961967Y-14841960D02*
X8942920Y-14851484D01*
X8942920Y-14851484D02*
X8923872Y-14851484D01*
X8923872Y-14851484D02*
X8904824Y-14841960D01*
X8904824Y-14841960D02*
X8895301Y-14832436D01*
X8895301Y-14832436D02*
X8885777Y-14813388D01*
X8885777Y-14813388D02*
X8876253Y-14775293D01*
X8876253Y-14775293D02*
X8876253Y-14727674D01*
X8876253Y-14727674D02*
X8885777Y-14689579D01*
X8885777Y-14689579D02*
X8895301Y-14670531D01*
X8895301Y-14670531D02*
X8904824Y-14661008D01*
X8904824Y-14661008D02*
X8923872Y-14651484D01*
X9076253Y-14832436D02*
X9085777Y-14841960D01*
X9085777Y-14841960D02*
X9076253Y-14851484D01*
X9076253Y-14851484D02*
X9066729Y-14841960D01*
X9066729Y-14841960D02*
X9076253Y-14832436D01*
X9076253Y-14832436D02*
X9076253Y-14851484D01*
X9161967Y-14670531D02*
X9171491Y-14661008D01*
X9171491Y-14661008D02*
X9190539Y-14651484D01*
X9190539Y-14651484D02*
X9238158Y-14651484D01*
X9238158Y-14651484D02*
X9257205Y-14661008D01*
X9257205Y-14661008D02*
X9266729Y-14670531D01*
X9266729Y-14670531D02*
X9276253Y-14689579D01*
X9276253Y-14689579D02*
X9276253Y-14708627D01*
X9276253Y-14708627D02*
X9266729Y-14737198D01*
X9266729Y-14737198D02*
X9152444Y-14851484D01*
X9152444Y-14851484D02*
X9276253Y-14851484D01*
X9400063Y-14651484D02*
X9419110Y-14651484D01*
X9419110Y-14651484D02*
X9438158Y-14661008D01*
X9438158Y-14661008D02*
X9447682Y-14670531D01*
X9447682Y-14670531D02*
X9457205Y-14689579D01*
X9457205Y-14689579D02*
X9466729Y-14727674D01*
X9466729Y-14727674D02*
X9466729Y-14775293D01*
X9466729Y-14775293D02*
X9457205Y-14813388D01*
X9457205Y-14813388D02*
X9447682Y-14832436D01*
X9447682Y-14832436D02*
X9438158Y-14841960D01*
X9438158Y-14841960D02*
X9419110Y-14851484D01*
X9419110Y-14851484D02*
X9400063Y-14851484D01*
X9400063Y-14851484D02*
X9381015Y-14841960D01*
X9381015Y-14841960D02*
X9371491Y-14832436D01*
X9371491Y-14832436D02*
X9361967Y-14813388D01*
X9361967Y-14813388D02*
X9352444Y-14775293D01*
X9352444Y-14775293D02*
X9352444Y-14727674D01*
X9352444Y-14727674D02*
X9361967Y-14689579D01*
X9361967Y-14689579D02*
X9371491Y-14670531D01*
X9371491Y-14670531D02*
X9381015Y-14661008D01*
X9381015Y-14661008D02*
X9400063Y-14651484D01*
X9590539Y-14651484D02*
X9609586Y-14651484D01*
X9609586Y-14651484D02*
X9628634Y-14661008D01*
X9628634Y-14661008D02*
X9638158Y-14670531D01*
X9638158Y-14670531D02*
X9647682Y-14689579D01*
X9647682Y-14689579D02*
X9657205Y-14727674D01*
X9657205Y-14727674D02*
X9657205Y-14775293D01*
X9657205Y-14775293D02*
X9647682Y-14813388D01*
X9647682Y-14813388D02*
X9638158Y-14832436D01*
X9638158Y-14832436D02*
X9628634Y-14841960D01*
X9628634Y-14841960D02*
X9609586Y-14851484D01*
X9609586Y-14851484D02*
X9590539Y-14851484D01*
X9590539Y-14851484D02*
X9571491Y-14841960D01*
X9571491Y-14841960D02*
X9561967Y-14832436D01*
X9561967Y-14832436D02*
X9552444Y-14813388D01*
X9552444Y-14813388D02*
X9542920Y-14775293D01*
X9542920Y-14775293D02*
X9542920Y-14727674D01*
X9542920Y-14727674D02*
X9552444Y-14689579D01*
X9552444Y-14689579D02*
X9561967Y-14670531D01*
X9561967Y-14670531D02*
X9571491Y-14661008D01*
X9571491Y-14661008D02*
X9590539Y-14651484D01*
X9742920Y-14851484D02*
X9742920Y-14718150D01*
X9742920Y-14737198D02*
X9752444Y-14727674D01*
X9752444Y-14727674D02*
X9771491Y-14718150D01*
X9771491Y-14718150D02*
X9800063Y-14718150D01*
X9800063Y-14718150D02*
X9819110Y-14727674D01*
X9819110Y-14727674D02*
X9828634Y-14746722D01*
X9828634Y-14746722D02*
X9828634Y-14851484D01*
X9828634Y-14746722D02*
X9838158Y-14727674D01*
X9838158Y-14727674D02*
X9857205Y-14718150D01*
X9857205Y-14718150D02*
X9885777Y-14718150D01*
X9885777Y-14718150D02*
X9904825Y-14727674D01*
X9904825Y-14727674D02*
X9914348Y-14746722D01*
X9914348Y-14746722D02*
X9914348Y-14851484D01*
X10009586Y-14851484D02*
X10009586Y-14718150D01*
X10009586Y-14737198D02*
X10019110Y-14727674D01*
X10019110Y-14727674D02*
X10038158Y-14718150D01*
X10038158Y-14718150D02*
X10066729Y-14718150D01*
X10066729Y-14718150D02*
X10085777Y-14727674D01*
X10085777Y-14727674D02*
X10095301Y-14746722D01*
X10095301Y-14746722D02*
X10095301Y-14851484D01*
X10095301Y-14746722D02*
X10104825Y-14727674D01*
X10104825Y-14727674D02*
X10123872Y-14718150D01*
X10123872Y-14718150D02*
X10152444Y-14718150D01*
X10152444Y-14718150D02*
X10171491Y-14727674D01*
X10171491Y-14727674D02*
X10181015Y-14746722D01*
X10181015Y-14746722D02*
X10181015Y-14851484D01*
X10571491Y-14641960D02*
X10400063Y-14899103D01*
X10828634Y-14651484D02*
X10847682Y-14651484D01*
X10847682Y-14651484D02*
X10866729Y-14661008D01*
X10866729Y-14661008D02*
X10876253Y-14670531D01*
X10876253Y-14670531D02*
X10885777Y-14689579D01*
X10885777Y-14689579D02*
X10895301Y-14727674D01*
X10895301Y-14727674D02*
X10895301Y-14775293D01*
X10895301Y-14775293D02*
X10885777Y-14813388D01*
X10885777Y-14813388D02*
X10876253Y-14832436D01*
X10876253Y-14832436D02*
X10866729Y-14841960D01*
X10866729Y-14841960D02*
X10847682Y-14851484D01*
X10847682Y-14851484D02*
X10828634Y-14851484D01*
X10828634Y-14851484D02*
X10809587Y-14841960D01*
X10809587Y-14841960D02*
X10800063Y-14832436D01*
X10800063Y-14832436D02*
X10790539Y-14813388D01*
X10790539Y-14813388D02*
X10781015Y-14775293D01*
X10781015Y-14775293D02*
X10781015Y-14727674D01*
X10781015Y-14727674D02*
X10790539Y-14689579D01*
X10790539Y-14689579D02*
X10800063Y-14670531D01*
X10800063Y-14670531D02*
X10809587Y-14661008D01*
X10809587Y-14661008D02*
X10828634Y-14651484D01*
X10981015Y-14832436D02*
X10990539Y-14841960D01*
X10990539Y-14841960D02*
X10981015Y-14851484D01*
X10981015Y-14851484D02*
X10971491Y-14841960D01*
X10971491Y-14841960D02*
X10981015Y-14832436D01*
X10981015Y-14832436D02*
X10981015Y-14851484D01*
X11114348Y-14651484D02*
X11133396Y-14651484D01*
X11133396Y-14651484D02*
X11152444Y-14661008D01*
X11152444Y-14661008D02*
X11161968Y-14670531D01*
X11161968Y-14670531D02*
X11171491Y-14689579D01*
X11171491Y-14689579D02*
X11181015Y-14727674D01*
X11181015Y-14727674D02*
X11181015Y-14775293D01*
X11181015Y-14775293D02*
X11171491Y-14813388D01*
X11171491Y-14813388D02*
X11161968Y-14832436D01*
X11161968Y-14832436D02*
X11152444Y-14841960D01*
X11152444Y-14841960D02*
X11133396Y-14851484D01*
X11133396Y-14851484D02*
X11114348Y-14851484D01*
X11114348Y-14851484D02*
X11095301Y-14841960D01*
X11095301Y-14841960D02*
X11085777Y-14832436D01*
X11085777Y-14832436D02*
X11076253Y-14813388D01*
X11076253Y-14813388D02*
X11066729Y-14775293D01*
X11066729Y-14775293D02*
X11066729Y-14727674D01*
X11066729Y-14727674D02*
X11076253Y-14689579D01*
X11076253Y-14689579D02*
X11085777Y-14670531D01*
X11085777Y-14670531D02*
X11095301Y-14661008D01*
X11095301Y-14661008D02*
X11114348Y-14651484D01*
X11304825Y-14651484D02*
X11323872Y-14651484D01*
X11323872Y-14651484D02*
X11342920Y-14661008D01*
X11342920Y-14661008D02*
X11352444Y-14670531D01*
X11352444Y-14670531D02*
X11361967Y-14689579D01*
X11361967Y-14689579D02*
X11371491Y-14727674D01*
X11371491Y-14727674D02*
X11371491Y-14775293D01*
X11371491Y-14775293D02*
X11361967Y-14813388D01*
X11361967Y-14813388D02*
X11352444Y-14832436D01*
X11352444Y-14832436D02*
X11342920Y-14841960D01*
X11342920Y-14841960D02*
X11323872Y-14851484D01*
X11323872Y-14851484D02*
X11304825Y-14851484D01*
X11304825Y-14851484D02*
X11285777Y-14841960D01*
X11285777Y-14841960D02*
X11276253Y-14832436D01*
X11276253Y-14832436D02*
X11266729Y-14813388D01*
X11266729Y-14813388D02*
X11257206Y-14775293D01*
X11257206Y-14775293D02*
X11257206Y-14727674D01*
X11257206Y-14727674D02*
X11266729Y-14689579D01*
X11266729Y-14689579D02*
X11276253Y-14670531D01*
X11276253Y-14670531D02*
X11285777Y-14661008D01*
X11285777Y-14661008D02*
X11304825Y-14651484D01*
X11438158Y-14651484D02*
X11571491Y-14651484D01*
X11571491Y-14651484D02*
X11485777Y-14851484D01*
X11657206Y-14851484D02*
X11695301Y-14851484D01*
X11695301Y-14851484D02*
X11714348Y-14841960D01*
X11714348Y-14841960D02*
X11723872Y-14832436D01*
X11723872Y-14832436D02*
X11742920Y-14803865D01*
X11742920Y-14803865D02*
X11752444Y-14765769D01*
X11752444Y-14765769D02*
X11752444Y-14689579D01*
X11752444Y-14689579D02*
X11742920Y-14670531D01*
X11742920Y-14670531D02*
X11733396Y-14661008D01*
X11733396Y-14661008D02*
X11714348Y-14651484D01*
X11714348Y-14651484D02*
X11676253Y-14651484D01*
X11676253Y-14651484D02*
X11657206Y-14661008D01*
X11657206Y-14661008D02*
X11647682Y-14670531D01*
X11647682Y-14670531D02*
X11638158Y-14689579D01*
X11638158Y-14689579D02*
X11638158Y-14737198D01*
X11638158Y-14737198D02*
X11647682Y-14756246D01*
X11647682Y-14756246D02*
X11657206Y-14765769D01*
X11657206Y-14765769D02*
X11676253Y-14775293D01*
X11676253Y-14775293D02*
X11714348Y-14775293D01*
X11714348Y-14775293D02*
X11733396Y-14765769D01*
X11733396Y-14765769D02*
X11742920Y-14756246D01*
X11742920Y-14756246D02*
X11752444Y-14737198D01*
X11828634Y-14651484D02*
X11828634Y-14689579D01*
X11904825Y-14651484D02*
X11904825Y-14689579D01*
X12200063Y-14927674D02*
X12190539Y-14918150D01*
X12190539Y-14918150D02*
X12171491Y-14889579D01*
X12171491Y-14889579D02*
X12161968Y-14870531D01*
X12161968Y-14870531D02*
X12152444Y-14841960D01*
X12152444Y-14841960D02*
X12142920Y-14794341D01*
X12142920Y-14794341D02*
X12142920Y-14756246D01*
X12142920Y-14756246D02*
X12152444Y-14708627D01*
X12152444Y-14708627D02*
X12161968Y-14680055D01*
X12161968Y-14680055D02*
X12171491Y-14661008D01*
X12171491Y-14661008D02*
X12190539Y-14632436D01*
X12190539Y-14632436D02*
X12200063Y-14622912D01*
X12361968Y-14718150D02*
X12361968Y-14851484D01*
X12314348Y-14641960D02*
X12266729Y-14784817D01*
X12266729Y-14784817D02*
X12390539Y-14784817D01*
X12619110Y-14851484D02*
X12619110Y-14651484D01*
X12704825Y-14851484D02*
X12704825Y-14746722D01*
X12704825Y-14746722D02*
X12695301Y-14727674D01*
X12695301Y-14727674D02*
X12676253Y-14718150D01*
X12676253Y-14718150D02*
X12647682Y-14718150D01*
X12647682Y-14718150D02*
X12628634Y-14727674D01*
X12628634Y-14727674D02*
X12619110Y-14737198D01*
X12828634Y-14851484D02*
X12809587Y-14841960D01*
X12809587Y-14841960D02*
X12800063Y-14832436D01*
X12800063Y-14832436D02*
X12790539Y-14813388D01*
X12790539Y-14813388D02*
X12790539Y-14756246D01*
X12790539Y-14756246D02*
X12800063Y-14737198D01*
X12800063Y-14737198D02*
X12809587Y-14727674D01*
X12809587Y-14727674D02*
X12828634Y-14718150D01*
X12828634Y-14718150D02*
X12857206Y-14718150D01*
X12857206Y-14718150D02*
X12876253Y-14727674D01*
X12876253Y-14727674D02*
X12885777Y-14737198D01*
X12885777Y-14737198D02*
X12895301Y-14756246D01*
X12895301Y-14756246D02*
X12895301Y-14813388D01*
X12895301Y-14813388D02*
X12885777Y-14832436D01*
X12885777Y-14832436D02*
X12876253Y-14841960D01*
X12876253Y-14841960D02*
X12857206Y-14851484D01*
X12857206Y-14851484D02*
X12828634Y-14851484D01*
X13009587Y-14851484D02*
X12990539Y-14841960D01*
X12990539Y-14841960D02*
X12981015Y-14822912D01*
X12981015Y-14822912D02*
X12981015Y-14651484D01*
X13161968Y-14841960D02*
X13142920Y-14851484D01*
X13142920Y-14851484D02*
X13104825Y-14851484D01*
X13104825Y-14851484D02*
X13085777Y-14841960D01*
X13085777Y-14841960D02*
X13076253Y-14822912D01*
X13076253Y-14822912D02*
X13076253Y-14746722D01*
X13076253Y-14746722D02*
X13085777Y-14727674D01*
X13085777Y-14727674D02*
X13104825Y-14718150D01*
X13104825Y-14718150D02*
X13142920Y-14718150D01*
X13142920Y-14718150D02*
X13161968Y-14727674D01*
X13161968Y-14727674D02*
X13171491Y-14746722D01*
X13171491Y-14746722D02*
X13171491Y-14765769D01*
X13171491Y-14765769D02*
X13076253Y-14784817D01*
X13247682Y-14841960D02*
X13266730Y-14851484D01*
X13266730Y-14851484D02*
X13304825Y-14851484D01*
X13304825Y-14851484D02*
X13323872Y-14841960D01*
X13323872Y-14841960D02*
X13333396Y-14822912D01*
X13333396Y-14822912D02*
X13333396Y-14813388D01*
X13333396Y-14813388D02*
X13323872Y-14794341D01*
X13323872Y-14794341D02*
X13304825Y-14784817D01*
X13304825Y-14784817D02*
X13276253Y-14784817D01*
X13276253Y-14784817D02*
X13257206Y-14775293D01*
X13257206Y-14775293D02*
X13247682Y-14756246D01*
X13247682Y-14756246D02*
X13247682Y-14746722D01*
X13247682Y-14746722D02*
X13257206Y-14727674D01*
X13257206Y-14727674D02*
X13276253Y-14718150D01*
X13276253Y-14718150D02*
X13304825Y-14718150D01*
X13304825Y-14718150D02*
X13323872Y-14727674D01*
X13400063Y-14927674D02*
X13409587Y-14918150D01*
X13409587Y-14918150D02*
X13428634Y-14889579D01*
X13428634Y-14889579D02*
X13438158Y-14870531D01*
X13438158Y-14870531D02*
X13447682Y-14841960D01*
X13447682Y-14841960D02*
X13457206Y-14794341D01*
X13457206Y-14794341D02*
X13457206Y-14756246D01*
X13457206Y-14756246D02*
X13447682Y-14708627D01*
X13447682Y-14708627D02*
X13438158Y-14680055D01*
X13438158Y-14680055D02*
X13428634Y-14661008D01*
X13428634Y-14661008D02*
X13409587Y-14632436D01*
X13409587Y-14632436D02*
X13400063Y-14622912D01*
D11*
X8625000Y-15024000D02*
G75*
G03*
X8600000Y-15024000I-12500J0D01*
G01*
X8600000Y-15024000D02*
G75*
G03*
X8625000Y-15024000I12500J0D01*
G01*
D10*
X8923872Y-14915484D02*
X8942920Y-14915484D01*
X8942920Y-14915484D02*
X8961967Y-14925008D01*
X8961967Y-14925008D02*
X8971491Y-14934531D01*
X8971491Y-14934531D02*
X8981015Y-14953579D01*
X8981015Y-14953579D02*
X8990539Y-14991674D01*
X8990539Y-14991674D02*
X8990539Y-15039293D01*
X8990539Y-15039293D02*
X8981015Y-15077388D01*
X8981015Y-15077388D02*
X8971491Y-15096436D01*
X8971491Y-15096436D02*
X8961967Y-15105960D01*
X8961967Y-15105960D02*
X8942920Y-15115484D01*
X8942920Y-15115484D02*
X8923872Y-15115484D01*
X8923872Y-15115484D02*
X8904824Y-15105960D01*
X8904824Y-15105960D02*
X8895301Y-15096436D01*
X8895301Y-15096436D02*
X8885777Y-15077388D01*
X8885777Y-15077388D02*
X8876253Y-15039293D01*
X8876253Y-15039293D02*
X8876253Y-14991674D01*
X8876253Y-14991674D02*
X8885777Y-14953579D01*
X8885777Y-14953579D02*
X8895301Y-14934531D01*
X8895301Y-14934531D02*
X8904824Y-14925008D01*
X8904824Y-14925008D02*
X8923872Y-14915484D01*
X9076253Y-15096436D02*
X9085777Y-15105960D01*
X9085777Y-15105960D02*
X9076253Y-15115484D01*
X9076253Y-15115484D02*
X9066729Y-15105960D01*
X9066729Y-15105960D02*
X9076253Y-15096436D01*
X9076253Y-15096436D02*
X9076253Y-15115484D01*
X9161967Y-14934531D02*
X9171491Y-14925008D01*
X9171491Y-14925008D02*
X9190539Y-14915484D01*
X9190539Y-14915484D02*
X9238158Y-14915484D01*
X9238158Y-14915484D02*
X9257205Y-14925008D01*
X9257205Y-14925008D02*
X9266729Y-14934531D01*
X9266729Y-14934531D02*
X9276253Y-14953579D01*
X9276253Y-14953579D02*
X9276253Y-14972627D01*
X9276253Y-14972627D02*
X9266729Y-15001198D01*
X9266729Y-15001198D02*
X9152444Y-15115484D01*
X9152444Y-15115484D02*
X9276253Y-15115484D01*
X9457205Y-14915484D02*
X9361967Y-14915484D01*
X9361967Y-14915484D02*
X9352444Y-15010722D01*
X9352444Y-15010722D02*
X9361967Y-15001198D01*
X9361967Y-15001198D02*
X9381015Y-14991674D01*
X9381015Y-14991674D02*
X9428634Y-14991674D01*
X9428634Y-14991674D02*
X9447682Y-15001198D01*
X9447682Y-15001198D02*
X9457205Y-15010722D01*
X9457205Y-15010722D02*
X9466729Y-15029769D01*
X9466729Y-15029769D02*
X9466729Y-15077388D01*
X9466729Y-15077388D02*
X9457205Y-15096436D01*
X9457205Y-15096436D02*
X9447682Y-15105960D01*
X9447682Y-15105960D02*
X9428634Y-15115484D01*
X9428634Y-15115484D02*
X9381015Y-15115484D01*
X9381015Y-15115484D02*
X9361967Y-15105960D01*
X9361967Y-15105960D02*
X9352444Y-15096436D01*
X9590539Y-14915484D02*
X9609586Y-14915484D01*
X9609586Y-14915484D02*
X9628634Y-14925008D01*
X9628634Y-14925008D02*
X9638158Y-14934531D01*
X9638158Y-14934531D02*
X9647682Y-14953579D01*
X9647682Y-14953579D02*
X9657205Y-14991674D01*
X9657205Y-14991674D02*
X9657205Y-15039293D01*
X9657205Y-15039293D02*
X9647682Y-15077388D01*
X9647682Y-15077388D02*
X9638158Y-15096436D01*
X9638158Y-15096436D02*
X9628634Y-15105960D01*
X9628634Y-15105960D02*
X9609586Y-15115484D01*
X9609586Y-15115484D02*
X9590539Y-15115484D01*
X9590539Y-15115484D02*
X9571491Y-15105960D01*
X9571491Y-15105960D02*
X9561967Y-15096436D01*
X9561967Y-15096436D02*
X9552444Y-15077388D01*
X9552444Y-15077388D02*
X9542920Y-15039293D01*
X9542920Y-15039293D02*
X9542920Y-14991674D01*
X9542920Y-14991674D02*
X9552444Y-14953579D01*
X9552444Y-14953579D02*
X9561967Y-14934531D01*
X9561967Y-14934531D02*
X9571491Y-14925008D01*
X9571491Y-14925008D02*
X9590539Y-14915484D01*
X9742920Y-15115484D02*
X9742920Y-14982150D01*
X9742920Y-15001198D02*
X9752444Y-14991674D01*
X9752444Y-14991674D02*
X9771491Y-14982150D01*
X9771491Y-14982150D02*
X9800063Y-14982150D01*
X9800063Y-14982150D02*
X9819110Y-14991674D01*
X9819110Y-14991674D02*
X9828634Y-15010722D01*
X9828634Y-15010722D02*
X9828634Y-15115484D01*
X9828634Y-15010722D02*
X9838158Y-14991674D01*
X9838158Y-14991674D02*
X9857205Y-14982150D01*
X9857205Y-14982150D02*
X9885777Y-14982150D01*
X9885777Y-14982150D02*
X9904825Y-14991674D01*
X9904825Y-14991674D02*
X9914348Y-15010722D01*
X9914348Y-15010722D02*
X9914348Y-15115484D01*
X10009586Y-15115484D02*
X10009586Y-14982150D01*
X10009586Y-15001198D02*
X10019110Y-14991674D01*
X10019110Y-14991674D02*
X10038158Y-14982150D01*
X10038158Y-14982150D02*
X10066729Y-14982150D01*
X10066729Y-14982150D02*
X10085777Y-14991674D01*
X10085777Y-14991674D02*
X10095301Y-15010722D01*
X10095301Y-15010722D02*
X10095301Y-15115484D01*
X10095301Y-15010722D02*
X10104825Y-14991674D01*
X10104825Y-14991674D02*
X10123872Y-14982150D01*
X10123872Y-14982150D02*
X10152444Y-14982150D01*
X10152444Y-14982150D02*
X10171491Y-14991674D01*
X10171491Y-14991674D02*
X10181015Y-15010722D01*
X10181015Y-15010722D02*
X10181015Y-15115484D01*
X10571491Y-14905960D02*
X10400063Y-15163103D01*
X10828634Y-14915484D02*
X10847682Y-14915484D01*
X10847682Y-14915484D02*
X10866729Y-14925008D01*
X10866729Y-14925008D02*
X10876253Y-14934531D01*
X10876253Y-14934531D02*
X10885777Y-14953579D01*
X10885777Y-14953579D02*
X10895301Y-14991674D01*
X10895301Y-14991674D02*
X10895301Y-15039293D01*
X10895301Y-15039293D02*
X10885777Y-15077388D01*
X10885777Y-15077388D02*
X10876253Y-15096436D01*
X10876253Y-15096436D02*
X10866729Y-15105960D01*
X10866729Y-15105960D02*
X10847682Y-15115484D01*
X10847682Y-15115484D02*
X10828634Y-15115484D01*
X10828634Y-15115484D02*
X10809587Y-15105960D01*
X10809587Y-15105960D02*
X10800063Y-15096436D01*
X10800063Y-15096436D02*
X10790539Y-15077388D01*
X10790539Y-15077388D02*
X10781015Y-15039293D01*
X10781015Y-15039293D02*
X10781015Y-14991674D01*
X10781015Y-14991674D02*
X10790539Y-14953579D01*
X10790539Y-14953579D02*
X10800063Y-14934531D01*
X10800063Y-14934531D02*
X10809587Y-14925008D01*
X10809587Y-14925008D02*
X10828634Y-14915484D01*
X10981015Y-15096436D02*
X10990539Y-15105960D01*
X10990539Y-15105960D02*
X10981015Y-15115484D01*
X10981015Y-15115484D02*
X10971491Y-15105960D01*
X10971491Y-15105960D02*
X10981015Y-15096436D01*
X10981015Y-15096436D02*
X10981015Y-15115484D01*
X11114348Y-14915484D02*
X11133396Y-14915484D01*
X11133396Y-14915484D02*
X11152444Y-14925008D01*
X11152444Y-14925008D02*
X11161968Y-14934531D01*
X11161968Y-14934531D02*
X11171491Y-14953579D01*
X11171491Y-14953579D02*
X11181015Y-14991674D01*
X11181015Y-14991674D02*
X11181015Y-15039293D01*
X11181015Y-15039293D02*
X11171491Y-15077388D01*
X11171491Y-15077388D02*
X11161968Y-15096436D01*
X11161968Y-15096436D02*
X11152444Y-15105960D01*
X11152444Y-15105960D02*
X11133396Y-15115484D01*
X11133396Y-15115484D02*
X11114348Y-15115484D01*
X11114348Y-15115484D02*
X11095301Y-15105960D01*
X11095301Y-15105960D02*
X11085777Y-15096436D01*
X11085777Y-15096436D02*
X11076253Y-15077388D01*
X11076253Y-15077388D02*
X11066729Y-15039293D01*
X11066729Y-15039293D02*
X11066729Y-14991674D01*
X11066729Y-14991674D02*
X11076253Y-14953579D01*
X11076253Y-14953579D02*
X11085777Y-14934531D01*
X11085777Y-14934531D02*
X11095301Y-14925008D01*
X11095301Y-14925008D02*
X11114348Y-14915484D01*
X11304825Y-14915484D02*
X11323872Y-14915484D01*
X11323872Y-14915484D02*
X11342920Y-14925008D01*
X11342920Y-14925008D02*
X11352444Y-14934531D01*
X11352444Y-14934531D02*
X11361967Y-14953579D01*
X11361967Y-14953579D02*
X11371491Y-14991674D01*
X11371491Y-14991674D02*
X11371491Y-15039293D01*
X11371491Y-15039293D02*
X11361967Y-15077388D01*
X11361967Y-15077388D02*
X11352444Y-15096436D01*
X11352444Y-15096436D02*
X11342920Y-15105960D01*
X11342920Y-15105960D02*
X11323872Y-15115484D01*
X11323872Y-15115484D02*
X11304825Y-15115484D01*
X11304825Y-15115484D02*
X11285777Y-15105960D01*
X11285777Y-15105960D02*
X11276253Y-15096436D01*
X11276253Y-15096436D02*
X11266729Y-15077388D01*
X11266729Y-15077388D02*
X11257206Y-15039293D01*
X11257206Y-15039293D02*
X11257206Y-14991674D01*
X11257206Y-14991674D02*
X11266729Y-14953579D01*
X11266729Y-14953579D02*
X11276253Y-14934531D01*
X11276253Y-14934531D02*
X11285777Y-14925008D01*
X11285777Y-14925008D02*
X11304825Y-14915484D01*
X11466729Y-15115484D02*
X11504825Y-15115484D01*
X11504825Y-15115484D02*
X11523872Y-15105960D01*
X11523872Y-15105960D02*
X11533396Y-15096436D01*
X11533396Y-15096436D02*
X11552444Y-15067865D01*
X11552444Y-15067865D02*
X11561967Y-15029769D01*
X11561967Y-15029769D02*
X11561967Y-14953579D01*
X11561967Y-14953579D02*
X11552444Y-14934531D01*
X11552444Y-14934531D02*
X11542920Y-14925008D01*
X11542920Y-14925008D02*
X11523872Y-14915484D01*
X11523872Y-14915484D02*
X11485777Y-14915484D01*
X11485777Y-14915484D02*
X11466729Y-14925008D01*
X11466729Y-14925008D02*
X11457206Y-14934531D01*
X11457206Y-14934531D02*
X11447682Y-14953579D01*
X11447682Y-14953579D02*
X11447682Y-15001198D01*
X11447682Y-15001198D02*
X11457206Y-15020246D01*
X11457206Y-15020246D02*
X11466729Y-15029769D01*
X11466729Y-15029769D02*
X11485777Y-15039293D01*
X11485777Y-15039293D02*
X11523872Y-15039293D01*
X11523872Y-15039293D02*
X11542920Y-15029769D01*
X11542920Y-15029769D02*
X11552444Y-15020246D01*
X11552444Y-15020246D02*
X11561967Y-15001198D01*
X11676253Y-15001198D02*
X11657206Y-14991674D01*
X11657206Y-14991674D02*
X11647682Y-14982150D01*
X11647682Y-14982150D02*
X11638158Y-14963103D01*
X11638158Y-14963103D02*
X11638158Y-14953579D01*
X11638158Y-14953579D02*
X11647682Y-14934531D01*
X11647682Y-14934531D02*
X11657206Y-14925008D01*
X11657206Y-14925008D02*
X11676253Y-14915484D01*
X11676253Y-14915484D02*
X11714348Y-14915484D01*
X11714348Y-14915484D02*
X11733396Y-14925008D01*
X11733396Y-14925008D02*
X11742920Y-14934531D01*
X11742920Y-14934531D02*
X11752444Y-14953579D01*
X11752444Y-14953579D02*
X11752444Y-14963103D01*
X11752444Y-14963103D02*
X11742920Y-14982150D01*
X11742920Y-14982150D02*
X11733396Y-14991674D01*
X11733396Y-14991674D02*
X11714348Y-15001198D01*
X11714348Y-15001198D02*
X11676253Y-15001198D01*
X11676253Y-15001198D02*
X11657206Y-15010722D01*
X11657206Y-15010722D02*
X11647682Y-15020246D01*
X11647682Y-15020246D02*
X11638158Y-15039293D01*
X11638158Y-15039293D02*
X11638158Y-15077388D01*
X11638158Y-15077388D02*
X11647682Y-15096436D01*
X11647682Y-15096436D02*
X11657206Y-15105960D01*
X11657206Y-15105960D02*
X11676253Y-15115484D01*
X11676253Y-15115484D02*
X11714348Y-15115484D01*
X11714348Y-15115484D02*
X11733396Y-15105960D01*
X11733396Y-15105960D02*
X11742920Y-15096436D01*
X11742920Y-15096436D02*
X11752444Y-15077388D01*
X11752444Y-15077388D02*
X11752444Y-15039293D01*
X11752444Y-15039293D02*
X11742920Y-15020246D01*
X11742920Y-15020246D02*
X11733396Y-15010722D01*
X11733396Y-15010722D02*
X11714348Y-15001198D01*
X11828634Y-14915484D02*
X11828634Y-14953579D01*
X11904825Y-14915484D02*
X11904825Y-14953579D01*
X12200063Y-15191674D02*
X12190539Y-15182150D01*
X12190539Y-15182150D02*
X12171491Y-15153579D01*
X12171491Y-15153579D02*
X12161968Y-15134531D01*
X12161968Y-15134531D02*
X12152444Y-15105960D01*
X12152444Y-15105960D02*
X12142920Y-15058341D01*
X12142920Y-15058341D02*
X12142920Y-15020246D01*
X12142920Y-15020246D02*
X12152444Y-14972627D01*
X12152444Y-14972627D02*
X12161968Y-14944055D01*
X12161968Y-14944055D02*
X12171491Y-14925008D01*
X12171491Y-14925008D02*
X12190539Y-14896436D01*
X12190539Y-14896436D02*
X12200063Y-14886912D01*
X12361968Y-14982150D02*
X12361968Y-15115484D01*
X12314348Y-14905960D02*
X12266729Y-15048817D01*
X12266729Y-15048817D02*
X12390539Y-15048817D01*
X12619110Y-15115484D02*
X12619110Y-14915484D01*
X12704825Y-15115484D02*
X12704825Y-15010722D01*
X12704825Y-15010722D02*
X12695301Y-14991674D01*
X12695301Y-14991674D02*
X12676253Y-14982150D01*
X12676253Y-14982150D02*
X12647682Y-14982150D01*
X12647682Y-14982150D02*
X12628634Y-14991674D01*
X12628634Y-14991674D02*
X12619110Y-15001198D01*
X12828634Y-15115484D02*
X12809587Y-15105960D01*
X12809587Y-15105960D02*
X12800063Y-15096436D01*
X12800063Y-15096436D02*
X12790539Y-15077388D01*
X12790539Y-15077388D02*
X12790539Y-15020246D01*
X12790539Y-15020246D02*
X12800063Y-15001198D01*
X12800063Y-15001198D02*
X12809587Y-14991674D01*
X12809587Y-14991674D02*
X12828634Y-14982150D01*
X12828634Y-14982150D02*
X12857206Y-14982150D01*
X12857206Y-14982150D02*
X12876253Y-14991674D01*
X12876253Y-14991674D02*
X12885777Y-15001198D01*
X12885777Y-15001198D02*
X12895301Y-15020246D01*
X12895301Y-15020246D02*
X12895301Y-15077388D01*
X12895301Y-15077388D02*
X12885777Y-15096436D01*
X12885777Y-15096436D02*
X12876253Y-15105960D01*
X12876253Y-15105960D02*
X12857206Y-15115484D01*
X12857206Y-15115484D02*
X12828634Y-15115484D01*
X13009587Y-15115484D02*
X12990539Y-15105960D01*
X12990539Y-15105960D02*
X12981015Y-15086912D01*
X12981015Y-15086912D02*
X12981015Y-14915484D01*
X13161968Y-15105960D02*
X13142920Y-15115484D01*
X13142920Y-15115484D02*
X13104825Y-15115484D01*
X13104825Y-15115484D02*
X13085777Y-15105960D01*
X13085777Y-15105960D02*
X13076253Y-15086912D01*
X13076253Y-15086912D02*
X13076253Y-15010722D01*
X13076253Y-15010722D02*
X13085777Y-14991674D01*
X13085777Y-14991674D02*
X13104825Y-14982150D01*
X13104825Y-14982150D02*
X13142920Y-14982150D01*
X13142920Y-14982150D02*
X13161968Y-14991674D01*
X13161968Y-14991674D02*
X13171491Y-15010722D01*
X13171491Y-15010722D02*
X13171491Y-15029769D01*
X13171491Y-15029769D02*
X13076253Y-15048817D01*
X13247682Y-15105960D02*
X13266730Y-15115484D01*
X13266730Y-15115484D02*
X13304825Y-15115484D01*
X13304825Y-15115484D02*
X13323872Y-15105960D01*
X13323872Y-15105960D02*
X13333396Y-15086912D01*
X13333396Y-15086912D02*
X13333396Y-15077388D01*
X13333396Y-15077388D02*
X13323872Y-15058341D01*
X13323872Y-15058341D02*
X13304825Y-15048817D01*
X13304825Y-15048817D02*
X13276253Y-15048817D01*
X13276253Y-15048817D02*
X13257206Y-15039293D01*
X13257206Y-15039293D02*
X13247682Y-15020246D01*
X13247682Y-15020246D02*
X13247682Y-15010722D01*
X13247682Y-15010722D02*
X13257206Y-14991674D01*
X13257206Y-14991674D02*
X13276253Y-14982150D01*
X13276253Y-14982150D02*
X13304825Y-14982150D01*
X13304825Y-14982150D02*
X13323872Y-14991674D01*
X13400063Y-15191674D02*
X13409587Y-15182150D01*
X13409587Y-15182150D02*
X13428634Y-15153579D01*
X13428634Y-15153579D02*
X13438158Y-15134531D01*
X13438158Y-15134531D02*
X13447682Y-15105960D01*
X13447682Y-15105960D02*
X13457206Y-15058341D01*
X13457206Y-15058341D02*
X13457206Y-15020246D01*
X13457206Y-15020246D02*
X13447682Y-14972627D01*
X13447682Y-14972627D02*
X13438158Y-14944055D01*
X13438158Y-14944055D02*
X13428634Y-14925008D01*
X13428634Y-14925008D02*
X13409587Y-14896436D01*
X13409587Y-14896436D02*
X13400063Y-14886912D01*
D11*
X8605000Y-15268000D02*
X8605000Y-15308000D01*
X8585000Y-15288000D02*
X8625000Y-15288000D01*
D10*
X8923872Y-15179484D02*
X8942920Y-15179484D01*
X8942920Y-15179484D02*
X8961967Y-15189008D01*
X8961967Y-15189008D02*
X8971491Y-15198531D01*
X8971491Y-15198531D02*
X8981015Y-15217579D01*
X8981015Y-15217579D02*
X8990539Y-15255674D01*
X8990539Y-15255674D02*
X8990539Y-15303293D01*
X8990539Y-15303293D02*
X8981015Y-15341388D01*
X8981015Y-15341388D02*
X8971491Y-15360436D01*
X8971491Y-15360436D02*
X8961967Y-15369960D01*
X8961967Y-15369960D02*
X8942920Y-15379484D01*
X8942920Y-15379484D02*
X8923872Y-15379484D01*
X8923872Y-15379484D02*
X8904824Y-15369960D01*
X8904824Y-15369960D02*
X8895301Y-15360436D01*
X8895301Y-15360436D02*
X8885777Y-15341388D01*
X8885777Y-15341388D02*
X8876253Y-15303293D01*
X8876253Y-15303293D02*
X8876253Y-15255674D01*
X8876253Y-15255674D02*
X8885777Y-15217579D01*
X8885777Y-15217579D02*
X8895301Y-15198531D01*
X8895301Y-15198531D02*
X8904824Y-15189008D01*
X8904824Y-15189008D02*
X8923872Y-15179484D01*
X9076253Y-15360436D02*
X9085777Y-15369960D01*
X9085777Y-15369960D02*
X9076253Y-15379484D01*
X9076253Y-15379484D02*
X9066729Y-15369960D01*
X9066729Y-15369960D02*
X9076253Y-15360436D01*
X9076253Y-15360436D02*
X9076253Y-15379484D01*
X9257205Y-15246150D02*
X9257205Y-15379484D01*
X9209586Y-15169960D02*
X9161967Y-15312817D01*
X9161967Y-15312817D02*
X9285777Y-15312817D01*
X9400063Y-15179484D02*
X9419110Y-15179484D01*
X9419110Y-15179484D02*
X9438158Y-15189008D01*
X9438158Y-15189008D02*
X9447682Y-15198531D01*
X9447682Y-15198531D02*
X9457205Y-15217579D01*
X9457205Y-15217579D02*
X9466729Y-15255674D01*
X9466729Y-15255674D02*
X9466729Y-15303293D01*
X9466729Y-15303293D02*
X9457205Y-15341388D01*
X9457205Y-15341388D02*
X9447682Y-15360436D01*
X9447682Y-15360436D02*
X9438158Y-15369960D01*
X9438158Y-15369960D02*
X9419110Y-15379484D01*
X9419110Y-15379484D02*
X9400063Y-15379484D01*
X9400063Y-15379484D02*
X9381015Y-15369960D01*
X9381015Y-15369960D02*
X9371491Y-15360436D01*
X9371491Y-15360436D02*
X9361967Y-15341388D01*
X9361967Y-15341388D02*
X9352444Y-15303293D01*
X9352444Y-15303293D02*
X9352444Y-15255674D01*
X9352444Y-15255674D02*
X9361967Y-15217579D01*
X9361967Y-15217579D02*
X9371491Y-15198531D01*
X9371491Y-15198531D02*
X9381015Y-15189008D01*
X9381015Y-15189008D02*
X9400063Y-15179484D01*
X9590539Y-15179484D02*
X9609586Y-15179484D01*
X9609586Y-15179484D02*
X9628634Y-15189008D01*
X9628634Y-15189008D02*
X9638158Y-15198531D01*
X9638158Y-15198531D02*
X9647682Y-15217579D01*
X9647682Y-15217579D02*
X9657205Y-15255674D01*
X9657205Y-15255674D02*
X9657205Y-15303293D01*
X9657205Y-15303293D02*
X9647682Y-15341388D01*
X9647682Y-15341388D02*
X9638158Y-15360436D01*
X9638158Y-15360436D02*
X9628634Y-15369960D01*
X9628634Y-15369960D02*
X9609586Y-15379484D01*
X9609586Y-15379484D02*
X9590539Y-15379484D01*
X9590539Y-15379484D02*
X9571491Y-15369960D01*
X9571491Y-15369960D02*
X9561967Y-15360436D01*
X9561967Y-15360436D02*
X9552444Y-15341388D01*
X9552444Y-15341388D02*
X9542920Y-15303293D01*
X9542920Y-15303293D02*
X9542920Y-15255674D01*
X9542920Y-15255674D02*
X9552444Y-15217579D01*
X9552444Y-15217579D02*
X9561967Y-15198531D01*
X9561967Y-15198531D02*
X9571491Y-15189008D01*
X9571491Y-15189008D02*
X9590539Y-15179484D01*
X9742920Y-15379484D02*
X9742920Y-15246150D01*
X9742920Y-15265198D02*
X9752444Y-15255674D01*
X9752444Y-15255674D02*
X9771491Y-15246150D01*
X9771491Y-15246150D02*
X9800063Y-15246150D01*
X9800063Y-15246150D02*
X9819110Y-15255674D01*
X9819110Y-15255674D02*
X9828634Y-15274722D01*
X9828634Y-15274722D02*
X9828634Y-15379484D01*
X9828634Y-15274722D02*
X9838158Y-15255674D01*
X9838158Y-15255674D02*
X9857205Y-15246150D01*
X9857205Y-15246150D02*
X9885777Y-15246150D01*
X9885777Y-15246150D02*
X9904825Y-15255674D01*
X9904825Y-15255674D02*
X9914348Y-15274722D01*
X9914348Y-15274722D02*
X9914348Y-15379484D01*
X10009586Y-15379484D02*
X10009586Y-15246150D01*
X10009586Y-15265198D02*
X10019110Y-15255674D01*
X10019110Y-15255674D02*
X10038158Y-15246150D01*
X10038158Y-15246150D02*
X10066729Y-15246150D01*
X10066729Y-15246150D02*
X10085777Y-15255674D01*
X10085777Y-15255674D02*
X10095301Y-15274722D01*
X10095301Y-15274722D02*
X10095301Y-15379484D01*
X10095301Y-15274722D02*
X10104825Y-15255674D01*
X10104825Y-15255674D02*
X10123872Y-15246150D01*
X10123872Y-15246150D02*
X10152444Y-15246150D01*
X10152444Y-15246150D02*
X10171491Y-15255674D01*
X10171491Y-15255674D02*
X10181015Y-15274722D01*
X10181015Y-15274722D02*
X10181015Y-15379484D01*
X10571491Y-15169960D02*
X10400063Y-15427103D01*
X10828634Y-15179484D02*
X10847682Y-15179484D01*
X10847682Y-15179484D02*
X10866729Y-15189008D01*
X10866729Y-15189008D02*
X10876253Y-15198531D01*
X10876253Y-15198531D02*
X10885777Y-15217579D01*
X10885777Y-15217579D02*
X10895301Y-15255674D01*
X10895301Y-15255674D02*
X10895301Y-15303293D01*
X10895301Y-15303293D02*
X10885777Y-15341388D01*
X10885777Y-15341388D02*
X10876253Y-15360436D01*
X10876253Y-15360436D02*
X10866729Y-15369960D01*
X10866729Y-15369960D02*
X10847682Y-15379484D01*
X10847682Y-15379484D02*
X10828634Y-15379484D01*
X10828634Y-15379484D02*
X10809587Y-15369960D01*
X10809587Y-15369960D02*
X10800063Y-15360436D01*
X10800063Y-15360436D02*
X10790539Y-15341388D01*
X10790539Y-15341388D02*
X10781015Y-15303293D01*
X10781015Y-15303293D02*
X10781015Y-15255674D01*
X10781015Y-15255674D02*
X10790539Y-15217579D01*
X10790539Y-15217579D02*
X10800063Y-15198531D01*
X10800063Y-15198531D02*
X10809587Y-15189008D01*
X10809587Y-15189008D02*
X10828634Y-15179484D01*
X10981015Y-15360436D02*
X10990539Y-15369960D01*
X10990539Y-15369960D02*
X10981015Y-15379484D01*
X10981015Y-15379484D02*
X10971491Y-15369960D01*
X10971491Y-15369960D02*
X10981015Y-15360436D01*
X10981015Y-15360436D02*
X10981015Y-15379484D01*
X11114348Y-15179484D02*
X11133396Y-15179484D01*
X11133396Y-15179484D02*
X11152444Y-15189008D01*
X11152444Y-15189008D02*
X11161968Y-15198531D01*
X11161968Y-15198531D02*
X11171491Y-15217579D01*
X11171491Y-15217579D02*
X11181015Y-15255674D01*
X11181015Y-15255674D02*
X11181015Y-15303293D01*
X11181015Y-15303293D02*
X11171491Y-15341388D01*
X11171491Y-15341388D02*
X11161968Y-15360436D01*
X11161968Y-15360436D02*
X11152444Y-15369960D01*
X11152444Y-15369960D02*
X11133396Y-15379484D01*
X11133396Y-15379484D02*
X11114348Y-15379484D01*
X11114348Y-15379484D02*
X11095301Y-15369960D01*
X11095301Y-15369960D02*
X11085777Y-15360436D01*
X11085777Y-15360436D02*
X11076253Y-15341388D01*
X11076253Y-15341388D02*
X11066729Y-15303293D01*
X11066729Y-15303293D02*
X11066729Y-15255674D01*
X11066729Y-15255674D02*
X11076253Y-15217579D01*
X11076253Y-15217579D02*
X11085777Y-15198531D01*
X11085777Y-15198531D02*
X11095301Y-15189008D01*
X11095301Y-15189008D02*
X11114348Y-15179484D01*
X11371491Y-15379484D02*
X11257206Y-15379484D01*
X11314348Y-15379484D02*
X11314348Y-15179484D01*
X11314348Y-15179484D02*
X11295301Y-15208055D01*
X11295301Y-15208055D02*
X11276253Y-15227103D01*
X11276253Y-15227103D02*
X11257206Y-15236627D01*
X11552444Y-15179484D02*
X11457206Y-15179484D01*
X11457206Y-15179484D02*
X11447682Y-15274722D01*
X11447682Y-15274722D02*
X11457206Y-15265198D01*
X11457206Y-15265198D02*
X11476253Y-15255674D01*
X11476253Y-15255674D02*
X11523872Y-15255674D01*
X11523872Y-15255674D02*
X11542920Y-15265198D01*
X11542920Y-15265198D02*
X11552444Y-15274722D01*
X11552444Y-15274722D02*
X11561967Y-15293769D01*
X11561967Y-15293769D02*
X11561967Y-15341388D01*
X11561967Y-15341388D02*
X11552444Y-15360436D01*
X11552444Y-15360436D02*
X11542920Y-15369960D01*
X11542920Y-15369960D02*
X11523872Y-15379484D01*
X11523872Y-15379484D02*
X11476253Y-15379484D01*
X11476253Y-15379484D02*
X11457206Y-15369960D01*
X11457206Y-15369960D02*
X11447682Y-15360436D01*
X11628634Y-15179484D02*
X11761967Y-15179484D01*
X11761967Y-15179484D02*
X11676253Y-15379484D01*
X11828634Y-15179484D02*
X11828634Y-15217579D01*
X11904825Y-15179484D02*
X11904825Y-15217579D01*
X12200063Y-15455674D02*
X12190539Y-15446150D01*
X12190539Y-15446150D02*
X12171491Y-15417579D01*
X12171491Y-15417579D02*
X12161968Y-15398531D01*
X12161968Y-15398531D02*
X12152444Y-15369960D01*
X12152444Y-15369960D02*
X12142920Y-15322341D01*
X12142920Y-15322341D02*
X12142920Y-15284246D01*
X12142920Y-15284246D02*
X12152444Y-15236627D01*
X12152444Y-15236627D02*
X12161968Y-15208055D01*
X12161968Y-15208055D02*
X12171491Y-15189008D01*
X12171491Y-15189008D02*
X12190539Y-15160436D01*
X12190539Y-15160436D02*
X12200063Y-15150912D01*
X12361968Y-15179484D02*
X12323872Y-15179484D01*
X12323872Y-15179484D02*
X12304825Y-15189008D01*
X12304825Y-15189008D02*
X12295301Y-15198531D01*
X12295301Y-15198531D02*
X12276253Y-15227103D01*
X12276253Y-15227103D02*
X12266729Y-15265198D01*
X12266729Y-15265198D02*
X12266729Y-15341388D01*
X12266729Y-15341388D02*
X12276253Y-15360436D01*
X12276253Y-15360436D02*
X12285777Y-15369960D01*
X12285777Y-15369960D02*
X12304825Y-15379484D01*
X12304825Y-15379484D02*
X12342920Y-15379484D01*
X12342920Y-15379484D02*
X12361968Y-15369960D01*
X12361968Y-15369960D02*
X12371491Y-15360436D01*
X12371491Y-15360436D02*
X12381015Y-15341388D01*
X12381015Y-15341388D02*
X12381015Y-15293769D01*
X12381015Y-15293769D02*
X12371491Y-15274722D01*
X12371491Y-15274722D02*
X12361968Y-15265198D01*
X12361968Y-15265198D02*
X12342920Y-15255674D01*
X12342920Y-15255674D02*
X12304825Y-15255674D01*
X12304825Y-15255674D02*
X12285777Y-15265198D01*
X12285777Y-15265198D02*
X12276253Y-15274722D01*
X12276253Y-15274722D02*
X12266729Y-15293769D01*
X12552444Y-15179484D02*
X12514348Y-15179484D01*
X12514348Y-15179484D02*
X12495301Y-15189008D01*
X12495301Y-15189008D02*
X12485777Y-15198531D01*
X12485777Y-15198531D02*
X12466729Y-15227103D01*
X12466729Y-15227103D02*
X12457206Y-15265198D01*
X12457206Y-15265198D02*
X12457206Y-15341388D01*
X12457206Y-15341388D02*
X12466729Y-15360436D01*
X12466729Y-15360436D02*
X12476253Y-15369960D01*
X12476253Y-15369960D02*
X12495301Y-15379484D01*
X12495301Y-15379484D02*
X12533396Y-15379484D01*
X12533396Y-15379484D02*
X12552444Y-15369960D01*
X12552444Y-15369960D02*
X12561968Y-15360436D01*
X12561968Y-15360436D02*
X12571491Y-15341388D01*
X12571491Y-15341388D02*
X12571491Y-15293769D01*
X12571491Y-15293769D02*
X12561968Y-15274722D01*
X12561968Y-15274722D02*
X12552444Y-15265198D01*
X12552444Y-15265198D02*
X12533396Y-15255674D01*
X12533396Y-15255674D02*
X12495301Y-15255674D01*
X12495301Y-15255674D02*
X12476253Y-15265198D01*
X12476253Y-15265198D02*
X12466729Y-15274722D01*
X12466729Y-15274722D02*
X12457206Y-15293769D01*
X12809587Y-15379484D02*
X12809587Y-15179484D01*
X12895301Y-15379484D02*
X12895301Y-15274722D01*
X12895301Y-15274722D02*
X12885777Y-15255674D01*
X12885777Y-15255674D02*
X12866730Y-15246150D01*
X12866730Y-15246150D02*
X12838158Y-15246150D01*
X12838158Y-15246150D02*
X12819110Y-15255674D01*
X12819110Y-15255674D02*
X12809587Y-15265198D01*
X13019110Y-15379484D02*
X13000063Y-15369960D01*
X13000063Y-15369960D02*
X12990539Y-15360436D01*
X12990539Y-15360436D02*
X12981015Y-15341388D01*
X12981015Y-15341388D02*
X12981015Y-15284246D01*
X12981015Y-15284246D02*
X12990539Y-15265198D01*
X12990539Y-15265198D02*
X13000063Y-15255674D01*
X13000063Y-15255674D02*
X13019110Y-15246150D01*
X13019110Y-15246150D02*
X13047682Y-15246150D01*
X13047682Y-15246150D02*
X13066730Y-15255674D01*
X13066730Y-15255674D02*
X13076253Y-15265198D01*
X13076253Y-15265198D02*
X13085777Y-15284246D01*
X13085777Y-15284246D02*
X13085777Y-15341388D01*
X13085777Y-15341388D02*
X13076253Y-15360436D01*
X13076253Y-15360436D02*
X13066730Y-15369960D01*
X13066730Y-15369960D02*
X13047682Y-15379484D01*
X13047682Y-15379484D02*
X13019110Y-15379484D01*
X13200063Y-15379484D02*
X13181015Y-15369960D01*
X13181015Y-15369960D02*
X13171491Y-15350912D01*
X13171491Y-15350912D02*
X13171491Y-15179484D01*
X13352444Y-15369960D02*
X13333396Y-15379484D01*
X13333396Y-15379484D02*
X13295301Y-15379484D01*
X13295301Y-15379484D02*
X13276253Y-15369960D01*
X13276253Y-15369960D02*
X13266730Y-15350912D01*
X13266730Y-15350912D02*
X13266730Y-15274722D01*
X13266730Y-15274722D02*
X13276253Y-15255674D01*
X13276253Y-15255674D02*
X13295301Y-15246150D01*
X13295301Y-15246150D02*
X13333396Y-15246150D01*
X13333396Y-15246150D02*
X13352444Y-15255674D01*
X13352444Y-15255674D02*
X13361968Y-15274722D01*
X13361968Y-15274722D02*
X13361968Y-15293769D01*
X13361968Y-15293769D02*
X13266730Y-15312817D01*
X13438158Y-15369960D02*
X13457206Y-15379484D01*
X13457206Y-15379484D02*
X13495301Y-15379484D01*
X13495301Y-15379484D02*
X13514349Y-15369960D01*
X13514349Y-15369960D02*
X13523872Y-15350912D01*
X13523872Y-15350912D02*
X13523872Y-15341388D01*
X13523872Y-15341388D02*
X13514349Y-15322341D01*
X13514349Y-15322341D02*
X13495301Y-15312817D01*
X13495301Y-15312817D02*
X13466730Y-15312817D01*
X13466730Y-15312817D02*
X13447682Y-15303293D01*
X13447682Y-15303293D02*
X13438158Y-15284246D01*
X13438158Y-15284246D02*
X13438158Y-15274722D01*
X13438158Y-15274722D02*
X13447682Y-15255674D01*
X13447682Y-15255674D02*
X13466730Y-15246150D01*
X13466730Y-15246150D02*
X13495301Y-15246150D01*
X13495301Y-15246150D02*
X13514349Y-15255674D01*
X13590539Y-15455674D02*
X13600063Y-15446150D01*
X13600063Y-15446150D02*
X13619111Y-15417579D01*
X13619111Y-15417579D02*
X13628634Y-15398531D01*
X13628634Y-15398531D02*
X13638158Y-15369960D01*
X13638158Y-15369960D02*
X13647682Y-15322341D01*
X13647682Y-15322341D02*
X13647682Y-15284246D01*
X13647682Y-15284246D02*
X13638158Y-15236627D01*
X13638158Y-15236627D02*
X13628634Y-15208055D01*
X13628634Y-15208055D02*
X13619111Y-15189008D01*
X13619111Y-15189008D02*
X13600063Y-15160436D01*
X13600063Y-15160436D02*
X13590539Y-15150912D01*
D11*
X8616213Y-15573213D02*
X8616213Y-15530787D01*
X8573787Y-15530787D01*
X8573787Y-15573213D01*
X8616213Y-15573213D01*
D10*
X8923872Y-15443484D02*
X8942920Y-15443484D01*
X8942920Y-15443484D02*
X8961967Y-15453008D01*
X8961967Y-15453008D02*
X8971491Y-15462531D01*
X8971491Y-15462531D02*
X8981015Y-15481579D01*
X8981015Y-15481579D02*
X8990539Y-15519674D01*
X8990539Y-15519674D02*
X8990539Y-15567293D01*
X8990539Y-15567293D02*
X8981015Y-15605388D01*
X8981015Y-15605388D02*
X8971491Y-15624436D01*
X8971491Y-15624436D02*
X8961967Y-15633960D01*
X8961967Y-15633960D02*
X8942920Y-15643484D01*
X8942920Y-15643484D02*
X8923872Y-15643484D01*
X8923872Y-15643484D02*
X8904824Y-15633960D01*
X8904824Y-15633960D02*
X8895301Y-15624436D01*
X8895301Y-15624436D02*
X8885777Y-15605388D01*
X8885777Y-15605388D02*
X8876253Y-15567293D01*
X8876253Y-15567293D02*
X8876253Y-15519674D01*
X8876253Y-15519674D02*
X8885777Y-15481579D01*
X8885777Y-15481579D02*
X8895301Y-15462531D01*
X8895301Y-15462531D02*
X8904824Y-15453008D01*
X8904824Y-15453008D02*
X8923872Y-15443484D01*
X9076253Y-15624436D02*
X9085777Y-15633960D01*
X9085777Y-15633960D02*
X9076253Y-15643484D01*
X9076253Y-15643484D02*
X9066729Y-15633960D01*
X9066729Y-15633960D02*
X9076253Y-15624436D01*
X9076253Y-15624436D02*
X9076253Y-15643484D01*
X9257205Y-15443484D02*
X9219110Y-15443484D01*
X9219110Y-15443484D02*
X9200063Y-15453008D01*
X9200063Y-15453008D02*
X9190539Y-15462531D01*
X9190539Y-15462531D02*
X9171491Y-15491103D01*
X9171491Y-15491103D02*
X9161967Y-15529198D01*
X9161967Y-15529198D02*
X9161967Y-15605388D01*
X9161967Y-15605388D02*
X9171491Y-15624436D01*
X9171491Y-15624436D02*
X9181015Y-15633960D01*
X9181015Y-15633960D02*
X9200063Y-15643484D01*
X9200063Y-15643484D02*
X9238158Y-15643484D01*
X9238158Y-15643484D02*
X9257205Y-15633960D01*
X9257205Y-15633960D02*
X9266729Y-15624436D01*
X9266729Y-15624436D02*
X9276253Y-15605388D01*
X9276253Y-15605388D02*
X9276253Y-15557769D01*
X9276253Y-15557769D02*
X9266729Y-15538722D01*
X9266729Y-15538722D02*
X9257205Y-15529198D01*
X9257205Y-15529198D02*
X9238158Y-15519674D01*
X9238158Y-15519674D02*
X9200063Y-15519674D01*
X9200063Y-15519674D02*
X9181015Y-15529198D01*
X9181015Y-15529198D02*
X9171491Y-15538722D01*
X9171491Y-15538722D02*
X9161967Y-15557769D01*
X9400063Y-15443484D02*
X9419110Y-15443484D01*
X9419110Y-15443484D02*
X9438158Y-15453008D01*
X9438158Y-15453008D02*
X9447682Y-15462531D01*
X9447682Y-15462531D02*
X9457205Y-15481579D01*
X9457205Y-15481579D02*
X9466729Y-15519674D01*
X9466729Y-15519674D02*
X9466729Y-15567293D01*
X9466729Y-15567293D02*
X9457205Y-15605388D01*
X9457205Y-15605388D02*
X9447682Y-15624436D01*
X9447682Y-15624436D02*
X9438158Y-15633960D01*
X9438158Y-15633960D02*
X9419110Y-15643484D01*
X9419110Y-15643484D02*
X9400063Y-15643484D01*
X9400063Y-15643484D02*
X9381015Y-15633960D01*
X9381015Y-15633960D02*
X9371491Y-15624436D01*
X9371491Y-15624436D02*
X9361967Y-15605388D01*
X9361967Y-15605388D02*
X9352444Y-15567293D01*
X9352444Y-15567293D02*
X9352444Y-15519674D01*
X9352444Y-15519674D02*
X9361967Y-15481579D01*
X9361967Y-15481579D02*
X9371491Y-15462531D01*
X9371491Y-15462531D02*
X9381015Y-15453008D01*
X9381015Y-15453008D02*
X9400063Y-15443484D01*
X9590539Y-15443484D02*
X9609586Y-15443484D01*
X9609586Y-15443484D02*
X9628634Y-15453008D01*
X9628634Y-15453008D02*
X9638158Y-15462531D01*
X9638158Y-15462531D02*
X9647682Y-15481579D01*
X9647682Y-15481579D02*
X9657205Y-15519674D01*
X9657205Y-15519674D02*
X9657205Y-15567293D01*
X9657205Y-15567293D02*
X9647682Y-15605388D01*
X9647682Y-15605388D02*
X9638158Y-15624436D01*
X9638158Y-15624436D02*
X9628634Y-15633960D01*
X9628634Y-15633960D02*
X9609586Y-15643484D01*
X9609586Y-15643484D02*
X9590539Y-15643484D01*
X9590539Y-15643484D02*
X9571491Y-15633960D01*
X9571491Y-15633960D02*
X9561967Y-15624436D01*
X9561967Y-15624436D02*
X9552444Y-15605388D01*
X9552444Y-15605388D02*
X9542920Y-15567293D01*
X9542920Y-15567293D02*
X9542920Y-15519674D01*
X9542920Y-15519674D02*
X9552444Y-15481579D01*
X9552444Y-15481579D02*
X9561967Y-15462531D01*
X9561967Y-15462531D02*
X9571491Y-15453008D01*
X9571491Y-15453008D02*
X9590539Y-15443484D01*
X9742920Y-15643484D02*
X9742920Y-15510150D01*
X9742920Y-15529198D02*
X9752444Y-15519674D01*
X9752444Y-15519674D02*
X9771491Y-15510150D01*
X9771491Y-15510150D02*
X9800063Y-15510150D01*
X9800063Y-15510150D02*
X9819110Y-15519674D01*
X9819110Y-15519674D02*
X9828634Y-15538722D01*
X9828634Y-15538722D02*
X9828634Y-15643484D01*
X9828634Y-15538722D02*
X9838158Y-15519674D01*
X9838158Y-15519674D02*
X9857205Y-15510150D01*
X9857205Y-15510150D02*
X9885777Y-15510150D01*
X9885777Y-15510150D02*
X9904825Y-15519674D01*
X9904825Y-15519674D02*
X9914348Y-15538722D01*
X9914348Y-15538722D02*
X9914348Y-15643484D01*
X10009586Y-15643484D02*
X10009586Y-15510150D01*
X10009586Y-15529198D02*
X10019110Y-15519674D01*
X10019110Y-15519674D02*
X10038158Y-15510150D01*
X10038158Y-15510150D02*
X10066729Y-15510150D01*
X10066729Y-15510150D02*
X10085777Y-15519674D01*
X10085777Y-15519674D02*
X10095301Y-15538722D01*
X10095301Y-15538722D02*
X10095301Y-15643484D01*
X10095301Y-15538722D02*
X10104825Y-15519674D01*
X10104825Y-15519674D02*
X10123872Y-15510150D01*
X10123872Y-15510150D02*
X10152444Y-15510150D01*
X10152444Y-15510150D02*
X10171491Y-15519674D01*
X10171491Y-15519674D02*
X10181015Y-15538722D01*
X10181015Y-15538722D02*
X10181015Y-15643484D01*
X10571491Y-15433960D02*
X10400063Y-15691103D01*
X10828634Y-15443484D02*
X10847682Y-15443484D01*
X10847682Y-15443484D02*
X10866729Y-15453008D01*
X10866729Y-15453008D02*
X10876253Y-15462531D01*
X10876253Y-15462531D02*
X10885777Y-15481579D01*
X10885777Y-15481579D02*
X10895301Y-15519674D01*
X10895301Y-15519674D02*
X10895301Y-15567293D01*
X10895301Y-15567293D02*
X10885777Y-15605388D01*
X10885777Y-15605388D02*
X10876253Y-15624436D01*
X10876253Y-15624436D02*
X10866729Y-15633960D01*
X10866729Y-15633960D02*
X10847682Y-15643484D01*
X10847682Y-15643484D02*
X10828634Y-15643484D01*
X10828634Y-15643484D02*
X10809587Y-15633960D01*
X10809587Y-15633960D02*
X10800063Y-15624436D01*
X10800063Y-15624436D02*
X10790539Y-15605388D01*
X10790539Y-15605388D02*
X10781015Y-15567293D01*
X10781015Y-15567293D02*
X10781015Y-15519674D01*
X10781015Y-15519674D02*
X10790539Y-15481579D01*
X10790539Y-15481579D02*
X10800063Y-15462531D01*
X10800063Y-15462531D02*
X10809587Y-15453008D01*
X10809587Y-15453008D02*
X10828634Y-15443484D01*
X10981015Y-15624436D02*
X10990539Y-15633960D01*
X10990539Y-15633960D02*
X10981015Y-15643484D01*
X10981015Y-15643484D02*
X10971491Y-15633960D01*
X10971491Y-15633960D02*
X10981015Y-15624436D01*
X10981015Y-15624436D02*
X10981015Y-15643484D01*
X11114348Y-15443484D02*
X11133396Y-15443484D01*
X11133396Y-15443484D02*
X11152444Y-15453008D01*
X11152444Y-15453008D02*
X11161968Y-15462531D01*
X11161968Y-15462531D02*
X11171491Y-15481579D01*
X11171491Y-15481579D02*
X11181015Y-15519674D01*
X11181015Y-15519674D02*
X11181015Y-15567293D01*
X11181015Y-15567293D02*
X11171491Y-15605388D01*
X11171491Y-15605388D02*
X11161968Y-15624436D01*
X11161968Y-15624436D02*
X11152444Y-15633960D01*
X11152444Y-15633960D02*
X11133396Y-15643484D01*
X11133396Y-15643484D02*
X11114348Y-15643484D01*
X11114348Y-15643484D02*
X11095301Y-15633960D01*
X11095301Y-15633960D02*
X11085777Y-15624436D01*
X11085777Y-15624436D02*
X11076253Y-15605388D01*
X11076253Y-15605388D02*
X11066729Y-15567293D01*
X11066729Y-15567293D02*
X11066729Y-15519674D01*
X11066729Y-15519674D02*
X11076253Y-15481579D01*
X11076253Y-15481579D02*
X11085777Y-15462531D01*
X11085777Y-15462531D02*
X11095301Y-15453008D01*
X11095301Y-15453008D02*
X11114348Y-15443484D01*
X11257206Y-15462531D02*
X11266729Y-15453008D01*
X11266729Y-15453008D02*
X11285777Y-15443484D01*
X11285777Y-15443484D02*
X11333396Y-15443484D01*
X11333396Y-15443484D02*
X11352444Y-15453008D01*
X11352444Y-15453008D02*
X11361967Y-15462531D01*
X11361967Y-15462531D02*
X11371491Y-15481579D01*
X11371491Y-15481579D02*
X11371491Y-15500627D01*
X11371491Y-15500627D02*
X11361967Y-15529198D01*
X11361967Y-15529198D02*
X11247682Y-15643484D01*
X11247682Y-15643484D02*
X11371491Y-15643484D01*
X11438158Y-15443484D02*
X11561967Y-15443484D01*
X11561967Y-15443484D02*
X11495301Y-15519674D01*
X11495301Y-15519674D02*
X11523872Y-15519674D01*
X11523872Y-15519674D02*
X11542920Y-15529198D01*
X11542920Y-15529198D02*
X11552444Y-15538722D01*
X11552444Y-15538722D02*
X11561967Y-15557769D01*
X11561967Y-15557769D02*
X11561967Y-15605388D01*
X11561967Y-15605388D02*
X11552444Y-15624436D01*
X11552444Y-15624436D02*
X11542920Y-15633960D01*
X11542920Y-15633960D02*
X11523872Y-15643484D01*
X11523872Y-15643484D02*
X11466729Y-15643484D01*
X11466729Y-15643484D02*
X11447682Y-15633960D01*
X11447682Y-15633960D02*
X11438158Y-15624436D01*
X11733396Y-15443484D02*
X11695301Y-15443484D01*
X11695301Y-15443484D02*
X11676253Y-15453008D01*
X11676253Y-15453008D02*
X11666729Y-15462531D01*
X11666729Y-15462531D02*
X11647682Y-15491103D01*
X11647682Y-15491103D02*
X11638158Y-15529198D01*
X11638158Y-15529198D02*
X11638158Y-15605388D01*
X11638158Y-15605388D02*
X11647682Y-15624436D01*
X11647682Y-15624436D02*
X11657206Y-15633960D01*
X11657206Y-15633960D02*
X11676253Y-15643484D01*
X11676253Y-15643484D02*
X11714348Y-15643484D01*
X11714348Y-15643484D02*
X11733396Y-15633960D01*
X11733396Y-15633960D02*
X11742920Y-15624436D01*
X11742920Y-15624436D02*
X11752444Y-15605388D01*
X11752444Y-15605388D02*
X11752444Y-15557769D01*
X11752444Y-15557769D02*
X11742920Y-15538722D01*
X11742920Y-15538722D02*
X11733396Y-15529198D01*
X11733396Y-15529198D02*
X11714348Y-15519674D01*
X11714348Y-15519674D02*
X11676253Y-15519674D01*
X11676253Y-15519674D02*
X11657206Y-15529198D01*
X11657206Y-15529198D02*
X11647682Y-15538722D01*
X11647682Y-15538722D02*
X11638158Y-15557769D01*
X11828634Y-15443484D02*
X11828634Y-15481579D01*
X11904825Y-15443484D02*
X11904825Y-15481579D01*
X12200063Y-15719674D02*
X12190539Y-15710150D01*
X12190539Y-15710150D02*
X12171491Y-15681579D01*
X12171491Y-15681579D02*
X12161968Y-15662531D01*
X12161968Y-15662531D02*
X12152444Y-15633960D01*
X12152444Y-15633960D02*
X12142920Y-15586341D01*
X12142920Y-15586341D02*
X12142920Y-15548246D01*
X12142920Y-15548246D02*
X12152444Y-15500627D01*
X12152444Y-15500627D02*
X12161968Y-15472055D01*
X12161968Y-15472055D02*
X12171491Y-15453008D01*
X12171491Y-15453008D02*
X12190539Y-15424436D01*
X12190539Y-15424436D02*
X12200063Y-15414912D01*
X12314348Y-15443484D02*
X12333396Y-15443484D01*
X12333396Y-15443484D02*
X12352444Y-15453008D01*
X12352444Y-15453008D02*
X12361968Y-15462531D01*
X12361968Y-15462531D02*
X12371491Y-15481579D01*
X12371491Y-15481579D02*
X12381015Y-15519674D01*
X12381015Y-15519674D02*
X12381015Y-15567293D01*
X12381015Y-15567293D02*
X12371491Y-15605388D01*
X12371491Y-15605388D02*
X12361968Y-15624436D01*
X12361968Y-15624436D02*
X12352444Y-15633960D01*
X12352444Y-15633960D02*
X12333396Y-15643484D01*
X12333396Y-15643484D02*
X12314348Y-15643484D01*
X12314348Y-15643484D02*
X12295301Y-15633960D01*
X12295301Y-15633960D02*
X12285777Y-15624436D01*
X12285777Y-15624436D02*
X12276253Y-15605388D01*
X12276253Y-15605388D02*
X12266729Y-15567293D01*
X12266729Y-15567293D02*
X12266729Y-15519674D01*
X12266729Y-15519674D02*
X12276253Y-15481579D01*
X12276253Y-15481579D02*
X12285777Y-15462531D01*
X12285777Y-15462531D02*
X12295301Y-15453008D01*
X12295301Y-15453008D02*
X12314348Y-15443484D01*
X12619110Y-15643484D02*
X12619110Y-15443484D01*
X12704825Y-15643484D02*
X12704825Y-15538722D01*
X12704825Y-15538722D02*
X12695301Y-15519674D01*
X12695301Y-15519674D02*
X12676253Y-15510150D01*
X12676253Y-15510150D02*
X12647682Y-15510150D01*
X12647682Y-15510150D02*
X12628634Y-15519674D01*
X12628634Y-15519674D02*
X12619110Y-15529198D01*
X12828634Y-15643484D02*
X12809587Y-15633960D01*
X12809587Y-15633960D02*
X12800063Y-15624436D01*
X12800063Y-15624436D02*
X12790539Y-15605388D01*
X12790539Y-15605388D02*
X12790539Y-15548246D01*
X12790539Y-15548246D02*
X12800063Y-15529198D01*
X12800063Y-15529198D02*
X12809587Y-15519674D01*
X12809587Y-15519674D02*
X12828634Y-15510150D01*
X12828634Y-15510150D02*
X12857206Y-15510150D01*
X12857206Y-15510150D02*
X12876253Y-15519674D01*
X12876253Y-15519674D02*
X12885777Y-15529198D01*
X12885777Y-15529198D02*
X12895301Y-15548246D01*
X12895301Y-15548246D02*
X12895301Y-15605388D01*
X12895301Y-15605388D02*
X12885777Y-15624436D01*
X12885777Y-15624436D02*
X12876253Y-15633960D01*
X12876253Y-15633960D02*
X12857206Y-15643484D01*
X12857206Y-15643484D02*
X12828634Y-15643484D01*
X13009587Y-15643484D02*
X12990539Y-15633960D01*
X12990539Y-15633960D02*
X12981015Y-15614912D01*
X12981015Y-15614912D02*
X12981015Y-15443484D01*
X13161968Y-15633960D02*
X13142920Y-15643484D01*
X13142920Y-15643484D02*
X13104825Y-15643484D01*
X13104825Y-15643484D02*
X13085777Y-15633960D01*
X13085777Y-15633960D02*
X13076253Y-15614912D01*
X13076253Y-15614912D02*
X13076253Y-15538722D01*
X13076253Y-15538722D02*
X13085777Y-15519674D01*
X13085777Y-15519674D02*
X13104825Y-15510150D01*
X13104825Y-15510150D02*
X13142920Y-15510150D01*
X13142920Y-15510150D02*
X13161968Y-15519674D01*
X13161968Y-15519674D02*
X13171491Y-15538722D01*
X13171491Y-15538722D02*
X13171491Y-15557769D01*
X13171491Y-15557769D02*
X13076253Y-15576817D01*
X13247682Y-15633960D02*
X13266730Y-15643484D01*
X13266730Y-15643484D02*
X13304825Y-15643484D01*
X13304825Y-15643484D02*
X13323872Y-15633960D01*
X13323872Y-15633960D02*
X13333396Y-15614912D01*
X13333396Y-15614912D02*
X13333396Y-15605388D01*
X13333396Y-15605388D02*
X13323872Y-15586341D01*
X13323872Y-15586341D02*
X13304825Y-15576817D01*
X13304825Y-15576817D02*
X13276253Y-15576817D01*
X13276253Y-15576817D02*
X13257206Y-15567293D01*
X13257206Y-15567293D02*
X13247682Y-15548246D01*
X13247682Y-15548246D02*
X13247682Y-15538722D01*
X13247682Y-15538722D02*
X13257206Y-15519674D01*
X13257206Y-15519674D02*
X13276253Y-15510150D01*
X13276253Y-15510150D02*
X13304825Y-15510150D01*
X13304825Y-15510150D02*
X13323872Y-15519674D01*
X13571492Y-15567293D02*
X13723873Y-15567293D01*
X13647682Y-15643484D02*
X13647682Y-15491103D01*
X14057206Y-15510150D02*
X14057206Y-15643484D01*
X14009587Y-15433960D02*
X13961968Y-15576817D01*
X13961968Y-15576817D02*
X14085777Y-15576817D01*
X14304825Y-15633960D02*
X14323873Y-15643484D01*
X14323873Y-15643484D02*
X14361968Y-15643484D01*
X14361968Y-15643484D02*
X14381015Y-15633960D01*
X14381015Y-15633960D02*
X14390539Y-15614912D01*
X14390539Y-15614912D02*
X14390539Y-15605388D01*
X14390539Y-15605388D02*
X14381015Y-15586341D01*
X14381015Y-15586341D02*
X14361968Y-15576817D01*
X14361968Y-15576817D02*
X14333396Y-15576817D01*
X14333396Y-15576817D02*
X14314349Y-15567293D01*
X14314349Y-15567293D02*
X14304825Y-15548246D01*
X14304825Y-15548246D02*
X14304825Y-15538722D01*
X14304825Y-15538722D02*
X14314349Y-15519674D01*
X14314349Y-15519674D02*
X14333396Y-15510150D01*
X14333396Y-15510150D02*
X14361968Y-15510150D01*
X14361968Y-15510150D02*
X14381015Y-15519674D01*
X14504825Y-15643484D02*
X14485777Y-15633960D01*
X14485777Y-15633960D02*
X14476254Y-15614912D01*
X14476254Y-15614912D02*
X14476254Y-15443484D01*
X14609587Y-15643484D02*
X14590539Y-15633960D01*
X14590539Y-15633960D02*
X14581015Y-15624436D01*
X14581015Y-15624436D02*
X14571492Y-15605388D01*
X14571492Y-15605388D02*
X14571492Y-15548246D01*
X14571492Y-15548246D02*
X14581015Y-15529198D01*
X14581015Y-15529198D02*
X14590539Y-15519674D01*
X14590539Y-15519674D02*
X14609587Y-15510150D01*
X14609587Y-15510150D02*
X14638158Y-15510150D01*
X14638158Y-15510150D02*
X14657206Y-15519674D01*
X14657206Y-15519674D02*
X14666730Y-15529198D01*
X14666730Y-15529198D02*
X14676254Y-15548246D01*
X14676254Y-15548246D02*
X14676254Y-15605388D01*
X14676254Y-15605388D02*
X14666730Y-15624436D01*
X14666730Y-15624436D02*
X14657206Y-15633960D01*
X14657206Y-15633960D02*
X14638158Y-15643484D01*
X14638158Y-15643484D02*
X14609587Y-15643484D01*
X14733396Y-15510150D02*
X14809587Y-15510150D01*
X14761968Y-15443484D02*
X14761968Y-15614912D01*
X14761968Y-15614912D02*
X14771492Y-15633960D01*
X14771492Y-15633960D02*
X14790539Y-15643484D01*
X14790539Y-15643484D02*
X14809587Y-15643484D01*
X14866730Y-15633960D02*
X14885777Y-15643484D01*
X14885777Y-15643484D02*
X14923873Y-15643484D01*
X14923873Y-15643484D02*
X14942920Y-15633960D01*
X14942920Y-15633960D02*
X14952444Y-15614912D01*
X14952444Y-15614912D02*
X14952444Y-15605388D01*
X14952444Y-15605388D02*
X14942920Y-15586341D01*
X14942920Y-15586341D02*
X14923873Y-15576817D01*
X14923873Y-15576817D02*
X14895301Y-15576817D01*
X14895301Y-15576817D02*
X14876254Y-15567293D01*
X14876254Y-15567293D02*
X14866730Y-15548246D01*
X14866730Y-15548246D02*
X14866730Y-15538722D01*
X14866730Y-15538722D02*
X14876254Y-15519674D01*
X14876254Y-15519674D02*
X14895301Y-15510150D01*
X14895301Y-15510150D02*
X14923873Y-15510150D01*
X14923873Y-15510150D02*
X14942920Y-15519674D01*
X15019111Y-15719674D02*
X15028635Y-15710150D01*
X15028635Y-15710150D02*
X15047682Y-15681579D01*
X15047682Y-15681579D02*
X15057206Y-15662531D01*
X15057206Y-15662531D02*
X15066730Y-15633960D01*
X15066730Y-15633960D02*
X15076254Y-15586341D01*
X15076254Y-15586341D02*
X15076254Y-15548246D01*
X15076254Y-15548246D02*
X15066730Y-15500627D01*
X15066730Y-15500627D02*
X15057206Y-15472055D01*
X15057206Y-15472055D02*
X15047682Y-15453008D01*
X15047682Y-15453008D02*
X15028635Y-15424436D01*
X15028635Y-15424436D02*
X15019111Y-15414912D01*
D11*
X8586900Y-15854100D02*
X8625000Y-15816000D01*
X8586900Y-15777900D01*
X8548800Y-15816000D01*
X8586900Y-15854100D01*
D10*
X8923872Y-15707484D02*
X8942920Y-15707484D01*
X8942920Y-15707484D02*
X8961967Y-15717008D01*
X8961967Y-15717008D02*
X8971491Y-15726531D01*
X8971491Y-15726531D02*
X8981015Y-15745579D01*
X8981015Y-15745579D02*
X8990539Y-15783674D01*
X8990539Y-15783674D02*
X8990539Y-15831293D01*
X8990539Y-15831293D02*
X8981015Y-15869388D01*
X8981015Y-15869388D02*
X8971491Y-15888436D01*
X8971491Y-15888436D02*
X8961967Y-15897960D01*
X8961967Y-15897960D02*
X8942920Y-15907484D01*
X8942920Y-15907484D02*
X8923872Y-15907484D01*
X8923872Y-15907484D02*
X8904824Y-15897960D01*
X8904824Y-15897960D02*
X8895301Y-15888436D01*
X8895301Y-15888436D02*
X8885777Y-15869388D01*
X8885777Y-15869388D02*
X8876253Y-15831293D01*
X8876253Y-15831293D02*
X8876253Y-15783674D01*
X8876253Y-15783674D02*
X8885777Y-15745579D01*
X8885777Y-15745579D02*
X8895301Y-15726531D01*
X8895301Y-15726531D02*
X8904824Y-15717008D01*
X8904824Y-15717008D02*
X8923872Y-15707484D01*
X9076253Y-15888436D02*
X9085777Y-15897960D01*
X9085777Y-15897960D02*
X9076253Y-15907484D01*
X9076253Y-15907484D02*
X9066729Y-15897960D01*
X9066729Y-15897960D02*
X9076253Y-15888436D01*
X9076253Y-15888436D02*
X9076253Y-15907484D01*
X9152444Y-15707484D02*
X9285777Y-15707484D01*
X9285777Y-15707484D02*
X9200063Y-15907484D01*
X9447682Y-15707484D02*
X9409586Y-15707484D01*
X9409586Y-15707484D02*
X9390539Y-15717008D01*
X9390539Y-15717008D02*
X9381015Y-15726531D01*
X9381015Y-15726531D02*
X9361967Y-15755103D01*
X9361967Y-15755103D02*
X9352444Y-15793198D01*
X9352444Y-15793198D02*
X9352444Y-15869388D01*
X9352444Y-15869388D02*
X9361967Y-15888436D01*
X9361967Y-15888436D02*
X9371491Y-15897960D01*
X9371491Y-15897960D02*
X9390539Y-15907484D01*
X9390539Y-15907484D02*
X9428634Y-15907484D01*
X9428634Y-15907484D02*
X9447682Y-15897960D01*
X9447682Y-15897960D02*
X9457205Y-15888436D01*
X9457205Y-15888436D02*
X9466729Y-15869388D01*
X9466729Y-15869388D02*
X9466729Y-15821769D01*
X9466729Y-15821769D02*
X9457205Y-15802722D01*
X9457205Y-15802722D02*
X9447682Y-15793198D01*
X9447682Y-15793198D02*
X9428634Y-15783674D01*
X9428634Y-15783674D02*
X9390539Y-15783674D01*
X9390539Y-15783674D02*
X9371491Y-15793198D01*
X9371491Y-15793198D02*
X9361967Y-15802722D01*
X9361967Y-15802722D02*
X9352444Y-15821769D01*
X9542920Y-15726531D02*
X9552444Y-15717008D01*
X9552444Y-15717008D02*
X9571491Y-15707484D01*
X9571491Y-15707484D02*
X9619110Y-15707484D01*
X9619110Y-15707484D02*
X9638158Y-15717008D01*
X9638158Y-15717008D02*
X9647682Y-15726531D01*
X9647682Y-15726531D02*
X9657205Y-15745579D01*
X9657205Y-15745579D02*
X9657205Y-15764627D01*
X9657205Y-15764627D02*
X9647682Y-15793198D01*
X9647682Y-15793198D02*
X9533396Y-15907484D01*
X9533396Y-15907484D02*
X9657205Y-15907484D01*
X9742920Y-15907484D02*
X9742920Y-15774150D01*
X9742920Y-15793198D02*
X9752444Y-15783674D01*
X9752444Y-15783674D02*
X9771491Y-15774150D01*
X9771491Y-15774150D02*
X9800063Y-15774150D01*
X9800063Y-15774150D02*
X9819110Y-15783674D01*
X9819110Y-15783674D02*
X9828634Y-15802722D01*
X9828634Y-15802722D02*
X9828634Y-15907484D01*
X9828634Y-15802722D02*
X9838158Y-15783674D01*
X9838158Y-15783674D02*
X9857205Y-15774150D01*
X9857205Y-15774150D02*
X9885777Y-15774150D01*
X9885777Y-15774150D02*
X9904825Y-15783674D01*
X9904825Y-15783674D02*
X9914348Y-15802722D01*
X9914348Y-15802722D02*
X9914348Y-15907484D01*
X10009586Y-15907484D02*
X10009586Y-15774150D01*
X10009586Y-15793198D02*
X10019110Y-15783674D01*
X10019110Y-15783674D02*
X10038158Y-15774150D01*
X10038158Y-15774150D02*
X10066729Y-15774150D01*
X10066729Y-15774150D02*
X10085777Y-15783674D01*
X10085777Y-15783674D02*
X10095301Y-15802722D01*
X10095301Y-15802722D02*
X10095301Y-15907484D01*
X10095301Y-15802722D02*
X10104825Y-15783674D01*
X10104825Y-15783674D02*
X10123872Y-15774150D01*
X10123872Y-15774150D02*
X10152444Y-15774150D01*
X10152444Y-15774150D02*
X10171491Y-15783674D01*
X10171491Y-15783674D02*
X10181015Y-15802722D01*
X10181015Y-15802722D02*
X10181015Y-15907484D01*
X10571491Y-15697960D02*
X10400063Y-15955103D01*
X10828634Y-15707484D02*
X10847682Y-15707484D01*
X10847682Y-15707484D02*
X10866729Y-15717008D01*
X10866729Y-15717008D02*
X10876253Y-15726531D01*
X10876253Y-15726531D02*
X10885777Y-15745579D01*
X10885777Y-15745579D02*
X10895301Y-15783674D01*
X10895301Y-15783674D02*
X10895301Y-15831293D01*
X10895301Y-15831293D02*
X10885777Y-15869388D01*
X10885777Y-15869388D02*
X10876253Y-15888436D01*
X10876253Y-15888436D02*
X10866729Y-15897960D01*
X10866729Y-15897960D02*
X10847682Y-15907484D01*
X10847682Y-15907484D02*
X10828634Y-15907484D01*
X10828634Y-15907484D02*
X10809587Y-15897960D01*
X10809587Y-15897960D02*
X10800063Y-15888436D01*
X10800063Y-15888436D02*
X10790539Y-15869388D01*
X10790539Y-15869388D02*
X10781015Y-15831293D01*
X10781015Y-15831293D02*
X10781015Y-15783674D01*
X10781015Y-15783674D02*
X10790539Y-15745579D01*
X10790539Y-15745579D02*
X10800063Y-15726531D01*
X10800063Y-15726531D02*
X10809587Y-15717008D01*
X10809587Y-15717008D02*
X10828634Y-15707484D01*
X10981015Y-15888436D02*
X10990539Y-15897960D01*
X10990539Y-15897960D02*
X10981015Y-15907484D01*
X10981015Y-15907484D02*
X10971491Y-15897960D01*
X10971491Y-15897960D02*
X10981015Y-15888436D01*
X10981015Y-15888436D02*
X10981015Y-15907484D01*
X11114348Y-15707484D02*
X11133396Y-15707484D01*
X11133396Y-15707484D02*
X11152444Y-15717008D01*
X11152444Y-15717008D02*
X11161968Y-15726531D01*
X11161968Y-15726531D02*
X11171491Y-15745579D01*
X11171491Y-15745579D02*
X11181015Y-15783674D01*
X11181015Y-15783674D02*
X11181015Y-15831293D01*
X11181015Y-15831293D02*
X11171491Y-15869388D01*
X11171491Y-15869388D02*
X11161968Y-15888436D01*
X11161968Y-15888436D02*
X11152444Y-15897960D01*
X11152444Y-15897960D02*
X11133396Y-15907484D01*
X11133396Y-15907484D02*
X11114348Y-15907484D01*
X11114348Y-15907484D02*
X11095301Y-15897960D01*
X11095301Y-15897960D02*
X11085777Y-15888436D01*
X11085777Y-15888436D02*
X11076253Y-15869388D01*
X11076253Y-15869388D02*
X11066729Y-15831293D01*
X11066729Y-15831293D02*
X11066729Y-15783674D01*
X11066729Y-15783674D02*
X11076253Y-15745579D01*
X11076253Y-15745579D02*
X11085777Y-15726531D01*
X11085777Y-15726531D02*
X11095301Y-15717008D01*
X11095301Y-15717008D02*
X11114348Y-15707484D01*
X11247682Y-15707484D02*
X11371491Y-15707484D01*
X11371491Y-15707484D02*
X11304825Y-15783674D01*
X11304825Y-15783674D02*
X11333396Y-15783674D01*
X11333396Y-15783674D02*
X11352444Y-15793198D01*
X11352444Y-15793198D02*
X11361967Y-15802722D01*
X11361967Y-15802722D02*
X11371491Y-15821769D01*
X11371491Y-15821769D02*
X11371491Y-15869388D01*
X11371491Y-15869388D02*
X11361967Y-15888436D01*
X11361967Y-15888436D02*
X11352444Y-15897960D01*
X11352444Y-15897960D02*
X11333396Y-15907484D01*
X11333396Y-15907484D02*
X11276253Y-15907484D01*
X11276253Y-15907484D02*
X11257206Y-15897960D01*
X11257206Y-15897960D02*
X11247682Y-15888436D01*
X11495301Y-15707484D02*
X11514348Y-15707484D01*
X11514348Y-15707484D02*
X11533396Y-15717008D01*
X11533396Y-15717008D02*
X11542920Y-15726531D01*
X11542920Y-15726531D02*
X11552444Y-15745579D01*
X11552444Y-15745579D02*
X11561967Y-15783674D01*
X11561967Y-15783674D02*
X11561967Y-15831293D01*
X11561967Y-15831293D02*
X11552444Y-15869388D01*
X11552444Y-15869388D02*
X11542920Y-15888436D01*
X11542920Y-15888436D02*
X11533396Y-15897960D01*
X11533396Y-15897960D02*
X11514348Y-15907484D01*
X11514348Y-15907484D02*
X11495301Y-15907484D01*
X11495301Y-15907484D02*
X11476253Y-15897960D01*
X11476253Y-15897960D02*
X11466729Y-15888436D01*
X11466729Y-15888436D02*
X11457206Y-15869388D01*
X11457206Y-15869388D02*
X11447682Y-15831293D01*
X11447682Y-15831293D02*
X11447682Y-15783674D01*
X11447682Y-15783674D02*
X11457206Y-15745579D01*
X11457206Y-15745579D02*
X11466729Y-15726531D01*
X11466729Y-15726531D02*
X11476253Y-15717008D01*
X11476253Y-15717008D02*
X11495301Y-15707484D01*
X11685777Y-15707484D02*
X11704825Y-15707484D01*
X11704825Y-15707484D02*
X11723872Y-15717008D01*
X11723872Y-15717008D02*
X11733396Y-15726531D01*
X11733396Y-15726531D02*
X11742920Y-15745579D01*
X11742920Y-15745579D02*
X11752444Y-15783674D01*
X11752444Y-15783674D02*
X11752444Y-15831293D01*
X11752444Y-15831293D02*
X11742920Y-15869388D01*
X11742920Y-15869388D02*
X11733396Y-15888436D01*
X11733396Y-15888436D02*
X11723872Y-15897960D01*
X11723872Y-15897960D02*
X11704825Y-15907484D01*
X11704825Y-15907484D02*
X11685777Y-15907484D01*
X11685777Y-15907484D02*
X11666729Y-15897960D01*
X11666729Y-15897960D02*
X11657206Y-15888436D01*
X11657206Y-15888436D02*
X11647682Y-15869388D01*
X11647682Y-15869388D02*
X11638158Y-15831293D01*
X11638158Y-15831293D02*
X11638158Y-15783674D01*
X11638158Y-15783674D02*
X11647682Y-15745579D01*
X11647682Y-15745579D02*
X11657206Y-15726531D01*
X11657206Y-15726531D02*
X11666729Y-15717008D01*
X11666729Y-15717008D02*
X11685777Y-15707484D01*
X11828634Y-15707484D02*
X11828634Y-15745579D01*
X11904825Y-15707484D02*
X11904825Y-15745579D01*
X12200063Y-15983674D02*
X12190539Y-15974150D01*
X12190539Y-15974150D02*
X12171491Y-15945579D01*
X12171491Y-15945579D02*
X12161968Y-15926531D01*
X12161968Y-15926531D02*
X12152444Y-15897960D01*
X12152444Y-15897960D02*
X12142920Y-15850341D01*
X12142920Y-15850341D02*
X12142920Y-15812246D01*
X12142920Y-15812246D02*
X12152444Y-15764627D01*
X12152444Y-15764627D02*
X12161968Y-15736055D01*
X12161968Y-15736055D02*
X12171491Y-15717008D01*
X12171491Y-15717008D02*
X12190539Y-15688436D01*
X12190539Y-15688436D02*
X12200063Y-15678912D01*
X12304825Y-15793198D02*
X12285777Y-15783674D01*
X12285777Y-15783674D02*
X12276253Y-15774150D01*
X12276253Y-15774150D02*
X12266729Y-15755103D01*
X12266729Y-15755103D02*
X12266729Y-15745579D01*
X12266729Y-15745579D02*
X12276253Y-15726531D01*
X12276253Y-15726531D02*
X12285777Y-15717008D01*
X12285777Y-15717008D02*
X12304825Y-15707484D01*
X12304825Y-15707484D02*
X12342920Y-15707484D01*
X12342920Y-15707484D02*
X12361968Y-15717008D01*
X12361968Y-15717008D02*
X12371491Y-15726531D01*
X12371491Y-15726531D02*
X12381015Y-15745579D01*
X12381015Y-15745579D02*
X12381015Y-15755103D01*
X12381015Y-15755103D02*
X12371491Y-15774150D01*
X12371491Y-15774150D02*
X12361968Y-15783674D01*
X12361968Y-15783674D02*
X12342920Y-15793198D01*
X12342920Y-15793198D02*
X12304825Y-15793198D01*
X12304825Y-15793198D02*
X12285777Y-15802722D01*
X12285777Y-15802722D02*
X12276253Y-15812246D01*
X12276253Y-15812246D02*
X12266729Y-15831293D01*
X12266729Y-15831293D02*
X12266729Y-15869388D01*
X12266729Y-15869388D02*
X12276253Y-15888436D01*
X12276253Y-15888436D02*
X12285777Y-15897960D01*
X12285777Y-15897960D02*
X12304825Y-15907484D01*
X12304825Y-15907484D02*
X12342920Y-15907484D01*
X12342920Y-15907484D02*
X12361968Y-15897960D01*
X12361968Y-15897960D02*
X12371491Y-15888436D01*
X12371491Y-15888436D02*
X12381015Y-15869388D01*
X12381015Y-15869388D02*
X12381015Y-15831293D01*
X12381015Y-15831293D02*
X12371491Y-15812246D01*
X12371491Y-15812246D02*
X12361968Y-15802722D01*
X12361968Y-15802722D02*
X12342920Y-15793198D01*
X12619110Y-15907484D02*
X12619110Y-15707484D01*
X12704825Y-15907484D02*
X12704825Y-15802722D01*
X12704825Y-15802722D02*
X12695301Y-15783674D01*
X12695301Y-15783674D02*
X12676253Y-15774150D01*
X12676253Y-15774150D02*
X12647682Y-15774150D01*
X12647682Y-15774150D02*
X12628634Y-15783674D01*
X12628634Y-15783674D02*
X12619110Y-15793198D01*
X12828634Y-15907484D02*
X12809587Y-15897960D01*
X12809587Y-15897960D02*
X12800063Y-15888436D01*
X12800063Y-15888436D02*
X12790539Y-15869388D01*
X12790539Y-15869388D02*
X12790539Y-15812246D01*
X12790539Y-15812246D02*
X12800063Y-15793198D01*
X12800063Y-15793198D02*
X12809587Y-15783674D01*
X12809587Y-15783674D02*
X12828634Y-15774150D01*
X12828634Y-15774150D02*
X12857206Y-15774150D01*
X12857206Y-15774150D02*
X12876253Y-15783674D01*
X12876253Y-15783674D02*
X12885777Y-15793198D01*
X12885777Y-15793198D02*
X12895301Y-15812246D01*
X12895301Y-15812246D02*
X12895301Y-15869388D01*
X12895301Y-15869388D02*
X12885777Y-15888436D01*
X12885777Y-15888436D02*
X12876253Y-15897960D01*
X12876253Y-15897960D02*
X12857206Y-15907484D01*
X12857206Y-15907484D02*
X12828634Y-15907484D01*
X13009587Y-15907484D02*
X12990539Y-15897960D01*
X12990539Y-15897960D02*
X12981015Y-15878912D01*
X12981015Y-15878912D02*
X12981015Y-15707484D01*
X13161968Y-15897960D02*
X13142920Y-15907484D01*
X13142920Y-15907484D02*
X13104825Y-15907484D01*
X13104825Y-15907484D02*
X13085777Y-15897960D01*
X13085777Y-15897960D02*
X13076253Y-15878912D01*
X13076253Y-15878912D02*
X13076253Y-15802722D01*
X13076253Y-15802722D02*
X13085777Y-15783674D01*
X13085777Y-15783674D02*
X13104825Y-15774150D01*
X13104825Y-15774150D02*
X13142920Y-15774150D01*
X13142920Y-15774150D02*
X13161968Y-15783674D01*
X13161968Y-15783674D02*
X13171491Y-15802722D01*
X13171491Y-15802722D02*
X13171491Y-15821769D01*
X13171491Y-15821769D02*
X13076253Y-15840817D01*
X13247682Y-15897960D02*
X13266730Y-15907484D01*
X13266730Y-15907484D02*
X13304825Y-15907484D01*
X13304825Y-15907484D02*
X13323872Y-15897960D01*
X13323872Y-15897960D02*
X13333396Y-15878912D01*
X13333396Y-15878912D02*
X13333396Y-15869388D01*
X13333396Y-15869388D02*
X13323872Y-15850341D01*
X13323872Y-15850341D02*
X13304825Y-15840817D01*
X13304825Y-15840817D02*
X13276253Y-15840817D01*
X13276253Y-15840817D02*
X13257206Y-15831293D01*
X13257206Y-15831293D02*
X13247682Y-15812246D01*
X13247682Y-15812246D02*
X13247682Y-15802722D01*
X13247682Y-15802722D02*
X13257206Y-15783674D01*
X13257206Y-15783674D02*
X13276253Y-15774150D01*
X13276253Y-15774150D02*
X13304825Y-15774150D01*
X13304825Y-15774150D02*
X13323872Y-15783674D01*
X13400063Y-15983674D02*
X13409587Y-15974150D01*
X13409587Y-15974150D02*
X13428634Y-15945579D01*
X13428634Y-15945579D02*
X13438158Y-15926531D01*
X13438158Y-15926531D02*
X13447682Y-15897960D01*
X13447682Y-15897960D02*
X13457206Y-15850341D01*
X13457206Y-15850341D02*
X13457206Y-15812246D01*
X13457206Y-15812246D02*
X13447682Y-15764627D01*
X13447682Y-15764627D02*
X13438158Y-15736055D01*
X13438158Y-15736055D02*
X13428634Y-15717008D01*
X13428634Y-15717008D02*
X13409587Y-15688436D01*
X13409587Y-15688436D02*
X13400063Y-15678912D01*
D11*
X8525000Y-16030000D02*
X8625000Y-16130000D01*
X8625000Y-16030000D02*
X8525000Y-16130000D01*
X8625000Y-16080000D02*
G75*
G03*
X8525000Y-16080000I-50000J0D01*
G01*
X8525000Y-16080000D02*
G75*
G03*
X8625000Y-16080000I50000J0D01*
G01*
D10*
X8990539Y-16171484D02*
X8876253Y-16171484D01*
X8933396Y-16171484D02*
X8933396Y-15971484D01*
X8933396Y-15971484D02*
X8914348Y-16000055D01*
X8914348Y-16000055D02*
X8895301Y-16019103D01*
X8895301Y-16019103D02*
X8876253Y-16028627D01*
X9076253Y-16152436D02*
X9085777Y-16161960D01*
X9085777Y-16161960D02*
X9076253Y-16171484D01*
X9076253Y-16171484D02*
X9066729Y-16161960D01*
X9066729Y-16161960D02*
X9076253Y-16152436D01*
X9076253Y-16152436D02*
X9076253Y-16171484D01*
X9209586Y-15971484D02*
X9228634Y-15971484D01*
X9228634Y-15971484D02*
X9247682Y-15981008D01*
X9247682Y-15981008D02*
X9257205Y-15990531D01*
X9257205Y-15990531D02*
X9266729Y-16009579D01*
X9266729Y-16009579D02*
X9276253Y-16047674D01*
X9276253Y-16047674D02*
X9276253Y-16095293D01*
X9276253Y-16095293D02*
X9266729Y-16133388D01*
X9266729Y-16133388D02*
X9257205Y-16152436D01*
X9257205Y-16152436D02*
X9247682Y-16161960D01*
X9247682Y-16161960D02*
X9228634Y-16171484D01*
X9228634Y-16171484D02*
X9209586Y-16171484D01*
X9209586Y-16171484D02*
X9190539Y-16161960D01*
X9190539Y-16161960D02*
X9181015Y-16152436D01*
X9181015Y-16152436D02*
X9171491Y-16133388D01*
X9171491Y-16133388D02*
X9161967Y-16095293D01*
X9161967Y-16095293D02*
X9161967Y-16047674D01*
X9161967Y-16047674D02*
X9171491Y-16009579D01*
X9171491Y-16009579D02*
X9181015Y-15990531D01*
X9181015Y-15990531D02*
X9190539Y-15981008D01*
X9190539Y-15981008D02*
X9209586Y-15971484D01*
X9400063Y-15971484D02*
X9419110Y-15971484D01*
X9419110Y-15971484D02*
X9438158Y-15981008D01*
X9438158Y-15981008D02*
X9447682Y-15990531D01*
X9447682Y-15990531D02*
X9457205Y-16009579D01*
X9457205Y-16009579D02*
X9466729Y-16047674D01*
X9466729Y-16047674D02*
X9466729Y-16095293D01*
X9466729Y-16095293D02*
X9457205Y-16133388D01*
X9457205Y-16133388D02*
X9447682Y-16152436D01*
X9447682Y-16152436D02*
X9438158Y-16161960D01*
X9438158Y-16161960D02*
X9419110Y-16171484D01*
X9419110Y-16171484D02*
X9400063Y-16171484D01*
X9400063Y-16171484D02*
X9381015Y-16161960D01*
X9381015Y-16161960D02*
X9371491Y-16152436D01*
X9371491Y-16152436D02*
X9361967Y-16133388D01*
X9361967Y-16133388D02*
X9352444Y-16095293D01*
X9352444Y-16095293D02*
X9352444Y-16047674D01*
X9352444Y-16047674D02*
X9361967Y-16009579D01*
X9361967Y-16009579D02*
X9371491Y-15990531D01*
X9371491Y-15990531D02*
X9381015Y-15981008D01*
X9381015Y-15981008D02*
X9400063Y-15971484D01*
X9590539Y-15971484D02*
X9609586Y-15971484D01*
X9609586Y-15971484D02*
X9628634Y-15981008D01*
X9628634Y-15981008D02*
X9638158Y-15990531D01*
X9638158Y-15990531D02*
X9647682Y-16009579D01*
X9647682Y-16009579D02*
X9657205Y-16047674D01*
X9657205Y-16047674D02*
X9657205Y-16095293D01*
X9657205Y-16095293D02*
X9647682Y-16133388D01*
X9647682Y-16133388D02*
X9638158Y-16152436D01*
X9638158Y-16152436D02*
X9628634Y-16161960D01*
X9628634Y-16161960D02*
X9609586Y-16171484D01*
X9609586Y-16171484D02*
X9590539Y-16171484D01*
X9590539Y-16171484D02*
X9571491Y-16161960D01*
X9571491Y-16161960D02*
X9561967Y-16152436D01*
X9561967Y-16152436D02*
X9552444Y-16133388D01*
X9552444Y-16133388D02*
X9542920Y-16095293D01*
X9542920Y-16095293D02*
X9542920Y-16047674D01*
X9542920Y-16047674D02*
X9552444Y-16009579D01*
X9552444Y-16009579D02*
X9561967Y-15990531D01*
X9561967Y-15990531D02*
X9571491Y-15981008D01*
X9571491Y-15981008D02*
X9590539Y-15971484D01*
X9742920Y-16171484D02*
X9742920Y-16038150D01*
X9742920Y-16057198D02*
X9752444Y-16047674D01*
X9752444Y-16047674D02*
X9771491Y-16038150D01*
X9771491Y-16038150D02*
X9800063Y-16038150D01*
X9800063Y-16038150D02*
X9819110Y-16047674D01*
X9819110Y-16047674D02*
X9828634Y-16066722D01*
X9828634Y-16066722D02*
X9828634Y-16171484D01*
X9828634Y-16066722D02*
X9838158Y-16047674D01*
X9838158Y-16047674D02*
X9857205Y-16038150D01*
X9857205Y-16038150D02*
X9885777Y-16038150D01*
X9885777Y-16038150D02*
X9904825Y-16047674D01*
X9904825Y-16047674D02*
X9914348Y-16066722D01*
X9914348Y-16066722D02*
X9914348Y-16171484D01*
X10009586Y-16171484D02*
X10009586Y-16038150D01*
X10009586Y-16057198D02*
X10019110Y-16047674D01*
X10019110Y-16047674D02*
X10038158Y-16038150D01*
X10038158Y-16038150D02*
X10066729Y-16038150D01*
X10066729Y-16038150D02*
X10085777Y-16047674D01*
X10085777Y-16047674D02*
X10095301Y-16066722D01*
X10095301Y-16066722D02*
X10095301Y-16171484D01*
X10095301Y-16066722D02*
X10104825Y-16047674D01*
X10104825Y-16047674D02*
X10123872Y-16038150D01*
X10123872Y-16038150D02*
X10152444Y-16038150D01*
X10152444Y-16038150D02*
X10171491Y-16047674D01*
X10171491Y-16047674D02*
X10181015Y-16066722D01*
X10181015Y-16066722D02*
X10181015Y-16171484D01*
X10571491Y-15961960D02*
X10400063Y-16219103D01*
X10828634Y-15971484D02*
X10847682Y-15971484D01*
X10847682Y-15971484D02*
X10866729Y-15981008D01*
X10866729Y-15981008D02*
X10876253Y-15990531D01*
X10876253Y-15990531D02*
X10885777Y-16009579D01*
X10885777Y-16009579D02*
X10895301Y-16047674D01*
X10895301Y-16047674D02*
X10895301Y-16095293D01*
X10895301Y-16095293D02*
X10885777Y-16133388D01*
X10885777Y-16133388D02*
X10876253Y-16152436D01*
X10876253Y-16152436D02*
X10866729Y-16161960D01*
X10866729Y-16161960D02*
X10847682Y-16171484D01*
X10847682Y-16171484D02*
X10828634Y-16171484D01*
X10828634Y-16171484D02*
X10809587Y-16161960D01*
X10809587Y-16161960D02*
X10800063Y-16152436D01*
X10800063Y-16152436D02*
X10790539Y-16133388D01*
X10790539Y-16133388D02*
X10781015Y-16095293D01*
X10781015Y-16095293D02*
X10781015Y-16047674D01*
X10781015Y-16047674D02*
X10790539Y-16009579D01*
X10790539Y-16009579D02*
X10800063Y-15990531D01*
X10800063Y-15990531D02*
X10809587Y-15981008D01*
X10809587Y-15981008D02*
X10828634Y-15971484D01*
X10981015Y-16152436D02*
X10990539Y-16161960D01*
X10990539Y-16161960D02*
X10981015Y-16171484D01*
X10981015Y-16171484D02*
X10971491Y-16161960D01*
X10971491Y-16161960D02*
X10981015Y-16152436D01*
X10981015Y-16152436D02*
X10981015Y-16171484D01*
X11114348Y-15971484D02*
X11133396Y-15971484D01*
X11133396Y-15971484D02*
X11152444Y-15981008D01*
X11152444Y-15981008D02*
X11161968Y-15990531D01*
X11161968Y-15990531D02*
X11171491Y-16009579D01*
X11171491Y-16009579D02*
X11181015Y-16047674D01*
X11181015Y-16047674D02*
X11181015Y-16095293D01*
X11181015Y-16095293D02*
X11171491Y-16133388D01*
X11171491Y-16133388D02*
X11161968Y-16152436D01*
X11161968Y-16152436D02*
X11152444Y-16161960D01*
X11152444Y-16161960D02*
X11133396Y-16171484D01*
X11133396Y-16171484D02*
X11114348Y-16171484D01*
X11114348Y-16171484D02*
X11095301Y-16161960D01*
X11095301Y-16161960D02*
X11085777Y-16152436D01*
X11085777Y-16152436D02*
X11076253Y-16133388D01*
X11076253Y-16133388D02*
X11066729Y-16095293D01*
X11066729Y-16095293D02*
X11066729Y-16047674D01*
X11066729Y-16047674D02*
X11076253Y-16009579D01*
X11076253Y-16009579D02*
X11085777Y-15990531D01*
X11085777Y-15990531D02*
X11095301Y-15981008D01*
X11095301Y-15981008D02*
X11114348Y-15971484D01*
X11247682Y-15971484D02*
X11371491Y-15971484D01*
X11371491Y-15971484D02*
X11304825Y-16047674D01*
X11304825Y-16047674D02*
X11333396Y-16047674D01*
X11333396Y-16047674D02*
X11352444Y-16057198D01*
X11352444Y-16057198D02*
X11361967Y-16066722D01*
X11361967Y-16066722D02*
X11371491Y-16085769D01*
X11371491Y-16085769D02*
X11371491Y-16133388D01*
X11371491Y-16133388D02*
X11361967Y-16152436D01*
X11361967Y-16152436D02*
X11352444Y-16161960D01*
X11352444Y-16161960D02*
X11333396Y-16171484D01*
X11333396Y-16171484D02*
X11276253Y-16171484D01*
X11276253Y-16171484D02*
X11257206Y-16161960D01*
X11257206Y-16161960D02*
X11247682Y-16152436D01*
X11466729Y-16171484D02*
X11504825Y-16171484D01*
X11504825Y-16171484D02*
X11523872Y-16161960D01*
X11523872Y-16161960D02*
X11533396Y-16152436D01*
X11533396Y-16152436D02*
X11552444Y-16123865D01*
X11552444Y-16123865D02*
X11561967Y-16085769D01*
X11561967Y-16085769D02*
X11561967Y-16009579D01*
X11561967Y-16009579D02*
X11552444Y-15990531D01*
X11552444Y-15990531D02*
X11542920Y-15981008D01*
X11542920Y-15981008D02*
X11523872Y-15971484D01*
X11523872Y-15971484D02*
X11485777Y-15971484D01*
X11485777Y-15971484D02*
X11466729Y-15981008D01*
X11466729Y-15981008D02*
X11457206Y-15990531D01*
X11457206Y-15990531D02*
X11447682Y-16009579D01*
X11447682Y-16009579D02*
X11447682Y-16057198D01*
X11447682Y-16057198D02*
X11457206Y-16076246D01*
X11457206Y-16076246D02*
X11466729Y-16085769D01*
X11466729Y-16085769D02*
X11485777Y-16095293D01*
X11485777Y-16095293D02*
X11523872Y-16095293D01*
X11523872Y-16095293D02*
X11542920Y-16085769D01*
X11542920Y-16085769D02*
X11552444Y-16076246D01*
X11552444Y-16076246D02*
X11561967Y-16057198D01*
X11733396Y-16038150D02*
X11733396Y-16171484D01*
X11685777Y-15961960D02*
X11638158Y-16104817D01*
X11638158Y-16104817D02*
X11761967Y-16104817D01*
X11828634Y-15971484D02*
X11828634Y-16009579D01*
X11904825Y-15971484D02*
X11904825Y-16009579D01*
X12200063Y-16247674D02*
X12190539Y-16238150D01*
X12190539Y-16238150D02*
X12171491Y-16209579D01*
X12171491Y-16209579D02*
X12161968Y-16190531D01*
X12161968Y-16190531D02*
X12152444Y-16161960D01*
X12152444Y-16161960D02*
X12142920Y-16114341D01*
X12142920Y-16114341D02*
X12142920Y-16076246D01*
X12142920Y-16076246D02*
X12152444Y-16028627D01*
X12152444Y-16028627D02*
X12161968Y-16000055D01*
X12161968Y-16000055D02*
X12171491Y-15981008D01*
X12171491Y-15981008D02*
X12190539Y-15952436D01*
X12190539Y-15952436D02*
X12200063Y-15942912D01*
X12361968Y-16038150D02*
X12361968Y-16171484D01*
X12314348Y-15961960D02*
X12266729Y-16104817D01*
X12266729Y-16104817D02*
X12390539Y-16104817D01*
X12619110Y-16171484D02*
X12619110Y-15971484D01*
X12704825Y-16171484D02*
X12704825Y-16066722D01*
X12704825Y-16066722D02*
X12695301Y-16047674D01*
X12695301Y-16047674D02*
X12676253Y-16038150D01*
X12676253Y-16038150D02*
X12647682Y-16038150D01*
X12647682Y-16038150D02*
X12628634Y-16047674D01*
X12628634Y-16047674D02*
X12619110Y-16057198D01*
X12828634Y-16171484D02*
X12809587Y-16161960D01*
X12809587Y-16161960D02*
X12800063Y-16152436D01*
X12800063Y-16152436D02*
X12790539Y-16133388D01*
X12790539Y-16133388D02*
X12790539Y-16076246D01*
X12790539Y-16076246D02*
X12800063Y-16057198D01*
X12800063Y-16057198D02*
X12809587Y-16047674D01*
X12809587Y-16047674D02*
X12828634Y-16038150D01*
X12828634Y-16038150D02*
X12857206Y-16038150D01*
X12857206Y-16038150D02*
X12876253Y-16047674D01*
X12876253Y-16047674D02*
X12885777Y-16057198D01*
X12885777Y-16057198D02*
X12895301Y-16076246D01*
X12895301Y-16076246D02*
X12895301Y-16133388D01*
X12895301Y-16133388D02*
X12885777Y-16152436D01*
X12885777Y-16152436D02*
X12876253Y-16161960D01*
X12876253Y-16161960D02*
X12857206Y-16171484D01*
X12857206Y-16171484D02*
X12828634Y-16171484D01*
X13009587Y-16171484D02*
X12990539Y-16161960D01*
X12990539Y-16161960D02*
X12981015Y-16142912D01*
X12981015Y-16142912D02*
X12981015Y-15971484D01*
X13161968Y-16161960D02*
X13142920Y-16171484D01*
X13142920Y-16171484D02*
X13104825Y-16171484D01*
X13104825Y-16171484D02*
X13085777Y-16161960D01*
X13085777Y-16161960D02*
X13076253Y-16142912D01*
X13076253Y-16142912D02*
X13076253Y-16066722D01*
X13076253Y-16066722D02*
X13085777Y-16047674D01*
X13085777Y-16047674D02*
X13104825Y-16038150D01*
X13104825Y-16038150D02*
X13142920Y-16038150D01*
X13142920Y-16038150D02*
X13161968Y-16047674D01*
X13161968Y-16047674D02*
X13171491Y-16066722D01*
X13171491Y-16066722D02*
X13171491Y-16085769D01*
X13171491Y-16085769D02*
X13076253Y-16104817D01*
X13247682Y-16161960D02*
X13266730Y-16171484D01*
X13266730Y-16171484D02*
X13304825Y-16171484D01*
X13304825Y-16171484D02*
X13323872Y-16161960D01*
X13323872Y-16161960D02*
X13333396Y-16142912D01*
X13333396Y-16142912D02*
X13333396Y-16133388D01*
X13333396Y-16133388D02*
X13323872Y-16114341D01*
X13323872Y-16114341D02*
X13304825Y-16104817D01*
X13304825Y-16104817D02*
X13276253Y-16104817D01*
X13276253Y-16104817D02*
X13257206Y-16095293D01*
X13257206Y-16095293D02*
X13247682Y-16076246D01*
X13247682Y-16076246D02*
X13247682Y-16066722D01*
X13247682Y-16066722D02*
X13257206Y-16047674D01*
X13257206Y-16047674D02*
X13276253Y-16038150D01*
X13276253Y-16038150D02*
X13304825Y-16038150D01*
X13304825Y-16038150D02*
X13323872Y-16047674D01*
X13400063Y-16247674D02*
X13409587Y-16238150D01*
X13409587Y-16238150D02*
X13428634Y-16209579D01*
X13428634Y-16209579D02*
X13438158Y-16190531D01*
X13438158Y-16190531D02*
X13447682Y-16161960D01*
X13447682Y-16161960D02*
X13457206Y-16114341D01*
X13457206Y-16114341D02*
X13457206Y-16076246D01*
X13457206Y-16076246D02*
X13447682Y-16028627D01*
X13447682Y-16028627D02*
X13438158Y-16000055D01*
X13438158Y-16000055D02*
X13428634Y-15981008D01*
X13428634Y-15981008D02*
X13409587Y-15952436D01*
X13409587Y-15952436D02*
X13400063Y-15942912D01*
X8425000Y-16244000D02*
X8625000Y-16444000D01*
X8625000Y-16244000D02*
X8425000Y-16444000D01*
X8525000Y-16244000D02*
X8525000Y-16444000D01*
X8425000Y-16344000D02*
X8625000Y-16344000D01*
X8876253Y-16254531D02*
X8885777Y-16245008D01*
X8885777Y-16245008D02*
X8904824Y-16235484D01*
X8904824Y-16235484D02*
X8952444Y-16235484D01*
X8952444Y-16235484D02*
X8971491Y-16245008D01*
X8971491Y-16245008D02*
X8981015Y-16254531D01*
X8981015Y-16254531D02*
X8990539Y-16273579D01*
X8990539Y-16273579D02*
X8990539Y-16292627D01*
X8990539Y-16292627D02*
X8981015Y-16321198D01*
X8981015Y-16321198D02*
X8866729Y-16435484D01*
X8866729Y-16435484D02*
X8990539Y-16435484D01*
X9076253Y-16416436D02*
X9085777Y-16425960D01*
X9085777Y-16425960D02*
X9076253Y-16435484D01*
X9076253Y-16435484D02*
X9066729Y-16425960D01*
X9066729Y-16425960D02*
X9076253Y-16416436D01*
X9076253Y-16416436D02*
X9076253Y-16435484D01*
X9257205Y-16302150D02*
X9257205Y-16435484D01*
X9209586Y-16225960D02*
X9161967Y-16368817D01*
X9161967Y-16368817D02*
X9285777Y-16368817D01*
X9400063Y-16235484D02*
X9419110Y-16235484D01*
X9419110Y-16235484D02*
X9438158Y-16245008D01*
X9438158Y-16245008D02*
X9447682Y-16254531D01*
X9447682Y-16254531D02*
X9457205Y-16273579D01*
X9457205Y-16273579D02*
X9466729Y-16311674D01*
X9466729Y-16311674D02*
X9466729Y-16359293D01*
X9466729Y-16359293D02*
X9457205Y-16397388D01*
X9457205Y-16397388D02*
X9447682Y-16416436D01*
X9447682Y-16416436D02*
X9438158Y-16425960D01*
X9438158Y-16425960D02*
X9419110Y-16435484D01*
X9419110Y-16435484D02*
X9400063Y-16435484D01*
X9400063Y-16435484D02*
X9381015Y-16425960D01*
X9381015Y-16425960D02*
X9371491Y-16416436D01*
X9371491Y-16416436D02*
X9361967Y-16397388D01*
X9361967Y-16397388D02*
X9352444Y-16359293D01*
X9352444Y-16359293D02*
X9352444Y-16311674D01*
X9352444Y-16311674D02*
X9361967Y-16273579D01*
X9361967Y-16273579D02*
X9371491Y-16254531D01*
X9371491Y-16254531D02*
X9381015Y-16245008D01*
X9381015Y-16245008D02*
X9400063Y-16235484D01*
X9590539Y-16235484D02*
X9609586Y-16235484D01*
X9609586Y-16235484D02*
X9628634Y-16245008D01*
X9628634Y-16245008D02*
X9638158Y-16254531D01*
X9638158Y-16254531D02*
X9647682Y-16273579D01*
X9647682Y-16273579D02*
X9657205Y-16311674D01*
X9657205Y-16311674D02*
X9657205Y-16359293D01*
X9657205Y-16359293D02*
X9647682Y-16397388D01*
X9647682Y-16397388D02*
X9638158Y-16416436D01*
X9638158Y-16416436D02*
X9628634Y-16425960D01*
X9628634Y-16425960D02*
X9609586Y-16435484D01*
X9609586Y-16435484D02*
X9590539Y-16435484D01*
X9590539Y-16435484D02*
X9571491Y-16425960D01*
X9571491Y-16425960D02*
X9561967Y-16416436D01*
X9561967Y-16416436D02*
X9552444Y-16397388D01*
X9552444Y-16397388D02*
X9542920Y-16359293D01*
X9542920Y-16359293D02*
X9542920Y-16311674D01*
X9542920Y-16311674D02*
X9552444Y-16273579D01*
X9552444Y-16273579D02*
X9561967Y-16254531D01*
X9561967Y-16254531D02*
X9571491Y-16245008D01*
X9571491Y-16245008D02*
X9590539Y-16235484D01*
X9742920Y-16435484D02*
X9742920Y-16302150D01*
X9742920Y-16321198D02*
X9752444Y-16311674D01*
X9752444Y-16311674D02*
X9771491Y-16302150D01*
X9771491Y-16302150D02*
X9800063Y-16302150D01*
X9800063Y-16302150D02*
X9819110Y-16311674D01*
X9819110Y-16311674D02*
X9828634Y-16330722D01*
X9828634Y-16330722D02*
X9828634Y-16435484D01*
X9828634Y-16330722D02*
X9838158Y-16311674D01*
X9838158Y-16311674D02*
X9857205Y-16302150D01*
X9857205Y-16302150D02*
X9885777Y-16302150D01*
X9885777Y-16302150D02*
X9904825Y-16311674D01*
X9904825Y-16311674D02*
X9914348Y-16330722D01*
X9914348Y-16330722D02*
X9914348Y-16435484D01*
X10009586Y-16435484D02*
X10009586Y-16302150D01*
X10009586Y-16321198D02*
X10019110Y-16311674D01*
X10019110Y-16311674D02*
X10038158Y-16302150D01*
X10038158Y-16302150D02*
X10066729Y-16302150D01*
X10066729Y-16302150D02*
X10085777Y-16311674D01*
X10085777Y-16311674D02*
X10095301Y-16330722D01*
X10095301Y-16330722D02*
X10095301Y-16435484D01*
X10095301Y-16330722D02*
X10104825Y-16311674D01*
X10104825Y-16311674D02*
X10123872Y-16302150D01*
X10123872Y-16302150D02*
X10152444Y-16302150D01*
X10152444Y-16302150D02*
X10171491Y-16311674D01*
X10171491Y-16311674D02*
X10181015Y-16330722D01*
X10181015Y-16330722D02*
X10181015Y-16435484D01*
X10571491Y-16225960D02*
X10400063Y-16483103D01*
X10828634Y-16235484D02*
X10847682Y-16235484D01*
X10847682Y-16235484D02*
X10866729Y-16245008D01*
X10866729Y-16245008D02*
X10876253Y-16254531D01*
X10876253Y-16254531D02*
X10885777Y-16273579D01*
X10885777Y-16273579D02*
X10895301Y-16311674D01*
X10895301Y-16311674D02*
X10895301Y-16359293D01*
X10895301Y-16359293D02*
X10885777Y-16397388D01*
X10885777Y-16397388D02*
X10876253Y-16416436D01*
X10876253Y-16416436D02*
X10866729Y-16425960D01*
X10866729Y-16425960D02*
X10847682Y-16435484D01*
X10847682Y-16435484D02*
X10828634Y-16435484D01*
X10828634Y-16435484D02*
X10809587Y-16425960D01*
X10809587Y-16425960D02*
X10800063Y-16416436D01*
X10800063Y-16416436D02*
X10790539Y-16397388D01*
X10790539Y-16397388D02*
X10781015Y-16359293D01*
X10781015Y-16359293D02*
X10781015Y-16311674D01*
X10781015Y-16311674D02*
X10790539Y-16273579D01*
X10790539Y-16273579D02*
X10800063Y-16254531D01*
X10800063Y-16254531D02*
X10809587Y-16245008D01*
X10809587Y-16245008D02*
X10828634Y-16235484D01*
X10981015Y-16416436D02*
X10990539Y-16425960D01*
X10990539Y-16425960D02*
X10981015Y-16435484D01*
X10981015Y-16435484D02*
X10971491Y-16425960D01*
X10971491Y-16425960D02*
X10981015Y-16416436D01*
X10981015Y-16416436D02*
X10981015Y-16435484D01*
X11114348Y-16235484D02*
X11133396Y-16235484D01*
X11133396Y-16235484D02*
X11152444Y-16245008D01*
X11152444Y-16245008D02*
X11161968Y-16254531D01*
X11161968Y-16254531D02*
X11171491Y-16273579D01*
X11171491Y-16273579D02*
X11181015Y-16311674D01*
X11181015Y-16311674D02*
X11181015Y-16359293D01*
X11181015Y-16359293D02*
X11171491Y-16397388D01*
X11171491Y-16397388D02*
X11161968Y-16416436D01*
X11161968Y-16416436D02*
X11152444Y-16425960D01*
X11152444Y-16425960D02*
X11133396Y-16435484D01*
X11133396Y-16435484D02*
X11114348Y-16435484D01*
X11114348Y-16435484D02*
X11095301Y-16425960D01*
X11095301Y-16425960D02*
X11085777Y-16416436D01*
X11085777Y-16416436D02*
X11076253Y-16397388D01*
X11076253Y-16397388D02*
X11066729Y-16359293D01*
X11066729Y-16359293D02*
X11066729Y-16311674D01*
X11066729Y-16311674D02*
X11076253Y-16273579D01*
X11076253Y-16273579D02*
X11085777Y-16254531D01*
X11085777Y-16254531D02*
X11095301Y-16245008D01*
X11095301Y-16245008D02*
X11114348Y-16235484D01*
X11276253Y-16435484D02*
X11314348Y-16435484D01*
X11314348Y-16435484D02*
X11333396Y-16425960D01*
X11333396Y-16425960D02*
X11342920Y-16416436D01*
X11342920Y-16416436D02*
X11361967Y-16387865D01*
X11361967Y-16387865D02*
X11371491Y-16349769D01*
X11371491Y-16349769D02*
X11371491Y-16273579D01*
X11371491Y-16273579D02*
X11361967Y-16254531D01*
X11361967Y-16254531D02*
X11352444Y-16245008D01*
X11352444Y-16245008D02*
X11333396Y-16235484D01*
X11333396Y-16235484D02*
X11295301Y-16235484D01*
X11295301Y-16235484D02*
X11276253Y-16245008D01*
X11276253Y-16245008D02*
X11266729Y-16254531D01*
X11266729Y-16254531D02*
X11257206Y-16273579D01*
X11257206Y-16273579D02*
X11257206Y-16321198D01*
X11257206Y-16321198D02*
X11266729Y-16340246D01*
X11266729Y-16340246D02*
X11276253Y-16349769D01*
X11276253Y-16349769D02*
X11295301Y-16359293D01*
X11295301Y-16359293D02*
X11333396Y-16359293D01*
X11333396Y-16359293D02*
X11352444Y-16349769D01*
X11352444Y-16349769D02*
X11361967Y-16340246D01*
X11361967Y-16340246D02*
X11371491Y-16321198D01*
X11542920Y-16302150D02*
X11542920Y-16435484D01*
X11495301Y-16225960D02*
X11447682Y-16368817D01*
X11447682Y-16368817D02*
X11571491Y-16368817D01*
X11742920Y-16235484D02*
X11647682Y-16235484D01*
X11647682Y-16235484D02*
X11638158Y-16330722D01*
X11638158Y-16330722D02*
X11647682Y-16321198D01*
X11647682Y-16321198D02*
X11666729Y-16311674D01*
X11666729Y-16311674D02*
X11714348Y-16311674D01*
X11714348Y-16311674D02*
X11733396Y-16321198D01*
X11733396Y-16321198D02*
X11742920Y-16330722D01*
X11742920Y-16330722D02*
X11752444Y-16349769D01*
X11752444Y-16349769D02*
X11752444Y-16397388D01*
X11752444Y-16397388D02*
X11742920Y-16416436D01*
X11742920Y-16416436D02*
X11733396Y-16425960D01*
X11733396Y-16425960D02*
X11714348Y-16435484D01*
X11714348Y-16435484D02*
X11666729Y-16435484D01*
X11666729Y-16435484D02*
X11647682Y-16425960D01*
X11647682Y-16425960D02*
X11638158Y-16416436D01*
X11828634Y-16235484D02*
X11828634Y-16273579D01*
X11904825Y-16235484D02*
X11904825Y-16273579D01*
X12200063Y-16511674D02*
X12190539Y-16502150D01*
X12190539Y-16502150D02*
X12171491Y-16473579D01*
X12171491Y-16473579D02*
X12161968Y-16454531D01*
X12161968Y-16454531D02*
X12152444Y-16425960D01*
X12152444Y-16425960D02*
X12142920Y-16378341D01*
X12142920Y-16378341D02*
X12142920Y-16340246D01*
X12142920Y-16340246D02*
X12152444Y-16292627D01*
X12152444Y-16292627D02*
X12161968Y-16264055D01*
X12161968Y-16264055D02*
X12171491Y-16245008D01*
X12171491Y-16245008D02*
X12190539Y-16216436D01*
X12190539Y-16216436D02*
X12200063Y-16206912D01*
X12381015Y-16435484D02*
X12266729Y-16435484D01*
X12323872Y-16435484D02*
X12323872Y-16235484D01*
X12323872Y-16235484D02*
X12304825Y-16264055D01*
X12304825Y-16264055D02*
X12285777Y-16283103D01*
X12285777Y-16283103D02*
X12266729Y-16292627D01*
X12619110Y-16435484D02*
X12619110Y-16235484D01*
X12704825Y-16435484D02*
X12704825Y-16330722D01*
X12704825Y-16330722D02*
X12695301Y-16311674D01*
X12695301Y-16311674D02*
X12676253Y-16302150D01*
X12676253Y-16302150D02*
X12647682Y-16302150D01*
X12647682Y-16302150D02*
X12628634Y-16311674D01*
X12628634Y-16311674D02*
X12619110Y-16321198D01*
X12828634Y-16435484D02*
X12809587Y-16425960D01*
X12809587Y-16425960D02*
X12800063Y-16416436D01*
X12800063Y-16416436D02*
X12790539Y-16397388D01*
X12790539Y-16397388D02*
X12790539Y-16340246D01*
X12790539Y-16340246D02*
X12800063Y-16321198D01*
X12800063Y-16321198D02*
X12809587Y-16311674D01*
X12809587Y-16311674D02*
X12828634Y-16302150D01*
X12828634Y-16302150D02*
X12857206Y-16302150D01*
X12857206Y-16302150D02*
X12876253Y-16311674D01*
X12876253Y-16311674D02*
X12885777Y-16321198D01*
X12885777Y-16321198D02*
X12895301Y-16340246D01*
X12895301Y-16340246D02*
X12895301Y-16397388D01*
X12895301Y-16397388D02*
X12885777Y-16416436D01*
X12885777Y-16416436D02*
X12876253Y-16425960D01*
X12876253Y-16425960D02*
X12857206Y-16435484D01*
X12857206Y-16435484D02*
X12828634Y-16435484D01*
X13009587Y-16435484D02*
X12990539Y-16425960D01*
X12990539Y-16425960D02*
X12981015Y-16406912D01*
X12981015Y-16406912D02*
X12981015Y-16235484D01*
X13161968Y-16425960D02*
X13142920Y-16435484D01*
X13142920Y-16435484D02*
X13104825Y-16435484D01*
X13104825Y-16435484D02*
X13085777Y-16425960D01*
X13085777Y-16425960D02*
X13076253Y-16406912D01*
X13076253Y-16406912D02*
X13076253Y-16330722D01*
X13076253Y-16330722D02*
X13085777Y-16311674D01*
X13085777Y-16311674D02*
X13104825Y-16302150D01*
X13104825Y-16302150D02*
X13142920Y-16302150D01*
X13142920Y-16302150D02*
X13161968Y-16311674D01*
X13161968Y-16311674D02*
X13171491Y-16330722D01*
X13171491Y-16330722D02*
X13171491Y-16349769D01*
X13171491Y-16349769D02*
X13076253Y-16368817D01*
X13238158Y-16511674D02*
X13247682Y-16502150D01*
X13247682Y-16502150D02*
X13266730Y-16473579D01*
X13266730Y-16473579D02*
X13276253Y-16454531D01*
X13276253Y-16454531D02*
X13285777Y-16425960D01*
X13285777Y-16425960D02*
X13295301Y-16378341D01*
X13295301Y-16378341D02*
X13295301Y-16340246D01*
X13295301Y-16340246D02*
X13285777Y-16292627D01*
X13285777Y-16292627D02*
X13276253Y-16264055D01*
X13276253Y-16264055D02*
X13266730Y-16245008D01*
X13266730Y-16245008D02*
X13247682Y-16216436D01*
X13247682Y-16216436D02*
X13238158Y-16206912D01*
M02*
