%TF.GenerationSoftware,KiCad,Pcbnew,7.0.10-7.0.10~ubuntu22.04.1*%
%TF.CreationDate,2024-04-24T18:12:53-04:00*%
%TF.ProjectId,little_red_rover,6c697474-6c65-45f7-9265-645f726f7665,rev?*%
%TF.SameCoordinates,Original*%
%TF.FileFunction,Drillmap*%
%TF.FilePolarity,Positive*%
%FSLAX45Y45*%
G04 Gerber Fmt 4.5, Leading zero omitted, Abs format (unit mm)*
G04 Created by KiCad (PCBNEW 7.0.10-7.0.10~ubuntu22.04.1) date 2024-04-24 18:12:53*
%MOMM*%
%LPD*%
G01*
G04 APERTURE LIST*
%ADD10C,0.200000*%
%ADD11C,0.100000*%
%ADD12C,0.185000*%
%ADD13C,0.240000*%
G04 APERTURE END LIST*
D10*
X18402481Y-13700000D02*
X17342481Y-13700000D01*
X12752480Y-14100000D02*
X21372481Y-14100000D01*
X9150814Y-9100000D02*
X8740000Y-9100000D01*
X21372481Y-6290000D02*
X20872481Y-6290000D01*
X8700814Y-9300000D02*
G75*
G03*
X8700814Y-10680000I4051666J-690000D01*
G01*
X17342481Y-8140000D02*
X18402481Y-8140000D01*
X17342481Y-11610000D02*
X18402481Y-11610000D01*
X21372481Y-6080000D02*
X20872481Y-6080000D01*
X18402481Y-6050000D02*
X17342481Y-6050000D01*
X8740000Y-10880000D02*
X9150814Y-10880000D01*
X17342481Y-13700000D02*
X17342481Y-13930000D01*
X20872481Y-13690000D02*
X20872481Y-13900000D01*
X15930842Y-10490000D02*
X14616633Y-11732043D01*
X12752480Y-5880000D02*
X21372481Y-5880000D01*
X9107210Y-10680000D02*
X8700814Y-10680000D01*
X13986473Y-8355141D02*
G75*
G03*
X13986473Y-11624859I3166007J-1634859D01*
G01*
X21372481Y-11640000D02*
X20872481Y-11640000D01*
X18402481Y-11610000D02*
X18402481Y-11840000D01*
X9010542Y-11690000D02*
G75*
G03*
X12752480Y-14100000I3741938J1700000D01*
G01*
X21372481Y-11850000D02*
X20872481Y-11850000D01*
X20872481Y-13900000D02*
X21372481Y-13900000D01*
X18402481Y-8370000D02*
X18402481Y-8140000D01*
X9359237Y-11490000D02*
G75*
G03*
X9454891Y-11690000I3393283J1500020D01*
G01*
X18402481Y-13700000D02*
X18402481Y-13930000D01*
X17342481Y-11610000D02*
X17342481Y-11840000D01*
X8925981Y-11490000D02*
X9359237Y-11490000D01*
X18402481Y-6280000D02*
X18402481Y-6050000D01*
X21372481Y-14100000D02*
X21372481Y-13900000D01*
X9359237Y-8490000D02*
X8925981Y-8490000D01*
X20872481Y-11640000D02*
X20872481Y-11850000D01*
X12752480Y-5880000D02*
G75*
G03*
X9010543Y-8290000I-1J-4110000D01*
G01*
X21372481Y-13690000D02*
X20872481Y-13690000D01*
X21372481Y-8130000D02*
X21372481Y-6290000D01*
X13986466Y-11624862D02*
G75*
G03*
X14616633Y-11732043I355414J183532D01*
G01*
X15930842Y-10490000D02*
G75*
G03*
X15930842Y-9490000I1221638J500000D01*
G01*
X17342481Y-6280000D02*
X17342481Y-6050000D01*
X8739999Y-10880000D02*
G75*
G03*
X8925981Y-11490000I4012401J889980D01*
G01*
X8925982Y-8490000D02*
G75*
G03*
X8740000Y-9100000I3826548J-1500020D01*
G01*
X9454891Y-8290000D02*
G75*
G03*
X9359237Y-8490000I3297629J-1700020D01*
G01*
X9107209Y-10680000D02*
G75*
G03*
X9150814Y-10880000I3645341J690020D01*
G01*
X9010543Y-8290000D02*
X9454891Y-8290000D01*
X21372481Y-8130000D02*
X20872481Y-8130000D01*
X18402481Y-13930000D02*
X17342481Y-13930000D01*
X9010543Y-11690000D02*
X9454891Y-11690000D01*
X20872481Y-8130000D02*
X20872481Y-8340000D01*
X17342481Y-8370000D02*
X18402481Y-8370000D01*
X20872481Y-6080000D02*
X20872481Y-6290000D01*
X9150815Y-9100000D02*
G75*
G03*
X9107210Y-9300000I3601735J-890020D01*
G01*
X20872481Y-8340000D02*
X21372481Y-8340000D01*
X14616628Y-8247963D02*
G75*
G03*
X13986473Y-8355141I-274748J-290707D01*
G01*
X15930842Y-9490000D02*
X14616633Y-8247957D01*
X17342481Y-8370000D02*
X17342481Y-8140000D01*
X17342481Y-11840000D02*
X18402481Y-11840000D01*
X21372481Y-6080000D02*
X21372481Y-5880000D01*
X9107210Y-9300000D02*
X8700814Y-9300000D01*
X18402481Y-6280000D02*
X17342481Y-6280000D01*
X21372481Y-11640000D02*
X21372481Y-8340000D01*
X21372481Y-13690000D02*
X21372481Y-11850000D01*
D11*
X11037250Y-11789757D02*
X11057250Y-11809757D01*
X11057250Y-11789757D02*
X11037250Y-11809757D01*
X11037250Y-11907757D02*
X11057250Y-11927757D01*
X11057250Y-11907757D02*
X11037250Y-11927757D01*
X11155250Y-11789757D02*
X11175250Y-11809757D01*
X11175250Y-11789757D02*
X11155250Y-11809757D01*
X11155250Y-11907757D02*
X11175250Y-11927757D01*
X11175250Y-11907757D02*
X11155250Y-11927757D01*
X15833541Y-11048249D02*
G75*
G03*
X15808541Y-11048249I-12500J0D01*
G01*
X15808541Y-11048249D02*
G75*
G03*
X15833541Y-11048249I12500J0D01*
G01*
X15844754Y-8877609D02*
G75*
G03*
X15819754Y-8877609I-12500J0D01*
G01*
X15819754Y-8877609D02*
G75*
G03*
X15844754Y-8877609I12500J0D01*
G01*
X15904251Y-11118959D02*
G75*
G03*
X15879251Y-11118959I-12500J0D01*
G01*
X15879251Y-11118959D02*
G75*
G03*
X15904251Y-11118959I12500J0D01*
G01*
X15915465Y-8806899D02*
G75*
G03*
X15890465Y-8806899I-12500J0D01*
G01*
X15890465Y-8806899D02*
G75*
G03*
X15915465Y-8806899I12500J0D01*
G01*
X10457250Y-12109757D02*
X10457250Y-12149757D01*
X10437250Y-12129757D02*
X10477250Y-12129757D01*
X10660000Y-11720000D02*
X10660000Y-11760000D01*
X10640000Y-11740000D02*
X10680000Y-11740000D01*
X10857250Y-12399757D02*
X10857250Y-12439757D01*
X10837250Y-12419757D02*
X10877250Y-12419757D01*
X10860000Y-11320000D02*
X10860000Y-11360000D01*
X10840000Y-11340000D02*
X10880000Y-11340000D01*
X11057250Y-12399757D02*
X11057250Y-12439757D01*
X11037250Y-12419757D02*
X11077250Y-12419757D01*
X11060000Y-11320000D02*
X11060000Y-11360000D01*
X11040000Y-11340000D02*
X11080000Y-11340000D01*
X11060000Y-11500000D02*
X11060000Y-11540000D01*
X11040000Y-11520000D02*
X11080000Y-11520000D01*
X11060000Y-12230000D02*
X11060000Y-12270000D01*
X11040000Y-12250000D02*
X11080000Y-12250000D01*
X11254123Y-11936257D02*
X11254123Y-11976257D01*
X11234123Y-11956257D02*
X11274123Y-11956257D01*
X11546250Y-13433750D02*
X11546250Y-13473750D01*
X11526250Y-13453750D02*
X11566250Y-13453750D01*
X11680000Y-12880000D02*
X11680000Y-12920000D01*
X11660000Y-12900000D02*
X11700000Y-12900000D01*
X11680000Y-13040000D02*
X11680000Y-13080000D01*
X11660000Y-13060000D02*
X11700000Y-13060000D01*
X11820000Y-12600000D02*
X11820000Y-12640000D01*
X11800000Y-12620000D02*
X11840000Y-12620000D01*
X11847250Y-12409757D02*
X11847250Y-12449757D01*
X11827250Y-12429757D02*
X11867250Y-12429757D01*
X12023640Y-12896360D02*
X12023640Y-12936360D01*
X12003640Y-12916360D02*
X12043640Y-12916360D01*
X12480000Y-13160000D02*
X12480000Y-13200000D01*
X12460000Y-13180000D02*
X12500000Y-13180000D01*
X12500000Y-10640000D02*
X12500000Y-10680000D01*
X12480000Y-10660000D02*
X12520000Y-10660000D01*
X13200000Y-9780000D02*
X13200000Y-9820000D01*
X13180000Y-9800000D02*
X13220000Y-9800000D01*
X13700000Y-11480000D02*
X13700000Y-11520000D01*
X13680000Y-11500000D02*
X13720000Y-11500000D01*
X13980000Y-13160000D02*
X13980000Y-13200000D01*
X13960000Y-13180000D02*
X14000000Y-13180000D01*
X14237500Y-6092430D02*
X14237500Y-6132430D01*
X14217500Y-6112430D02*
X14257500Y-6112430D01*
X14300000Y-13580000D02*
X14300000Y-13620000D01*
X14280000Y-13600000D02*
X14320000Y-13600000D01*
X14304399Y-13469500D02*
X14304399Y-13509500D01*
X14284399Y-13489500D02*
X14324399Y-13489500D01*
X14487500Y-6092431D02*
X14487500Y-6132431D01*
X14467500Y-6112431D02*
X14507500Y-6112431D01*
X15464634Y-11671806D02*
X15464634Y-11711806D01*
X15444634Y-11691806D02*
X15484634Y-11691806D01*
X15560000Y-11060000D02*
X15560000Y-11100000D01*
X15540000Y-11080000D02*
X15580000Y-11080000D01*
X15680000Y-10920000D02*
X15680000Y-10960000D01*
X15660000Y-10940000D02*
X15700000Y-10940000D01*
X15712325Y-11061204D02*
X15712325Y-11101204D01*
X15692325Y-11081204D02*
X15732325Y-11081204D01*
X15860000Y-10920000D02*
X15860000Y-10960000D01*
X15840000Y-10940000D02*
X15880000Y-10940000D01*
X15870009Y-8678183D02*
X15870009Y-8718183D01*
X15850009Y-8698183D02*
X15890009Y-8698183D01*
X15880000Y-8500000D02*
X15880000Y-8540000D01*
X15860000Y-8520000D02*
X15900000Y-8520000D01*
X15880000Y-11340000D02*
X15880000Y-11380000D01*
X15860000Y-11360000D02*
X15900000Y-11360000D01*
X15930354Y-9020000D02*
X15930354Y-9060000D01*
X15910354Y-9040000D02*
X15950354Y-9040000D01*
X16000988Y-11219012D02*
X16000988Y-11259012D01*
X15980988Y-11239012D02*
X16020988Y-11239012D01*
X16020000Y-8620000D02*
X16020000Y-8660000D01*
X16000000Y-8640000D02*
X16040000Y-8640000D01*
X16079227Y-8914856D02*
X16079227Y-8954856D01*
X16059227Y-8934856D02*
X16099227Y-8934856D01*
X16240988Y-8619012D02*
X16240988Y-8659012D01*
X16220988Y-8639012D02*
X16260988Y-8639012D01*
X16267718Y-8832430D02*
X16267718Y-8872430D01*
X16247718Y-8852430D02*
X16287718Y-8852430D01*
X16500000Y-7380000D02*
X16500000Y-7420000D01*
X16480000Y-7400000D02*
X16520000Y-7400000D01*
X17300000Y-12000000D02*
X17300000Y-12040000D01*
X17280000Y-12020000D02*
X17320000Y-12020000D01*
X18400000Y-9080000D02*
X18400000Y-9120000D01*
X18380000Y-9100000D02*
X18420000Y-9100000D01*
X18600000Y-8500000D02*
X18600000Y-8540000D01*
X18580000Y-8520000D02*
X18620000Y-8520000D01*
X18600000Y-11340000D02*
X18600000Y-11380000D01*
X18580000Y-11360000D02*
X18620000Y-11360000D01*
X18829584Y-10730000D02*
X18829584Y-10770000D01*
X18809584Y-10750000D02*
X18849584Y-10750000D01*
X18913749Y-10580001D02*
X18913749Y-10620001D01*
X18893749Y-10600001D02*
X18933749Y-10600001D01*
X18920000Y-10420000D02*
X18920000Y-10460000D01*
X18900000Y-10440000D02*
X18940000Y-10440000D01*
X18940000Y-9697000D02*
X18940000Y-9737000D01*
X18920000Y-9717000D02*
X18960000Y-9717000D01*
X18940000Y-9880000D02*
X18940000Y-9920000D01*
X18920000Y-9900000D02*
X18960000Y-9900000D01*
X19027570Y-11082758D02*
X19027570Y-11122758D01*
X19007570Y-11102758D02*
X19047570Y-11102758D01*
X19050000Y-9347000D02*
X19050000Y-9387000D01*
X19030000Y-9367000D02*
X19070000Y-9367000D01*
X19050000Y-9940000D02*
X19050000Y-9980000D01*
X19030000Y-9960000D02*
X19070000Y-9960000D01*
X19060000Y-9170000D02*
X19060000Y-9210000D01*
X19040000Y-9190000D02*
X19080000Y-9190000D01*
X19090000Y-10130000D02*
X19090000Y-10170000D01*
X19070000Y-10150000D02*
X19110000Y-10150000D01*
X19180000Y-9600000D02*
X19180000Y-9640000D01*
X19160000Y-9620000D02*
X19200000Y-9620000D01*
X19290000Y-9998282D02*
X19290000Y-10038282D01*
X19270000Y-10018282D02*
X19310000Y-10018282D01*
X19410000Y-10310000D02*
X19410000Y-10350000D01*
X19390000Y-10330000D02*
X19430000Y-10330000D01*
X19458750Y-11230000D02*
X19458750Y-11270000D01*
X19438750Y-11250000D02*
X19478750Y-11250000D01*
X19460000Y-9620000D02*
X19460000Y-9660000D01*
X19440000Y-9640000D02*
X19480000Y-9640000D01*
X19479141Y-10081358D02*
X19479141Y-10121358D01*
X19459141Y-10101358D02*
X19499141Y-10101358D01*
X19500000Y-10870000D02*
X19500000Y-10910000D01*
X19480000Y-10890000D02*
X19520000Y-10890000D01*
X19600000Y-8480000D02*
X19600000Y-8520000D01*
X19580000Y-8500000D02*
X19620000Y-8500000D01*
X19600000Y-9380000D02*
X19600000Y-9420000D01*
X19580000Y-9400000D02*
X19620000Y-9400000D01*
X19639359Y-11433662D02*
X19639359Y-11473662D01*
X19619359Y-11453662D02*
X19659359Y-11453662D01*
X19680000Y-10050000D02*
X19680000Y-10090000D01*
X19660000Y-10070000D02*
X19700000Y-10070000D01*
X19680000Y-10210000D02*
X19680000Y-10250000D01*
X19660000Y-10230000D02*
X19700000Y-10230000D01*
X19737123Y-11471967D02*
X19737123Y-11511967D01*
X19717123Y-11491967D02*
X19757123Y-11491967D01*
X19765000Y-9650000D02*
X19765000Y-9690000D01*
X19745000Y-9670000D02*
X19785000Y-9670000D01*
X19810000Y-9270000D02*
X19810000Y-9310000D01*
X19790000Y-9290000D02*
X19830000Y-9290000D01*
X19880000Y-10460000D02*
X19880000Y-10500000D01*
X19860000Y-10480000D02*
X19900000Y-10480000D01*
X20220000Y-9410000D02*
X20220000Y-9450000D01*
X20200000Y-9430000D02*
X20240000Y-9430000D01*
X20220000Y-10690000D02*
X20220000Y-10730000D01*
X20200000Y-10710000D02*
X20240000Y-10710000D01*
X20261612Y-10441612D02*
X20261612Y-10481612D01*
X20241612Y-10461612D02*
X20281612Y-10461612D01*
X20301828Y-9530000D02*
X20301828Y-9570000D01*
X20281828Y-9550000D02*
X20321828Y-9550000D01*
X20600000Y-9180000D02*
X20600000Y-9220000D01*
X20580000Y-9200000D02*
X20620000Y-9200000D01*
X13869213Y-13450713D02*
X13869213Y-13408287D01*
X13826787Y-13408287D01*
X13826787Y-13450713D01*
X13869213Y-13450713D01*
X13818000Y-13374500D02*
X13818000Y-13484500D01*
X13818000Y-13484500D02*
G75*
G03*
X13878000Y-13484500I30000J0D01*
G01*
X13878000Y-13484500D02*
X13878000Y-13374500D01*
X13878000Y-13374500D02*
G75*
G03*
X13818000Y-13374500I-30000J0D01*
G01*
X13869213Y-13868713D02*
X13869213Y-13826287D01*
X13826787Y-13826287D01*
X13826787Y-13868713D01*
X13869213Y-13868713D01*
X13818000Y-13807500D02*
X13818000Y-13887500D01*
X13818000Y-13887500D02*
G75*
G03*
X13878000Y-13887500I30000J0D01*
G01*
X13878000Y-13887500D02*
X13878000Y-13807500D01*
X13878000Y-13807500D02*
G75*
G03*
X13818000Y-13807500I-30000J0D01*
G01*
X14733213Y-13450713D02*
X14733213Y-13408287D01*
X14690787Y-13408287D01*
X14690787Y-13450713D01*
X14733213Y-13450713D01*
X14682000Y-13374500D02*
X14682000Y-13484500D01*
X14682000Y-13484500D02*
G75*
G03*
X14742000Y-13484500I30000J0D01*
G01*
X14742000Y-13484500D02*
X14742000Y-13374500D01*
X14742000Y-13374500D02*
G75*
G03*
X14682000Y-13374500I-30000J0D01*
G01*
X14733213Y-13868713D02*
X14733213Y-13826287D01*
X14690787Y-13826287D01*
X14690787Y-13868713D01*
X14733213Y-13868713D01*
X14682000Y-13807500D02*
X14682000Y-13887500D01*
X14682000Y-13887500D02*
G75*
G03*
X14742000Y-13887500I30000J0D01*
G01*
X14742000Y-13887500D02*
X14742000Y-13807500D01*
X14742000Y-13807500D02*
G75*
G03*
X14682000Y-13807500I-30000J0D01*
G01*
X20078115Y-11366840D02*
X20116215Y-11328740D01*
X20078115Y-11290640D01*
X20040015Y-11328740D01*
X20078115Y-11366840D01*
X20078115Y-11566840D02*
X20116215Y-11528740D01*
X20078115Y-11490640D01*
X20040015Y-11528740D01*
X20078115Y-11566840D01*
X20101885Y-8489360D02*
X20139985Y-8451260D01*
X20101885Y-8413160D01*
X20063785Y-8451260D01*
X20101885Y-8489360D01*
X20101885Y-8689360D02*
X20139985Y-8651260D01*
X20101885Y-8613160D01*
X20063785Y-8651260D01*
X20101885Y-8689360D01*
X20528115Y-11366840D02*
X20566215Y-11328740D01*
X20528115Y-11290640D01*
X20490015Y-11328740D01*
X20528115Y-11366840D01*
X20528115Y-11566840D02*
X20566215Y-11528740D01*
X20528115Y-11490640D01*
X20490015Y-11528740D01*
X20528115Y-11566840D01*
X20551885Y-8489360D02*
X20589985Y-8451260D01*
X20551885Y-8413160D01*
X20513785Y-8451260D01*
X20551885Y-8489360D01*
X20551885Y-8689360D02*
X20589985Y-8651260D01*
X20551885Y-8613160D01*
X20513785Y-8651260D01*
X20551885Y-8689360D01*
X15383446Y-8568808D02*
X15483446Y-8668808D01*
X15483446Y-8568808D02*
X15383446Y-8668808D01*
X15483446Y-8618808D02*
G75*
G03*
X15383446Y-8618808I-50000J0D01*
G01*
X15383446Y-8618808D02*
G75*
G03*
X15483446Y-8618808I50000J0D01*
G01*
X15389203Y-11266949D02*
X15489203Y-11366949D01*
X15489203Y-11266949D02*
X15389203Y-11366949D01*
X15489203Y-11316949D02*
G75*
G03*
X15389203Y-11316949I-50000J0D01*
G01*
X15389203Y-11316949D02*
G75*
G03*
X15489203Y-11316949I50000J0D01*
G01*
X15563051Y-8389203D02*
X15663051Y-8489203D01*
X15663051Y-8389203D02*
X15563051Y-8489203D01*
X15663051Y-8439203D02*
G75*
G03*
X15563051Y-8439203I-50000J0D01*
G01*
X15563051Y-8439203D02*
G75*
G03*
X15663051Y-8439203I50000J0D01*
G01*
X15568808Y-11446554D02*
X15668808Y-11546554D01*
X15668808Y-11446554D02*
X15568808Y-11546554D01*
X15668808Y-11496554D02*
G75*
G03*
X15568808Y-11496554I-50000J0D01*
G01*
X15568808Y-11496554D02*
G75*
G03*
X15668808Y-11496554I50000J0D01*
G01*
D12*
X12847500Y-6247500D02*
X13032500Y-6432500D01*
X13032500Y-6247500D02*
X12847500Y-6432500D01*
X12940000Y-6247500D02*
X12940000Y-6432500D01*
X12847500Y-6340000D02*
X13032500Y-6340000D01*
X12847500Y-7848500D02*
X13032500Y-8033500D01*
X13032500Y-7848500D02*
X12847500Y-8033500D01*
X12940000Y-7848500D02*
X12940000Y-8033500D01*
X12847500Y-7941000D02*
X13032500Y-7941000D01*
X12847500Y-11927500D02*
X13032500Y-12112500D01*
X13032500Y-11927500D02*
X12847500Y-12112500D01*
X12940000Y-11927500D02*
X12940000Y-12112500D01*
X12847500Y-12020000D02*
X13032500Y-12020000D01*
X12847500Y-13528500D02*
X13032500Y-13713500D01*
X13032500Y-13528500D02*
X12847500Y-13713500D01*
X12940000Y-13528500D02*
X12940000Y-13713500D01*
X12847500Y-13621000D02*
X13032500Y-13621000D01*
D13*
X20100000Y-9950000D02*
X20340000Y-10190000D01*
X20340000Y-9950000D02*
X20100000Y-10190000D01*
X20304854Y-10154854D02*
X20304854Y-9985146D01*
X20135146Y-9985146D01*
X20135146Y-10154854D01*
X20304854Y-10154854D01*
D10*
X8893257Y-14421484D02*
X8893257Y-14221484D01*
X8893257Y-14221484D02*
X8940876Y-14221484D01*
X8940876Y-14221484D02*
X8969448Y-14231008D01*
X8969448Y-14231008D02*
X8988495Y-14250055D01*
X8988495Y-14250055D02*
X8998019Y-14269103D01*
X8998019Y-14269103D02*
X9007543Y-14307198D01*
X9007543Y-14307198D02*
X9007543Y-14335769D01*
X9007543Y-14335769D02*
X8998019Y-14373865D01*
X8998019Y-14373865D02*
X8988495Y-14392912D01*
X8988495Y-14392912D02*
X8969448Y-14411960D01*
X8969448Y-14411960D02*
X8940876Y-14421484D01*
X8940876Y-14421484D02*
X8893257Y-14421484D01*
X9093257Y-14421484D02*
X9093257Y-14288150D01*
X9093257Y-14326246D02*
X9102781Y-14307198D01*
X9102781Y-14307198D02*
X9112305Y-14297674D01*
X9112305Y-14297674D02*
X9131353Y-14288150D01*
X9131353Y-14288150D02*
X9150400Y-14288150D01*
X9217067Y-14421484D02*
X9217067Y-14288150D01*
X9217067Y-14221484D02*
X9207543Y-14231008D01*
X9207543Y-14231008D02*
X9217067Y-14240531D01*
X9217067Y-14240531D02*
X9226591Y-14231008D01*
X9226591Y-14231008D02*
X9217067Y-14221484D01*
X9217067Y-14221484D02*
X9217067Y-14240531D01*
X9340876Y-14421484D02*
X9321829Y-14411960D01*
X9321829Y-14411960D02*
X9312305Y-14392912D01*
X9312305Y-14392912D02*
X9312305Y-14221484D01*
X9445638Y-14421484D02*
X9426591Y-14411960D01*
X9426591Y-14411960D02*
X9417067Y-14392912D01*
X9417067Y-14392912D02*
X9417067Y-14221484D01*
X9674210Y-14421484D02*
X9674210Y-14221484D01*
X9674210Y-14221484D02*
X9740876Y-14364341D01*
X9740876Y-14364341D02*
X9807543Y-14221484D01*
X9807543Y-14221484D02*
X9807543Y-14421484D01*
X9988495Y-14421484D02*
X9988495Y-14316722D01*
X9988495Y-14316722D02*
X9978972Y-14297674D01*
X9978972Y-14297674D02*
X9959924Y-14288150D01*
X9959924Y-14288150D02*
X9921829Y-14288150D01*
X9921829Y-14288150D02*
X9902781Y-14297674D01*
X9988495Y-14411960D02*
X9969448Y-14421484D01*
X9969448Y-14421484D02*
X9921829Y-14421484D01*
X9921829Y-14421484D02*
X9902781Y-14411960D01*
X9902781Y-14411960D02*
X9893257Y-14392912D01*
X9893257Y-14392912D02*
X9893257Y-14373865D01*
X9893257Y-14373865D02*
X9902781Y-14354817D01*
X9902781Y-14354817D02*
X9921829Y-14345293D01*
X9921829Y-14345293D02*
X9969448Y-14345293D01*
X9969448Y-14345293D02*
X9988495Y-14335769D01*
X10083734Y-14288150D02*
X10083734Y-14488150D01*
X10083734Y-14297674D02*
X10102781Y-14288150D01*
X10102781Y-14288150D02*
X10140876Y-14288150D01*
X10140876Y-14288150D02*
X10159924Y-14297674D01*
X10159924Y-14297674D02*
X10169448Y-14307198D01*
X10169448Y-14307198D02*
X10178972Y-14326246D01*
X10178972Y-14326246D02*
X10178972Y-14383388D01*
X10178972Y-14383388D02*
X10169448Y-14402436D01*
X10169448Y-14402436D02*
X10159924Y-14411960D01*
X10159924Y-14411960D02*
X10140876Y-14421484D01*
X10140876Y-14421484D02*
X10102781Y-14421484D01*
X10102781Y-14421484D02*
X10083734Y-14411960D01*
X10264686Y-14402436D02*
X10274210Y-14411960D01*
X10274210Y-14411960D02*
X10264686Y-14421484D01*
X10264686Y-14421484D02*
X10255162Y-14411960D01*
X10255162Y-14411960D02*
X10264686Y-14402436D01*
X10264686Y-14402436D02*
X10264686Y-14421484D01*
X10264686Y-14297674D02*
X10274210Y-14307198D01*
X10274210Y-14307198D02*
X10264686Y-14316722D01*
X10264686Y-14316722D02*
X10255162Y-14307198D01*
X10255162Y-14307198D02*
X10264686Y-14297674D01*
X10264686Y-14297674D02*
X10264686Y-14316722D01*
D11*
X8612481Y-14740000D02*
X8632481Y-14760000D01*
X8632481Y-14740000D02*
X8612481Y-14760000D01*
D10*
X8931353Y-14641484D02*
X8950400Y-14641484D01*
X8950400Y-14641484D02*
X8969448Y-14651008D01*
X8969448Y-14651008D02*
X8978972Y-14660531D01*
X8978972Y-14660531D02*
X8988495Y-14679579D01*
X8988495Y-14679579D02*
X8998019Y-14717674D01*
X8998019Y-14717674D02*
X8998019Y-14765293D01*
X8998019Y-14765293D02*
X8988495Y-14803388D01*
X8988495Y-14803388D02*
X8978972Y-14822436D01*
X8978972Y-14822436D02*
X8969448Y-14831960D01*
X8969448Y-14831960D02*
X8950400Y-14841484D01*
X8950400Y-14841484D02*
X8931353Y-14841484D01*
X8931353Y-14841484D02*
X8912305Y-14831960D01*
X8912305Y-14831960D02*
X8902781Y-14822436D01*
X8902781Y-14822436D02*
X8893257Y-14803388D01*
X8893257Y-14803388D02*
X8883734Y-14765293D01*
X8883734Y-14765293D02*
X8883734Y-14717674D01*
X8883734Y-14717674D02*
X8893257Y-14679579D01*
X8893257Y-14679579D02*
X8902781Y-14660531D01*
X8902781Y-14660531D02*
X8912305Y-14651008D01*
X8912305Y-14651008D02*
X8931353Y-14641484D01*
X9083734Y-14822436D02*
X9093257Y-14831960D01*
X9093257Y-14831960D02*
X9083734Y-14841484D01*
X9083734Y-14841484D02*
X9074210Y-14831960D01*
X9074210Y-14831960D02*
X9083734Y-14822436D01*
X9083734Y-14822436D02*
X9083734Y-14841484D01*
X9169448Y-14660531D02*
X9178972Y-14651008D01*
X9178972Y-14651008D02*
X9198019Y-14641484D01*
X9198019Y-14641484D02*
X9245638Y-14641484D01*
X9245638Y-14641484D02*
X9264686Y-14651008D01*
X9264686Y-14651008D02*
X9274210Y-14660531D01*
X9274210Y-14660531D02*
X9283734Y-14679579D01*
X9283734Y-14679579D02*
X9283734Y-14698627D01*
X9283734Y-14698627D02*
X9274210Y-14727198D01*
X9274210Y-14727198D02*
X9159924Y-14841484D01*
X9159924Y-14841484D02*
X9283734Y-14841484D01*
X9407543Y-14641484D02*
X9426591Y-14641484D01*
X9426591Y-14641484D02*
X9445638Y-14651008D01*
X9445638Y-14651008D02*
X9455162Y-14660531D01*
X9455162Y-14660531D02*
X9464686Y-14679579D01*
X9464686Y-14679579D02*
X9474210Y-14717674D01*
X9474210Y-14717674D02*
X9474210Y-14765293D01*
X9474210Y-14765293D02*
X9464686Y-14803388D01*
X9464686Y-14803388D02*
X9455162Y-14822436D01*
X9455162Y-14822436D02*
X9445638Y-14831960D01*
X9445638Y-14831960D02*
X9426591Y-14841484D01*
X9426591Y-14841484D02*
X9407543Y-14841484D01*
X9407543Y-14841484D02*
X9388495Y-14831960D01*
X9388495Y-14831960D02*
X9378972Y-14822436D01*
X9378972Y-14822436D02*
X9369448Y-14803388D01*
X9369448Y-14803388D02*
X9359924Y-14765293D01*
X9359924Y-14765293D02*
X9359924Y-14717674D01*
X9359924Y-14717674D02*
X9369448Y-14679579D01*
X9369448Y-14679579D02*
X9378972Y-14660531D01*
X9378972Y-14660531D02*
X9388495Y-14651008D01*
X9388495Y-14651008D02*
X9407543Y-14641484D01*
X9598019Y-14641484D02*
X9617067Y-14641484D01*
X9617067Y-14641484D02*
X9636115Y-14651008D01*
X9636115Y-14651008D02*
X9645638Y-14660531D01*
X9645638Y-14660531D02*
X9655162Y-14679579D01*
X9655162Y-14679579D02*
X9664686Y-14717674D01*
X9664686Y-14717674D02*
X9664686Y-14765293D01*
X9664686Y-14765293D02*
X9655162Y-14803388D01*
X9655162Y-14803388D02*
X9645638Y-14822436D01*
X9645638Y-14822436D02*
X9636115Y-14831960D01*
X9636115Y-14831960D02*
X9617067Y-14841484D01*
X9617067Y-14841484D02*
X9598019Y-14841484D01*
X9598019Y-14841484D02*
X9578972Y-14831960D01*
X9578972Y-14831960D02*
X9569448Y-14822436D01*
X9569448Y-14822436D02*
X9559924Y-14803388D01*
X9559924Y-14803388D02*
X9550400Y-14765293D01*
X9550400Y-14765293D02*
X9550400Y-14717674D01*
X9550400Y-14717674D02*
X9559924Y-14679579D01*
X9559924Y-14679579D02*
X9569448Y-14660531D01*
X9569448Y-14660531D02*
X9578972Y-14651008D01*
X9578972Y-14651008D02*
X9598019Y-14641484D01*
X9750400Y-14841484D02*
X9750400Y-14708150D01*
X9750400Y-14727198D02*
X9759924Y-14717674D01*
X9759924Y-14717674D02*
X9778972Y-14708150D01*
X9778972Y-14708150D02*
X9807543Y-14708150D01*
X9807543Y-14708150D02*
X9826591Y-14717674D01*
X9826591Y-14717674D02*
X9836115Y-14736722D01*
X9836115Y-14736722D02*
X9836115Y-14841484D01*
X9836115Y-14736722D02*
X9845638Y-14717674D01*
X9845638Y-14717674D02*
X9864686Y-14708150D01*
X9864686Y-14708150D02*
X9893257Y-14708150D01*
X9893257Y-14708150D02*
X9912305Y-14717674D01*
X9912305Y-14717674D02*
X9921829Y-14736722D01*
X9921829Y-14736722D02*
X9921829Y-14841484D01*
X10017067Y-14841484D02*
X10017067Y-14708150D01*
X10017067Y-14727198D02*
X10026591Y-14717674D01*
X10026591Y-14717674D02*
X10045638Y-14708150D01*
X10045638Y-14708150D02*
X10074210Y-14708150D01*
X10074210Y-14708150D02*
X10093257Y-14717674D01*
X10093257Y-14717674D02*
X10102781Y-14736722D01*
X10102781Y-14736722D02*
X10102781Y-14841484D01*
X10102781Y-14736722D02*
X10112305Y-14717674D01*
X10112305Y-14717674D02*
X10131353Y-14708150D01*
X10131353Y-14708150D02*
X10159924Y-14708150D01*
X10159924Y-14708150D02*
X10178972Y-14717674D01*
X10178972Y-14717674D02*
X10188496Y-14736722D01*
X10188496Y-14736722D02*
X10188496Y-14841484D01*
X10578972Y-14631960D02*
X10407543Y-14889103D01*
X10836115Y-14641484D02*
X10855162Y-14641484D01*
X10855162Y-14641484D02*
X10874210Y-14651008D01*
X10874210Y-14651008D02*
X10883734Y-14660531D01*
X10883734Y-14660531D02*
X10893258Y-14679579D01*
X10893258Y-14679579D02*
X10902781Y-14717674D01*
X10902781Y-14717674D02*
X10902781Y-14765293D01*
X10902781Y-14765293D02*
X10893258Y-14803388D01*
X10893258Y-14803388D02*
X10883734Y-14822436D01*
X10883734Y-14822436D02*
X10874210Y-14831960D01*
X10874210Y-14831960D02*
X10855162Y-14841484D01*
X10855162Y-14841484D02*
X10836115Y-14841484D01*
X10836115Y-14841484D02*
X10817067Y-14831960D01*
X10817067Y-14831960D02*
X10807543Y-14822436D01*
X10807543Y-14822436D02*
X10798019Y-14803388D01*
X10798019Y-14803388D02*
X10788496Y-14765293D01*
X10788496Y-14765293D02*
X10788496Y-14717674D01*
X10788496Y-14717674D02*
X10798019Y-14679579D01*
X10798019Y-14679579D02*
X10807543Y-14660531D01*
X10807543Y-14660531D02*
X10817067Y-14651008D01*
X10817067Y-14651008D02*
X10836115Y-14641484D01*
X10988496Y-14822436D02*
X10998019Y-14831960D01*
X10998019Y-14831960D02*
X10988496Y-14841484D01*
X10988496Y-14841484D02*
X10978972Y-14831960D01*
X10978972Y-14831960D02*
X10988496Y-14822436D01*
X10988496Y-14822436D02*
X10988496Y-14841484D01*
X11121829Y-14641484D02*
X11140877Y-14641484D01*
X11140877Y-14641484D02*
X11159924Y-14651008D01*
X11159924Y-14651008D02*
X11169448Y-14660531D01*
X11169448Y-14660531D02*
X11178972Y-14679579D01*
X11178972Y-14679579D02*
X11188496Y-14717674D01*
X11188496Y-14717674D02*
X11188496Y-14765293D01*
X11188496Y-14765293D02*
X11178972Y-14803388D01*
X11178972Y-14803388D02*
X11169448Y-14822436D01*
X11169448Y-14822436D02*
X11159924Y-14831960D01*
X11159924Y-14831960D02*
X11140877Y-14841484D01*
X11140877Y-14841484D02*
X11121829Y-14841484D01*
X11121829Y-14841484D02*
X11102781Y-14831960D01*
X11102781Y-14831960D02*
X11093258Y-14822436D01*
X11093258Y-14822436D02*
X11083734Y-14803388D01*
X11083734Y-14803388D02*
X11074210Y-14765293D01*
X11074210Y-14765293D02*
X11074210Y-14717674D01*
X11074210Y-14717674D02*
X11083734Y-14679579D01*
X11083734Y-14679579D02*
X11093258Y-14660531D01*
X11093258Y-14660531D02*
X11102781Y-14651008D01*
X11102781Y-14651008D02*
X11121829Y-14641484D01*
X11312305Y-14641484D02*
X11331353Y-14641484D01*
X11331353Y-14641484D02*
X11350400Y-14651008D01*
X11350400Y-14651008D02*
X11359924Y-14660531D01*
X11359924Y-14660531D02*
X11369448Y-14679579D01*
X11369448Y-14679579D02*
X11378972Y-14717674D01*
X11378972Y-14717674D02*
X11378972Y-14765293D01*
X11378972Y-14765293D02*
X11369448Y-14803388D01*
X11369448Y-14803388D02*
X11359924Y-14822436D01*
X11359924Y-14822436D02*
X11350400Y-14831960D01*
X11350400Y-14831960D02*
X11331353Y-14841484D01*
X11331353Y-14841484D02*
X11312305Y-14841484D01*
X11312305Y-14841484D02*
X11293257Y-14831960D01*
X11293257Y-14831960D02*
X11283734Y-14822436D01*
X11283734Y-14822436D02*
X11274210Y-14803388D01*
X11274210Y-14803388D02*
X11264686Y-14765293D01*
X11264686Y-14765293D02*
X11264686Y-14717674D01*
X11264686Y-14717674D02*
X11274210Y-14679579D01*
X11274210Y-14679579D02*
X11283734Y-14660531D01*
X11283734Y-14660531D02*
X11293257Y-14651008D01*
X11293257Y-14651008D02*
X11312305Y-14641484D01*
X11445638Y-14641484D02*
X11578972Y-14641484D01*
X11578972Y-14641484D02*
X11493257Y-14841484D01*
X11664686Y-14841484D02*
X11702781Y-14841484D01*
X11702781Y-14841484D02*
X11721829Y-14831960D01*
X11721829Y-14831960D02*
X11731353Y-14822436D01*
X11731353Y-14822436D02*
X11750400Y-14793865D01*
X11750400Y-14793865D02*
X11759924Y-14755769D01*
X11759924Y-14755769D02*
X11759924Y-14679579D01*
X11759924Y-14679579D02*
X11750400Y-14660531D01*
X11750400Y-14660531D02*
X11740877Y-14651008D01*
X11740877Y-14651008D02*
X11721829Y-14641484D01*
X11721829Y-14641484D02*
X11683734Y-14641484D01*
X11683734Y-14641484D02*
X11664686Y-14651008D01*
X11664686Y-14651008D02*
X11655162Y-14660531D01*
X11655162Y-14660531D02*
X11645638Y-14679579D01*
X11645638Y-14679579D02*
X11645638Y-14727198D01*
X11645638Y-14727198D02*
X11655162Y-14746246D01*
X11655162Y-14746246D02*
X11664686Y-14755769D01*
X11664686Y-14755769D02*
X11683734Y-14765293D01*
X11683734Y-14765293D02*
X11721829Y-14765293D01*
X11721829Y-14765293D02*
X11740877Y-14755769D01*
X11740877Y-14755769D02*
X11750400Y-14746246D01*
X11750400Y-14746246D02*
X11759924Y-14727198D01*
X11836115Y-14641484D02*
X11836115Y-14679579D01*
X11912305Y-14641484D02*
X11912305Y-14679579D01*
X12207543Y-14917674D02*
X12198019Y-14908150D01*
X12198019Y-14908150D02*
X12178972Y-14879579D01*
X12178972Y-14879579D02*
X12169448Y-14860531D01*
X12169448Y-14860531D02*
X12159924Y-14831960D01*
X12159924Y-14831960D02*
X12150400Y-14784341D01*
X12150400Y-14784341D02*
X12150400Y-14746246D01*
X12150400Y-14746246D02*
X12159924Y-14698627D01*
X12159924Y-14698627D02*
X12169448Y-14670055D01*
X12169448Y-14670055D02*
X12178972Y-14651008D01*
X12178972Y-14651008D02*
X12198019Y-14622436D01*
X12198019Y-14622436D02*
X12207543Y-14612912D01*
X12369448Y-14708150D02*
X12369448Y-14841484D01*
X12321829Y-14631960D02*
X12274210Y-14774817D01*
X12274210Y-14774817D02*
X12398019Y-14774817D01*
X12626591Y-14841484D02*
X12626591Y-14641484D01*
X12712305Y-14841484D02*
X12712305Y-14736722D01*
X12712305Y-14736722D02*
X12702781Y-14717674D01*
X12702781Y-14717674D02*
X12683734Y-14708150D01*
X12683734Y-14708150D02*
X12655162Y-14708150D01*
X12655162Y-14708150D02*
X12636115Y-14717674D01*
X12636115Y-14717674D02*
X12626591Y-14727198D01*
X12836115Y-14841484D02*
X12817067Y-14831960D01*
X12817067Y-14831960D02*
X12807543Y-14822436D01*
X12807543Y-14822436D02*
X12798020Y-14803388D01*
X12798020Y-14803388D02*
X12798020Y-14746246D01*
X12798020Y-14746246D02*
X12807543Y-14727198D01*
X12807543Y-14727198D02*
X12817067Y-14717674D01*
X12817067Y-14717674D02*
X12836115Y-14708150D01*
X12836115Y-14708150D02*
X12864686Y-14708150D01*
X12864686Y-14708150D02*
X12883734Y-14717674D01*
X12883734Y-14717674D02*
X12893258Y-14727198D01*
X12893258Y-14727198D02*
X12902781Y-14746246D01*
X12902781Y-14746246D02*
X12902781Y-14803388D01*
X12902781Y-14803388D02*
X12893258Y-14822436D01*
X12893258Y-14822436D02*
X12883734Y-14831960D01*
X12883734Y-14831960D02*
X12864686Y-14841484D01*
X12864686Y-14841484D02*
X12836115Y-14841484D01*
X13017067Y-14841484D02*
X12998020Y-14831960D01*
X12998020Y-14831960D02*
X12988496Y-14812912D01*
X12988496Y-14812912D02*
X12988496Y-14641484D01*
X13169448Y-14831960D02*
X13150401Y-14841484D01*
X13150401Y-14841484D02*
X13112305Y-14841484D01*
X13112305Y-14841484D02*
X13093258Y-14831960D01*
X13093258Y-14831960D02*
X13083734Y-14812912D01*
X13083734Y-14812912D02*
X13083734Y-14736722D01*
X13083734Y-14736722D02*
X13093258Y-14717674D01*
X13093258Y-14717674D02*
X13112305Y-14708150D01*
X13112305Y-14708150D02*
X13150401Y-14708150D01*
X13150401Y-14708150D02*
X13169448Y-14717674D01*
X13169448Y-14717674D02*
X13178972Y-14736722D01*
X13178972Y-14736722D02*
X13178972Y-14755769D01*
X13178972Y-14755769D02*
X13083734Y-14774817D01*
X13255162Y-14831960D02*
X13274210Y-14841484D01*
X13274210Y-14841484D02*
X13312305Y-14841484D01*
X13312305Y-14841484D02*
X13331353Y-14831960D01*
X13331353Y-14831960D02*
X13340877Y-14812912D01*
X13340877Y-14812912D02*
X13340877Y-14803388D01*
X13340877Y-14803388D02*
X13331353Y-14784341D01*
X13331353Y-14784341D02*
X13312305Y-14774817D01*
X13312305Y-14774817D02*
X13283734Y-14774817D01*
X13283734Y-14774817D02*
X13264686Y-14765293D01*
X13264686Y-14765293D02*
X13255162Y-14746246D01*
X13255162Y-14746246D02*
X13255162Y-14736722D01*
X13255162Y-14736722D02*
X13264686Y-14717674D01*
X13264686Y-14717674D02*
X13283734Y-14708150D01*
X13283734Y-14708150D02*
X13312305Y-14708150D01*
X13312305Y-14708150D02*
X13331353Y-14717674D01*
X13407543Y-14917674D02*
X13417067Y-14908150D01*
X13417067Y-14908150D02*
X13436115Y-14879579D01*
X13436115Y-14879579D02*
X13445639Y-14860531D01*
X13445639Y-14860531D02*
X13455162Y-14831960D01*
X13455162Y-14831960D02*
X13464686Y-14784341D01*
X13464686Y-14784341D02*
X13464686Y-14746246D01*
X13464686Y-14746246D02*
X13455162Y-14698627D01*
X13455162Y-14698627D02*
X13445639Y-14670055D01*
X13445639Y-14670055D02*
X13436115Y-14651008D01*
X13436115Y-14651008D02*
X13417067Y-14622436D01*
X13417067Y-14622436D02*
X13407543Y-14612912D01*
D11*
X8632481Y-15014000D02*
G75*
G03*
X8607481Y-15014000I-12500J0D01*
G01*
X8607481Y-15014000D02*
G75*
G03*
X8632481Y-15014000I12500J0D01*
G01*
D10*
X8931353Y-14905484D02*
X8950400Y-14905484D01*
X8950400Y-14905484D02*
X8969448Y-14915008D01*
X8969448Y-14915008D02*
X8978972Y-14924531D01*
X8978972Y-14924531D02*
X8988495Y-14943579D01*
X8988495Y-14943579D02*
X8998019Y-14981674D01*
X8998019Y-14981674D02*
X8998019Y-15029293D01*
X8998019Y-15029293D02*
X8988495Y-15067388D01*
X8988495Y-15067388D02*
X8978972Y-15086436D01*
X8978972Y-15086436D02*
X8969448Y-15095960D01*
X8969448Y-15095960D02*
X8950400Y-15105484D01*
X8950400Y-15105484D02*
X8931353Y-15105484D01*
X8931353Y-15105484D02*
X8912305Y-15095960D01*
X8912305Y-15095960D02*
X8902781Y-15086436D01*
X8902781Y-15086436D02*
X8893257Y-15067388D01*
X8893257Y-15067388D02*
X8883734Y-15029293D01*
X8883734Y-15029293D02*
X8883734Y-14981674D01*
X8883734Y-14981674D02*
X8893257Y-14943579D01*
X8893257Y-14943579D02*
X8902781Y-14924531D01*
X8902781Y-14924531D02*
X8912305Y-14915008D01*
X8912305Y-14915008D02*
X8931353Y-14905484D01*
X9083734Y-15086436D02*
X9093257Y-15095960D01*
X9093257Y-15095960D02*
X9083734Y-15105484D01*
X9083734Y-15105484D02*
X9074210Y-15095960D01*
X9074210Y-15095960D02*
X9083734Y-15086436D01*
X9083734Y-15086436D02*
X9083734Y-15105484D01*
X9169448Y-14924531D02*
X9178972Y-14915008D01*
X9178972Y-14915008D02*
X9198019Y-14905484D01*
X9198019Y-14905484D02*
X9245638Y-14905484D01*
X9245638Y-14905484D02*
X9264686Y-14915008D01*
X9264686Y-14915008D02*
X9274210Y-14924531D01*
X9274210Y-14924531D02*
X9283734Y-14943579D01*
X9283734Y-14943579D02*
X9283734Y-14962627D01*
X9283734Y-14962627D02*
X9274210Y-14991198D01*
X9274210Y-14991198D02*
X9159924Y-15105484D01*
X9159924Y-15105484D02*
X9283734Y-15105484D01*
X9464686Y-14905484D02*
X9369448Y-14905484D01*
X9369448Y-14905484D02*
X9359924Y-15000722D01*
X9359924Y-15000722D02*
X9369448Y-14991198D01*
X9369448Y-14991198D02*
X9388495Y-14981674D01*
X9388495Y-14981674D02*
X9436115Y-14981674D01*
X9436115Y-14981674D02*
X9455162Y-14991198D01*
X9455162Y-14991198D02*
X9464686Y-15000722D01*
X9464686Y-15000722D02*
X9474210Y-15019769D01*
X9474210Y-15019769D02*
X9474210Y-15067388D01*
X9474210Y-15067388D02*
X9464686Y-15086436D01*
X9464686Y-15086436D02*
X9455162Y-15095960D01*
X9455162Y-15095960D02*
X9436115Y-15105484D01*
X9436115Y-15105484D02*
X9388495Y-15105484D01*
X9388495Y-15105484D02*
X9369448Y-15095960D01*
X9369448Y-15095960D02*
X9359924Y-15086436D01*
X9598019Y-14905484D02*
X9617067Y-14905484D01*
X9617067Y-14905484D02*
X9636115Y-14915008D01*
X9636115Y-14915008D02*
X9645638Y-14924531D01*
X9645638Y-14924531D02*
X9655162Y-14943579D01*
X9655162Y-14943579D02*
X9664686Y-14981674D01*
X9664686Y-14981674D02*
X9664686Y-15029293D01*
X9664686Y-15029293D02*
X9655162Y-15067388D01*
X9655162Y-15067388D02*
X9645638Y-15086436D01*
X9645638Y-15086436D02*
X9636115Y-15095960D01*
X9636115Y-15095960D02*
X9617067Y-15105484D01*
X9617067Y-15105484D02*
X9598019Y-15105484D01*
X9598019Y-15105484D02*
X9578972Y-15095960D01*
X9578972Y-15095960D02*
X9569448Y-15086436D01*
X9569448Y-15086436D02*
X9559924Y-15067388D01*
X9559924Y-15067388D02*
X9550400Y-15029293D01*
X9550400Y-15029293D02*
X9550400Y-14981674D01*
X9550400Y-14981674D02*
X9559924Y-14943579D01*
X9559924Y-14943579D02*
X9569448Y-14924531D01*
X9569448Y-14924531D02*
X9578972Y-14915008D01*
X9578972Y-14915008D02*
X9598019Y-14905484D01*
X9750400Y-15105484D02*
X9750400Y-14972150D01*
X9750400Y-14991198D02*
X9759924Y-14981674D01*
X9759924Y-14981674D02*
X9778972Y-14972150D01*
X9778972Y-14972150D02*
X9807543Y-14972150D01*
X9807543Y-14972150D02*
X9826591Y-14981674D01*
X9826591Y-14981674D02*
X9836115Y-15000722D01*
X9836115Y-15000722D02*
X9836115Y-15105484D01*
X9836115Y-15000722D02*
X9845638Y-14981674D01*
X9845638Y-14981674D02*
X9864686Y-14972150D01*
X9864686Y-14972150D02*
X9893257Y-14972150D01*
X9893257Y-14972150D02*
X9912305Y-14981674D01*
X9912305Y-14981674D02*
X9921829Y-15000722D01*
X9921829Y-15000722D02*
X9921829Y-15105484D01*
X10017067Y-15105484D02*
X10017067Y-14972150D01*
X10017067Y-14991198D02*
X10026591Y-14981674D01*
X10026591Y-14981674D02*
X10045638Y-14972150D01*
X10045638Y-14972150D02*
X10074210Y-14972150D01*
X10074210Y-14972150D02*
X10093257Y-14981674D01*
X10093257Y-14981674D02*
X10102781Y-15000722D01*
X10102781Y-15000722D02*
X10102781Y-15105484D01*
X10102781Y-15000722D02*
X10112305Y-14981674D01*
X10112305Y-14981674D02*
X10131353Y-14972150D01*
X10131353Y-14972150D02*
X10159924Y-14972150D01*
X10159924Y-14972150D02*
X10178972Y-14981674D01*
X10178972Y-14981674D02*
X10188496Y-15000722D01*
X10188496Y-15000722D02*
X10188496Y-15105484D01*
X10578972Y-14895960D02*
X10407543Y-15153103D01*
X10836115Y-14905484D02*
X10855162Y-14905484D01*
X10855162Y-14905484D02*
X10874210Y-14915008D01*
X10874210Y-14915008D02*
X10883734Y-14924531D01*
X10883734Y-14924531D02*
X10893258Y-14943579D01*
X10893258Y-14943579D02*
X10902781Y-14981674D01*
X10902781Y-14981674D02*
X10902781Y-15029293D01*
X10902781Y-15029293D02*
X10893258Y-15067388D01*
X10893258Y-15067388D02*
X10883734Y-15086436D01*
X10883734Y-15086436D02*
X10874210Y-15095960D01*
X10874210Y-15095960D02*
X10855162Y-15105484D01*
X10855162Y-15105484D02*
X10836115Y-15105484D01*
X10836115Y-15105484D02*
X10817067Y-15095960D01*
X10817067Y-15095960D02*
X10807543Y-15086436D01*
X10807543Y-15086436D02*
X10798019Y-15067388D01*
X10798019Y-15067388D02*
X10788496Y-15029293D01*
X10788496Y-15029293D02*
X10788496Y-14981674D01*
X10788496Y-14981674D02*
X10798019Y-14943579D01*
X10798019Y-14943579D02*
X10807543Y-14924531D01*
X10807543Y-14924531D02*
X10817067Y-14915008D01*
X10817067Y-14915008D02*
X10836115Y-14905484D01*
X10988496Y-15086436D02*
X10998019Y-15095960D01*
X10998019Y-15095960D02*
X10988496Y-15105484D01*
X10988496Y-15105484D02*
X10978972Y-15095960D01*
X10978972Y-15095960D02*
X10988496Y-15086436D01*
X10988496Y-15086436D02*
X10988496Y-15105484D01*
X11121829Y-14905484D02*
X11140877Y-14905484D01*
X11140877Y-14905484D02*
X11159924Y-14915008D01*
X11159924Y-14915008D02*
X11169448Y-14924531D01*
X11169448Y-14924531D02*
X11178972Y-14943579D01*
X11178972Y-14943579D02*
X11188496Y-14981674D01*
X11188496Y-14981674D02*
X11188496Y-15029293D01*
X11188496Y-15029293D02*
X11178972Y-15067388D01*
X11178972Y-15067388D02*
X11169448Y-15086436D01*
X11169448Y-15086436D02*
X11159924Y-15095960D01*
X11159924Y-15095960D02*
X11140877Y-15105484D01*
X11140877Y-15105484D02*
X11121829Y-15105484D01*
X11121829Y-15105484D02*
X11102781Y-15095960D01*
X11102781Y-15095960D02*
X11093258Y-15086436D01*
X11093258Y-15086436D02*
X11083734Y-15067388D01*
X11083734Y-15067388D02*
X11074210Y-15029293D01*
X11074210Y-15029293D02*
X11074210Y-14981674D01*
X11074210Y-14981674D02*
X11083734Y-14943579D01*
X11083734Y-14943579D02*
X11093258Y-14924531D01*
X11093258Y-14924531D02*
X11102781Y-14915008D01*
X11102781Y-14915008D02*
X11121829Y-14905484D01*
X11312305Y-14905484D02*
X11331353Y-14905484D01*
X11331353Y-14905484D02*
X11350400Y-14915008D01*
X11350400Y-14915008D02*
X11359924Y-14924531D01*
X11359924Y-14924531D02*
X11369448Y-14943579D01*
X11369448Y-14943579D02*
X11378972Y-14981674D01*
X11378972Y-14981674D02*
X11378972Y-15029293D01*
X11378972Y-15029293D02*
X11369448Y-15067388D01*
X11369448Y-15067388D02*
X11359924Y-15086436D01*
X11359924Y-15086436D02*
X11350400Y-15095960D01*
X11350400Y-15095960D02*
X11331353Y-15105484D01*
X11331353Y-15105484D02*
X11312305Y-15105484D01*
X11312305Y-15105484D02*
X11293257Y-15095960D01*
X11293257Y-15095960D02*
X11283734Y-15086436D01*
X11283734Y-15086436D02*
X11274210Y-15067388D01*
X11274210Y-15067388D02*
X11264686Y-15029293D01*
X11264686Y-15029293D02*
X11264686Y-14981674D01*
X11264686Y-14981674D02*
X11274210Y-14943579D01*
X11274210Y-14943579D02*
X11283734Y-14924531D01*
X11283734Y-14924531D02*
X11293257Y-14915008D01*
X11293257Y-14915008D02*
X11312305Y-14905484D01*
X11474210Y-15105484D02*
X11512305Y-15105484D01*
X11512305Y-15105484D02*
X11531353Y-15095960D01*
X11531353Y-15095960D02*
X11540877Y-15086436D01*
X11540877Y-15086436D02*
X11559924Y-15057865D01*
X11559924Y-15057865D02*
X11569448Y-15019769D01*
X11569448Y-15019769D02*
X11569448Y-14943579D01*
X11569448Y-14943579D02*
X11559924Y-14924531D01*
X11559924Y-14924531D02*
X11550400Y-14915008D01*
X11550400Y-14915008D02*
X11531353Y-14905484D01*
X11531353Y-14905484D02*
X11493257Y-14905484D01*
X11493257Y-14905484D02*
X11474210Y-14915008D01*
X11474210Y-14915008D02*
X11464686Y-14924531D01*
X11464686Y-14924531D02*
X11455162Y-14943579D01*
X11455162Y-14943579D02*
X11455162Y-14991198D01*
X11455162Y-14991198D02*
X11464686Y-15010246D01*
X11464686Y-15010246D02*
X11474210Y-15019769D01*
X11474210Y-15019769D02*
X11493257Y-15029293D01*
X11493257Y-15029293D02*
X11531353Y-15029293D01*
X11531353Y-15029293D02*
X11550400Y-15019769D01*
X11550400Y-15019769D02*
X11559924Y-15010246D01*
X11559924Y-15010246D02*
X11569448Y-14991198D01*
X11683734Y-14991198D02*
X11664686Y-14981674D01*
X11664686Y-14981674D02*
X11655162Y-14972150D01*
X11655162Y-14972150D02*
X11645638Y-14953103D01*
X11645638Y-14953103D02*
X11645638Y-14943579D01*
X11645638Y-14943579D02*
X11655162Y-14924531D01*
X11655162Y-14924531D02*
X11664686Y-14915008D01*
X11664686Y-14915008D02*
X11683734Y-14905484D01*
X11683734Y-14905484D02*
X11721829Y-14905484D01*
X11721829Y-14905484D02*
X11740877Y-14915008D01*
X11740877Y-14915008D02*
X11750400Y-14924531D01*
X11750400Y-14924531D02*
X11759924Y-14943579D01*
X11759924Y-14943579D02*
X11759924Y-14953103D01*
X11759924Y-14953103D02*
X11750400Y-14972150D01*
X11750400Y-14972150D02*
X11740877Y-14981674D01*
X11740877Y-14981674D02*
X11721829Y-14991198D01*
X11721829Y-14991198D02*
X11683734Y-14991198D01*
X11683734Y-14991198D02*
X11664686Y-15000722D01*
X11664686Y-15000722D02*
X11655162Y-15010246D01*
X11655162Y-15010246D02*
X11645638Y-15029293D01*
X11645638Y-15029293D02*
X11645638Y-15067388D01*
X11645638Y-15067388D02*
X11655162Y-15086436D01*
X11655162Y-15086436D02*
X11664686Y-15095960D01*
X11664686Y-15095960D02*
X11683734Y-15105484D01*
X11683734Y-15105484D02*
X11721829Y-15105484D01*
X11721829Y-15105484D02*
X11740877Y-15095960D01*
X11740877Y-15095960D02*
X11750400Y-15086436D01*
X11750400Y-15086436D02*
X11759924Y-15067388D01*
X11759924Y-15067388D02*
X11759924Y-15029293D01*
X11759924Y-15029293D02*
X11750400Y-15010246D01*
X11750400Y-15010246D02*
X11740877Y-15000722D01*
X11740877Y-15000722D02*
X11721829Y-14991198D01*
X11836115Y-14905484D02*
X11836115Y-14943579D01*
X11912305Y-14905484D02*
X11912305Y-14943579D01*
X12207543Y-15181674D02*
X12198019Y-15172150D01*
X12198019Y-15172150D02*
X12178972Y-15143579D01*
X12178972Y-15143579D02*
X12169448Y-15124531D01*
X12169448Y-15124531D02*
X12159924Y-15095960D01*
X12159924Y-15095960D02*
X12150400Y-15048341D01*
X12150400Y-15048341D02*
X12150400Y-15010246D01*
X12150400Y-15010246D02*
X12159924Y-14962627D01*
X12159924Y-14962627D02*
X12169448Y-14934055D01*
X12169448Y-14934055D02*
X12178972Y-14915008D01*
X12178972Y-14915008D02*
X12198019Y-14886436D01*
X12198019Y-14886436D02*
X12207543Y-14876912D01*
X12369448Y-14972150D02*
X12369448Y-15105484D01*
X12321829Y-14895960D02*
X12274210Y-15038817D01*
X12274210Y-15038817D02*
X12398019Y-15038817D01*
X12626591Y-15105484D02*
X12626591Y-14905484D01*
X12712305Y-15105484D02*
X12712305Y-15000722D01*
X12712305Y-15000722D02*
X12702781Y-14981674D01*
X12702781Y-14981674D02*
X12683734Y-14972150D01*
X12683734Y-14972150D02*
X12655162Y-14972150D01*
X12655162Y-14972150D02*
X12636115Y-14981674D01*
X12636115Y-14981674D02*
X12626591Y-14991198D01*
X12836115Y-15105484D02*
X12817067Y-15095960D01*
X12817067Y-15095960D02*
X12807543Y-15086436D01*
X12807543Y-15086436D02*
X12798020Y-15067388D01*
X12798020Y-15067388D02*
X12798020Y-15010246D01*
X12798020Y-15010246D02*
X12807543Y-14991198D01*
X12807543Y-14991198D02*
X12817067Y-14981674D01*
X12817067Y-14981674D02*
X12836115Y-14972150D01*
X12836115Y-14972150D02*
X12864686Y-14972150D01*
X12864686Y-14972150D02*
X12883734Y-14981674D01*
X12883734Y-14981674D02*
X12893258Y-14991198D01*
X12893258Y-14991198D02*
X12902781Y-15010246D01*
X12902781Y-15010246D02*
X12902781Y-15067388D01*
X12902781Y-15067388D02*
X12893258Y-15086436D01*
X12893258Y-15086436D02*
X12883734Y-15095960D01*
X12883734Y-15095960D02*
X12864686Y-15105484D01*
X12864686Y-15105484D02*
X12836115Y-15105484D01*
X13017067Y-15105484D02*
X12998020Y-15095960D01*
X12998020Y-15095960D02*
X12988496Y-15076912D01*
X12988496Y-15076912D02*
X12988496Y-14905484D01*
X13169448Y-15095960D02*
X13150401Y-15105484D01*
X13150401Y-15105484D02*
X13112305Y-15105484D01*
X13112305Y-15105484D02*
X13093258Y-15095960D01*
X13093258Y-15095960D02*
X13083734Y-15076912D01*
X13083734Y-15076912D02*
X13083734Y-15000722D01*
X13083734Y-15000722D02*
X13093258Y-14981674D01*
X13093258Y-14981674D02*
X13112305Y-14972150D01*
X13112305Y-14972150D02*
X13150401Y-14972150D01*
X13150401Y-14972150D02*
X13169448Y-14981674D01*
X13169448Y-14981674D02*
X13178972Y-15000722D01*
X13178972Y-15000722D02*
X13178972Y-15019769D01*
X13178972Y-15019769D02*
X13083734Y-15038817D01*
X13255162Y-15095960D02*
X13274210Y-15105484D01*
X13274210Y-15105484D02*
X13312305Y-15105484D01*
X13312305Y-15105484D02*
X13331353Y-15095960D01*
X13331353Y-15095960D02*
X13340877Y-15076912D01*
X13340877Y-15076912D02*
X13340877Y-15067388D01*
X13340877Y-15067388D02*
X13331353Y-15048341D01*
X13331353Y-15048341D02*
X13312305Y-15038817D01*
X13312305Y-15038817D02*
X13283734Y-15038817D01*
X13283734Y-15038817D02*
X13264686Y-15029293D01*
X13264686Y-15029293D02*
X13255162Y-15010246D01*
X13255162Y-15010246D02*
X13255162Y-15000722D01*
X13255162Y-15000722D02*
X13264686Y-14981674D01*
X13264686Y-14981674D02*
X13283734Y-14972150D01*
X13283734Y-14972150D02*
X13312305Y-14972150D01*
X13312305Y-14972150D02*
X13331353Y-14981674D01*
X13407543Y-15181674D02*
X13417067Y-15172150D01*
X13417067Y-15172150D02*
X13436115Y-15143579D01*
X13436115Y-15143579D02*
X13445639Y-15124531D01*
X13445639Y-15124531D02*
X13455162Y-15095960D01*
X13455162Y-15095960D02*
X13464686Y-15048341D01*
X13464686Y-15048341D02*
X13464686Y-15010246D01*
X13464686Y-15010246D02*
X13455162Y-14962627D01*
X13455162Y-14962627D02*
X13445639Y-14934055D01*
X13445639Y-14934055D02*
X13436115Y-14915008D01*
X13436115Y-14915008D02*
X13417067Y-14886436D01*
X13417067Y-14886436D02*
X13407543Y-14876912D01*
D11*
X8612481Y-15258000D02*
X8612481Y-15298000D01*
X8592481Y-15278000D02*
X8632481Y-15278000D01*
D10*
X8931353Y-15169484D02*
X8950400Y-15169484D01*
X8950400Y-15169484D02*
X8969448Y-15179008D01*
X8969448Y-15179008D02*
X8978972Y-15188531D01*
X8978972Y-15188531D02*
X8988495Y-15207579D01*
X8988495Y-15207579D02*
X8998019Y-15245674D01*
X8998019Y-15245674D02*
X8998019Y-15293293D01*
X8998019Y-15293293D02*
X8988495Y-15331388D01*
X8988495Y-15331388D02*
X8978972Y-15350436D01*
X8978972Y-15350436D02*
X8969448Y-15359960D01*
X8969448Y-15359960D02*
X8950400Y-15369484D01*
X8950400Y-15369484D02*
X8931353Y-15369484D01*
X8931353Y-15369484D02*
X8912305Y-15359960D01*
X8912305Y-15359960D02*
X8902781Y-15350436D01*
X8902781Y-15350436D02*
X8893257Y-15331388D01*
X8893257Y-15331388D02*
X8883734Y-15293293D01*
X8883734Y-15293293D02*
X8883734Y-15245674D01*
X8883734Y-15245674D02*
X8893257Y-15207579D01*
X8893257Y-15207579D02*
X8902781Y-15188531D01*
X8902781Y-15188531D02*
X8912305Y-15179008D01*
X8912305Y-15179008D02*
X8931353Y-15169484D01*
X9083734Y-15350436D02*
X9093257Y-15359960D01*
X9093257Y-15359960D02*
X9083734Y-15369484D01*
X9083734Y-15369484D02*
X9074210Y-15359960D01*
X9074210Y-15359960D02*
X9083734Y-15350436D01*
X9083734Y-15350436D02*
X9083734Y-15369484D01*
X9264686Y-15236150D02*
X9264686Y-15369484D01*
X9217067Y-15159960D02*
X9169448Y-15302817D01*
X9169448Y-15302817D02*
X9293257Y-15302817D01*
X9407543Y-15169484D02*
X9426591Y-15169484D01*
X9426591Y-15169484D02*
X9445638Y-15179008D01*
X9445638Y-15179008D02*
X9455162Y-15188531D01*
X9455162Y-15188531D02*
X9464686Y-15207579D01*
X9464686Y-15207579D02*
X9474210Y-15245674D01*
X9474210Y-15245674D02*
X9474210Y-15293293D01*
X9474210Y-15293293D02*
X9464686Y-15331388D01*
X9464686Y-15331388D02*
X9455162Y-15350436D01*
X9455162Y-15350436D02*
X9445638Y-15359960D01*
X9445638Y-15359960D02*
X9426591Y-15369484D01*
X9426591Y-15369484D02*
X9407543Y-15369484D01*
X9407543Y-15369484D02*
X9388495Y-15359960D01*
X9388495Y-15359960D02*
X9378972Y-15350436D01*
X9378972Y-15350436D02*
X9369448Y-15331388D01*
X9369448Y-15331388D02*
X9359924Y-15293293D01*
X9359924Y-15293293D02*
X9359924Y-15245674D01*
X9359924Y-15245674D02*
X9369448Y-15207579D01*
X9369448Y-15207579D02*
X9378972Y-15188531D01*
X9378972Y-15188531D02*
X9388495Y-15179008D01*
X9388495Y-15179008D02*
X9407543Y-15169484D01*
X9598019Y-15169484D02*
X9617067Y-15169484D01*
X9617067Y-15169484D02*
X9636115Y-15179008D01*
X9636115Y-15179008D02*
X9645638Y-15188531D01*
X9645638Y-15188531D02*
X9655162Y-15207579D01*
X9655162Y-15207579D02*
X9664686Y-15245674D01*
X9664686Y-15245674D02*
X9664686Y-15293293D01*
X9664686Y-15293293D02*
X9655162Y-15331388D01*
X9655162Y-15331388D02*
X9645638Y-15350436D01*
X9645638Y-15350436D02*
X9636115Y-15359960D01*
X9636115Y-15359960D02*
X9617067Y-15369484D01*
X9617067Y-15369484D02*
X9598019Y-15369484D01*
X9598019Y-15369484D02*
X9578972Y-15359960D01*
X9578972Y-15359960D02*
X9569448Y-15350436D01*
X9569448Y-15350436D02*
X9559924Y-15331388D01*
X9559924Y-15331388D02*
X9550400Y-15293293D01*
X9550400Y-15293293D02*
X9550400Y-15245674D01*
X9550400Y-15245674D02*
X9559924Y-15207579D01*
X9559924Y-15207579D02*
X9569448Y-15188531D01*
X9569448Y-15188531D02*
X9578972Y-15179008D01*
X9578972Y-15179008D02*
X9598019Y-15169484D01*
X9750400Y-15369484D02*
X9750400Y-15236150D01*
X9750400Y-15255198D02*
X9759924Y-15245674D01*
X9759924Y-15245674D02*
X9778972Y-15236150D01*
X9778972Y-15236150D02*
X9807543Y-15236150D01*
X9807543Y-15236150D02*
X9826591Y-15245674D01*
X9826591Y-15245674D02*
X9836115Y-15264722D01*
X9836115Y-15264722D02*
X9836115Y-15369484D01*
X9836115Y-15264722D02*
X9845638Y-15245674D01*
X9845638Y-15245674D02*
X9864686Y-15236150D01*
X9864686Y-15236150D02*
X9893257Y-15236150D01*
X9893257Y-15236150D02*
X9912305Y-15245674D01*
X9912305Y-15245674D02*
X9921829Y-15264722D01*
X9921829Y-15264722D02*
X9921829Y-15369484D01*
X10017067Y-15369484D02*
X10017067Y-15236150D01*
X10017067Y-15255198D02*
X10026591Y-15245674D01*
X10026591Y-15245674D02*
X10045638Y-15236150D01*
X10045638Y-15236150D02*
X10074210Y-15236150D01*
X10074210Y-15236150D02*
X10093257Y-15245674D01*
X10093257Y-15245674D02*
X10102781Y-15264722D01*
X10102781Y-15264722D02*
X10102781Y-15369484D01*
X10102781Y-15264722D02*
X10112305Y-15245674D01*
X10112305Y-15245674D02*
X10131353Y-15236150D01*
X10131353Y-15236150D02*
X10159924Y-15236150D01*
X10159924Y-15236150D02*
X10178972Y-15245674D01*
X10178972Y-15245674D02*
X10188496Y-15264722D01*
X10188496Y-15264722D02*
X10188496Y-15369484D01*
X10578972Y-15159960D02*
X10407543Y-15417103D01*
X10836115Y-15169484D02*
X10855162Y-15169484D01*
X10855162Y-15169484D02*
X10874210Y-15179008D01*
X10874210Y-15179008D02*
X10883734Y-15188531D01*
X10883734Y-15188531D02*
X10893258Y-15207579D01*
X10893258Y-15207579D02*
X10902781Y-15245674D01*
X10902781Y-15245674D02*
X10902781Y-15293293D01*
X10902781Y-15293293D02*
X10893258Y-15331388D01*
X10893258Y-15331388D02*
X10883734Y-15350436D01*
X10883734Y-15350436D02*
X10874210Y-15359960D01*
X10874210Y-15359960D02*
X10855162Y-15369484D01*
X10855162Y-15369484D02*
X10836115Y-15369484D01*
X10836115Y-15369484D02*
X10817067Y-15359960D01*
X10817067Y-15359960D02*
X10807543Y-15350436D01*
X10807543Y-15350436D02*
X10798019Y-15331388D01*
X10798019Y-15331388D02*
X10788496Y-15293293D01*
X10788496Y-15293293D02*
X10788496Y-15245674D01*
X10788496Y-15245674D02*
X10798019Y-15207579D01*
X10798019Y-15207579D02*
X10807543Y-15188531D01*
X10807543Y-15188531D02*
X10817067Y-15179008D01*
X10817067Y-15179008D02*
X10836115Y-15169484D01*
X10988496Y-15350436D02*
X10998019Y-15359960D01*
X10998019Y-15359960D02*
X10988496Y-15369484D01*
X10988496Y-15369484D02*
X10978972Y-15359960D01*
X10978972Y-15359960D02*
X10988496Y-15350436D01*
X10988496Y-15350436D02*
X10988496Y-15369484D01*
X11121829Y-15169484D02*
X11140877Y-15169484D01*
X11140877Y-15169484D02*
X11159924Y-15179008D01*
X11159924Y-15179008D02*
X11169448Y-15188531D01*
X11169448Y-15188531D02*
X11178972Y-15207579D01*
X11178972Y-15207579D02*
X11188496Y-15245674D01*
X11188496Y-15245674D02*
X11188496Y-15293293D01*
X11188496Y-15293293D02*
X11178972Y-15331388D01*
X11178972Y-15331388D02*
X11169448Y-15350436D01*
X11169448Y-15350436D02*
X11159924Y-15359960D01*
X11159924Y-15359960D02*
X11140877Y-15369484D01*
X11140877Y-15369484D02*
X11121829Y-15369484D01*
X11121829Y-15369484D02*
X11102781Y-15359960D01*
X11102781Y-15359960D02*
X11093258Y-15350436D01*
X11093258Y-15350436D02*
X11083734Y-15331388D01*
X11083734Y-15331388D02*
X11074210Y-15293293D01*
X11074210Y-15293293D02*
X11074210Y-15245674D01*
X11074210Y-15245674D02*
X11083734Y-15207579D01*
X11083734Y-15207579D02*
X11093258Y-15188531D01*
X11093258Y-15188531D02*
X11102781Y-15179008D01*
X11102781Y-15179008D02*
X11121829Y-15169484D01*
X11378972Y-15369484D02*
X11264686Y-15369484D01*
X11321829Y-15369484D02*
X11321829Y-15169484D01*
X11321829Y-15169484D02*
X11302781Y-15198055D01*
X11302781Y-15198055D02*
X11283734Y-15217103D01*
X11283734Y-15217103D02*
X11264686Y-15226627D01*
X11559924Y-15169484D02*
X11464686Y-15169484D01*
X11464686Y-15169484D02*
X11455162Y-15264722D01*
X11455162Y-15264722D02*
X11464686Y-15255198D01*
X11464686Y-15255198D02*
X11483734Y-15245674D01*
X11483734Y-15245674D02*
X11531353Y-15245674D01*
X11531353Y-15245674D02*
X11550400Y-15255198D01*
X11550400Y-15255198D02*
X11559924Y-15264722D01*
X11559924Y-15264722D02*
X11569448Y-15283769D01*
X11569448Y-15283769D02*
X11569448Y-15331388D01*
X11569448Y-15331388D02*
X11559924Y-15350436D01*
X11559924Y-15350436D02*
X11550400Y-15359960D01*
X11550400Y-15359960D02*
X11531353Y-15369484D01*
X11531353Y-15369484D02*
X11483734Y-15369484D01*
X11483734Y-15369484D02*
X11464686Y-15359960D01*
X11464686Y-15359960D02*
X11455162Y-15350436D01*
X11636115Y-15169484D02*
X11769448Y-15169484D01*
X11769448Y-15169484D02*
X11683734Y-15369484D01*
X11836115Y-15169484D02*
X11836115Y-15207579D01*
X11912305Y-15169484D02*
X11912305Y-15207579D01*
X12207543Y-15445674D02*
X12198019Y-15436150D01*
X12198019Y-15436150D02*
X12178972Y-15407579D01*
X12178972Y-15407579D02*
X12169448Y-15388531D01*
X12169448Y-15388531D02*
X12159924Y-15359960D01*
X12159924Y-15359960D02*
X12150400Y-15312341D01*
X12150400Y-15312341D02*
X12150400Y-15274246D01*
X12150400Y-15274246D02*
X12159924Y-15226627D01*
X12159924Y-15226627D02*
X12169448Y-15198055D01*
X12169448Y-15198055D02*
X12178972Y-15179008D01*
X12178972Y-15179008D02*
X12198019Y-15150436D01*
X12198019Y-15150436D02*
X12207543Y-15140912D01*
X12264686Y-15169484D02*
X12398019Y-15169484D01*
X12398019Y-15169484D02*
X12312305Y-15369484D01*
X12559924Y-15236150D02*
X12559924Y-15369484D01*
X12512305Y-15159960D02*
X12464686Y-15302817D01*
X12464686Y-15302817D02*
X12588496Y-15302817D01*
X12817067Y-15369484D02*
X12817067Y-15169484D01*
X12902781Y-15369484D02*
X12902781Y-15264722D01*
X12902781Y-15264722D02*
X12893258Y-15245674D01*
X12893258Y-15245674D02*
X12874210Y-15236150D01*
X12874210Y-15236150D02*
X12845639Y-15236150D01*
X12845639Y-15236150D02*
X12826591Y-15245674D01*
X12826591Y-15245674D02*
X12817067Y-15255198D01*
X13026591Y-15369484D02*
X13007543Y-15359960D01*
X13007543Y-15359960D02*
X12998020Y-15350436D01*
X12998020Y-15350436D02*
X12988496Y-15331388D01*
X12988496Y-15331388D02*
X12988496Y-15274246D01*
X12988496Y-15274246D02*
X12998020Y-15255198D01*
X12998020Y-15255198D02*
X13007543Y-15245674D01*
X13007543Y-15245674D02*
X13026591Y-15236150D01*
X13026591Y-15236150D02*
X13055162Y-15236150D01*
X13055162Y-15236150D02*
X13074210Y-15245674D01*
X13074210Y-15245674D02*
X13083734Y-15255198D01*
X13083734Y-15255198D02*
X13093258Y-15274246D01*
X13093258Y-15274246D02*
X13093258Y-15331388D01*
X13093258Y-15331388D02*
X13083734Y-15350436D01*
X13083734Y-15350436D02*
X13074210Y-15359960D01*
X13074210Y-15359960D02*
X13055162Y-15369484D01*
X13055162Y-15369484D02*
X13026591Y-15369484D01*
X13207543Y-15369484D02*
X13188496Y-15359960D01*
X13188496Y-15359960D02*
X13178972Y-15340912D01*
X13178972Y-15340912D02*
X13178972Y-15169484D01*
X13359924Y-15359960D02*
X13340877Y-15369484D01*
X13340877Y-15369484D02*
X13302781Y-15369484D01*
X13302781Y-15369484D02*
X13283734Y-15359960D01*
X13283734Y-15359960D02*
X13274210Y-15340912D01*
X13274210Y-15340912D02*
X13274210Y-15264722D01*
X13274210Y-15264722D02*
X13283734Y-15245674D01*
X13283734Y-15245674D02*
X13302781Y-15236150D01*
X13302781Y-15236150D02*
X13340877Y-15236150D01*
X13340877Y-15236150D02*
X13359924Y-15245674D01*
X13359924Y-15245674D02*
X13369448Y-15264722D01*
X13369448Y-15264722D02*
X13369448Y-15283769D01*
X13369448Y-15283769D02*
X13274210Y-15302817D01*
X13445639Y-15359960D02*
X13464686Y-15369484D01*
X13464686Y-15369484D02*
X13502781Y-15369484D01*
X13502781Y-15369484D02*
X13521829Y-15359960D01*
X13521829Y-15359960D02*
X13531353Y-15340912D01*
X13531353Y-15340912D02*
X13531353Y-15331388D01*
X13531353Y-15331388D02*
X13521829Y-15312341D01*
X13521829Y-15312341D02*
X13502781Y-15302817D01*
X13502781Y-15302817D02*
X13474210Y-15302817D01*
X13474210Y-15302817D02*
X13455162Y-15293293D01*
X13455162Y-15293293D02*
X13445639Y-15274246D01*
X13445639Y-15274246D02*
X13445639Y-15264722D01*
X13445639Y-15264722D02*
X13455162Y-15245674D01*
X13455162Y-15245674D02*
X13474210Y-15236150D01*
X13474210Y-15236150D02*
X13502781Y-15236150D01*
X13502781Y-15236150D02*
X13521829Y-15245674D01*
X13598020Y-15445674D02*
X13607543Y-15436150D01*
X13607543Y-15436150D02*
X13626591Y-15407579D01*
X13626591Y-15407579D02*
X13636115Y-15388531D01*
X13636115Y-15388531D02*
X13645639Y-15359960D01*
X13645639Y-15359960D02*
X13655162Y-15312341D01*
X13655162Y-15312341D02*
X13655162Y-15274246D01*
X13655162Y-15274246D02*
X13645639Y-15226627D01*
X13645639Y-15226627D02*
X13636115Y-15198055D01*
X13636115Y-15198055D02*
X13626591Y-15179008D01*
X13626591Y-15179008D02*
X13607543Y-15150436D01*
X13607543Y-15150436D02*
X13598020Y-15140912D01*
D11*
X8623694Y-15563213D02*
X8623694Y-15520787D01*
X8581267Y-15520787D01*
X8581267Y-15563213D01*
X8623694Y-15563213D01*
D10*
X8931353Y-15433484D02*
X8950400Y-15433484D01*
X8950400Y-15433484D02*
X8969448Y-15443008D01*
X8969448Y-15443008D02*
X8978972Y-15452531D01*
X8978972Y-15452531D02*
X8988495Y-15471579D01*
X8988495Y-15471579D02*
X8998019Y-15509674D01*
X8998019Y-15509674D02*
X8998019Y-15557293D01*
X8998019Y-15557293D02*
X8988495Y-15595388D01*
X8988495Y-15595388D02*
X8978972Y-15614436D01*
X8978972Y-15614436D02*
X8969448Y-15623960D01*
X8969448Y-15623960D02*
X8950400Y-15633484D01*
X8950400Y-15633484D02*
X8931353Y-15633484D01*
X8931353Y-15633484D02*
X8912305Y-15623960D01*
X8912305Y-15623960D02*
X8902781Y-15614436D01*
X8902781Y-15614436D02*
X8893257Y-15595388D01*
X8893257Y-15595388D02*
X8883734Y-15557293D01*
X8883734Y-15557293D02*
X8883734Y-15509674D01*
X8883734Y-15509674D02*
X8893257Y-15471579D01*
X8893257Y-15471579D02*
X8902781Y-15452531D01*
X8902781Y-15452531D02*
X8912305Y-15443008D01*
X8912305Y-15443008D02*
X8931353Y-15433484D01*
X9083734Y-15614436D02*
X9093257Y-15623960D01*
X9093257Y-15623960D02*
X9083734Y-15633484D01*
X9083734Y-15633484D02*
X9074210Y-15623960D01*
X9074210Y-15623960D02*
X9083734Y-15614436D01*
X9083734Y-15614436D02*
X9083734Y-15633484D01*
X9264686Y-15433484D02*
X9226591Y-15433484D01*
X9226591Y-15433484D02*
X9207543Y-15443008D01*
X9207543Y-15443008D02*
X9198019Y-15452531D01*
X9198019Y-15452531D02*
X9178972Y-15481103D01*
X9178972Y-15481103D02*
X9169448Y-15519198D01*
X9169448Y-15519198D02*
X9169448Y-15595388D01*
X9169448Y-15595388D02*
X9178972Y-15614436D01*
X9178972Y-15614436D02*
X9188495Y-15623960D01*
X9188495Y-15623960D02*
X9207543Y-15633484D01*
X9207543Y-15633484D02*
X9245638Y-15633484D01*
X9245638Y-15633484D02*
X9264686Y-15623960D01*
X9264686Y-15623960D02*
X9274210Y-15614436D01*
X9274210Y-15614436D02*
X9283734Y-15595388D01*
X9283734Y-15595388D02*
X9283734Y-15547769D01*
X9283734Y-15547769D02*
X9274210Y-15528722D01*
X9274210Y-15528722D02*
X9264686Y-15519198D01*
X9264686Y-15519198D02*
X9245638Y-15509674D01*
X9245638Y-15509674D02*
X9207543Y-15509674D01*
X9207543Y-15509674D02*
X9188495Y-15519198D01*
X9188495Y-15519198D02*
X9178972Y-15528722D01*
X9178972Y-15528722D02*
X9169448Y-15547769D01*
X9407543Y-15433484D02*
X9426591Y-15433484D01*
X9426591Y-15433484D02*
X9445638Y-15443008D01*
X9445638Y-15443008D02*
X9455162Y-15452531D01*
X9455162Y-15452531D02*
X9464686Y-15471579D01*
X9464686Y-15471579D02*
X9474210Y-15509674D01*
X9474210Y-15509674D02*
X9474210Y-15557293D01*
X9474210Y-15557293D02*
X9464686Y-15595388D01*
X9464686Y-15595388D02*
X9455162Y-15614436D01*
X9455162Y-15614436D02*
X9445638Y-15623960D01*
X9445638Y-15623960D02*
X9426591Y-15633484D01*
X9426591Y-15633484D02*
X9407543Y-15633484D01*
X9407543Y-15633484D02*
X9388495Y-15623960D01*
X9388495Y-15623960D02*
X9378972Y-15614436D01*
X9378972Y-15614436D02*
X9369448Y-15595388D01*
X9369448Y-15595388D02*
X9359924Y-15557293D01*
X9359924Y-15557293D02*
X9359924Y-15509674D01*
X9359924Y-15509674D02*
X9369448Y-15471579D01*
X9369448Y-15471579D02*
X9378972Y-15452531D01*
X9378972Y-15452531D02*
X9388495Y-15443008D01*
X9388495Y-15443008D02*
X9407543Y-15433484D01*
X9598019Y-15433484D02*
X9617067Y-15433484D01*
X9617067Y-15433484D02*
X9636115Y-15443008D01*
X9636115Y-15443008D02*
X9645638Y-15452531D01*
X9645638Y-15452531D02*
X9655162Y-15471579D01*
X9655162Y-15471579D02*
X9664686Y-15509674D01*
X9664686Y-15509674D02*
X9664686Y-15557293D01*
X9664686Y-15557293D02*
X9655162Y-15595388D01*
X9655162Y-15595388D02*
X9645638Y-15614436D01*
X9645638Y-15614436D02*
X9636115Y-15623960D01*
X9636115Y-15623960D02*
X9617067Y-15633484D01*
X9617067Y-15633484D02*
X9598019Y-15633484D01*
X9598019Y-15633484D02*
X9578972Y-15623960D01*
X9578972Y-15623960D02*
X9569448Y-15614436D01*
X9569448Y-15614436D02*
X9559924Y-15595388D01*
X9559924Y-15595388D02*
X9550400Y-15557293D01*
X9550400Y-15557293D02*
X9550400Y-15509674D01*
X9550400Y-15509674D02*
X9559924Y-15471579D01*
X9559924Y-15471579D02*
X9569448Y-15452531D01*
X9569448Y-15452531D02*
X9578972Y-15443008D01*
X9578972Y-15443008D02*
X9598019Y-15433484D01*
X9750400Y-15633484D02*
X9750400Y-15500150D01*
X9750400Y-15519198D02*
X9759924Y-15509674D01*
X9759924Y-15509674D02*
X9778972Y-15500150D01*
X9778972Y-15500150D02*
X9807543Y-15500150D01*
X9807543Y-15500150D02*
X9826591Y-15509674D01*
X9826591Y-15509674D02*
X9836115Y-15528722D01*
X9836115Y-15528722D02*
X9836115Y-15633484D01*
X9836115Y-15528722D02*
X9845638Y-15509674D01*
X9845638Y-15509674D02*
X9864686Y-15500150D01*
X9864686Y-15500150D02*
X9893257Y-15500150D01*
X9893257Y-15500150D02*
X9912305Y-15509674D01*
X9912305Y-15509674D02*
X9921829Y-15528722D01*
X9921829Y-15528722D02*
X9921829Y-15633484D01*
X10017067Y-15633484D02*
X10017067Y-15500150D01*
X10017067Y-15519198D02*
X10026591Y-15509674D01*
X10026591Y-15509674D02*
X10045638Y-15500150D01*
X10045638Y-15500150D02*
X10074210Y-15500150D01*
X10074210Y-15500150D02*
X10093257Y-15509674D01*
X10093257Y-15509674D02*
X10102781Y-15528722D01*
X10102781Y-15528722D02*
X10102781Y-15633484D01*
X10102781Y-15528722D02*
X10112305Y-15509674D01*
X10112305Y-15509674D02*
X10131353Y-15500150D01*
X10131353Y-15500150D02*
X10159924Y-15500150D01*
X10159924Y-15500150D02*
X10178972Y-15509674D01*
X10178972Y-15509674D02*
X10188496Y-15528722D01*
X10188496Y-15528722D02*
X10188496Y-15633484D01*
X10578972Y-15423960D02*
X10407543Y-15681103D01*
X10836115Y-15433484D02*
X10855162Y-15433484D01*
X10855162Y-15433484D02*
X10874210Y-15443008D01*
X10874210Y-15443008D02*
X10883734Y-15452531D01*
X10883734Y-15452531D02*
X10893258Y-15471579D01*
X10893258Y-15471579D02*
X10902781Y-15509674D01*
X10902781Y-15509674D02*
X10902781Y-15557293D01*
X10902781Y-15557293D02*
X10893258Y-15595388D01*
X10893258Y-15595388D02*
X10883734Y-15614436D01*
X10883734Y-15614436D02*
X10874210Y-15623960D01*
X10874210Y-15623960D02*
X10855162Y-15633484D01*
X10855162Y-15633484D02*
X10836115Y-15633484D01*
X10836115Y-15633484D02*
X10817067Y-15623960D01*
X10817067Y-15623960D02*
X10807543Y-15614436D01*
X10807543Y-15614436D02*
X10798019Y-15595388D01*
X10798019Y-15595388D02*
X10788496Y-15557293D01*
X10788496Y-15557293D02*
X10788496Y-15509674D01*
X10788496Y-15509674D02*
X10798019Y-15471579D01*
X10798019Y-15471579D02*
X10807543Y-15452531D01*
X10807543Y-15452531D02*
X10817067Y-15443008D01*
X10817067Y-15443008D02*
X10836115Y-15433484D01*
X10988496Y-15614436D02*
X10998019Y-15623960D01*
X10998019Y-15623960D02*
X10988496Y-15633484D01*
X10988496Y-15633484D02*
X10978972Y-15623960D01*
X10978972Y-15623960D02*
X10988496Y-15614436D01*
X10988496Y-15614436D02*
X10988496Y-15633484D01*
X11121829Y-15433484D02*
X11140877Y-15433484D01*
X11140877Y-15433484D02*
X11159924Y-15443008D01*
X11159924Y-15443008D02*
X11169448Y-15452531D01*
X11169448Y-15452531D02*
X11178972Y-15471579D01*
X11178972Y-15471579D02*
X11188496Y-15509674D01*
X11188496Y-15509674D02*
X11188496Y-15557293D01*
X11188496Y-15557293D02*
X11178972Y-15595388D01*
X11178972Y-15595388D02*
X11169448Y-15614436D01*
X11169448Y-15614436D02*
X11159924Y-15623960D01*
X11159924Y-15623960D02*
X11140877Y-15633484D01*
X11140877Y-15633484D02*
X11121829Y-15633484D01*
X11121829Y-15633484D02*
X11102781Y-15623960D01*
X11102781Y-15623960D02*
X11093258Y-15614436D01*
X11093258Y-15614436D02*
X11083734Y-15595388D01*
X11083734Y-15595388D02*
X11074210Y-15557293D01*
X11074210Y-15557293D02*
X11074210Y-15509674D01*
X11074210Y-15509674D02*
X11083734Y-15471579D01*
X11083734Y-15471579D02*
X11093258Y-15452531D01*
X11093258Y-15452531D02*
X11102781Y-15443008D01*
X11102781Y-15443008D02*
X11121829Y-15433484D01*
X11264686Y-15452531D02*
X11274210Y-15443008D01*
X11274210Y-15443008D02*
X11293257Y-15433484D01*
X11293257Y-15433484D02*
X11340877Y-15433484D01*
X11340877Y-15433484D02*
X11359924Y-15443008D01*
X11359924Y-15443008D02*
X11369448Y-15452531D01*
X11369448Y-15452531D02*
X11378972Y-15471579D01*
X11378972Y-15471579D02*
X11378972Y-15490627D01*
X11378972Y-15490627D02*
X11369448Y-15519198D01*
X11369448Y-15519198D02*
X11255162Y-15633484D01*
X11255162Y-15633484D02*
X11378972Y-15633484D01*
X11445638Y-15433484D02*
X11569448Y-15433484D01*
X11569448Y-15433484D02*
X11502781Y-15509674D01*
X11502781Y-15509674D02*
X11531353Y-15509674D01*
X11531353Y-15509674D02*
X11550400Y-15519198D01*
X11550400Y-15519198D02*
X11559924Y-15528722D01*
X11559924Y-15528722D02*
X11569448Y-15547769D01*
X11569448Y-15547769D02*
X11569448Y-15595388D01*
X11569448Y-15595388D02*
X11559924Y-15614436D01*
X11559924Y-15614436D02*
X11550400Y-15623960D01*
X11550400Y-15623960D02*
X11531353Y-15633484D01*
X11531353Y-15633484D02*
X11474210Y-15633484D01*
X11474210Y-15633484D02*
X11455162Y-15623960D01*
X11455162Y-15623960D02*
X11445638Y-15614436D01*
X11740877Y-15433484D02*
X11702781Y-15433484D01*
X11702781Y-15433484D02*
X11683734Y-15443008D01*
X11683734Y-15443008D02*
X11674210Y-15452531D01*
X11674210Y-15452531D02*
X11655162Y-15481103D01*
X11655162Y-15481103D02*
X11645638Y-15519198D01*
X11645638Y-15519198D02*
X11645638Y-15595388D01*
X11645638Y-15595388D02*
X11655162Y-15614436D01*
X11655162Y-15614436D02*
X11664686Y-15623960D01*
X11664686Y-15623960D02*
X11683734Y-15633484D01*
X11683734Y-15633484D02*
X11721829Y-15633484D01*
X11721829Y-15633484D02*
X11740877Y-15623960D01*
X11740877Y-15623960D02*
X11750400Y-15614436D01*
X11750400Y-15614436D02*
X11759924Y-15595388D01*
X11759924Y-15595388D02*
X11759924Y-15547769D01*
X11759924Y-15547769D02*
X11750400Y-15528722D01*
X11750400Y-15528722D02*
X11740877Y-15519198D01*
X11740877Y-15519198D02*
X11721829Y-15509674D01*
X11721829Y-15509674D02*
X11683734Y-15509674D01*
X11683734Y-15509674D02*
X11664686Y-15519198D01*
X11664686Y-15519198D02*
X11655162Y-15528722D01*
X11655162Y-15528722D02*
X11645638Y-15547769D01*
X11836115Y-15433484D02*
X11836115Y-15471579D01*
X11912305Y-15433484D02*
X11912305Y-15471579D01*
X12207543Y-15709674D02*
X12198019Y-15700150D01*
X12198019Y-15700150D02*
X12178972Y-15671579D01*
X12178972Y-15671579D02*
X12169448Y-15652531D01*
X12169448Y-15652531D02*
X12159924Y-15623960D01*
X12159924Y-15623960D02*
X12150400Y-15576341D01*
X12150400Y-15576341D02*
X12150400Y-15538246D01*
X12150400Y-15538246D02*
X12159924Y-15490627D01*
X12159924Y-15490627D02*
X12169448Y-15462055D01*
X12169448Y-15462055D02*
X12178972Y-15443008D01*
X12178972Y-15443008D02*
X12198019Y-15414436D01*
X12198019Y-15414436D02*
X12207543Y-15404912D01*
X12321829Y-15433484D02*
X12340877Y-15433484D01*
X12340877Y-15433484D02*
X12359924Y-15443008D01*
X12359924Y-15443008D02*
X12369448Y-15452531D01*
X12369448Y-15452531D02*
X12378972Y-15471579D01*
X12378972Y-15471579D02*
X12388496Y-15509674D01*
X12388496Y-15509674D02*
X12388496Y-15557293D01*
X12388496Y-15557293D02*
X12378972Y-15595388D01*
X12378972Y-15595388D02*
X12369448Y-15614436D01*
X12369448Y-15614436D02*
X12359924Y-15623960D01*
X12359924Y-15623960D02*
X12340877Y-15633484D01*
X12340877Y-15633484D02*
X12321829Y-15633484D01*
X12321829Y-15633484D02*
X12302781Y-15623960D01*
X12302781Y-15623960D02*
X12293258Y-15614436D01*
X12293258Y-15614436D02*
X12283734Y-15595388D01*
X12283734Y-15595388D02*
X12274210Y-15557293D01*
X12274210Y-15557293D02*
X12274210Y-15509674D01*
X12274210Y-15509674D02*
X12283734Y-15471579D01*
X12283734Y-15471579D02*
X12293258Y-15452531D01*
X12293258Y-15452531D02*
X12302781Y-15443008D01*
X12302781Y-15443008D02*
X12321829Y-15433484D01*
X12626591Y-15633484D02*
X12626591Y-15433484D01*
X12712305Y-15633484D02*
X12712305Y-15528722D01*
X12712305Y-15528722D02*
X12702781Y-15509674D01*
X12702781Y-15509674D02*
X12683734Y-15500150D01*
X12683734Y-15500150D02*
X12655162Y-15500150D01*
X12655162Y-15500150D02*
X12636115Y-15509674D01*
X12636115Y-15509674D02*
X12626591Y-15519198D01*
X12836115Y-15633484D02*
X12817067Y-15623960D01*
X12817067Y-15623960D02*
X12807543Y-15614436D01*
X12807543Y-15614436D02*
X12798020Y-15595388D01*
X12798020Y-15595388D02*
X12798020Y-15538246D01*
X12798020Y-15538246D02*
X12807543Y-15519198D01*
X12807543Y-15519198D02*
X12817067Y-15509674D01*
X12817067Y-15509674D02*
X12836115Y-15500150D01*
X12836115Y-15500150D02*
X12864686Y-15500150D01*
X12864686Y-15500150D02*
X12883734Y-15509674D01*
X12883734Y-15509674D02*
X12893258Y-15519198D01*
X12893258Y-15519198D02*
X12902781Y-15538246D01*
X12902781Y-15538246D02*
X12902781Y-15595388D01*
X12902781Y-15595388D02*
X12893258Y-15614436D01*
X12893258Y-15614436D02*
X12883734Y-15623960D01*
X12883734Y-15623960D02*
X12864686Y-15633484D01*
X12864686Y-15633484D02*
X12836115Y-15633484D01*
X13017067Y-15633484D02*
X12998020Y-15623960D01*
X12998020Y-15623960D02*
X12988496Y-15604912D01*
X12988496Y-15604912D02*
X12988496Y-15433484D01*
X13169448Y-15623960D02*
X13150401Y-15633484D01*
X13150401Y-15633484D02*
X13112305Y-15633484D01*
X13112305Y-15633484D02*
X13093258Y-15623960D01*
X13093258Y-15623960D02*
X13083734Y-15604912D01*
X13083734Y-15604912D02*
X13083734Y-15528722D01*
X13083734Y-15528722D02*
X13093258Y-15509674D01*
X13093258Y-15509674D02*
X13112305Y-15500150D01*
X13112305Y-15500150D02*
X13150401Y-15500150D01*
X13150401Y-15500150D02*
X13169448Y-15509674D01*
X13169448Y-15509674D02*
X13178972Y-15528722D01*
X13178972Y-15528722D02*
X13178972Y-15547769D01*
X13178972Y-15547769D02*
X13083734Y-15566817D01*
X13255162Y-15623960D02*
X13274210Y-15633484D01*
X13274210Y-15633484D02*
X13312305Y-15633484D01*
X13312305Y-15633484D02*
X13331353Y-15623960D01*
X13331353Y-15623960D02*
X13340877Y-15604912D01*
X13340877Y-15604912D02*
X13340877Y-15595388D01*
X13340877Y-15595388D02*
X13331353Y-15576341D01*
X13331353Y-15576341D02*
X13312305Y-15566817D01*
X13312305Y-15566817D02*
X13283734Y-15566817D01*
X13283734Y-15566817D02*
X13264686Y-15557293D01*
X13264686Y-15557293D02*
X13255162Y-15538246D01*
X13255162Y-15538246D02*
X13255162Y-15528722D01*
X13255162Y-15528722D02*
X13264686Y-15509674D01*
X13264686Y-15509674D02*
X13283734Y-15500150D01*
X13283734Y-15500150D02*
X13312305Y-15500150D01*
X13312305Y-15500150D02*
X13331353Y-15509674D01*
X13578972Y-15557293D02*
X13731353Y-15557293D01*
X13655163Y-15633484D02*
X13655163Y-15481103D01*
X14064686Y-15500150D02*
X14064686Y-15633484D01*
X14017067Y-15423960D02*
X13969448Y-15566817D01*
X13969448Y-15566817D02*
X14093258Y-15566817D01*
X14312305Y-15623960D02*
X14331353Y-15633484D01*
X14331353Y-15633484D02*
X14369448Y-15633484D01*
X14369448Y-15633484D02*
X14388496Y-15623960D01*
X14388496Y-15623960D02*
X14398020Y-15604912D01*
X14398020Y-15604912D02*
X14398020Y-15595388D01*
X14398020Y-15595388D02*
X14388496Y-15576341D01*
X14388496Y-15576341D02*
X14369448Y-15566817D01*
X14369448Y-15566817D02*
X14340877Y-15566817D01*
X14340877Y-15566817D02*
X14321829Y-15557293D01*
X14321829Y-15557293D02*
X14312305Y-15538246D01*
X14312305Y-15538246D02*
X14312305Y-15528722D01*
X14312305Y-15528722D02*
X14321829Y-15509674D01*
X14321829Y-15509674D02*
X14340877Y-15500150D01*
X14340877Y-15500150D02*
X14369448Y-15500150D01*
X14369448Y-15500150D02*
X14388496Y-15509674D01*
X14512305Y-15633484D02*
X14493258Y-15623960D01*
X14493258Y-15623960D02*
X14483734Y-15604912D01*
X14483734Y-15604912D02*
X14483734Y-15433484D01*
X14617067Y-15633484D02*
X14598020Y-15623960D01*
X14598020Y-15623960D02*
X14588496Y-15614436D01*
X14588496Y-15614436D02*
X14578972Y-15595388D01*
X14578972Y-15595388D02*
X14578972Y-15538246D01*
X14578972Y-15538246D02*
X14588496Y-15519198D01*
X14588496Y-15519198D02*
X14598020Y-15509674D01*
X14598020Y-15509674D02*
X14617067Y-15500150D01*
X14617067Y-15500150D02*
X14645639Y-15500150D01*
X14645639Y-15500150D02*
X14664686Y-15509674D01*
X14664686Y-15509674D02*
X14674210Y-15519198D01*
X14674210Y-15519198D02*
X14683734Y-15538246D01*
X14683734Y-15538246D02*
X14683734Y-15595388D01*
X14683734Y-15595388D02*
X14674210Y-15614436D01*
X14674210Y-15614436D02*
X14664686Y-15623960D01*
X14664686Y-15623960D02*
X14645639Y-15633484D01*
X14645639Y-15633484D02*
X14617067Y-15633484D01*
X14740877Y-15500150D02*
X14817067Y-15500150D01*
X14769448Y-15433484D02*
X14769448Y-15604912D01*
X14769448Y-15604912D02*
X14778972Y-15623960D01*
X14778972Y-15623960D02*
X14798020Y-15633484D01*
X14798020Y-15633484D02*
X14817067Y-15633484D01*
X14874210Y-15623960D02*
X14893258Y-15633484D01*
X14893258Y-15633484D02*
X14931353Y-15633484D01*
X14931353Y-15633484D02*
X14950401Y-15623960D01*
X14950401Y-15623960D02*
X14959925Y-15604912D01*
X14959925Y-15604912D02*
X14959925Y-15595388D01*
X14959925Y-15595388D02*
X14950401Y-15576341D01*
X14950401Y-15576341D02*
X14931353Y-15566817D01*
X14931353Y-15566817D02*
X14902782Y-15566817D01*
X14902782Y-15566817D02*
X14883734Y-15557293D01*
X14883734Y-15557293D02*
X14874210Y-15538246D01*
X14874210Y-15538246D02*
X14874210Y-15528722D01*
X14874210Y-15528722D02*
X14883734Y-15509674D01*
X14883734Y-15509674D02*
X14902782Y-15500150D01*
X14902782Y-15500150D02*
X14931353Y-15500150D01*
X14931353Y-15500150D02*
X14950401Y-15509674D01*
X15026591Y-15709674D02*
X15036115Y-15700150D01*
X15036115Y-15700150D02*
X15055163Y-15671579D01*
X15055163Y-15671579D02*
X15064686Y-15652531D01*
X15064686Y-15652531D02*
X15074210Y-15623960D01*
X15074210Y-15623960D02*
X15083734Y-15576341D01*
X15083734Y-15576341D02*
X15083734Y-15538246D01*
X15083734Y-15538246D02*
X15074210Y-15490627D01*
X15074210Y-15490627D02*
X15064686Y-15462055D01*
X15064686Y-15462055D02*
X15055163Y-15443008D01*
X15055163Y-15443008D02*
X15036115Y-15414436D01*
X15036115Y-15414436D02*
X15026591Y-15404912D01*
D11*
X8594381Y-15844100D02*
X8632481Y-15806000D01*
X8594381Y-15767900D01*
X8556281Y-15806000D01*
X8594381Y-15844100D01*
D10*
X8931353Y-15697484D02*
X8950400Y-15697484D01*
X8950400Y-15697484D02*
X8969448Y-15707008D01*
X8969448Y-15707008D02*
X8978972Y-15716531D01*
X8978972Y-15716531D02*
X8988495Y-15735579D01*
X8988495Y-15735579D02*
X8998019Y-15773674D01*
X8998019Y-15773674D02*
X8998019Y-15821293D01*
X8998019Y-15821293D02*
X8988495Y-15859388D01*
X8988495Y-15859388D02*
X8978972Y-15878436D01*
X8978972Y-15878436D02*
X8969448Y-15887960D01*
X8969448Y-15887960D02*
X8950400Y-15897484D01*
X8950400Y-15897484D02*
X8931353Y-15897484D01*
X8931353Y-15897484D02*
X8912305Y-15887960D01*
X8912305Y-15887960D02*
X8902781Y-15878436D01*
X8902781Y-15878436D02*
X8893257Y-15859388D01*
X8893257Y-15859388D02*
X8883734Y-15821293D01*
X8883734Y-15821293D02*
X8883734Y-15773674D01*
X8883734Y-15773674D02*
X8893257Y-15735579D01*
X8893257Y-15735579D02*
X8902781Y-15716531D01*
X8902781Y-15716531D02*
X8912305Y-15707008D01*
X8912305Y-15707008D02*
X8931353Y-15697484D01*
X9083734Y-15878436D02*
X9093257Y-15887960D01*
X9093257Y-15887960D02*
X9083734Y-15897484D01*
X9083734Y-15897484D02*
X9074210Y-15887960D01*
X9074210Y-15887960D02*
X9083734Y-15878436D01*
X9083734Y-15878436D02*
X9083734Y-15897484D01*
X9159924Y-15697484D02*
X9293257Y-15697484D01*
X9293257Y-15697484D02*
X9207543Y-15897484D01*
X9455162Y-15697484D02*
X9417067Y-15697484D01*
X9417067Y-15697484D02*
X9398019Y-15707008D01*
X9398019Y-15707008D02*
X9388495Y-15716531D01*
X9388495Y-15716531D02*
X9369448Y-15745103D01*
X9369448Y-15745103D02*
X9359924Y-15783198D01*
X9359924Y-15783198D02*
X9359924Y-15859388D01*
X9359924Y-15859388D02*
X9369448Y-15878436D01*
X9369448Y-15878436D02*
X9378972Y-15887960D01*
X9378972Y-15887960D02*
X9398019Y-15897484D01*
X9398019Y-15897484D02*
X9436115Y-15897484D01*
X9436115Y-15897484D02*
X9455162Y-15887960D01*
X9455162Y-15887960D02*
X9464686Y-15878436D01*
X9464686Y-15878436D02*
X9474210Y-15859388D01*
X9474210Y-15859388D02*
X9474210Y-15811769D01*
X9474210Y-15811769D02*
X9464686Y-15792722D01*
X9464686Y-15792722D02*
X9455162Y-15783198D01*
X9455162Y-15783198D02*
X9436115Y-15773674D01*
X9436115Y-15773674D02*
X9398019Y-15773674D01*
X9398019Y-15773674D02*
X9378972Y-15783198D01*
X9378972Y-15783198D02*
X9369448Y-15792722D01*
X9369448Y-15792722D02*
X9359924Y-15811769D01*
X9550400Y-15716531D02*
X9559924Y-15707008D01*
X9559924Y-15707008D02*
X9578972Y-15697484D01*
X9578972Y-15697484D02*
X9626591Y-15697484D01*
X9626591Y-15697484D02*
X9645638Y-15707008D01*
X9645638Y-15707008D02*
X9655162Y-15716531D01*
X9655162Y-15716531D02*
X9664686Y-15735579D01*
X9664686Y-15735579D02*
X9664686Y-15754627D01*
X9664686Y-15754627D02*
X9655162Y-15783198D01*
X9655162Y-15783198D02*
X9540876Y-15897484D01*
X9540876Y-15897484D02*
X9664686Y-15897484D01*
X9750400Y-15897484D02*
X9750400Y-15764150D01*
X9750400Y-15783198D02*
X9759924Y-15773674D01*
X9759924Y-15773674D02*
X9778972Y-15764150D01*
X9778972Y-15764150D02*
X9807543Y-15764150D01*
X9807543Y-15764150D02*
X9826591Y-15773674D01*
X9826591Y-15773674D02*
X9836115Y-15792722D01*
X9836115Y-15792722D02*
X9836115Y-15897484D01*
X9836115Y-15792722D02*
X9845638Y-15773674D01*
X9845638Y-15773674D02*
X9864686Y-15764150D01*
X9864686Y-15764150D02*
X9893257Y-15764150D01*
X9893257Y-15764150D02*
X9912305Y-15773674D01*
X9912305Y-15773674D02*
X9921829Y-15792722D01*
X9921829Y-15792722D02*
X9921829Y-15897484D01*
X10017067Y-15897484D02*
X10017067Y-15764150D01*
X10017067Y-15783198D02*
X10026591Y-15773674D01*
X10026591Y-15773674D02*
X10045638Y-15764150D01*
X10045638Y-15764150D02*
X10074210Y-15764150D01*
X10074210Y-15764150D02*
X10093257Y-15773674D01*
X10093257Y-15773674D02*
X10102781Y-15792722D01*
X10102781Y-15792722D02*
X10102781Y-15897484D01*
X10102781Y-15792722D02*
X10112305Y-15773674D01*
X10112305Y-15773674D02*
X10131353Y-15764150D01*
X10131353Y-15764150D02*
X10159924Y-15764150D01*
X10159924Y-15764150D02*
X10178972Y-15773674D01*
X10178972Y-15773674D02*
X10188496Y-15792722D01*
X10188496Y-15792722D02*
X10188496Y-15897484D01*
X10578972Y-15687960D02*
X10407543Y-15945103D01*
X10836115Y-15697484D02*
X10855162Y-15697484D01*
X10855162Y-15697484D02*
X10874210Y-15707008D01*
X10874210Y-15707008D02*
X10883734Y-15716531D01*
X10883734Y-15716531D02*
X10893258Y-15735579D01*
X10893258Y-15735579D02*
X10902781Y-15773674D01*
X10902781Y-15773674D02*
X10902781Y-15821293D01*
X10902781Y-15821293D02*
X10893258Y-15859388D01*
X10893258Y-15859388D02*
X10883734Y-15878436D01*
X10883734Y-15878436D02*
X10874210Y-15887960D01*
X10874210Y-15887960D02*
X10855162Y-15897484D01*
X10855162Y-15897484D02*
X10836115Y-15897484D01*
X10836115Y-15897484D02*
X10817067Y-15887960D01*
X10817067Y-15887960D02*
X10807543Y-15878436D01*
X10807543Y-15878436D02*
X10798019Y-15859388D01*
X10798019Y-15859388D02*
X10788496Y-15821293D01*
X10788496Y-15821293D02*
X10788496Y-15773674D01*
X10788496Y-15773674D02*
X10798019Y-15735579D01*
X10798019Y-15735579D02*
X10807543Y-15716531D01*
X10807543Y-15716531D02*
X10817067Y-15707008D01*
X10817067Y-15707008D02*
X10836115Y-15697484D01*
X10988496Y-15878436D02*
X10998019Y-15887960D01*
X10998019Y-15887960D02*
X10988496Y-15897484D01*
X10988496Y-15897484D02*
X10978972Y-15887960D01*
X10978972Y-15887960D02*
X10988496Y-15878436D01*
X10988496Y-15878436D02*
X10988496Y-15897484D01*
X11121829Y-15697484D02*
X11140877Y-15697484D01*
X11140877Y-15697484D02*
X11159924Y-15707008D01*
X11159924Y-15707008D02*
X11169448Y-15716531D01*
X11169448Y-15716531D02*
X11178972Y-15735579D01*
X11178972Y-15735579D02*
X11188496Y-15773674D01*
X11188496Y-15773674D02*
X11188496Y-15821293D01*
X11188496Y-15821293D02*
X11178972Y-15859388D01*
X11178972Y-15859388D02*
X11169448Y-15878436D01*
X11169448Y-15878436D02*
X11159924Y-15887960D01*
X11159924Y-15887960D02*
X11140877Y-15897484D01*
X11140877Y-15897484D02*
X11121829Y-15897484D01*
X11121829Y-15897484D02*
X11102781Y-15887960D01*
X11102781Y-15887960D02*
X11093258Y-15878436D01*
X11093258Y-15878436D02*
X11083734Y-15859388D01*
X11083734Y-15859388D02*
X11074210Y-15821293D01*
X11074210Y-15821293D02*
X11074210Y-15773674D01*
X11074210Y-15773674D02*
X11083734Y-15735579D01*
X11083734Y-15735579D02*
X11093258Y-15716531D01*
X11093258Y-15716531D02*
X11102781Y-15707008D01*
X11102781Y-15707008D02*
X11121829Y-15697484D01*
X11255162Y-15697484D02*
X11378972Y-15697484D01*
X11378972Y-15697484D02*
X11312305Y-15773674D01*
X11312305Y-15773674D02*
X11340877Y-15773674D01*
X11340877Y-15773674D02*
X11359924Y-15783198D01*
X11359924Y-15783198D02*
X11369448Y-15792722D01*
X11369448Y-15792722D02*
X11378972Y-15811769D01*
X11378972Y-15811769D02*
X11378972Y-15859388D01*
X11378972Y-15859388D02*
X11369448Y-15878436D01*
X11369448Y-15878436D02*
X11359924Y-15887960D01*
X11359924Y-15887960D02*
X11340877Y-15897484D01*
X11340877Y-15897484D02*
X11283734Y-15897484D01*
X11283734Y-15897484D02*
X11264686Y-15887960D01*
X11264686Y-15887960D02*
X11255162Y-15878436D01*
X11502781Y-15697484D02*
X11521829Y-15697484D01*
X11521829Y-15697484D02*
X11540877Y-15707008D01*
X11540877Y-15707008D02*
X11550400Y-15716531D01*
X11550400Y-15716531D02*
X11559924Y-15735579D01*
X11559924Y-15735579D02*
X11569448Y-15773674D01*
X11569448Y-15773674D02*
X11569448Y-15821293D01*
X11569448Y-15821293D02*
X11559924Y-15859388D01*
X11559924Y-15859388D02*
X11550400Y-15878436D01*
X11550400Y-15878436D02*
X11540877Y-15887960D01*
X11540877Y-15887960D02*
X11521829Y-15897484D01*
X11521829Y-15897484D02*
X11502781Y-15897484D01*
X11502781Y-15897484D02*
X11483734Y-15887960D01*
X11483734Y-15887960D02*
X11474210Y-15878436D01*
X11474210Y-15878436D02*
X11464686Y-15859388D01*
X11464686Y-15859388D02*
X11455162Y-15821293D01*
X11455162Y-15821293D02*
X11455162Y-15773674D01*
X11455162Y-15773674D02*
X11464686Y-15735579D01*
X11464686Y-15735579D02*
X11474210Y-15716531D01*
X11474210Y-15716531D02*
X11483734Y-15707008D01*
X11483734Y-15707008D02*
X11502781Y-15697484D01*
X11693257Y-15697484D02*
X11712305Y-15697484D01*
X11712305Y-15697484D02*
X11731353Y-15707008D01*
X11731353Y-15707008D02*
X11740877Y-15716531D01*
X11740877Y-15716531D02*
X11750400Y-15735579D01*
X11750400Y-15735579D02*
X11759924Y-15773674D01*
X11759924Y-15773674D02*
X11759924Y-15821293D01*
X11759924Y-15821293D02*
X11750400Y-15859388D01*
X11750400Y-15859388D02*
X11740877Y-15878436D01*
X11740877Y-15878436D02*
X11731353Y-15887960D01*
X11731353Y-15887960D02*
X11712305Y-15897484D01*
X11712305Y-15897484D02*
X11693257Y-15897484D01*
X11693257Y-15897484D02*
X11674210Y-15887960D01*
X11674210Y-15887960D02*
X11664686Y-15878436D01*
X11664686Y-15878436D02*
X11655162Y-15859388D01*
X11655162Y-15859388D02*
X11645638Y-15821293D01*
X11645638Y-15821293D02*
X11645638Y-15773674D01*
X11645638Y-15773674D02*
X11655162Y-15735579D01*
X11655162Y-15735579D02*
X11664686Y-15716531D01*
X11664686Y-15716531D02*
X11674210Y-15707008D01*
X11674210Y-15707008D02*
X11693257Y-15697484D01*
X11836115Y-15697484D02*
X11836115Y-15735579D01*
X11912305Y-15697484D02*
X11912305Y-15735579D01*
X12207543Y-15973674D02*
X12198019Y-15964150D01*
X12198019Y-15964150D02*
X12178972Y-15935579D01*
X12178972Y-15935579D02*
X12169448Y-15916531D01*
X12169448Y-15916531D02*
X12159924Y-15887960D01*
X12159924Y-15887960D02*
X12150400Y-15840341D01*
X12150400Y-15840341D02*
X12150400Y-15802246D01*
X12150400Y-15802246D02*
X12159924Y-15754627D01*
X12159924Y-15754627D02*
X12169448Y-15726055D01*
X12169448Y-15726055D02*
X12178972Y-15707008D01*
X12178972Y-15707008D02*
X12198019Y-15678436D01*
X12198019Y-15678436D02*
X12207543Y-15668912D01*
X12312305Y-15783198D02*
X12293258Y-15773674D01*
X12293258Y-15773674D02*
X12283734Y-15764150D01*
X12283734Y-15764150D02*
X12274210Y-15745103D01*
X12274210Y-15745103D02*
X12274210Y-15735579D01*
X12274210Y-15735579D02*
X12283734Y-15716531D01*
X12283734Y-15716531D02*
X12293258Y-15707008D01*
X12293258Y-15707008D02*
X12312305Y-15697484D01*
X12312305Y-15697484D02*
X12350400Y-15697484D01*
X12350400Y-15697484D02*
X12369448Y-15707008D01*
X12369448Y-15707008D02*
X12378972Y-15716531D01*
X12378972Y-15716531D02*
X12388496Y-15735579D01*
X12388496Y-15735579D02*
X12388496Y-15745103D01*
X12388496Y-15745103D02*
X12378972Y-15764150D01*
X12378972Y-15764150D02*
X12369448Y-15773674D01*
X12369448Y-15773674D02*
X12350400Y-15783198D01*
X12350400Y-15783198D02*
X12312305Y-15783198D01*
X12312305Y-15783198D02*
X12293258Y-15792722D01*
X12293258Y-15792722D02*
X12283734Y-15802246D01*
X12283734Y-15802246D02*
X12274210Y-15821293D01*
X12274210Y-15821293D02*
X12274210Y-15859388D01*
X12274210Y-15859388D02*
X12283734Y-15878436D01*
X12283734Y-15878436D02*
X12293258Y-15887960D01*
X12293258Y-15887960D02*
X12312305Y-15897484D01*
X12312305Y-15897484D02*
X12350400Y-15897484D01*
X12350400Y-15897484D02*
X12369448Y-15887960D01*
X12369448Y-15887960D02*
X12378972Y-15878436D01*
X12378972Y-15878436D02*
X12388496Y-15859388D01*
X12388496Y-15859388D02*
X12388496Y-15821293D01*
X12388496Y-15821293D02*
X12378972Y-15802246D01*
X12378972Y-15802246D02*
X12369448Y-15792722D01*
X12369448Y-15792722D02*
X12350400Y-15783198D01*
X12626591Y-15897484D02*
X12626591Y-15697484D01*
X12712305Y-15897484D02*
X12712305Y-15792722D01*
X12712305Y-15792722D02*
X12702781Y-15773674D01*
X12702781Y-15773674D02*
X12683734Y-15764150D01*
X12683734Y-15764150D02*
X12655162Y-15764150D01*
X12655162Y-15764150D02*
X12636115Y-15773674D01*
X12636115Y-15773674D02*
X12626591Y-15783198D01*
X12836115Y-15897484D02*
X12817067Y-15887960D01*
X12817067Y-15887960D02*
X12807543Y-15878436D01*
X12807543Y-15878436D02*
X12798020Y-15859388D01*
X12798020Y-15859388D02*
X12798020Y-15802246D01*
X12798020Y-15802246D02*
X12807543Y-15783198D01*
X12807543Y-15783198D02*
X12817067Y-15773674D01*
X12817067Y-15773674D02*
X12836115Y-15764150D01*
X12836115Y-15764150D02*
X12864686Y-15764150D01*
X12864686Y-15764150D02*
X12883734Y-15773674D01*
X12883734Y-15773674D02*
X12893258Y-15783198D01*
X12893258Y-15783198D02*
X12902781Y-15802246D01*
X12902781Y-15802246D02*
X12902781Y-15859388D01*
X12902781Y-15859388D02*
X12893258Y-15878436D01*
X12893258Y-15878436D02*
X12883734Y-15887960D01*
X12883734Y-15887960D02*
X12864686Y-15897484D01*
X12864686Y-15897484D02*
X12836115Y-15897484D01*
X13017067Y-15897484D02*
X12998020Y-15887960D01*
X12998020Y-15887960D02*
X12988496Y-15868912D01*
X12988496Y-15868912D02*
X12988496Y-15697484D01*
X13169448Y-15887960D02*
X13150401Y-15897484D01*
X13150401Y-15897484D02*
X13112305Y-15897484D01*
X13112305Y-15897484D02*
X13093258Y-15887960D01*
X13093258Y-15887960D02*
X13083734Y-15868912D01*
X13083734Y-15868912D02*
X13083734Y-15792722D01*
X13083734Y-15792722D02*
X13093258Y-15773674D01*
X13093258Y-15773674D02*
X13112305Y-15764150D01*
X13112305Y-15764150D02*
X13150401Y-15764150D01*
X13150401Y-15764150D02*
X13169448Y-15773674D01*
X13169448Y-15773674D02*
X13178972Y-15792722D01*
X13178972Y-15792722D02*
X13178972Y-15811769D01*
X13178972Y-15811769D02*
X13083734Y-15830817D01*
X13255162Y-15887960D02*
X13274210Y-15897484D01*
X13274210Y-15897484D02*
X13312305Y-15897484D01*
X13312305Y-15897484D02*
X13331353Y-15887960D01*
X13331353Y-15887960D02*
X13340877Y-15868912D01*
X13340877Y-15868912D02*
X13340877Y-15859388D01*
X13340877Y-15859388D02*
X13331353Y-15840341D01*
X13331353Y-15840341D02*
X13312305Y-15830817D01*
X13312305Y-15830817D02*
X13283734Y-15830817D01*
X13283734Y-15830817D02*
X13264686Y-15821293D01*
X13264686Y-15821293D02*
X13255162Y-15802246D01*
X13255162Y-15802246D02*
X13255162Y-15792722D01*
X13255162Y-15792722D02*
X13264686Y-15773674D01*
X13264686Y-15773674D02*
X13283734Y-15764150D01*
X13283734Y-15764150D02*
X13312305Y-15764150D01*
X13312305Y-15764150D02*
X13331353Y-15773674D01*
X13407543Y-15973674D02*
X13417067Y-15964150D01*
X13417067Y-15964150D02*
X13436115Y-15935579D01*
X13436115Y-15935579D02*
X13445639Y-15916531D01*
X13445639Y-15916531D02*
X13455162Y-15887960D01*
X13455162Y-15887960D02*
X13464686Y-15840341D01*
X13464686Y-15840341D02*
X13464686Y-15802246D01*
X13464686Y-15802246D02*
X13455162Y-15754627D01*
X13455162Y-15754627D02*
X13445639Y-15726055D01*
X13445639Y-15726055D02*
X13436115Y-15707008D01*
X13436115Y-15707008D02*
X13417067Y-15678436D01*
X13417067Y-15678436D02*
X13407543Y-15668912D01*
D11*
X8532481Y-16020000D02*
X8632481Y-16120000D01*
X8632481Y-16020000D02*
X8532481Y-16120000D01*
X8632481Y-16070000D02*
G75*
G03*
X8532481Y-16070000I-50000J0D01*
G01*
X8532481Y-16070000D02*
G75*
G03*
X8632481Y-16070000I50000J0D01*
G01*
D10*
X8998019Y-16161484D02*
X8883734Y-16161484D01*
X8940876Y-16161484D02*
X8940876Y-15961484D01*
X8940876Y-15961484D02*
X8921829Y-15990055D01*
X8921829Y-15990055D02*
X8902781Y-16009103D01*
X8902781Y-16009103D02*
X8883734Y-16018627D01*
X9083734Y-16142436D02*
X9093257Y-16151960D01*
X9093257Y-16151960D02*
X9083734Y-16161484D01*
X9083734Y-16161484D02*
X9074210Y-16151960D01*
X9074210Y-16151960D02*
X9083734Y-16142436D01*
X9083734Y-16142436D02*
X9083734Y-16161484D01*
X9217067Y-15961484D02*
X9236115Y-15961484D01*
X9236115Y-15961484D02*
X9255162Y-15971008D01*
X9255162Y-15971008D02*
X9264686Y-15980531D01*
X9264686Y-15980531D02*
X9274210Y-15999579D01*
X9274210Y-15999579D02*
X9283734Y-16037674D01*
X9283734Y-16037674D02*
X9283734Y-16085293D01*
X9283734Y-16085293D02*
X9274210Y-16123388D01*
X9274210Y-16123388D02*
X9264686Y-16142436D01*
X9264686Y-16142436D02*
X9255162Y-16151960D01*
X9255162Y-16151960D02*
X9236115Y-16161484D01*
X9236115Y-16161484D02*
X9217067Y-16161484D01*
X9217067Y-16161484D02*
X9198019Y-16151960D01*
X9198019Y-16151960D02*
X9188495Y-16142436D01*
X9188495Y-16142436D02*
X9178972Y-16123388D01*
X9178972Y-16123388D02*
X9169448Y-16085293D01*
X9169448Y-16085293D02*
X9169448Y-16037674D01*
X9169448Y-16037674D02*
X9178972Y-15999579D01*
X9178972Y-15999579D02*
X9188495Y-15980531D01*
X9188495Y-15980531D02*
X9198019Y-15971008D01*
X9198019Y-15971008D02*
X9217067Y-15961484D01*
X9407543Y-15961484D02*
X9426591Y-15961484D01*
X9426591Y-15961484D02*
X9445638Y-15971008D01*
X9445638Y-15971008D02*
X9455162Y-15980531D01*
X9455162Y-15980531D02*
X9464686Y-15999579D01*
X9464686Y-15999579D02*
X9474210Y-16037674D01*
X9474210Y-16037674D02*
X9474210Y-16085293D01*
X9474210Y-16085293D02*
X9464686Y-16123388D01*
X9464686Y-16123388D02*
X9455162Y-16142436D01*
X9455162Y-16142436D02*
X9445638Y-16151960D01*
X9445638Y-16151960D02*
X9426591Y-16161484D01*
X9426591Y-16161484D02*
X9407543Y-16161484D01*
X9407543Y-16161484D02*
X9388495Y-16151960D01*
X9388495Y-16151960D02*
X9378972Y-16142436D01*
X9378972Y-16142436D02*
X9369448Y-16123388D01*
X9369448Y-16123388D02*
X9359924Y-16085293D01*
X9359924Y-16085293D02*
X9359924Y-16037674D01*
X9359924Y-16037674D02*
X9369448Y-15999579D01*
X9369448Y-15999579D02*
X9378972Y-15980531D01*
X9378972Y-15980531D02*
X9388495Y-15971008D01*
X9388495Y-15971008D02*
X9407543Y-15961484D01*
X9598019Y-15961484D02*
X9617067Y-15961484D01*
X9617067Y-15961484D02*
X9636115Y-15971008D01*
X9636115Y-15971008D02*
X9645638Y-15980531D01*
X9645638Y-15980531D02*
X9655162Y-15999579D01*
X9655162Y-15999579D02*
X9664686Y-16037674D01*
X9664686Y-16037674D02*
X9664686Y-16085293D01*
X9664686Y-16085293D02*
X9655162Y-16123388D01*
X9655162Y-16123388D02*
X9645638Y-16142436D01*
X9645638Y-16142436D02*
X9636115Y-16151960D01*
X9636115Y-16151960D02*
X9617067Y-16161484D01*
X9617067Y-16161484D02*
X9598019Y-16161484D01*
X9598019Y-16161484D02*
X9578972Y-16151960D01*
X9578972Y-16151960D02*
X9569448Y-16142436D01*
X9569448Y-16142436D02*
X9559924Y-16123388D01*
X9559924Y-16123388D02*
X9550400Y-16085293D01*
X9550400Y-16085293D02*
X9550400Y-16037674D01*
X9550400Y-16037674D02*
X9559924Y-15999579D01*
X9559924Y-15999579D02*
X9569448Y-15980531D01*
X9569448Y-15980531D02*
X9578972Y-15971008D01*
X9578972Y-15971008D02*
X9598019Y-15961484D01*
X9750400Y-16161484D02*
X9750400Y-16028150D01*
X9750400Y-16047198D02*
X9759924Y-16037674D01*
X9759924Y-16037674D02*
X9778972Y-16028150D01*
X9778972Y-16028150D02*
X9807543Y-16028150D01*
X9807543Y-16028150D02*
X9826591Y-16037674D01*
X9826591Y-16037674D02*
X9836115Y-16056722D01*
X9836115Y-16056722D02*
X9836115Y-16161484D01*
X9836115Y-16056722D02*
X9845638Y-16037674D01*
X9845638Y-16037674D02*
X9864686Y-16028150D01*
X9864686Y-16028150D02*
X9893257Y-16028150D01*
X9893257Y-16028150D02*
X9912305Y-16037674D01*
X9912305Y-16037674D02*
X9921829Y-16056722D01*
X9921829Y-16056722D02*
X9921829Y-16161484D01*
X10017067Y-16161484D02*
X10017067Y-16028150D01*
X10017067Y-16047198D02*
X10026591Y-16037674D01*
X10026591Y-16037674D02*
X10045638Y-16028150D01*
X10045638Y-16028150D02*
X10074210Y-16028150D01*
X10074210Y-16028150D02*
X10093257Y-16037674D01*
X10093257Y-16037674D02*
X10102781Y-16056722D01*
X10102781Y-16056722D02*
X10102781Y-16161484D01*
X10102781Y-16056722D02*
X10112305Y-16037674D01*
X10112305Y-16037674D02*
X10131353Y-16028150D01*
X10131353Y-16028150D02*
X10159924Y-16028150D01*
X10159924Y-16028150D02*
X10178972Y-16037674D01*
X10178972Y-16037674D02*
X10188496Y-16056722D01*
X10188496Y-16056722D02*
X10188496Y-16161484D01*
X10578972Y-15951960D02*
X10407543Y-16209103D01*
X10836115Y-15961484D02*
X10855162Y-15961484D01*
X10855162Y-15961484D02*
X10874210Y-15971008D01*
X10874210Y-15971008D02*
X10883734Y-15980531D01*
X10883734Y-15980531D02*
X10893258Y-15999579D01*
X10893258Y-15999579D02*
X10902781Y-16037674D01*
X10902781Y-16037674D02*
X10902781Y-16085293D01*
X10902781Y-16085293D02*
X10893258Y-16123388D01*
X10893258Y-16123388D02*
X10883734Y-16142436D01*
X10883734Y-16142436D02*
X10874210Y-16151960D01*
X10874210Y-16151960D02*
X10855162Y-16161484D01*
X10855162Y-16161484D02*
X10836115Y-16161484D01*
X10836115Y-16161484D02*
X10817067Y-16151960D01*
X10817067Y-16151960D02*
X10807543Y-16142436D01*
X10807543Y-16142436D02*
X10798019Y-16123388D01*
X10798019Y-16123388D02*
X10788496Y-16085293D01*
X10788496Y-16085293D02*
X10788496Y-16037674D01*
X10788496Y-16037674D02*
X10798019Y-15999579D01*
X10798019Y-15999579D02*
X10807543Y-15980531D01*
X10807543Y-15980531D02*
X10817067Y-15971008D01*
X10817067Y-15971008D02*
X10836115Y-15961484D01*
X10988496Y-16142436D02*
X10998019Y-16151960D01*
X10998019Y-16151960D02*
X10988496Y-16161484D01*
X10988496Y-16161484D02*
X10978972Y-16151960D01*
X10978972Y-16151960D02*
X10988496Y-16142436D01*
X10988496Y-16142436D02*
X10988496Y-16161484D01*
X11121829Y-15961484D02*
X11140877Y-15961484D01*
X11140877Y-15961484D02*
X11159924Y-15971008D01*
X11159924Y-15971008D02*
X11169448Y-15980531D01*
X11169448Y-15980531D02*
X11178972Y-15999579D01*
X11178972Y-15999579D02*
X11188496Y-16037674D01*
X11188496Y-16037674D02*
X11188496Y-16085293D01*
X11188496Y-16085293D02*
X11178972Y-16123388D01*
X11178972Y-16123388D02*
X11169448Y-16142436D01*
X11169448Y-16142436D02*
X11159924Y-16151960D01*
X11159924Y-16151960D02*
X11140877Y-16161484D01*
X11140877Y-16161484D02*
X11121829Y-16161484D01*
X11121829Y-16161484D02*
X11102781Y-16151960D01*
X11102781Y-16151960D02*
X11093258Y-16142436D01*
X11093258Y-16142436D02*
X11083734Y-16123388D01*
X11083734Y-16123388D02*
X11074210Y-16085293D01*
X11074210Y-16085293D02*
X11074210Y-16037674D01*
X11074210Y-16037674D02*
X11083734Y-15999579D01*
X11083734Y-15999579D02*
X11093258Y-15980531D01*
X11093258Y-15980531D02*
X11102781Y-15971008D01*
X11102781Y-15971008D02*
X11121829Y-15961484D01*
X11255162Y-15961484D02*
X11378972Y-15961484D01*
X11378972Y-15961484D02*
X11312305Y-16037674D01*
X11312305Y-16037674D02*
X11340877Y-16037674D01*
X11340877Y-16037674D02*
X11359924Y-16047198D01*
X11359924Y-16047198D02*
X11369448Y-16056722D01*
X11369448Y-16056722D02*
X11378972Y-16075769D01*
X11378972Y-16075769D02*
X11378972Y-16123388D01*
X11378972Y-16123388D02*
X11369448Y-16142436D01*
X11369448Y-16142436D02*
X11359924Y-16151960D01*
X11359924Y-16151960D02*
X11340877Y-16161484D01*
X11340877Y-16161484D02*
X11283734Y-16161484D01*
X11283734Y-16161484D02*
X11264686Y-16151960D01*
X11264686Y-16151960D02*
X11255162Y-16142436D01*
X11474210Y-16161484D02*
X11512305Y-16161484D01*
X11512305Y-16161484D02*
X11531353Y-16151960D01*
X11531353Y-16151960D02*
X11540877Y-16142436D01*
X11540877Y-16142436D02*
X11559924Y-16113865D01*
X11559924Y-16113865D02*
X11569448Y-16075769D01*
X11569448Y-16075769D02*
X11569448Y-15999579D01*
X11569448Y-15999579D02*
X11559924Y-15980531D01*
X11559924Y-15980531D02*
X11550400Y-15971008D01*
X11550400Y-15971008D02*
X11531353Y-15961484D01*
X11531353Y-15961484D02*
X11493257Y-15961484D01*
X11493257Y-15961484D02*
X11474210Y-15971008D01*
X11474210Y-15971008D02*
X11464686Y-15980531D01*
X11464686Y-15980531D02*
X11455162Y-15999579D01*
X11455162Y-15999579D02*
X11455162Y-16047198D01*
X11455162Y-16047198D02*
X11464686Y-16066246D01*
X11464686Y-16066246D02*
X11474210Y-16075769D01*
X11474210Y-16075769D02*
X11493257Y-16085293D01*
X11493257Y-16085293D02*
X11531353Y-16085293D01*
X11531353Y-16085293D02*
X11550400Y-16075769D01*
X11550400Y-16075769D02*
X11559924Y-16066246D01*
X11559924Y-16066246D02*
X11569448Y-16047198D01*
X11740877Y-16028150D02*
X11740877Y-16161484D01*
X11693257Y-15951960D02*
X11645638Y-16094817D01*
X11645638Y-16094817D02*
X11769448Y-16094817D01*
X11836115Y-15961484D02*
X11836115Y-15999579D01*
X11912305Y-15961484D02*
X11912305Y-15999579D01*
X12207543Y-16237674D02*
X12198019Y-16228150D01*
X12198019Y-16228150D02*
X12178972Y-16199579D01*
X12178972Y-16199579D02*
X12169448Y-16180531D01*
X12169448Y-16180531D02*
X12159924Y-16151960D01*
X12159924Y-16151960D02*
X12150400Y-16104341D01*
X12150400Y-16104341D02*
X12150400Y-16066246D01*
X12150400Y-16066246D02*
X12159924Y-16018627D01*
X12159924Y-16018627D02*
X12169448Y-15990055D01*
X12169448Y-15990055D02*
X12178972Y-15971008D01*
X12178972Y-15971008D02*
X12198019Y-15942436D01*
X12198019Y-15942436D02*
X12207543Y-15932912D01*
X12369448Y-16028150D02*
X12369448Y-16161484D01*
X12321829Y-15951960D02*
X12274210Y-16094817D01*
X12274210Y-16094817D02*
X12398019Y-16094817D01*
X12626591Y-16161484D02*
X12626591Y-15961484D01*
X12712305Y-16161484D02*
X12712305Y-16056722D01*
X12712305Y-16056722D02*
X12702781Y-16037674D01*
X12702781Y-16037674D02*
X12683734Y-16028150D01*
X12683734Y-16028150D02*
X12655162Y-16028150D01*
X12655162Y-16028150D02*
X12636115Y-16037674D01*
X12636115Y-16037674D02*
X12626591Y-16047198D01*
X12836115Y-16161484D02*
X12817067Y-16151960D01*
X12817067Y-16151960D02*
X12807543Y-16142436D01*
X12807543Y-16142436D02*
X12798020Y-16123388D01*
X12798020Y-16123388D02*
X12798020Y-16066246D01*
X12798020Y-16066246D02*
X12807543Y-16047198D01*
X12807543Y-16047198D02*
X12817067Y-16037674D01*
X12817067Y-16037674D02*
X12836115Y-16028150D01*
X12836115Y-16028150D02*
X12864686Y-16028150D01*
X12864686Y-16028150D02*
X12883734Y-16037674D01*
X12883734Y-16037674D02*
X12893258Y-16047198D01*
X12893258Y-16047198D02*
X12902781Y-16066246D01*
X12902781Y-16066246D02*
X12902781Y-16123388D01*
X12902781Y-16123388D02*
X12893258Y-16142436D01*
X12893258Y-16142436D02*
X12883734Y-16151960D01*
X12883734Y-16151960D02*
X12864686Y-16161484D01*
X12864686Y-16161484D02*
X12836115Y-16161484D01*
X13017067Y-16161484D02*
X12998020Y-16151960D01*
X12998020Y-16151960D02*
X12988496Y-16132912D01*
X12988496Y-16132912D02*
X12988496Y-15961484D01*
X13169448Y-16151960D02*
X13150401Y-16161484D01*
X13150401Y-16161484D02*
X13112305Y-16161484D01*
X13112305Y-16161484D02*
X13093258Y-16151960D01*
X13093258Y-16151960D02*
X13083734Y-16132912D01*
X13083734Y-16132912D02*
X13083734Y-16056722D01*
X13083734Y-16056722D02*
X13093258Y-16037674D01*
X13093258Y-16037674D02*
X13112305Y-16028150D01*
X13112305Y-16028150D02*
X13150401Y-16028150D01*
X13150401Y-16028150D02*
X13169448Y-16037674D01*
X13169448Y-16037674D02*
X13178972Y-16056722D01*
X13178972Y-16056722D02*
X13178972Y-16075769D01*
X13178972Y-16075769D02*
X13083734Y-16094817D01*
X13255162Y-16151960D02*
X13274210Y-16161484D01*
X13274210Y-16161484D02*
X13312305Y-16161484D01*
X13312305Y-16161484D02*
X13331353Y-16151960D01*
X13331353Y-16151960D02*
X13340877Y-16132912D01*
X13340877Y-16132912D02*
X13340877Y-16123388D01*
X13340877Y-16123388D02*
X13331353Y-16104341D01*
X13331353Y-16104341D02*
X13312305Y-16094817D01*
X13312305Y-16094817D02*
X13283734Y-16094817D01*
X13283734Y-16094817D02*
X13264686Y-16085293D01*
X13264686Y-16085293D02*
X13255162Y-16066246D01*
X13255162Y-16066246D02*
X13255162Y-16056722D01*
X13255162Y-16056722D02*
X13264686Y-16037674D01*
X13264686Y-16037674D02*
X13283734Y-16028150D01*
X13283734Y-16028150D02*
X13312305Y-16028150D01*
X13312305Y-16028150D02*
X13331353Y-16037674D01*
X13407543Y-16237674D02*
X13417067Y-16228150D01*
X13417067Y-16228150D02*
X13436115Y-16199579D01*
X13436115Y-16199579D02*
X13445639Y-16180531D01*
X13445639Y-16180531D02*
X13455162Y-16151960D01*
X13455162Y-16151960D02*
X13464686Y-16104341D01*
X13464686Y-16104341D02*
X13464686Y-16066246D01*
X13464686Y-16066246D02*
X13455162Y-16018627D01*
X13455162Y-16018627D02*
X13445639Y-15990055D01*
X13445639Y-15990055D02*
X13436115Y-15971008D01*
X13436115Y-15971008D02*
X13417067Y-15942436D01*
X13417067Y-15942436D02*
X13407543Y-15932912D01*
D12*
X8447481Y-16241500D02*
X8632481Y-16426500D01*
X8632481Y-16241500D02*
X8447481Y-16426500D01*
X8539981Y-16241500D02*
X8539981Y-16426500D01*
X8447481Y-16334000D02*
X8632481Y-16334000D01*
D10*
X8998019Y-16425484D02*
X8883734Y-16425484D01*
X8940876Y-16425484D02*
X8940876Y-16225484D01*
X8940876Y-16225484D02*
X8921829Y-16254055D01*
X8921829Y-16254055D02*
X8902781Y-16273103D01*
X8902781Y-16273103D02*
X8883734Y-16282627D01*
X9083734Y-16406436D02*
X9093257Y-16415960D01*
X9093257Y-16415960D02*
X9083734Y-16425484D01*
X9083734Y-16425484D02*
X9074210Y-16415960D01*
X9074210Y-16415960D02*
X9083734Y-16406436D01*
X9083734Y-16406436D02*
X9083734Y-16425484D01*
X9207543Y-16311198D02*
X9188495Y-16301674D01*
X9188495Y-16301674D02*
X9178972Y-16292150D01*
X9178972Y-16292150D02*
X9169448Y-16273103D01*
X9169448Y-16273103D02*
X9169448Y-16263579D01*
X9169448Y-16263579D02*
X9178972Y-16244531D01*
X9178972Y-16244531D02*
X9188495Y-16235008D01*
X9188495Y-16235008D02*
X9207543Y-16225484D01*
X9207543Y-16225484D02*
X9245638Y-16225484D01*
X9245638Y-16225484D02*
X9264686Y-16235008D01*
X9264686Y-16235008D02*
X9274210Y-16244531D01*
X9274210Y-16244531D02*
X9283734Y-16263579D01*
X9283734Y-16263579D02*
X9283734Y-16273103D01*
X9283734Y-16273103D02*
X9274210Y-16292150D01*
X9274210Y-16292150D02*
X9264686Y-16301674D01*
X9264686Y-16301674D02*
X9245638Y-16311198D01*
X9245638Y-16311198D02*
X9207543Y-16311198D01*
X9207543Y-16311198D02*
X9188495Y-16320722D01*
X9188495Y-16320722D02*
X9178972Y-16330246D01*
X9178972Y-16330246D02*
X9169448Y-16349293D01*
X9169448Y-16349293D02*
X9169448Y-16387388D01*
X9169448Y-16387388D02*
X9178972Y-16406436D01*
X9178972Y-16406436D02*
X9188495Y-16415960D01*
X9188495Y-16415960D02*
X9207543Y-16425484D01*
X9207543Y-16425484D02*
X9245638Y-16425484D01*
X9245638Y-16425484D02*
X9264686Y-16415960D01*
X9264686Y-16415960D02*
X9274210Y-16406436D01*
X9274210Y-16406436D02*
X9283734Y-16387388D01*
X9283734Y-16387388D02*
X9283734Y-16349293D01*
X9283734Y-16349293D02*
X9274210Y-16330246D01*
X9274210Y-16330246D02*
X9264686Y-16320722D01*
X9264686Y-16320722D02*
X9245638Y-16311198D01*
X9464686Y-16225484D02*
X9369448Y-16225484D01*
X9369448Y-16225484D02*
X9359924Y-16320722D01*
X9359924Y-16320722D02*
X9369448Y-16311198D01*
X9369448Y-16311198D02*
X9388495Y-16301674D01*
X9388495Y-16301674D02*
X9436115Y-16301674D01*
X9436115Y-16301674D02*
X9455162Y-16311198D01*
X9455162Y-16311198D02*
X9464686Y-16320722D01*
X9464686Y-16320722D02*
X9474210Y-16339769D01*
X9474210Y-16339769D02*
X9474210Y-16387388D01*
X9474210Y-16387388D02*
X9464686Y-16406436D01*
X9464686Y-16406436D02*
X9455162Y-16415960D01*
X9455162Y-16415960D02*
X9436115Y-16425484D01*
X9436115Y-16425484D02*
X9388495Y-16425484D01*
X9388495Y-16425484D02*
X9369448Y-16415960D01*
X9369448Y-16415960D02*
X9359924Y-16406436D01*
X9598019Y-16225484D02*
X9617067Y-16225484D01*
X9617067Y-16225484D02*
X9636115Y-16235008D01*
X9636115Y-16235008D02*
X9645638Y-16244531D01*
X9645638Y-16244531D02*
X9655162Y-16263579D01*
X9655162Y-16263579D02*
X9664686Y-16301674D01*
X9664686Y-16301674D02*
X9664686Y-16349293D01*
X9664686Y-16349293D02*
X9655162Y-16387388D01*
X9655162Y-16387388D02*
X9645638Y-16406436D01*
X9645638Y-16406436D02*
X9636115Y-16415960D01*
X9636115Y-16415960D02*
X9617067Y-16425484D01*
X9617067Y-16425484D02*
X9598019Y-16425484D01*
X9598019Y-16425484D02*
X9578972Y-16415960D01*
X9578972Y-16415960D02*
X9569448Y-16406436D01*
X9569448Y-16406436D02*
X9559924Y-16387388D01*
X9559924Y-16387388D02*
X9550400Y-16349293D01*
X9550400Y-16349293D02*
X9550400Y-16301674D01*
X9550400Y-16301674D02*
X9559924Y-16263579D01*
X9559924Y-16263579D02*
X9569448Y-16244531D01*
X9569448Y-16244531D02*
X9578972Y-16235008D01*
X9578972Y-16235008D02*
X9598019Y-16225484D01*
X9750400Y-16425484D02*
X9750400Y-16292150D01*
X9750400Y-16311198D02*
X9759924Y-16301674D01*
X9759924Y-16301674D02*
X9778972Y-16292150D01*
X9778972Y-16292150D02*
X9807543Y-16292150D01*
X9807543Y-16292150D02*
X9826591Y-16301674D01*
X9826591Y-16301674D02*
X9836115Y-16320722D01*
X9836115Y-16320722D02*
X9836115Y-16425484D01*
X9836115Y-16320722D02*
X9845638Y-16301674D01*
X9845638Y-16301674D02*
X9864686Y-16292150D01*
X9864686Y-16292150D02*
X9893257Y-16292150D01*
X9893257Y-16292150D02*
X9912305Y-16301674D01*
X9912305Y-16301674D02*
X9921829Y-16320722D01*
X9921829Y-16320722D02*
X9921829Y-16425484D01*
X10017067Y-16425484D02*
X10017067Y-16292150D01*
X10017067Y-16311198D02*
X10026591Y-16301674D01*
X10026591Y-16301674D02*
X10045638Y-16292150D01*
X10045638Y-16292150D02*
X10074210Y-16292150D01*
X10074210Y-16292150D02*
X10093257Y-16301674D01*
X10093257Y-16301674D02*
X10102781Y-16320722D01*
X10102781Y-16320722D02*
X10102781Y-16425484D01*
X10102781Y-16320722D02*
X10112305Y-16301674D01*
X10112305Y-16301674D02*
X10131353Y-16292150D01*
X10131353Y-16292150D02*
X10159924Y-16292150D01*
X10159924Y-16292150D02*
X10178972Y-16301674D01*
X10178972Y-16301674D02*
X10188496Y-16320722D01*
X10188496Y-16320722D02*
X10188496Y-16425484D01*
X10578972Y-16215960D02*
X10407543Y-16473103D01*
X10836115Y-16225484D02*
X10855162Y-16225484D01*
X10855162Y-16225484D02*
X10874210Y-16235008D01*
X10874210Y-16235008D02*
X10883734Y-16244531D01*
X10883734Y-16244531D02*
X10893258Y-16263579D01*
X10893258Y-16263579D02*
X10902781Y-16301674D01*
X10902781Y-16301674D02*
X10902781Y-16349293D01*
X10902781Y-16349293D02*
X10893258Y-16387388D01*
X10893258Y-16387388D02*
X10883734Y-16406436D01*
X10883734Y-16406436D02*
X10874210Y-16415960D01*
X10874210Y-16415960D02*
X10855162Y-16425484D01*
X10855162Y-16425484D02*
X10836115Y-16425484D01*
X10836115Y-16425484D02*
X10817067Y-16415960D01*
X10817067Y-16415960D02*
X10807543Y-16406436D01*
X10807543Y-16406436D02*
X10798019Y-16387388D01*
X10798019Y-16387388D02*
X10788496Y-16349293D01*
X10788496Y-16349293D02*
X10788496Y-16301674D01*
X10788496Y-16301674D02*
X10798019Y-16263579D01*
X10798019Y-16263579D02*
X10807543Y-16244531D01*
X10807543Y-16244531D02*
X10817067Y-16235008D01*
X10817067Y-16235008D02*
X10836115Y-16225484D01*
X10988496Y-16406436D02*
X10998019Y-16415960D01*
X10998019Y-16415960D02*
X10988496Y-16425484D01*
X10988496Y-16425484D02*
X10978972Y-16415960D01*
X10978972Y-16415960D02*
X10988496Y-16406436D01*
X10988496Y-16406436D02*
X10988496Y-16425484D01*
X11121829Y-16225484D02*
X11140877Y-16225484D01*
X11140877Y-16225484D02*
X11159924Y-16235008D01*
X11159924Y-16235008D02*
X11169448Y-16244531D01*
X11169448Y-16244531D02*
X11178972Y-16263579D01*
X11178972Y-16263579D02*
X11188496Y-16301674D01*
X11188496Y-16301674D02*
X11188496Y-16349293D01*
X11188496Y-16349293D02*
X11178972Y-16387388D01*
X11178972Y-16387388D02*
X11169448Y-16406436D01*
X11169448Y-16406436D02*
X11159924Y-16415960D01*
X11159924Y-16415960D02*
X11140877Y-16425484D01*
X11140877Y-16425484D02*
X11121829Y-16425484D01*
X11121829Y-16425484D02*
X11102781Y-16415960D01*
X11102781Y-16415960D02*
X11093258Y-16406436D01*
X11093258Y-16406436D02*
X11083734Y-16387388D01*
X11083734Y-16387388D02*
X11074210Y-16349293D01*
X11074210Y-16349293D02*
X11074210Y-16301674D01*
X11074210Y-16301674D02*
X11083734Y-16263579D01*
X11083734Y-16263579D02*
X11093258Y-16244531D01*
X11093258Y-16244531D02*
X11102781Y-16235008D01*
X11102781Y-16235008D02*
X11121829Y-16225484D01*
X11255162Y-16225484D02*
X11388496Y-16225484D01*
X11388496Y-16225484D02*
X11302781Y-16425484D01*
X11455162Y-16244531D02*
X11464686Y-16235008D01*
X11464686Y-16235008D02*
X11483734Y-16225484D01*
X11483734Y-16225484D02*
X11531353Y-16225484D01*
X11531353Y-16225484D02*
X11550400Y-16235008D01*
X11550400Y-16235008D02*
X11559924Y-16244531D01*
X11559924Y-16244531D02*
X11569448Y-16263579D01*
X11569448Y-16263579D02*
X11569448Y-16282627D01*
X11569448Y-16282627D02*
X11559924Y-16311198D01*
X11559924Y-16311198D02*
X11445638Y-16425484D01*
X11445638Y-16425484D02*
X11569448Y-16425484D01*
X11683734Y-16311198D02*
X11664686Y-16301674D01*
X11664686Y-16301674D02*
X11655162Y-16292150D01*
X11655162Y-16292150D02*
X11645638Y-16273103D01*
X11645638Y-16273103D02*
X11645638Y-16263579D01*
X11645638Y-16263579D02*
X11655162Y-16244531D01*
X11655162Y-16244531D02*
X11664686Y-16235008D01*
X11664686Y-16235008D02*
X11683734Y-16225484D01*
X11683734Y-16225484D02*
X11721829Y-16225484D01*
X11721829Y-16225484D02*
X11740877Y-16235008D01*
X11740877Y-16235008D02*
X11750400Y-16244531D01*
X11750400Y-16244531D02*
X11759924Y-16263579D01*
X11759924Y-16263579D02*
X11759924Y-16273103D01*
X11759924Y-16273103D02*
X11750400Y-16292150D01*
X11750400Y-16292150D02*
X11740877Y-16301674D01*
X11740877Y-16301674D02*
X11721829Y-16311198D01*
X11721829Y-16311198D02*
X11683734Y-16311198D01*
X11683734Y-16311198D02*
X11664686Y-16320722D01*
X11664686Y-16320722D02*
X11655162Y-16330246D01*
X11655162Y-16330246D02*
X11645638Y-16349293D01*
X11645638Y-16349293D02*
X11645638Y-16387388D01*
X11645638Y-16387388D02*
X11655162Y-16406436D01*
X11655162Y-16406436D02*
X11664686Y-16415960D01*
X11664686Y-16415960D02*
X11683734Y-16425484D01*
X11683734Y-16425484D02*
X11721829Y-16425484D01*
X11721829Y-16425484D02*
X11740877Y-16415960D01*
X11740877Y-16415960D02*
X11750400Y-16406436D01*
X11750400Y-16406436D02*
X11759924Y-16387388D01*
X11759924Y-16387388D02*
X11759924Y-16349293D01*
X11759924Y-16349293D02*
X11750400Y-16330246D01*
X11750400Y-16330246D02*
X11740877Y-16320722D01*
X11740877Y-16320722D02*
X11721829Y-16311198D01*
X11836115Y-16225484D02*
X11836115Y-16263579D01*
X11912305Y-16225484D02*
X11912305Y-16263579D01*
X12207543Y-16501674D02*
X12198019Y-16492150D01*
X12198019Y-16492150D02*
X12178972Y-16463579D01*
X12178972Y-16463579D02*
X12169448Y-16444531D01*
X12169448Y-16444531D02*
X12159924Y-16415960D01*
X12159924Y-16415960D02*
X12150400Y-16368341D01*
X12150400Y-16368341D02*
X12150400Y-16330246D01*
X12150400Y-16330246D02*
X12159924Y-16282627D01*
X12159924Y-16282627D02*
X12169448Y-16254055D01*
X12169448Y-16254055D02*
X12178972Y-16235008D01*
X12178972Y-16235008D02*
X12198019Y-16206436D01*
X12198019Y-16206436D02*
X12207543Y-16196912D01*
X12369448Y-16292150D02*
X12369448Y-16425484D01*
X12321829Y-16215960D02*
X12274210Y-16358817D01*
X12274210Y-16358817D02*
X12398019Y-16358817D01*
X12626591Y-16425484D02*
X12626591Y-16225484D01*
X12712305Y-16425484D02*
X12712305Y-16320722D01*
X12712305Y-16320722D02*
X12702781Y-16301674D01*
X12702781Y-16301674D02*
X12683734Y-16292150D01*
X12683734Y-16292150D02*
X12655162Y-16292150D01*
X12655162Y-16292150D02*
X12636115Y-16301674D01*
X12636115Y-16301674D02*
X12626591Y-16311198D01*
X12836115Y-16425484D02*
X12817067Y-16415960D01*
X12817067Y-16415960D02*
X12807543Y-16406436D01*
X12807543Y-16406436D02*
X12798020Y-16387388D01*
X12798020Y-16387388D02*
X12798020Y-16330246D01*
X12798020Y-16330246D02*
X12807543Y-16311198D01*
X12807543Y-16311198D02*
X12817067Y-16301674D01*
X12817067Y-16301674D02*
X12836115Y-16292150D01*
X12836115Y-16292150D02*
X12864686Y-16292150D01*
X12864686Y-16292150D02*
X12883734Y-16301674D01*
X12883734Y-16301674D02*
X12893258Y-16311198D01*
X12893258Y-16311198D02*
X12902781Y-16330246D01*
X12902781Y-16330246D02*
X12902781Y-16387388D01*
X12902781Y-16387388D02*
X12893258Y-16406436D01*
X12893258Y-16406436D02*
X12883734Y-16415960D01*
X12883734Y-16415960D02*
X12864686Y-16425484D01*
X12864686Y-16425484D02*
X12836115Y-16425484D01*
X13017067Y-16425484D02*
X12998020Y-16415960D01*
X12998020Y-16415960D02*
X12988496Y-16396912D01*
X12988496Y-16396912D02*
X12988496Y-16225484D01*
X13169448Y-16415960D02*
X13150401Y-16425484D01*
X13150401Y-16425484D02*
X13112305Y-16425484D01*
X13112305Y-16425484D02*
X13093258Y-16415960D01*
X13093258Y-16415960D02*
X13083734Y-16396912D01*
X13083734Y-16396912D02*
X13083734Y-16320722D01*
X13083734Y-16320722D02*
X13093258Y-16301674D01*
X13093258Y-16301674D02*
X13112305Y-16292150D01*
X13112305Y-16292150D02*
X13150401Y-16292150D01*
X13150401Y-16292150D02*
X13169448Y-16301674D01*
X13169448Y-16301674D02*
X13178972Y-16320722D01*
X13178972Y-16320722D02*
X13178972Y-16339769D01*
X13178972Y-16339769D02*
X13083734Y-16358817D01*
X13255162Y-16415960D02*
X13274210Y-16425484D01*
X13274210Y-16425484D02*
X13312305Y-16425484D01*
X13312305Y-16425484D02*
X13331353Y-16415960D01*
X13331353Y-16415960D02*
X13340877Y-16396912D01*
X13340877Y-16396912D02*
X13340877Y-16387388D01*
X13340877Y-16387388D02*
X13331353Y-16368341D01*
X13331353Y-16368341D02*
X13312305Y-16358817D01*
X13312305Y-16358817D02*
X13283734Y-16358817D01*
X13283734Y-16358817D02*
X13264686Y-16349293D01*
X13264686Y-16349293D02*
X13255162Y-16330246D01*
X13255162Y-16330246D02*
X13255162Y-16320722D01*
X13255162Y-16320722D02*
X13264686Y-16301674D01*
X13264686Y-16301674D02*
X13283734Y-16292150D01*
X13283734Y-16292150D02*
X13312305Y-16292150D01*
X13312305Y-16292150D02*
X13331353Y-16301674D01*
X13407543Y-16501674D02*
X13417067Y-16492150D01*
X13417067Y-16492150D02*
X13436115Y-16463579D01*
X13436115Y-16463579D02*
X13445639Y-16444531D01*
X13445639Y-16444531D02*
X13455162Y-16415960D01*
X13455162Y-16415960D02*
X13464686Y-16368341D01*
X13464686Y-16368341D02*
X13464686Y-16330246D01*
X13464686Y-16330246D02*
X13455162Y-16282627D01*
X13455162Y-16282627D02*
X13445639Y-16254055D01*
X13445639Y-16254055D02*
X13436115Y-16235008D01*
X13436115Y-16235008D02*
X13417067Y-16206436D01*
X13417067Y-16206436D02*
X13407543Y-16196912D01*
X8432481Y-16539000D02*
X8632481Y-16739000D01*
X8632481Y-16539000D02*
X8432481Y-16739000D01*
X8603192Y-16709711D02*
X8603192Y-16568289D01*
X8461769Y-16568289D01*
X8461769Y-16709711D01*
X8603192Y-16709711D01*
X8883734Y-16549531D02*
X8893257Y-16540008D01*
X8893257Y-16540008D02*
X8912305Y-16530484D01*
X8912305Y-16530484D02*
X8959924Y-16530484D01*
X8959924Y-16530484D02*
X8978972Y-16540008D01*
X8978972Y-16540008D02*
X8988495Y-16549531D01*
X8988495Y-16549531D02*
X8998019Y-16568579D01*
X8998019Y-16568579D02*
X8998019Y-16587627D01*
X8998019Y-16587627D02*
X8988495Y-16616198D01*
X8988495Y-16616198D02*
X8874210Y-16730484D01*
X8874210Y-16730484D02*
X8998019Y-16730484D01*
X9083734Y-16711436D02*
X9093257Y-16720960D01*
X9093257Y-16720960D02*
X9083734Y-16730484D01*
X9083734Y-16730484D02*
X9074210Y-16720960D01*
X9074210Y-16720960D02*
X9083734Y-16711436D01*
X9083734Y-16711436D02*
X9083734Y-16730484D01*
X9264686Y-16597150D02*
X9264686Y-16730484D01*
X9217067Y-16520960D02*
X9169448Y-16663817D01*
X9169448Y-16663817D02*
X9293257Y-16663817D01*
X9407543Y-16530484D02*
X9426591Y-16530484D01*
X9426591Y-16530484D02*
X9445638Y-16540008D01*
X9445638Y-16540008D02*
X9455162Y-16549531D01*
X9455162Y-16549531D02*
X9464686Y-16568579D01*
X9464686Y-16568579D02*
X9474210Y-16606674D01*
X9474210Y-16606674D02*
X9474210Y-16654293D01*
X9474210Y-16654293D02*
X9464686Y-16692388D01*
X9464686Y-16692388D02*
X9455162Y-16711436D01*
X9455162Y-16711436D02*
X9445638Y-16720960D01*
X9445638Y-16720960D02*
X9426591Y-16730484D01*
X9426591Y-16730484D02*
X9407543Y-16730484D01*
X9407543Y-16730484D02*
X9388495Y-16720960D01*
X9388495Y-16720960D02*
X9378972Y-16711436D01*
X9378972Y-16711436D02*
X9369448Y-16692388D01*
X9369448Y-16692388D02*
X9359924Y-16654293D01*
X9359924Y-16654293D02*
X9359924Y-16606674D01*
X9359924Y-16606674D02*
X9369448Y-16568579D01*
X9369448Y-16568579D02*
X9378972Y-16549531D01*
X9378972Y-16549531D02*
X9388495Y-16540008D01*
X9388495Y-16540008D02*
X9407543Y-16530484D01*
X9598019Y-16530484D02*
X9617067Y-16530484D01*
X9617067Y-16530484D02*
X9636115Y-16540008D01*
X9636115Y-16540008D02*
X9645638Y-16549531D01*
X9645638Y-16549531D02*
X9655162Y-16568579D01*
X9655162Y-16568579D02*
X9664686Y-16606674D01*
X9664686Y-16606674D02*
X9664686Y-16654293D01*
X9664686Y-16654293D02*
X9655162Y-16692388D01*
X9655162Y-16692388D02*
X9645638Y-16711436D01*
X9645638Y-16711436D02*
X9636115Y-16720960D01*
X9636115Y-16720960D02*
X9617067Y-16730484D01*
X9617067Y-16730484D02*
X9598019Y-16730484D01*
X9598019Y-16730484D02*
X9578972Y-16720960D01*
X9578972Y-16720960D02*
X9569448Y-16711436D01*
X9569448Y-16711436D02*
X9559924Y-16692388D01*
X9559924Y-16692388D02*
X9550400Y-16654293D01*
X9550400Y-16654293D02*
X9550400Y-16606674D01*
X9550400Y-16606674D02*
X9559924Y-16568579D01*
X9559924Y-16568579D02*
X9569448Y-16549531D01*
X9569448Y-16549531D02*
X9578972Y-16540008D01*
X9578972Y-16540008D02*
X9598019Y-16530484D01*
X9750400Y-16730484D02*
X9750400Y-16597150D01*
X9750400Y-16616198D02*
X9759924Y-16606674D01*
X9759924Y-16606674D02*
X9778972Y-16597150D01*
X9778972Y-16597150D02*
X9807543Y-16597150D01*
X9807543Y-16597150D02*
X9826591Y-16606674D01*
X9826591Y-16606674D02*
X9836115Y-16625722D01*
X9836115Y-16625722D02*
X9836115Y-16730484D01*
X9836115Y-16625722D02*
X9845638Y-16606674D01*
X9845638Y-16606674D02*
X9864686Y-16597150D01*
X9864686Y-16597150D02*
X9893257Y-16597150D01*
X9893257Y-16597150D02*
X9912305Y-16606674D01*
X9912305Y-16606674D02*
X9921829Y-16625722D01*
X9921829Y-16625722D02*
X9921829Y-16730484D01*
X10017067Y-16730484D02*
X10017067Y-16597150D01*
X10017067Y-16616198D02*
X10026591Y-16606674D01*
X10026591Y-16606674D02*
X10045638Y-16597150D01*
X10045638Y-16597150D02*
X10074210Y-16597150D01*
X10074210Y-16597150D02*
X10093257Y-16606674D01*
X10093257Y-16606674D02*
X10102781Y-16625722D01*
X10102781Y-16625722D02*
X10102781Y-16730484D01*
X10102781Y-16625722D02*
X10112305Y-16606674D01*
X10112305Y-16606674D02*
X10131353Y-16597150D01*
X10131353Y-16597150D02*
X10159924Y-16597150D01*
X10159924Y-16597150D02*
X10178972Y-16606674D01*
X10178972Y-16606674D02*
X10188496Y-16625722D01*
X10188496Y-16625722D02*
X10188496Y-16730484D01*
X10578972Y-16520960D02*
X10407543Y-16778103D01*
X10836115Y-16530484D02*
X10855162Y-16530484D01*
X10855162Y-16530484D02*
X10874210Y-16540008D01*
X10874210Y-16540008D02*
X10883734Y-16549531D01*
X10883734Y-16549531D02*
X10893258Y-16568579D01*
X10893258Y-16568579D02*
X10902781Y-16606674D01*
X10902781Y-16606674D02*
X10902781Y-16654293D01*
X10902781Y-16654293D02*
X10893258Y-16692388D01*
X10893258Y-16692388D02*
X10883734Y-16711436D01*
X10883734Y-16711436D02*
X10874210Y-16720960D01*
X10874210Y-16720960D02*
X10855162Y-16730484D01*
X10855162Y-16730484D02*
X10836115Y-16730484D01*
X10836115Y-16730484D02*
X10817067Y-16720960D01*
X10817067Y-16720960D02*
X10807543Y-16711436D01*
X10807543Y-16711436D02*
X10798019Y-16692388D01*
X10798019Y-16692388D02*
X10788496Y-16654293D01*
X10788496Y-16654293D02*
X10788496Y-16606674D01*
X10788496Y-16606674D02*
X10798019Y-16568579D01*
X10798019Y-16568579D02*
X10807543Y-16549531D01*
X10807543Y-16549531D02*
X10817067Y-16540008D01*
X10817067Y-16540008D02*
X10836115Y-16530484D01*
X10988496Y-16711436D02*
X10998019Y-16720960D01*
X10998019Y-16720960D02*
X10988496Y-16730484D01*
X10988496Y-16730484D02*
X10978972Y-16720960D01*
X10978972Y-16720960D02*
X10988496Y-16711436D01*
X10988496Y-16711436D02*
X10988496Y-16730484D01*
X11121829Y-16530484D02*
X11140877Y-16530484D01*
X11140877Y-16530484D02*
X11159924Y-16540008D01*
X11159924Y-16540008D02*
X11169448Y-16549531D01*
X11169448Y-16549531D02*
X11178972Y-16568579D01*
X11178972Y-16568579D02*
X11188496Y-16606674D01*
X11188496Y-16606674D02*
X11188496Y-16654293D01*
X11188496Y-16654293D02*
X11178972Y-16692388D01*
X11178972Y-16692388D02*
X11169448Y-16711436D01*
X11169448Y-16711436D02*
X11159924Y-16720960D01*
X11159924Y-16720960D02*
X11140877Y-16730484D01*
X11140877Y-16730484D02*
X11121829Y-16730484D01*
X11121829Y-16730484D02*
X11102781Y-16720960D01*
X11102781Y-16720960D02*
X11093258Y-16711436D01*
X11093258Y-16711436D02*
X11083734Y-16692388D01*
X11083734Y-16692388D02*
X11074210Y-16654293D01*
X11074210Y-16654293D02*
X11074210Y-16606674D01*
X11074210Y-16606674D02*
X11083734Y-16568579D01*
X11083734Y-16568579D02*
X11093258Y-16549531D01*
X11093258Y-16549531D02*
X11102781Y-16540008D01*
X11102781Y-16540008D02*
X11121829Y-16530484D01*
X11283734Y-16730484D02*
X11321829Y-16730484D01*
X11321829Y-16730484D02*
X11340877Y-16720960D01*
X11340877Y-16720960D02*
X11350400Y-16711436D01*
X11350400Y-16711436D02*
X11369448Y-16682865D01*
X11369448Y-16682865D02*
X11378972Y-16644769D01*
X11378972Y-16644769D02*
X11378972Y-16568579D01*
X11378972Y-16568579D02*
X11369448Y-16549531D01*
X11369448Y-16549531D02*
X11359924Y-16540008D01*
X11359924Y-16540008D02*
X11340877Y-16530484D01*
X11340877Y-16530484D02*
X11302781Y-16530484D01*
X11302781Y-16530484D02*
X11283734Y-16540008D01*
X11283734Y-16540008D02*
X11274210Y-16549531D01*
X11274210Y-16549531D02*
X11264686Y-16568579D01*
X11264686Y-16568579D02*
X11264686Y-16616198D01*
X11264686Y-16616198D02*
X11274210Y-16635246D01*
X11274210Y-16635246D02*
X11283734Y-16644769D01*
X11283734Y-16644769D02*
X11302781Y-16654293D01*
X11302781Y-16654293D02*
X11340877Y-16654293D01*
X11340877Y-16654293D02*
X11359924Y-16644769D01*
X11359924Y-16644769D02*
X11369448Y-16635246D01*
X11369448Y-16635246D02*
X11378972Y-16616198D01*
X11550400Y-16597150D02*
X11550400Y-16730484D01*
X11502781Y-16520960D02*
X11455162Y-16663817D01*
X11455162Y-16663817D02*
X11578972Y-16663817D01*
X11750400Y-16530484D02*
X11655162Y-16530484D01*
X11655162Y-16530484D02*
X11645638Y-16625722D01*
X11645638Y-16625722D02*
X11655162Y-16616198D01*
X11655162Y-16616198D02*
X11674210Y-16606674D01*
X11674210Y-16606674D02*
X11721829Y-16606674D01*
X11721829Y-16606674D02*
X11740877Y-16616198D01*
X11740877Y-16616198D02*
X11750400Y-16625722D01*
X11750400Y-16625722D02*
X11759924Y-16644769D01*
X11759924Y-16644769D02*
X11759924Y-16692388D01*
X11759924Y-16692388D02*
X11750400Y-16711436D01*
X11750400Y-16711436D02*
X11740877Y-16720960D01*
X11740877Y-16720960D02*
X11721829Y-16730484D01*
X11721829Y-16730484D02*
X11674210Y-16730484D01*
X11674210Y-16730484D02*
X11655162Y-16720960D01*
X11655162Y-16720960D02*
X11645638Y-16711436D01*
X11836115Y-16530484D02*
X11836115Y-16568579D01*
X11912305Y-16530484D02*
X11912305Y-16568579D01*
X12207543Y-16806674D02*
X12198019Y-16797150D01*
X12198019Y-16797150D02*
X12178972Y-16768579D01*
X12178972Y-16768579D02*
X12169448Y-16749531D01*
X12169448Y-16749531D02*
X12159924Y-16720960D01*
X12159924Y-16720960D02*
X12150400Y-16673341D01*
X12150400Y-16673341D02*
X12150400Y-16635246D01*
X12150400Y-16635246D02*
X12159924Y-16587627D01*
X12159924Y-16587627D02*
X12169448Y-16559055D01*
X12169448Y-16559055D02*
X12178972Y-16540008D01*
X12178972Y-16540008D02*
X12198019Y-16511436D01*
X12198019Y-16511436D02*
X12207543Y-16501912D01*
X12388496Y-16730484D02*
X12274210Y-16730484D01*
X12331353Y-16730484D02*
X12331353Y-16530484D01*
X12331353Y-16530484D02*
X12312305Y-16559055D01*
X12312305Y-16559055D02*
X12293258Y-16578103D01*
X12293258Y-16578103D02*
X12274210Y-16587627D01*
X12626591Y-16730484D02*
X12626591Y-16530484D01*
X12712305Y-16730484D02*
X12712305Y-16625722D01*
X12712305Y-16625722D02*
X12702781Y-16606674D01*
X12702781Y-16606674D02*
X12683734Y-16597150D01*
X12683734Y-16597150D02*
X12655162Y-16597150D01*
X12655162Y-16597150D02*
X12636115Y-16606674D01*
X12636115Y-16606674D02*
X12626591Y-16616198D01*
X12836115Y-16730484D02*
X12817067Y-16720960D01*
X12817067Y-16720960D02*
X12807543Y-16711436D01*
X12807543Y-16711436D02*
X12798020Y-16692388D01*
X12798020Y-16692388D02*
X12798020Y-16635246D01*
X12798020Y-16635246D02*
X12807543Y-16616198D01*
X12807543Y-16616198D02*
X12817067Y-16606674D01*
X12817067Y-16606674D02*
X12836115Y-16597150D01*
X12836115Y-16597150D02*
X12864686Y-16597150D01*
X12864686Y-16597150D02*
X12883734Y-16606674D01*
X12883734Y-16606674D02*
X12893258Y-16616198D01*
X12893258Y-16616198D02*
X12902781Y-16635246D01*
X12902781Y-16635246D02*
X12902781Y-16692388D01*
X12902781Y-16692388D02*
X12893258Y-16711436D01*
X12893258Y-16711436D02*
X12883734Y-16720960D01*
X12883734Y-16720960D02*
X12864686Y-16730484D01*
X12864686Y-16730484D02*
X12836115Y-16730484D01*
X13017067Y-16730484D02*
X12998020Y-16720960D01*
X12998020Y-16720960D02*
X12988496Y-16701912D01*
X12988496Y-16701912D02*
X12988496Y-16530484D01*
X13169448Y-16720960D02*
X13150401Y-16730484D01*
X13150401Y-16730484D02*
X13112305Y-16730484D01*
X13112305Y-16730484D02*
X13093258Y-16720960D01*
X13093258Y-16720960D02*
X13083734Y-16701912D01*
X13083734Y-16701912D02*
X13083734Y-16625722D01*
X13083734Y-16625722D02*
X13093258Y-16606674D01*
X13093258Y-16606674D02*
X13112305Y-16597150D01*
X13112305Y-16597150D02*
X13150401Y-16597150D01*
X13150401Y-16597150D02*
X13169448Y-16606674D01*
X13169448Y-16606674D02*
X13178972Y-16625722D01*
X13178972Y-16625722D02*
X13178972Y-16644769D01*
X13178972Y-16644769D02*
X13083734Y-16663817D01*
X13245639Y-16806674D02*
X13255162Y-16797150D01*
X13255162Y-16797150D02*
X13274210Y-16768579D01*
X13274210Y-16768579D02*
X13283734Y-16749531D01*
X13283734Y-16749531D02*
X13293258Y-16720960D01*
X13293258Y-16720960D02*
X13302781Y-16673341D01*
X13302781Y-16673341D02*
X13302781Y-16635246D01*
X13302781Y-16635246D02*
X13293258Y-16587627D01*
X13293258Y-16587627D02*
X13283734Y-16559055D01*
X13283734Y-16559055D02*
X13274210Y-16540008D01*
X13274210Y-16540008D02*
X13255162Y-16511436D01*
X13255162Y-16511436D02*
X13245639Y-16501912D01*
M02*
