%TF.GenerationSoftware,KiCad,Pcbnew,7.0.10-7.0.10~ubuntu22.04.1*%
%TF.CreationDate,2024-04-21T14:18:29-04:00*%
%TF.ProjectId,little_red_rover,6c697474-6c65-45f7-9265-645f726f7665,rev?*%
%TF.SameCoordinates,Original*%
%TF.FileFunction,Drillmap*%
%TF.FilePolarity,Positive*%
%FSLAX45Y45*%
G04 Gerber Fmt 4.5, Leading zero omitted, Abs format (unit mm)*
G04 Created by KiCad (PCBNEW 7.0.10-7.0.10~ubuntu22.04.1) date 2024-04-21 14:18:29*
%MOMM*%
%LPD*%
G01*
G04 APERTURE LIST*
%ADD10C,0.200000*%
%ADD11C,0.100000*%
%ADD12C,0.134620*%
G04 APERTURE END LIST*
D10*
X21365000Y-11650000D02*
X20865000Y-11650000D01*
X18375000Y-11935000D02*
X17361369Y-11935000D01*
X9003062Y-11700000D02*
X9447410Y-11700000D01*
X21365000Y-6090000D02*
X21365000Y-5890000D01*
X18375000Y-11935000D02*
X18375000Y-11635000D01*
X21365000Y-11650000D02*
X21365000Y-8350000D01*
X18375000Y-11635000D02*
X17361369Y-11635000D01*
X17361369Y-6375000D02*
X17361369Y-6075000D01*
X9003062Y-8300000D02*
X9447410Y-8300000D01*
X9099729Y-10690000D02*
G75*
G03*
X9143334Y-10890000I3645091J689960D01*
G01*
X17361369Y-11935000D02*
X17361369Y-11635000D01*
X21365000Y-8150000D02*
X20865000Y-8150000D01*
X16505000Y-8200000D02*
G75*
G03*
X16185000Y-8200000I-160000J0D01*
G01*
X16185000Y-8200000D02*
G75*
G03*
X16505000Y-8200000I160000J0D01*
G01*
X12745000Y-5890000D02*
G75*
G03*
X9003062Y-8300000I1J-4110001D01*
G01*
X13978988Y-11634861D02*
G75*
G03*
X14609153Y-11742043I355412J183521D01*
G01*
X9351757Y-8500000D02*
X8918500Y-8500000D01*
X20865000Y-13710000D02*
X20865000Y-13910000D01*
X14609149Y-8257960D02*
G75*
G03*
X13978992Y-8365141I-274750J-290700D01*
G01*
X15923362Y-9500000D02*
X14609153Y-8257957D01*
X8693334Y-9310000D02*
G75*
G03*
X8693334Y-10690000I4051666J-690000D01*
G01*
X17361369Y-6375000D02*
X18375000Y-6375000D01*
X12745000Y-14110000D02*
X21365000Y-14110000D01*
X9447410Y-8300000D02*
G75*
G03*
X9351757Y-8500000I3297630J-1700020D01*
G01*
X21365000Y-8150000D02*
X21365000Y-6290000D01*
X17361369Y-13925000D02*
X17361369Y-13625000D01*
X20865000Y-8150000D02*
X20865000Y-8350000D01*
X17361369Y-6075000D02*
X18375000Y-6075000D01*
X9099729Y-10690000D02*
X8693334Y-10690000D01*
X18375000Y-8365000D02*
X18375000Y-8065000D01*
X20865000Y-6090000D02*
X21365000Y-6090000D01*
X17361369Y-8365000D02*
X18375000Y-8365000D01*
X15923362Y-10500000D02*
G75*
G03*
X15923362Y-9500000I1221638J500000D01*
G01*
X18375000Y-13925000D02*
X17361369Y-13925000D01*
X20865000Y-11650000D02*
X20865000Y-11850000D01*
X8732520Y-10890000D02*
X9143334Y-10890000D01*
X18375000Y-13625000D02*
X17361369Y-13625000D01*
X12745000Y-5890000D02*
X21365000Y-5890000D01*
X21365000Y-8350000D02*
X20865000Y-8350000D01*
X8918501Y-8500000D02*
G75*
G03*
X8732520Y-9110000I3826559J-1500020D01*
G01*
X8918500Y-11500000D02*
X9351757Y-11500000D01*
X9143334Y-9110000D02*
G75*
G03*
X9099729Y-9310000I3601986J-890070D01*
G01*
X9003062Y-11700000D02*
G75*
G03*
X12745000Y-14110000I3741938J1700000D01*
G01*
X21365000Y-11850000D02*
X20865000Y-11850000D01*
X21365000Y-6290000D02*
X20865000Y-6290000D01*
X17361369Y-8065000D02*
X18375000Y-8065000D01*
X20865000Y-13910000D02*
X21365000Y-13910000D01*
X20865000Y-6090000D02*
X20865000Y-6290000D01*
X16505000Y-11800000D02*
G75*
G03*
X16185000Y-11800000I-160000J0D01*
G01*
X16185000Y-11800000D02*
G75*
G03*
X16505000Y-11800000I160000J0D01*
G01*
X18375000Y-13925000D02*
X18375000Y-13625000D01*
X9099729Y-9310000D02*
X8693334Y-9310000D01*
X17361369Y-8365000D02*
X17361369Y-8065000D01*
X9375000Y-10000000D02*
G75*
G03*
X9055000Y-10000000I-160000J0D01*
G01*
X9055000Y-10000000D02*
G75*
G03*
X9375000Y-10000000I160000J0D01*
G01*
X21365000Y-13710000D02*
X20865000Y-13710000D01*
X8732519Y-10890000D02*
G75*
G03*
X8918500Y-11500000I4012401J889980D01*
G01*
X21365000Y-13710000D02*
X21365000Y-11850000D01*
X9351757Y-11500000D02*
G75*
G03*
X9447410Y-11700000I3393283J1500020D01*
G01*
X9143334Y-9110000D02*
X8732520Y-9110000D01*
X18375000Y-6375000D02*
X18375000Y-6075000D01*
X13978992Y-8365141D02*
G75*
G03*
X13978992Y-11634859I3166008J-1634859D01*
G01*
X15923362Y-10500000D02*
X14609153Y-11742043D01*
X21365000Y-14110000D02*
X21365000Y-13910000D01*
D11*
X12978500Y-13457000D02*
X13043500Y-13522000D01*
X13043500Y-13457000D02*
X12978500Y-13522000D01*
X13556500Y-13457000D02*
X13621500Y-13522000D01*
X13621500Y-13457000D02*
X13556500Y-13522000D01*
D12*
X20370425Y-11503746D02*
G75*
G03*
X20235805Y-11503746I-67310J0D01*
G01*
X20235805Y-11503746D02*
G75*
G03*
X20370425Y-11503746I67310J0D01*
G01*
X20394195Y-8476254D02*
G75*
G03*
X20259575Y-8476254I-67310J0D01*
G01*
X20259575Y-8476254D02*
G75*
G03*
X20394195Y-8476254I67310J0D01*
G01*
D10*
X8885777Y-14431484D02*
X8885777Y-14231484D01*
X8885777Y-14231484D02*
X8933396Y-14231484D01*
X8933396Y-14231484D02*
X8961967Y-14241008D01*
X8961967Y-14241008D02*
X8981015Y-14260055D01*
X8981015Y-14260055D02*
X8990539Y-14279103D01*
X8990539Y-14279103D02*
X9000063Y-14317198D01*
X9000063Y-14317198D02*
X9000063Y-14345769D01*
X9000063Y-14345769D02*
X8990539Y-14383865D01*
X8990539Y-14383865D02*
X8981015Y-14402912D01*
X8981015Y-14402912D02*
X8961967Y-14421960D01*
X8961967Y-14421960D02*
X8933396Y-14431484D01*
X8933396Y-14431484D02*
X8885777Y-14431484D01*
X9085777Y-14431484D02*
X9085777Y-14298150D01*
X9085777Y-14336246D02*
X9095301Y-14317198D01*
X9095301Y-14317198D02*
X9104824Y-14307674D01*
X9104824Y-14307674D02*
X9123872Y-14298150D01*
X9123872Y-14298150D02*
X9142920Y-14298150D01*
X9209586Y-14431484D02*
X9209586Y-14298150D01*
X9209586Y-14231484D02*
X9200063Y-14241008D01*
X9200063Y-14241008D02*
X9209586Y-14250531D01*
X9209586Y-14250531D02*
X9219110Y-14241008D01*
X9219110Y-14241008D02*
X9209586Y-14231484D01*
X9209586Y-14231484D02*
X9209586Y-14250531D01*
X9333396Y-14431484D02*
X9314348Y-14421960D01*
X9314348Y-14421960D02*
X9304824Y-14402912D01*
X9304824Y-14402912D02*
X9304824Y-14231484D01*
X9438158Y-14431484D02*
X9419110Y-14421960D01*
X9419110Y-14421960D02*
X9409586Y-14402912D01*
X9409586Y-14402912D02*
X9409586Y-14231484D01*
X9666729Y-14431484D02*
X9666729Y-14231484D01*
X9666729Y-14231484D02*
X9733396Y-14374341D01*
X9733396Y-14374341D02*
X9800063Y-14231484D01*
X9800063Y-14231484D02*
X9800063Y-14431484D01*
X9981015Y-14431484D02*
X9981015Y-14326722D01*
X9981015Y-14326722D02*
X9971491Y-14307674D01*
X9971491Y-14307674D02*
X9952444Y-14298150D01*
X9952444Y-14298150D02*
X9914348Y-14298150D01*
X9914348Y-14298150D02*
X9895301Y-14307674D01*
X9981015Y-14421960D02*
X9961967Y-14431484D01*
X9961967Y-14431484D02*
X9914348Y-14431484D01*
X9914348Y-14431484D02*
X9895301Y-14421960D01*
X9895301Y-14421960D02*
X9885777Y-14402912D01*
X9885777Y-14402912D02*
X9885777Y-14383865D01*
X9885777Y-14383865D02*
X9895301Y-14364817D01*
X9895301Y-14364817D02*
X9914348Y-14355293D01*
X9914348Y-14355293D02*
X9961967Y-14355293D01*
X9961967Y-14355293D02*
X9981015Y-14345769D01*
X10076253Y-14298150D02*
X10076253Y-14498150D01*
X10076253Y-14307674D02*
X10095301Y-14298150D01*
X10095301Y-14298150D02*
X10133396Y-14298150D01*
X10133396Y-14298150D02*
X10152444Y-14307674D01*
X10152444Y-14307674D02*
X10161967Y-14317198D01*
X10161967Y-14317198D02*
X10171491Y-14336246D01*
X10171491Y-14336246D02*
X10171491Y-14393388D01*
X10171491Y-14393388D02*
X10161967Y-14412436D01*
X10161967Y-14412436D02*
X10152444Y-14421960D01*
X10152444Y-14421960D02*
X10133396Y-14431484D01*
X10133396Y-14431484D02*
X10095301Y-14431484D01*
X10095301Y-14431484D02*
X10076253Y-14421960D01*
X10257205Y-14412436D02*
X10266729Y-14421960D01*
X10266729Y-14421960D02*
X10257205Y-14431484D01*
X10257205Y-14431484D02*
X10247682Y-14421960D01*
X10247682Y-14421960D02*
X10257205Y-14412436D01*
X10257205Y-14412436D02*
X10257205Y-14431484D01*
X10257205Y-14307674D02*
X10266729Y-14317198D01*
X10266729Y-14317198D02*
X10257205Y-14326722D01*
X10257205Y-14326722D02*
X10247682Y-14317198D01*
X10247682Y-14317198D02*
X10257205Y-14307674D01*
X10257205Y-14307674D02*
X10257205Y-14326722D01*
D11*
X8560000Y-14727500D02*
X8625000Y-14792500D01*
X8625000Y-14727500D02*
X8560000Y-14792500D01*
D10*
X8923872Y-14651484D02*
X8942920Y-14651484D01*
X8942920Y-14651484D02*
X8961967Y-14661008D01*
X8961967Y-14661008D02*
X8971491Y-14670531D01*
X8971491Y-14670531D02*
X8981015Y-14689579D01*
X8981015Y-14689579D02*
X8990539Y-14727674D01*
X8990539Y-14727674D02*
X8990539Y-14775293D01*
X8990539Y-14775293D02*
X8981015Y-14813388D01*
X8981015Y-14813388D02*
X8971491Y-14832436D01*
X8971491Y-14832436D02*
X8961967Y-14841960D01*
X8961967Y-14841960D02*
X8942920Y-14851484D01*
X8942920Y-14851484D02*
X8923872Y-14851484D01*
X8923872Y-14851484D02*
X8904824Y-14841960D01*
X8904824Y-14841960D02*
X8895301Y-14832436D01*
X8895301Y-14832436D02*
X8885777Y-14813388D01*
X8885777Y-14813388D02*
X8876253Y-14775293D01*
X8876253Y-14775293D02*
X8876253Y-14727674D01*
X8876253Y-14727674D02*
X8885777Y-14689579D01*
X8885777Y-14689579D02*
X8895301Y-14670531D01*
X8895301Y-14670531D02*
X8904824Y-14661008D01*
X8904824Y-14661008D02*
X8923872Y-14651484D01*
X9076253Y-14832436D02*
X9085777Y-14841960D01*
X9085777Y-14841960D02*
X9076253Y-14851484D01*
X9076253Y-14851484D02*
X9066729Y-14841960D01*
X9066729Y-14841960D02*
X9076253Y-14832436D01*
X9076253Y-14832436D02*
X9076253Y-14851484D01*
X9257205Y-14651484D02*
X9219110Y-14651484D01*
X9219110Y-14651484D02*
X9200063Y-14661008D01*
X9200063Y-14661008D02*
X9190539Y-14670531D01*
X9190539Y-14670531D02*
X9171491Y-14699103D01*
X9171491Y-14699103D02*
X9161967Y-14737198D01*
X9161967Y-14737198D02*
X9161967Y-14813388D01*
X9161967Y-14813388D02*
X9171491Y-14832436D01*
X9171491Y-14832436D02*
X9181015Y-14841960D01*
X9181015Y-14841960D02*
X9200063Y-14851484D01*
X9200063Y-14851484D02*
X9238158Y-14851484D01*
X9238158Y-14851484D02*
X9257205Y-14841960D01*
X9257205Y-14841960D02*
X9266729Y-14832436D01*
X9266729Y-14832436D02*
X9276253Y-14813388D01*
X9276253Y-14813388D02*
X9276253Y-14765769D01*
X9276253Y-14765769D02*
X9266729Y-14746722D01*
X9266729Y-14746722D02*
X9257205Y-14737198D01*
X9257205Y-14737198D02*
X9238158Y-14727674D01*
X9238158Y-14727674D02*
X9200063Y-14727674D01*
X9200063Y-14727674D02*
X9181015Y-14737198D01*
X9181015Y-14737198D02*
X9171491Y-14746722D01*
X9171491Y-14746722D02*
X9161967Y-14765769D01*
X9457205Y-14651484D02*
X9361967Y-14651484D01*
X9361967Y-14651484D02*
X9352444Y-14746722D01*
X9352444Y-14746722D02*
X9361967Y-14737198D01*
X9361967Y-14737198D02*
X9381015Y-14727674D01*
X9381015Y-14727674D02*
X9428634Y-14727674D01*
X9428634Y-14727674D02*
X9447682Y-14737198D01*
X9447682Y-14737198D02*
X9457205Y-14746722D01*
X9457205Y-14746722D02*
X9466729Y-14765769D01*
X9466729Y-14765769D02*
X9466729Y-14813388D01*
X9466729Y-14813388D02*
X9457205Y-14832436D01*
X9457205Y-14832436D02*
X9447682Y-14841960D01*
X9447682Y-14841960D02*
X9428634Y-14851484D01*
X9428634Y-14851484D02*
X9381015Y-14851484D01*
X9381015Y-14851484D02*
X9361967Y-14841960D01*
X9361967Y-14841960D02*
X9352444Y-14832436D01*
X9590539Y-14651484D02*
X9609586Y-14651484D01*
X9609586Y-14651484D02*
X9628634Y-14661008D01*
X9628634Y-14661008D02*
X9638158Y-14670531D01*
X9638158Y-14670531D02*
X9647682Y-14689579D01*
X9647682Y-14689579D02*
X9657205Y-14727674D01*
X9657205Y-14727674D02*
X9657205Y-14775293D01*
X9657205Y-14775293D02*
X9647682Y-14813388D01*
X9647682Y-14813388D02*
X9638158Y-14832436D01*
X9638158Y-14832436D02*
X9628634Y-14841960D01*
X9628634Y-14841960D02*
X9609586Y-14851484D01*
X9609586Y-14851484D02*
X9590539Y-14851484D01*
X9590539Y-14851484D02*
X9571491Y-14841960D01*
X9571491Y-14841960D02*
X9561967Y-14832436D01*
X9561967Y-14832436D02*
X9552444Y-14813388D01*
X9552444Y-14813388D02*
X9542920Y-14775293D01*
X9542920Y-14775293D02*
X9542920Y-14727674D01*
X9542920Y-14727674D02*
X9552444Y-14689579D01*
X9552444Y-14689579D02*
X9561967Y-14670531D01*
X9561967Y-14670531D02*
X9571491Y-14661008D01*
X9571491Y-14661008D02*
X9590539Y-14651484D01*
X9742920Y-14851484D02*
X9742920Y-14718150D01*
X9742920Y-14737198D02*
X9752444Y-14727674D01*
X9752444Y-14727674D02*
X9771491Y-14718150D01*
X9771491Y-14718150D02*
X9800063Y-14718150D01*
X9800063Y-14718150D02*
X9819110Y-14727674D01*
X9819110Y-14727674D02*
X9828634Y-14746722D01*
X9828634Y-14746722D02*
X9828634Y-14851484D01*
X9828634Y-14746722D02*
X9838158Y-14727674D01*
X9838158Y-14727674D02*
X9857205Y-14718150D01*
X9857205Y-14718150D02*
X9885777Y-14718150D01*
X9885777Y-14718150D02*
X9904825Y-14727674D01*
X9904825Y-14727674D02*
X9914348Y-14746722D01*
X9914348Y-14746722D02*
X9914348Y-14851484D01*
X10009586Y-14851484D02*
X10009586Y-14718150D01*
X10009586Y-14737198D02*
X10019110Y-14727674D01*
X10019110Y-14727674D02*
X10038158Y-14718150D01*
X10038158Y-14718150D02*
X10066729Y-14718150D01*
X10066729Y-14718150D02*
X10085777Y-14727674D01*
X10085777Y-14727674D02*
X10095301Y-14746722D01*
X10095301Y-14746722D02*
X10095301Y-14851484D01*
X10095301Y-14746722D02*
X10104825Y-14727674D01*
X10104825Y-14727674D02*
X10123872Y-14718150D01*
X10123872Y-14718150D02*
X10152444Y-14718150D01*
X10152444Y-14718150D02*
X10171491Y-14727674D01*
X10171491Y-14727674D02*
X10181015Y-14746722D01*
X10181015Y-14746722D02*
X10181015Y-14851484D01*
X10571491Y-14641960D02*
X10400063Y-14899103D01*
X10828634Y-14651484D02*
X10847682Y-14651484D01*
X10847682Y-14651484D02*
X10866729Y-14661008D01*
X10866729Y-14661008D02*
X10876253Y-14670531D01*
X10876253Y-14670531D02*
X10885777Y-14689579D01*
X10885777Y-14689579D02*
X10895301Y-14727674D01*
X10895301Y-14727674D02*
X10895301Y-14775293D01*
X10895301Y-14775293D02*
X10885777Y-14813388D01*
X10885777Y-14813388D02*
X10876253Y-14832436D01*
X10876253Y-14832436D02*
X10866729Y-14841960D01*
X10866729Y-14841960D02*
X10847682Y-14851484D01*
X10847682Y-14851484D02*
X10828634Y-14851484D01*
X10828634Y-14851484D02*
X10809587Y-14841960D01*
X10809587Y-14841960D02*
X10800063Y-14832436D01*
X10800063Y-14832436D02*
X10790539Y-14813388D01*
X10790539Y-14813388D02*
X10781015Y-14775293D01*
X10781015Y-14775293D02*
X10781015Y-14727674D01*
X10781015Y-14727674D02*
X10790539Y-14689579D01*
X10790539Y-14689579D02*
X10800063Y-14670531D01*
X10800063Y-14670531D02*
X10809587Y-14661008D01*
X10809587Y-14661008D02*
X10828634Y-14651484D01*
X10981015Y-14832436D02*
X10990539Y-14841960D01*
X10990539Y-14841960D02*
X10981015Y-14851484D01*
X10981015Y-14851484D02*
X10971491Y-14841960D01*
X10971491Y-14841960D02*
X10981015Y-14832436D01*
X10981015Y-14832436D02*
X10981015Y-14851484D01*
X11114348Y-14651484D02*
X11133396Y-14651484D01*
X11133396Y-14651484D02*
X11152444Y-14661008D01*
X11152444Y-14661008D02*
X11161968Y-14670531D01*
X11161968Y-14670531D02*
X11171491Y-14689579D01*
X11171491Y-14689579D02*
X11181015Y-14727674D01*
X11181015Y-14727674D02*
X11181015Y-14775293D01*
X11181015Y-14775293D02*
X11171491Y-14813388D01*
X11171491Y-14813388D02*
X11161968Y-14832436D01*
X11161968Y-14832436D02*
X11152444Y-14841960D01*
X11152444Y-14841960D02*
X11133396Y-14851484D01*
X11133396Y-14851484D02*
X11114348Y-14851484D01*
X11114348Y-14851484D02*
X11095301Y-14841960D01*
X11095301Y-14841960D02*
X11085777Y-14832436D01*
X11085777Y-14832436D02*
X11076253Y-14813388D01*
X11076253Y-14813388D02*
X11066729Y-14775293D01*
X11066729Y-14775293D02*
X11066729Y-14727674D01*
X11066729Y-14727674D02*
X11076253Y-14689579D01*
X11076253Y-14689579D02*
X11085777Y-14670531D01*
X11085777Y-14670531D02*
X11095301Y-14661008D01*
X11095301Y-14661008D02*
X11114348Y-14651484D01*
X11257206Y-14670531D02*
X11266729Y-14661008D01*
X11266729Y-14661008D02*
X11285777Y-14651484D01*
X11285777Y-14651484D02*
X11333396Y-14651484D01*
X11333396Y-14651484D02*
X11352444Y-14661008D01*
X11352444Y-14661008D02*
X11361967Y-14670531D01*
X11361967Y-14670531D02*
X11371491Y-14689579D01*
X11371491Y-14689579D02*
X11371491Y-14708627D01*
X11371491Y-14708627D02*
X11361967Y-14737198D01*
X11361967Y-14737198D02*
X11247682Y-14851484D01*
X11247682Y-14851484D02*
X11371491Y-14851484D01*
X11552444Y-14651484D02*
X11457206Y-14651484D01*
X11457206Y-14651484D02*
X11447682Y-14746722D01*
X11447682Y-14746722D02*
X11457206Y-14737198D01*
X11457206Y-14737198D02*
X11476253Y-14727674D01*
X11476253Y-14727674D02*
X11523872Y-14727674D01*
X11523872Y-14727674D02*
X11542920Y-14737198D01*
X11542920Y-14737198D02*
X11552444Y-14746722D01*
X11552444Y-14746722D02*
X11561967Y-14765769D01*
X11561967Y-14765769D02*
X11561967Y-14813388D01*
X11561967Y-14813388D02*
X11552444Y-14832436D01*
X11552444Y-14832436D02*
X11542920Y-14841960D01*
X11542920Y-14841960D02*
X11523872Y-14851484D01*
X11523872Y-14851484D02*
X11476253Y-14851484D01*
X11476253Y-14851484D02*
X11457206Y-14841960D01*
X11457206Y-14841960D02*
X11447682Y-14832436D01*
X11733396Y-14651484D02*
X11695301Y-14651484D01*
X11695301Y-14651484D02*
X11676253Y-14661008D01*
X11676253Y-14661008D02*
X11666729Y-14670531D01*
X11666729Y-14670531D02*
X11647682Y-14699103D01*
X11647682Y-14699103D02*
X11638158Y-14737198D01*
X11638158Y-14737198D02*
X11638158Y-14813388D01*
X11638158Y-14813388D02*
X11647682Y-14832436D01*
X11647682Y-14832436D02*
X11657206Y-14841960D01*
X11657206Y-14841960D02*
X11676253Y-14851484D01*
X11676253Y-14851484D02*
X11714348Y-14851484D01*
X11714348Y-14851484D02*
X11733396Y-14841960D01*
X11733396Y-14841960D02*
X11742920Y-14832436D01*
X11742920Y-14832436D02*
X11752444Y-14813388D01*
X11752444Y-14813388D02*
X11752444Y-14765769D01*
X11752444Y-14765769D02*
X11742920Y-14746722D01*
X11742920Y-14746722D02*
X11733396Y-14737198D01*
X11733396Y-14737198D02*
X11714348Y-14727674D01*
X11714348Y-14727674D02*
X11676253Y-14727674D01*
X11676253Y-14727674D02*
X11657206Y-14737198D01*
X11657206Y-14737198D02*
X11647682Y-14746722D01*
X11647682Y-14746722D02*
X11638158Y-14765769D01*
X11828634Y-14651484D02*
X11828634Y-14689579D01*
X11904825Y-14651484D02*
X11904825Y-14689579D01*
X12200063Y-14927674D02*
X12190539Y-14918150D01*
X12190539Y-14918150D02*
X12171491Y-14889579D01*
X12171491Y-14889579D02*
X12161968Y-14870531D01*
X12161968Y-14870531D02*
X12152444Y-14841960D01*
X12152444Y-14841960D02*
X12142920Y-14794341D01*
X12142920Y-14794341D02*
X12142920Y-14756246D01*
X12142920Y-14756246D02*
X12152444Y-14708627D01*
X12152444Y-14708627D02*
X12161968Y-14680055D01*
X12161968Y-14680055D02*
X12171491Y-14661008D01*
X12171491Y-14661008D02*
X12190539Y-14632436D01*
X12190539Y-14632436D02*
X12200063Y-14622912D01*
X12266729Y-14670531D02*
X12276253Y-14661008D01*
X12276253Y-14661008D02*
X12295301Y-14651484D01*
X12295301Y-14651484D02*
X12342920Y-14651484D01*
X12342920Y-14651484D02*
X12361968Y-14661008D01*
X12361968Y-14661008D02*
X12371491Y-14670531D01*
X12371491Y-14670531D02*
X12381015Y-14689579D01*
X12381015Y-14689579D02*
X12381015Y-14708627D01*
X12381015Y-14708627D02*
X12371491Y-14737198D01*
X12371491Y-14737198D02*
X12257206Y-14851484D01*
X12257206Y-14851484D02*
X12381015Y-14851484D01*
X12619110Y-14851484D02*
X12619110Y-14651484D01*
X12704825Y-14851484D02*
X12704825Y-14746722D01*
X12704825Y-14746722D02*
X12695301Y-14727674D01*
X12695301Y-14727674D02*
X12676253Y-14718150D01*
X12676253Y-14718150D02*
X12647682Y-14718150D01*
X12647682Y-14718150D02*
X12628634Y-14727674D01*
X12628634Y-14727674D02*
X12619110Y-14737198D01*
X12828634Y-14851484D02*
X12809587Y-14841960D01*
X12809587Y-14841960D02*
X12800063Y-14832436D01*
X12800063Y-14832436D02*
X12790539Y-14813388D01*
X12790539Y-14813388D02*
X12790539Y-14756246D01*
X12790539Y-14756246D02*
X12800063Y-14737198D01*
X12800063Y-14737198D02*
X12809587Y-14727674D01*
X12809587Y-14727674D02*
X12828634Y-14718150D01*
X12828634Y-14718150D02*
X12857206Y-14718150D01*
X12857206Y-14718150D02*
X12876253Y-14727674D01*
X12876253Y-14727674D02*
X12885777Y-14737198D01*
X12885777Y-14737198D02*
X12895301Y-14756246D01*
X12895301Y-14756246D02*
X12895301Y-14813388D01*
X12895301Y-14813388D02*
X12885777Y-14832436D01*
X12885777Y-14832436D02*
X12876253Y-14841960D01*
X12876253Y-14841960D02*
X12857206Y-14851484D01*
X12857206Y-14851484D02*
X12828634Y-14851484D01*
X13009587Y-14851484D02*
X12990539Y-14841960D01*
X12990539Y-14841960D02*
X12981015Y-14822912D01*
X12981015Y-14822912D02*
X12981015Y-14651484D01*
X13161968Y-14841960D02*
X13142920Y-14851484D01*
X13142920Y-14851484D02*
X13104825Y-14851484D01*
X13104825Y-14851484D02*
X13085777Y-14841960D01*
X13085777Y-14841960D02*
X13076253Y-14822912D01*
X13076253Y-14822912D02*
X13076253Y-14746722D01*
X13076253Y-14746722D02*
X13085777Y-14727674D01*
X13085777Y-14727674D02*
X13104825Y-14718150D01*
X13104825Y-14718150D02*
X13142920Y-14718150D01*
X13142920Y-14718150D02*
X13161968Y-14727674D01*
X13161968Y-14727674D02*
X13171491Y-14746722D01*
X13171491Y-14746722D02*
X13171491Y-14765769D01*
X13171491Y-14765769D02*
X13076253Y-14784817D01*
X13247682Y-14841960D02*
X13266730Y-14851484D01*
X13266730Y-14851484D02*
X13304825Y-14851484D01*
X13304825Y-14851484D02*
X13323872Y-14841960D01*
X13323872Y-14841960D02*
X13333396Y-14822912D01*
X13333396Y-14822912D02*
X13333396Y-14813388D01*
X13333396Y-14813388D02*
X13323872Y-14794341D01*
X13323872Y-14794341D02*
X13304825Y-14784817D01*
X13304825Y-14784817D02*
X13276253Y-14784817D01*
X13276253Y-14784817D02*
X13257206Y-14775293D01*
X13257206Y-14775293D02*
X13247682Y-14756246D01*
X13247682Y-14756246D02*
X13247682Y-14746722D01*
X13247682Y-14746722D02*
X13257206Y-14727674D01*
X13257206Y-14727674D02*
X13276253Y-14718150D01*
X13276253Y-14718150D02*
X13304825Y-14718150D01*
X13304825Y-14718150D02*
X13323872Y-14727674D01*
X13400063Y-14927674D02*
X13409587Y-14918150D01*
X13409587Y-14918150D02*
X13428634Y-14889579D01*
X13428634Y-14889579D02*
X13438158Y-14870531D01*
X13438158Y-14870531D02*
X13447682Y-14841960D01*
X13447682Y-14841960D02*
X13457206Y-14794341D01*
X13457206Y-14794341D02*
X13457206Y-14756246D01*
X13457206Y-14756246D02*
X13447682Y-14708627D01*
X13447682Y-14708627D02*
X13438158Y-14680055D01*
X13438158Y-14680055D02*
X13428634Y-14661008D01*
X13428634Y-14661008D02*
X13409587Y-14632436D01*
X13409587Y-14632436D02*
X13400063Y-14622912D01*
X13761968Y-14927674D02*
X13752444Y-14918150D01*
X13752444Y-14918150D02*
X13733396Y-14889579D01*
X13733396Y-14889579D02*
X13723872Y-14870531D01*
X13723872Y-14870531D02*
X13714349Y-14841960D01*
X13714349Y-14841960D02*
X13704825Y-14794341D01*
X13704825Y-14794341D02*
X13704825Y-14756246D01*
X13704825Y-14756246D02*
X13714349Y-14708627D01*
X13714349Y-14708627D02*
X13723872Y-14680055D01*
X13723872Y-14680055D02*
X13733396Y-14661008D01*
X13733396Y-14661008D02*
X13752444Y-14632436D01*
X13752444Y-14632436D02*
X13761968Y-14622912D01*
X13838158Y-14718150D02*
X13838158Y-14851484D01*
X13838158Y-14737198D02*
X13847682Y-14727674D01*
X13847682Y-14727674D02*
X13866730Y-14718150D01*
X13866730Y-14718150D02*
X13895301Y-14718150D01*
X13895301Y-14718150D02*
X13914349Y-14727674D01*
X13914349Y-14727674D02*
X13923872Y-14746722D01*
X13923872Y-14746722D02*
X13923872Y-14851484D01*
X14047682Y-14851484D02*
X14028634Y-14841960D01*
X14028634Y-14841960D02*
X14019111Y-14832436D01*
X14019111Y-14832436D02*
X14009587Y-14813388D01*
X14009587Y-14813388D02*
X14009587Y-14756246D01*
X14009587Y-14756246D02*
X14019111Y-14737198D01*
X14019111Y-14737198D02*
X14028634Y-14727674D01*
X14028634Y-14727674D02*
X14047682Y-14718150D01*
X14047682Y-14718150D02*
X14076253Y-14718150D01*
X14076253Y-14718150D02*
X14095301Y-14727674D01*
X14095301Y-14727674D02*
X14104825Y-14737198D01*
X14104825Y-14737198D02*
X14114349Y-14756246D01*
X14114349Y-14756246D02*
X14114349Y-14813388D01*
X14114349Y-14813388D02*
X14104825Y-14832436D01*
X14104825Y-14832436D02*
X14095301Y-14841960D01*
X14095301Y-14841960D02*
X14076253Y-14851484D01*
X14076253Y-14851484D02*
X14047682Y-14851484D01*
X14171492Y-14718150D02*
X14247682Y-14718150D01*
X14200063Y-14651484D02*
X14200063Y-14822912D01*
X14200063Y-14822912D02*
X14209587Y-14841960D01*
X14209587Y-14841960D02*
X14228634Y-14851484D01*
X14228634Y-14851484D02*
X14247682Y-14851484D01*
X14466730Y-14718150D02*
X14466730Y-14918150D01*
X14466730Y-14727674D02*
X14485777Y-14718150D01*
X14485777Y-14718150D02*
X14523873Y-14718150D01*
X14523873Y-14718150D02*
X14542920Y-14727674D01*
X14542920Y-14727674D02*
X14552444Y-14737198D01*
X14552444Y-14737198D02*
X14561968Y-14756246D01*
X14561968Y-14756246D02*
X14561968Y-14813388D01*
X14561968Y-14813388D02*
X14552444Y-14832436D01*
X14552444Y-14832436D02*
X14542920Y-14841960D01*
X14542920Y-14841960D02*
X14523873Y-14851484D01*
X14523873Y-14851484D02*
X14485777Y-14851484D01*
X14485777Y-14851484D02*
X14466730Y-14841960D01*
X14676253Y-14851484D02*
X14657206Y-14841960D01*
X14657206Y-14841960D02*
X14647682Y-14822912D01*
X14647682Y-14822912D02*
X14647682Y-14651484D01*
X14838158Y-14851484D02*
X14838158Y-14746722D01*
X14838158Y-14746722D02*
X14828634Y-14727674D01*
X14828634Y-14727674D02*
X14809587Y-14718150D01*
X14809587Y-14718150D02*
X14771492Y-14718150D01*
X14771492Y-14718150D02*
X14752444Y-14727674D01*
X14838158Y-14841960D02*
X14819111Y-14851484D01*
X14819111Y-14851484D02*
X14771492Y-14851484D01*
X14771492Y-14851484D02*
X14752444Y-14841960D01*
X14752444Y-14841960D02*
X14742920Y-14822912D01*
X14742920Y-14822912D02*
X14742920Y-14803865D01*
X14742920Y-14803865D02*
X14752444Y-14784817D01*
X14752444Y-14784817D02*
X14771492Y-14775293D01*
X14771492Y-14775293D02*
X14819111Y-14775293D01*
X14819111Y-14775293D02*
X14838158Y-14765769D01*
X14904825Y-14718150D02*
X14981015Y-14718150D01*
X14933396Y-14651484D02*
X14933396Y-14822912D01*
X14933396Y-14822912D02*
X14942920Y-14841960D01*
X14942920Y-14841960D02*
X14961968Y-14851484D01*
X14961968Y-14851484D02*
X14981015Y-14851484D01*
X15123873Y-14841960D02*
X15104825Y-14851484D01*
X15104825Y-14851484D02*
X15066730Y-14851484D01*
X15066730Y-14851484D02*
X15047682Y-14841960D01*
X15047682Y-14841960D02*
X15038158Y-14822912D01*
X15038158Y-14822912D02*
X15038158Y-14746722D01*
X15038158Y-14746722D02*
X15047682Y-14727674D01*
X15047682Y-14727674D02*
X15066730Y-14718150D01*
X15066730Y-14718150D02*
X15104825Y-14718150D01*
X15104825Y-14718150D02*
X15123873Y-14727674D01*
X15123873Y-14727674D02*
X15133396Y-14746722D01*
X15133396Y-14746722D02*
X15133396Y-14765769D01*
X15133396Y-14765769D02*
X15038158Y-14784817D01*
X15304825Y-14851484D02*
X15304825Y-14651484D01*
X15304825Y-14841960D02*
X15285777Y-14851484D01*
X15285777Y-14851484D02*
X15247682Y-14851484D01*
X15247682Y-14851484D02*
X15228634Y-14841960D01*
X15228634Y-14841960D02*
X15219111Y-14832436D01*
X15219111Y-14832436D02*
X15209587Y-14813388D01*
X15209587Y-14813388D02*
X15209587Y-14756246D01*
X15209587Y-14756246D02*
X15219111Y-14737198D01*
X15219111Y-14737198D02*
X15228634Y-14727674D01*
X15228634Y-14727674D02*
X15247682Y-14718150D01*
X15247682Y-14718150D02*
X15285777Y-14718150D01*
X15285777Y-14718150D02*
X15304825Y-14727674D01*
X15381015Y-14927674D02*
X15390539Y-14918150D01*
X15390539Y-14918150D02*
X15409587Y-14889579D01*
X15409587Y-14889579D02*
X15419111Y-14870531D01*
X15419111Y-14870531D02*
X15428634Y-14841960D01*
X15428634Y-14841960D02*
X15438158Y-14794341D01*
X15438158Y-14794341D02*
X15438158Y-14756246D01*
X15438158Y-14756246D02*
X15428634Y-14708627D01*
X15428634Y-14708627D02*
X15419111Y-14680055D01*
X15419111Y-14680055D02*
X15409587Y-14661008D01*
X15409587Y-14661008D02*
X15390539Y-14632436D01*
X15390539Y-14632436D02*
X15381015Y-14622912D01*
D12*
X8625000Y-15024000D02*
G75*
G03*
X8490380Y-15024000I-67310J0D01*
G01*
X8490380Y-15024000D02*
G75*
G03*
X8625000Y-15024000I67310J0D01*
G01*
D10*
X8990539Y-15115484D02*
X8876253Y-15115484D01*
X8933396Y-15115484D02*
X8933396Y-14915484D01*
X8933396Y-14915484D02*
X8914348Y-14944055D01*
X8914348Y-14944055D02*
X8895301Y-14963103D01*
X8895301Y-14963103D02*
X8876253Y-14972627D01*
X9076253Y-15096436D02*
X9085777Y-15105960D01*
X9085777Y-15105960D02*
X9076253Y-15115484D01*
X9076253Y-15115484D02*
X9066729Y-15105960D01*
X9066729Y-15105960D02*
X9076253Y-15096436D01*
X9076253Y-15096436D02*
X9076253Y-15115484D01*
X9152444Y-14915484D02*
X9276253Y-14915484D01*
X9276253Y-14915484D02*
X9209586Y-14991674D01*
X9209586Y-14991674D02*
X9238158Y-14991674D01*
X9238158Y-14991674D02*
X9257205Y-15001198D01*
X9257205Y-15001198D02*
X9266729Y-15010722D01*
X9266729Y-15010722D02*
X9276253Y-15029769D01*
X9276253Y-15029769D02*
X9276253Y-15077388D01*
X9276253Y-15077388D02*
X9266729Y-15096436D01*
X9266729Y-15096436D02*
X9257205Y-15105960D01*
X9257205Y-15105960D02*
X9238158Y-15115484D01*
X9238158Y-15115484D02*
X9181015Y-15115484D01*
X9181015Y-15115484D02*
X9161967Y-15105960D01*
X9161967Y-15105960D02*
X9152444Y-15096436D01*
X9447682Y-14982150D02*
X9447682Y-15115484D01*
X9400063Y-14905960D02*
X9352444Y-15048817D01*
X9352444Y-15048817D02*
X9476253Y-15048817D01*
X9638158Y-14915484D02*
X9600063Y-14915484D01*
X9600063Y-14915484D02*
X9581015Y-14925008D01*
X9581015Y-14925008D02*
X9571491Y-14934531D01*
X9571491Y-14934531D02*
X9552444Y-14963103D01*
X9552444Y-14963103D02*
X9542920Y-15001198D01*
X9542920Y-15001198D02*
X9542920Y-15077388D01*
X9542920Y-15077388D02*
X9552444Y-15096436D01*
X9552444Y-15096436D02*
X9561967Y-15105960D01*
X9561967Y-15105960D02*
X9581015Y-15115484D01*
X9581015Y-15115484D02*
X9619110Y-15115484D01*
X9619110Y-15115484D02*
X9638158Y-15105960D01*
X9638158Y-15105960D02*
X9647682Y-15096436D01*
X9647682Y-15096436D02*
X9657205Y-15077388D01*
X9657205Y-15077388D02*
X9657205Y-15029769D01*
X9657205Y-15029769D02*
X9647682Y-15010722D01*
X9647682Y-15010722D02*
X9638158Y-15001198D01*
X9638158Y-15001198D02*
X9619110Y-14991674D01*
X9619110Y-14991674D02*
X9581015Y-14991674D01*
X9581015Y-14991674D02*
X9561967Y-15001198D01*
X9561967Y-15001198D02*
X9552444Y-15010722D01*
X9552444Y-15010722D02*
X9542920Y-15029769D01*
X9742920Y-15115484D02*
X9742920Y-14982150D01*
X9742920Y-15001198D02*
X9752444Y-14991674D01*
X9752444Y-14991674D02*
X9771491Y-14982150D01*
X9771491Y-14982150D02*
X9800063Y-14982150D01*
X9800063Y-14982150D02*
X9819110Y-14991674D01*
X9819110Y-14991674D02*
X9828634Y-15010722D01*
X9828634Y-15010722D02*
X9828634Y-15115484D01*
X9828634Y-15010722D02*
X9838158Y-14991674D01*
X9838158Y-14991674D02*
X9857205Y-14982150D01*
X9857205Y-14982150D02*
X9885777Y-14982150D01*
X9885777Y-14982150D02*
X9904825Y-14991674D01*
X9904825Y-14991674D02*
X9914348Y-15010722D01*
X9914348Y-15010722D02*
X9914348Y-15115484D01*
X10009586Y-15115484D02*
X10009586Y-14982150D01*
X10009586Y-15001198D02*
X10019110Y-14991674D01*
X10019110Y-14991674D02*
X10038158Y-14982150D01*
X10038158Y-14982150D02*
X10066729Y-14982150D01*
X10066729Y-14982150D02*
X10085777Y-14991674D01*
X10085777Y-14991674D02*
X10095301Y-15010722D01*
X10095301Y-15010722D02*
X10095301Y-15115484D01*
X10095301Y-15010722D02*
X10104825Y-14991674D01*
X10104825Y-14991674D02*
X10123872Y-14982150D01*
X10123872Y-14982150D02*
X10152444Y-14982150D01*
X10152444Y-14982150D02*
X10171491Y-14991674D01*
X10171491Y-14991674D02*
X10181015Y-15010722D01*
X10181015Y-15010722D02*
X10181015Y-15115484D01*
X10571491Y-14905960D02*
X10400063Y-15163103D01*
X10828634Y-14915484D02*
X10847682Y-14915484D01*
X10847682Y-14915484D02*
X10866729Y-14925008D01*
X10866729Y-14925008D02*
X10876253Y-14934531D01*
X10876253Y-14934531D02*
X10885777Y-14953579D01*
X10885777Y-14953579D02*
X10895301Y-14991674D01*
X10895301Y-14991674D02*
X10895301Y-15039293D01*
X10895301Y-15039293D02*
X10885777Y-15077388D01*
X10885777Y-15077388D02*
X10876253Y-15096436D01*
X10876253Y-15096436D02*
X10866729Y-15105960D01*
X10866729Y-15105960D02*
X10847682Y-15115484D01*
X10847682Y-15115484D02*
X10828634Y-15115484D01*
X10828634Y-15115484D02*
X10809587Y-15105960D01*
X10809587Y-15105960D02*
X10800063Y-15096436D01*
X10800063Y-15096436D02*
X10790539Y-15077388D01*
X10790539Y-15077388D02*
X10781015Y-15039293D01*
X10781015Y-15039293D02*
X10781015Y-14991674D01*
X10781015Y-14991674D02*
X10790539Y-14953579D01*
X10790539Y-14953579D02*
X10800063Y-14934531D01*
X10800063Y-14934531D02*
X10809587Y-14925008D01*
X10809587Y-14925008D02*
X10828634Y-14915484D01*
X10981015Y-15096436D02*
X10990539Y-15105960D01*
X10990539Y-15105960D02*
X10981015Y-15115484D01*
X10981015Y-15115484D02*
X10971491Y-15105960D01*
X10971491Y-15105960D02*
X10981015Y-15096436D01*
X10981015Y-15096436D02*
X10981015Y-15115484D01*
X11114348Y-14915484D02*
X11133396Y-14915484D01*
X11133396Y-14915484D02*
X11152444Y-14925008D01*
X11152444Y-14925008D02*
X11161968Y-14934531D01*
X11161968Y-14934531D02*
X11171491Y-14953579D01*
X11171491Y-14953579D02*
X11181015Y-14991674D01*
X11181015Y-14991674D02*
X11181015Y-15039293D01*
X11181015Y-15039293D02*
X11171491Y-15077388D01*
X11171491Y-15077388D02*
X11161968Y-15096436D01*
X11161968Y-15096436D02*
X11152444Y-15105960D01*
X11152444Y-15105960D02*
X11133396Y-15115484D01*
X11133396Y-15115484D02*
X11114348Y-15115484D01*
X11114348Y-15115484D02*
X11095301Y-15105960D01*
X11095301Y-15105960D02*
X11085777Y-15096436D01*
X11085777Y-15096436D02*
X11076253Y-15077388D01*
X11076253Y-15077388D02*
X11066729Y-15039293D01*
X11066729Y-15039293D02*
X11066729Y-14991674D01*
X11066729Y-14991674D02*
X11076253Y-14953579D01*
X11076253Y-14953579D02*
X11085777Y-14934531D01*
X11085777Y-14934531D02*
X11095301Y-14925008D01*
X11095301Y-14925008D02*
X11114348Y-14915484D01*
X11361967Y-14915484D02*
X11266729Y-14915484D01*
X11266729Y-14915484D02*
X11257206Y-15010722D01*
X11257206Y-15010722D02*
X11266729Y-15001198D01*
X11266729Y-15001198D02*
X11285777Y-14991674D01*
X11285777Y-14991674D02*
X11333396Y-14991674D01*
X11333396Y-14991674D02*
X11352444Y-15001198D01*
X11352444Y-15001198D02*
X11361967Y-15010722D01*
X11361967Y-15010722D02*
X11371491Y-15029769D01*
X11371491Y-15029769D02*
X11371491Y-15077388D01*
X11371491Y-15077388D02*
X11361967Y-15096436D01*
X11361967Y-15096436D02*
X11352444Y-15105960D01*
X11352444Y-15105960D02*
X11333396Y-15115484D01*
X11333396Y-15115484D02*
X11285777Y-15115484D01*
X11285777Y-15115484D02*
X11266729Y-15105960D01*
X11266729Y-15105960D02*
X11257206Y-15096436D01*
X11438158Y-14915484D02*
X11561967Y-14915484D01*
X11561967Y-14915484D02*
X11495301Y-14991674D01*
X11495301Y-14991674D02*
X11523872Y-14991674D01*
X11523872Y-14991674D02*
X11542920Y-15001198D01*
X11542920Y-15001198D02*
X11552444Y-15010722D01*
X11552444Y-15010722D02*
X11561967Y-15029769D01*
X11561967Y-15029769D02*
X11561967Y-15077388D01*
X11561967Y-15077388D02*
X11552444Y-15096436D01*
X11552444Y-15096436D02*
X11542920Y-15105960D01*
X11542920Y-15105960D02*
X11523872Y-15115484D01*
X11523872Y-15115484D02*
X11466729Y-15115484D01*
X11466729Y-15115484D02*
X11447682Y-15105960D01*
X11447682Y-15105960D02*
X11438158Y-15096436D01*
X11685777Y-14915484D02*
X11704825Y-14915484D01*
X11704825Y-14915484D02*
X11723872Y-14925008D01*
X11723872Y-14925008D02*
X11733396Y-14934531D01*
X11733396Y-14934531D02*
X11742920Y-14953579D01*
X11742920Y-14953579D02*
X11752444Y-14991674D01*
X11752444Y-14991674D02*
X11752444Y-15039293D01*
X11752444Y-15039293D02*
X11742920Y-15077388D01*
X11742920Y-15077388D02*
X11733396Y-15096436D01*
X11733396Y-15096436D02*
X11723872Y-15105960D01*
X11723872Y-15105960D02*
X11704825Y-15115484D01*
X11704825Y-15115484D02*
X11685777Y-15115484D01*
X11685777Y-15115484D02*
X11666729Y-15105960D01*
X11666729Y-15105960D02*
X11657206Y-15096436D01*
X11657206Y-15096436D02*
X11647682Y-15077388D01*
X11647682Y-15077388D02*
X11638158Y-15039293D01*
X11638158Y-15039293D02*
X11638158Y-14991674D01*
X11638158Y-14991674D02*
X11647682Y-14953579D01*
X11647682Y-14953579D02*
X11657206Y-14934531D01*
X11657206Y-14934531D02*
X11666729Y-14925008D01*
X11666729Y-14925008D02*
X11685777Y-14915484D01*
X11828634Y-14915484D02*
X11828634Y-14953579D01*
X11904825Y-14915484D02*
X11904825Y-14953579D01*
X12200063Y-15191674D02*
X12190539Y-15182150D01*
X12190539Y-15182150D02*
X12171491Y-15153579D01*
X12171491Y-15153579D02*
X12161968Y-15134531D01*
X12161968Y-15134531D02*
X12152444Y-15105960D01*
X12152444Y-15105960D02*
X12142920Y-15058341D01*
X12142920Y-15058341D02*
X12142920Y-15020246D01*
X12142920Y-15020246D02*
X12152444Y-14972627D01*
X12152444Y-14972627D02*
X12161968Y-14944055D01*
X12161968Y-14944055D02*
X12171491Y-14925008D01*
X12171491Y-14925008D02*
X12190539Y-14896436D01*
X12190539Y-14896436D02*
X12200063Y-14886912D01*
X12266729Y-14934531D02*
X12276253Y-14925008D01*
X12276253Y-14925008D02*
X12295301Y-14915484D01*
X12295301Y-14915484D02*
X12342920Y-14915484D01*
X12342920Y-14915484D02*
X12361968Y-14925008D01*
X12361968Y-14925008D02*
X12371491Y-14934531D01*
X12371491Y-14934531D02*
X12381015Y-14953579D01*
X12381015Y-14953579D02*
X12381015Y-14972627D01*
X12381015Y-14972627D02*
X12371491Y-15001198D01*
X12371491Y-15001198D02*
X12257206Y-15115484D01*
X12257206Y-15115484D02*
X12381015Y-15115484D01*
X12619110Y-15115484D02*
X12619110Y-14915484D01*
X12704825Y-15115484D02*
X12704825Y-15010722D01*
X12704825Y-15010722D02*
X12695301Y-14991674D01*
X12695301Y-14991674D02*
X12676253Y-14982150D01*
X12676253Y-14982150D02*
X12647682Y-14982150D01*
X12647682Y-14982150D02*
X12628634Y-14991674D01*
X12628634Y-14991674D02*
X12619110Y-15001198D01*
X12828634Y-15115484D02*
X12809587Y-15105960D01*
X12809587Y-15105960D02*
X12800063Y-15096436D01*
X12800063Y-15096436D02*
X12790539Y-15077388D01*
X12790539Y-15077388D02*
X12790539Y-15020246D01*
X12790539Y-15020246D02*
X12800063Y-15001198D01*
X12800063Y-15001198D02*
X12809587Y-14991674D01*
X12809587Y-14991674D02*
X12828634Y-14982150D01*
X12828634Y-14982150D02*
X12857206Y-14982150D01*
X12857206Y-14982150D02*
X12876253Y-14991674D01*
X12876253Y-14991674D02*
X12885777Y-15001198D01*
X12885777Y-15001198D02*
X12895301Y-15020246D01*
X12895301Y-15020246D02*
X12895301Y-15077388D01*
X12895301Y-15077388D02*
X12885777Y-15096436D01*
X12885777Y-15096436D02*
X12876253Y-15105960D01*
X12876253Y-15105960D02*
X12857206Y-15115484D01*
X12857206Y-15115484D02*
X12828634Y-15115484D01*
X13009587Y-15115484D02*
X12990539Y-15105960D01*
X12990539Y-15105960D02*
X12981015Y-15086912D01*
X12981015Y-15086912D02*
X12981015Y-14915484D01*
X13161968Y-15105960D02*
X13142920Y-15115484D01*
X13142920Y-15115484D02*
X13104825Y-15115484D01*
X13104825Y-15115484D02*
X13085777Y-15105960D01*
X13085777Y-15105960D02*
X13076253Y-15086912D01*
X13076253Y-15086912D02*
X13076253Y-15010722D01*
X13076253Y-15010722D02*
X13085777Y-14991674D01*
X13085777Y-14991674D02*
X13104825Y-14982150D01*
X13104825Y-14982150D02*
X13142920Y-14982150D01*
X13142920Y-14982150D02*
X13161968Y-14991674D01*
X13161968Y-14991674D02*
X13171491Y-15010722D01*
X13171491Y-15010722D02*
X13171491Y-15029769D01*
X13171491Y-15029769D02*
X13076253Y-15048817D01*
X13247682Y-15105960D02*
X13266730Y-15115484D01*
X13266730Y-15115484D02*
X13304825Y-15115484D01*
X13304825Y-15115484D02*
X13323872Y-15105960D01*
X13323872Y-15105960D02*
X13333396Y-15086912D01*
X13333396Y-15086912D02*
X13333396Y-15077388D01*
X13333396Y-15077388D02*
X13323872Y-15058341D01*
X13323872Y-15058341D02*
X13304825Y-15048817D01*
X13304825Y-15048817D02*
X13276253Y-15048817D01*
X13276253Y-15048817D02*
X13257206Y-15039293D01*
X13257206Y-15039293D02*
X13247682Y-15020246D01*
X13247682Y-15020246D02*
X13247682Y-15010722D01*
X13247682Y-15010722D02*
X13257206Y-14991674D01*
X13257206Y-14991674D02*
X13276253Y-14982150D01*
X13276253Y-14982150D02*
X13304825Y-14982150D01*
X13304825Y-14982150D02*
X13323872Y-14991674D01*
X13400063Y-15191674D02*
X13409587Y-15182150D01*
X13409587Y-15182150D02*
X13428634Y-15153579D01*
X13428634Y-15153579D02*
X13438158Y-15134531D01*
X13438158Y-15134531D02*
X13447682Y-15105960D01*
X13447682Y-15105960D02*
X13457206Y-15058341D01*
X13457206Y-15058341D02*
X13457206Y-15020246D01*
X13457206Y-15020246D02*
X13447682Y-14972627D01*
X13447682Y-14972627D02*
X13438158Y-14944055D01*
X13438158Y-14944055D02*
X13428634Y-14925008D01*
X13428634Y-14925008D02*
X13409587Y-14896436D01*
X13409587Y-14896436D02*
X13400063Y-14886912D01*
X13761968Y-15191674D02*
X13752444Y-15182150D01*
X13752444Y-15182150D02*
X13733396Y-15153579D01*
X13733396Y-15153579D02*
X13723872Y-15134531D01*
X13723872Y-15134531D02*
X13714349Y-15105960D01*
X13714349Y-15105960D02*
X13704825Y-15058341D01*
X13704825Y-15058341D02*
X13704825Y-15020246D01*
X13704825Y-15020246D02*
X13714349Y-14972627D01*
X13714349Y-14972627D02*
X13723872Y-14944055D01*
X13723872Y-14944055D02*
X13733396Y-14925008D01*
X13733396Y-14925008D02*
X13752444Y-14896436D01*
X13752444Y-14896436D02*
X13761968Y-14886912D01*
X13838158Y-14982150D02*
X13838158Y-15115484D01*
X13838158Y-15001198D02*
X13847682Y-14991674D01*
X13847682Y-14991674D02*
X13866730Y-14982150D01*
X13866730Y-14982150D02*
X13895301Y-14982150D01*
X13895301Y-14982150D02*
X13914349Y-14991674D01*
X13914349Y-14991674D02*
X13923872Y-15010722D01*
X13923872Y-15010722D02*
X13923872Y-15115484D01*
X14047682Y-15115484D02*
X14028634Y-15105960D01*
X14028634Y-15105960D02*
X14019111Y-15096436D01*
X14019111Y-15096436D02*
X14009587Y-15077388D01*
X14009587Y-15077388D02*
X14009587Y-15020246D01*
X14009587Y-15020246D02*
X14019111Y-15001198D01*
X14019111Y-15001198D02*
X14028634Y-14991674D01*
X14028634Y-14991674D02*
X14047682Y-14982150D01*
X14047682Y-14982150D02*
X14076253Y-14982150D01*
X14076253Y-14982150D02*
X14095301Y-14991674D01*
X14095301Y-14991674D02*
X14104825Y-15001198D01*
X14104825Y-15001198D02*
X14114349Y-15020246D01*
X14114349Y-15020246D02*
X14114349Y-15077388D01*
X14114349Y-15077388D02*
X14104825Y-15096436D01*
X14104825Y-15096436D02*
X14095301Y-15105960D01*
X14095301Y-15105960D02*
X14076253Y-15115484D01*
X14076253Y-15115484D02*
X14047682Y-15115484D01*
X14171492Y-14982150D02*
X14247682Y-14982150D01*
X14200063Y-14915484D02*
X14200063Y-15086912D01*
X14200063Y-15086912D02*
X14209587Y-15105960D01*
X14209587Y-15105960D02*
X14228634Y-15115484D01*
X14228634Y-15115484D02*
X14247682Y-15115484D01*
X14466730Y-14982150D02*
X14466730Y-15182150D01*
X14466730Y-14991674D02*
X14485777Y-14982150D01*
X14485777Y-14982150D02*
X14523873Y-14982150D01*
X14523873Y-14982150D02*
X14542920Y-14991674D01*
X14542920Y-14991674D02*
X14552444Y-15001198D01*
X14552444Y-15001198D02*
X14561968Y-15020246D01*
X14561968Y-15020246D02*
X14561968Y-15077388D01*
X14561968Y-15077388D02*
X14552444Y-15096436D01*
X14552444Y-15096436D02*
X14542920Y-15105960D01*
X14542920Y-15105960D02*
X14523873Y-15115484D01*
X14523873Y-15115484D02*
X14485777Y-15115484D01*
X14485777Y-15115484D02*
X14466730Y-15105960D01*
X14676253Y-15115484D02*
X14657206Y-15105960D01*
X14657206Y-15105960D02*
X14647682Y-15086912D01*
X14647682Y-15086912D02*
X14647682Y-14915484D01*
X14838158Y-15115484D02*
X14838158Y-15010722D01*
X14838158Y-15010722D02*
X14828634Y-14991674D01*
X14828634Y-14991674D02*
X14809587Y-14982150D01*
X14809587Y-14982150D02*
X14771492Y-14982150D01*
X14771492Y-14982150D02*
X14752444Y-14991674D01*
X14838158Y-15105960D02*
X14819111Y-15115484D01*
X14819111Y-15115484D02*
X14771492Y-15115484D01*
X14771492Y-15115484D02*
X14752444Y-15105960D01*
X14752444Y-15105960D02*
X14742920Y-15086912D01*
X14742920Y-15086912D02*
X14742920Y-15067865D01*
X14742920Y-15067865D02*
X14752444Y-15048817D01*
X14752444Y-15048817D02*
X14771492Y-15039293D01*
X14771492Y-15039293D02*
X14819111Y-15039293D01*
X14819111Y-15039293D02*
X14838158Y-15029769D01*
X14904825Y-14982150D02*
X14981015Y-14982150D01*
X14933396Y-14915484D02*
X14933396Y-15086912D01*
X14933396Y-15086912D02*
X14942920Y-15105960D01*
X14942920Y-15105960D02*
X14961968Y-15115484D01*
X14961968Y-15115484D02*
X14981015Y-15115484D01*
X15123873Y-15105960D02*
X15104825Y-15115484D01*
X15104825Y-15115484D02*
X15066730Y-15115484D01*
X15066730Y-15115484D02*
X15047682Y-15105960D01*
X15047682Y-15105960D02*
X15038158Y-15086912D01*
X15038158Y-15086912D02*
X15038158Y-15010722D01*
X15038158Y-15010722D02*
X15047682Y-14991674D01*
X15047682Y-14991674D02*
X15066730Y-14982150D01*
X15066730Y-14982150D02*
X15104825Y-14982150D01*
X15104825Y-14982150D02*
X15123873Y-14991674D01*
X15123873Y-14991674D02*
X15133396Y-15010722D01*
X15133396Y-15010722D02*
X15133396Y-15029769D01*
X15133396Y-15029769D02*
X15038158Y-15048817D01*
X15304825Y-15115484D02*
X15304825Y-14915484D01*
X15304825Y-15105960D02*
X15285777Y-15115484D01*
X15285777Y-15115484D02*
X15247682Y-15115484D01*
X15247682Y-15115484D02*
X15228634Y-15105960D01*
X15228634Y-15105960D02*
X15219111Y-15096436D01*
X15219111Y-15096436D02*
X15209587Y-15077388D01*
X15209587Y-15077388D02*
X15209587Y-15020246D01*
X15209587Y-15020246D02*
X15219111Y-15001198D01*
X15219111Y-15001198D02*
X15228634Y-14991674D01*
X15228634Y-14991674D02*
X15247682Y-14982150D01*
X15247682Y-14982150D02*
X15285777Y-14982150D01*
X15285777Y-14982150D02*
X15304825Y-14991674D01*
X15381015Y-15191674D02*
X15390539Y-15182150D01*
X15390539Y-15182150D02*
X15409587Y-15153579D01*
X15409587Y-15153579D02*
X15419111Y-15134531D01*
X15419111Y-15134531D02*
X15428634Y-15105960D01*
X15428634Y-15105960D02*
X15438158Y-15058341D01*
X15438158Y-15058341D02*
X15438158Y-15020246D01*
X15438158Y-15020246D02*
X15428634Y-14972627D01*
X15428634Y-14972627D02*
X15419111Y-14944055D01*
X15419111Y-14944055D02*
X15409587Y-14925008D01*
X15409587Y-14925008D02*
X15390539Y-14896436D01*
X15390539Y-14896436D02*
X15381015Y-14886912D01*
M02*
