%TF.GenerationSoftware,KiCad,Pcbnew,7.0.10-7.0.10~ubuntu22.04.1*%
%TF.CreationDate,2024-04-21T14:18:33-04:00*%
%TF.ProjectId,little_red_rover,6c697474-6c65-45f7-9265-645f726f7665,rev?*%
%TF.SameCoordinates,Original*%
%TF.FileFunction,Soldermask,Top*%
%TF.FilePolarity,Negative*%
%FSLAX46Y46*%
G04 Gerber Fmt 4.6, Leading zero omitted, Abs format (unit mm)*
G04 Created by KiCad (PCBNEW 7.0.10-7.0.10~ubuntu22.04.1) date 2024-04-21 14:18:33*
%MOMM*%
%LPD*%
G01*
G04 APERTURE LIST*
G04 Aperture macros list*
%AMRoundRect*
0 Rectangle with rounded corners*
0 $1 Rounding radius*
0 $2 $3 $4 $5 $6 $7 $8 $9 X,Y pos of 4 corners*
0 Add a 4 corners polygon primitive as box body*
4,1,4,$2,$3,$4,$5,$6,$7,$8,$9,$2,$3,0*
0 Add four circle primitives for the rounded corners*
1,1,$1+$1,$2,$3*
1,1,$1+$1,$4,$5*
1,1,$1+$1,$6,$7*
1,1,$1+$1,$8,$9*
0 Add four rect primitives between the rounded corners*
20,1,$1+$1,$2,$3,$4,$5,0*
20,1,$1+$1,$4,$5,$6,$7,0*
20,1,$1+$1,$6,$7,$8,$9,0*
20,1,$1+$1,$8,$9,$2,$3,0*%
%AMFreePoly0*
4,1,6,0.725000,-0.725000,-0.725000,-0.725000,-0.725000,0.125000,-0.125000,0.725000,0.725000,0.725000,0.725000,-0.725000,0.725000,-0.725000,$1*%
G04 Aperture macros list end*
%ADD10C,0.650000*%
%ADD11RoundRect,0.150000X-0.150000X-0.425000X0.150000X-0.425000X0.150000X0.425000X-0.150000X0.425000X0*%
%ADD12RoundRect,0.075000X-0.075000X-0.500000X0.075000X-0.500000X0.075000X0.500000X-0.075000X0.500000X0*%
%ADD13O,1.000000X2.100000*%
%ADD14O,1.000000X1.800000*%
%ADD15RoundRect,0.087500X-0.225000X-0.087500X0.225000X-0.087500X0.225000X0.087500X-0.225000X0.087500X0*%
%ADD16RoundRect,0.087500X-0.087500X-0.225000X0.087500X-0.225000X0.087500X0.225000X-0.087500X0.225000X0*%
%ADD17RoundRect,0.237500X0.300000X0.237500X-0.300000X0.237500X-0.300000X-0.237500X0.300000X-0.237500X0*%
%ADD18C,1.346200*%
%ADD19C,1.270000*%
%ADD20RoundRect,0.237500X0.237500X-0.300000X0.237500X0.300000X-0.237500X0.300000X-0.237500X-0.300000X0*%
%ADD21RoundRect,0.237500X0.237500X-0.287500X0.237500X0.287500X-0.237500X0.287500X-0.237500X-0.287500X0*%
%ADD22RoundRect,0.237500X0.237500X-0.250000X0.237500X0.250000X-0.237500X0.250000X-0.237500X-0.250000X0*%
%ADD23RoundRect,0.250001X0.849999X-0.462499X0.849999X0.462499X-0.849999X0.462499X-0.849999X-0.462499X0*%
%ADD24RoundRect,0.237500X-0.237500X0.250000X-0.237500X-0.250000X0.237500X-0.250000X0.237500X0.250000X0*%
%ADD25RoundRect,0.150000X0.150000X-0.512500X0.150000X0.512500X-0.150000X0.512500X-0.150000X-0.512500X0*%
%ADD26RoundRect,0.237500X-0.250000X-0.237500X0.250000X-0.237500X0.250000X0.237500X-0.250000X0.237500X0*%
%ADD27RoundRect,0.237500X0.250000X0.237500X-0.250000X0.237500X-0.250000X-0.237500X0.250000X-0.237500X0*%
%ADD28RoundRect,0.237500X-0.300000X-0.237500X0.300000X-0.237500X0.300000X0.237500X-0.300000X0.237500X0*%
%ADD29RoundRect,0.062500X0.062500X-0.187500X0.062500X0.187500X-0.062500X0.187500X-0.062500X-0.187500X0*%
%ADD30R,1.600000X0.900000*%
%ADD31RoundRect,0.062500X0.062500X-0.350000X0.062500X0.350000X-0.062500X0.350000X-0.062500X-0.350000X0*%
%ADD32RoundRect,0.062500X0.350000X-0.062500X0.350000X0.062500X-0.350000X0.062500X-0.350000X-0.062500X0*%
%ADD33R,1.680000X1.680000*%
%ADD34R,0.400000X1.800000*%
%ADD35R,1.800000X0.400000*%
%ADD36R,0.800000X0.400000*%
%ADD37FreePoly0,270.000000*%
%ADD38R,1.450000X1.450000*%
%ADD39C,2.800000*%
%ADD40R,0.700000X1.700000*%
%ADD41R,1.700000X1.700000*%
%ADD42O,1.700000X1.700000*%
%ADD43R,0.609600X0.254000*%
%ADD44R,0.711200X1.295400*%
%ADD45R,0.700000X0.700000*%
%ADD46RoundRect,0.237500X-0.237500X0.300000X-0.237500X-0.300000X0.237500X-0.300000X0.237500X0.300000X0*%
%ADD47R,3.300000X4.240000*%
%ADD48R,5.200000X4.240000*%
%ADD49R,1.701800X0.660400*%
%ADD50R,1.092200X2.794000*%
G04 APERTURE END LIST*
D10*
%TO.C,J1*%
X130110000Y-134895000D03*
X135890000Y-134895000D03*
D11*
X129800000Y-133820000D03*
X130600000Y-133820000D03*
D12*
X131750000Y-133820000D03*
X132750000Y-133820000D03*
X133250000Y-133820000D03*
X134250000Y-133820000D03*
D11*
X135400000Y-133820000D03*
X136200000Y-133820000D03*
X136200000Y-133820000D03*
X135400000Y-133820000D03*
D12*
X134750000Y-133820000D03*
X133750000Y-133820000D03*
X132250000Y-133820000D03*
X131250000Y-133820000D03*
D11*
X130600000Y-133820000D03*
X129800000Y-133820000D03*
D13*
X128680000Y-134395000D03*
D14*
X128680000Y-138575000D03*
D13*
X137320000Y-134395000D03*
D14*
X137320000Y-138575000D03*
%TD*%
D15*
%TO.C,U9*%
X188837500Y-109250000D03*
X188837500Y-109750000D03*
X188837500Y-110250000D03*
X188837500Y-110750000D03*
D16*
X189500000Y-110912500D03*
X190000000Y-110912500D03*
X190500000Y-110912500D03*
D15*
X191162500Y-110750000D03*
X191162500Y-110250000D03*
X191162500Y-109750000D03*
X191162500Y-109250000D03*
D16*
X190500000Y-109087500D03*
X190000000Y-109087500D03*
X189500000Y-109087500D03*
%TD*%
D17*
%TO.C,R15*%
X190862500Y-106000000D03*
X189137500Y-106000000D03*
%TD*%
%TO.C,R14*%
X190862500Y-104400000D03*
X189137500Y-104400000D03*
%TD*%
D18*
%TO.C,U7*%
X203268850Y-84762538D03*
D19*
X201018849Y-86512600D03*
X205518850Y-86512600D03*
X205518850Y-84512599D03*
X201018849Y-84512599D03*
%TD*%
D20*
%TO.C,C1*%
X121552500Y-121702500D03*
X121552500Y-119977500D03*
%TD*%
D21*
%TO.C,D1*%
X119000000Y-138875000D03*
X119000000Y-137125000D03*
%TD*%
D22*
%TO.C,R3*%
X123552500Y-126752500D03*
X123552500Y-124927500D03*
%TD*%
D23*
%TO.C,L1*%
X139600000Y-125912501D03*
X139600000Y-123587501D03*
%TD*%
D24*
%TO.C,R8*%
X123552500Y-115927500D03*
X123552500Y-117752500D03*
%TD*%
D25*
%TO.C,U3*%
X132500000Y-126775000D03*
X133450000Y-126775000D03*
X134400000Y-126775000D03*
X134400000Y-124500000D03*
X132500000Y-124500000D03*
%TD*%
D26*
%TO.C,R2*%
X134000000Y-131700000D03*
X135825000Y-131700000D03*
%TD*%
D20*
%TO.C,C2*%
X125552500Y-117702500D03*
X125552500Y-115977500D03*
%TD*%
D27*
%TO.C,R13*%
X190912500Y-101500000D03*
X189087500Y-101500000D03*
%TD*%
D18*
%TO.C,U8*%
X203031150Y-115037462D03*
D19*
X205281151Y-113287400D03*
X200781150Y-113287400D03*
X200781150Y-115287401D03*
X205281151Y-115287401D03*
%TD*%
D28*
%TO.C,C4*%
X131587500Y-128637500D03*
X133312500Y-128637500D03*
%TD*%
D26*
%TO.C,R12*%
X194587500Y-112500000D03*
X196412500Y-112500000D03*
%TD*%
D29*
%TO.C,U5*%
X123000000Y-70900000D03*
X123500000Y-70900000D03*
X124000000Y-70900000D03*
X124500000Y-70900000D03*
X124500000Y-69000000D03*
X124000000Y-69000000D03*
X123500000Y-69000000D03*
X123000000Y-69000000D03*
D30*
X123750000Y-69950000D03*
%TD*%
D27*
%TO.C,R10*%
X204512500Y-92000000D03*
X202687500Y-92000000D03*
%TD*%
D31*
%TO.C,U2*%
X125340000Y-122552500D03*
X125840000Y-122552500D03*
X126340000Y-122552500D03*
X126840000Y-122552500D03*
D32*
X127552500Y-121840000D03*
X127552500Y-121340000D03*
X127552500Y-120840000D03*
X127552500Y-120340000D03*
D31*
X126840000Y-119627500D03*
X126340000Y-119627500D03*
X125840000Y-119627500D03*
X125340000Y-119627500D03*
D32*
X124627500Y-120340000D03*
X124627500Y-120840000D03*
X124627500Y-121340000D03*
X124627500Y-121840000D03*
D33*
X126090000Y-121090000D03*
%TD*%
D21*
%TO.C,D2*%
X122000000Y-138875000D03*
X122000000Y-137125000D03*
%TD*%
D29*
%TO.C,U6*%
X130750000Y-70950000D03*
X131250000Y-70950000D03*
X131750000Y-70950000D03*
X132250000Y-70950000D03*
X132250000Y-69050000D03*
X131750000Y-69050000D03*
X131250000Y-69050000D03*
X130750000Y-69050000D03*
D30*
X131500000Y-70000000D03*
%TD*%
D34*
%TO.C,U1*%
X206200000Y-94300000D03*
X205400000Y-94300000D03*
X204600000Y-94300000D03*
X203800000Y-94300000D03*
X203000000Y-94300000D03*
X202200000Y-94300000D03*
X201400000Y-94300000D03*
X200600000Y-94300000D03*
X199800000Y-94300000D03*
X199000000Y-94300000D03*
X198200000Y-94300000D03*
D35*
X196800000Y-95900000D03*
X196800000Y-96700000D03*
X196800000Y-97500000D03*
X196800000Y-98300000D03*
X196800000Y-99100000D03*
X196800000Y-99900000D03*
X196800000Y-100700000D03*
X196800000Y-101500000D03*
X196800000Y-102300000D03*
X196800000Y-103100000D03*
X196800000Y-103900000D03*
X196800000Y-104700000D03*
X196800000Y-105500000D03*
D34*
X198200000Y-107100000D03*
X199000000Y-107100000D03*
X199800000Y-107100000D03*
X200600000Y-107100000D03*
X201400000Y-107100000D03*
X202200000Y-107100000D03*
X203000000Y-107100000D03*
X203800000Y-107100000D03*
X204600000Y-107100000D03*
X205400000Y-107100000D03*
X206200000Y-107100000D03*
D36*
X207100000Y-105500000D03*
X207100000Y-104700000D03*
X207100000Y-103900000D03*
X207100000Y-103100000D03*
X207100000Y-102300000D03*
X207100000Y-101500000D03*
X207100000Y-100700000D03*
X207100000Y-99900000D03*
X207100000Y-99100000D03*
X207100000Y-98300000D03*
X207100000Y-97500000D03*
X207100000Y-96700000D03*
X207100000Y-95900000D03*
D37*
X204175000Y-98725000D03*
D38*
X202200000Y-98725000D03*
X200225000Y-98725000D03*
X204175000Y-100700000D03*
D39*
X202200000Y-100700000D03*
D38*
X200225000Y-100700000D03*
X204175000Y-102675000D03*
X202200000Y-102675000D03*
X200225000Y-102675000D03*
D40*
X207150000Y-107050000D03*
D41*
X196800000Y-107050000D03*
X196800000Y-94350000D03*
D40*
X207150000Y-94350000D03*
%TD*%
D42*
%TO.C,J3*%
X125240000Y-74600000D03*
D41*
X122700000Y-74600000D03*
%TD*%
D43*
%TO.C,U4*%
X141500000Y-124000000D03*
X141500000Y-124500001D03*
X141500000Y-125000001D03*
X141500000Y-125500002D03*
X143303400Y-125500002D03*
X143303400Y-125000001D03*
X143303400Y-124500001D03*
X143303400Y-124000000D03*
D44*
X142401700Y-124750001D03*
%TD*%
D24*
%TO.C,R9*%
X145000000Y-121837501D03*
X145000000Y-123662501D03*
%TD*%
D27*
%TO.C,R5*%
X122912500Y-135000000D03*
X121087500Y-135000000D03*
%TD*%
D45*
%TO.C,D5*%
X189450000Y-91915000D03*
X190550000Y-91915000D03*
X190550000Y-90085000D03*
X189450000Y-90085000D03*
%TD*%
D26*
%TO.C,R7*%
X118587500Y-125600000D03*
X120412500Y-125600000D03*
%TD*%
D42*
%TO.C,J4*%
X132740000Y-74600000D03*
D41*
X130200000Y-74600000D03*
%TD*%
D27*
%TO.C,R1*%
X131912500Y-131800000D03*
X130087500Y-131800000D03*
%TD*%
D45*
%TO.C,D3*%
X189400000Y-99000000D03*
X190500000Y-99000000D03*
X190500000Y-97170000D03*
X189400000Y-97170000D03*
%TD*%
%TO.C,D4*%
X189400000Y-95500000D03*
X190500000Y-95500000D03*
X190500000Y-93670000D03*
X189400000Y-93670000D03*
%TD*%
D46*
%TO.C,C5*%
X125552500Y-124977500D03*
X125552500Y-126702500D03*
%TD*%
D26*
%TO.C,R11*%
X193175000Y-90500000D03*
X195000000Y-90500000D03*
%TD*%
D47*
%TO.C,BT1*%
X107900000Y-131700000D03*
D48*
X107900000Y-115690000D03*
X107900000Y-84950000D03*
D47*
X107900000Y-68900000D03*
%TD*%
D26*
%TO.C,R6*%
X119640000Y-123840000D03*
X121465000Y-123840000D03*
%TD*%
D46*
%TO.C,C6*%
X145000000Y-125387501D03*
X145000000Y-127112501D03*
%TD*%
D26*
%TO.C,R4*%
X117087500Y-135000000D03*
X118912500Y-135000000D03*
%TD*%
D49*
%TO.C,J2*%
X126299999Y-105099999D03*
X126299999Y-103849999D03*
X126299999Y-102599999D03*
X126299999Y-101349999D03*
D50*
X129500000Y-106949998D03*
X129500000Y-99500000D03*
%TD*%
D17*
%TO.C,C3*%
X132312500Y-122637500D03*
X130587500Y-122637500D03*
%TD*%
M02*
