%TF.GenerationSoftware,KiCad,Pcbnew,7.0.10-7.0.10~ubuntu22.04.1*%
%TF.CreationDate,2024-04-21T14:18:33-04:00*%
%TF.ProjectId,little_red_rover,6c697474-6c65-45f7-9265-645f726f7665,rev?*%
%TF.SameCoordinates,Original*%
%TF.FileFunction,Profile,NP*%
%FSLAX46Y46*%
G04 Gerber Fmt 4.6, Leading zero omitted, Abs format (unit mm)*
G04 Created by KiCad (PCBNEW 7.0.10-7.0.10~ubuntu22.04.1) date 2024-04-21 14:18:33*
%MOMM*%
%LPD*%
G01*
G04 APERTURE LIST*
%TA.AperFunction,Profile*%
%ADD10C,0.200000*%
%TD*%
G04 APERTURE END LIST*
D10*
X213650000Y-116500000D02*
X208650000Y-116500000D01*
X183750000Y-119350000D02*
X173613693Y-119350000D01*
X90030620Y-117000000D02*
X94474100Y-117000000D01*
X213650000Y-60900000D02*
X213650000Y-58900000D01*
X183750000Y-119350000D02*
X183750000Y-116350000D01*
X213650000Y-116500000D02*
X213650000Y-83500000D01*
X183750000Y-116350000D02*
X173613693Y-116350000D01*
X173613693Y-63750000D02*
X173613693Y-60750000D01*
X90030620Y-83000000D02*
X94474100Y-83000000D01*
X90997292Y-106900000D02*
G75*
G03*
X91433338Y-108900000I36450908J6899600D01*
G01*
X173613693Y-119350000D02*
X173613693Y-116350000D01*
X213650000Y-81500000D02*
X208650000Y-81500000D01*
X165050000Y-82000000D02*
G75*
G03*
X161850000Y-82000000I-1600000J0D01*
G01*
X161850000Y-82000000D02*
G75*
G03*
X165050000Y-82000000I1600000J0D01*
G01*
X127450000Y-58899997D02*
G75*
G03*
X90030620Y-83000000I10J-41100013D01*
G01*
X139789882Y-116348608D02*
G75*
G03*
X146091528Y-117420432I3554118J1835208D01*
G01*
X93517567Y-85000000D02*
X89185003Y-85000000D01*
X208650000Y-137100000D02*
X208650000Y-139100000D01*
X146091495Y-82579603D02*
G75*
G03*
X139789924Y-83651414I-2747495J-2906997D01*
G01*
X159233618Y-95000000D02*
X146091528Y-82579568D01*
X86933338Y-93100000D02*
G75*
G03*
X86933338Y-106900000I40516662J-6900000D01*
G01*
X173613693Y-63750000D02*
X183750000Y-63750000D01*
X127450000Y-141100000D02*
X213650000Y-141100000D01*
X94474101Y-83000000D02*
G75*
G03*
X93517568Y-85000000I32976299J-17000200D01*
G01*
X213650000Y-81500000D02*
X213650000Y-62900000D01*
X173613693Y-139250000D02*
X173613693Y-136250000D01*
X208650000Y-81500000D02*
X208650000Y-83500000D01*
X173613693Y-60750000D02*
X183750000Y-60750000D01*
X90997291Y-106900000D02*
X86933337Y-106900000D01*
X183750000Y-83650000D02*
X183750000Y-80650000D01*
X208650000Y-60900000D02*
X213650000Y-60900000D01*
X173613693Y-83650000D02*
X183750000Y-83650000D01*
X159233619Y-105000000D02*
G75*
G03*
X159233619Y-95000000I12216381J5000000D01*
G01*
X183750000Y-139250000D02*
X173613693Y-139250000D01*
X208650000Y-116500000D02*
X208650000Y-118500000D01*
X87325195Y-108900000D02*
X91433337Y-108900000D01*
X183750000Y-136250000D02*
X173613693Y-136250000D01*
X127450000Y-58900000D02*
X213650000Y-58900000D01*
X213650000Y-83500000D02*
X208650000Y-83500000D01*
X89185006Y-85000001D02*
G75*
G03*
X87325196Y-91100000I38265594J-15000199D01*
G01*
X89185003Y-115000000D02*
X93517567Y-115000000D01*
X91433338Y-91100000D02*
G75*
G03*
X90997291Y-93100000I36019862J-8900700D01*
G01*
X90030620Y-117000000D02*
G75*
G03*
X127450000Y-141100000I37419380J17000000D01*
G01*
X213650000Y-118500000D02*
X208650000Y-118500000D01*
X213650000Y-62900000D02*
X208650000Y-62900000D01*
X173613693Y-80650000D02*
X183750000Y-80650000D01*
X208650000Y-139100000D02*
X213650000Y-139100000D01*
X208650000Y-60900000D02*
X208650000Y-62900000D01*
X165050000Y-118000000D02*
G75*
G03*
X161850000Y-118000000I-1600000J0D01*
G01*
X161850000Y-118000000D02*
G75*
G03*
X165050000Y-118000000I1600000J0D01*
G01*
X183750000Y-139250000D02*
X183750000Y-136250000D01*
X90997291Y-93100000D02*
X86933337Y-93100000D01*
X173613693Y-83650000D02*
X173613693Y-80650000D01*
X93750000Y-100000000D02*
G75*
G03*
X90550000Y-100000000I-1600000J0D01*
G01*
X90550000Y-100000000D02*
G75*
G03*
X93750000Y-100000000I1600000J0D01*
G01*
X213650000Y-137100000D02*
X208650000Y-137100000D01*
X87325189Y-108900001D02*
G75*
G03*
X89185003Y-115000000I40124011J8899801D01*
G01*
X213650000Y-137100000D02*
X213650000Y-118500000D01*
X93517568Y-115000000D02*
G75*
G03*
X94474101Y-117000000I33932832J15000200D01*
G01*
X91433337Y-91100000D02*
X87325195Y-91100000D01*
X183750000Y-63750000D02*
X183750000Y-60750000D01*
X139789924Y-83651414D02*
G75*
G03*
X139789924Y-116348586I31660076J-16348586D01*
G01*
X159233618Y-105000000D02*
X146091528Y-117420432D01*
X213650000Y-141100000D02*
X213650000Y-139100000D01*
M02*
