%TF.GenerationSoftware,KiCad,Pcbnew,7.0.10-7.0.10~ubuntu22.04.1*%
%TF.CreationDate,2024-04-21T14:18:33-04:00*%
%TF.ProjectId,little_red_rover,6c697474-6c65-45f7-9265-645f726f7665,rev?*%
%TF.SameCoordinates,Original*%
%TF.FileFunction,Copper,L2,Bot*%
%TF.FilePolarity,Positive*%
%FSLAX46Y46*%
G04 Gerber Fmt 4.6, Leading zero omitted, Abs format (unit mm)*
G04 Created by KiCad (PCBNEW 7.0.10-7.0.10~ubuntu22.04.1) date 2024-04-21 14:18:33*
%MOMM*%
%LPD*%
G01*
G04 APERTURE LIST*
%TA.AperFunction,ComponentPad*%
%ADD10O,1.000000X2.100000*%
%TD*%
%TA.AperFunction,ComponentPad*%
%ADD11O,1.000000X1.800000*%
%TD*%
%TA.AperFunction,ComponentPad*%
%ADD12C,1.270000*%
%TD*%
%TA.AperFunction,ComponentPad*%
%ADD13C,0.600000*%
%TD*%
%TA.AperFunction,SMDPad,CuDef*%
%ADD14R,1.600000X0.900000*%
%TD*%
%TA.AperFunction,HeatsinkPad*%
%ADD15C,0.500000*%
%TD*%
%TA.AperFunction,HeatsinkPad*%
%ADD16R,1.680000X1.680000*%
%TD*%
%TA.AperFunction,ComponentPad*%
%ADD17C,2.800000*%
%TD*%
%TA.AperFunction,ComponentPad*%
%ADD18O,1.700000X1.700000*%
%TD*%
%TA.AperFunction,ComponentPad*%
%ADD19R,1.700000X1.700000*%
%TD*%
%TA.AperFunction,ViaPad*%
%ADD20C,0.800000*%
%TD*%
%TA.AperFunction,Conductor*%
%ADD21C,0.300000*%
%TD*%
%TA.AperFunction,Conductor*%
%ADD22C,0.200000*%
%TD*%
G04 APERTURE END LIST*
D10*
%TO.P,J1,S1,SHIELD*%
%TO.N,GND*%
X128680000Y-134395000D03*
D11*
X128680000Y-138575000D03*
D10*
X137320000Y-134395000D03*
D11*
X137320000Y-138575000D03*
%TD*%
D12*
%TO.P,U7,1,ANODE*%
%TO.N,Net-(U7-ANODE)*%
X201018849Y-86512600D03*
%TO.P,U7,2,COLLECTOR*%
%TO.N,/left_encoder*%
X205518850Y-86512600D03*
%TO.P,U7,3,EMITTER*%
%TO.N,GND*%
X205518850Y-84512599D03*
%TO.P,U7,4,CATHODE*%
%TO.N,Net-(U7-CATHODE)*%
X201018849Y-84512599D03*
%TD*%
%TO.P,U8,1,ANODE*%
%TO.N,Net-(U7-CATHODE)*%
X205281151Y-113287400D03*
%TO.P,U8,2,COLLECTOR*%
%TO.N,/right_encoder*%
X200781150Y-113287400D03*
%TO.P,U8,3,EMITTER*%
%TO.N,GND*%
X200781150Y-115287401D03*
%TO.P,U8,4,CATHODE*%
X205281151Y-115287401D03*
%TD*%
D13*
%TO.P,U5,9,GND*%
%TO.N,GND*%
X123250000Y-69950000D03*
D14*
X123750000Y-69950000D03*
D13*
X124250000Y-69950000D03*
%TD*%
D15*
%TO.P,U2,17,VSS*%
%TO.N,GND*%
X125500000Y-121680000D03*
X126680000Y-121680000D03*
D16*
X126090000Y-121090000D03*
D15*
X125500000Y-120500000D03*
X126680000Y-120500000D03*
%TD*%
D13*
%TO.P,U6,9,GND*%
%TO.N,GND*%
X131000000Y-70000000D03*
D14*
X131500000Y-70000000D03*
D13*
X132000000Y-70000000D03*
%TD*%
D17*
%TO.P,U1,49,GND*%
%TO.N,GND*%
X202200000Y-100700000D03*
%TD*%
D18*
%TO.P,J3,2,Pin_2*%
%TO.N,Net-(J3-Pin_2)*%
X125240000Y-74600000D03*
D19*
%TO.P,J3,1,Pin_1*%
%TO.N,Net-(J3-Pin_1)*%
X122700000Y-74600000D03*
%TD*%
D18*
%TO.P,J4,2,Pin_2*%
%TO.N,Net-(J4-Pin_2)*%
X132740000Y-74600000D03*
D19*
%TO.P,J4,1,Pin_1*%
%TO.N,Net-(J4-Pin_1)*%
X130200000Y-74600000D03*
%TD*%
D20*
%TO.N,GND*%
X156800000Y-113400000D03*
X198100000Y-92900000D03*
X195000000Y-108900000D03*
X190275695Y-111027582D03*
X150500000Y-70800000D03*
X157700000Y-88100000D03*
X156000000Y-77800000D03*
X123600000Y-99800000D03*
X123800000Y-90200000D03*
X132100000Y-117400000D03*
%TO.N,+5V*%
X185000000Y-111800000D03*
X185068198Y-120868198D03*
%TO.N,/lidar_tx*%
X202200000Y-107100000D03*
X126300000Y-102600000D03*
%TO.N,+3.3V*%
X205700000Y-105200000D03*
X196043751Y-113956251D03*
%TO.N,/right_encoder*%
X194100000Y-103300000D03*
X196800000Y-100700000D03*
%TO.N,GND*%
X126400000Y-103900000D03*
X145000000Y-127200000D03*
X141500000Y-125800000D03*
X142400000Y-125200000D03*
X142400000Y-124300000D03*
X135800000Y-131800000D03*
X133300000Y-128600000D03*
X133500000Y-126800000D03*
X119600000Y-123800000D03*
X118600000Y-125000000D03*
X123600000Y-126700000D03*
X125600000Y-126700000D03*
X107800000Y-69100000D03*
X107900000Y-85100000D03*
%TO.N,/usb_data_-*%
X198940442Y-109950000D03*
%TO.N,+3.3V*%
X194587500Y-112500000D03*
X132400000Y-122700000D03*
%TO.N,+5V*%
X189400000Y-97170000D03*
%TO.N,/right_motor_pwm_b*%
X187800000Y-103100000D03*
X198800000Y-104800000D03*
%TO.N,/left_motor_pwm_b*%
X192900000Y-100182824D03*
X126200000Y-69000000D03*
%TO.N,/left_motor_pwm_a*%
X127430331Y-68969669D03*
X194791413Y-101013575D03*
%TO.N,/motor_sleep*%
X196800000Y-102300000D03*
X128423661Y-69137847D03*
X131000000Y-67700000D03*
%TO.N,/imu_scl*%
X203000000Y-95800000D03*
%TO.N,/imu_sda*%
X202200000Y-94300000D03*
X189200000Y-104400000D03*
%TO.N,/imu_scl*%
X189616727Y-105483273D03*
%TO.N,/right_encoder*%
X196412500Y-112500000D03*
%TO.N,Net-(D3-DOUT)*%
X190500000Y-93670000D03*
X189400000Y-99000000D03*
%TO.N,/status_leds*%
X197650000Y-96700000D03*
X190900000Y-101500000D03*
%TO.N,/usb_data_-*%
X133243987Y-134995000D03*
%TO.N,+5V*%
X143400000Y-125727003D03*
X142340199Y-122959801D03*
%TO.N,/charger_out*%
X131309314Y-128359314D03*
X121100000Y-135000000D03*
%TO.N,Net-(BT1-+)*%
X107900000Y-115690000D03*
X118000000Y-127600000D03*
X107900000Y-131700000D03*
%TO.N,Net-(D2-K)*%
X128800000Y-120900000D03*
X122000000Y-138875000D03*
%TO.N,Net-(D1-K)*%
X119000018Y-138875000D03*
X126900000Y-118100004D03*
%TD*%
D21*
%TO.N,+5V*%
X51895303Y-106000000D02*
X88704696Y-106000000D01*
%TO.N,/charger_out*%
X131031128Y-128637500D02*
X131309314Y-128359314D01*
%TO.N,Net-(D2-K)*%
X132387500Y-124487500D02*
X132387500Y-128412500D01*
%TO.N,/charger_out*%
X127462500Y-128637500D02*
X131031128Y-128637500D01*
X121100000Y-135000000D02*
X127462500Y-128637500D01*
%TO.N,Net-(D2-K)*%
X128800000Y-120900000D02*
X132387500Y-124487500D01*
X122000000Y-138800000D02*
X122000000Y-138875000D01*
X132387500Y-128412500D02*
X122000000Y-138800000D01*
D22*
%TO.N,/lidar_tx*%
X126300000Y-102600000D02*
X132200000Y-108500000D01*
X132200000Y-108500000D02*
X132200000Y-111300000D01*
X132200000Y-111300000D02*
X140300000Y-119400000D01*
X140300000Y-119400000D02*
X157500000Y-119400000D01*
X157500000Y-119400000D02*
X162600000Y-114300000D01*
X162600000Y-114300000D02*
X191660661Y-114300000D01*
X191660661Y-114300000D02*
X198860661Y-107100000D01*
X198860661Y-107100000D02*
X202200000Y-107100000D01*
%TO.N,/left_motor_pwm_a*%
X127430331Y-69230331D02*
X131250000Y-73050000D01*
X127430331Y-68969669D02*
X127430331Y-69230331D01*
%TO.N,/motor_sleep*%
X131000000Y-67700000D02*
X172231371Y-67700000D01*
X172231371Y-67700000D02*
X177181371Y-72650000D01*
X177181371Y-72650000D02*
X177981372Y-72650000D01*
X177981372Y-72650000D02*
X193700000Y-88368630D01*
X193700000Y-88368630D02*
X193700000Y-89168629D01*
%TO.N,/left_motor_pwm_b*%
X177650000Y-73450000D02*
X192900000Y-88700000D01*
%TO.N,/left_motor_pwm_a*%
X131250000Y-73050000D02*
X177815686Y-73050000D01*
%TO.N,/motor_sleep*%
X193700000Y-89168629D02*
X196950000Y-92418629D01*
%TO.N,/left_motor_pwm_a*%
X193300000Y-88534315D02*
X193300000Y-99522162D01*
%TO.N,/motor_sleep*%
X197550000Y-101550000D02*
X196800000Y-102300000D01*
X196950000Y-99789339D02*
X197550000Y-100389339D01*
%TO.N,/left_motor_pwm_b*%
X192900000Y-88700000D02*
X192900000Y-100182824D01*
%TO.N,/motor_sleep*%
X197550000Y-100389339D02*
X197550000Y-101550000D01*
%TO.N,/left_motor_pwm_a*%
X193300000Y-99522162D02*
X194791413Y-101013575D01*
%TO.N,/motor_sleep*%
X196950000Y-92418629D02*
X196950000Y-99789339D01*
%TO.N,/left_motor_pwm_a*%
X177815686Y-73050000D02*
X193300000Y-88534315D01*
%TO.N,/left_motor_pwm_b*%
X126200000Y-69000000D02*
X130650000Y-73450000D01*
X130650000Y-73450000D02*
X177650000Y-73450000D01*
D21*
%TO.N,+5V*%
X180209393Y-125727003D02*
X185068198Y-120868198D01*
X186513604Y-108550000D02*
X186513604Y-110286396D01*
X186513604Y-110286396D02*
X185000000Y-111800000D01*
%TO.N,/usb_data_-*%
X157085868Y-132133836D02*
X157162521Y-132078151D01*
X153999069Y-132300586D02*
X154000000Y-132347950D01*
X133243987Y-134995000D02*
X135243987Y-132995000D01*
X155169786Y-132210501D02*
X155199070Y-132300590D01*
X154030171Y-133779523D02*
X154085868Y-133856167D01*
X157852629Y-133941118D02*
X157900000Y-133942041D01*
X157569786Y-132210501D02*
X157599070Y-132300590D01*
D22*
%TO.N,/imu_scl*%
X192321750Y-105483273D02*
X189616727Y-105483273D01*
D21*
%TO.N,/usb_data_-*%
X153485867Y-132133831D02*
X153562520Y-132078147D01*
X157162521Y-132078151D02*
X157252628Y-132048877D01*
X157600000Y-132347954D02*
X157600000Y-133642041D01*
X176085030Y-132133841D02*
X195387500Y-112831371D01*
X156837458Y-133911807D02*
X156914099Y-133856132D01*
X158037459Y-133911806D02*
X158114100Y-133856130D01*
X154600000Y-132347954D02*
X154600884Y-132300582D01*
X156400000Y-132347954D02*
X156400000Y-133642046D01*
D22*
%TO.N,/imu_scl*%
X195361523Y-107200000D02*
X194038477Y-107200000D01*
D21*
%TO.N,/usb_data_-*%
X156747364Y-133941077D02*
X156837458Y-133911807D01*
X153837457Y-132078192D02*
X153914097Y-132133867D01*
X153399069Y-133689414D02*
X153400000Y-133642050D01*
%TO.N,/status_leds*%
X198000000Y-103236396D02*
X198000000Y-97050000D01*
%TO.N,/usb_data_-*%
X156430173Y-133779520D02*
X156485868Y-133856164D01*
X152200000Y-133642050D02*
X152200000Y-132347949D01*
D22*
%TO.N,/imu_sda*%
X198450000Y-98050000D02*
X202200000Y-94300000D01*
D21*
%TO.N,/usb_data_-*%
X153652628Y-132048873D02*
X153700000Y-132047950D01*
X153700000Y-132047950D02*
X153747364Y-132048923D01*
D22*
%TO.N,/imu_scl*%
X198850000Y-99950000D02*
X198850000Y-103711523D01*
D21*
%TO.N,/usb_data_-*%
X152362399Y-132077877D02*
X152452586Y-132048570D01*
X158199071Y-133689406D02*
X158200000Y-133642041D01*
X152547422Y-132048522D02*
X152637623Y-132077833D01*
X152799386Y-132300527D02*
X152800000Y-132347949D01*
X156237458Y-132078193D02*
X156314099Y-132133868D01*
X151252585Y-132048559D02*
X151300000Y-132047938D01*
X156700000Y-133942046D02*
X156747364Y-133941077D01*
X151570086Y-132210314D02*
X151599385Y-132300517D01*
X151762520Y-133911853D02*
X151852628Y-133941127D01*
X155962521Y-132078151D02*
X156052628Y-132048877D01*
X153369785Y-133779502D02*
X153399069Y-133689414D01*
X158230175Y-132210485D02*
X158285870Y-132133841D01*
D22*
%TO.N,/right_motor_pwm_b*%
X187800000Y-103100000D02*
X187800000Y-107004163D01*
D21*
%TO.N,/usb_data_-*%
X153914097Y-132133867D02*
X153969785Y-132210498D01*
X154600884Y-132300582D02*
X154630173Y-132210480D01*
D22*
%TO.N,/imu_scl*%
X194038477Y-107200000D02*
X192321750Y-105483273D01*
D21*
%TO.N,/usb_data_-*%
X157514099Y-132133868D02*
X157569786Y-132210501D01*
X151162397Y-132077865D02*
X151252585Y-132048559D01*
X156314099Y-132133868D02*
X156369786Y-132210501D01*
X152452586Y-132048570D02*
X152500000Y-132047949D01*
X152714349Y-132133586D02*
X152770090Y-132210321D01*
X158114100Y-133856130D02*
X158169788Y-133779496D01*
X154000000Y-132347950D02*
X154000000Y-133642048D01*
X155362521Y-133911849D02*
X155452628Y-133941123D01*
D22*
%TO.N,/imu_sda*%
X194204163Y-106800000D02*
X195072792Y-106800000D01*
D21*
%TO.N,/usb_data_-*%
X151599385Y-132300517D02*
X151600000Y-132347938D01*
D22*
%TO.N,/right_motor_pwm_b*%
X193772792Y-107500000D02*
X193872792Y-107600000D01*
D21*
%TO.N,/usb_data_-*%
X156999070Y-133689410D02*
X157000000Y-133642046D01*
X152637623Y-132077833D02*
X152714349Y-132133586D01*
X150999076Y-132742369D02*
X151000000Y-132695000D01*
X155199070Y-132300590D02*
X155200000Y-132347954D01*
X154437457Y-133911807D02*
X154514098Y-133856132D01*
X155800000Y-133642046D02*
X155800000Y-132347954D01*
X151852628Y-133941127D02*
X151900000Y-133942050D01*
X151947364Y-133941077D02*
X152037457Y-133911808D01*
X158200000Y-133642041D02*
X158200000Y-132347959D01*
D22*
%TO.N,/imu_sda*%
X195072792Y-106800000D02*
X198450000Y-103422792D01*
D21*
%TO.N,+5V*%
X186513604Y-100056396D02*
X189400000Y-97170000D01*
%TO.N,/usb_data_-*%
X155200000Y-133642046D02*
X155200884Y-133689418D01*
X154085868Y-133856167D02*
X154162521Y-133911851D01*
X152229954Y-132210344D02*
X152285685Y-132133620D01*
X154300000Y-133942048D02*
X154347364Y-133941077D01*
X153400881Y-132300578D02*
X153430170Y-132210475D01*
X151300000Y-132047938D02*
X151347421Y-132048521D01*
X152800000Y-132347949D02*
X152800000Y-133642050D01*
X196850000Y-110950000D02*
X197940442Y-110950000D01*
X151600881Y-133689422D02*
X151630170Y-133779525D01*
X153400000Y-132347950D02*
X153400881Y-132300578D01*
D22*
%TO.N,/right_motor_pwm_b*%
X187800000Y-107004163D02*
X188295837Y-107500000D01*
D21*
%TO.N,/usb_data_-*%
X197940442Y-110950000D02*
X198940442Y-109950000D01*
X153052628Y-133941127D02*
X153100000Y-133942050D01*
X155885868Y-132133836D02*
X155962521Y-132078151D01*
X152200000Y-132347949D02*
X152200662Y-132300535D01*
%TO.N,/status_leds*%
X198000000Y-97050000D02*
X197650000Y-96700000D01*
%TO.N,/usb_data_-*%
X157437458Y-132078193D02*
X157514099Y-132133868D01*
%TO.N,+5V*%
X143400000Y-125727003D02*
X180209393Y-125727003D01*
%TO.N,/usb_data_-*%
X154947364Y-132048923D02*
X155037458Y-132078193D01*
X154162521Y-133911851D02*
X154252628Y-133941125D01*
X155800000Y-132347954D02*
X155800884Y-132300582D01*
X155452628Y-133941123D02*
X155500000Y-133942046D01*
%TO.N,/status_leds*%
X190900000Y-101500000D02*
X194386396Y-104986396D01*
%TO.N,/usb_data_-*%
X153969785Y-132210498D02*
X153999069Y-132300586D01*
X150837470Y-132964801D02*
X150914115Y-132909115D01*
%TO.N,/status_leds*%
X194386396Y-104986396D02*
X196250000Y-104986396D01*
%TO.N,/usb_data_-*%
X158285870Y-132133841D02*
X176085030Y-132133841D01*
X153400000Y-133642050D02*
X153400000Y-132347950D01*
X158200000Y-132347959D02*
X158200888Y-132300588D01*
X151900000Y-133942050D02*
X151947364Y-133941077D01*
X153562520Y-132078147D02*
X153652628Y-132048873D01*
X157000000Y-132347954D02*
X157000884Y-132300582D01*
X153747364Y-132048923D02*
X153837457Y-132078192D01*
D22*
%TO.N,/imu_scl*%
X198850000Y-103711523D02*
X195361523Y-107200000D01*
D21*
%TO.N,/usb_data_-*%
X154600000Y-133642048D02*
X154600000Y-132347954D01*
X152169785Y-133779502D02*
X152199069Y-133689414D01*
D22*
%TO.N,/imu_sda*%
X198450000Y-103422792D02*
X198450000Y-98050000D01*
D21*
%TO.N,/usb_data_-*%
X154569785Y-133779501D02*
X154599070Y-133689412D01*
X157900000Y-133942041D02*
X157947365Y-133941077D01*
%TO.N,/status_leds*%
X196250000Y-104986396D02*
X198000000Y-103236396D01*
%TO.N,/usb_data_-*%
X154252628Y-133941125D02*
X154300000Y-133942048D01*
X155200884Y-133689418D02*
X155230173Y-133779520D01*
X155714099Y-133856132D02*
X155769786Y-133779499D01*
X155500000Y-133942046D02*
X155547364Y-133941077D01*
D22*
%TO.N,/imu_scl*%
X203000000Y-95800000D02*
X198850000Y-99950000D01*
D21*
%TO.N,/usb_data_-*%
X154514098Y-133856132D02*
X154569785Y-133779501D01*
X151600000Y-133642050D02*
X151600881Y-133689422D01*
X158169788Y-133779496D02*
X158199071Y-133689406D01*
X151514345Y-132133582D02*
X151570086Y-132210314D01*
X158200888Y-132300588D02*
X158230175Y-132210485D01*
X156914099Y-133856132D02*
X156969786Y-133779499D01*
X156400884Y-133689418D02*
X156430173Y-133779520D01*
X154630173Y-132210480D02*
X154685868Y-132133836D01*
X156969786Y-133779499D02*
X156999070Y-133689410D01*
X152800881Y-133689422D02*
X152830170Y-133779525D01*
X156485868Y-133856164D02*
X156562521Y-133911849D01*
X153147364Y-133941077D02*
X153237457Y-133911808D01*
D22*
%TO.N,/imu_sda*%
X189200000Y-104400000D02*
X191804163Y-104400000D01*
D21*
%TO.N,/usb_data_-*%
X157685870Y-133856159D02*
X157762522Y-133911843D01*
X152285685Y-132133620D02*
X152362399Y-132077877D01*
X154762521Y-132078151D02*
X154852628Y-132048877D01*
X152114097Y-133856133D02*
X152169785Y-133779502D01*
X154000882Y-133689420D02*
X154030171Y-133779523D01*
X155830173Y-132210480D02*
X155885868Y-132133836D01*
%TO.N,+5V*%
X186513604Y-108550000D02*
X186513604Y-100056396D01*
%TO.N,/usb_data_-*%
X155200000Y-132347954D02*
X155200000Y-133642046D01*
X155547364Y-133941077D02*
X155637458Y-133911807D01*
X157000000Y-133642046D02*
X157000000Y-132347954D01*
X154852628Y-132048877D02*
X154900000Y-132047954D01*
X157762522Y-133911843D02*
X157852629Y-133941118D01*
X157600888Y-133689412D02*
X157630175Y-133779515D01*
X157300000Y-132047954D02*
X157347364Y-132048923D01*
X151000000Y-132347938D02*
X151000653Y-132300523D01*
X152037457Y-133911808D02*
X152114097Y-133856133D01*
X154000000Y-133642048D02*
X154000882Y-133689420D01*
X156369786Y-132210501D02*
X156399070Y-132300590D01*
X151000000Y-132695000D02*
X151000000Y-132347938D01*
X154685868Y-132133836D02*
X154762521Y-132078151D01*
X155285868Y-133856164D02*
X155362521Y-133911849D01*
X157000884Y-132300582D02*
X157030173Y-132210480D01*
X157030173Y-132210480D02*
X157085868Y-132133836D01*
X157947365Y-133941077D02*
X158037459Y-133911806D01*
X156652628Y-133941123D02*
X156700000Y-133942046D01*
X156400000Y-133642046D02*
X156400884Y-133689418D01*
X153430170Y-132210475D02*
X153485867Y-132133831D01*
X152800000Y-133642050D02*
X152800881Y-133689422D01*
X151029948Y-132210332D02*
X151085681Y-132133609D01*
D22*
%TO.N,/right_motor_pwm_b*%
X196000000Y-107600000D02*
X198800000Y-104800000D01*
D21*
%TO.N,/usb_data_-*%
X150747369Y-132994076D02*
X150837470Y-132964801D01*
X157252628Y-132048877D02*
X157300000Y-132047954D01*
X157600000Y-133642041D02*
X157600888Y-133689412D01*
X152200662Y-132300535D02*
X152229954Y-132210344D01*
X155769786Y-133779499D02*
X155799070Y-133689410D01*
X155230173Y-133779520D02*
X155285868Y-133856164D01*
D22*
%TO.N,/right_motor_pwm_b*%
X193872792Y-107600000D02*
X196000000Y-107600000D01*
D21*
%TO.N,/usb_data_-*%
X156100000Y-132047954D02*
X156147364Y-132048923D01*
X151630170Y-133779525D02*
X151685867Y-133856169D01*
X157599070Y-132300590D02*
X157600000Y-132347954D01*
X151685867Y-133856169D02*
X151762520Y-133911853D01*
X155637458Y-133911807D02*
X155714099Y-133856132D01*
X155799070Y-133689410D02*
X155800000Y-133642046D01*
X153100000Y-133942050D02*
X153147364Y-133941077D01*
X156147364Y-132048923D02*
X156237458Y-132078193D01*
X154347364Y-133941077D02*
X154437457Y-133911807D01*
X135243987Y-132995000D02*
X150700000Y-132995000D01*
X155114099Y-132133868D02*
X155169786Y-132210501D01*
X152199069Y-133689414D02*
X152200000Y-133642050D01*
X154599070Y-133689412D02*
X154600000Y-133642048D01*
X153237457Y-133911808D02*
X153314097Y-133856133D01*
X150914115Y-132909115D02*
X150969801Y-132832470D01*
D22*
%TO.N,/right_motor_pwm_b*%
X188295837Y-107500000D02*
X193772792Y-107500000D01*
D21*
%TO.N,/usb_data_-*%
X150969801Y-132832470D02*
X150999076Y-132742369D01*
X152962520Y-133911853D02*
X153052628Y-133941127D01*
D22*
%TO.N,/imu_sda*%
X191804163Y-104400000D02*
X194204163Y-106800000D01*
D21*
%TO.N,/usb_data_-*%
X157347364Y-132048923D02*
X157437458Y-132078193D01*
X155800884Y-132300582D02*
X155830173Y-132210480D01*
X152885867Y-133856169D02*
X152962520Y-133911853D01*
X195387500Y-112412500D02*
X196850000Y-110950000D01*
X153314097Y-133856133D02*
X153369785Y-133779502D01*
X154900000Y-132047954D02*
X154947364Y-132048923D01*
X152500000Y-132047949D02*
X152547422Y-132048522D01*
X152770090Y-132210321D02*
X152799386Y-132300527D01*
X150700000Y-132995000D02*
X150747369Y-132994076D01*
X151000653Y-132300523D02*
X151029948Y-132210332D01*
X155037458Y-132078193D02*
X155114099Y-132133868D01*
X151085681Y-132133609D02*
X151162397Y-132077865D01*
X151437620Y-132077831D02*
X151514345Y-132133582D01*
X156399070Y-132300590D02*
X156400000Y-132347954D01*
X195387500Y-112831371D02*
X195387500Y-112412500D01*
X156562521Y-133911849D02*
X156652628Y-133941123D01*
X151600000Y-132347938D02*
X151600000Y-133642050D01*
X157630175Y-133779515D02*
X157685870Y-133856159D01*
X152830170Y-133779525D02*
X152885867Y-133856169D01*
X156052628Y-132048877D02*
X156100000Y-132047954D01*
X151347421Y-132048521D02*
X151437620Y-132077831D01*
D22*
%TO.N,+3.3V*%
X205777599Y-116222401D02*
X197822401Y-116222401D01*
X206216151Y-105716151D02*
X206216151Y-115783849D01*
X206216151Y-115783849D02*
X205777599Y-116222401D01*
X197822401Y-116222401D02*
X196043751Y-114443751D01*
X196043751Y-114443751D02*
X196043751Y-113956251D01*
X205700000Y-105200000D02*
X206216151Y-105716151D01*
D21*
%TO.N,Net-(U7-CATHODE)*%
X205281151Y-113287400D02*
X204646151Y-112652400D01*
X204646151Y-112652400D02*
X204646151Y-88139901D01*
X204646151Y-88139901D02*
X201018849Y-84512599D01*
%TO.N,/right_encoder*%
X196700000Y-100700000D02*
X196800000Y-100700000D01*
X194100000Y-103300000D02*
X196700000Y-100700000D01*
%TO.N,+3.3V*%
X132400000Y-122700000D02*
X136300000Y-126600000D01*
X144668629Y-126400000D02*
X180687500Y-126400000D01*
X144468629Y-126600000D02*
X144668629Y-126400000D01*
X136300000Y-126600000D02*
X144468629Y-126600000D01*
X180687500Y-126400000D02*
X194587500Y-112500000D01*
%TO.N,+5V*%
X143400000Y-124019602D02*
X142340199Y-122959801D01*
X143400000Y-125727003D02*
X143400000Y-124019602D01*
%TO.N,Net-(D3-DOUT)*%
X190500000Y-97900000D02*
X190500000Y-93670000D01*
X189400000Y-99000000D02*
X190500000Y-97900000D01*
D22*
%TO.N,/motor_sleep*%
X129562153Y-69137847D02*
X128423661Y-69137847D01*
X131000000Y-67700000D02*
X129562153Y-69137847D01*
%TO.N,/left_motor_pwm_b*%
X196617176Y-103900000D02*
X196700000Y-103900000D01*
D21*
%TO.N,/right_encoder*%
X200781150Y-113287400D02*
X197199900Y-113287400D01*
X197199900Y-113287400D02*
X196412500Y-112500000D01*
%TO.N,Net-(BT1-+)*%
X118000000Y-127600000D02*
X118000000Y-125790000D01*
X118000000Y-125790000D02*
X107900000Y-115690000D01*
X118000000Y-127600000D02*
X113900000Y-131700000D01*
%TO.N,Net-(D1-K)*%
X119100000Y-125900004D02*
X126900000Y-118100004D01*
X119000018Y-138875000D02*
X119100000Y-138775018D01*
X119100000Y-138775018D02*
X119100000Y-125900004D01*
%TO.N,Net-(BT1-+)*%
X113900000Y-131700000D02*
X107900000Y-131700000D01*
%TD*%
%TA.AperFunction,Conductor*%
%TO.N,GND*%
G36*
X197094659Y-113931978D02*
G01*
X197117723Y-113937900D01*
X197138945Y-113937900D01*
X197158342Y-113939426D01*
X197179305Y-113942747D01*
X197224760Y-113938450D01*
X197236430Y-113937900D01*
X199787738Y-113937900D01*
X199854777Y-113957585D01*
X199886690Y-113987171D01*
X199938410Y-114055659D01*
X200093927Y-114197431D01*
X200116732Y-114211551D01*
X200163366Y-114263577D01*
X200173841Y-114326540D01*
X200753703Y-114906401D01*
X200749581Y-114906401D01*
X200655729Y-114922062D01*
X200543899Y-114982581D01*
X200457779Y-115076132D01*
X200406702Y-115192578D01*
X200401044Y-115260848D01*
X199818696Y-114678500D01*
X199818695Y-114678500D01*
X199812020Y-114687340D01*
X199718261Y-114875631D01*
X199660695Y-115077956D01*
X199641288Y-115287400D01*
X199641288Y-115287401D01*
X199659733Y-115486460D01*
X199646318Y-115555030D01*
X199597961Y-115605461D01*
X199536262Y-115621901D01*
X198122498Y-115621901D01*
X198055459Y-115602216D01*
X198034817Y-115585582D01*
X196900834Y-114451599D01*
X196867349Y-114390276D01*
X196870584Y-114325600D01*
X196883406Y-114286138D01*
X196929425Y-114144507D01*
X196940501Y-114039116D01*
X196967084Y-113974507D01*
X197024381Y-113934521D01*
X197094200Y-113931861D01*
X197094659Y-113931978D01*
G37*
%TD.AperFunction*%
%TA.AperFunction,Conductor*%
G36*
X205133901Y-84544497D02*
G01*
X205165116Y-84667761D01*
X205234663Y-84774211D01*
X205335007Y-84852312D01*
X205455272Y-84893599D01*
X205491403Y-84893599D01*
X204911510Y-85473489D01*
X204900500Y-85537592D01*
X204854434Y-85588446D01*
X204831630Y-85602565D01*
X204831626Y-85602569D01*
X204676111Y-85744339D01*
X204549292Y-85912274D01*
X204455492Y-86100649D01*
X204397901Y-86303062D01*
X204378485Y-86512599D01*
X204378485Y-86512601D01*
X204391701Y-86655231D01*
X204378286Y-86723801D01*
X204329929Y-86774233D01*
X204261983Y-86790515D01*
X204196020Y-86767477D01*
X204180549Y-86754353D01*
X203315650Y-85889454D01*
X203282165Y-85828131D01*
X203287149Y-85758439D01*
X203329021Y-85702506D01*
X203390367Y-85678453D01*
X203461935Y-85670931D01*
X203646581Y-85610936D01*
X203814719Y-85513862D01*
X203958999Y-85383951D01*
X204073117Y-85226882D01*
X204152084Y-85049518D01*
X204192450Y-84859612D01*
X204192450Y-84859608D01*
X204193394Y-84855167D01*
X204226586Y-84793685D01*
X204287749Y-84759908D01*
X204357463Y-84764560D01*
X204413596Y-84806164D01*
X204433950Y-84847012D01*
X204455958Y-84924362D01*
X204455960Y-84924366D01*
X204549721Y-85112661D01*
X204556395Y-85121498D01*
X205133946Y-84543949D01*
X205133901Y-84544497D01*
G37*
%TD.AperFunction*%
%TA.AperFunction,Conductor*%
G36*
X171998313Y-68320185D02*
G01*
X172018955Y-68336819D01*
X175919955Y-72237819D01*
X175953440Y-72299142D01*
X175948456Y-72368834D01*
X175906584Y-72424767D01*
X175841120Y-72449184D01*
X175832274Y-72449500D01*
X131550097Y-72449500D01*
X131483058Y-72429815D01*
X131462416Y-72413181D01*
X129299235Y-70250000D01*
X130200000Y-70250000D01*
X130200000Y-70497844D01*
X130206401Y-70557372D01*
X130206403Y-70557379D01*
X130256645Y-70692086D01*
X130256649Y-70692093D01*
X130342809Y-70807187D01*
X130342812Y-70807190D01*
X130457906Y-70893350D01*
X130457913Y-70893354D01*
X130592620Y-70943596D01*
X130592627Y-70943598D01*
X130652155Y-70949999D01*
X130652172Y-70950000D01*
X131250000Y-70950000D01*
X131750000Y-70950000D01*
X132347828Y-70950000D01*
X132347844Y-70949999D01*
X132407372Y-70943598D01*
X132407379Y-70943596D01*
X132542086Y-70893354D01*
X132542093Y-70893350D01*
X132657187Y-70807190D01*
X132657190Y-70807187D01*
X132743350Y-70692093D01*
X132743354Y-70692086D01*
X132793596Y-70557379D01*
X132793598Y-70557372D01*
X132799999Y-70497844D01*
X132800000Y-70497827D01*
X132800000Y-70250000D01*
X132103552Y-70250000D01*
X131750000Y-70603552D01*
X131750000Y-70950000D01*
X131250000Y-70950000D01*
X131250000Y-70603553D01*
X130896447Y-70250000D01*
X130200000Y-70250000D01*
X129299235Y-70250000D01*
X129067775Y-70018540D01*
X130871049Y-70018540D01*
X130901543Y-70085313D01*
X130963297Y-70125000D01*
X131017972Y-70125000D01*
X131070433Y-70109596D01*
X131118504Y-70054119D01*
X131123620Y-70018540D01*
X131871049Y-70018540D01*
X131901543Y-70085313D01*
X131963297Y-70125000D01*
X132017972Y-70125000D01*
X132070433Y-70109596D01*
X132118504Y-70054119D01*
X132128951Y-69981460D01*
X132098457Y-69914687D01*
X132036703Y-69875000D01*
X131982028Y-69875000D01*
X131929567Y-69890404D01*
X131881496Y-69945881D01*
X131871049Y-70018540D01*
X131123620Y-70018540D01*
X131128951Y-69981460D01*
X131098457Y-69914687D01*
X131036703Y-69875000D01*
X130982028Y-69875000D01*
X130929567Y-69890404D01*
X130881496Y-69945881D01*
X130871049Y-70018540D01*
X129067775Y-70018540D01*
X129032400Y-69983165D01*
X128998915Y-69921842D01*
X129003899Y-69852150D01*
X129027933Y-69812510D01*
X129029529Y-69810736D01*
X129029532Y-69810735D01*
X129057771Y-69779373D01*
X129117258Y-69742726D01*
X129149919Y-69738347D01*
X129514666Y-69738347D01*
X129530850Y-69739407D01*
X129562153Y-69743529D01*
X129562154Y-69743529D01*
X129614407Y-69736649D01*
X129718915Y-69722891D01*
X129864994Y-69662383D01*
X129890832Y-69642557D01*
X129996884Y-69561181D01*
X129998176Y-69562865D01*
X130049625Y-69534763D01*
X130119318Y-69539738D01*
X130175257Y-69581602D01*
X130199683Y-69647063D01*
X130200000Y-69655926D01*
X130200000Y-69750000D01*
X130896447Y-69750000D01*
X130896447Y-69749999D01*
X131000000Y-69646447D01*
X131249999Y-69396446D01*
X131250000Y-69396445D01*
X131250000Y-69050000D01*
X131750000Y-69050000D01*
X131750000Y-69396446D01*
X132000000Y-69646447D01*
X132103553Y-69750000D01*
X132800000Y-69750000D01*
X132800000Y-69502172D01*
X132799999Y-69502155D01*
X132793598Y-69442627D01*
X132793596Y-69442620D01*
X132743354Y-69307913D01*
X132743350Y-69307906D01*
X132657190Y-69192812D01*
X132657187Y-69192809D01*
X132542093Y-69106649D01*
X132542086Y-69106645D01*
X132407379Y-69056403D01*
X132407372Y-69056401D01*
X132347844Y-69050000D01*
X131750000Y-69050000D01*
X131250000Y-69050000D01*
X130798596Y-69050000D01*
X130731557Y-69030315D01*
X130685802Y-68977511D01*
X130675858Y-68908353D01*
X130704883Y-68844797D01*
X130710904Y-68838329D01*
X130912416Y-68636819D01*
X130973739Y-68603334D01*
X131000097Y-68600500D01*
X131094644Y-68600500D01*
X131094646Y-68600500D01*
X131279803Y-68561144D01*
X131452730Y-68484151D01*
X131605871Y-68372888D01*
X131634109Y-68341527D01*
X131693595Y-68304879D01*
X131726258Y-68300500D01*
X171931274Y-68300500D01*
X171998313Y-68320185D01*
G37*
%TD.AperFunction*%
%TA.AperFunction,Conductor*%
G36*
X213592539Y-58920185D02*
G01*
X213638294Y-58972989D01*
X213649500Y-59024500D01*
X213649500Y-60775500D01*
X213629815Y-60842539D01*
X213577011Y-60888294D01*
X213525500Y-60899500D01*
X208674760Y-60899500D01*
X208674554Y-60899459D01*
X208649998Y-60899459D01*
X208649807Y-60899538D01*
X208649619Y-60899615D01*
X208649615Y-60899618D01*
X208649459Y-60899999D01*
X208649476Y-60924616D01*
X208649471Y-60924616D01*
X208649500Y-60924759D01*
X208649500Y-62875467D01*
X208649416Y-62875889D01*
X208649459Y-62900000D01*
X208649500Y-62900099D01*
X208649617Y-62900383D01*
X208649618Y-62900384D01*
X208649808Y-62900462D01*
X208650000Y-62900541D01*
X208650002Y-62900539D01*
X208674616Y-62900524D01*
X208674616Y-62900528D01*
X208674760Y-62900500D01*
X213525500Y-62900500D01*
X213592539Y-62920185D01*
X213638294Y-62972989D01*
X213649500Y-63024500D01*
X213649500Y-81375500D01*
X213629815Y-81442539D01*
X213577011Y-81488294D01*
X213525500Y-81499500D01*
X208674760Y-81499500D01*
X208674554Y-81499459D01*
X208649998Y-81499459D01*
X208649807Y-81499538D01*
X208649619Y-81499615D01*
X208649615Y-81499618D01*
X208649459Y-81499999D01*
X208649476Y-81524616D01*
X208649471Y-81524616D01*
X208649500Y-81524759D01*
X208649500Y-83376000D01*
X208629815Y-83443039D01*
X208577011Y-83488794D01*
X208525500Y-83500000D01*
X207900000Y-83500000D01*
X207803836Y-94045927D01*
X207800000Y-94058563D01*
X207800000Y-94466083D01*
X207799995Y-94467214D01*
X207618916Y-114325600D01*
X207600000Y-116400000D01*
X208529564Y-116430477D01*
X208595922Y-116452347D01*
X208639922Y-116506622D01*
X208649500Y-116554410D01*
X208649500Y-118475467D01*
X208649416Y-118475889D01*
X208649459Y-118500000D01*
X208649500Y-118500099D01*
X208649617Y-118500383D01*
X208649618Y-118500384D01*
X208649808Y-118500462D01*
X208650000Y-118500541D01*
X208650002Y-118500539D01*
X208674616Y-118500524D01*
X208674616Y-118500528D01*
X208674760Y-118500500D01*
X213525500Y-118500500D01*
X213592539Y-118520185D01*
X213638294Y-118572989D01*
X213649500Y-118624500D01*
X213649500Y-136975500D01*
X213629815Y-137042539D01*
X213577011Y-137088294D01*
X213525500Y-137099500D01*
X208674760Y-137099500D01*
X208674554Y-137099459D01*
X208649998Y-137099459D01*
X208649807Y-137099538D01*
X208649619Y-137099615D01*
X208649615Y-137099618D01*
X208649459Y-137099999D01*
X208649476Y-137124616D01*
X208649471Y-137124616D01*
X208649500Y-137124759D01*
X208649500Y-139075467D01*
X208649416Y-139075889D01*
X208649459Y-139100000D01*
X208649500Y-139100099D01*
X208649617Y-139100383D01*
X208649618Y-139100384D01*
X208649808Y-139100462D01*
X208650000Y-139100541D01*
X208650002Y-139100539D01*
X208674616Y-139100524D01*
X208674616Y-139100528D01*
X208674760Y-139100500D01*
X213525500Y-139100500D01*
X213592539Y-139120185D01*
X213638294Y-139172989D01*
X213649500Y-139224500D01*
X213649500Y-140975500D01*
X213629815Y-141042539D01*
X213577011Y-141088294D01*
X213525500Y-141099500D01*
X127450937Y-141099500D01*
X127449070Y-141099486D01*
X126221494Y-141081000D01*
X126221494Y-141080999D01*
X126221437Y-141080999D01*
X126214217Y-141080887D01*
X126210541Y-141080776D01*
X125368736Y-141042724D01*
X125368584Y-141042717D01*
X124961311Y-141023808D01*
X124957735Y-141023590D01*
X124197432Y-140966241D01*
X124197181Y-140966222D01*
X123710751Y-140928535D01*
X123707283Y-140928217D01*
X122982863Y-140851578D01*
X122982512Y-140851540D01*
X122463722Y-140795160D01*
X122460366Y-140794749D01*
X121757452Y-140698905D01*
X121757003Y-140698843D01*
X121221342Y-140623806D01*
X121218099Y-140623308D01*
X120529985Y-140508280D01*
X120529438Y-140508187D01*
X119984829Y-140414641D01*
X119981703Y-140414063D01*
X119305429Y-140279967D01*
X119304786Y-140279838D01*
X118755241Y-140167846D01*
X118752233Y-140167194D01*
X118086064Y-140014121D01*
X118085326Y-140013949D01*
X117533798Y-139883668D01*
X117530910Y-139882949D01*
X116873922Y-139711004D01*
X116873092Y-139710784D01*
X116321624Y-139562371D01*
X116318856Y-139561591D01*
X115670605Y-139370901D01*
X115669686Y-139370627D01*
X115119831Y-139204251D01*
X115117184Y-139203417D01*
X114477418Y-138994096D01*
X114476412Y-138993762D01*
X113929659Y-138809685D01*
X113927134Y-138808805D01*
X113295869Y-138581005D01*
X113294779Y-138580606D01*
X112751975Y-138378965D01*
X112749572Y-138378044D01*
X112127049Y-138131970D01*
X112125878Y-138131500D01*
X111588084Y-137912565D01*
X111585803Y-137911610D01*
X110972076Y-137647379D01*
X110970828Y-137646833D01*
X110439027Y-137410914D01*
X110436868Y-137409932D01*
X109832307Y-137127776D01*
X109830984Y-137127149D01*
X109305780Y-136874438D01*
X109303743Y-136873435D01*
X108708630Y-136573545D01*
X108707238Y-136572832D01*
X108189512Y-136303696D01*
X108187595Y-136302678D01*
X107602311Y-135985291D01*
X107600853Y-135984488D01*
X107234032Y-135779148D01*
X107091140Y-135699159D01*
X107089468Y-135698204D01*
X106795623Y-135527214D01*
X106514265Y-135363489D01*
X106512745Y-135362590D01*
X106011945Y-135061542D01*
X106010266Y-135060515D01*
X105445548Y-134708724D01*
X105443971Y-134707724D01*
X104952684Y-134391310D01*
X104951122Y-134390288D01*
X104397270Y-134021663D01*
X104395640Y-134020559D01*
X103914408Y-133689128D01*
X103912961Y-133688116D01*
X103370336Y-133302895D01*
X103368659Y-133301683D01*
X102898150Y-132955708D01*
X102896815Y-132954713D01*
X102835494Y-132908341D01*
X102365703Y-132553076D01*
X102364093Y-132551836D01*
X101976259Y-132247737D01*
X101904813Y-132191716D01*
X101903588Y-132190743D01*
X101384423Y-131772985D01*
X101382667Y-131771545D01*
X101297015Y-131700000D01*
X106994540Y-131700000D01*
X107014326Y-131888256D01*
X107014327Y-131888259D01*
X107072818Y-132068277D01*
X107072821Y-132068284D01*
X107167467Y-132232216D01*
X107280063Y-132357266D01*
X107294129Y-132372888D01*
X107447265Y-132484148D01*
X107447270Y-132484151D01*
X107620192Y-132561142D01*
X107620197Y-132561144D01*
X107805354Y-132600500D01*
X107805355Y-132600500D01*
X107994644Y-132600500D01*
X107994646Y-132600500D01*
X108179803Y-132561144D01*
X108352730Y-132484151D01*
X108504090Y-132374182D01*
X108569896Y-132350702D01*
X108576975Y-132350500D01*
X113814495Y-132350500D01*
X113830505Y-132352267D01*
X113830528Y-132352026D01*
X113838289Y-132352758D01*
X113838296Y-132352760D01*
X113908262Y-132350560D01*
X113912157Y-132350500D01*
X113940925Y-132350500D01*
X113945287Y-132349948D01*
X113956939Y-132349030D01*
X114002569Y-132347597D01*
X114022956Y-132341673D01*
X114041996Y-132337731D01*
X114063058Y-132335071D01*
X114105520Y-132318258D01*
X114116557Y-132314480D01*
X114160398Y-132301744D01*
X114178665Y-132290939D01*
X114196136Y-132282380D01*
X114215871Y-132274568D01*
X114252816Y-132247725D01*
X114262558Y-132241326D01*
X114301865Y-132218081D01*
X114316870Y-132203075D01*
X114331668Y-132190436D01*
X114348837Y-132177963D01*
X114377946Y-132142774D01*
X114385790Y-132134154D01*
X117983127Y-128536819D01*
X118044450Y-128503334D01*
X118070808Y-128500500D01*
X118094644Y-128500500D01*
X118094646Y-128500500D01*
X118279803Y-128461144D01*
X118279805Y-128461142D01*
X118285987Y-128459135D01*
X118286816Y-128461687D01*
X118344262Y-128453961D01*
X118407551Y-128483562D01*
X118444790Y-128542681D01*
X118449500Y-128576533D01*
X118449500Y-138098714D01*
X118429815Y-138165753D01*
X118398391Y-138199028D01*
X118394148Y-138202110D01*
X118394146Y-138202112D01*
X118267484Y-138342785D01*
X118172839Y-138506715D01*
X118172836Y-138506722D01*
X118121523Y-138664649D01*
X118114344Y-138686744D01*
X118094558Y-138875000D01*
X118114344Y-139063256D01*
X118114345Y-139063259D01*
X118172836Y-139243277D01*
X118172839Y-139243284D01*
X118267485Y-139407216D01*
X118291960Y-139434398D01*
X118394147Y-139547888D01*
X118547283Y-139659148D01*
X118547288Y-139659151D01*
X118720210Y-139736142D01*
X118720215Y-139736144D01*
X118905372Y-139775500D01*
X118905373Y-139775500D01*
X119094662Y-139775500D01*
X119094664Y-139775500D01*
X119279821Y-139736144D01*
X119452748Y-139659151D01*
X119605889Y-139547888D01*
X119732551Y-139407216D01*
X119827197Y-139243284D01*
X119885692Y-139063256D01*
X119905478Y-138875000D01*
X119885692Y-138686744D01*
X119827197Y-138506716D01*
X119827196Y-138506714D01*
X119767113Y-138402646D01*
X119750500Y-138340646D01*
X119750500Y-135000000D01*
X120194540Y-135000000D01*
X120214326Y-135188256D01*
X120214327Y-135188259D01*
X120272818Y-135368277D01*
X120272821Y-135368284D01*
X120367467Y-135532216D01*
X120428260Y-135599733D01*
X120494129Y-135672888D01*
X120647265Y-135784148D01*
X120647270Y-135784151D01*
X120820192Y-135861142D01*
X120820197Y-135861144D01*
X121005354Y-135900500D01*
X121005355Y-135900500D01*
X121194644Y-135900500D01*
X121194646Y-135900500D01*
X121379803Y-135861144D01*
X121552730Y-135784151D01*
X121705871Y-135672888D01*
X121832533Y-135532216D01*
X121927179Y-135368284D01*
X121985674Y-135188256D01*
X121999168Y-135059855D01*
X122025752Y-134995242D01*
X122034799Y-134985145D01*
X127695626Y-129324319D01*
X127756949Y-129290834D01*
X127783307Y-129288000D01*
X130292692Y-129288000D01*
X130359731Y-129307685D01*
X130405486Y-129360489D01*
X130415430Y-129429647D01*
X130386405Y-129493203D01*
X130380373Y-129499681D01*
X121931580Y-137948473D01*
X121870257Y-137981958D01*
X121869680Y-137982082D01*
X121720197Y-138013855D01*
X121720192Y-138013857D01*
X121547270Y-138090848D01*
X121547265Y-138090851D01*
X121394129Y-138202111D01*
X121267466Y-138342785D01*
X121172821Y-138506715D01*
X121172818Y-138506722D01*
X121121505Y-138664649D01*
X121114326Y-138686744D01*
X121094540Y-138875000D01*
X121114326Y-139063256D01*
X121114327Y-139063259D01*
X121172818Y-139243277D01*
X121172821Y-139243284D01*
X121267467Y-139407216D01*
X121291942Y-139434398D01*
X121394129Y-139547888D01*
X121547265Y-139659148D01*
X121547270Y-139659151D01*
X121720192Y-139736142D01*
X121720197Y-139736144D01*
X121905354Y-139775500D01*
X121905355Y-139775500D01*
X122094644Y-139775500D01*
X122094646Y-139775500D01*
X122279803Y-139736144D01*
X122452730Y-139659151D01*
X122605871Y-139547888D01*
X122732533Y-139407216D01*
X122827179Y-139243284D01*
X122885674Y-139063256D01*
X122889620Y-139025713D01*
X127680000Y-139025713D01*
X127695418Y-139177338D01*
X127756299Y-139371381D01*
X127756304Y-139371391D01*
X127855005Y-139549215D01*
X127855005Y-139549216D01*
X127987478Y-139703530D01*
X127987479Y-139703531D01*
X128148304Y-139828018D01*
X128330907Y-139917589D01*
X128430000Y-139943244D01*
X128430000Y-139141110D01*
X128454457Y-139180610D01*
X128543962Y-139248201D01*
X128651840Y-139278895D01*
X128763521Y-139268546D01*
X128863922Y-139218552D01*
X128930000Y-139146069D01*
X128930000Y-139948365D01*
X128931944Y-139948069D01*
X128931945Y-139948069D01*
X129122660Y-139877436D01*
X129122664Y-139877434D01*
X129295267Y-139769850D01*
X129442668Y-139629735D01*
X129442669Y-139629733D01*
X129558856Y-139462804D01*
X129639059Y-139275907D01*
X129680000Y-139076690D01*
X129680000Y-139025713D01*
X136320000Y-139025713D01*
X136335418Y-139177338D01*
X136396299Y-139371381D01*
X136396304Y-139371391D01*
X136495005Y-139549215D01*
X136495005Y-139549216D01*
X136627478Y-139703530D01*
X136627479Y-139703531D01*
X136788304Y-139828018D01*
X136970907Y-139917589D01*
X137070000Y-139943244D01*
X137070000Y-139141110D01*
X137094457Y-139180610D01*
X137183962Y-139248201D01*
X137291840Y-139278895D01*
X137403521Y-139268546D01*
X137503922Y-139218552D01*
X137570000Y-139146069D01*
X137570000Y-139948366D01*
X137571944Y-139948069D01*
X137571945Y-139948069D01*
X137762660Y-139877436D01*
X137762664Y-139877434D01*
X137935267Y-139769850D01*
X138082668Y-139629735D01*
X138082669Y-139629733D01*
X138198856Y-139462804D01*
X138279059Y-139275907D01*
X138289338Y-139225889D01*
X173613109Y-139225889D01*
X173613152Y-139250000D01*
X173613193Y-139250099D01*
X173613310Y-139250383D01*
X173613311Y-139250384D01*
X173613501Y-139250462D01*
X173613693Y-139250541D01*
X173613695Y-139250539D01*
X173638309Y-139250524D01*
X173638309Y-139250528D01*
X173638453Y-139250500D01*
X183725240Y-139250500D01*
X183725383Y-139250528D01*
X183725384Y-139250524D01*
X183749997Y-139250539D01*
X183750000Y-139250541D01*
X183750383Y-139250383D01*
X183750500Y-139250099D01*
X183750541Y-139250000D01*
X183750540Y-139249997D01*
X183750583Y-139225889D01*
X183750500Y-139225467D01*
X183750500Y-136274759D01*
X183750528Y-136274616D01*
X183750524Y-136274616D01*
X183750539Y-136250002D01*
X183750541Y-136250000D01*
X183750462Y-136249808D01*
X183750384Y-136249618D01*
X183750380Y-136249614D01*
X183750194Y-136249538D01*
X183750002Y-136249459D01*
X183725446Y-136249459D01*
X183725240Y-136249500D01*
X173638453Y-136249500D01*
X173638247Y-136249459D01*
X173613691Y-136249459D01*
X173613500Y-136249538D01*
X173613312Y-136249615D01*
X173613308Y-136249618D01*
X173613152Y-136249999D01*
X173613169Y-136274616D01*
X173613164Y-136274616D01*
X173613193Y-136274759D01*
X173613193Y-139225467D01*
X173613109Y-139225889D01*
X138289338Y-139225889D01*
X138320000Y-139076690D01*
X138320000Y-138825000D01*
X137620000Y-138825000D01*
X137620000Y-138325000D01*
X138320000Y-138325000D01*
X138320000Y-138124286D01*
X138304581Y-137972661D01*
X138243700Y-137778618D01*
X138243695Y-137778608D01*
X138144994Y-137600784D01*
X138144994Y-137600783D01*
X138012521Y-137446469D01*
X138012520Y-137446468D01*
X137851695Y-137321981D01*
X137669093Y-137232411D01*
X137570000Y-137206753D01*
X137570000Y-138008889D01*
X137545543Y-137969390D01*
X137456038Y-137901799D01*
X137348160Y-137871105D01*
X137236479Y-137881454D01*
X137136078Y-137931448D01*
X137070000Y-138003930D01*
X137070000Y-137201633D01*
X137068053Y-137201931D01*
X137068047Y-137201933D01*
X136877342Y-137272562D01*
X136877335Y-137272565D01*
X136704732Y-137380149D01*
X136557331Y-137520264D01*
X136557330Y-137520266D01*
X136441143Y-137687195D01*
X136360940Y-137874092D01*
X136320000Y-138073309D01*
X136320000Y-138325000D01*
X137020000Y-138325000D01*
X137020000Y-138825000D01*
X136320000Y-138825000D01*
X136320000Y-139025713D01*
X129680000Y-139025713D01*
X129680000Y-138825000D01*
X128980000Y-138825000D01*
X128980000Y-138325000D01*
X129680000Y-138325000D01*
X129680000Y-138124286D01*
X129664581Y-137972661D01*
X129603700Y-137778618D01*
X129603695Y-137778608D01*
X129504994Y-137600784D01*
X129504994Y-137600783D01*
X129372521Y-137446469D01*
X129372520Y-137446468D01*
X129211695Y-137321981D01*
X129029093Y-137232411D01*
X128930000Y-137206753D01*
X128930000Y-138008889D01*
X128905543Y-137969390D01*
X128816038Y-137901799D01*
X128708160Y-137871105D01*
X128596479Y-137881454D01*
X128496078Y-137931448D01*
X128430000Y-138003930D01*
X128430000Y-137201633D01*
X128428053Y-137201931D01*
X128428047Y-137201933D01*
X128237342Y-137272562D01*
X128237335Y-137272565D01*
X128064732Y-137380149D01*
X127917331Y-137520264D01*
X127917330Y-137520266D01*
X127801143Y-137687195D01*
X127720940Y-137874092D01*
X127680000Y-138073309D01*
X127680000Y-138325000D01*
X128380000Y-138325000D01*
X128380000Y-138825000D01*
X127680000Y-138825000D01*
X127680000Y-139025713D01*
X122889620Y-139025713D01*
X122905460Y-138875000D01*
X122905460Y-138874997D01*
X122905460Y-138868500D01*
X122907824Y-138868500D01*
X122918441Y-138810360D01*
X122941523Y-138778421D01*
X127539793Y-134180151D01*
X127601114Y-134146668D01*
X127628638Y-134148636D01*
X127628638Y-134145000D01*
X128380000Y-134145000D01*
X128380000Y-134645000D01*
X127680000Y-134645000D01*
X127680000Y-134995713D01*
X127695418Y-135147338D01*
X127756299Y-135341381D01*
X127756304Y-135341391D01*
X127855005Y-135519215D01*
X127855005Y-135519216D01*
X127987478Y-135673530D01*
X127987479Y-135673531D01*
X128148304Y-135798018D01*
X128330907Y-135887589D01*
X128430000Y-135913244D01*
X128430000Y-135111110D01*
X128454457Y-135150610D01*
X128543962Y-135218201D01*
X128651840Y-135248895D01*
X128763521Y-135238546D01*
X128863922Y-135188552D01*
X128930000Y-135116069D01*
X128930000Y-135918366D01*
X128931944Y-135918069D01*
X128931945Y-135918069D01*
X129122660Y-135847436D01*
X129122664Y-135847434D01*
X129295267Y-135739850D01*
X129442668Y-135599735D01*
X129442669Y-135599733D01*
X129558855Y-135432805D01*
X129571921Y-135402358D01*
X129616447Y-135348513D01*
X129683015Y-135327289D01*
X129750491Y-135345423D01*
X129761359Y-135352880D01*
X129774909Y-135363277D01*
X129819767Y-135397698D01*
X129959764Y-135455687D01*
X130072280Y-135470500D01*
X130072287Y-135470500D01*
X130147713Y-135470500D01*
X130147720Y-135470500D01*
X130260236Y-135455687D01*
X130400233Y-135397698D01*
X130520451Y-135305451D01*
X130612698Y-135185233D01*
X130670687Y-135045236D01*
X130690466Y-134895000D01*
X130670687Y-134744764D01*
X130612698Y-134604767D01*
X130520451Y-134484549D01*
X130400233Y-134392302D01*
X130400229Y-134392300D01*
X130325661Y-134361413D01*
X130260236Y-134334313D01*
X130240039Y-134331654D01*
X130147727Y-134319500D01*
X130147720Y-134319500D01*
X130072280Y-134319500D01*
X130072272Y-134319500D01*
X129959764Y-134334313D01*
X129959760Y-134334314D01*
X129851452Y-134379176D01*
X129781982Y-134386645D01*
X129719503Y-134355369D01*
X129683852Y-134295280D01*
X129680000Y-134264615D01*
X129680000Y-133794286D01*
X129664581Y-133642661D01*
X129603700Y-133448618D01*
X129603695Y-133448608D01*
X129504994Y-133270784D01*
X129504994Y-133270783D01*
X129372521Y-133116469D01*
X129372520Y-133116468D01*
X129211695Y-132991981D01*
X129042860Y-132909164D01*
X128991341Y-132861967D01*
X128973516Y-132794410D01*
X128995046Y-132727940D01*
X129009778Y-132710166D01*
X132787013Y-128932931D01*
X132799579Y-128922865D01*
X132799425Y-128922678D01*
X132805433Y-128917705D01*
X132805440Y-128917702D01*
X132828727Y-128892902D01*
X132853365Y-128866667D01*
X132856078Y-128863867D01*
X132876411Y-128843535D01*
X132879106Y-128840060D01*
X132886699Y-128831169D01*
X132917948Y-128797893D01*
X132928174Y-128779290D01*
X132938853Y-128763033D01*
X132951862Y-128746264D01*
X132969991Y-128704366D01*
X132975120Y-128693895D01*
X132997127Y-128653868D01*
X133002405Y-128633306D01*
X133008707Y-128614899D01*
X133017135Y-128595427D01*
X133024277Y-128550325D01*
X133026640Y-128538918D01*
X133038000Y-128494677D01*
X133038000Y-128473449D01*
X133039527Y-128454049D01*
X133039541Y-128453961D01*
X133042846Y-128433095D01*
X133038550Y-128387647D01*
X133038000Y-128375978D01*
X133038000Y-124573001D01*
X133039767Y-124556999D01*
X133039525Y-124556977D01*
X133040259Y-124549207D01*
X133040260Y-124549203D01*
X133040259Y-124549198D01*
X133040419Y-124547514D01*
X133040966Y-124546143D01*
X133040988Y-124545946D01*
X133041963Y-124541585D01*
X133042718Y-124541753D01*
X133066321Y-124482623D01*
X133123195Y-124442038D01*
X133192982Y-124438643D01*
X133251550Y-124471496D01*
X135779564Y-126999510D01*
X135789635Y-127012080D01*
X135789822Y-127011926D01*
X135794795Y-127017937D01*
X135845832Y-127065864D01*
X135848629Y-127068575D01*
X135868967Y-127088913D01*
X135872450Y-127091615D01*
X135881326Y-127099196D01*
X135901435Y-127118079D01*
X135914607Y-127130448D01*
X135933202Y-127140670D01*
X135949460Y-127151350D01*
X135966236Y-127164363D01*
X136008147Y-127182499D01*
X136018619Y-127187629D01*
X136058632Y-127209627D01*
X136079191Y-127214905D01*
X136097598Y-127221207D01*
X136117074Y-127229636D01*
X136162178Y-127236779D01*
X136173597Y-127239144D01*
X136217823Y-127250500D01*
X136239045Y-127250500D01*
X136258442Y-127252026D01*
X136279405Y-127255347D01*
X136324860Y-127251050D01*
X136336530Y-127250500D01*
X144383124Y-127250500D01*
X144399134Y-127252267D01*
X144399157Y-127252026D01*
X144406918Y-127252758D01*
X144406925Y-127252760D01*
X144476891Y-127250560D01*
X144480786Y-127250500D01*
X144509554Y-127250500D01*
X144513916Y-127249948D01*
X144525568Y-127249030D01*
X144571198Y-127247597D01*
X144591585Y-127241673D01*
X144610625Y-127237731D01*
X144631687Y-127235071D01*
X144674149Y-127218258D01*
X144685186Y-127214480D01*
X144729027Y-127201744D01*
X144747294Y-127190939D01*
X144764765Y-127182380D01*
X144784500Y-127174568D01*
X144821445Y-127147725D01*
X144831187Y-127141326D01*
X144870494Y-127118081D01*
X144885499Y-127103075D01*
X144900298Y-127090436D01*
X144922674Y-127074180D01*
X144988481Y-127050702D01*
X144995556Y-127050500D01*
X179949063Y-127050500D01*
X180016102Y-127070185D01*
X180061857Y-127122989D01*
X180071801Y-127192147D01*
X180042776Y-127255703D01*
X180036744Y-127262181D01*
X175851903Y-131447022D01*
X175790580Y-131480507D01*
X175764222Y-131483341D01*
X158310237Y-131483341D01*
X158302442Y-131483096D01*
X158299217Y-131482892D01*
X158244755Y-131479462D01*
X158244754Y-131479462D01*
X158244752Y-131479462D01*
X158187908Y-131490300D01*
X158180228Y-131491516D01*
X158122809Y-131498770D01*
X158114497Y-131502061D01*
X158092092Y-131508569D01*
X158083312Y-131510243D01*
X158083309Y-131510244D01*
X158030940Y-131534881D01*
X158023804Y-131537968D01*
X157970009Y-131559267D01*
X157963166Y-131563030D01*
X157961769Y-131560490D01*
X157908818Y-131579362D01*
X157840770Y-131563513D01*
X157835344Y-131560261D01*
X157806523Y-131541972D01*
X157800084Y-131537596D01*
X157786672Y-131527853D01*
X157786659Y-131527845D01*
X157772148Y-131519868D01*
X157765446Y-131515905D01*
X157734124Y-131496029D01*
X157716608Y-131484915D01*
X157716607Y-131484914D01*
X157716606Y-131484914D01*
X157708064Y-131482139D01*
X157686654Y-131472875D01*
X157678783Y-131468549D01*
X157630893Y-131456256D01*
X157608458Y-131447108D01*
X157608344Y-131447381D01*
X157601147Y-131444359D01*
X157537797Y-131426705D01*
X157532776Y-131425191D01*
X157509428Y-131417606D01*
X157500943Y-131415988D01*
X157490894Y-131413634D01*
X157442829Y-131400240D01*
X157425862Y-131399892D01*
X157405180Y-131397724D01*
X157388515Y-131394546D01*
X157388507Y-131394545D01*
X157366793Y-131395912D01*
X157361424Y-131396133D01*
X157320790Y-131396925D01*
X157295142Y-131394753D01*
X157293826Y-131394502D01*
X157293824Y-131394502D01*
X157293821Y-131394502D01*
X157281696Y-131395264D01*
X157228515Y-131398607D01*
X157223157Y-131398827D01*
X157199044Y-131399297D01*
X157199030Y-131399299D01*
X157190111Y-131400602D01*
X157179972Y-131401659D01*
X157129790Y-131404815D01*
X157129788Y-131404815D01*
X157114007Y-131409942D01*
X157093638Y-131414703D01*
X157077237Y-131417100D01*
X157077233Y-131417102D01*
X157077230Y-131417102D01*
X157077230Y-131417103D01*
X157061270Y-131423784D01*
X157037563Y-131433708D01*
X157005229Y-131442347D01*
X156999495Y-131443071D01*
X156945707Y-131464363D01*
X156938394Y-131466996D01*
X156922611Y-131472125D01*
X156922594Y-131472131D01*
X156907590Y-131479190D01*
X156900451Y-131482279D01*
X156846681Y-131503565D01*
X156839408Y-131508848D01*
X156819345Y-131520712D01*
X156811214Y-131524538D01*
X156811213Y-131524539D01*
X156779841Y-131550490D01*
X156715637Y-131578052D01*
X156646725Y-131566527D01*
X156634367Y-131559641D01*
X156606523Y-131541972D01*
X156600084Y-131537596D01*
X156586672Y-131527853D01*
X156586659Y-131527845D01*
X156572148Y-131519868D01*
X156565446Y-131515905D01*
X156534124Y-131496029D01*
X156516608Y-131484915D01*
X156516607Y-131484914D01*
X156516606Y-131484914D01*
X156508064Y-131482139D01*
X156486654Y-131472875D01*
X156478783Y-131468549D01*
X156430893Y-131456256D01*
X156408458Y-131447108D01*
X156408344Y-131447381D01*
X156401147Y-131444359D01*
X156337797Y-131426705D01*
X156332776Y-131425191D01*
X156309428Y-131417606D01*
X156300943Y-131415988D01*
X156290894Y-131413634D01*
X156242829Y-131400240D01*
X156225862Y-131399892D01*
X156205180Y-131397724D01*
X156188515Y-131394546D01*
X156188507Y-131394545D01*
X156166793Y-131395912D01*
X156161424Y-131396133D01*
X156120790Y-131396925D01*
X156095142Y-131394753D01*
X156093826Y-131394502D01*
X156093824Y-131394502D01*
X156093821Y-131394502D01*
X156081696Y-131395264D01*
X156028515Y-131398607D01*
X156023157Y-131398827D01*
X155999044Y-131399297D01*
X155999030Y-131399299D01*
X155990111Y-131400602D01*
X155979972Y-131401659D01*
X155929790Y-131404815D01*
X155929788Y-131404815D01*
X155914007Y-131409942D01*
X155893638Y-131414703D01*
X155877237Y-131417100D01*
X155877233Y-131417102D01*
X155877230Y-131417102D01*
X155877230Y-131417103D01*
X155861270Y-131423784D01*
X155837563Y-131433708D01*
X155805229Y-131442347D01*
X155799495Y-131443071D01*
X155745707Y-131464363D01*
X155738394Y-131466996D01*
X155722611Y-131472125D01*
X155722594Y-131472131D01*
X155707590Y-131479190D01*
X155700451Y-131482279D01*
X155646681Y-131503565D01*
X155639408Y-131508848D01*
X155619345Y-131520712D01*
X155611214Y-131524538D01*
X155611213Y-131524539D01*
X155579841Y-131550490D01*
X155515637Y-131578052D01*
X155446725Y-131566527D01*
X155434367Y-131559641D01*
X155406523Y-131541972D01*
X155400084Y-131537596D01*
X155386672Y-131527853D01*
X155386659Y-131527845D01*
X155372148Y-131519868D01*
X155365446Y-131515905D01*
X155334124Y-131496029D01*
X155316608Y-131484915D01*
X155316607Y-131484914D01*
X155316606Y-131484914D01*
X155308064Y-131482139D01*
X155286654Y-131472875D01*
X155278783Y-131468549D01*
X155230893Y-131456256D01*
X155208458Y-131447108D01*
X155208344Y-131447381D01*
X155201147Y-131444359D01*
X155137797Y-131426705D01*
X155132776Y-131425191D01*
X155109428Y-131417606D01*
X155100943Y-131415988D01*
X155090894Y-131413634D01*
X155042829Y-131400240D01*
X155025862Y-131399892D01*
X155005180Y-131397724D01*
X154988515Y-131394546D01*
X154988507Y-131394545D01*
X154966793Y-131395912D01*
X154961424Y-131396133D01*
X154920790Y-131396925D01*
X154895142Y-131394753D01*
X154893826Y-131394502D01*
X154893824Y-131394502D01*
X154893821Y-131394502D01*
X154881696Y-131395264D01*
X154828515Y-131398607D01*
X154823157Y-131398827D01*
X154799044Y-131399297D01*
X154799030Y-131399299D01*
X154790111Y-131400602D01*
X154779972Y-131401659D01*
X154729790Y-131404815D01*
X154729788Y-131404815D01*
X154714007Y-131409942D01*
X154693638Y-131414703D01*
X154677237Y-131417100D01*
X154677233Y-131417102D01*
X154677230Y-131417102D01*
X154677230Y-131417103D01*
X154661270Y-131423784D01*
X154637563Y-131433708D01*
X154605229Y-131442347D01*
X154599495Y-131443071D01*
X154545707Y-131464363D01*
X154538394Y-131466996D01*
X154522611Y-131472125D01*
X154522594Y-131472131D01*
X154507590Y-131479190D01*
X154500451Y-131482279D01*
X154446681Y-131503565D01*
X154439408Y-131508848D01*
X154419345Y-131520712D01*
X154411214Y-131524538D01*
X154411213Y-131524539D01*
X154379840Y-131550490D01*
X154315635Y-131578051D01*
X154246723Y-131566525D01*
X154234368Y-131559641D01*
X154206525Y-131541973D01*
X154200086Y-131537597D01*
X154186675Y-131527855D01*
X154186672Y-131527853D01*
X154186668Y-131527850D01*
X154186665Y-131527848D01*
X154186660Y-131527845D01*
X154172138Y-131519863D01*
X154165431Y-131515897D01*
X154164920Y-131515573D01*
X154116604Y-131484913D01*
X154115558Y-131484573D01*
X154108058Y-131482136D01*
X154086653Y-131472874D01*
X154078789Y-131468551D01*
X154048907Y-131460880D01*
X154030916Y-131456262D01*
X154008513Y-131447125D01*
X154008397Y-131447403D01*
X154001199Y-131444380D01*
X153937792Y-131426704D01*
X153932782Y-131425193D01*
X153909429Y-131417607D01*
X153900978Y-131415995D01*
X153890916Y-131413637D01*
X153842885Y-131400248D01*
X153825881Y-131399898D01*
X153805211Y-131397730D01*
X153788510Y-131394545D01*
X153788502Y-131394545D01*
X153766858Y-131395907D01*
X153761487Y-131396128D01*
X153720791Y-131396921D01*
X153695138Y-131394748D01*
X153693827Y-131394498D01*
X153693823Y-131394498D01*
X153678564Y-131395457D01*
X153628518Y-131398603D01*
X153623160Y-131398823D01*
X153599047Y-131399293D01*
X153599037Y-131399294D01*
X153592456Y-131400256D01*
X153590113Y-131400598D01*
X153579975Y-131401655D01*
X153529798Y-131404810D01*
X153529792Y-131404812D01*
X153514007Y-131409939D01*
X153493648Y-131414698D01*
X153477229Y-131417099D01*
X153437567Y-131433702D01*
X153405234Y-131442340D01*
X153399506Y-131443063D01*
X153399501Y-131443065D01*
X153345706Y-131464359D01*
X153338389Y-131466993D01*
X153322613Y-131472119D01*
X153322602Y-131472123D01*
X153307605Y-131479179D01*
X153300461Y-131482270D01*
X153246689Y-131503556D01*
X153246679Y-131503561D01*
X153239416Y-131508838D01*
X153219340Y-131520710D01*
X153211217Y-131524532D01*
X153211216Y-131524532D01*
X153180152Y-131550228D01*
X153115948Y-131577789D01*
X153047035Y-131566263D01*
X153034674Y-131559375D01*
X153006748Y-131541652D01*
X153000298Y-131537268D01*
X152997013Y-131534881D01*
X152986907Y-131527537D01*
X152986906Y-131527536D01*
X152972348Y-131519531D01*
X152965657Y-131515573D01*
X152916811Y-131484573D01*
X152916806Y-131484571D01*
X152916803Y-131484570D01*
X152908290Y-131481803D01*
X152886881Y-131472537D01*
X152879037Y-131468224D01*
X152828482Y-131455239D01*
X152798295Y-131443075D01*
X152796140Y-131441856D01*
X152796134Y-131441854D01*
X152735770Y-131425574D01*
X152729743Y-131423784D01*
X152709533Y-131417217D01*
X152697826Y-131414984D01*
X152688781Y-131412904D01*
X152637452Y-131399062D01*
X152637447Y-131399061D01*
X152623775Y-131398896D01*
X152602039Y-131396708D01*
X152588615Y-131394147D01*
X152588613Y-131394147D01*
X152588612Y-131394147D01*
X152585097Y-131394367D01*
X152549773Y-131396588D01*
X152543618Y-131396821D01*
X152522377Y-131397099D01*
X152497535Y-131394917D01*
X152493736Y-131394192D01*
X152493726Y-131394192D01*
X152430941Y-131398144D01*
X152424779Y-131398378D01*
X152403156Y-131398661D01*
X152403129Y-131398663D01*
X152391718Y-131400256D01*
X152382376Y-131401201D01*
X152329704Y-131404517D01*
X152316321Y-131408866D01*
X152295163Y-131413741D01*
X152281229Y-131415687D01*
X152237568Y-131433638D01*
X152205974Y-131441972D01*
X152199306Y-131442815D01*
X152199298Y-131442817D01*
X152145539Y-131464105D01*
X152138218Y-131466741D01*
X152122448Y-131471866D01*
X152122438Y-131471870D01*
X152107424Y-131478935D01*
X152100293Y-131482021D01*
X152046494Y-131503327D01*
X152039241Y-131508597D01*
X152019170Y-131520468D01*
X152011062Y-131524284D01*
X152011058Y-131524286D01*
X152011055Y-131524288D01*
X152011050Y-131524291D01*
X152011050Y-131524292D01*
X151979903Y-131550060D01*
X151915701Y-131577626D01*
X151846788Y-131566106D01*
X151834418Y-131559213D01*
X151820673Y-131550490D01*
X151806748Y-131541652D01*
X151800307Y-131537274D01*
X151786912Y-131527540D01*
X151786901Y-131527533D01*
X151786898Y-131527531D01*
X151782743Y-131525246D01*
X151772351Y-131519532D01*
X151765658Y-131515573D01*
X151716808Y-131484571D01*
X151716804Y-131484569D01*
X151708288Y-131481802D01*
X151686869Y-131472531D01*
X151679033Y-131468222D01*
X151679027Y-131468220D01*
X151679026Y-131468219D01*
X151679025Y-131468219D01*
X151628544Y-131455253D01*
X151598328Y-131443074D01*
X151596267Y-131441908D01*
X151596266Y-131441907D01*
X151535834Y-131425596D01*
X151529828Y-131423811D01*
X151509530Y-131417215D01*
X151497902Y-131414997D01*
X151488834Y-131412910D01*
X151477823Y-131409939D01*
X151437588Y-131399079D01*
X151423822Y-131398910D01*
X151402116Y-131396723D01*
X151397865Y-131395912D01*
X151388608Y-131394146D01*
X151388607Y-131394146D01*
X151349970Y-131396575D01*
X151343811Y-131396808D01*
X151322380Y-131397088D01*
X151297541Y-131394906D01*
X151293747Y-131394182D01*
X151293736Y-131394182D01*
X151230950Y-131398133D01*
X151224789Y-131398367D01*
X151203157Y-131398650D01*
X151203129Y-131398652D01*
X151191726Y-131400244D01*
X151182382Y-131401189D01*
X151129715Y-131404504D01*
X151129707Y-131404506D01*
X151116319Y-131408856D01*
X151095157Y-131413732D01*
X151081227Y-131415677D01*
X151081219Y-131415679D01*
X151037577Y-131433623D01*
X151005984Y-131441958D01*
X150999303Y-131442802D01*
X150999296Y-131442804D01*
X150945543Y-131464090D01*
X150938221Y-131466726D01*
X150937403Y-131466993D01*
X150922443Y-131471854D01*
X150922439Y-131471856D01*
X150907418Y-131478925D01*
X150900277Y-131482016D01*
X150846492Y-131503315D01*
X150846491Y-131503315D01*
X150839240Y-131508584D01*
X150819168Y-131520455D01*
X150811064Y-131524269D01*
X150811059Y-131524272D01*
X150768047Y-131559855D01*
X150741820Y-131576502D01*
X150734310Y-131580036D01*
X150734306Y-131580039D01*
X150689740Y-131616912D01*
X150683595Y-131621679D01*
X150670195Y-131631417D01*
X150670192Y-131631419D01*
X150658098Y-131642777D01*
X150652265Y-131647919D01*
X150607688Y-131684803D01*
X150607676Y-131684815D01*
X150602411Y-131692064D01*
X150586989Y-131709560D01*
X150580458Y-131715694D01*
X150580457Y-131715695D01*
X150550550Y-131762824D01*
X150530755Y-131786757D01*
X150524706Y-131792438D01*
X150524700Y-131792446D01*
X150493719Y-131841274D01*
X150489349Y-131847706D01*
X150479600Y-131861129D01*
X150479597Y-131861133D01*
X150471607Y-131875669D01*
X150467648Y-131882365D01*
X150436651Y-131931220D01*
X150436650Y-131931221D01*
X150433880Y-131939750D01*
X150424619Y-131961157D01*
X150420303Y-131969009D01*
X150420301Y-131969014D01*
X150407470Y-132019001D01*
X150395204Y-132049380D01*
X150394409Y-132050779D01*
X150377845Y-132111788D01*
X150376114Y-132117597D01*
X150369326Y-132138497D01*
X150369325Y-132138501D01*
X150367225Y-132149512D01*
X150365091Y-132158761D01*
X150351346Y-132209394D01*
X150351345Y-132209401D01*
X150351169Y-132222208D01*
X150330563Y-132288970D01*
X150277134Y-132333993D01*
X150227181Y-132344500D01*
X135329491Y-132344500D01*
X135313480Y-132342732D01*
X135313458Y-132342974D01*
X135305691Y-132342240D01*
X135305690Y-132342240D01*
X135267287Y-132343447D01*
X135235724Y-132344439D01*
X135231829Y-132344500D01*
X135203062Y-132344500D01*
X135203059Y-132344500D01*
X135203044Y-132344501D01*
X135198674Y-132345053D01*
X135187046Y-132345968D01*
X135141422Y-132347402D01*
X135141412Y-132347404D01*
X135121036Y-132353323D01*
X135101995Y-132357266D01*
X135080940Y-132359926D01*
X135080924Y-132359930D01*
X135038478Y-132376735D01*
X135027432Y-132380517D01*
X134983589Y-132393255D01*
X134965319Y-132404060D01*
X134947850Y-132412618D01*
X134928115Y-132420432D01*
X134928113Y-132420433D01*
X134891188Y-132447260D01*
X134881429Y-132453671D01*
X134842119Y-132476920D01*
X134827113Y-132491926D01*
X134812323Y-132504558D01*
X134795154Y-132517032D01*
X134795152Y-132517034D01*
X134766043Y-132552219D01*
X134758183Y-132560856D01*
X133260860Y-134058181D01*
X133199537Y-134091666D01*
X133173179Y-134094500D01*
X133149341Y-134094500D01*
X133144839Y-134095457D01*
X132964184Y-134133855D01*
X132964179Y-134133857D01*
X132791257Y-134210848D01*
X132791252Y-134210851D01*
X132638116Y-134322111D01*
X132511453Y-134462785D01*
X132416808Y-134626715D01*
X132416805Y-134626722D01*
X132378451Y-134744765D01*
X132358313Y-134806744D01*
X132338527Y-134995000D01*
X132358313Y-135183256D01*
X132358314Y-135183259D01*
X132416805Y-135363277D01*
X132416808Y-135363284D01*
X132511454Y-135527216D01*
X132576749Y-135599733D01*
X132638116Y-135667888D01*
X132791252Y-135779148D01*
X132791257Y-135779151D01*
X132964179Y-135856142D01*
X132964184Y-135856144D01*
X133149341Y-135895500D01*
X133149342Y-135895500D01*
X133338631Y-135895500D01*
X133338633Y-135895500D01*
X133523790Y-135856144D01*
X133696717Y-135779151D01*
X133849858Y-135667888D01*
X133976520Y-135527216D01*
X134071166Y-135363284D01*
X134129661Y-135183256D01*
X134143155Y-135054855D01*
X134169739Y-134990242D01*
X134178786Y-134980145D01*
X135477114Y-133681819D01*
X135538437Y-133648334D01*
X135564795Y-133645500D01*
X136196000Y-133645500D01*
X136263039Y-133665185D01*
X136308794Y-133717989D01*
X136320000Y-133769500D01*
X136320000Y-134264615D01*
X136300315Y-134331654D01*
X136247511Y-134377409D01*
X136178353Y-134387353D01*
X136148548Y-134379176D01*
X136040239Y-134334314D01*
X136040237Y-134334313D01*
X136040236Y-134334313D01*
X136020039Y-134331654D01*
X135927727Y-134319500D01*
X135927720Y-134319500D01*
X135852280Y-134319500D01*
X135852272Y-134319500D01*
X135739764Y-134334313D01*
X135739763Y-134334313D01*
X135599770Y-134392300D01*
X135599767Y-134392301D01*
X135599767Y-134392302D01*
X135479549Y-134484549D01*
X135394418Y-134595494D01*
X135387300Y-134604770D01*
X135329313Y-134744763D01*
X135329312Y-134744765D01*
X135309534Y-134894999D01*
X135309534Y-134895000D01*
X135329312Y-135045234D01*
X135329313Y-135045236D01*
X135372960Y-135150610D01*
X135387302Y-135185233D01*
X135479549Y-135305451D01*
X135599767Y-135397698D01*
X135739764Y-135455687D01*
X135852280Y-135470500D01*
X135852287Y-135470500D01*
X135927713Y-135470500D01*
X135927720Y-135470500D01*
X136040236Y-135455687D01*
X136180233Y-135397698D01*
X136239578Y-135352160D01*
X136304746Y-135326966D01*
X136373191Y-135341004D01*
X136423181Y-135389817D01*
X136423483Y-135390358D01*
X136495005Y-135519215D01*
X136495005Y-135519216D01*
X136627478Y-135673530D01*
X136627479Y-135673531D01*
X136788304Y-135798018D01*
X136970907Y-135887589D01*
X137070000Y-135913244D01*
X137070000Y-135111110D01*
X137094457Y-135150610D01*
X137183962Y-135218201D01*
X137291840Y-135248895D01*
X137403521Y-135238546D01*
X137503922Y-135188552D01*
X137570000Y-135116069D01*
X137570000Y-135918365D01*
X137571944Y-135918069D01*
X137571945Y-135918069D01*
X137762660Y-135847436D01*
X137762664Y-135847434D01*
X137935267Y-135739850D01*
X138082668Y-135599735D01*
X138082669Y-135599733D01*
X138198856Y-135432804D01*
X138279059Y-135245907D01*
X138320000Y-135046690D01*
X138320000Y-134645000D01*
X137620000Y-134645000D01*
X137620000Y-134145000D01*
X138320000Y-134145000D01*
X138320000Y-133794288D01*
X138318755Y-133782046D01*
X138331556Y-133713359D01*
X138379460Y-133662496D01*
X138442119Y-133645500D01*
X150610060Y-133645500D01*
X150623204Y-133646199D01*
X150630525Y-133646979D01*
X150679229Y-133646028D01*
X150704882Y-133648201D01*
X150706196Y-133648452D01*
X150771494Y-133644343D01*
X150776812Y-133644124D01*
X150800973Y-133643654D01*
X150809915Y-133642346D01*
X150820052Y-133641289D01*
X150821462Y-133641200D01*
X150889601Y-133656649D01*
X150938571Y-133706485D01*
X150951934Y-133747124D01*
X150952607Y-133751755D01*
X150953650Y-133761783D01*
X150956840Y-133812364D01*
X150961841Y-133827749D01*
X150966626Y-133848254D01*
X150968951Y-133864260D01*
X150968952Y-133864261D01*
X150985775Y-133904548D01*
X150994370Y-133936766D01*
X150995113Y-133942639D01*
X150995116Y-133942653D01*
X151016415Y-133996432D01*
X151019050Y-134003746D01*
X151024185Y-134019540D01*
X151028532Y-134028774D01*
X151031245Y-134034539D01*
X151034337Y-134041684D01*
X151055631Y-134095448D01*
X151055635Y-134095457D01*
X151060911Y-134102717D01*
X151072791Y-134122800D01*
X151075610Y-134128789D01*
X151076614Y-134130921D01*
X151091273Y-134148636D01*
X151112120Y-134173830D01*
X151128779Y-134200075D01*
X151132285Y-134207524D01*
X151132286Y-134207525D01*
X151132289Y-134207531D01*
X151169192Y-134252133D01*
X151173945Y-134258261D01*
X151183699Y-134271683D01*
X151191734Y-134280238D01*
X151195038Y-134283755D01*
X151200192Y-134289601D01*
X151237056Y-134334156D01*
X151237058Y-134334158D01*
X151237061Y-134334161D01*
X151244331Y-134339442D01*
X151261826Y-134354863D01*
X151267978Y-134361413D01*
X151315002Y-134391249D01*
X151338958Y-134411064D01*
X151344600Y-134417072D01*
X151344602Y-134417073D01*
X151344603Y-134417074D01*
X151393447Y-134448069D01*
X151399883Y-134452442D01*
X151413311Y-134462197D01*
X151427840Y-134470183D01*
X151434513Y-134474128D01*
X151483372Y-134505132D01*
X151491903Y-134507903D01*
X151513330Y-134517174D01*
X151514527Y-134517832D01*
X151521191Y-134521495D01*
X151569388Y-134533866D01*
X151592147Y-134543133D01*
X151592235Y-134542924D01*
X151599428Y-134545935D01*
X151599430Y-134545936D01*
X151636696Y-134556282D01*
X151662457Y-134563434D01*
X151667599Y-134564982D01*
X151690559Y-134572442D01*
X151699412Y-134574130D01*
X151709355Y-134576454D01*
X151757795Y-134589903D01*
X151774380Y-134590225D01*
X151795188Y-134592396D01*
X151811483Y-134595505D01*
X151832417Y-134594186D01*
X151837649Y-134593968D01*
X151879480Y-134593108D01*
X151905264Y-134595279D01*
X151906168Y-134595452D01*
X151971863Y-134591320D01*
X151977094Y-134591103D01*
X152001641Y-134590599D01*
X152010161Y-134589343D01*
X152020424Y-134588267D01*
X152070199Y-134585138D01*
X152086366Y-134579885D01*
X152106615Y-134575140D01*
X152123431Y-134572665D01*
X152123434Y-134572663D01*
X152123437Y-134572663D01*
X152162441Y-134556285D01*
X152194925Y-134547590D01*
X152198339Y-134547158D01*
X152200477Y-134546889D01*
X152200480Y-134546888D01*
X152254266Y-134525596D01*
X152261584Y-134522961D01*
X152277370Y-134517833D01*
X152292373Y-134510773D01*
X152299508Y-134507685D01*
X152353293Y-134486395D01*
X152360556Y-134481118D01*
X152380632Y-134469246D01*
X152388760Y-134465423D01*
X152420074Y-134439518D01*
X152484274Y-134411956D01*
X152553188Y-134423478D01*
X152565549Y-134430366D01*
X152593447Y-134448069D01*
X152599883Y-134452442D01*
X152613311Y-134462197D01*
X152627840Y-134470183D01*
X152634513Y-134474128D01*
X152683372Y-134505132D01*
X152691903Y-134507903D01*
X152713330Y-134517174D01*
X152714527Y-134517832D01*
X152721191Y-134521495D01*
X152769388Y-134533866D01*
X152792147Y-134543133D01*
X152792235Y-134542924D01*
X152799428Y-134545935D01*
X152799430Y-134545936D01*
X152836696Y-134556282D01*
X152862457Y-134563434D01*
X152867599Y-134564982D01*
X152890559Y-134572442D01*
X152899412Y-134574130D01*
X152909355Y-134576454D01*
X152957795Y-134589903D01*
X152974380Y-134590225D01*
X152995188Y-134592396D01*
X153011483Y-134595505D01*
X153032417Y-134594186D01*
X153037649Y-134593968D01*
X153079480Y-134593108D01*
X153105264Y-134595279D01*
X153106168Y-134595452D01*
X153171863Y-134591320D01*
X153177094Y-134591103D01*
X153201641Y-134590599D01*
X153210161Y-134589343D01*
X153220424Y-134588267D01*
X153270199Y-134585138D01*
X153286366Y-134579885D01*
X153306615Y-134575140D01*
X153323431Y-134572665D01*
X153323434Y-134572663D01*
X153323437Y-134572663D01*
X153362441Y-134556285D01*
X153394925Y-134547590D01*
X153398339Y-134547158D01*
X153400477Y-134546889D01*
X153400480Y-134546888D01*
X153454266Y-134525596D01*
X153461584Y-134522961D01*
X153477370Y-134517833D01*
X153492373Y-134510773D01*
X153499508Y-134507685D01*
X153553293Y-134486395D01*
X153560556Y-134481118D01*
X153580632Y-134469246D01*
X153588760Y-134465423D01*
X153620075Y-134439517D01*
X153684276Y-134411954D01*
X153753189Y-134423475D01*
X153765544Y-134430359D01*
X153793453Y-134448069D01*
X153799878Y-134452435D01*
X153808597Y-134458769D01*
X153813296Y-134462184D01*
X153813312Y-134462195D01*
X153827862Y-134470192D01*
X153834513Y-134474125D01*
X153883372Y-134505129D01*
X153891910Y-134507903D01*
X153913321Y-134517167D01*
X153921177Y-134521485D01*
X153921192Y-134521493D01*
X153969391Y-134533865D01*
X153992146Y-134543132D01*
X153992235Y-134542922D01*
X153999423Y-134545931D01*
X153999426Y-134545931D01*
X153999430Y-134545934D01*
X154062490Y-134563440D01*
X154067558Y-134564967D01*
X154090557Y-134572440D01*
X154099417Y-134574129D01*
X154109347Y-134576450D01*
X154157795Y-134589901D01*
X154174378Y-134590223D01*
X154195185Y-134592394D01*
X154211481Y-134595503D01*
X154232498Y-134594179D01*
X154237731Y-134593961D01*
X154279479Y-134593105D01*
X154305255Y-134595276D01*
X154306175Y-134595452D01*
X154371834Y-134591322D01*
X154377039Y-134591104D01*
X154401613Y-134590602D01*
X154408093Y-134589647D01*
X154410142Y-134589346D01*
X154420421Y-134588266D01*
X154470205Y-134585137D01*
X154486358Y-134579888D01*
X154506613Y-134575144D01*
X154523401Y-134572673D01*
X154523402Y-134572672D01*
X154523405Y-134572672D01*
X154562445Y-134556281D01*
X154594920Y-134547590D01*
X154596911Y-134547338D01*
X154600473Y-134546889D01*
X154654272Y-134525592D01*
X154661585Y-134522959D01*
X154677376Y-134517830D01*
X154692362Y-134510778D01*
X154699509Y-134507684D01*
X154753290Y-134486396D01*
X154760558Y-134481115D01*
X154780637Y-134469241D01*
X154788765Y-134465418D01*
X154820075Y-134439516D01*
X154884275Y-134411953D01*
X154953189Y-134423474D01*
X154965547Y-134430360D01*
X154965557Y-134430366D01*
X154993454Y-134448069D01*
X154999879Y-134452434D01*
X155013307Y-134462189D01*
X155027837Y-134470176D01*
X155034532Y-134474134D01*
X155034685Y-134474232D01*
X155083357Y-134505118D01*
X155083372Y-134505127D01*
X155091906Y-134507899D01*
X155113322Y-134517166D01*
X155121187Y-134521489D01*
X155169387Y-134533861D01*
X155192147Y-134543129D01*
X155192235Y-134542920D01*
X155199423Y-134545929D01*
X155199426Y-134545929D01*
X155199430Y-134545932D01*
X155262490Y-134563438D01*
X155267558Y-134564965D01*
X155290557Y-134572438D01*
X155299417Y-134574127D01*
X155309347Y-134576448D01*
X155357795Y-134589899D01*
X155374378Y-134590221D01*
X155395185Y-134592392D01*
X155411481Y-134595501D01*
X155432577Y-134594172D01*
X155437817Y-134593954D01*
X155479460Y-134593102D01*
X155505240Y-134595274D01*
X155506173Y-134595452D01*
X155571827Y-134591322D01*
X155577028Y-134591105D01*
X155601586Y-134590604D01*
X155610141Y-134589344D01*
X155620398Y-134588268D01*
X155670203Y-134585137D01*
X155686333Y-134579896D01*
X155706595Y-134575149D01*
X155723378Y-134572680D01*
X155762445Y-134556279D01*
X155794907Y-134547591D01*
X155800474Y-134546889D01*
X155854293Y-134525583D01*
X155861559Y-134522968D01*
X155877375Y-134517831D01*
X155892378Y-134510771D01*
X155899513Y-134507683D01*
X155953291Y-134486396D01*
X155960555Y-134481118D01*
X155980641Y-134469241D01*
X155988764Y-134465420D01*
X156020076Y-134439516D01*
X156084274Y-134411953D01*
X156153188Y-134423473D01*
X156165542Y-134430357D01*
X156193143Y-134447871D01*
X156193456Y-134448070D01*
X156199879Y-134452434D01*
X156213307Y-134462189D01*
X156227837Y-134470176D01*
X156234532Y-134474134D01*
X156234685Y-134474232D01*
X156283357Y-134505118D01*
X156283372Y-134505127D01*
X156291906Y-134507899D01*
X156313322Y-134517166D01*
X156321187Y-134521489D01*
X156369387Y-134533861D01*
X156392147Y-134543129D01*
X156392235Y-134542920D01*
X156399423Y-134545929D01*
X156399426Y-134545929D01*
X156399430Y-134545932D01*
X156462490Y-134563438D01*
X156467558Y-134564965D01*
X156490557Y-134572438D01*
X156499417Y-134574127D01*
X156509347Y-134576448D01*
X156557795Y-134589899D01*
X156574378Y-134590221D01*
X156595185Y-134592392D01*
X156611481Y-134595501D01*
X156632577Y-134594172D01*
X156637817Y-134593954D01*
X156679460Y-134593102D01*
X156705240Y-134595274D01*
X156706173Y-134595452D01*
X156771827Y-134591322D01*
X156777028Y-134591105D01*
X156801586Y-134590604D01*
X156810141Y-134589344D01*
X156820398Y-134588268D01*
X156870203Y-134585137D01*
X156886333Y-134579896D01*
X156906595Y-134575149D01*
X156923378Y-134572680D01*
X156962445Y-134556279D01*
X156994907Y-134547591D01*
X157000474Y-134546889D01*
X157054293Y-134525583D01*
X157061559Y-134522968D01*
X157077375Y-134517831D01*
X157092378Y-134510771D01*
X157099513Y-134507683D01*
X157153291Y-134486396D01*
X157160555Y-134481118D01*
X157180641Y-134469241D01*
X157188764Y-134465420D01*
X157220080Y-134439513D01*
X157284279Y-134411949D01*
X157353193Y-134423469D01*
X157365555Y-134430357D01*
X157390780Y-134446365D01*
X157393440Y-134448053D01*
X157399870Y-134452422D01*
X157413309Y-134462184D01*
X157427820Y-134470160D01*
X157434531Y-134474128D01*
X157453859Y-134486393D01*
X157483367Y-134505118D01*
X157491896Y-134507889D01*
X157513319Y-134517158D01*
X157514541Y-134517830D01*
X157521189Y-134521484D01*
X157521190Y-134521484D01*
X157521192Y-134521485D01*
X157531602Y-134524157D01*
X157569387Y-134533856D01*
X157592146Y-134543123D01*
X157592234Y-134542914D01*
X157599428Y-134545925D01*
X157599431Y-134545927D01*
X157636730Y-134556282D01*
X157662441Y-134563420D01*
X157667592Y-134564971D01*
X157690543Y-134572429D01*
X157690547Y-134572429D01*
X157690551Y-134572431D01*
X157699423Y-134574123D01*
X157709353Y-134576445D01*
X157721748Y-134579886D01*
X157757795Y-134589894D01*
X157774377Y-134590216D01*
X157795196Y-134592389D01*
X157811475Y-134595495D01*
X157832762Y-134594154D01*
X157838013Y-134593936D01*
X157879434Y-134593093D01*
X157905204Y-134595266D01*
X157906180Y-134595453D01*
X157971803Y-134591324D01*
X157977027Y-134591107D01*
X158001518Y-134590610D01*
X158010132Y-134589342D01*
X158020352Y-134588271D01*
X158070211Y-134585136D01*
X158086298Y-134579908D01*
X158106580Y-134575159D01*
X158123306Y-134572700D01*
X158123306Y-134572699D01*
X158123312Y-134572699D01*
X158162442Y-134556276D01*
X158194894Y-134547592D01*
X158200480Y-134546887D01*
X158254313Y-134525575D01*
X158261575Y-134522961D01*
X158277383Y-134517827D01*
X158292384Y-134510767D01*
X158299520Y-134507680D01*
X158305962Y-134505130D01*
X158353297Y-134486393D01*
X158360558Y-134481117D01*
X158380646Y-134469238D01*
X158388772Y-134465415D01*
X158431670Y-134429926D01*
X158457927Y-134413265D01*
X158465378Y-134409761D01*
X158509955Y-134372888D01*
X158516112Y-134368114D01*
X158517102Y-134367394D01*
X158529533Y-134358365D01*
X158541630Y-134347005D01*
X158547452Y-134341873D01*
X158592024Y-134305008D01*
X158597301Y-134297744D01*
X158612739Y-134280238D01*
X158619277Y-134274100D01*
X158649118Y-134227083D01*
X158668937Y-134203130D01*
X158674945Y-134197491D01*
X158705956Y-134148636D01*
X158710308Y-134142233D01*
X158720079Y-134128789D01*
X158723372Y-134122800D01*
X158728073Y-134114251D01*
X158732041Y-134107542D01*
X158738945Y-134096666D01*
X158763025Y-134058732D01*
X158765797Y-134050201D01*
X158775073Y-134028774D01*
X158779394Y-134020917D01*
X158791771Y-133972726D01*
X158801044Y-133949964D01*
X158800835Y-133949877D01*
X158803848Y-133942681D01*
X158821354Y-133879656D01*
X158822892Y-133874549D01*
X158830362Y-133851569D01*
X158832056Y-133842692D01*
X158834379Y-133832762D01*
X158835772Y-133827749D01*
X158847834Y-133784323D01*
X158848158Y-133767758D01*
X158850332Y-133746939D01*
X158853443Y-133730648D01*
X158850744Y-133687673D01*
X158850500Y-133679901D01*
X158850500Y-133649605D01*
X158850524Y-133647171D01*
X158851177Y-133613883D01*
X158851134Y-133612887D01*
X158850500Y-133600939D01*
X158850500Y-132908341D01*
X158870185Y-132841302D01*
X158922989Y-132795547D01*
X158974500Y-132784341D01*
X175999525Y-132784341D01*
X176015535Y-132786108D01*
X176015558Y-132785867D01*
X176023319Y-132786599D01*
X176023326Y-132786601D01*
X176093292Y-132784401D01*
X176097187Y-132784341D01*
X176125955Y-132784341D01*
X176130317Y-132783789D01*
X176141969Y-132782871D01*
X176187599Y-132781438D01*
X176207986Y-132775514D01*
X176227026Y-132771572D01*
X176248088Y-132768912D01*
X176290550Y-132752099D01*
X176301587Y-132748321D01*
X176345428Y-132735585D01*
X176363695Y-132724780D01*
X176381166Y-132716221D01*
X176400901Y-132708409D01*
X176437846Y-132681566D01*
X176447588Y-132675167D01*
X176486895Y-132651922D01*
X176501900Y-132636916D01*
X176516698Y-132624277D01*
X176533867Y-132611804D01*
X176562976Y-132576615D01*
X176570820Y-132567995D01*
X194974834Y-114163981D01*
X195036155Y-114130498D01*
X195105847Y-114135482D01*
X195161780Y-114177354D01*
X195180444Y-114213346D01*
X195216569Y-114324528D01*
X195216572Y-114324535D01*
X195311218Y-114488467D01*
X195355339Y-114537469D01*
X195437874Y-114629134D01*
X195437881Y-114629140D01*
X195456343Y-114642554D01*
X195498015Y-114695415D01*
X195519212Y-114746587D01*
X195519215Y-114746592D01*
X195615469Y-114872033D01*
X195640520Y-114891255D01*
X195652715Y-114901950D01*
X197364200Y-116613435D01*
X197374894Y-116625629D01*
X197390210Y-116645589D01*
X197394119Y-116650683D01*
X197466178Y-116705975D01*
X197466179Y-116705976D01*
X197466180Y-116705978D01*
X197509483Y-116739205D01*
X197519560Y-116746937D01*
X197519562Y-116746937D01*
X197519564Y-116746939D01*
X197559590Y-116763518D01*
X197665639Y-116807445D01*
X197744020Y-116817764D01*
X197822400Y-116828083D01*
X197822401Y-116828083D01*
X197853703Y-116823961D01*
X197869888Y-116822901D01*
X205730112Y-116822901D01*
X205746296Y-116823961D01*
X205777599Y-116828083D01*
X205777600Y-116828083D01*
X205829853Y-116821203D01*
X205934361Y-116807445D01*
X206080440Y-116746937D01*
X206133820Y-116705977D01*
X206205881Y-116650683D01*
X206225108Y-116625624D01*
X206235789Y-116613444D01*
X206607194Y-116242039D01*
X206619374Y-116231358D01*
X206644433Y-116212131D01*
X206740687Y-116086690D01*
X206801195Y-115940611D01*
X206816651Y-115823210D01*
X206821833Y-115783849D01*
X206817712Y-115752546D01*
X206816651Y-115736361D01*
X206816651Y-105763638D01*
X206817712Y-105747452D01*
X206821833Y-105716151D01*
X206821833Y-105716149D01*
X206804455Y-105584151D01*
X206801195Y-105559389D01*
X206768970Y-105481592D01*
X206740689Y-105413314D01*
X206740688Y-105413313D01*
X206740687Y-105413310D01*
X206721462Y-105388256D01*
X206644433Y-105287869D01*
X206644431Y-105287868D01*
X206644431Y-105287867D01*
X206641779Y-105285215D01*
X206640255Y-105282425D01*
X206639485Y-105281421D01*
X206639641Y-105281300D01*
X206608294Y-105223892D01*
X206606416Y-105206433D01*
X206606139Y-105206463D01*
X206605267Y-105198168D01*
X206585674Y-105011744D01*
X206527179Y-104831716D01*
X206432533Y-104667784D01*
X206305871Y-104527112D01*
X206301511Y-104523944D01*
X206152734Y-104415851D01*
X206152729Y-104415848D01*
X205979807Y-104338857D01*
X205979802Y-104338855D01*
X205834001Y-104307865D01*
X205794646Y-104299500D01*
X205605354Y-104299500D01*
X205605352Y-104299500D01*
X205446431Y-104333279D01*
X205376764Y-104327963D01*
X205321031Y-104285825D01*
X205296926Y-104220245D01*
X205296651Y-104211989D01*
X205296651Y-88225404D01*
X205298419Y-88209392D01*
X205298177Y-88209370D01*
X205298911Y-88201607D01*
X205296712Y-88131623D01*
X205296651Y-88127729D01*
X205296651Y-88098979D01*
X205296650Y-88098972D01*
X205296101Y-88094626D01*
X205295182Y-88082963D01*
X205293749Y-88037332D01*
X205287827Y-88016951D01*
X205283882Y-87997896D01*
X205281223Y-87976850D01*
X205281222Y-87976848D01*
X205281222Y-87976843D01*
X205264418Y-87934402D01*
X205260635Y-87923353D01*
X205259987Y-87921123D01*
X205247896Y-87879503D01*
X205247293Y-87878484D01*
X205237087Y-87861225D01*
X205228529Y-87843756D01*
X205220719Y-87824030D01*
X205220714Y-87824023D01*
X205217170Y-87817576D01*
X205202121Y-87749346D01*
X205226349Y-87683812D01*
X205282161Y-87641779D01*
X205348612Y-87635946D01*
X205413630Y-87648100D01*
X205413632Y-87648100D01*
X205624068Y-87648100D01*
X205624070Y-87648100D01*
X205830926Y-87609432D01*
X206027154Y-87533413D01*
X206206073Y-87422631D01*
X206361590Y-87280859D01*
X206488408Y-87112925D01*
X206582209Y-86924547D01*
X206639798Y-86722142D01*
X206659215Y-86512600D01*
X206639798Y-86303058D01*
X206582209Y-86100653D01*
X206488408Y-85912275D01*
X206361590Y-85744341D01*
X206206073Y-85602569D01*
X206183264Y-85588446D01*
X206136631Y-85536421D01*
X206126156Y-85473457D01*
X205546298Y-84893599D01*
X205550419Y-84893599D01*
X205644271Y-84877938D01*
X205756101Y-84817419D01*
X205842221Y-84723868D01*
X205893298Y-84607422D01*
X205898955Y-84539151D01*
X206481302Y-85121498D01*
X206481303Y-85121498D01*
X206487978Y-85112660D01*
X206581738Y-84924368D01*
X206639304Y-84722043D01*
X206658712Y-84512599D01*
X206658712Y-84512598D01*
X206639304Y-84303154D01*
X206581738Y-84100829D01*
X206487980Y-83912540D01*
X206487978Y-83912536D01*
X206481303Y-83903698D01*
X206481302Y-83903697D01*
X205903753Y-84481247D01*
X205903799Y-84480701D01*
X205872584Y-84357437D01*
X205803037Y-84250987D01*
X205702693Y-84172886D01*
X205582428Y-84131599D01*
X205546298Y-84131599D01*
X206124961Y-83552934D01*
X206124960Y-83552933D01*
X206026933Y-83492237D01*
X206026927Y-83492235D01*
X205830786Y-83416250D01*
X205624021Y-83377599D01*
X205413679Y-83377599D01*
X205206914Y-83416250D01*
X205206913Y-83416250D01*
X205010773Y-83492234D01*
X204912737Y-83552934D01*
X205491403Y-84131599D01*
X205487281Y-84131599D01*
X205393429Y-84147260D01*
X205281599Y-84207779D01*
X205195479Y-84301330D01*
X205144402Y-84417776D01*
X205138744Y-84486046D01*
X204556396Y-83903698D01*
X204556395Y-83903698D01*
X204549720Y-83912538D01*
X204455961Y-84100829D01*
X204398395Y-84303154D01*
X204386516Y-84431355D01*
X204360730Y-84496293D01*
X204303929Y-84536980D01*
X204234148Y-84540500D01*
X204173542Y-84505735D01*
X204149766Y-84470350D01*
X204086047Y-84327237D01*
X204073117Y-84298195D01*
X203958999Y-84141125D01*
X203948420Y-84131599D01*
X203814717Y-84011212D01*
X203646584Y-83914141D01*
X203646582Y-83914140D01*
X203461938Y-83854146D01*
X203461935Y-83854145D01*
X203317250Y-83838938D01*
X203220450Y-83838938D01*
X203075765Y-83854145D01*
X203075762Y-83854145D01*
X203075761Y-83854146D01*
X202891117Y-83914140D01*
X202891115Y-83914141D01*
X202722982Y-84011212D01*
X202578702Y-84141123D01*
X202464581Y-84298195D01*
X202388350Y-84469417D01*
X202343100Y-84522654D01*
X202276251Y-84542976D01*
X202209027Y-84523931D01*
X202162771Y-84471565D01*
X202151599Y-84430423D01*
X202144836Y-84357437D01*
X202139797Y-84303057D01*
X202082208Y-84100652D01*
X201988407Y-83912274D01*
X201861589Y-83744340D01*
X201759402Y-83651185D01*
X201706072Y-83602568D01*
X201706070Y-83602566D01*
X201527156Y-83491787D01*
X201527150Y-83491784D01*
X201355184Y-83425165D01*
X201330925Y-83415767D01*
X201124069Y-83377099D01*
X200913629Y-83377099D01*
X200706773Y-83415767D01*
X200706770Y-83415767D01*
X200706770Y-83415768D01*
X200510547Y-83491784D01*
X200510541Y-83491787D01*
X200331627Y-83602566D01*
X200331625Y-83602568D01*
X200176110Y-83744338D01*
X200049291Y-83912273D01*
X199955491Y-84100648D01*
X199935297Y-84171623D01*
X199898393Y-84301330D01*
X199897900Y-84303061D01*
X199878484Y-84512598D01*
X199878484Y-84512599D01*
X199897900Y-84722136D01*
X199897900Y-84722138D01*
X199897901Y-84722141D01*
X199955490Y-84924546D01*
X199955491Y-84924549D01*
X200033266Y-85080742D01*
X200049291Y-85112924D01*
X200101724Y-85182357D01*
X200176110Y-85280859D01*
X200329796Y-85420962D01*
X200366078Y-85480673D01*
X200364317Y-85550520D01*
X200329796Y-85604236D01*
X200176110Y-85744338D01*
X200049291Y-85912274D01*
X199955491Y-86100649D01*
X199897900Y-86303062D01*
X199878484Y-86512599D01*
X199878484Y-86512600D01*
X199897900Y-86722137D01*
X199897900Y-86722139D01*
X199897901Y-86722142D01*
X199936847Y-86859022D01*
X199955491Y-86924550D01*
X200049291Y-87112925D01*
X200176110Y-87280860D01*
X200331625Y-87422630D01*
X200331627Y-87422632D01*
X200510541Y-87533411D01*
X200510547Y-87533414D01*
X200524117Y-87538671D01*
X200706773Y-87609432D01*
X200913629Y-87648100D01*
X200913631Y-87648100D01*
X201124067Y-87648100D01*
X201124069Y-87648100D01*
X201330925Y-87609432D01*
X201527153Y-87533413D01*
X201706072Y-87422631D01*
X201861589Y-87280859D01*
X201988407Y-87112925D01*
X202082208Y-86924547D01*
X202119409Y-86793798D01*
X202156687Y-86734706D01*
X202219997Y-86705148D01*
X202289237Y-86714510D01*
X202326356Y-86740052D01*
X203959332Y-88373028D01*
X203992817Y-88434351D01*
X203995651Y-88460709D01*
X203995651Y-95260743D01*
X203975966Y-95327782D01*
X203923162Y-95373537D01*
X203854004Y-95383481D01*
X203790448Y-95354456D01*
X203764264Y-95322743D01*
X203750052Y-95298128D01*
X203732533Y-95267784D01*
X203605871Y-95127112D01*
X203605870Y-95127111D01*
X203452734Y-95015851D01*
X203452729Y-95015848D01*
X203279807Y-94938857D01*
X203279802Y-94938855D01*
X203128693Y-94906736D01*
X203094646Y-94899500D01*
X203094645Y-94899500D01*
X203088289Y-94898149D01*
X203088561Y-94896865D01*
X203030460Y-94872957D01*
X202990478Y-94815658D01*
X202987822Y-94745839D01*
X203000650Y-94714233D01*
X203027179Y-94668284D01*
X203027180Y-94668279D01*
X203027182Y-94668277D01*
X203051421Y-94593675D01*
X203085674Y-94488256D01*
X203105460Y-94300000D01*
X203085674Y-94111744D01*
X203027179Y-93931716D01*
X202932533Y-93767784D01*
X202805871Y-93627112D01*
X202758562Y-93592740D01*
X202652734Y-93515851D01*
X202652729Y-93515848D01*
X202479807Y-93438857D01*
X202479802Y-93438855D01*
X202334001Y-93407865D01*
X202294646Y-93399500D01*
X202105354Y-93399500D01*
X202072897Y-93406398D01*
X201920197Y-93438855D01*
X201920192Y-93438857D01*
X201747270Y-93515848D01*
X201747265Y-93515851D01*
X201594129Y-93627111D01*
X201467466Y-93767785D01*
X201372821Y-93931715D01*
X201372818Y-93931722D01*
X201318143Y-94099997D01*
X201314326Y-94111744D01*
X201298960Y-94257948D01*
X201294540Y-94300002D01*
X201294540Y-94304862D01*
X201274855Y-94371901D01*
X201258221Y-94392543D01*
X198808406Y-96842357D01*
X198747083Y-96875842D01*
X198677391Y-96870858D01*
X198621458Y-96828986D01*
X198605290Y-96796570D01*
X198604844Y-96796764D01*
X198601743Y-96789598D01*
X198590936Y-96771324D01*
X198582376Y-96753850D01*
X198574568Y-96734130D01*
X198574568Y-96734129D01*
X198574565Y-96734125D01*
X198570811Y-96727295D01*
X198572286Y-96726483D01*
X198552949Y-96676112D01*
X198535674Y-96511744D01*
X198479629Y-96339256D01*
X198477181Y-96331722D01*
X198477180Y-96331721D01*
X198477179Y-96331716D01*
X198382533Y-96167784D01*
X198255871Y-96027112D01*
X198255870Y-96027111D01*
X198102734Y-95915851D01*
X198102729Y-95915848D01*
X197929807Y-95838857D01*
X197929802Y-95838855D01*
X197769872Y-95804862D01*
X197744646Y-95799500D01*
X197674500Y-95799500D01*
X197607461Y-95779815D01*
X197561706Y-95727011D01*
X197550500Y-95675500D01*
X197550500Y-92466116D01*
X197551561Y-92449930D01*
X197555682Y-92418629D01*
X197555682Y-92418627D01*
X197535044Y-92261868D01*
X197535044Y-92261867D01*
X197474536Y-92115788D01*
X197378282Y-91990347D01*
X197378280Y-91990345D01*
X197378279Y-91990344D01*
X197353228Y-91971122D01*
X197341034Y-91960428D01*
X194336819Y-88956213D01*
X194303334Y-88894890D01*
X194300500Y-88868532D01*
X194300500Y-88416117D01*
X194301561Y-88399931D01*
X194305682Y-88368630D01*
X194305682Y-88368628D01*
X194285044Y-88211869D01*
X194285044Y-88211868D01*
X194224536Y-88065789D01*
X194128282Y-87940348D01*
X194128280Y-87940346D01*
X194128279Y-87940345D01*
X194103228Y-87921123D01*
X194091034Y-87910429D01*
X178439571Y-72258964D01*
X178428875Y-72246767D01*
X178409658Y-72221722D01*
X178409655Y-72221720D01*
X178409654Y-72221718D01*
X178284213Y-72125464D01*
X178138134Y-72064956D01*
X178138132Y-72064955D01*
X178020733Y-72049500D01*
X177981372Y-72044318D01*
X177950069Y-72048439D01*
X177933885Y-72049500D01*
X177481468Y-72049500D01*
X177414429Y-72029815D01*
X177393787Y-72013181D01*
X172689570Y-67308964D01*
X172678875Y-67296769D01*
X172659654Y-67271719D01*
X172584442Y-67214007D01*
X172534212Y-67175464D01*
X172515673Y-67167785D01*
X172388133Y-67114956D01*
X172388131Y-67114955D01*
X172270732Y-67099500D01*
X172231371Y-67094318D01*
X172200068Y-67098439D01*
X172183884Y-67099500D01*
X131726258Y-67099500D01*
X131659219Y-67079815D01*
X131634109Y-67058473D01*
X131605871Y-67027112D01*
X131605864Y-67027106D01*
X131452734Y-66915851D01*
X131452729Y-66915848D01*
X131279807Y-66838857D01*
X131279802Y-66838855D01*
X131134001Y-66807865D01*
X131094646Y-66799500D01*
X130905354Y-66799500D01*
X130872897Y-66806398D01*
X130720197Y-66838855D01*
X130720192Y-66838857D01*
X130547270Y-66915848D01*
X130547265Y-66915851D01*
X130394129Y-67027111D01*
X130267466Y-67167785D01*
X130172821Y-67331715D01*
X130172818Y-67331722D01*
X130114327Y-67511740D01*
X130114326Y-67511744D01*
X130105525Y-67595483D01*
X130094540Y-67700002D01*
X130094540Y-67704862D01*
X130074855Y-67771901D01*
X130058221Y-67792543D01*
X129349737Y-68501028D01*
X129288414Y-68534513D01*
X129262056Y-68537347D01*
X129149919Y-68537347D01*
X129082880Y-68517662D01*
X129057770Y-68496320D01*
X129029532Y-68464959D01*
X129029525Y-68464953D01*
X128876395Y-68353698D01*
X128876390Y-68353695D01*
X128703468Y-68276704D01*
X128703463Y-68276702D01*
X128557662Y-68245712D01*
X128518307Y-68237347D01*
X128329015Y-68237347D01*
X128296558Y-68244245D01*
X128143858Y-68276702D01*
X128143851Y-68276705D01*
X128125370Y-68284933D01*
X128056119Y-68294216D01*
X128002053Y-68271970D01*
X127883065Y-68185520D01*
X127883060Y-68185517D01*
X127710138Y-68108526D01*
X127710133Y-68108524D01*
X127564332Y-68077534D01*
X127524977Y-68069169D01*
X127335685Y-68069169D01*
X127303228Y-68076067D01*
X127150528Y-68108524D01*
X127150523Y-68108526D01*
X126977601Y-68185517D01*
X126977596Y-68185520D01*
X126867176Y-68265745D01*
X126801369Y-68289225D01*
X126733316Y-68273399D01*
X126721415Y-68265751D01*
X126652730Y-68215849D01*
X126652729Y-68215848D01*
X126479807Y-68138857D01*
X126479802Y-68138855D01*
X126334001Y-68107865D01*
X126294646Y-68099500D01*
X126105354Y-68099500D01*
X126072897Y-68106398D01*
X125920197Y-68138855D01*
X125920192Y-68138857D01*
X125747270Y-68215848D01*
X125747265Y-68215851D01*
X125594129Y-68327111D01*
X125467466Y-68467785D01*
X125372821Y-68631715D01*
X125372818Y-68631722D01*
X125314327Y-68811740D01*
X125314326Y-68811744D01*
X125294540Y-69000000D01*
X125314326Y-69188256D01*
X125314327Y-69188259D01*
X125372818Y-69368277D01*
X125372821Y-69368284D01*
X125467467Y-69532216D01*
X125525301Y-69596447D01*
X125594129Y-69672888D01*
X125747265Y-69784148D01*
X125747270Y-69784151D01*
X125920192Y-69861142D01*
X125920197Y-69861144D01*
X126105354Y-69900500D01*
X126199903Y-69900500D01*
X126266942Y-69920185D01*
X126287584Y-69936819D01*
X129388584Y-73037819D01*
X129422069Y-73099142D01*
X129417085Y-73168834D01*
X129375213Y-73224767D01*
X129309749Y-73249184D01*
X129304576Y-73249370D01*
X129302123Y-73249501D01*
X129242516Y-73255908D01*
X129107671Y-73306202D01*
X129107664Y-73306206D01*
X128992455Y-73392452D01*
X128992452Y-73392455D01*
X128906206Y-73507664D01*
X128906202Y-73507671D01*
X128855908Y-73642517D01*
X128849501Y-73702116D01*
X128849500Y-73702135D01*
X128849500Y-75497870D01*
X128849501Y-75497876D01*
X128855908Y-75557483D01*
X128906202Y-75692328D01*
X128906206Y-75692335D01*
X128992452Y-75807544D01*
X128992455Y-75807547D01*
X129107664Y-75893793D01*
X129107671Y-75893797D01*
X129242517Y-75944091D01*
X129242516Y-75944091D01*
X129249444Y-75944835D01*
X129302127Y-75950500D01*
X131097872Y-75950499D01*
X131157483Y-75944091D01*
X131292331Y-75893796D01*
X131407546Y-75807546D01*
X131493796Y-75692331D01*
X131542810Y-75560916D01*
X131584681Y-75504984D01*
X131650145Y-75480566D01*
X131718418Y-75495417D01*
X131746673Y-75516569D01*
X131868599Y-75638495D01*
X131965384Y-75706265D01*
X132062165Y-75774032D01*
X132062167Y-75774033D01*
X132062170Y-75774035D01*
X132276337Y-75873903D01*
X132504592Y-75935063D01*
X132681034Y-75950500D01*
X132739999Y-75955659D01*
X132740000Y-75955659D01*
X132740001Y-75955659D01*
X132798966Y-75950500D01*
X132975408Y-75935063D01*
X133203663Y-75873903D01*
X133417830Y-75774035D01*
X133611401Y-75638495D01*
X133778495Y-75471401D01*
X133914035Y-75277830D01*
X134013903Y-75063663D01*
X134075063Y-74835408D01*
X134095659Y-74600000D01*
X134075063Y-74364592D01*
X134032728Y-74206593D01*
X134034391Y-74136743D01*
X134073554Y-74078881D01*
X134137782Y-74051377D01*
X134152503Y-74050500D01*
X177349903Y-74050500D01*
X177416942Y-74070185D01*
X177437584Y-74086819D01*
X183788584Y-80437819D01*
X183822069Y-80499142D01*
X183817085Y-80568834D01*
X183775213Y-80624767D01*
X183709749Y-80649184D01*
X183700903Y-80649500D01*
X173638453Y-80649500D01*
X173638247Y-80649459D01*
X173613691Y-80649459D01*
X173613500Y-80649538D01*
X173613312Y-80649615D01*
X173613308Y-80649618D01*
X173613152Y-80649999D01*
X173613169Y-80674616D01*
X173613164Y-80674616D01*
X173613193Y-80674759D01*
X173613193Y-83625467D01*
X173613109Y-83625889D01*
X173613152Y-83650000D01*
X173613193Y-83650099D01*
X173613310Y-83650383D01*
X173613311Y-83650384D01*
X173613501Y-83650462D01*
X173613693Y-83650541D01*
X173613695Y-83650539D01*
X173638309Y-83650524D01*
X173638309Y-83650528D01*
X173638453Y-83650500D01*
X183725240Y-83650500D01*
X183725383Y-83650528D01*
X183725384Y-83650524D01*
X183749997Y-83650539D01*
X183750000Y-83650541D01*
X183750383Y-83650383D01*
X183750500Y-83650099D01*
X183750541Y-83650000D01*
X183750540Y-83649997D01*
X183750583Y-83625889D01*
X183750500Y-83625467D01*
X183750500Y-80699097D01*
X183770185Y-80632058D01*
X183822989Y-80586303D01*
X183892147Y-80576359D01*
X183955703Y-80605384D01*
X183962181Y-80611416D01*
X192263181Y-88912416D01*
X192296666Y-88973739D01*
X192299500Y-89000097D01*
X192299500Y-99456371D01*
X192279815Y-99523410D01*
X192267650Y-99539343D01*
X192167466Y-99650609D01*
X192072821Y-99814539D01*
X192072818Y-99814546D01*
X192014327Y-99994564D01*
X192014326Y-99994568D01*
X191994540Y-100182824D01*
X192014326Y-100371080D01*
X192014327Y-100371083D01*
X192072818Y-100551101D01*
X192072821Y-100551108D01*
X192167467Y-100715040D01*
X192277542Y-100837290D01*
X192294129Y-100855712D01*
X192447265Y-100966972D01*
X192447270Y-100966975D01*
X192620192Y-101043966D01*
X192620197Y-101043968D01*
X192805354Y-101083324D01*
X192805355Y-101083324D01*
X192994644Y-101083324D01*
X192994646Y-101083324D01*
X193179803Y-101043968D01*
X193352730Y-100966975D01*
X193505871Y-100855712D01*
X193550363Y-100806297D01*
X193609848Y-100769651D01*
X193679705Y-100770980D01*
X193730193Y-100801590D01*
X193849634Y-100921031D01*
X193883119Y-100982354D01*
X193885953Y-101008712D01*
X193885953Y-101013572D01*
X193885953Y-101013575D01*
X193905739Y-101201831D01*
X193905740Y-101201834D01*
X193964231Y-101381852D01*
X193964234Y-101381859D01*
X194058880Y-101545791D01*
X194185542Y-101686463D01*
X194338678Y-101797723D01*
X194338680Y-101797724D01*
X194338683Y-101797726D01*
X194411640Y-101830209D01*
X194464876Y-101875458D01*
X194485197Y-101942307D01*
X194466152Y-102009530D01*
X194448885Y-102031168D01*
X194116871Y-102363182D01*
X194055550Y-102396666D01*
X194029192Y-102399500D01*
X194005354Y-102399500D01*
X193972897Y-102406398D01*
X193820197Y-102438855D01*
X193820192Y-102438857D01*
X193647270Y-102515848D01*
X193647265Y-102515851D01*
X193494129Y-102627111D01*
X193367466Y-102767785D01*
X193345874Y-102805182D01*
X193295306Y-102853397D01*
X193226699Y-102866618D01*
X193161834Y-102840649D01*
X193150807Y-102830861D01*
X191834808Y-101514862D01*
X191801323Y-101453539D01*
X191799168Y-101440141D01*
X191798837Y-101436995D01*
X191785674Y-101311744D01*
X191727179Y-101131716D01*
X191632533Y-100967784D01*
X191505871Y-100827112D01*
X191495003Y-100819216D01*
X191352734Y-100715851D01*
X191352729Y-100715848D01*
X191179807Y-100638857D01*
X191179802Y-100638855D01*
X191034001Y-100607865D01*
X190994646Y-100599500D01*
X190805354Y-100599500D01*
X190772897Y-100606398D01*
X190620197Y-100638855D01*
X190620192Y-100638857D01*
X190447270Y-100715848D01*
X190447265Y-100715851D01*
X190294129Y-100827111D01*
X190167466Y-100967785D01*
X190072821Y-101131715D01*
X190072818Y-101131722D01*
X190018519Y-101298838D01*
X190014326Y-101311744D01*
X189994540Y-101500000D01*
X190014326Y-101688256D01*
X190014327Y-101688259D01*
X190072818Y-101868277D01*
X190072821Y-101868284D01*
X190167467Y-102032216D01*
X190240284Y-102113087D01*
X190294129Y-102172888D01*
X190447265Y-102284148D01*
X190447270Y-102284151D01*
X190620192Y-102361142D01*
X190620197Y-102361144D01*
X190805354Y-102400500D01*
X190829192Y-102400500D01*
X190896231Y-102420185D01*
X190916873Y-102436819D01*
X192090441Y-103610387D01*
X192123926Y-103671710D01*
X192118942Y-103741402D01*
X192077070Y-103797335D01*
X192011606Y-103821752D01*
X191969352Y-103814907D01*
X191968776Y-103817060D01*
X191960923Y-103814955D01*
X191843524Y-103799500D01*
X191804163Y-103794318D01*
X191772860Y-103798439D01*
X191756676Y-103799500D01*
X189926258Y-103799500D01*
X189859219Y-103779815D01*
X189834109Y-103758473D01*
X189805871Y-103727112D01*
X189805864Y-103727106D01*
X189652734Y-103615851D01*
X189652729Y-103615848D01*
X189479807Y-103538857D01*
X189479802Y-103538855D01*
X189334001Y-103507865D01*
X189294646Y-103499500D01*
X189105354Y-103499500D01*
X189072897Y-103506398D01*
X188920197Y-103538855D01*
X188920192Y-103538857D01*
X188805243Y-103590037D01*
X188735993Y-103599322D01*
X188672716Y-103569694D01*
X188635503Y-103510559D01*
X188636168Y-103440693D01*
X188636876Y-103438440D01*
X188638594Y-103433152D01*
X188685674Y-103288256D01*
X188705460Y-103100000D01*
X188685674Y-102911744D01*
X188631112Y-102743823D01*
X188627181Y-102731722D01*
X188627180Y-102731721D01*
X188627179Y-102731716D01*
X188532533Y-102567784D01*
X188405871Y-102427112D01*
X188384719Y-102411744D01*
X188252734Y-102315851D01*
X188252729Y-102315848D01*
X188079807Y-102238857D01*
X188079802Y-102238855D01*
X187929108Y-102206825D01*
X187894646Y-102199500D01*
X187705354Y-102199500D01*
X187672897Y-102206398D01*
X187520197Y-102238855D01*
X187520192Y-102238857D01*
X187341334Y-102318492D01*
X187340472Y-102316556D01*
X187282167Y-102330683D01*
X187216147Y-102307811D01*
X187172973Y-102252877D01*
X187164104Y-102206825D01*
X187164104Y-100377203D01*
X187183789Y-100310164D01*
X187200418Y-100289527D01*
X188319098Y-99170846D01*
X188380419Y-99137363D01*
X188450111Y-99142347D01*
X188506044Y-99184219D01*
X188524708Y-99220210D01*
X188572819Y-99368280D01*
X188572821Y-99368284D01*
X188667467Y-99532216D01*
X188790142Y-99668460D01*
X188794129Y-99672888D01*
X188947265Y-99784148D01*
X188947270Y-99784151D01*
X189120192Y-99861142D01*
X189120197Y-99861144D01*
X189305354Y-99900500D01*
X189305355Y-99900500D01*
X189494644Y-99900500D01*
X189494646Y-99900500D01*
X189679803Y-99861144D01*
X189852730Y-99784151D01*
X190005871Y-99672888D01*
X190132533Y-99532216D01*
X190227179Y-99368284D01*
X190285674Y-99188256D01*
X190299168Y-99059855D01*
X190325752Y-98995242D01*
X190334799Y-98985145D01*
X190899513Y-98420431D01*
X190912079Y-98410365D01*
X190911925Y-98410178D01*
X190917933Y-98405205D01*
X190917940Y-98405202D01*
X190941227Y-98380402D01*
X190965865Y-98354167D01*
X190968578Y-98351367D01*
X190969848Y-98350097D01*
X190988911Y-98331035D01*
X190991606Y-98327560D01*
X190999199Y-98318669D01*
X191030448Y-98285393D01*
X191031732Y-98283058D01*
X191040670Y-98266796D01*
X191051348Y-98250539D01*
X191064362Y-98233764D01*
X191082503Y-98191840D01*
X191087617Y-98181402D01*
X191109627Y-98141368D01*
X191114906Y-98120808D01*
X191121209Y-98102399D01*
X191129636Y-98082926D01*
X191136779Y-98037820D01*
X191139143Y-98026405D01*
X191150500Y-97982177D01*
X191150500Y-97960955D01*
X191152027Y-97941555D01*
X191155347Y-97920595D01*
X191151050Y-97875140D01*
X191150500Y-97863470D01*
X191150500Y-94340921D01*
X191170185Y-94273882D01*
X191182351Y-94257948D01*
X191196964Y-94241719D01*
X191232533Y-94202216D01*
X191327179Y-94038284D01*
X191385674Y-93858256D01*
X191405460Y-93670000D01*
X191385674Y-93481744D01*
X191327179Y-93301716D01*
X191232533Y-93137784D01*
X191105871Y-92997112D01*
X191105870Y-92997111D01*
X190952734Y-92885851D01*
X190952729Y-92885848D01*
X190779807Y-92808857D01*
X190779802Y-92808855D01*
X190601218Y-92770897D01*
X190594646Y-92769500D01*
X190405354Y-92769500D01*
X190398782Y-92770897D01*
X190220197Y-92808855D01*
X190220192Y-92808857D01*
X190047270Y-92885848D01*
X190047265Y-92885851D01*
X189894129Y-92997111D01*
X189767466Y-93137785D01*
X189672821Y-93301715D01*
X189672818Y-93301722D01*
X189619645Y-93465373D01*
X189614326Y-93481744D01*
X189594540Y-93670000D01*
X189614326Y-93858256D01*
X189614327Y-93858259D01*
X189672818Y-94038277D01*
X189672821Y-94038284D01*
X189767466Y-94202215D01*
X189817649Y-94257948D01*
X189847880Y-94320940D01*
X189849500Y-94340921D01*
X189849500Y-96193466D01*
X189829815Y-96260505D01*
X189777011Y-96306260D01*
X189707853Y-96316204D01*
X189686276Y-96309983D01*
X189685990Y-96310866D01*
X189679802Y-96308855D01*
X189531140Y-96277257D01*
X189494646Y-96269500D01*
X189305354Y-96269500D01*
X189272897Y-96276398D01*
X189120197Y-96308855D01*
X189120192Y-96308857D01*
X188947270Y-96385848D01*
X188947265Y-96385851D01*
X188794129Y-96497111D01*
X188667466Y-96637785D01*
X188572821Y-96801715D01*
X188572818Y-96801722D01*
X188514327Y-96981739D01*
X188514326Y-96981741D01*
X188500831Y-97110142D01*
X188474246Y-97174757D01*
X188465191Y-97184861D01*
X186114087Y-99535965D01*
X186101514Y-99546039D01*
X186101669Y-99546226D01*
X186095662Y-99551195D01*
X186047737Y-99602229D01*
X186045031Y-99605021D01*
X186024694Y-99625359D01*
X186024681Y-99625374D01*
X186021977Y-99628859D01*
X186014410Y-99637718D01*
X185983156Y-99671003D01*
X185972926Y-99689609D01*
X185962250Y-99705860D01*
X185949244Y-99722628D01*
X185949240Y-99722634D01*
X185931112Y-99764526D01*
X185925973Y-99775015D01*
X185903976Y-99815026D01*
X185903976Y-99815027D01*
X185898695Y-99835595D01*
X185892395Y-99853997D01*
X185883968Y-99873469D01*
X185876827Y-99918558D01*
X185874458Y-99929996D01*
X185863104Y-99974213D01*
X185863104Y-99995440D01*
X185861577Y-100014840D01*
X185858257Y-100035799D01*
X185862554Y-100081254D01*
X185863104Y-100092924D01*
X185863104Y-109965588D01*
X185843419Y-110032627D01*
X185826785Y-110053269D01*
X185016873Y-110863181D01*
X184955550Y-110896666D01*
X184929192Y-110899500D01*
X184905354Y-110899500D01*
X184872897Y-110906398D01*
X184720197Y-110938855D01*
X184720192Y-110938857D01*
X184547270Y-111015848D01*
X184547265Y-111015851D01*
X184394129Y-111127111D01*
X184267466Y-111267785D01*
X184172821Y-111431715D01*
X184172818Y-111431722D01*
X184117059Y-111603333D01*
X184114326Y-111611744D01*
X184094540Y-111800000D01*
X184114326Y-111988256D01*
X184114327Y-111988259D01*
X184172818Y-112168277D01*
X184172821Y-112168284D01*
X184267467Y-112332216D01*
X184376707Y-112453539D01*
X184394129Y-112472888D01*
X184547265Y-112584148D01*
X184547270Y-112584151D01*
X184720192Y-112661142D01*
X184720197Y-112661144D01*
X184905354Y-112700500D01*
X184905355Y-112700500D01*
X185094644Y-112700500D01*
X185094646Y-112700500D01*
X185279803Y-112661144D01*
X185452730Y-112584151D01*
X185605871Y-112472888D01*
X185732533Y-112332216D01*
X185827179Y-112168284D01*
X185885674Y-111988256D01*
X185899168Y-111859855D01*
X185925752Y-111795242D01*
X185934799Y-111785145D01*
X186913117Y-110806827D01*
X186925683Y-110796761D01*
X186925529Y-110796574D01*
X186931537Y-110791601D01*
X186931544Y-110791598D01*
X186954831Y-110766798D01*
X186979469Y-110740563D01*
X186982182Y-110737763D01*
X186985797Y-110734148D01*
X187002515Y-110717431D01*
X187005210Y-110713956D01*
X187012803Y-110705065D01*
X187044052Y-110671789D01*
X187054278Y-110653186D01*
X187064957Y-110636929D01*
X187077966Y-110620160D01*
X187096095Y-110578262D01*
X187101224Y-110567791D01*
X187123231Y-110527764D01*
X187128509Y-110507202D01*
X187134811Y-110488795D01*
X187143239Y-110469323D01*
X187150381Y-110424221D01*
X187152744Y-110412814D01*
X187164104Y-110368573D01*
X187164104Y-110347345D01*
X187165631Y-110327945D01*
X187167162Y-110318277D01*
X187168950Y-110306991D01*
X187164654Y-110261543D01*
X187164104Y-110249874D01*
X187164104Y-107524193D01*
X187183789Y-107457154D01*
X187236593Y-107411399D01*
X187305751Y-107401455D01*
X187364622Y-107428340D01*
X187365270Y-107427497D01*
X187368937Y-107430311D01*
X187369307Y-107430480D01*
X187370007Y-107431131D01*
X187371716Y-107432442D01*
X187371718Y-107432445D01*
X187396769Y-107451667D01*
X187408964Y-107462362D01*
X187837636Y-107891034D01*
X187848330Y-107903228D01*
X187867554Y-107928281D01*
X187961672Y-108000500D01*
X187961673Y-108000501D01*
X187992994Y-108024535D01*
X187993000Y-108024538D01*
X188048552Y-108047548D01*
X188139075Y-108085044D01*
X188217456Y-108095363D01*
X188295836Y-108105682D01*
X188295837Y-108105682D01*
X188327139Y-108101560D01*
X188343324Y-108100500D01*
X193496535Y-108100500D01*
X193563574Y-108120185D01*
X193568891Y-108123924D01*
X193569949Y-108124534D01*
X193569951Y-108124536D01*
X193569952Y-108124536D01*
X193569955Y-108124538D01*
X193642990Y-108154790D01*
X193716030Y-108185044D01*
X193794411Y-108195363D01*
X193872791Y-108205682D01*
X193872792Y-108205682D01*
X193904094Y-108201560D01*
X193920279Y-108200500D01*
X195952513Y-108200500D01*
X195968697Y-108201560D01*
X196000000Y-108205682D01*
X196000001Y-108205682D01*
X196052254Y-108198802D01*
X196156762Y-108185044D01*
X196302841Y-108124536D01*
X196371675Y-108071718D01*
X196428282Y-108028282D01*
X196447510Y-108003222D01*
X196458189Y-107991044D01*
X198712416Y-105736819D01*
X198773739Y-105703334D01*
X198800097Y-105700500D01*
X198894644Y-105700500D01*
X198894646Y-105700500D01*
X199079803Y-105661144D01*
X199252730Y-105584151D01*
X199405871Y-105472888D01*
X199532533Y-105332216D01*
X199627179Y-105168284D01*
X199685674Y-104988256D01*
X199705460Y-104800000D01*
X199685674Y-104611744D01*
X199627179Y-104431716D01*
X199532533Y-104267784D01*
X199489729Y-104220245D01*
X199404774Y-104125892D01*
X199374544Y-104062900D01*
X199382363Y-103995467D01*
X199435044Y-103868285D01*
X199453630Y-103727112D01*
X199455682Y-103711524D01*
X199455682Y-103711521D01*
X199451561Y-103680220D01*
X199450500Y-103664035D01*
X199450500Y-100250097D01*
X199470185Y-100183058D01*
X199486819Y-100162416D01*
X202912416Y-96736819D01*
X202973739Y-96703334D01*
X203000097Y-96700500D01*
X203094644Y-96700500D01*
X203094646Y-96700500D01*
X203279803Y-96661144D01*
X203452730Y-96584151D01*
X203605871Y-96472888D01*
X203732533Y-96332216D01*
X203764264Y-96277255D01*
X203814830Y-96229041D01*
X203883437Y-96215817D01*
X203948302Y-96241785D01*
X203988831Y-96298699D01*
X203995651Y-96339256D01*
X203995651Y-99555666D01*
X203975966Y-99622705D01*
X203923162Y-99668460D01*
X203854004Y-99678404D01*
X203790448Y-99649379D01*
X203772384Y-99629977D01*
X203708676Y-99544874D01*
X203206879Y-100046670D01*
X203161723Y-99973740D01*
X203011898Y-99809390D01*
X202855308Y-99691138D01*
X203355124Y-99191322D01*
X203355123Y-99191321D01*
X203229843Y-99097537D01*
X203229835Y-99097532D01*
X202991310Y-98967287D01*
X202991306Y-98967285D01*
X202736654Y-98872305D01*
X202471097Y-98814537D01*
X202471090Y-98814536D01*
X202200001Y-98795147D01*
X202199999Y-98795147D01*
X201928909Y-98814536D01*
X201928902Y-98814537D01*
X201663345Y-98872305D01*
X201408693Y-98967285D01*
X201408689Y-98967287D01*
X201170164Y-99097532D01*
X201170156Y-99097537D01*
X201044875Y-99191321D01*
X201044874Y-99191322D01*
X201544691Y-99691138D01*
X201388102Y-99809390D01*
X201238277Y-99973740D01*
X201193119Y-100046671D01*
X200691322Y-99544874D01*
X200691321Y-99544875D01*
X200597537Y-99670156D01*
X200597532Y-99670164D01*
X200467287Y-99908689D01*
X200467285Y-99908693D01*
X200372305Y-100163345D01*
X200314537Y-100428902D01*
X200314536Y-100428909D01*
X200295147Y-100699998D01*
X200295147Y-100700001D01*
X200314536Y-100971090D01*
X200314537Y-100971097D01*
X200372305Y-101236654D01*
X200467285Y-101491306D01*
X200467287Y-101491310D01*
X200597532Y-101729835D01*
X200597537Y-101729843D01*
X200691321Y-101855123D01*
X200691322Y-101855124D01*
X201193118Y-101353327D01*
X201238277Y-101426260D01*
X201388102Y-101590610D01*
X201544690Y-101708860D01*
X201044874Y-102208676D01*
X201170163Y-102302466D01*
X201170164Y-102302467D01*
X201408689Y-102432712D01*
X201408693Y-102432714D01*
X201663345Y-102527694D01*
X201928902Y-102585462D01*
X201928909Y-102585463D01*
X202199999Y-102604853D01*
X202200001Y-102604853D01*
X202471090Y-102585463D01*
X202471097Y-102585462D01*
X202736654Y-102527694D01*
X202991306Y-102432714D01*
X202991310Y-102432712D01*
X203229844Y-102302462D01*
X203355123Y-102208677D01*
X203355124Y-102208676D01*
X202855308Y-101708861D01*
X203011898Y-101590610D01*
X203161723Y-101426260D01*
X203206880Y-101353328D01*
X203708676Y-101855124D01*
X203772384Y-101770022D01*
X203828318Y-101728151D01*
X203898010Y-101723167D01*
X203959333Y-101756652D01*
X203992817Y-101817976D01*
X203995651Y-101844333D01*
X203995651Y-112566894D01*
X203993883Y-112582905D01*
X203994125Y-112582928D01*
X203993391Y-112590694D01*
X203993391Y-112590696D01*
X203994603Y-112629263D01*
X203995590Y-112660662D01*
X203995651Y-112664557D01*
X203995651Y-112693320D01*
X203995652Y-112693338D01*
X203996204Y-112697711D01*
X203997119Y-112709341D01*
X203998553Y-112754967D01*
X203998554Y-112754970D01*
X204004474Y-112775348D01*
X204008419Y-112794396D01*
X204011079Y-112815454D01*
X204011082Y-112815465D01*
X204027888Y-112857914D01*
X204031671Y-112868963D01*
X204044405Y-112912795D01*
X204044406Y-112912797D01*
X204055211Y-112931066D01*
X204063768Y-112948534D01*
X204069377Y-112962700D01*
X204071583Y-112968272D01*
X204098417Y-113005206D01*
X204104829Y-113014968D01*
X204128065Y-113054258D01*
X204128714Y-113055094D01*
X204129018Y-113055869D01*
X204132041Y-113060980D01*
X204131216Y-113061467D01*
X204154251Y-113120130D01*
X204154208Y-113142538D01*
X204140786Y-113287398D01*
X204140786Y-113287400D01*
X204160202Y-113496937D01*
X204160202Y-113496939D01*
X204160203Y-113496942D01*
X204216966Y-113696443D01*
X204217793Y-113699350D01*
X204303622Y-113871718D01*
X204311593Y-113887725D01*
X204438411Y-114055659D01*
X204593928Y-114197431D01*
X204616733Y-114211551D01*
X204663367Y-114263577D01*
X204673842Y-114326540D01*
X205253703Y-114906401D01*
X205249582Y-114906401D01*
X205155730Y-114922062D01*
X205043900Y-114982581D01*
X204957780Y-115076132D01*
X204906703Y-115192578D01*
X204901045Y-115260848D01*
X204318697Y-114678500D01*
X204318696Y-114678500D01*
X204312021Y-114687340D01*
X204218261Y-114875633D01*
X204218259Y-114875637D01*
X204196251Y-114952989D01*
X204158972Y-115012082D01*
X204095662Y-115041639D01*
X204026422Y-115032277D01*
X203973236Y-114986967D01*
X203955695Y-114944835D01*
X203951906Y-114927011D01*
X203914384Y-114750482D01*
X203835417Y-114573119D01*
X203721299Y-114416049D01*
X203692676Y-114390276D01*
X203577017Y-114286136D01*
X203408884Y-114189065D01*
X203408882Y-114189064D01*
X203224238Y-114129070D01*
X203224235Y-114129069D01*
X203079550Y-114113862D01*
X202982750Y-114113862D01*
X202838065Y-114129069D01*
X202838062Y-114129069D01*
X202838061Y-114129070D01*
X202653417Y-114189064D01*
X202653415Y-114189065D01*
X202485282Y-114286136D01*
X202341002Y-114416047D01*
X202226881Y-114573119D01*
X202147915Y-114750484D01*
X202106605Y-114944833D01*
X202073413Y-115006315D01*
X202012249Y-115040091D01*
X201942535Y-115035439D01*
X201886403Y-114993834D01*
X201866049Y-114952986D01*
X201844042Y-114875639D01*
X201844039Y-114875633D01*
X201750280Y-114687342D01*
X201750278Y-114687338D01*
X201743603Y-114678500D01*
X201743602Y-114678499D01*
X201166053Y-115256047D01*
X201166099Y-115255503D01*
X201134884Y-115132239D01*
X201065337Y-115025789D01*
X200964993Y-114947688D01*
X200844728Y-114906401D01*
X200808598Y-114906401D01*
X201388487Y-114326510D01*
X201399497Y-114262409D01*
X201445565Y-114211552D01*
X201468373Y-114197431D01*
X201623890Y-114055659D01*
X201750708Y-113887725D01*
X201844509Y-113699347D01*
X201902098Y-113496942D01*
X201921515Y-113287400D01*
X201902098Y-113077858D01*
X201844509Y-112875453D01*
X201750708Y-112687075D01*
X201623890Y-112519141D01*
X201468373Y-112377369D01*
X201468371Y-112377367D01*
X201289457Y-112266588D01*
X201289451Y-112266585D01*
X201115650Y-112199255D01*
X201093226Y-112190568D01*
X200886370Y-112151900D01*
X200675930Y-112151900D01*
X200469074Y-112190568D01*
X200469071Y-112190568D01*
X200469071Y-112190569D01*
X200272848Y-112266585D01*
X200272842Y-112266588D01*
X200093928Y-112377367D01*
X200093926Y-112377369D01*
X199938411Y-112519138D01*
X199902348Y-112566894D01*
X199886690Y-112587627D01*
X199830583Y-112629263D01*
X199787738Y-112636900D01*
X197520708Y-112636900D01*
X197453669Y-112617215D01*
X197433027Y-112600581D01*
X197347308Y-112514862D01*
X197313823Y-112453539D01*
X197311668Y-112440141D01*
X197300325Y-112332216D01*
X197298174Y-112311744D01*
X197239679Y-112131716D01*
X197145033Y-111967784D01*
X197037629Y-111848500D01*
X197007399Y-111785509D01*
X197016024Y-111716173D01*
X197042097Y-111677847D01*
X197083128Y-111636818D01*
X197144451Y-111603333D01*
X197170808Y-111600500D01*
X197854937Y-111600500D01*
X197870947Y-111602267D01*
X197870970Y-111602026D01*
X197878731Y-111602758D01*
X197878738Y-111602760D01*
X197948704Y-111600560D01*
X197952599Y-111600500D01*
X197981367Y-111600500D01*
X197985729Y-111599948D01*
X197997381Y-111599030D01*
X198043011Y-111597597D01*
X198063398Y-111591673D01*
X198082438Y-111587731D01*
X198103500Y-111585071D01*
X198145962Y-111568258D01*
X198156999Y-111564480D01*
X198200840Y-111551744D01*
X198219107Y-111540939D01*
X198236578Y-111532380D01*
X198256313Y-111524568D01*
X198293258Y-111497725D01*
X198303000Y-111491326D01*
X198342307Y-111468081D01*
X198357312Y-111453075D01*
X198372110Y-111440436D01*
X198389279Y-111427963D01*
X198418388Y-111392774D01*
X198426232Y-111384154D01*
X198923569Y-110886819D01*
X198984892Y-110853334D01*
X199011250Y-110850500D01*
X199035086Y-110850500D01*
X199035088Y-110850500D01*
X199220245Y-110811144D01*
X199393172Y-110734151D01*
X199546313Y-110622888D01*
X199672975Y-110482216D01*
X199767621Y-110318284D01*
X199826116Y-110138256D01*
X199845902Y-109950000D01*
X199826116Y-109761744D01*
X199767621Y-109581716D01*
X199672975Y-109417784D01*
X199546313Y-109277112D01*
X199528906Y-109264465D01*
X199393176Y-109165851D01*
X199393171Y-109165848D01*
X199220249Y-109088857D01*
X199220244Y-109088855D01*
X199051159Y-109052916D01*
X199035088Y-109049500D01*
X198845796Y-109049500D01*
X198829725Y-109052916D01*
X198660639Y-109088855D01*
X198660634Y-109088857D01*
X198487712Y-109165848D01*
X198487707Y-109165851D01*
X198334571Y-109277111D01*
X198207908Y-109417785D01*
X198113263Y-109581715D01*
X198113260Y-109581722D01*
X198054769Y-109761739D01*
X198054768Y-109761741D01*
X198041273Y-109890143D01*
X198014688Y-109954757D01*
X198005633Y-109964862D01*
X197707315Y-110263181D01*
X197645992Y-110296666D01*
X197619634Y-110299500D01*
X196935504Y-110299500D01*
X196919493Y-110297732D01*
X196919471Y-110297974D01*
X196911704Y-110297240D01*
X196911703Y-110297240D01*
X196841737Y-110299439D01*
X196837842Y-110299500D01*
X196809757Y-110299500D01*
X196742718Y-110279815D01*
X196696963Y-110227011D01*
X196687019Y-110157853D01*
X196716044Y-110094297D01*
X196722076Y-110087819D01*
X197117620Y-109692276D01*
X199073077Y-107736819D01*
X199134400Y-107703334D01*
X199160758Y-107700500D01*
X201473742Y-107700500D01*
X201540781Y-107720185D01*
X201565891Y-107741527D01*
X201594128Y-107772887D01*
X201594135Y-107772893D01*
X201747265Y-107884148D01*
X201747270Y-107884151D01*
X201920192Y-107961142D01*
X201920197Y-107961144D01*
X202105354Y-108000500D01*
X202105355Y-108000500D01*
X202294644Y-108000500D01*
X202294646Y-108000500D01*
X202479803Y-107961144D01*
X202652730Y-107884151D01*
X202805871Y-107772888D01*
X202932533Y-107632216D01*
X203027179Y-107468284D01*
X203085674Y-107288256D01*
X203105460Y-107100000D01*
X203085674Y-106911744D01*
X203027179Y-106731716D01*
X202932533Y-106567784D01*
X202805871Y-106427112D01*
X202746220Y-106383773D01*
X202652734Y-106315851D01*
X202652729Y-106315848D01*
X202479807Y-106238857D01*
X202479802Y-106238855D01*
X202334001Y-106207865D01*
X202294646Y-106199500D01*
X202105354Y-106199500D01*
X202072897Y-106206398D01*
X201920197Y-106238855D01*
X201920192Y-106238857D01*
X201747270Y-106315848D01*
X201747265Y-106315851D01*
X201594135Y-106427106D01*
X201594128Y-106427112D01*
X201565891Y-106458473D01*
X201506405Y-106495121D01*
X201473742Y-106499500D01*
X198908148Y-106499500D01*
X198891963Y-106498439D01*
X198860661Y-106494318D01*
X198821300Y-106499500D01*
X198703900Y-106514955D01*
X198703898Y-106514956D01*
X198557818Y-106575464D01*
X198432379Y-106671716D01*
X198413150Y-106696775D01*
X198402459Y-106708965D01*
X191448245Y-113663181D01*
X191386922Y-113696666D01*
X191360564Y-113699500D01*
X162647487Y-113699500D01*
X162631302Y-113698439D01*
X162600000Y-113694318D01*
X162560639Y-113699500D01*
X162443239Y-113714955D01*
X162443237Y-113714956D01*
X162297160Y-113775463D01*
X162171714Y-113871721D01*
X162152495Y-113896769D01*
X162141800Y-113908964D01*
X157287584Y-118763181D01*
X157226261Y-118796666D01*
X157199903Y-118799500D01*
X140600097Y-118799500D01*
X140533058Y-118779815D01*
X140512416Y-118763181D01*
X132836819Y-111087584D01*
X132803334Y-111026261D01*
X132800500Y-110999903D01*
X132800500Y-108547487D01*
X132801561Y-108531301D01*
X132805682Y-108499999D01*
X132805682Y-108499998D01*
X132785044Y-108343239D01*
X132785042Y-108343234D01*
X132724538Y-108197163D01*
X132724537Y-108197162D01*
X132724536Y-108197159D01*
X132699558Y-108164607D01*
X132699557Y-108164605D01*
X132628281Y-108071717D01*
X132603228Y-108052493D01*
X132591034Y-108041799D01*
X127241779Y-102692544D01*
X127208294Y-102631221D01*
X127205460Y-102604863D01*
X127205460Y-102600002D01*
X127203932Y-102585462D01*
X127185674Y-102411744D01*
X127127179Y-102231716D01*
X127032533Y-102067784D01*
X126905871Y-101927112D01*
X126905870Y-101927111D01*
X126752734Y-101815851D01*
X126752729Y-101815848D01*
X126579807Y-101738857D01*
X126579802Y-101738855D01*
X126434001Y-101707865D01*
X126394646Y-101699500D01*
X126205354Y-101699500D01*
X126172897Y-101706398D01*
X126020197Y-101738855D01*
X126020192Y-101738857D01*
X125847270Y-101815848D01*
X125847265Y-101815851D01*
X125694129Y-101927111D01*
X125567466Y-102067785D01*
X125472821Y-102231715D01*
X125472818Y-102231722D01*
X125430767Y-102361144D01*
X125414326Y-102411744D01*
X125394540Y-102600000D01*
X125414326Y-102788256D01*
X125414327Y-102788259D01*
X125472818Y-102968277D01*
X125472821Y-102968284D01*
X125567467Y-103132216D01*
X125633723Y-103205800D01*
X125694129Y-103272888D01*
X125847265Y-103384148D01*
X125847270Y-103384151D01*
X126020192Y-103461142D01*
X126020197Y-103461144D01*
X126205354Y-103500500D01*
X126299903Y-103500500D01*
X126366942Y-103520185D01*
X126387584Y-103536819D01*
X131563181Y-108712416D01*
X131596666Y-108773739D01*
X131599500Y-108800097D01*
X131599500Y-111252512D01*
X131598439Y-111268697D01*
X131594318Y-111299998D01*
X131594318Y-111300000D01*
X131599500Y-111339360D01*
X131599500Y-111339361D01*
X131614955Y-111456760D01*
X131614956Y-111456762D01*
X131674519Y-111600561D01*
X131675464Y-111602841D01*
X131771718Y-111728282D01*
X131795748Y-111746721D01*
X131796769Y-111747504D01*
X131808964Y-111758199D01*
X139841799Y-119791034D01*
X139852493Y-119803228D01*
X139871715Y-119828279D01*
X139871716Y-119828280D01*
X139871718Y-119828282D01*
X139997159Y-119924536D01*
X140143238Y-119985044D01*
X140221619Y-119995363D01*
X140299999Y-120005682D01*
X140300000Y-120005682D01*
X140331302Y-120001560D01*
X140347487Y-120000500D01*
X157452513Y-120000500D01*
X157468697Y-120001560D01*
X157500000Y-120005682D01*
X157500001Y-120005682D01*
X157552254Y-119998802D01*
X157656762Y-119985044D01*
X157802841Y-119924536D01*
X157928282Y-119828282D01*
X157947510Y-119803222D01*
X157958189Y-119791044D01*
X159749235Y-117999999D01*
X161844551Y-117999999D01*
X161852084Y-118095714D01*
X161852466Y-118105443D01*
X161852466Y-118125734D01*
X161855638Y-118145762D01*
X161856783Y-118155429D01*
X161860464Y-118202197D01*
X161864317Y-118251148D01*
X161864317Y-118251151D01*
X161864318Y-118251153D01*
X161886728Y-118344500D01*
X161888627Y-118354046D01*
X161891802Y-118374090D01*
X161898072Y-118393390D01*
X161900714Y-118402756D01*
X161923127Y-118496114D01*
X161959866Y-118584809D01*
X161963234Y-118593937D01*
X161968194Y-118609199D01*
X161969507Y-118613240D01*
X161969508Y-118613243D01*
X161969509Y-118613244D01*
X161978716Y-118631315D01*
X161982790Y-118640153D01*
X162019532Y-118728857D01*
X162069702Y-118810728D01*
X162074456Y-118819216D01*
X162080137Y-118830364D01*
X162083666Y-118837290D01*
X162083667Y-118837291D01*
X162095587Y-118853698D01*
X162100993Y-118861790D01*
X162142871Y-118930127D01*
X162151164Y-118943659D01*
X162151168Y-118943663D01*
X162151171Y-118943668D01*
X162213512Y-119016660D01*
X162219539Y-119024304D01*
X162231468Y-119040723D01*
X162245813Y-119055068D01*
X162252422Y-119062217D01*
X162314776Y-119135224D01*
X162387790Y-119197584D01*
X162394924Y-119204179D01*
X162409276Y-119218531D01*
X162425694Y-119230459D01*
X162433327Y-119236476D01*
X162506341Y-119298836D01*
X162506343Y-119298837D01*
X162506344Y-119298838D01*
X162506345Y-119298839D01*
X162588202Y-119349001D01*
X162596295Y-119354408D01*
X162612710Y-119366334D01*
X162630798Y-119375550D01*
X162639260Y-119380289D01*
X162721141Y-119430466D01*
X162721146Y-119430468D01*
X162809843Y-119467208D01*
X162818684Y-119471283D01*
X162836760Y-119480493D01*
X162856066Y-119486766D01*
X162865166Y-119490122D01*
X162953889Y-119526873D01*
X163047247Y-119549286D01*
X163056610Y-119551927D01*
X163075910Y-119558198D01*
X163075914Y-119558199D01*
X163086176Y-119559824D01*
X163095954Y-119561372D01*
X163105477Y-119563265D01*
X163198852Y-119585683D01*
X163294591Y-119593217D01*
X163304196Y-119594354D01*
X163324271Y-119597534D01*
X163324275Y-119597534D01*
X163344557Y-119597534D01*
X163354284Y-119597915D01*
X163450000Y-119605449D01*
X163545715Y-119597915D01*
X163555443Y-119597534D01*
X163575725Y-119597534D01*
X163575729Y-119597534D01*
X163595803Y-119594354D01*
X163605408Y-119593217D01*
X163701148Y-119585683D01*
X163794527Y-119563264D01*
X163804040Y-119561373D01*
X163824090Y-119558198D01*
X163843400Y-119551923D01*
X163852745Y-119549287D01*
X163920118Y-119533113D01*
X163946096Y-119526877D01*
X163946100Y-119526875D01*
X163946111Y-119526873D01*
X164034855Y-119490113D01*
X164043921Y-119486770D01*
X164063240Y-119480493D01*
X164081341Y-119471270D01*
X164090123Y-119467221D01*
X164178859Y-119430466D01*
X164260744Y-119380286D01*
X164269193Y-119375554D01*
X164287290Y-119366334D01*
X164303714Y-119354401D01*
X164311780Y-119349011D01*
X164349512Y-119325889D01*
X173613109Y-119325889D01*
X173613152Y-119350000D01*
X173613193Y-119350099D01*
X173613310Y-119350383D01*
X173613311Y-119350384D01*
X173613501Y-119350462D01*
X173613693Y-119350541D01*
X173613695Y-119350539D01*
X173638309Y-119350524D01*
X173638309Y-119350528D01*
X173638453Y-119350500D01*
X183725240Y-119350500D01*
X183725383Y-119350528D01*
X183725384Y-119350524D01*
X183749997Y-119350539D01*
X183750000Y-119350541D01*
X183750383Y-119350383D01*
X183750500Y-119350099D01*
X183750541Y-119350000D01*
X183750540Y-119349997D01*
X183750583Y-119325889D01*
X183750500Y-119325467D01*
X183750500Y-116374759D01*
X183750528Y-116374616D01*
X183750524Y-116374616D01*
X183750539Y-116350002D01*
X183750541Y-116350000D01*
X183750462Y-116349808D01*
X183750384Y-116349618D01*
X183750380Y-116349614D01*
X183750194Y-116349538D01*
X183750002Y-116349459D01*
X183725446Y-116349459D01*
X183725240Y-116349500D01*
X173638453Y-116349500D01*
X173638247Y-116349459D01*
X173613691Y-116349459D01*
X173613500Y-116349538D01*
X173613312Y-116349615D01*
X173613308Y-116349618D01*
X173613152Y-116349999D01*
X173613169Y-116374616D01*
X173613164Y-116374616D01*
X173613193Y-116374759D01*
X173613193Y-119325467D01*
X173613109Y-119325889D01*
X164349512Y-119325889D01*
X164393659Y-119298836D01*
X164466688Y-119236462D01*
X164474282Y-119230476D01*
X164490724Y-119218531D01*
X164505083Y-119204171D01*
X164512194Y-119197596D01*
X164585224Y-119135224D01*
X164647596Y-119062194D01*
X164654171Y-119055083D01*
X164668531Y-119040724D01*
X164680476Y-119024282D01*
X164686462Y-119016688D01*
X164748836Y-118943659D01*
X164799011Y-118861780D01*
X164804401Y-118853714D01*
X164816334Y-118837290D01*
X164825554Y-118819193D01*
X164830296Y-118810728D01*
X164880466Y-118728859D01*
X164917221Y-118640123D01*
X164921270Y-118631341D01*
X164930493Y-118613240D01*
X164936770Y-118593921D01*
X164940113Y-118584855D01*
X164976873Y-118496111D01*
X164977315Y-118494273D01*
X164986438Y-118456269D01*
X164999287Y-118402745D01*
X165001926Y-118393392D01*
X165008197Y-118374093D01*
X165008199Y-118374084D01*
X165009098Y-118368405D01*
X165011373Y-118354040D01*
X165013264Y-118344527D01*
X165035683Y-118251148D01*
X165043217Y-118155411D01*
X165044355Y-118145800D01*
X165047534Y-118125729D01*
X165048119Y-118095864D01*
X165048475Y-118088599D01*
X165055449Y-118000000D01*
X165048476Y-117911402D01*
X165048119Y-117904119D01*
X165047534Y-117874278D01*
X165047534Y-117874271D01*
X165044355Y-117854199D01*
X165043216Y-117844571D01*
X165035683Y-117748852D01*
X165013265Y-117655477D01*
X165011371Y-117645946D01*
X165008199Y-117625914D01*
X165008198Y-117625910D01*
X165001927Y-117606610D01*
X164999283Y-117597236D01*
X164992213Y-117567788D01*
X164976873Y-117503889D01*
X164940122Y-117415166D01*
X164936766Y-117406066D01*
X164930493Y-117386760D01*
X164921282Y-117368682D01*
X164917208Y-117359843D01*
X164880468Y-117271146D01*
X164880466Y-117271141D01*
X164830289Y-117189260D01*
X164825547Y-117180792D01*
X164816334Y-117162710D01*
X164804408Y-117146295D01*
X164799001Y-117138202D01*
X164748839Y-117056345D01*
X164748838Y-117056344D01*
X164748837Y-117056343D01*
X164748836Y-117056341D01*
X164686476Y-116983327D01*
X164680459Y-116975694D01*
X164680458Y-116975692D01*
X164668531Y-116959276D01*
X164654173Y-116944918D01*
X164647584Y-116937790D01*
X164585224Y-116864776D01*
X164539359Y-116825604D01*
X164512217Y-116802422D01*
X164505068Y-116795813D01*
X164490723Y-116781468D01*
X164474304Y-116769539D01*
X164466660Y-116763512D01*
X164393668Y-116701171D01*
X164393663Y-116701168D01*
X164393659Y-116701164D01*
X164380127Y-116692871D01*
X164311790Y-116650993D01*
X164303698Y-116645587D01*
X164287291Y-116633667D01*
X164287292Y-116633667D01*
X164287290Y-116633666D01*
X164280364Y-116630137D01*
X164269216Y-116624456D01*
X164260728Y-116619702D01*
X164178857Y-116569532D01*
X164090153Y-116532790D01*
X164081315Y-116528716D01*
X164063244Y-116519509D01*
X164063243Y-116519508D01*
X164063240Y-116519507D01*
X164059199Y-116518194D01*
X164043937Y-116513234D01*
X164034809Y-116509866D01*
X163946114Y-116473127D01*
X163852756Y-116450714D01*
X163843390Y-116448072D01*
X163824090Y-116441802D01*
X163804046Y-116438627D01*
X163794500Y-116436728D01*
X163701152Y-116414318D01*
X163701153Y-116414318D01*
X163701151Y-116414317D01*
X163701148Y-116414317D01*
X163655531Y-116410726D01*
X163605429Y-116406783D01*
X163595762Y-116405638D01*
X163575734Y-116402466D01*
X163575729Y-116402466D01*
X163555443Y-116402466D01*
X163545715Y-116402084D01*
X163450000Y-116394551D01*
X163354284Y-116402084D01*
X163344557Y-116402466D01*
X163324272Y-116402466D01*
X163324271Y-116402466D01*
X163307612Y-116405104D01*
X163304237Y-116405639D01*
X163294571Y-116406783D01*
X163198851Y-116414317D01*
X163198844Y-116414318D01*
X163105499Y-116436728D01*
X163095953Y-116438627D01*
X163075913Y-116441801D01*
X163075904Y-116441803D01*
X163056615Y-116448071D01*
X163047244Y-116450714D01*
X162953891Y-116473125D01*
X162865185Y-116509868D01*
X162856059Y-116513235D01*
X162836757Y-116519507D01*
X162818682Y-116528716D01*
X162809851Y-116532787D01*
X162721141Y-116569534D01*
X162639275Y-116619700D01*
X162630792Y-116624451D01*
X162612716Y-116633662D01*
X162612709Y-116633667D01*
X162596298Y-116645589D01*
X162588212Y-116650991D01*
X162506339Y-116701165D01*
X162433332Y-116763518D01*
X162425692Y-116769541D01*
X162409276Y-116781468D01*
X162394918Y-116795825D01*
X162387777Y-116802425D01*
X162314775Y-116864775D01*
X162252425Y-116937777D01*
X162245825Y-116944918D01*
X162231468Y-116959276D01*
X162219541Y-116975692D01*
X162213518Y-116983332D01*
X162151165Y-117056339D01*
X162100991Y-117138212D01*
X162095589Y-117146298D01*
X162083667Y-117162709D01*
X162083662Y-117162716D01*
X162074451Y-117180792D01*
X162069700Y-117189275D01*
X162019534Y-117271141D01*
X161982787Y-117359851D01*
X161978716Y-117368682D01*
X161969507Y-117386757D01*
X161963235Y-117406059D01*
X161959868Y-117415185D01*
X161923125Y-117503891D01*
X161900714Y-117597244D01*
X161898071Y-117606615D01*
X161891803Y-117625904D01*
X161891801Y-117625913D01*
X161888627Y-117645953D01*
X161886728Y-117655499D01*
X161864318Y-117748844D01*
X161864317Y-117748851D01*
X161856783Y-117844571D01*
X161855639Y-117854237D01*
X161852466Y-117874271D01*
X161852466Y-117894555D01*
X161852084Y-117904284D01*
X161844551Y-117999999D01*
X159749235Y-117999999D01*
X162812416Y-114936819D01*
X162873739Y-114903334D01*
X162900097Y-114900500D01*
X190967692Y-114900500D01*
X191034731Y-114920185D01*
X191080486Y-114972989D01*
X191090430Y-115042147D01*
X191061405Y-115105703D01*
X191055373Y-115112181D01*
X185907739Y-120259813D01*
X185846416Y-120293298D01*
X185776724Y-120288314D01*
X185727908Y-120255104D01*
X185674068Y-120195309D01*
X185520932Y-120084049D01*
X185520927Y-120084046D01*
X185348005Y-120007055D01*
X185348000Y-120007053D01*
X185202199Y-119976063D01*
X185162844Y-119967698D01*
X184973552Y-119967698D01*
X184941095Y-119974596D01*
X184788395Y-120007053D01*
X184788390Y-120007055D01*
X184615468Y-120084046D01*
X184615463Y-120084049D01*
X184462327Y-120195309D01*
X184335664Y-120335983D01*
X184241019Y-120499913D01*
X184241016Y-120499920D01*
X184182525Y-120679937D01*
X184182524Y-120679939D01*
X184169029Y-120808340D01*
X184142444Y-120872955D01*
X184133389Y-120883059D01*
X179976266Y-125040184D01*
X179914943Y-125073669D01*
X179888585Y-125076503D01*
X144174500Y-125076503D01*
X144107461Y-125056818D01*
X144061706Y-125004014D01*
X144050500Y-124952503D01*
X144050500Y-124105104D01*
X144052268Y-124089091D01*
X144052026Y-124089069D01*
X144052758Y-124081313D01*
X144052760Y-124081306D01*
X144050561Y-124011338D01*
X144050500Y-124007443D01*
X144050500Y-123978679D01*
X144050499Y-123978672D01*
X144049949Y-123974318D01*
X144049030Y-123962656D01*
X144047597Y-123917033D01*
X144041676Y-123896655D01*
X144037731Y-123877606D01*
X144035071Y-123856544D01*
X144018263Y-123814093D01*
X144014480Y-123803044D01*
X144001743Y-123759202D01*
X143990940Y-123740936D01*
X143982378Y-123723458D01*
X143974568Y-123703731D01*
X143974565Y-123703727D01*
X143947730Y-123666791D01*
X143941331Y-123657050D01*
X143918081Y-123617737D01*
X143918079Y-123617735D01*
X143918078Y-123617733D01*
X143903075Y-123602731D01*
X143890435Y-123587932D01*
X143877961Y-123570762D01*
X143842780Y-123541658D01*
X143834140Y-123533796D01*
X143275007Y-122974663D01*
X143241522Y-122913340D01*
X143239367Y-122899942D01*
X143225873Y-122771546D01*
X143225871Y-122771541D01*
X143167378Y-122591517D01*
X143072732Y-122427585D01*
X142946070Y-122286913D01*
X142946069Y-122286912D01*
X142792933Y-122175652D01*
X142792928Y-122175649D01*
X142620006Y-122098658D01*
X142620001Y-122098656D01*
X142474200Y-122067666D01*
X142434845Y-122059301D01*
X142245553Y-122059301D01*
X142213096Y-122066199D01*
X142060396Y-122098656D01*
X142060391Y-122098658D01*
X141887469Y-122175649D01*
X141887464Y-122175652D01*
X141734328Y-122286912D01*
X141607665Y-122427586D01*
X141513020Y-122591516D01*
X141513017Y-122591523D01*
X141454526Y-122771541D01*
X141454525Y-122771545D01*
X141434739Y-122959801D01*
X141454525Y-123148057D01*
X141454526Y-123148060D01*
X141513017Y-123328078D01*
X141513020Y-123328085D01*
X141607666Y-123492017D01*
X141694029Y-123587932D01*
X141734328Y-123632689D01*
X141887464Y-123743949D01*
X141887469Y-123743952D01*
X142060391Y-123820943D01*
X142060396Y-123820945D01*
X142245553Y-123860301D01*
X142269391Y-123860301D01*
X142336430Y-123879986D01*
X142357072Y-123896620D01*
X142713181Y-124252729D01*
X142746666Y-124314052D01*
X142749500Y-124340410D01*
X142749500Y-125056081D01*
X142729815Y-125123120D01*
X142717650Y-125139053D01*
X142667466Y-125194788D01*
X142572821Y-125358718D01*
X142572818Y-125358725D01*
X142514327Y-125538743D01*
X142514326Y-125538747D01*
X142494540Y-125727003D01*
X142503530Y-125812539D01*
X142490960Y-125881269D01*
X142443228Y-125932292D01*
X142380209Y-125949500D01*
X136620808Y-125949500D01*
X136553769Y-125929815D01*
X136533127Y-125913181D01*
X133334808Y-122714862D01*
X133301323Y-122653539D01*
X133299168Y-122640141D01*
X133294058Y-122591523D01*
X133285674Y-122511744D01*
X133227179Y-122331716D01*
X133132533Y-122167784D01*
X133005871Y-122027112D01*
X132991616Y-122016755D01*
X132852734Y-121915851D01*
X132852729Y-121915848D01*
X132679807Y-121838857D01*
X132679802Y-121838855D01*
X132534001Y-121807865D01*
X132494646Y-121799500D01*
X132305354Y-121799500D01*
X132272897Y-121806398D01*
X132120197Y-121838855D01*
X132120192Y-121838857D01*
X131947270Y-121915848D01*
X131947265Y-121915851D01*
X131794129Y-122027111D01*
X131667466Y-122167785D01*
X131572821Y-122331715D01*
X131572818Y-122331722D01*
X131532066Y-122457145D01*
X131492628Y-122514821D01*
X131428270Y-122542019D01*
X131359423Y-122530104D01*
X131326454Y-122506508D01*
X129734808Y-120914862D01*
X129701323Y-120853539D01*
X129699168Y-120840141D01*
X129685674Y-120711745D01*
X129685672Y-120711740D01*
X129627179Y-120531716D01*
X129532533Y-120367784D01*
X129405871Y-120227112D01*
X129405870Y-120227111D01*
X129252734Y-120115851D01*
X129252729Y-120115848D01*
X129079807Y-120038857D01*
X129079802Y-120038855D01*
X128904342Y-120001561D01*
X128894646Y-119999500D01*
X128705354Y-119999500D01*
X128695658Y-120001561D01*
X128520197Y-120038855D01*
X128520192Y-120038857D01*
X128347270Y-120115848D01*
X128347265Y-120115851D01*
X128194129Y-120227111D01*
X128067466Y-120367785D01*
X127972821Y-120531715D01*
X127972818Y-120531722D01*
X127924660Y-120679939D01*
X127914326Y-120711744D01*
X127894540Y-120900000D01*
X127914326Y-121088256D01*
X127914327Y-121088259D01*
X127972818Y-121268277D01*
X127972821Y-121268284D01*
X128067467Y-121432216D01*
X128194129Y-121572888D01*
X128347265Y-121684148D01*
X128347270Y-121684151D01*
X128520192Y-121761142D01*
X128520197Y-121761144D01*
X128705354Y-121800500D01*
X128729192Y-121800500D01*
X128796231Y-121820185D01*
X128816873Y-121836819D01*
X131700681Y-124720627D01*
X131734166Y-124781950D01*
X131737000Y-124808308D01*
X131737000Y-127376476D01*
X131717315Y-127443515D01*
X131664511Y-127489270D01*
X131595353Y-127499214D01*
X131587220Y-127497766D01*
X131403960Y-127458814D01*
X131214668Y-127458814D01*
X131182211Y-127465712D01*
X131029511Y-127498169D01*
X131029506Y-127498171D01*
X130856584Y-127575162D01*
X130856579Y-127575165D01*
X130703443Y-127686425D01*
X130576779Y-127827099D01*
X130520257Y-127925000D01*
X130469690Y-127973216D01*
X130412870Y-127987000D01*
X127548006Y-127987000D01*
X127531995Y-127985232D01*
X127531973Y-127985474D01*
X127524206Y-127984739D01*
X127454224Y-127986939D01*
X127450329Y-127987000D01*
X127421575Y-127987000D01*
X127421569Y-127987000D01*
X127421563Y-127987001D01*
X127417199Y-127987552D01*
X127405569Y-127988467D01*
X127359932Y-127989901D01*
X127359931Y-127989901D01*
X127339541Y-127995825D01*
X127320496Y-127999769D01*
X127299442Y-128002429D01*
X127256990Y-128019236D01*
X127245943Y-128023018D01*
X127202102Y-128035755D01*
X127202095Y-128035758D01*
X127183829Y-128046561D01*
X127166361Y-128055119D01*
X127146628Y-128062932D01*
X127109693Y-128089766D01*
X127099934Y-128096176D01*
X127060632Y-128119420D01*
X127045626Y-128134426D01*
X127030836Y-128147058D01*
X127013667Y-128159532D01*
X127013665Y-128159534D01*
X126984556Y-128194719D01*
X126976696Y-128203356D01*
X121116873Y-134063181D01*
X121055550Y-134096666D01*
X121029192Y-134099500D01*
X121005354Y-134099500D01*
X120972897Y-134106398D01*
X120820197Y-134138855D01*
X120820192Y-134138857D01*
X120647270Y-134215848D01*
X120647265Y-134215851D01*
X120494129Y-134327111D01*
X120367466Y-134467785D01*
X120272821Y-134631715D01*
X120272818Y-134631722D01*
X120214327Y-134811740D01*
X120214326Y-134811744D01*
X120194540Y-135000000D01*
X119750500Y-135000000D01*
X119750500Y-126220810D01*
X119770185Y-126153771D01*
X119786814Y-126133134D01*
X123559682Y-122360266D01*
X125173284Y-122360266D01*
X125332056Y-122415824D01*
X125499996Y-122434746D01*
X125500004Y-122434746D01*
X125667943Y-122415824D01*
X125826713Y-122360267D01*
X125826714Y-122360266D01*
X126353284Y-122360266D01*
X126512056Y-122415824D01*
X126679996Y-122434746D01*
X126680004Y-122434746D01*
X126847943Y-122415824D01*
X127006713Y-122360267D01*
X127006714Y-122360266D01*
X126680001Y-122033553D01*
X126680000Y-122033553D01*
X126353284Y-122360266D01*
X125826714Y-122360266D01*
X125500001Y-122033553D01*
X125500000Y-122033553D01*
X125173284Y-122360266D01*
X123559682Y-122360266D01*
X124571796Y-121348152D01*
X124633115Y-121314670D01*
X124702807Y-121319654D01*
X124758740Y-121361526D01*
X124783157Y-121426990D01*
X124776515Y-121476789D01*
X124764178Y-121512046D01*
X124764175Y-121512058D01*
X124745254Y-121679996D01*
X124745254Y-121680003D01*
X124764175Y-121847938D01*
X124764176Y-121847943D01*
X124819732Y-122006713D01*
X125113953Y-121712492D01*
X125400000Y-121712492D01*
X125438197Y-121765065D01*
X125484162Y-121780000D01*
X125515838Y-121780000D01*
X125561803Y-121765065D01*
X125600000Y-121712492D01*
X125600000Y-121647508D01*
X125561803Y-121594935D01*
X125515838Y-121580000D01*
X125484162Y-121580000D01*
X125438197Y-121594935D01*
X125400000Y-121647508D01*
X125400000Y-121712492D01*
X125113953Y-121712492D01*
X125412318Y-121414127D01*
X125473641Y-121380642D01*
X125543332Y-121385626D01*
X125587680Y-121414127D01*
X126090000Y-121916447D01*
X126293955Y-121712492D01*
X126580000Y-121712492D01*
X126618197Y-121765065D01*
X126664162Y-121780000D01*
X126695838Y-121780000D01*
X126741803Y-121765065D01*
X126780000Y-121712492D01*
X126780000Y-121680001D01*
X127033553Y-121680001D01*
X127360266Y-122006714D01*
X127360267Y-122006713D01*
X127415824Y-121847943D01*
X127434746Y-121680003D01*
X127434746Y-121679996D01*
X127415824Y-121512056D01*
X127360266Y-121353285D01*
X127033553Y-121679999D01*
X127033553Y-121680001D01*
X126780000Y-121680001D01*
X126780000Y-121647508D01*
X126741803Y-121594935D01*
X126695838Y-121580000D01*
X126664162Y-121580000D01*
X126618197Y-121594935D01*
X126580000Y-121647508D01*
X126580000Y-121712492D01*
X126293955Y-121712492D01*
X126916447Y-121090000D01*
X126414128Y-120587681D01*
X126383992Y-120532492D01*
X126580000Y-120532492D01*
X126618197Y-120585065D01*
X126664162Y-120600000D01*
X126695838Y-120600000D01*
X126741803Y-120585065D01*
X126780000Y-120532492D01*
X126780000Y-120500001D01*
X127033553Y-120500001D01*
X127360266Y-120826714D01*
X127360267Y-120826713D01*
X127415824Y-120667943D01*
X127434746Y-120500003D01*
X127434746Y-120499996D01*
X127415824Y-120332056D01*
X127360266Y-120173285D01*
X127033553Y-120499999D01*
X127033553Y-120500001D01*
X126780000Y-120500001D01*
X126780000Y-120467508D01*
X126741803Y-120414935D01*
X126695838Y-120400000D01*
X126664162Y-120400000D01*
X126618197Y-120414935D01*
X126580000Y-120467508D01*
X126580000Y-120532492D01*
X126383992Y-120532492D01*
X126380643Y-120526358D01*
X126385627Y-120456666D01*
X126414128Y-120412319D01*
X126680000Y-120146447D01*
X127006714Y-119819732D01*
X126847943Y-119764176D01*
X126847938Y-119764175D01*
X126680004Y-119745254D01*
X126679996Y-119745254D01*
X126512058Y-119764175D01*
X126512050Y-119764177D01*
X126476791Y-119776515D01*
X126407012Y-119780076D01*
X126346385Y-119745347D01*
X126314158Y-119683353D01*
X126320564Y-119613778D01*
X126348154Y-119571794D01*
X126883126Y-119036823D01*
X126944449Y-119003338D01*
X126970807Y-119000504D01*
X126994644Y-119000504D01*
X126994646Y-119000504D01*
X127179803Y-118961148D01*
X127352730Y-118884155D01*
X127505871Y-118772892D01*
X127632533Y-118632220D01*
X127727179Y-118468288D01*
X127785674Y-118288260D01*
X127805460Y-118100004D01*
X127785674Y-117911748D01*
X127727179Y-117731720D01*
X127632533Y-117567788D01*
X127505871Y-117427116D01*
X127496699Y-117420452D01*
X127352734Y-117315855D01*
X127352729Y-117315852D01*
X127179807Y-117238861D01*
X127179802Y-117238859D01*
X127034001Y-117207869D01*
X126994646Y-117199504D01*
X126805354Y-117199504D01*
X126772897Y-117206402D01*
X126620197Y-117238859D01*
X126620192Y-117238861D01*
X126447270Y-117315852D01*
X126447265Y-117315855D01*
X126294129Y-117427115D01*
X126167466Y-117567789D01*
X126072821Y-117731719D01*
X126072818Y-117731726D01*
X126014327Y-117911743D01*
X126014326Y-117911745D01*
X126000831Y-118040146D01*
X125974246Y-118104761D01*
X125965191Y-118114865D01*
X118700483Y-125379573D01*
X118687901Y-125389655D01*
X118688056Y-125389842D01*
X118682897Y-125394109D01*
X118681705Y-125394620D01*
X118679265Y-125396576D01*
X118675488Y-125398974D01*
X118674647Y-125397650D01*
X118618692Y-125421668D01*
X118549780Y-125410140D01*
X118516188Y-125386242D01*
X118503070Y-125373124D01*
X118490435Y-125358330D01*
X118477961Y-125341160D01*
X118442780Y-125312056D01*
X118434140Y-125304194D01*
X108834808Y-115704862D01*
X108801323Y-115643539D01*
X108799168Y-115630141D01*
X108794608Y-115586757D01*
X108785674Y-115501744D01*
X108732541Y-115338217D01*
X108727181Y-115321722D01*
X108727180Y-115321721D01*
X108727179Y-115321716D01*
X108632533Y-115157784D01*
X108505871Y-115017112D01*
X108498948Y-115012082D01*
X108352734Y-114905851D01*
X108352729Y-114905848D01*
X108179807Y-114828857D01*
X108179802Y-114828855D01*
X108034001Y-114797865D01*
X107994646Y-114789500D01*
X107805354Y-114789500D01*
X107772897Y-114796398D01*
X107620197Y-114828855D01*
X107620192Y-114828857D01*
X107447270Y-114905848D01*
X107447265Y-114905851D01*
X107294129Y-115017111D01*
X107167466Y-115157785D01*
X107072821Y-115321715D01*
X107072818Y-115321722D01*
X107014327Y-115501740D01*
X107014326Y-115501744D01*
X106994540Y-115690000D01*
X107014326Y-115878256D01*
X107014327Y-115878259D01*
X107072818Y-116058277D01*
X107072821Y-116058284D01*
X107167467Y-116222216D01*
X107282074Y-116349500D01*
X107294129Y-116362888D01*
X107447265Y-116474148D01*
X107447270Y-116474151D01*
X107620192Y-116551142D01*
X107620197Y-116551144D01*
X107805354Y-116590500D01*
X107829192Y-116590500D01*
X107896231Y-116610185D01*
X107916873Y-116626819D01*
X117313181Y-126023127D01*
X117346666Y-126084450D01*
X117349500Y-126110808D01*
X117349500Y-126929078D01*
X117329815Y-126996117D01*
X117317650Y-127012050D01*
X117267466Y-127067785D01*
X117172821Y-127231715D01*
X117172818Y-127231722D01*
X117114327Y-127411739D01*
X117114326Y-127411741D01*
X117100831Y-127540142D01*
X117074246Y-127604757D01*
X117065191Y-127614861D01*
X113666873Y-131013181D01*
X113605550Y-131046666D01*
X113579192Y-131049500D01*
X108576975Y-131049500D01*
X108509936Y-131029815D01*
X108504090Y-131025818D01*
X108352734Y-130915851D01*
X108352729Y-130915848D01*
X108179807Y-130838857D01*
X108179802Y-130838855D01*
X108034001Y-130807865D01*
X107994646Y-130799500D01*
X107805354Y-130799500D01*
X107772897Y-130806398D01*
X107620197Y-130838855D01*
X107620192Y-130838857D01*
X107447270Y-130915848D01*
X107447265Y-130915851D01*
X107294129Y-131027111D01*
X107167466Y-131167785D01*
X107072821Y-131331715D01*
X107072818Y-131331722D01*
X107014813Y-131510244D01*
X107014326Y-131511744D01*
X106994540Y-131700000D01*
X101297015Y-131700000D01*
X100935399Y-131397942D01*
X100934281Y-131396998D01*
X100427337Y-130963290D01*
X100425550Y-130961731D01*
X100243107Y-130799500D01*
X99990615Y-130574980D01*
X99989700Y-130574157D01*
X99495300Y-130124703D01*
X99493487Y-130123021D01*
X99071753Y-129723983D01*
X99070841Y-129723111D01*
X98589285Y-129258092D01*
X98587452Y-129256286D01*
X98256028Y-128922678D01*
X98179288Y-128845432D01*
X98178604Y-128844736D01*
X97710039Y-128364169D01*
X97708207Y-128362249D01*
X97559831Y-128203356D01*
X97314282Y-127940402D01*
X97313871Y-127939958D01*
X96907965Y-127497766D01*
X96858494Y-127443872D01*
X96856640Y-127441806D01*
X96477849Y-127010145D01*
X96477219Y-127009423D01*
X96294770Y-126798238D01*
X96035328Y-126497932D01*
X96033544Y-126495817D01*
X95670253Y-126055040D01*
X95669731Y-126054401D01*
X95403670Y-125727003D01*
X95241446Y-125527379D01*
X95239613Y-125525068D01*
X95142074Y-125398974D01*
X94892837Y-125076771D01*
X94892384Y-125076181D01*
X94864888Y-125040184D01*
X94477513Y-124533035D01*
X94475675Y-124530566D01*
X94318649Y-124314052D01*
X94146333Y-124076456D01*
X94146051Y-124076065D01*
X94098237Y-124009398D01*
X93744186Y-123515743D01*
X93742404Y-123513188D01*
X93431855Y-123055873D01*
X93431572Y-123055454D01*
X93356353Y-122943613D01*
X93042304Y-122476660D01*
X93040512Y-122473917D01*
X93029865Y-122457145D01*
X92750418Y-122016929D01*
X92372339Y-121416487D01*
X92370661Y-121413738D01*
X92104356Y-120964070D01*
X92057134Y-120883812D01*
X91735099Y-120336491D01*
X91733383Y-120333478D01*
X91711236Y-120293298D01*
X91497847Y-119906154D01*
X91131032Y-119237440D01*
X91129362Y-119234286D01*
X90943689Y-118871309D01*
X90560778Y-118120483D01*
X90559211Y-118117294D01*
X90555409Y-118109257D01*
X90553606Y-118105443D01*
X90115052Y-117177484D01*
X90104204Y-117108461D01*
X90132394Y-117044531D01*
X90190673Y-117005990D01*
X90227162Y-117000500D01*
X94454008Y-117000500D01*
X94469538Y-117002921D01*
X94474664Y-117000551D01*
X94474772Y-117000215D01*
X94474773Y-117000215D01*
X94474772Y-117000214D01*
X94474871Y-116999908D01*
X94472493Y-116994764D01*
X94469453Y-116987353D01*
X94465612Y-116982010D01*
X94446955Y-116944918D01*
X94429327Y-116909870D01*
X94050988Y-116148256D01*
X94050202Y-116146641D01*
X94021529Y-116086690D01*
X93915795Y-115865612D01*
X93915015Y-115863949D01*
X93559610Y-115091391D01*
X93559455Y-115091051D01*
X93518882Y-115001685D01*
X93517873Y-114999361D01*
X93517822Y-114999341D01*
X93517821Y-114999341D01*
X93508736Y-114995820D01*
X93491298Y-114999500D01*
X89271109Y-114999500D01*
X89204070Y-114979815D01*
X89158315Y-114927011D01*
X89155086Y-114919258D01*
X89117479Y-114819545D01*
X89117366Y-114819244D01*
X89106236Y-114789500D01*
X88778601Y-113913910D01*
X88777666Y-113911318D01*
X88626249Y-113476035D01*
X88626037Y-113475417D01*
X88395154Y-112794700D01*
X88394488Y-112792679D01*
X88242227Y-112315509D01*
X88241757Y-112314002D01*
X88241069Y-112311745D01*
X88040919Y-111655275D01*
X88040506Y-111653889D01*
X87900622Y-111172847D01*
X87900094Y-111170967D01*
X87711860Y-110477001D01*
X87711763Y-110476637D01*
X87594536Y-110030775D01*
X87593841Y-110028001D01*
X87576397Y-109954757D01*
X87369278Y-109085098D01*
X87361701Y-109052913D01*
X87365499Y-108983149D01*
X87406412Y-108926512D01*
X87471452Y-108900984D01*
X87482401Y-108900500D01*
X91398303Y-108900500D01*
X91414829Y-108905097D01*
X91430656Y-108901178D01*
X91433891Y-108900449D01*
X91434510Y-108899422D01*
X91431521Y-108890185D01*
X91424592Y-108860996D01*
X91408724Y-108794145D01*
X91408604Y-108793632D01*
X91235666Y-108049877D01*
X91235341Y-108048431D01*
X91171729Y-107756667D01*
X91171442Y-107755303D01*
X91019028Y-107006758D01*
X91018931Y-107006272D01*
X91014428Y-106983626D01*
X91000303Y-106912582D01*
X90999150Y-106900410D01*
X90996332Y-106898490D01*
X90985594Y-106899500D01*
X87039936Y-106899500D01*
X86972897Y-106879815D01*
X86927142Y-106827011D01*
X86917418Y-106794613D01*
X86917262Y-106793613D01*
X86926378Y-106724340D01*
X86971498Y-106670993D01*
X87038298Y-106650509D01*
X87039780Y-106650500D01*
X88745619Y-106650500D01*
X88745621Y-106650500D01*
X88745626Y-106650499D01*
X88745630Y-106650499D01*
X88758870Y-106648826D01*
X88867754Y-106635071D01*
X89020567Y-106574568D01*
X89029903Y-106567785D01*
X89153531Y-106477965D01*
X89153531Y-106477963D01*
X89153533Y-106477963D01*
X89258296Y-106351326D01*
X89328275Y-106202613D01*
X89359072Y-106041170D01*
X89348752Y-105877140D01*
X89297964Y-105720829D01*
X89290701Y-105709385D01*
X89266677Y-105671529D01*
X89209898Y-105582060D01*
X89176566Y-105550759D01*
X89090092Y-105469554D01*
X89090084Y-105469548D01*
X88946067Y-105390374D01*
X88946057Y-105390371D01*
X88786876Y-105349500D01*
X88786873Y-105349500D01*
X86813119Y-105349500D01*
X86746080Y-105329815D01*
X86700325Y-105277011D01*
X86690110Y-105241146D01*
X86681946Y-105176964D01*
X86601432Y-104523944D01*
X86601124Y-104521172D01*
X86544616Y-103948743D01*
X86486616Y-103320146D01*
X86486400Y-103317482D01*
X86484834Y-103295242D01*
X86445275Y-102733321D01*
X86445205Y-102732257D01*
X86445172Y-102731722D01*
X86407178Y-102113087D01*
X86407056Y-102110721D01*
X86405244Y-102067784D01*
X86382149Y-101520447D01*
X86382111Y-101519414D01*
X86363219Y-100903595D01*
X86363176Y-100901686D01*
X86354845Y-100309010D01*
X86354833Y-100307267D01*
X86354833Y-100000000D01*
X90544551Y-100000000D01*
X90547369Y-100035801D01*
X90552084Y-100095714D01*
X90552466Y-100105443D01*
X90552466Y-100125734D01*
X90555638Y-100145762D01*
X90556783Y-100155429D01*
X90558958Y-100183058D01*
X90564317Y-100251148D01*
X90564317Y-100251151D01*
X90564318Y-100251153D01*
X90586728Y-100344500D01*
X90588627Y-100354046D01*
X90591802Y-100374090D01*
X90598072Y-100393390D01*
X90600714Y-100402756D01*
X90623127Y-100496114D01*
X90659866Y-100584809D01*
X90663234Y-100593937D01*
X90668194Y-100609199D01*
X90669507Y-100613240D01*
X90669508Y-100613243D01*
X90669509Y-100613244D01*
X90678716Y-100631315D01*
X90682790Y-100640153D01*
X90719532Y-100728857D01*
X90769702Y-100810728D01*
X90774456Y-100819216D01*
X90780137Y-100830364D01*
X90783666Y-100837290D01*
X90783667Y-100837291D01*
X90795587Y-100853698D01*
X90800993Y-100861790D01*
X90842871Y-100930127D01*
X90851164Y-100943659D01*
X90851168Y-100943663D01*
X90851171Y-100943668D01*
X90913512Y-101016660D01*
X90919539Y-101024304D01*
X90931468Y-101040723D01*
X90945813Y-101055068D01*
X90952422Y-101062217D01*
X91014776Y-101135224D01*
X91087790Y-101197584D01*
X91094924Y-101204179D01*
X91109276Y-101218531D01*
X91125694Y-101230459D01*
X91133327Y-101236476D01*
X91206341Y-101298836D01*
X91206343Y-101298837D01*
X91206344Y-101298838D01*
X91206345Y-101298839D01*
X91288202Y-101349001D01*
X91296295Y-101354408D01*
X91312710Y-101366334D01*
X91330798Y-101375550D01*
X91339260Y-101380289D01*
X91421141Y-101430466D01*
X91421146Y-101430468D01*
X91509843Y-101467208D01*
X91518684Y-101471283D01*
X91536760Y-101480493D01*
X91556066Y-101486766D01*
X91565166Y-101490122D01*
X91653889Y-101526873D01*
X91747247Y-101549286D01*
X91756610Y-101551927D01*
X91775910Y-101558198D01*
X91775914Y-101558199D01*
X91786176Y-101559824D01*
X91795954Y-101561372D01*
X91805477Y-101563265D01*
X91898852Y-101585683D01*
X91994591Y-101593217D01*
X92004196Y-101594354D01*
X92024271Y-101597534D01*
X92024275Y-101597534D01*
X92044557Y-101597534D01*
X92054284Y-101597915D01*
X92150000Y-101605449D01*
X92245715Y-101597915D01*
X92255443Y-101597534D01*
X92275725Y-101597534D01*
X92275729Y-101597534D01*
X92295803Y-101594354D01*
X92305408Y-101593217D01*
X92401148Y-101585683D01*
X92494527Y-101563264D01*
X92504040Y-101561373D01*
X92524090Y-101558198D01*
X92543400Y-101551923D01*
X92552745Y-101549287D01*
X92620118Y-101533113D01*
X92646096Y-101526877D01*
X92646100Y-101526875D01*
X92646111Y-101526873D01*
X92734855Y-101490113D01*
X92743921Y-101486770D01*
X92763240Y-101480493D01*
X92781341Y-101471270D01*
X92790123Y-101467221D01*
X92878859Y-101430466D01*
X92960744Y-101380286D01*
X92969193Y-101375554D01*
X92987290Y-101366334D01*
X93003714Y-101354401D01*
X93011780Y-101349011D01*
X93093659Y-101298836D01*
X93166688Y-101236462D01*
X93174282Y-101230476D01*
X93190724Y-101218531D01*
X93205083Y-101204171D01*
X93212194Y-101197596D01*
X93285224Y-101135224D01*
X93347596Y-101062194D01*
X93354171Y-101055083D01*
X93368531Y-101040724D01*
X93380476Y-101024282D01*
X93386462Y-101016688D01*
X93448836Y-100943659D01*
X93499011Y-100861780D01*
X93504401Y-100853714D01*
X93516334Y-100837290D01*
X93525554Y-100819193D01*
X93530296Y-100810728D01*
X93580466Y-100728859D01*
X93617221Y-100640123D01*
X93621270Y-100631341D01*
X93630493Y-100613240D01*
X93636770Y-100593921D01*
X93640113Y-100584855D01*
X93676873Y-100496111D01*
X93677315Y-100494273D01*
X93683113Y-100470118D01*
X93699287Y-100402745D01*
X93701926Y-100393392D01*
X93707187Y-100377203D01*
X93708198Y-100374090D01*
X93711373Y-100354040D01*
X93713264Y-100344527D01*
X93735683Y-100251148D01*
X93743217Y-100155411D01*
X93744355Y-100145800D01*
X93747534Y-100125729D01*
X93748119Y-100095864D01*
X93748475Y-100088599D01*
X93755449Y-100000000D01*
X135812717Y-100000000D01*
X135831971Y-101171308D01*
X135889713Y-102341356D01*
X135985879Y-103508851D01*
X136119814Y-104667784D01*
X136120369Y-104672584D01*
X136206094Y-105247848D01*
X136293033Y-105831257D01*
X136503687Y-106983633D01*
X136752104Y-108128464D01*
X137038002Y-109264465D01*
X137038010Y-109264492D01*
X137343147Y-110327945D01*
X137361110Y-110390547D01*
X137721030Y-111505325D01*
X138117402Y-112607689D01*
X138349641Y-113192456D01*
X138549798Y-113696443D01*
X139017741Y-114770390D01*
X139017751Y-114770411D01*
X139520723Y-115828366D01*
X139578685Y-115940609D01*
X139734345Y-116242047D01*
X139766410Y-116304140D01*
X139766424Y-116304215D01*
X139789462Y-116348824D01*
X139789462Y-116348825D01*
X139874369Y-116513235D01*
X139874484Y-116513456D01*
X139874489Y-116513465D01*
X139942463Y-116619700D01*
X140074208Y-116825604D01*
X140301927Y-117117949D01*
X140301932Y-117117955D01*
X140537546Y-117368682D01*
X140555703Y-117388003D01*
X140833352Y-117633438D01*
X141132499Y-117852157D01*
X141132501Y-117852158D01*
X141132505Y-117852161D01*
X141450570Y-118042280D01*
X141450590Y-118042291D01*
X141784873Y-118202197D01*
X141784877Y-118202198D01*
X141784880Y-118202200D01*
X142132527Y-118330528D01*
X142415069Y-118406006D01*
X142490548Y-118426170D01*
X142780377Y-118475467D01*
X142855878Y-118488309D01*
X143225387Y-118516411D01*
X143225390Y-118516410D01*
X143225391Y-118516411D01*
X143247181Y-118516047D01*
X143595912Y-118510237D01*
X143964280Y-118469839D01*
X144327336Y-118395563D01*
X144681973Y-118288046D01*
X144681980Y-118288042D01*
X144681986Y-118288041D01*
X144772524Y-118251148D01*
X145025152Y-118148207D01*
X145068371Y-118125734D01*
X145125814Y-118095864D01*
X145353935Y-117977244D01*
X145665508Y-117776622D01*
X145957202Y-117548058D01*
X146091871Y-117420795D01*
X146092235Y-117420452D01*
X146092234Y-117420451D01*
X146129842Y-117385014D01*
X146130268Y-117384504D01*
X159101994Y-105125083D01*
X159164235Y-105093344D01*
X159233758Y-105100293D01*
X159288488Y-105143726D01*
X159301926Y-105168243D01*
X159369464Y-105333284D01*
X159369468Y-105333293D01*
X159678020Y-105983626D01*
X159678023Y-105983632D01*
X160017993Y-106609627D01*
X160021564Y-106616202D01*
X160399059Y-107229107D01*
X160537287Y-107428340D01*
X160726112Y-107700500D01*
X160809391Y-107820532D01*
X161251340Y-108388720D01*
X161696816Y-108901178D01*
X161723603Y-108931992D01*
X161950414Y-109165848D01*
X162196415Y-109419491D01*
X162224763Y-109448719D01*
X162753315Y-109937352D01*
X162753318Y-109937354D01*
X163307718Y-110396467D01*
X163307721Y-110396469D01*
X163886312Y-110824690D01*
X163886317Y-110824693D01*
X163886318Y-110824694D01*
X164487393Y-111220756D01*
X165109155Y-111583478D01*
X165109175Y-111583488D01*
X165109182Y-111583492D01*
X165290410Y-111676369D01*
X165749759Y-111911781D01*
X166407300Y-112204690D01*
X166985790Y-112425449D01*
X167059398Y-112453539D01*
X167079825Y-112461334D01*
X167765335Y-112680951D01*
X168461794Y-112862889D01*
X168461813Y-112862892D01*
X168461822Y-112862895D01*
X169167105Y-113006601D01*
X169167113Y-113006602D01*
X169167132Y-113006606D01*
X169879253Y-113111675D01*
X170596041Y-113177785D01*
X171315367Y-113204740D01*
X172035092Y-113192458D01*
X172753080Y-113140976D01*
X173467195Y-113050448D01*
X174175316Y-112921143D01*
X174875340Y-112753444D01*
X175565186Y-112547849D01*
X175565202Y-112547843D01*
X175565207Y-112547842D01*
X176040817Y-112377369D01*
X176242804Y-112304971D01*
X176906180Y-112025530D01*
X177553345Y-111710357D01*
X177753112Y-111599214D01*
X178182362Y-111360395D01*
X178182365Y-111360393D01*
X178182364Y-111360393D01*
X178182374Y-111360388D01*
X178791399Y-110976663D01*
X179378610Y-110560323D01*
X179378617Y-110560316D01*
X179378626Y-110560311D01*
X179909964Y-110138259D01*
X179942262Y-110112604D01*
X180480681Y-109634837D01*
X180992266Y-109128441D01*
X181475497Y-108594922D01*
X181928940Y-108035863D01*
X182351245Y-107452928D01*
X182741159Y-106847847D01*
X183097523Y-106222418D01*
X183419278Y-105578501D01*
X183705467Y-104918007D01*
X183955242Y-104242901D01*
X184167858Y-103555187D01*
X184176622Y-103520185D01*
X184342681Y-102856930D01*
X184342681Y-102856929D01*
X184342686Y-102856910D01*
X184479204Y-102150143D01*
X184577008Y-101436988D01*
X184635807Y-100719563D01*
X184655426Y-100000000D01*
X184635807Y-99280437D01*
X184577008Y-98563012D01*
X184479204Y-97849857D01*
X184342686Y-97143090D01*
X184334437Y-97110142D01*
X184167861Y-96444823D01*
X184167854Y-96444799D01*
X184061643Y-96101258D01*
X183955242Y-95757099D01*
X183705467Y-95081993D01*
X183419278Y-94421499D01*
X183097523Y-93777582D01*
X183097523Y-93777581D01*
X182741164Y-93152162D01*
X182741159Y-93152153D01*
X182351245Y-92547072D01*
X181928940Y-91964137D01*
X181928935Y-91964130D01*
X181928930Y-91964124D01*
X181475504Y-91405086D01*
X181416843Y-91340320D01*
X180992266Y-90871559D01*
X180480681Y-90365163D01*
X180480677Y-90365159D01*
X180139765Y-90062651D01*
X179942262Y-89887396D01*
X179942247Y-89887384D01*
X179942234Y-89887373D01*
X179378626Y-89439688D01*
X178832370Y-89052386D01*
X178791399Y-89023337D01*
X178403993Y-88779246D01*
X178182365Y-88639606D01*
X178182362Y-88639604D01*
X177553352Y-88289646D01*
X177152904Y-88094626D01*
X176906180Y-87974470D01*
X176833442Y-87943830D01*
X176242816Y-87695034D01*
X176242786Y-87695022D01*
X175565207Y-87452157D01*
X175565195Y-87452154D01*
X175565191Y-87452152D01*
X175565186Y-87452151D01*
X174875340Y-87246556D01*
X174875338Y-87246555D01*
X174875333Y-87246554D01*
X174175337Y-87078861D01*
X174175325Y-87078859D01*
X174175322Y-87078858D01*
X174175316Y-87078857D01*
X173826757Y-87015209D01*
X173467198Y-86949552D01*
X173467186Y-86949550D01*
X172753076Y-86859023D01*
X172753066Y-86859022D01*
X172035110Y-86807543D01*
X172035100Y-86807542D01*
X172035092Y-86807542D01*
X171966634Y-86806373D01*
X171315375Y-86795259D01*
X170596050Y-86822214D01*
X169879256Y-86888324D01*
X169879251Y-86888325D01*
X169366497Y-86963978D01*
X169167132Y-86993394D01*
X169167129Y-86993394D01*
X169167126Y-86993395D01*
X169167105Y-86993398D01*
X168461822Y-87137104D01*
X168461784Y-87137113D01*
X167765333Y-87319049D01*
X167079809Y-87538671D01*
X166407289Y-87795314D01*
X165749752Y-88088222D01*
X165109182Y-88416507D01*
X165109156Y-88416521D01*
X164487390Y-88779246D01*
X164487383Y-88779250D01*
X163886312Y-89175309D01*
X163307721Y-89603530D01*
X162753318Y-90062645D01*
X162753315Y-90062647D01*
X162224763Y-90551280D01*
X161723603Y-91068007D01*
X161251343Y-91611276D01*
X161251340Y-91611280D01*
X160809388Y-92179471D01*
X160403397Y-92764640D01*
X160399059Y-92770893D01*
X160247865Y-93016374D01*
X160021561Y-93383802D01*
X160021554Y-93383815D01*
X159678023Y-94016367D01*
X159678020Y-94016373D01*
X159369468Y-94666706D01*
X159369464Y-94666715D01*
X159301927Y-94831755D01*
X159258318Y-94886345D01*
X159192119Y-94908693D01*
X159124346Y-94891703D01*
X159101992Y-94874913D01*
X146153327Y-82637286D01*
X146153104Y-82636905D01*
X146091871Y-82579205D01*
X146091768Y-82579108D01*
X146083299Y-82571109D01*
X146082720Y-82570660D01*
X145957151Y-82452005D01*
X145937122Y-82436312D01*
X145665456Y-82223454D01*
X145665455Y-82223453D01*
X145665452Y-82223451D01*
X145665450Y-82223449D01*
X145353897Y-82022851D01*
X145353882Y-82022843D01*
X145309950Y-82000000D01*
X161844551Y-82000000D01*
X161848779Y-82053719D01*
X161852084Y-82095714D01*
X161852466Y-82105443D01*
X161852466Y-82125734D01*
X161855638Y-82145762D01*
X161856783Y-82155429D01*
X161860726Y-82205531D01*
X161864317Y-82251148D01*
X161864317Y-82251151D01*
X161864318Y-82251153D01*
X161886728Y-82344500D01*
X161888627Y-82354046D01*
X161891802Y-82374090D01*
X161898072Y-82393390D01*
X161900714Y-82402756D01*
X161923127Y-82496114D01*
X161959866Y-82584809D01*
X161963234Y-82593937D01*
X161968194Y-82609199D01*
X161969507Y-82613240D01*
X161969508Y-82613243D01*
X161969509Y-82613244D01*
X161978716Y-82631315D01*
X161982790Y-82640153D01*
X162019532Y-82728857D01*
X162069702Y-82810728D01*
X162074456Y-82819216D01*
X162080137Y-82830364D01*
X162083666Y-82837290D01*
X162083667Y-82837291D01*
X162095587Y-82853698D01*
X162100993Y-82861790D01*
X162140962Y-82927011D01*
X162151164Y-82943659D01*
X162151168Y-82943663D01*
X162151171Y-82943668D01*
X162213512Y-83016660D01*
X162219539Y-83024304D01*
X162231468Y-83040723D01*
X162245813Y-83055068D01*
X162252422Y-83062217D01*
X162314776Y-83135224D01*
X162387790Y-83197584D01*
X162394924Y-83204179D01*
X162409276Y-83218531D01*
X162425694Y-83230459D01*
X162433327Y-83236476D01*
X162506341Y-83298836D01*
X162506343Y-83298837D01*
X162506344Y-83298838D01*
X162506345Y-83298839D01*
X162588202Y-83349001D01*
X162596295Y-83354408D01*
X162612710Y-83366334D01*
X162630798Y-83375550D01*
X162639260Y-83380289D01*
X162721141Y-83430466D01*
X162721146Y-83430468D01*
X162809843Y-83467208D01*
X162818684Y-83471283D01*
X162836760Y-83480493D01*
X162856066Y-83486766D01*
X162865166Y-83490122D01*
X162953889Y-83526873D01*
X163047247Y-83549286D01*
X163056610Y-83551927D01*
X163075910Y-83558198D01*
X163075914Y-83558199D01*
X163086176Y-83559824D01*
X163095954Y-83561372D01*
X163105477Y-83563265D01*
X163198852Y-83585683D01*
X163294591Y-83593217D01*
X163304196Y-83594354D01*
X163324271Y-83597534D01*
X163324275Y-83597534D01*
X163344557Y-83597534D01*
X163354284Y-83597915D01*
X163450000Y-83605449D01*
X163545715Y-83597915D01*
X163555443Y-83597534D01*
X163575725Y-83597534D01*
X163575729Y-83597534D01*
X163595803Y-83594354D01*
X163605408Y-83593217D01*
X163701148Y-83585683D01*
X163794527Y-83563264D01*
X163804040Y-83561373D01*
X163824090Y-83558198D01*
X163843400Y-83551923D01*
X163852745Y-83549287D01*
X163920118Y-83533113D01*
X163946096Y-83526877D01*
X163946100Y-83526875D01*
X163946111Y-83526873D01*
X164034855Y-83490113D01*
X164043921Y-83486770D01*
X164063240Y-83480493D01*
X164081341Y-83471270D01*
X164090123Y-83467221D01*
X164178859Y-83430466D01*
X164260744Y-83380286D01*
X164269193Y-83375554D01*
X164287290Y-83366334D01*
X164303714Y-83354401D01*
X164311780Y-83349011D01*
X164393659Y-83298836D01*
X164466688Y-83236462D01*
X164474282Y-83230476D01*
X164490724Y-83218531D01*
X164505083Y-83204171D01*
X164512194Y-83197596D01*
X164585224Y-83135224D01*
X164647596Y-83062194D01*
X164654171Y-83055083D01*
X164668531Y-83040724D01*
X164680476Y-83024282D01*
X164686462Y-83016688D01*
X164748836Y-82943659D01*
X164799011Y-82861780D01*
X164804401Y-82853714D01*
X164816334Y-82837290D01*
X164825554Y-82819193D01*
X164830296Y-82810728D01*
X164880466Y-82728859D01*
X164917221Y-82640123D01*
X164921270Y-82631341D01*
X164930493Y-82613240D01*
X164936770Y-82593921D01*
X164940113Y-82584855D01*
X164976873Y-82496111D01*
X164977315Y-82494273D01*
X164991229Y-82436312D01*
X164999287Y-82402745D01*
X165001926Y-82393392D01*
X165008197Y-82374093D01*
X165008199Y-82374084D01*
X165009378Y-82366638D01*
X165011373Y-82354040D01*
X165013264Y-82344527D01*
X165035683Y-82251148D01*
X165043217Y-82155411D01*
X165044355Y-82145800D01*
X165047534Y-82125729D01*
X165048119Y-82095864D01*
X165048475Y-82088599D01*
X165055449Y-82000000D01*
X165048476Y-81911402D01*
X165048119Y-81904119D01*
X165047534Y-81874278D01*
X165047534Y-81874271D01*
X165044355Y-81854199D01*
X165043216Y-81844571D01*
X165035683Y-81748852D01*
X165013265Y-81655477D01*
X165011371Y-81645946D01*
X165008199Y-81625914D01*
X165008198Y-81625910D01*
X165001927Y-81606610D01*
X164999283Y-81597236D01*
X164986468Y-81543858D01*
X164976873Y-81503889D01*
X164940122Y-81415166D01*
X164936766Y-81406066D01*
X164930493Y-81386760D01*
X164921282Y-81368682D01*
X164917208Y-81359843D01*
X164880468Y-81271146D01*
X164880466Y-81271141D01*
X164830289Y-81189260D01*
X164825547Y-81180792D01*
X164816334Y-81162710D01*
X164804408Y-81146295D01*
X164799001Y-81138202D01*
X164748839Y-81056345D01*
X164748838Y-81056344D01*
X164748837Y-81056343D01*
X164748836Y-81056341D01*
X164686476Y-80983327D01*
X164680459Y-80975694D01*
X164680458Y-80975692D01*
X164668531Y-80959276D01*
X164654173Y-80944918D01*
X164647584Y-80937790D01*
X164585224Y-80864776D01*
X164512220Y-80802425D01*
X164512217Y-80802422D01*
X164505068Y-80795813D01*
X164490723Y-80781468D01*
X164474304Y-80769539D01*
X164466660Y-80763512D01*
X164393668Y-80701171D01*
X164393663Y-80701168D01*
X164393659Y-80701164D01*
X164380127Y-80692871D01*
X164311790Y-80650993D01*
X164303698Y-80645587D01*
X164287291Y-80633667D01*
X164287292Y-80633667D01*
X164287290Y-80633666D01*
X164280364Y-80630137D01*
X164269216Y-80624456D01*
X164260728Y-80619702D01*
X164178857Y-80569532D01*
X164090153Y-80532790D01*
X164081315Y-80528716D01*
X164063244Y-80519509D01*
X164063243Y-80519508D01*
X164063240Y-80519507D01*
X164059199Y-80518194D01*
X164043937Y-80513234D01*
X164034809Y-80509866D01*
X163946114Y-80473127D01*
X163852756Y-80450714D01*
X163843390Y-80448072D01*
X163824090Y-80441802D01*
X163804046Y-80438627D01*
X163794500Y-80436728D01*
X163701152Y-80414318D01*
X163701153Y-80414318D01*
X163701151Y-80414317D01*
X163701148Y-80414317D01*
X163655531Y-80410726D01*
X163605429Y-80406783D01*
X163595762Y-80405638D01*
X163575734Y-80402466D01*
X163575729Y-80402466D01*
X163555443Y-80402466D01*
X163545715Y-80402084D01*
X163450000Y-80394551D01*
X163354284Y-80402084D01*
X163344557Y-80402466D01*
X163324272Y-80402466D01*
X163324271Y-80402466D01*
X163307612Y-80405104D01*
X163304237Y-80405639D01*
X163294571Y-80406783D01*
X163198851Y-80414317D01*
X163198844Y-80414318D01*
X163105499Y-80436728D01*
X163095953Y-80438627D01*
X163075913Y-80441801D01*
X163075904Y-80441803D01*
X163056615Y-80448071D01*
X163047244Y-80450714D01*
X162953891Y-80473125D01*
X162865185Y-80509868D01*
X162856059Y-80513235D01*
X162836757Y-80519507D01*
X162818682Y-80528716D01*
X162809851Y-80532787D01*
X162721141Y-80569534D01*
X162639275Y-80619700D01*
X162630792Y-80624451D01*
X162612716Y-80633662D01*
X162612709Y-80633667D01*
X162596298Y-80645589D01*
X162588212Y-80650991D01*
X162506339Y-80701165D01*
X162433332Y-80763518D01*
X162425692Y-80769541D01*
X162409276Y-80781468D01*
X162394918Y-80795825D01*
X162387777Y-80802425D01*
X162314775Y-80864775D01*
X162252425Y-80937777D01*
X162245825Y-80944918D01*
X162231468Y-80959276D01*
X162219541Y-80975692D01*
X162213518Y-80983332D01*
X162151165Y-81056339D01*
X162100991Y-81138212D01*
X162095589Y-81146298D01*
X162083667Y-81162709D01*
X162083662Y-81162716D01*
X162074451Y-81180792D01*
X162069700Y-81189275D01*
X162019534Y-81271141D01*
X161982787Y-81359851D01*
X161978716Y-81368682D01*
X161969507Y-81386757D01*
X161963235Y-81406059D01*
X161959868Y-81415185D01*
X161923125Y-81503891D01*
X161900714Y-81597244D01*
X161898071Y-81606615D01*
X161891803Y-81625904D01*
X161891801Y-81625913D01*
X161888627Y-81645953D01*
X161886728Y-81655499D01*
X161864318Y-81748844D01*
X161864317Y-81748851D01*
X161856783Y-81844571D01*
X161855639Y-81854237D01*
X161852466Y-81874271D01*
X161852466Y-81894555D01*
X161852084Y-81904284D01*
X161844551Y-81999999D01*
X161844551Y-82000000D01*
X145309950Y-82000000D01*
X145025109Y-81851895D01*
X145025107Y-81851894D01*
X144681935Y-81712065D01*
X144463836Y-81645946D01*
X144327305Y-81604555D01*
X144327300Y-81604554D01*
X144327297Y-81604553D01*
X143964261Y-81530285D01*
X143964254Y-81530284D01*
X143595909Y-81489892D01*
X143595904Y-81489891D01*
X143595898Y-81489891D01*
X143569053Y-81489443D01*
X143225386Y-81483717D01*
X143225374Y-81483718D01*
X142855869Y-81511820D01*
X142490560Y-81573954D01*
X142132555Y-81669588D01*
X141784911Y-81797909D01*
X141784886Y-81797920D01*
X141450622Y-81957810D01*
X141450600Y-81957822D01*
X141132548Y-82147925D01*
X140833393Y-82366638D01*
X140555738Y-82612063D01*
X140301972Y-82882088D01*
X140301965Y-82882095D01*
X140074242Y-83174423D01*
X139874505Y-83486565D01*
X139789678Y-83650797D01*
X139789679Y-83650798D01*
X139789504Y-83651137D01*
X139789305Y-83651522D01*
X139789286Y-83651559D01*
X139520723Y-84171633D01*
X139017751Y-85229588D01*
X139017741Y-85229610D01*
X138550014Y-86303062D01*
X138549792Y-86303571D01*
X138117402Y-87392310D01*
X137721030Y-88494674D01*
X137361110Y-89609452D01*
X137038002Y-90735534D01*
X136752104Y-91871535D01*
X136503687Y-93016366D01*
X136293033Y-94168742D01*
X136120367Y-95327430D01*
X135985879Y-96491148D01*
X135889713Y-97658643D01*
X135831971Y-98828691D01*
X135812717Y-100000000D01*
X93755449Y-100000000D01*
X93748476Y-99911402D01*
X93748119Y-99904119D01*
X93747534Y-99874278D01*
X93747534Y-99874271D01*
X93744355Y-99854199D01*
X93743216Y-99844571D01*
X93735683Y-99748852D01*
X93713265Y-99655477D01*
X93711371Y-99645946D01*
X93708199Y-99625914D01*
X93708198Y-99625910D01*
X93701927Y-99606610D01*
X93699283Y-99597236D01*
X93694242Y-99576239D01*
X93676873Y-99503889D01*
X93640122Y-99415166D01*
X93636766Y-99406066D01*
X93630493Y-99386760D01*
X93621282Y-99368682D01*
X93617208Y-99359843D01*
X93580468Y-99271146D01*
X93580466Y-99271141D01*
X93530289Y-99189260D01*
X93525547Y-99180792D01*
X93516334Y-99162710D01*
X93504408Y-99146295D01*
X93499001Y-99138202D01*
X93448839Y-99056345D01*
X93448838Y-99056344D01*
X93448837Y-99056343D01*
X93448836Y-99056341D01*
X93386476Y-98983327D01*
X93380459Y-98975694D01*
X93374351Y-98967287D01*
X93368531Y-98959276D01*
X93354173Y-98944918D01*
X93347584Y-98937790D01*
X93285224Y-98864776D01*
X93212220Y-98802425D01*
X93212217Y-98802422D01*
X93205068Y-98795813D01*
X93190723Y-98781468D01*
X93174304Y-98769539D01*
X93166660Y-98763512D01*
X93093668Y-98701171D01*
X93093663Y-98701168D01*
X93093659Y-98701164D01*
X93073129Y-98688583D01*
X93011790Y-98650993D01*
X93003698Y-98645587D01*
X92987291Y-98633667D01*
X92987292Y-98633667D01*
X92987290Y-98633666D01*
X92980364Y-98630137D01*
X92969216Y-98624456D01*
X92960728Y-98619702D01*
X92878857Y-98569532D01*
X92790153Y-98532790D01*
X92781315Y-98528716D01*
X92763244Y-98519509D01*
X92763243Y-98519508D01*
X92763240Y-98519507D01*
X92759199Y-98518194D01*
X92743937Y-98513234D01*
X92734809Y-98509866D01*
X92646114Y-98473127D01*
X92552756Y-98450714D01*
X92543390Y-98448072D01*
X92524090Y-98441802D01*
X92504046Y-98438627D01*
X92494500Y-98436728D01*
X92401152Y-98414318D01*
X92401153Y-98414318D01*
X92401151Y-98414317D01*
X92401148Y-98414317D01*
X92350934Y-98410365D01*
X92305429Y-98406783D01*
X92295762Y-98405638D01*
X92275734Y-98402466D01*
X92275729Y-98402466D01*
X92255443Y-98402466D01*
X92245715Y-98402084D01*
X92150000Y-98394551D01*
X92054284Y-98402084D01*
X92044557Y-98402466D01*
X92024272Y-98402466D01*
X92024271Y-98402466D01*
X92007612Y-98405104D01*
X92004237Y-98405639D01*
X91994571Y-98406783D01*
X91898851Y-98414317D01*
X91898844Y-98414318D01*
X91805499Y-98436728D01*
X91795953Y-98438627D01*
X91775913Y-98441801D01*
X91775904Y-98441803D01*
X91756615Y-98448071D01*
X91747244Y-98450714D01*
X91653891Y-98473125D01*
X91565185Y-98509868D01*
X91556059Y-98513235D01*
X91536757Y-98519507D01*
X91518682Y-98528716D01*
X91509851Y-98532787D01*
X91421141Y-98569534D01*
X91339275Y-98619700D01*
X91330792Y-98624451D01*
X91312716Y-98633662D01*
X91312709Y-98633667D01*
X91296298Y-98645589D01*
X91288212Y-98650991D01*
X91206339Y-98701165D01*
X91133332Y-98763518D01*
X91125692Y-98769541D01*
X91109276Y-98781468D01*
X91094918Y-98795825D01*
X91087777Y-98802425D01*
X91014775Y-98864775D01*
X90952425Y-98937777D01*
X90945825Y-98944918D01*
X90931468Y-98959276D01*
X90919541Y-98975692D01*
X90913518Y-98983332D01*
X90851165Y-99056339D01*
X90800991Y-99138212D01*
X90795589Y-99146298D01*
X90783667Y-99162709D01*
X90783662Y-99162716D01*
X90774451Y-99180792D01*
X90769700Y-99189275D01*
X90719534Y-99271141D01*
X90682787Y-99359851D01*
X90678716Y-99368682D01*
X90669507Y-99386757D01*
X90663235Y-99406059D01*
X90659868Y-99415185D01*
X90623125Y-99503891D01*
X90600714Y-99597244D01*
X90598071Y-99606615D01*
X90591803Y-99625904D01*
X90591801Y-99625913D01*
X90588627Y-99645953D01*
X90586728Y-99655499D01*
X90564318Y-99748844D01*
X90564317Y-99748851D01*
X90556783Y-99844571D01*
X90555639Y-99854237D01*
X90552466Y-99874271D01*
X90552466Y-99894555D01*
X90552084Y-99904284D01*
X90544910Y-99995440D01*
X90544551Y-100000000D01*
X86354833Y-100000000D01*
X86354833Y-99692731D01*
X86354845Y-99690988D01*
X86355767Y-99625374D01*
X86363176Y-99098309D01*
X86363219Y-99096409D01*
X86382112Y-98480572D01*
X86382149Y-98479549D01*
X86407056Y-97889258D01*
X86407179Y-97886904D01*
X86445216Y-97267564D01*
X86445268Y-97266767D01*
X86486402Y-96682480D01*
X86486618Y-96679831D01*
X86544609Y-96051323D01*
X86601126Y-95478806D01*
X86601429Y-95476073D01*
X86681970Y-94822844D01*
X86751097Y-94279359D01*
X86751536Y-94276240D01*
X86873392Y-93487837D01*
X86917415Y-93205403D01*
X86947190Y-93142195D01*
X87006411Y-93105118D01*
X87039936Y-93100500D01*
X90985595Y-93100500D01*
X90996330Y-93101508D01*
X90997687Y-93100583D01*
X90997689Y-93100584D01*
X90997689Y-93100582D01*
X90999086Y-93099631D01*
X91000243Y-93087717D01*
X91019024Y-92993260D01*
X91171456Y-92244636D01*
X91171737Y-92243305D01*
X91235342Y-91951565D01*
X91235652Y-91950191D01*
X91408663Y-91206109D01*
X91431490Y-91109945D01*
X91434525Y-91100604D01*
X91433875Y-91099523D01*
X91430262Y-91098723D01*
X91414831Y-91094901D01*
X91398303Y-91099500D01*
X87482409Y-91099500D01*
X87415370Y-91079815D01*
X87369615Y-91027011D01*
X87359671Y-90957853D01*
X87361709Y-90947085D01*
X87370049Y-90911659D01*
X87593742Y-89972408D01*
X87594388Y-89969831D01*
X87712208Y-89521719D01*
X87712317Y-89521309D01*
X87899902Y-88829737D01*
X87900407Y-88827941D01*
X88040855Y-88344962D01*
X88041222Y-88343731D01*
X88241448Y-87687007D01*
X88241904Y-87685549D01*
X88253854Y-87648100D01*
X88394764Y-87206499D01*
X88395373Y-87204648D01*
X88625458Y-86526281D01*
X88625692Y-86525600D01*
X88630214Y-86512601D01*
X88777876Y-86088108D01*
X88778783Y-86085595D01*
X89116572Y-85182875D01*
X89155091Y-85080741D01*
X89197167Y-85024962D01*
X89262720Y-85000784D01*
X89271114Y-85000500D01*
X93491299Y-85000500D01*
X93508748Y-85004181D01*
X93517820Y-85000658D01*
X93517822Y-85000659D01*
X93517822Y-85000657D01*
X93517873Y-85000638D01*
X93518881Y-84998316D01*
X93559591Y-84908650D01*
X93915068Y-84135934D01*
X93915741Y-84134500D01*
X94050287Y-83853180D01*
X94050938Y-83851844D01*
X94429395Y-83089993D01*
X94464989Y-83019227D01*
X94469047Y-83013711D01*
X94472432Y-83005411D01*
X94474878Y-83000112D01*
X94474680Y-82999492D01*
X94469834Y-82997243D01*
X94469494Y-82997068D01*
X94453950Y-82999500D01*
X90227163Y-82999500D01*
X90160124Y-82979815D01*
X90114369Y-82927011D01*
X90104425Y-82857853D01*
X90115053Y-82822517D01*
X90213957Y-82613240D01*
X90553872Y-81893998D01*
X90553903Y-81893964D01*
X90553891Y-81893958D01*
X90559220Y-81882694D01*
X90560823Y-81879431D01*
X90943221Y-81129611D01*
X91129435Y-80765578D01*
X91131028Y-80762570D01*
X91497225Y-80094980D01*
X91497240Y-80094988D01*
X91497330Y-80094789D01*
X91497447Y-80094575D01*
X91733466Y-79666377D01*
X91735103Y-79663503D01*
X92104101Y-79036365D01*
X92370738Y-78586137D01*
X92372347Y-78583502D01*
X92750150Y-77983499D01*
X93040609Y-77525936D01*
X93042303Y-77523344D01*
X93431389Y-76944820D01*
X93742531Y-76486633D01*
X93744218Y-76484214D01*
X94145918Y-75924122D01*
X94455056Y-75497870D01*
X121349500Y-75497870D01*
X121349501Y-75497876D01*
X121355908Y-75557483D01*
X121406202Y-75692328D01*
X121406206Y-75692335D01*
X121492452Y-75807544D01*
X121492455Y-75807547D01*
X121607664Y-75893793D01*
X121607671Y-75893797D01*
X121742517Y-75944091D01*
X121742516Y-75944091D01*
X121749444Y-75944835D01*
X121802127Y-75950500D01*
X123597872Y-75950499D01*
X123657483Y-75944091D01*
X123792331Y-75893796D01*
X123907546Y-75807546D01*
X123993796Y-75692331D01*
X124042810Y-75560916D01*
X124084681Y-75504984D01*
X124150145Y-75480566D01*
X124218418Y-75495417D01*
X124246673Y-75516569D01*
X124368599Y-75638495D01*
X124465384Y-75706265D01*
X124562165Y-75774032D01*
X124562167Y-75774033D01*
X124562170Y-75774035D01*
X124776337Y-75873903D01*
X125004592Y-75935063D01*
X125181034Y-75950500D01*
X125239999Y-75955659D01*
X125240000Y-75955659D01*
X125240001Y-75955659D01*
X125298966Y-75950500D01*
X125475408Y-75935063D01*
X125703663Y-75873903D01*
X125917830Y-75774035D01*
X126111401Y-75638495D01*
X126278495Y-75471401D01*
X126414035Y-75277830D01*
X126513903Y-75063663D01*
X126575063Y-74835408D01*
X126595659Y-74600000D01*
X126575063Y-74364592D01*
X126513903Y-74136337D01*
X126414035Y-73922171D01*
X126278495Y-73728599D01*
X126278494Y-73728597D01*
X126111402Y-73561506D01*
X126111395Y-73561501D01*
X125917834Y-73425967D01*
X125917830Y-73425965D01*
X125917828Y-73425964D01*
X125703663Y-73326097D01*
X125703659Y-73326096D01*
X125703655Y-73326094D01*
X125475413Y-73264938D01*
X125475403Y-73264936D01*
X125240001Y-73244341D01*
X125239999Y-73244341D01*
X125004596Y-73264936D01*
X125004586Y-73264938D01*
X124776344Y-73326094D01*
X124776335Y-73326098D01*
X124562171Y-73425964D01*
X124562169Y-73425965D01*
X124368600Y-73561503D01*
X124246673Y-73683430D01*
X124185350Y-73716914D01*
X124115658Y-73711930D01*
X124059725Y-73670058D01*
X124042810Y-73639081D01*
X123993797Y-73507671D01*
X123993793Y-73507664D01*
X123907547Y-73392455D01*
X123907544Y-73392452D01*
X123792335Y-73306206D01*
X123792328Y-73306202D01*
X123657482Y-73255908D01*
X123657483Y-73255908D01*
X123597883Y-73249501D01*
X123597881Y-73249500D01*
X123597873Y-73249500D01*
X123597864Y-73249500D01*
X121802129Y-73249500D01*
X121802123Y-73249501D01*
X121742516Y-73255908D01*
X121607671Y-73306202D01*
X121607664Y-73306206D01*
X121492455Y-73392452D01*
X121492452Y-73392455D01*
X121406206Y-73507664D01*
X121406202Y-73507671D01*
X121355908Y-73642517D01*
X121349501Y-73702116D01*
X121349500Y-73702135D01*
X121349500Y-75497870D01*
X94455056Y-75497870D01*
X94475800Y-75469267D01*
X94477502Y-75466980D01*
X94892469Y-74923710D01*
X95239736Y-74474779D01*
X95241456Y-74472609D01*
X95669912Y-73945377D01*
X96033672Y-73504032D01*
X96035355Y-73502039D01*
X96477301Y-72990483D01*
X96856816Y-72557999D01*
X96858530Y-72556089D01*
X97313869Y-72060044D01*
X97708398Y-71637551D01*
X97710042Y-71635828D01*
X98178604Y-71155264D01*
X98178969Y-71154894D01*
X98587643Y-70743526D01*
X98589229Y-70741962D01*
X99070936Y-70276798D01*
X99071367Y-70276387D01*
X99152099Y-70200000D01*
X122450000Y-70200000D01*
X122450000Y-70447844D01*
X122456401Y-70507372D01*
X122456403Y-70507379D01*
X122506645Y-70642086D01*
X122506649Y-70642093D01*
X122592809Y-70757187D01*
X122592812Y-70757190D01*
X122707906Y-70843350D01*
X122707913Y-70843354D01*
X122842620Y-70893596D01*
X122842627Y-70893598D01*
X122902155Y-70899999D01*
X122902172Y-70900000D01*
X123500000Y-70900000D01*
X124000000Y-70900000D01*
X124597828Y-70900000D01*
X124597844Y-70899999D01*
X124657372Y-70893598D01*
X124657379Y-70893596D01*
X124792086Y-70843354D01*
X124792093Y-70843350D01*
X124907187Y-70757190D01*
X124907190Y-70757187D01*
X124993350Y-70642093D01*
X124993354Y-70642086D01*
X125043596Y-70507379D01*
X125043598Y-70507372D01*
X125049999Y-70447844D01*
X125050000Y-70447827D01*
X125050000Y-70200000D01*
X124353552Y-70200000D01*
X124000000Y-70553552D01*
X124000000Y-70900000D01*
X123500000Y-70900000D01*
X123500000Y-70553553D01*
X123146447Y-70200000D01*
X122450000Y-70200000D01*
X99152099Y-70200000D01*
X99396724Y-69968540D01*
X123121049Y-69968540D01*
X123151543Y-70035313D01*
X123213297Y-70075000D01*
X123267972Y-70075000D01*
X123320433Y-70059596D01*
X123368504Y-70004119D01*
X123373620Y-69968540D01*
X124121049Y-69968540D01*
X124151543Y-70035313D01*
X124213297Y-70075000D01*
X124267972Y-70075000D01*
X124320433Y-70059596D01*
X124368504Y-70004119D01*
X124378951Y-69931460D01*
X124348457Y-69864687D01*
X124286703Y-69825000D01*
X124232028Y-69825000D01*
X124179567Y-69840404D01*
X124131496Y-69895881D01*
X124121049Y-69968540D01*
X123373620Y-69968540D01*
X123378951Y-69931460D01*
X123348457Y-69864687D01*
X123286703Y-69825000D01*
X123232028Y-69825000D01*
X123179567Y-69840404D01*
X123131496Y-69895881D01*
X123121049Y-69968540D01*
X99396724Y-69968540D01*
X99493655Y-69876825D01*
X99495344Y-69875258D01*
X99688128Y-69700000D01*
X122450000Y-69700000D01*
X123146447Y-69700000D01*
X123146447Y-69699999D01*
X123250000Y-69596447D01*
X123499999Y-69346446D01*
X123500000Y-69346445D01*
X123500000Y-69000000D01*
X124000000Y-69000000D01*
X124000000Y-69346446D01*
X124250000Y-69596447D01*
X124353553Y-69700000D01*
X125050000Y-69700000D01*
X125050000Y-69452172D01*
X125049999Y-69452155D01*
X125043598Y-69392627D01*
X125043596Y-69392620D01*
X124993354Y-69257913D01*
X124993350Y-69257906D01*
X124907190Y-69142812D01*
X124907187Y-69142809D01*
X124792093Y-69056649D01*
X124792086Y-69056645D01*
X124657379Y-69006403D01*
X124657372Y-69006401D01*
X124597844Y-69000000D01*
X124000000Y-69000000D01*
X123500000Y-69000000D01*
X122902155Y-69000000D01*
X122842627Y-69006401D01*
X122842620Y-69006403D01*
X122707913Y-69056645D01*
X122707906Y-69056649D01*
X122592812Y-69142809D01*
X122592809Y-69142812D01*
X122506649Y-69257906D01*
X122506645Y-69257913D01*
X122456403Y-69392620D01*
X122456401Y-69392627D01*
X122450000Y-69452155D01*
X122450000Y-69700000D01*
X99688128Y-69700000D01*
X99989739Y-69425809D01*
X99990296Y-69425308D01*
X100425677Y-69038159D01*
X100427355Y-69036695D01*
X100934257Y-68603022D01*
X100935119Y-68602294D01*
X101382940Y-68228231D01*
X101384418Y-68227019D01*
X101903463Y-67809357D01*
X101904538Y-67808503D01*
X102364342Y-67447972D01*
X102365705Y-67446923D01*
X102896784Y-67045311D01*
X102897895Y-67044483D01*
X103368873Y-66698163D01*
X103370384Y-66697072D01*
X103912955Y-66311888D01*
X103914056Y-66311118D01*
X104395884Y-65979276D01*
X104397361Y-65978276D01*
X104951117Y-65609716D01*
X104952374Y-65608894D01*
X105444283Y-65292078D01*
X105445527Y-65291289D01*
X106010270Y-64939482D01*
X106011657Y-64938634D01*
X106513068Y-64637218D01*
X106514258Y-64636514D01*
X107089470Y-64301795D01*
X107090855Y-64301004D01*
X107601097Y-64015379D01*
X107602480Y-64014617D01*
X108134915Y-63725889D01*
X173613109Y-63725889D01*
X173613152Y-63750000D01*
X173613193Y-63750099D01*
X173613310Y-63750383D01*
X173613311Y-63750384D01*
X173613501Y-63750462D01*
X173613693Y-63750541D01*
X173613695Y-63750539D01*
X173638309Y-63750524D01*
X173638309Y-63750528D01*
X173638453Y-63750500D01*
X183725240Y-63750500D01*
X183725383Y-63750528D01*
X183725384Y-63750524D01*
X183749997Y-63750539D01*
X183750000Y-63750541D01*
X183750383Y-63750383D01*
X183750500Y-63750099D01*
X183750541Y-63750000D01*
X183750540Y-63749997D01*
X183750583Y-63725889D01*
X183750500Y-63725467D01*
X183750500Y-60774759D01*
X183750528Y-60774616D01*
X183750524Y-60774616D01*
X183750539Y-60750002D01*
X183750541Y-60750000D01*
X183750462Y-60749808D01*
X183750384Y-60749618D01*
X183750380Y-60749614D01*
X183750194Y-60749538D01*
X183750002Y-60749459D01*
X183725446Y-60749459D01*
X183725240Y-60749500D01*
X173638453Y-60749500D01*
X173638247Y-60749459D01*
X173613691Y-60749459D01*
X173613500Y-60749538D01*
X173613312Y-60749615D01*
X173613308Y-60749618D01*
X173613152Y-60749999D01*
X173613169Y-60774616D01*
X173613164Y-60774616D01*
X173613193Y-60774759D01*
X173613193Y-63725467D01*
X173613109Y-63725889D01*
X108134915Y-63725889D01*
X108187593Y-63697323D01*
X108189179Y-63696481D01*
X108707750Y-63426905D01*
X108708583Y-63426479D01*
X109303653Y-63126610D01*
X109305598Y-63125652D01*
X109831376Y-62872665D01*
X109832220Y-62872265D01*
X110436851Y-62590076D01*
X110438795Y-62589192D01*
X110971369Y-62352929D01*
X110971912Y-62352692D01*
X111585828Y-62088378D01*
X111587873Y-62087522D01*
X112126212Y-61868366D01*
X112127030Y-61868038D01*
X112749612Y-61621940D01*
X112751797Y-61621102D01*
X113295156Y-61419255D01*
X113295748Y-61419038D01*
X113927164Y-61191183D01*
X113929422Y-61190395D01*
X114476943Y-61006061D01*
X114477196Y-61005977D01*
X115117268Y-60796555D01*
X115119667Y-60795800D01*
X115670180Y-60629225D01*
X115670318Y-60629183D01*
X116318944Y-60438383D01*
X116321428Y-60437683D01*
X116873533Y-60289098D01*
X117530958Y-60117038D01*
X117533685Y-60116359D01*
X118085764Y-59985948D01*
X118752370Y-59832774D01*
X118755081Y-59832187D01*
X119305031Y-59720112D01*
X119981769Y-59585924D01*
X119984679Y-59585386D01*
X120529945Y-59491726D01*
X121218147Y-59376684D01*
X121221216Y-59376213D01*
X121757118Y-59301140D01*
X122460388Y-59205247D01*
X122463693Y-59204842D01*
X122982757Y-59148433D01*
X123707345Y-59071776D01*
X123710691Y-59071469D01*
X124196786Y-59033807D01*
X124957763Y-58976407D01*
X124961282Y-58976192D01*
X125368596Y-58957282D01*
X126210591Y-58919221D01*
X126214152Y-58919113D01*
X126220254Y-58919018D01*
X126221356Y-58919002D01*
X126221412Y-58919018D01*
X126221412Y-58919001D01*
X127330579Y-58902299D01*
X127449144Y-58900514D01*
X127451011Y-58900500D01*
X213525500Y-58900500D01*
X213592539Y-58920185D01*
G37*
%TD.AperFunction*%
%TD*%
M02*
