M48
; DRILL file {KiCad 7.0.10-7.0.10~ubuntu22.04.1} date Sun 21 Apr 2024 02:18:26 PM EDT
; FORMAT={-:-/ absolute / inch / decimal}
; #@! TF.CreationDate,2024-04-21T14:18:26-04:00
; #@! TF.GenerationSoftware,Kicad,Pcbnew,7.0.10-7.0.10~ubuntu22.04.1
; #@! TF.FileFunction,Plated,1,2,PTH
FMAT,2
INCH
; #@! TA.AperFunction,Plated,PTH,ComponentDrill
T1C0.0079
; #@! TA.AperFunction,Plated,PTH,ComponentDrill
T2C0.0098
; #@! TA.AperFunction,Plated,PTH,ViaDrill
T3C0.0157
; #@! TA.AperFunction,Plated,PTH,ComponentDrill
T4C0.0236
; #@! TA.AperFunction,Plated,PTH,ComponentDrill
T5C0.0300
; #@! TA.AperFunction,Plated,PTH,ComponentDrill
T6C0.0394
; #@! TA.AperFunction,Plated,PTH,ComponentDrill
T7C0.0945
%
G90
G05
T1
X4.9409Y-4.7441
X4.9409Y-4.7906
X4.9874Y-4.7441
X4.9874Y-4.7906
T2
X4.8524Y-2.7539
X4.8917Y-2.7539
X5.1575Y-2.7559
X5.1969Y-2.7559
T3
X4.2441Y-2.7205
X4.248Y-3.3504
X4.248Y-4.5547
X4.248Y-5.185
X4.6457Y-5.0236
X4.6693Y-4.9213
X4.685Y-5.4675
X4.7087Y-4.874
X4.7677Y-5.315
X4.8031Y-5.4675
X4.8661Y-3.9291
X4.8661Y-4.9882
X4.874Y-3.5512
X4.9449Y-4.9882
X4.9685Y-2.7165
X4.9724Y-4.0394
X4.9764Y-4.0906
X4.9961Y-4.6496
X5.0169Y-2.7153
X5.056Y-2.722
X5.0709Y-4.7598
X5.1575Y-2.6654
X5.1697Y-5.0535
X5.2008Y-4.622
X5.2126Y-4.8307
X5.2458Y-5.3148
X5.248Y-5.063
X5.2559Y-4.9921
X5.3465Y-5.189
X5.5709Y-4.9528
X5.6039Y-4.8409
X5.6063Y-4.8937
X5.6063Y-4.9291
X5.6457Y-4.9499
X5.7087Y-5.0079
X5.9252Y-2.7874
X6.1417Y-3.063
X6.1732Y-4.4646
X6.2087Y-3.4685
X7.2835Y-4.4016
X7.2861Y-4.7586
X7.3937Y-4.0591
X7.4488Y-4.1102
X7.4567Y-3.8256
X7.4567Y-3.8976
X7.4652Y-4.1529
X7.4912Y-4.3712
X7.5Y-3.6878
X7.5157Y-3.9961
X7.5945Y-3.9442
X7.6417Y-4.0669
X7.6609Y-4.4291
X7.669Y-3.9769
X7.6772Y-4.2874
X7.7183Y-4.4865
X7.7328Y-4.4291
X7.748Y-3.9646
X7.748Y-4.0276
X7.7815Y-3.8071
X7.7992Y-3.6575
X7.8268Y-4.126
X7.8323Y-4.3287
X7.9606Y-3.7126
X7.9606Y-4.2165
X7.9921Y-3.7717
X8.0984Y-4.1417
T5
X7.9048Y-4.4601
X7.9048Y-4.5389
X7.9141Y-3.3273
X7.9141Y-3.406
X8.0819Y-4.4601
X8.0819Y-4.5389
X8.0913Y-3.3273
X8.0913Y-3.406
T6
X4.8307Y-2.937
X4.9307Y-2.937
X5.126Y-2.937
X5.226Y-2.937
T7
X7.9606Y-3.9646
T4
X5.0661Y-5.2695G85X5.0661Y-5.3128
G05
X5.0661Y-5.44G85X5.0661Y-5.4715
G05
X5.4063Y-5.2695G85X5.4063Y-5.3128
G05
X5.4063Y-5.44G85X5.4063Y-5.4715
G05
M30
