%TF.GenerationSoftware,KiCad,Pcbnew,7.0.10-7.0.10~ubuntu22.04.1*%
%TF.CreationDate,2024-04-24T18:12:55-04:00*%
%TF.ProjectId,little_red_rover,6c697474-6c65-45f7-9265-645f726f7665,rev?*%
%TF.SameCoordinates,Original*%
%TF.FileFunction,Paste,Top*%
%TF.FilePolarity,Positive*%
%FSLAX46Y46*%
G04 Gerber Fmt 4.6, Leading zero omitted, Abs format (unit mm)*
G04 Created by KiCad (PCBNEW 7.0.10-7.0.10~ubuntu22.04.1) date 2024-04-24 18:12:55*
%MOMM*%
%LPD*%
G01*
G04 APERTURE LIST*
G04 Aperture macros list*
%AMRoundRect*
0 Rectangle with rounded corners*
0 $1 Rounding radius*
0 $2 $3 $4 $5 $6 $7 $8 $9 X,Y pos of 4 corners*
0 Add a 4 corners polygon primitive as box body*
4,1,4,$2,$3,$4,$5,$6,$7,$8,$9,$2,$3,0*
0 Add four circle primitives for the rounded corners*
1,1,$1+$1,$2,$3*
1,1,$1+$1,$4,$5*
1,1,$1+$1,$6,$7*
1,1,$1+$1,$8,$9*
0 Add four rect primitives between the rounded corners*
20,1,$1+$1,$2,$3,$4,$5,0*
20,1,$1+$1,$4,$5,$6,$7,0*
20,1,$1+$1,$6,$7,$8,$9,0*
20,1,$1+$1,$8,$9,$2,$3,0*%
%AMRotRect*
0 Rectangle, with rotation*
0 The origin of the aperture is its center*
0 $1 length*
0 $2 width*
0 $3 Rotation angle, in degrees counterclockwise*
0 Add horizontal line*
21,1,$1,$2,0,0,$3*%
%AMFreePoly0*
4,1,6,0.725000,-0.725000,-0.725000,-0.725000,-0.725000,0.125000,-0.125000,0.725000,0.725000,0.725000,0.725000,-0.725000,0.725000,-0.725000,$1*%
G04 Aperture macros list end*
%ADD10RoundRect,0.150000X0.150000X-0.512500X0.150000X0.512500X-0.150000X0.512500X-0.150000X-0.512500X0*%
%ADD11RoundRect,0.250001X-0.849999X0.462499X-0.849999X-0.462499X0.849999X-0.462499X0.849999X0.462499X0*%
%ADD12RoundRect,0.237500X-0.300000X-0.237500X0.300000X-0.237500X0.300000X0.237500X-0.300000X0.237500X0*%
%ADD13RoundRect,0.237500X-0.044194X-0.380070X0.380070X0.044194X0.044194X0.380070X-0.380070X-0.044194X0*%
%ADD14RoundRect,0.237500X0.237500X-0.300000X0.237500X0.300000X-0.237500X0.300000X-0.237500X-0.300000X0*%
%ADD15RoundRect,0.237500X0.237500X-0.287500X0.237500X0.287500X-0.237500X0.287500X-0.237500X-0.287500X0*%
%ADD16RoundRect,0.237500X0.237500X-0.250000X0.237500X0.250000X-0.237500X0.250000X-0.237500X-0.250000X0*%
%ADD17RoundRect,0.237500X0.300000X0.237500X-0.300000X0.237500X-0.300000X-0.237500X0.300000X-0.237500X0*%
%ADD18RoundRect,0.237500X-0.237500X0.250000X-0.237500X-0.250000X0.237500X-0.250000X0.237500X0.250000X0*%
%ADD19RoundRect,0.237500X-0.250000X-0.237500X0.250000X-0.237500X0.250000X0.237500X-0.250000X0.237500X0*%
%ADD20RoundRect,0.150000X-0.150000X-0.425000X0.150000X-0.425000X0.150000X0.425000X-0.150000X0.425000X0*%
%ADD21RoundRect,0.075000X-0.075000X-0.500000X0.075000X-0.500000X0.075000X0.500000X-0.075000X0.500000X0*%
%ADD22O,1.000000X2.100000*%
%ADD23O,1.000000X1.800000*%
%ADD24RoundRect,0.237500X0.250000X0.237500X-0.250000X0.237500X-0.250000X-0.237500X0.250000X-0.237500X0*%
%ADD25RoundRect,0.237500X-0.380070X0.044194X0.044194X-0.380070X0.380070X-0.044194X-0.044194X0.380070X0*%
%ADD26RotRect,0.750000X0.650000X315.000000*%
%ADD27RoundRect,0.062500X-0.176777X0.088388X0.088388X-0.176777X0.176777X-0.088388X-0.088388X0.176777X0*%
%ADD28RoundRect,0.182500X0.182500X-0.182500X0.182500X0.182500X-0.182500X0.182500X-0.182500X-0.182500X0*%
%ADD29RoundRect,0.062500X0.062500X-0.350000X0.062500X0.350000X-0.062500X0.350000X-0.062500X-0.350000X0*%
%ADD30RoundRect,0.062500X0.350000X-0.062500X0.350000X0.062500X-0.350000X0.062500X-0.350000X-0.062500X0*%
%ADD31RoundRect,0.237500X0.044194X0.380070X-0.380070X-0.044194X-0.044194X-0.380070X0.380070X0.044194X0*%
%ADD32RotRect,0.750000X0.650000X45.000000*%
%ADD33RoundRect,0.062500X-0.088388X-0.176777X0.176777X0.088388X0.088388X0.176777X-0.176777X-0.088388X0*%
%ADD34R,0.400000X1.800000*%
%ADD35R,1.800000X0.400000*%
%ADD36R,0.800000X0.400000*%
%ADD37FreePoly0,270.000000*%
%ADD38R,1.450000X1.450000*%
%ADD39R,0.700000X1.700000*%
%ADD40R,1.700000X1.700000*%
%ADD41RoundRect,0.087500X-0.225000X-0.087500X0.225000X-0.087500X0.225000X0.087500X-0.225000X0.087500X0*%
%ADD42RoundRect,0.087500X-0.087500X-0.225000X0.087500X-0.225000X0.087500X0.225000X-0.087500X0.225000X0*%
%ADD43R,0.700000X0.700000*%
%ADD44RoundRect,0.237500X-0.237500X0.300000X-0.237500X-0.300000X0.237500X-0.300000X0.237500X0.300000X0*%
%ADD45R,0.660400X1.701800*%
%ADD46R,1.092200X2.794000*%
G04 APERTURE END LIST*
D10*
%TO.C,U4*%
X114512500Y-134537500D03*
X115462500Y-134537500D03*
X116412500Y-134537500D03*
X116412500Y-132262500D03*
X114512500Y-132262500D03*
%TD*%
D11*
%TO.C,L2*%
X112000000Y-132037500D03*
X112000000Y-134362500D03*
%TD*%
D12*
%TO.C,C12*%
X115137500Y-129000000D03*
X116862500Y-129000000D03*
%TD*%
%TO.C,C11*%
X115137500Y-130600000D03*
X116862500Y-130600000D03*
%TD*%
D13*
%TO.C,C7*%
X155590120Y-110609880D03*
X156809880Y-109390120D03*
%TD*%
D14*
%TO.C,C1*%
X106525000Y-119200068D03*
X106525000Y-117475068D03*
%TD*%
D15*
%TO.C,D1*%
X151900000Y-138656250D03*
X151900000Y-136906250D03*
%TD*%
D16*
%TO.C,R3*%
X108525000Y-124250068D03*
X108525000Y-122425068D03*
%TD*%
D17*
%TO.C,R15*%
X190862500Y-106000000D03*
X189137500Y-106000000D03*
%TD*%
D18*
%TO.C,R8*%
X108525000Y-113425068D03*
X108525000Y-115250068D03*
%TD*%
D10*
%TO.C,U3*%
X117472500Y-124272568D03*
X118422500Y-124272568D03*
X119372500Y-124272568D03*
X119372500Y-121997568D03*
X117472500Y-121997568D03*
%TD*%
D19*
%TO.C,R2*%
X143800000Y-131600000D03*
X145625000Y-131600000D03*
%TD*%
D13*
%TO.C,C10*%
X161190120Y-87609880D03*
X162409880Y-86390120D03*
%TD*%
D20*
%TO.C,J1*%
X139600000Y-133720000D03*
X140400000Y-133720000D03*
D21*
X141550000Y-133720000D03*
X142550000Y-133720000D03*
X143050000Y-133720000D03*
X144050000Y-133720000D03*
D20*
X145200000Y-133720000D03*
X146000000Y-133720000D03*
X146000000Y-133720000D03*
X145200000Y-133720000D03*
D21*
X144550000Y-133720000D03*
X143550000Y-133720000D03*
X142050000Y-133720000D03*
X141050000Y-133720000D03*
D20*
X140400000Y-133720000D03*
X139600000Y-133720000D03*
D22*
X138480000Y-134295000D03*
D23*
X138480000Y-138475000D03*
D22*
X147120000Y-134295000D03*
D23*
X147120000Y-138475000D03*
%TD*%
D14*
%TO.C,C2*%
X110525000Y-115200068D03*
X110525000Y-113475068D03*
%TD*%
D24*
%TO.C,R13*%
X190912500Y-101500000D03*
X189087500Y-101500000D03*
%TD*%
D25*
%TO.C,C8*%
X158990120Y-85190120D03*
X160209880Y-86409880D03*
%TD*%
D12*
%TO.C,C4*%
X116560000Y-126135068D03*
X118285000Y-126135068D03*
%TD*%
D19*
%TO.C,R12*%
X194587500Y-112500000D03*
X196412500Y-112500000D03*
%TD*%
D26*
%TO.C,U5*%
X158958936Y-88139697D03*
X158393250Y-88705383D03*
D27*
X158534672Y-87220458D03*
X158181118Y-87574012D03*
X157827565Y-87927565D03*
X157474011Y-88281119D03*
X158817514Y-89624622D03*
X159171068Y-89271068D03*
X159524621Y-88917515D03*
X159878175Y-88563961D03*
%TD*%
D24*
%TO.C,R10*%
X204512500Y-92000000D03*
X202687500Y-92000000D03*
%TD*%
D28*
%TO.C,U2*%
X110642500Y-119007568D03*
X111482500Y-119007568D03*
X110642500Y-118167568D03*
X111482500Y-118167568D03*
D29*
X110312500Y-120050068D03*
X110812500Y-120050068D03*
X111312500Y-120050068D03*
X111812500Y-120050068D03*
D30*
X112525000Y-119337568D03*
X112525000Y-118837568D03*
X112525000Y-118337568D03*
X112525000Y-117837568D03*
D29*
X111812500Y-117125068D03*
X111312500Y-117125068D03*
X110812500Y-117125068D03*
X110312500Y-117125068D03*
D30*
X109600000Y-117837568D03*
X109600000Y-118337568D03*
X109600000Y-118837568D03*
X109600000Y-119337568D03*
%TD*%
D15*
%TO.C,D2*%
X154900000Y-138675000D03*
X154900000Y-136925000D03*
%TD*%
D31*
%TO.C,C9*%
X160009880Y-112390120D03*
X158790120Y-113609880D03*
%TD*%
D32*
%TO.C,U6*%
X158281118Y-110553197D03*
X158846804Y-111118883D03*
D33*
X157361879Y-110977461D03*
X157715433Y-111331015D03*
X158068986Y-111684568D03*
X158422540Y-112038122D03*
X159766043Y-110694619D03*
X159412489Y-110341065D03*
X159058936Y-109987512D03*
X158705382Y-109633958D03*
%TD*%
D34*
%TO.C,U1*%
X206200000Y-94300000D03*
X205400000Y-94300000D03*
X204600000Y-94300000D03*
X203800000Y-94300000D03*
X203000000Y-94300000D03*
X202200000Y-94300000D03*
X201400000Y-94300000D03*
X200600000Y-94300000D03*
X199800000Y-94300000D03*
X199000000Y-94300000D03*
X198200000Y-94300000D03*
D35*
X196800000Y-95900000D03*
X196800000Y-96700000D03*
X196800000Y-97500000D03*
X196800000Y-98300000D03*
X196800000Y-99100000D03*
X196800000Y-99900000D03*
X196800000Y-100700000D03*
X196800000Y-101500000D03*
X196800000Y-102300000D03*
X196800000Y-103100000D03*
X196800000Y-103900000D03*
X196800000Y-104700000D03*
X196800000Y-105500000D03*
D34*
X198200000Y-107100000D03*
X199000000Y-107100000D03*
X199800000Y-107100000D03*
X200600000Y-107100000D03*
X201400000Y-107100000D03*
X202200000Y-107100000D03*
X203000000Y-107100000D03*
X203800000Y-107100000D03*
X204600000Y-107100000D03*
X205400000Y-107100000D03*
X206200000Y-107100000D03*
D36*
X207100000Y-105500000D03*
X207100000Y-104700000D03*
X207100000Y-103900000D03*
X207100000Y-103100000D03*
X207100000Y-102300000D03*
X207100000Y-101500000D03*
X207100000Y-100700000D03*
X207100000Y-99900000D03*
X207100000Y-99100000D03*
X207100000Y-98300000D03*
X207100000Y-97500000D03*
X207100000Y-96700000D03*
X207100000Y-95900000D03*
D37*
X204175000Y-98725000D03*
D38*
X202200000Y-98725000D03*
X200225000Y-98725000D03*
X204175000Y-100700000D03*
X200225000Y-100700000D03*
X204175000Y-102675000D03*
X202200000Y-102675000D03*
X200225000Y-102675000D03*
D39*
X207150000Y-107050000D03*
D40*
X196800000Y-107050000D03*
X196800000Y-94350000D03*
D39*
X207150000Y-94350000D03*
%TD*%
D41*
%TO.C,U9*%
X188837500Y-109250000D03*
X188837500Y-109750000D03*
X188837500Y-110250000D03*
X188837500Y-110750000D03*
D42*
X189500000Y-110912500D03*
X190000000Y-110912500D03*
X190500000Y-110912500D03*
D41*
X191162500Y-110750000D03*
X191162500Y-110250000D03*
X191162500Y-109750000D03*
X191162500Y-109250000D03*
D42*
X190500000Y-109087500D03*
X190000000Y-109087500D03*
X189500000Y-109087500D03*
%TD*%
D24*
%TO.C,R5*%
X155812500Y-134781250D03*
X153987500Y-134781250D03*
%TD*%
D43*
%TO.C,D5*%
X189450000Y-91915000D03*
X190550000Y-91915000D03*
X190550000Y-90085000D03*
X189450000Y-90085000D03*
%TD*%
D19*
%TO.C,R7*%
X103560000Y-123097568D03*
X105385000Y-123097568D03*
%TD*%
D24*
%TO.C,R1*%
X141712500Y-131700000D03*
X139887500Y-131700000D03*
%TD*%
D43*
%TO.C,D3*%
X189400000Y-99000000D03*
X190500000Y-99000000D03*
X190500000Y-97170000D03*
X189400000Y-97170000D03*
%TD*%
D17*
%TO.C,R14*%
X190862500Y-104400000D03*
X189137500Y-104400000D03*
%TD*%
D43*
%TO.C,D4*%
X189400000Y-95500000D03*
X190500000Y-95500000D03*
X190500000Y-93670000D03*
X189400000Y-93670000D03*
%TD*%
D44*
%TO.C,C5*%
X110525000Y-122475068D03*
X110525000Y-124200068D03*
%TD*%
D19*
%TO.C,R11*%
X193175000Y-90500000D03*
X195000000Y-90500000D03*
%TD*%
%TO.C,R6*%
X104612500Y-121337568D03*
X106437500Y-121337568D03*
%TD*%
%TO.C,R4*%
X149987500Y-134781250D03*
X151812500Y-134781250D03*
%TD*%
D45*
%TO.C,J2*%
X141125000Y-61124300D03*
X142375000Y-61124300D03*
X143625000Y-61124300D03*
X144875000Y-61124300D03*
D46*
X139200000Y-64200000D03*
X146800000Y-64200000D03*
%TD*%
D17*
%TO.C,C3*%
X117285000Y-120135068D03*
X115560000Y-120135068D03*
%TD*%
M02*
